<?xml version="1.0" encoding="UTF-8" standalone="no"?>
<!-- Created with Inkscape (http://www.inkscape.org/) -->

<svg
   xmlns:dc="http://purl.org/dc/elements/1.1/"
   xmlns:cc="http://creativecommons.org/ns#"
   xmlns:rdf="http://www.w3.org/1999/02/22-rdf-syntax-ns#"
   xmlns:svg="http://www.w3.org/2000/svg"
   xmlns="http://www.w3.org/2000/svg"
   xmlns:sodipodi="http://sodipodi.sourceforge.net/DTD/sodipodi-0.dtd"
   xmlns:inkscape="http://www.inkscape.org/namespaces/inkscape"
   id="svg2"
   version="1.1"
   inkscape:version="0.91 r"
   xml:space="preserve"
   width="507.01251"
   height="343.88751"
   viewBox="0 0 507.01251 343.88751"
   sodipodi:docname="thp-viola-garber-logo.svg"><metadata
     id="metadata8"><rdf:RDF><cc:Work
         rdf:about=""><dc:format>image/svg+xml</dc:format><dc:type
           rdf:resource="http://purl.org/dc/dcmitype/StillImage" /><dc:title /></cc:Work></rdf:RDF></metadata><defs
     id="defs6" /><sodipodi:namedview
     pagecolor="#ffffff"
     bordercolor="#666666"
     borderopacity="1"
     objecttolerance="10"
     gridtolerance="10"
     guidetolerance="10"
     inkscape:pageopacity="0"
     inkscape:pageshadow="2"
     inkscape:window-width="1680"
     inkscape:window-height="1013"
     id="namedview4"
     showgrid="false"
     inkscape:zoom="0.96510021"
     inkscape:cx="198.50084"
     inkscape:cy="148.83751"
     inkscape:window-x="3360"
     inkscape:window-y="16"
     inkscape:window-maximized="1"
     inkscape:current-layer="g10" /><g
     id="g10"
     inkscape:groupmode="layer"
     inkscape:label="ink_ext_XXXXXX"
     transform="matrix(1.25,0,0,-1.25,0,343.8875)"><path
       inkscape:connector-curvature="0"
       id="path14"
       style="fill:#6953ae;fill-opacity:1;fill-rule:nonzero;stroke:none"
       d="m 219.645,266.818 c -0.964,3.604 -9.162,3.918 -9.449,-0.498 0.952,-0.205 1.831,1.573 3.316,1.826 2.134,0.362 4.093,-1.166 6.133,-1.328 m 89.774,-153.682 c 3.123,8.462 3.012,17.346 2.724,24.218 -0.773,18.3 -10.112,31.686 -21.053,40.117 -2.942,2.265 -6.152,4.595 -9.449,6.464 -3.106,1.758 -6.968,3.329 -9.616,6.133 -0.598,0.634 -1.509,1.903 -1.49,2.819 0.055,2.539 4.436,3.375 6.962,3.978 3.188,0.758 6.849,0.581 9.78,1.16 3.919,0.774 9.445,3.405 10.94,6.133 0.403,0.733 0.714,2.051 0.664,3.15 -0.096,2.044 -1.662,3.397 -2.486,4.974 -0.493,0.939 -0.646,2.031 -1.162,2.982 -2.308,4.278 -4.762,8.629 -7.956,12.269 -2.857,3.253 -6.288,6.499 -11.271,7.789 -0.208,3.082 1.292,4.453 2.153,6.465 0.935,1.09 1.694,2.24 2.819,3.484 0.958,1.055 2.581,2.084 2.651,3.645 0.211,4.558 -5.363,2.765 -7.954,1.492 -3.489,-1.713 -7.017,-5.289 -10.113,-7.129 -2.268,-1.347 -4.845,-2.195 -7.128,-3.812 -6.104,-4.321 -12.358,-10.766 -16.246,-16.578 0.938,18.593 -6.313,31.795 -17.572,39.287 -0.322,6.608 -5.015,12.878 -11.935,12.931 -5.777,0.045 -10.033,-4.078 -10.277,-10.278 -3.13,-1.063 -6.451,-2.952 -8.951,-5.138 -1.14,-0.998 -2.799,-2.388 -3.15,-3.481 -0.252,-0.786 0.06,-1.728 -0.33,-2.819 -0.897,-2.502 -4.01,-3.755 -6.135,-5.303 -1.445,-1.057 -2.886,-2.173 -4.475,-3.315 -2.414,-1.738 -7.485,-5.239 -7.626,-7.959 -0.053,-1.035 1.017,-2.666 1.493,-3.646 1.68,-3.467 4.038,-6.677 8.454,-8.621 6.082,-2.678 12.741,1.676 19.062,1.162 4.213,-0.184 5.803,-5.471 5.803,-5.471 0.6,2.381 -0.828,4.137 -1.658,5.637 -4.702,4.553 -12.215,0.33 -18.235,0.33 -5.738,0 -9.23,3.699 -12.266,6.963 0.793,0.021 1.819,-1.084 2.818,-0.496 1.839,1.078 -0.075,5.367 -0.332,6.961 -0.437,-1.592 0.809,-4.35 -0.165,-5.969 -1.24,0.395 -3.481,1.43 -3.481,2.818 0,1.254 3.297,3.485 4.309,4.312 3.553,2.901 6.969,4.464 10.774,7.128 1.726,1.207 3.694,2.664 4.312,4.641 0.271,0.87 0.114,2.074 0.332,2.652 0.601,1.605 3.246,3.314 4.641,4.64 1.853,1.766 3.26,3.407 4.806,4.476 -1.409,-6.116 3.787,-13.815 7.625,-7.623 1.86,2.995 2.886,8.728 6.301,8.784 1.401,0.024 2.474,-1.002 2.652,-1.988 0.61,-3.402 -7.648,-7.956 -1.658,-10.113 -4.804,2.954 2.804,5.933 2.817,9.78 0.01,2.745 -2.989,4.468 -5.801,3.481 -3.99,-1.4 -4.202,-7.963 -7.625,-10.111 -2.18,1.719 -2.377,6.536 -1.658,9.779 0.733,3.308 3.759,6.135 7.46,6.135 6.023,0 9.339,-5.633 9.448,-11.769 6.437,-3.614 11.909,-9.721 15.25,-17.075 0.684,-1.504 1.613,-3.576 2.155,-5.304 1.436,-4.573 3.034,-10.661 2.487,-15.418 -0.197,-1.715 -1.995,-4.078 -2.985,-5.966 -4.413,-8.423 -7.415,-19.818 -8.22,-32.253 -18.183,12.291 -38.254,22.509 -65.042,24.302 14.605,-4.131 28.839,-7.267 41.443,-12.434 6.835,-2.802 16.886,-10.366 23.449,-14.718 -0.147,-3.978 -0.092,-8.037 0.249,-12.141 0.858,-10.298 2.502,-19.046 4.974,-27.187 1.219,-4.02 2.822,-7.976 4.805,-11.271 2.004,-3.324 5.394,-7.01 4.477,-5.635 -2.772,4.155 -5.605,8.611 -7.459,14.088 -3.87,11.426 -5.613,25.294 -5.637,38.624 -0.053,29.098 11.895,49.594 30.667,61.003 1.363,0.828 2.945,1.246 4.475,2.154 4.292,2.55 8.194,7.624 14.092,7.958 -0.206,-1.056 -1.263,-1.704 -1.991,-2.485 -2.855,-3.075 -6.826,-7.787 -4.806,-13.76 7.157,-1.457 10.666,-6.65 14.422,-11.936 2.382,-3.354 3.803,-7.127 5.634,-10.443 0.785,-1.419 2.247,-2.133 1.825,-4.476 -0.504,-2.797 -6.061,-5 -9.284,-5.635 -5.742,-1.134 -12.249,-0.74 -16.41,-3.317 -1.61,-0.998 -3.391,-2.838 -2.653,-5.8 0.483,-1.936 3.212,-4.45 4.807,-5.637 2.915,-2.172 6.266,-3.367 9.118,-5.139 8.797,-5.463 15.823,-11.931 21.052,-21.051 4.79,-8.361 7.163,-29.613 0.595,-46.598 l 5.965,0 z m -145.19,64.061 c 1.762,-9.59 1.123,-20.371 -2.764,-27.627 -5.46,-6.326 -22.731,-5.596 -27.628,-1.38 4.696,-9.311 23.983,-5.506 28.319,0 4.272,5.425 5.782,22.308 2.073,29.007 m -20.722,31.775 c -3.829,4.69 -1.224,15.814 -5.526,20.03 3.586,-4.932 0.126,-16.912 5.526,-20.03 m 11.448,2.139 c 0,0 -7.016,22.323 -16.282,18.58 8.843,-1.998 15.057,-22.519 14.157,-29.636 3.397,1.843 2.125,11.056 2.125,11.056 m -19.045,2.695 c -3.991,3.608 -9.867,15.587 -11.742,13.815 -1.875,-1.773 -1.811,-17.448 3.453,-20.031 -1.969,4.156 -5.814,12.551 -2.071,17.958 1.471,-5.441 6.288,-11.2 10.36,-11.742 m -12.433,-11.051 c -3.442,-7.04 -8.857,-10.273 -11.051,-17.267 -0.661,-2.11 0.119,-4.982 -0.692,-7.599 -2.755,-8.899 -13.8883,-17.005 -20.7203,-25.554 -1.1875,-1.487 -2.293,-4.002 -3.4532,-5.526 -1.7292,-2.273 -3.3769,-3.703 -4.1445,-5.526 -3.0754,-7.291 3.084,-14.999 4.1445,-18.649 1.0606,-3.65 11.2696,-7.194 16.1595,-6.556 4.89,0.639 8.191,4.975 6.633,7.938 -2.772,-8.87 -19.176,-4.324 -20.7202,0.689 -1.5449,5.014 -4.9973,8.149 -4.8348,13.123 0.0848,2.607 2.0079,3.246 4.1434,6.217 1.8301,2.547 3.0027,5.48 4.1445,6.907 5.5352,6.927 18.7891,17.507 21.4111,26.937 0.763,2.74 -0.555,5.222 0,7.599 0.728,3.11 4.018,5.526 5.526,8.289 1.551,2.837 2.617,5.582 3.454,8.978 m 156.099,14.294 c 4.065,-0.797 8.143,-1.585 9.429,-4.127 0.234,3.238 -6.396,4.282 -9.429,4.127 m -3.361,-12.567 c 3.4,0.985 7.15,1.416 10.458,2.551 -4.213,0.309 -7.348,-1.103 -10.458,-2.551 m 9.758,8.143 c -8.177,1.925 -14.737,1.269 -21.147,0.381 3.706,-0.318 15.815,0.401 21.147,-0.381" /><path
       inkscape:connector-curvature="0"
       id="path16"
       style="fill:#6953ae;fill-opacity:1;fill-rule:nonzero;stroke:none"
       d="m 0,94.5961 9,0 0,-47.85 7.5,0 0,47.85 9,0 0,6.2999 -25.5,0 0,-6.2999 z m 26.8547,-47.85 7.0496,0 0,37.65 -7.0496,0 0,-37.65 z m 0,46.65 7.0496,0 0,7.4999 -7.0496,0 0,-7.4999 z m 14.325,-37.7262 c 0,-6.975 4.6504,-9.375 9.9746,-9.375 7.8008,0 10.5,3.6762 10.5,7.5 l 0,5.3262 -6.5996,0 0,-3.4512 c 0,-3 -0.75,-4.875 -3.375,-4.875 -2.25,0 -3.45,0.9762 -3.45,4.5 l 0,8.025 13.4246,0 0,12.1512 c 0,6.9738 -4.6504,9.375 -10.2754,9.375 -6.5242,0 -10.1992,-3.75 -10.1992,-10.125 l 0,-19.0512 z m 7.05,20.5512 c 0,2.6988 0.825,4.125 3.45,4.125 2.4004,0 3.375,-1.35 3.375,-4.725 l 0,-7.35 -6.825,0 0,7.95 z m 20.4734,-29.475 7.0508,0 0,26.1738 c 0,3.9 2.4734,4.875 6,4.875 l 0,7.0512 c -3.4512,0 -4.6516,-0.825 -6.3008,-4.35 l -0.1504,0 0,3.9 -6.5996,0 0,-37.65 z m 17.5496,0 7.05,0 0,28.725 c 0,2.925 1.3504,3.9738 3.075,3.9738 2.175,0 2.7004,-1.4238 2.7004,-3.375 l 0,-29.3238 7.0499,0 0,30.6738 c 0,5.5512 -3.075,7.4262 -6.5999,7.4262 -1.2,0 -2.4754,-0.3012 -3.6004,-0.9012 -1.05,-0.5988 -1.9504,-1.5 -2.4746,-2.6988 l -0.1504,0 0,19.6499 -7.05,0 0,-54.1499 z m 26.9253,8.9238 c 0,-6.975 4.65,-9.375 9.975,-9.375 7.8,0 10.5,3.6762 10.5,7.5 l 0,5.3262 -6.6,0 0,-3.4512 c 0,-3 -0.75,-4.875 -3.375,-4.875 -2.25,0 -3.45,0.9762 -3.45,4.5 l 0,8.025 13.425,0 0,12.1512 c 0,6.9738 -4.65,9.375 -10.275,9.375 -6.525,0 -10.2,-3.75 -10.2,-10.125 l 0,-19.0512 z m 7.05,20.5512 c 0,2.6988 0.825,4.125 3.45,4.125 2.4,0 3.375,-1.35 3.375,-4.725 l 0,-7.35 -6.825,0 0,7.95 z m 20.699,-29.475 7.05,0 0,37.65 -7.05,0 0,-37.65 z m 0,46.65 7.05,0 0,7.4999 -7.05,0 0,-7.4999 z m 14.849,-46.65 7.05,0 0,54.1499 -7.05,0 0,-54.1499 z m 14.55,-13.65 7.051,0 0,15.75 c 1.274,-1.4262 3.824,-2.5512 6.375,-2.5512 4.125,0 6.6,3.15 6.6,8.7012 l 0,21.15 c 0,5.5488 -2.475,8.7 -6.6,8.7 -3.601,0 -5.7,-2.0262 -6.676,-4.6512 l -0.149,0 0,4.2012 -6.601,0 0,-51.3 z m 7.051,40.1988 c 0,4.65 1.274,6.15 3.225,6.15 1.575,0 2.7,-1.0488 2.7,-5.0988 l 0,-17.7 c 0,-4.3512 -1.2,-5.4 -3.075,-5.4 -1.425,0 -2.85,1.1988 -2.85,3.975 l 0,18.0738 z m 20.25,-26.5488 7.05,0 0,26.1738 c 0,3.9 2.475,4.875 6,4.875 l 0,7.0512 c -3.451,0 -4.65,-0.825 -6.3,-4.35 l -0.15,0 0,3.9 -6.6,0 0,-37.65 z m 17.4,26.5488 7.049,0 0,3.4512 c 0,2.3238 1.051,3.15 3,3.15 2.4,0 2.926,-1.425 2.926,-3.6012 l 0,-6.0738 c -8.1,0 -9.301,-0.6 -10.95,-2.325 -1.951,-2.025 -2.55,-3.75 -2.55,-11.3262 0,-9 2.699,-10.275 6.9,-10.275 1.799,0 3.75,0.75 5.025,2.025 0.75,0.75 1.2,1.5 2.024,2.3262 l 0,-3.9 6.601,0 0,28.9488 c 0,6.6 -3.525,9.1512 -9.976,9.1512 -6.674,0 -10.049,-2.625 -10.049,-8.1762 l 0,-3.375 z m 12.975,-8.0238 0,-9.675 c 0,-2.5512 -1.276,-4.35 -3.676,-4.35 -2.25,0 -2.774,0.75 -2.774,6.2988 0,5.9262 0.899,7.7262 4.2,7.7262 l 2.25,0 z m 14.397,-18.525 7.05,0 0,19.35 0.152,0 6.375,-19.35 7.5,0 -7.726,20.775 6.824,16.875 -6.598,0 -6.375,-15.9762 -0.152,0 0,32.4761 -7.05,0 0,-54.1499 z m 27.226,5.025 c 0,-3.375 2.024,-5.025 7.649,-5.025 1.952,0 3.75,0.15 4.577,0.225 l 0,4.9488 c -0.452,-0.1488 -0.976,-0.225 -1.8,-0.225 -2.102,0 -3.375,0.5262 -3.375,3.375 l 0,24.375 4.348,0 0,4.9512 -4.348,0 0,9.6 -7.051,-2.475 0,-7.125 -3.524,0 0,-4.9512 3.524,0 0,-27.6738 z m 16.426,-5.025 7.05,0 0,37.65 -7.05,0 0,-37.65 z m 0,46.65 7.05,0 0,7.4999 -7.05,0 0,-7.4999 z m 14.623,-46.65 7.049,0 0,19.35 0.15,0 6.375,-19.35 7.5,0 -7.724,20.775 6.824,16.875 -6.6,0 -6.375,-15.9762 -0.15,0 0,32.4761 -7.049,0 0,-54.1499 z m 25.135,8.9238 c 0,-6.975 4.651,-9.375 9.974,-9.375 7.802,0 10.5,3.6762 10.5,7.5 l 0,5.3262 -6.599,0 0,-3.4512 c 0,-3 -0.75,-4.875 -3.375,-4.875 -2.25,0 -3.45,0.9762 -3.45,4.5 l 0,8.025 13.424,0 0,12.1512 c 0,6.9738 -4.649,9.375 -10.274,9.375 -6.525,0 -10.2,-3.75 -10.2,-10.125 l 0,-19.0512 z m 7.05,20.5512 c 0,2.6988 0.825,4.125 3.45,4.125 2.401,0 3.375,-1.35 3.375,-4.725 l 0,-7.35 -6.825,0 0,7.95 z m 20.473,-29.475 7.051,0 0,26.1738 c 0,3.9 2.473,4.875 6,4.875 l 0,7.0512 c -3.45,0 -4.652,-0.825 -6.301,-4.35 l -0.149,0 0,3.9 -6.601,0 0,-37.65 z m 17.774,0 7.052,0 0,37.65 -7.052,0 0,-37.65 z m 0,46.65 7.052,0 0,7.4999 -7.052,0 0,-7.4999 z m 14.625,-46.65 7.052,0 0,28.725 c 0,2.925 1.35,3.9738 3.073,3.9738 2.177,0 2.702,-1.4238 2.702,-3.375 l 0,-29.3238 7.048,0 0,30.6738 c 0,5.5512 -3.073,7.4262 -6.598,7.4262 -1.426,0 -2.7,-0.3012 -3.825,-0.975 -1.125,-0.6 -2.025,-1.5 -2.702,-2.625 l -0.149,0 0,3.15 -6.601,0 0,-37.65" /><path
       inkscape:connector-curvature="0"
       id="path18"
       style="fill:#b2b1b1;fill-opacity:1;fill-rule:nonzero;stroke:none"
       d="m 72.7473,0.414063 6.1062,0 6.5899,24.907837 -5.1407,0 -4.3464,-18.11174 -0.0696,0 -3.864,18.11174 -5.4172,0 6.1418,-24.907837 z m 28.0887,17.421837 -4.8641,0 0,-17.421837 4.8641,0 0,17.421837 z m -4.8641,3.6582 4.8641,0 0,3.8278 -4.8641,0 0,-3.8278 z M 120.467,3.17383 c -1.794,0 -2.243,1.13906 -2.243,6.45117 0,3.623 0.172,5.4512 2.243,5.4512 2.069,0 2.242,-1.8282 2.242,-5.4512 0,-5.31211 -0.449,-6.45117 -2.242,-6.45117 m 0,-3.1058612 c 6.279,0 7.106,3.8308612 7.106,9.2820312 0,4.7609 -0.69,8.832 -7.106,8.832 -6.417,0 -7.108,-4.0711 -7.108,-8.832 0,-5.45117 0.829,-9.2820312 7.108,-9.2820312 m 19.596,0.3460942 4.865,0 0,24.907837 -4.865,0 0,-24.907837 z m 26.253,8.417967 c 0,-1.89687 0.45,-5.76211 -2.414,-5.76211 -1.588,0 -1.795,1.51797 -1.795,2.76016 0,3.10586 1.795,2.89883 4.209,3.00195 m 4.762,3.51997 c 0,3.1718 -0.794,5.83 -6.97,5.83 -1.862,0 -3.449,-0.3109 -4.553,-1.139 -1.139,-0.793 -1.794,-2.1399 -1.794,-4.243 l 4.761,0 c 0,1.3801 0.138,2.6551 1.829,2.6551 1.759,0 1.965,-1.068 1.965,-2.5531 l 0,-1.3442 c -4.518,0.0692 -8.969,-0.1726 -8.969,-5.93475 0,-3.03594 1.242,-5.5550812 4.623,-5.5550812 2.104,0 3.519,0.8640622 4.554,2.6589812 l 0.069,0 0.208,-2.312887 4.518,0 c -0.103,1.069917 -0.241,2.173047 -0.241,3.243747 l 0,8.69419 z m 45.746,5.3121 c 0.311,5.2089 -2.863,8.073 -7.97,8.073 -8.52,0 -8.831,-6.3812 -8.831,-12.6621 0,-9.45195 1.001,-13.075 9.763,-13.075 2.071,0 5.625,0.553125 7.038,0.828125 l 0,12.626975 -8.037,0 0,-3.8301 2.828,0 0,-5.51914 c -0.793,-0.27695 -1.724,-0.48281 -2.588,-0.48281 -2.966,0 -3.724,1.3789 -3.724,9.17695 0,4.8289 0,9.2109 3.241,9.2109 2.761,0 3.141,-2.0339 3.105,-4.3468 l 5.175,0 z m 21.357,-8.83207 c 0,-1.89687 0.448,-5.76211 -2.415,-5.76211 -1.587,0 -1.795,1.51797 -1.795,2.76016 0,3.10586 1.795,2.89883 4.21,3.00195 m 4.76,3.51997 c 0,3.1718 -0.794,5.83 -6.969,5.83 -1.863,0 -3.449,-0.3109 -4.553,-1.139 -1.14,-0.793 -1.794,-2.1399 -1.794,-4.243 l 4.76,0 c 0,1.3801 0.139,2.6551 1.83,2.6551 1.758,0 1.966,-1.068 1.966,-2.5531 l 0,-1.3442 c -4.521,0.0692 -8.971,-0.1726 -8.971,-5.93475 0,-3.03594 1.242,-5.5550812 4.623,-5.5550812 2.105,0 3.519,0.8640622 4.554,2.6589812 l 0.069,0 0.208,-2.312887 4.52,0 c -0.105,1.069917 -0.243,2.173047 -0.243,3.243747 l 0,8.69419 z m 12.663,5.4839 0,-17.421837 4.863,0 0,9.485937 c 0,1.727 0.07,4.2109 4.347,3.934 l 0,4.348 c -1.965,0 -3.623,-0.5859 -4.52,-2.5871 l -0.067,0 0,2.241 -4.623,0 z M 282.545,3.06992 c -1.655,0 -1.966,1.82891 -1.966,6.20899 0,3.48589 -0.035,5.90119 1.966,5.90119 2.106,0 2.071,-2.4153 2.071,-5.90119 0,-4.38008 -0.31,-6.20899 -2.071,-6.20899 m -6.829,-2.655857 4.623,0 0,1.932817 0.067,0 c 0.899,-1.692974 2.244,-2.2789112 4.106,-2.2789112 5.038,0 4.865,5.5898412 4.865,9.1781212 0,3.51871 0.138,8.93591 -4.761,8.93591 -1.761,0 -2.968,-0.5179 -3.967,-2.0011 l -0.07,0 0,9.141 -4.863,0 0,-24.907837 z M 306.074,11.0738 c 0,1.4852 -0.033,4.1063 2.208,4.1063 2.312,0 2.244,-2.4153 2.244,-4.1063 l -4.452,0 z M 315.39,8.35 c 0.173,5.5879 -0.551,9.832 -7.108,9.832 -6.416,0 -7.106,-4.0711 -7.106,-8.832 0,-5.45117 0.828,-9.2820312 7.106,-9.2820312 2.279,0 4.002,0.6218752 5.142,1.6921912 1.172,1.06797 1.793,2.6207 1.863,4.51797 l -4.933,0 c 0,-1.44805 -0.346,-3.1043 -2.072,-3.1043 -2.138,0 -2.208,3.1043 -2.208,5.17617 l 9.316,0 z m 12.076,9.4859 0,-17.421837 4.863,0 0,9.485937 c 0,1.727 0.07,4.2109 4.348,3.934 l 0,4.348 c -1.966,0 -3.622,-0.5859 -4.521,-2.5871 l -0.067,0 0,2.241 -4.623,0" /></g></svg>