<?xml version="1.0" encoding="UTF-8" standalone="no"?>
<!-- Generator: Adobe Illustrator 15.1.0, SVG Export Plug-In . SVG Version: 6.00 Build 0)  -->

<svg
   xmlns:dc="http://purl.org/dc/elements/1.1/"
   xmlns:cc="http://creativecommons.org/ns#"
   xmlns:rdf="http://www.w3.org/1999/02/22-rdf-syntax-ns#"
   xmlns:svg="http://www.w3.org/2000/svg"
   xmlns="http://www.w3.org/2000/svg"
   xmlns:sodipodi="http://sodipodi.sourceforge.net/DTD/sodipodi-0.dtd"
   xmlns:inkscape="http://www.inkscape.org/namespaces/inkscape"
   version="1.1"
   id="Ebene_1"
   x="0px"
   y="0px"
   width="351.25px"
   height="47.5px"
   viewBox="0 0 351.25 47.5"
   enable-background="new 0 0 351.25 47.5"
   xml:space="preserve"
   inkscape:version="0.91 r13725"
   sodipodi:docname="logo.svg"><metadata
     id="metadata43"><rdf:RDF><cc:Work
         rdf:about=""><dc:format>image/svg+xml</dc:format><dc:type
           rdf:resource="http://purl.org/dc/dcmitype/StillImage" /></cc:Work></rdf:RDF></metadata><defs
     id="defs41" /><sodipodi:namedview
     pagecolor="#ffffff"
     bordercolor="#666666"
     borderopacity="1"
     objecttolerance="10"
     gridtolerance="10"
     guidetolerance="10"
     inkscape:pageopacity="0"
     inkscape:pageshadow="2"
     inkscape:window-width="1280"
     inkscape:window-height="987"
     id="namedview39"
     showgrid="false"
     inkscape:zoom="0.92241993"
     inkscape:cx="174.60783"
     inkscape:cy="0.30748204"
     inkscape:window-x="1440"
     inkscape:window-y="0"
     inkscape:window-maximized="1"
     inkscape:current-layer="g3" /><g
     id="g3"><path
       fill="#009FE3"
       d="M301.287,22.814c-0.097,1.236-1.152,2.161-0.959,3.836c0.812,7.003,16.789,8.992,24.297,8.951   c9.136-0.049,27.628-2.072,22.06-11.828c0.224-4.459,4.678-12.58,0.319-16.944c-12.279-6.741-38.849-7.518-47.955,2.558   C298.748,16.384,301.621,18.545,301.287,22.814"
       id="path5"
       style="fill:#6852ae;fill-opacity:1" /><path
       fill="#FFFFFF"
       d="M335.175,26.331c1.757-0.589,1.705-2.985,1.599-5.436C332.17,17.932,331.553,26.424,335.175,26.331    M337.732,20.576c-0.102,2.445-0.001,4.689,1.918,5.115c1.662-0.896,2.004-3.111,2.238-5.435   C340.526,20.386,338.596,19.946,337.732,20.576 M328.142,20.576c-0.03,3.12-0.185,6.366,2.559,6.714   c1.323-1.341,1.37-3.957,1.277-6.714C330.872,19.703,329.579,20.78,328.142,20.576 M342.527,24.413   c1.381-0.414,1.372-3.622,1.279-4.477h-0.959C342.806,21.398,341.915,23.314,342.527,24.413 M324.944,27.609   c2.014-1.077,2.184-3.998,2.238-7.033c-1.688,0.091-3.179-0.018-4.156-0.64C322.729,23.021,322.14,26.857,324.944,27.609    M316.953,19.937c-0.873,3.328-0.693,7.335,2.237,7.033c2.313-0.238,2.577-3.995,2.877-7.033   C320.469,20.734,318.983,19.661,316.953,19.937 M344.447,23.454c1.104-0.316,2.062-3.341,0.959-3.837   C344.793,20.603,344.556,21.964,344.447,23.454 M313.436,26.331c1.564-1.313,1.861-3.895,2.238-6.395   c-1.107-0.492-2.915-0.283-4.476-0.319C311.428,22.371,310.215,26.567,313.436,26.331 M309.6,25.052   c0.672-1.246,0.16-3.676,0.319-5.435c-1.009,0.156-1.129-0.576-2.238-0.319C307.164,21.168,306.732,25.52,309.6,25.052    M306.083,23.772c0.217-1.615,0.101-3.302,0-4.475h-1.6C303.654,20.983,304.315,23.647,306.083,23.772 M302.886,23.134   c0.592-0.687,0.216-2.342,0.32-3.517c-0.409-0.018-0.443-0.409-0.959-0.319C300.969,20.03,301.754,22.83,302.886,23.134    M301.927,18.657c0.037-1.636-0.845-3.695,0-5.114C299.653,13.342,300.46,18.622,301.927,18.657 M345.725,18.657   c0.68-1.094,2.018-4.71,0.641-5.754C345.831,14.143,344.542,17.807,345.725,18.657 M343.487,19.298   c1.442-1.222,1.118-4.211,1.278-6.714c-0.408-0.018-0.441-0.41-0.959-0.32C342.977,13.513,342.562,18.404,343.487,19.298    M304.165,18.657c-0.436-1.309,1.058-5.833-0.641-6.394C302.464,13.428,301.597,18.468,304.165,18.657 M338.053,19.617h3.516   c0.861-1.956,1.228-7.154-0.318-8.633C336.769,10.446,338.376,15.997,338.053,19.617 M305.763,18.657   c1.109,0.258,1.229-0.476,2.238-0.318c-0.425-3.237,1.339-6.684-1.599-7.354C305.063,12.657,304.333,16.96,305.763,18.657    M331.978,19.617h5.116c-0.26-3.471,0.813-8.273-1.279-9.91C330.999,9.474,332.268,15.324,331.978,19.617 M311.837,9.387   c-2.94-0.184-3.104,4.375-2.877,8.632c1.074,0.987,3.981,0.777,5.115,0C314.004,14.072,314.724,9.566,311.837,9.387 M328.781,9.066   c-4.775-1.265-6.473,4.78-5.115,10.231c1.635,0.603,4.268,0.208,6.394,0.319C331.792,16.621,332.15,9.96,328.781,9.066    M320.789,9.387c-4.151-2.218-6.532,3.469-5.755,8.952c1.565,0.729,4.833,1.268,6.714,0.639   C322.809,16.169,323.005,10.57,320.789,9.387"
       id="path7" /><g
       id="g9"
       style="fill:#6852ae;fill-opacity:1"><path
         fill="#009FE3"
         d="M10.754,12.193c0.293-1.175,0.578-2.431,0.858-3.772c0.278-1.341,0.403-2.289,0.375-2.844    c-0.028-0.556-0.217-0.913-0.566-1.072c-0.349-0.158-0.825-0.237-1.428-0.237C9.91,3.775,9.927,3.292,10.046,2.815    c0.122-0.491,0.398-0.801,0.827-0.928c0.428-0.127,1.752-0.19,3.974-0.19c1.253,0,2.087,0.06,2.502,0.179    c0.415,0.118,0.613,0.341,0.596,0.666c-0.018,0.325-0.126,0.885-0.324,1.678l-2.51,10.068c1.146-0.651,2.483-1.227,4.012-1.726    c1.529-0.5,3.056-0.75,4.579-0.75c1.951,0,3.341,0.488,4.169,1.464s0.899,2.837,0.215,5.582    c-2.128,8.536-3.133,13.058-3.014,13.565c0.12,0.508,0.625,0.755,1.518,0.738c0.06,0.461,0.032,0.92-0.083,1.381    c-0.107,0.428-0.313,0.713-0.618,0.856c-0.306,0.143-0.823,0.214-1.553,0.214c-2.206,0-3.548-0.027-4.026-0.083    c-0.478-0.055-0.77-0.222-0.874-0.499c-0.105-0.278-0.077-0.742,0.085-1.394L22.08,23.38c0.815-3.269,1.011-5.442,0.591-6.521    c-0.421-1.079-1.402-1.618-2.941-1.618c-1.317,0-2.548,0.372-3.694,1.118s-1.96,2.086-2.443,4.022l-1.252,5.021    c-0.7,2.809-1.29,5.396-1.768,7.76h2.642c0.088,0.412,0.072,0.856-0.046,1.332c-0.107,0.43-0.269,0.724-0.481,0.882    c-0.215,0.158-0.568,0.237-1.06,0.237H2.273c-0.08-0.508-0.064-0.983,0.046-1.428c0.087-0.349,0.239-0.607,0.455-0.773    c0.215-0.167,0.522-0.25,0.919-0.25h1.643c0.756-2.523,1.504-5.269,2.244-8.235L10.754,12.193z"
         id="path11"
         style="fill:#6852ae;fill-opacity:1" /><path
         fill="#009FE3"
         d="M47.771,11.693c2.951,0,4.968,0.698,6.047,2.094c1.08,1.397,1.221,3.698,0.421,6.903    c-0.352,1.412-0.852,2.396-1.497,2.951c-0.647,0.556-1.827,0.833-3.54,0.833H38.682c-0.613,2.586-0.601,4.618,0.039,6.093    c0.64,1.476,2.237,2.214,4.792,2.214c2.38,0,4.748-0.619,7.104-1.856c0.512,0.683,0.673,1.404,0.483,2.165    c-0.265,1.064-1.328,1.81-3.188,2.238c-1.861,0.429-3.894,0.643-6.099,0.643c-4.062,0-6.763-0.86-8.104-2.583    c-1.34-1.721-1.501-4.62-0.484-8.698c1.001-4.015,2.787-7.185,5.357-9.509C41.153,12.856,44.216,11.693,47.771,11.693z     M46.071,14.883c-1.587,0-2.935,0.567-4.042,1.702c-1.107,1.134-2.003,2.908-2.684,5.319h2.452c2.602,0,4.388-0.051,5.358-0.154    c0.969-0.104,1.56-0.274,1.77-0.512c0.21-0.239,0.396-0.683,0.559-1.333c0.392-1.571,0.301-2.801-0.27-3.689    C48.642,15.327,47.595,14.883,46.071,14.883z"
         id="path13"
         style="fill:#6852ae;fill-opacity:1" /><path
         fill="#009FE3"
         d="M69.771,33.71c-1.526,0.777-3.042,1.368-4.547,1.772c-1.505,0.405-2.933,0.606-4.281,0.606    c-2.142,0-3.611-0.503-4.407-1.511c-0.795-1.008-0.946-2.503-0.452-4.486c0.605-2.429,1.933-4.284,3.982-5.569    c2.05-1.286,4.884-1.929,8.502-1.929h3.499c0.601-2.792,0.685-4.735,0.252-5.831c-0.434-1.094-1.547-1.642-3.34-1.642    c-0.952,0-1.888,0.096-2.809,0.285c-0.689,0.921-1.085,1.412-1.189,1.476c-0.103,0.063-0.593,0.202-1.472,0.416    c-0.878,0.215-1.444,0.176-1.696-0.118s-0.452-0.829-0.599-1.606s-0.162-1.404-0.043-1.881c0.079-0.317,0.271-0.562,0.577-0.737    c0.306-0.175,1.425-0.389,3.361-0.643c1.936-0.254,3.958-0.381,6.069-0.381c2.809,0,4.762,0.483,5.862,1.451    c1.099,0.969,1.327,2.746,0.682,5.332l-1.828,7.33c-0.847,3.396-1.217,5.467-1.108,6.212c0.106,0.747,0.52,1.049,1.238,0.905    c0.104,0.349,0.113,0.689,0.03,1.023c-0.134,0.539-0.574,0.952-1.32,1.237c-0.746,0.285-1.689,0.429-2.832,0.429    c-0.556,0-0.963-0.067-1.223-0.202C70.42,35.515,70.118,34.868,69.771,33.71z M71.302,25.665    c-1.306-0.238-2.688-0.357-4.148-0.357c-1.809,0-3.149,0.302-4.021,0.904c-0.874,0.604-1.471,1.556-1.795,2.855    c-0.316,1.271-0.233,2.227,0.249,2.869c0.482,0.642,1.398,0.964,2.747,0.964c1.047,0,2.074-0.206,3.082-0.619    c1.007-0.412,1.749-0.987,2.227-1.726c0.477-0.737,0.914-1.9,1.31-3.486L71.302,25.665z"
         id="path15"
         style="fill:#6852ae;fill-opacity:1" /><path
         fill="#009FE3"
         d="M85.859,21.976c1.673-6.712,2.707-10.984,3.1-12.816c0.394-1.833,0.577-3.027,0.549-3.582    c-0.029-0.556-0.213-0.913-0.555-1.072c-0.341-0.158-0.821-0.237-1.439-0.237c-0.084-0.492-0.066-0.976,0.053-1.452    c0.122-0.491,0.402-0.801,0.838-0.928c0.437-0.127,1.757-0.19,3.963-0.19c1.253,0,2.086,0.06,2.501,0.179    c0.415,0.118,0.613,0.341,0.596,0.666c-0.018,0.325-0.125,0.885-0.323,1.678l-4.967,19.922c-0.934,3.809-1.62,6.814-2.059,9.021    h2.642c0.088,0.412,0.072,0.856-0.046,1.332c-0.107,0.43-0.269,0.724-0.482,0.882c-0.215,0.158-0.567,0.237-1.059,0.237h-9.473    c-0.08-0.508-0.064-0.983,0.046-1.428c0.087-0.349,0.239-0.607,0.455-0.773c0.215-0.167,0.522-0.25,0.919-0.25h1.762    C83.557,30.956,84.55,27.228,85.859,21.976z"
         id="path17"
         style="fill:#6852ae;fill-opacity:1" /><path
         fill="#009FE3"
         d="M100.984,12.288h1.618l3.613-6.76c0.615,0.207,1.121,0.453,1.519,0.738    c0.396,0.285,0.657,0.623,0.782,1.013c0.125,0.388-0.099,1.732-0.672,4.033l-0.244,0.976h7.831c0.06,0.524,0.017,1.08-0.13,1.666    c-0.115,0.461-0.278,0.766-0.49,0.917c-0.213,0.151-0.58,0.226-1.104,0.226H106.9l-2.807,11.259    c-0.669,2.681-0.863,4.446-0.582,5.295c0.279,0.85,0.91,1.298,1.89,1.345c0.979,0.048,2.278-0.277,3.897-0.976    c0.218,0.524,0.25,1.096,0.096,1.714c-0.209,0.841-0.814,1.404-1.813,1.689c-0.999,0.285-2.499,0.429-4.499,0.429    c-2.174,0-3.646-0.443-4.416-1.332c-0.77-0.89-0.852-2.548-0.247-4.975l1.395-5.594c0.759-3.047,1.407-5.998,1.945-8.854h-2.333    c-0.048-0.571-0.004-1.126,0.13-1.665c0.099-0.397,0.258-0.687,0.478-0.869C100.256,12.381,100.571,12.288,100.984,12.288z"
         id="path19"
         style="fill:#6852ae;fill-opacity:1" /><path
         fill="#009FE3"
         d="M121.643,12.193c0.293-1.175,0.578-2.431,0.858-3.772c0.278-1.341,0.403-2.289,0.375-2.844    c-0.028-0.556-0.217-0.913-0.566-1.072c-0.349-0.158-0.825-0.237-1.428-0.237c-0.083-0.492-0.066-0.976,0.053-1.452    c0.122-0.491,0.398-0.801,0.827-0.928c0.428-0.127,1.752-0.19,3.974-0.19c1.253,0,2.087,0.06,2.502,0.179    c0.415,0.118,0.613,0.341,0.596,0.666c-0.018,0.325-0.126,0.885-0.324,1.678L126,14.288c1.146-0.651,2.483-1.227,4.012-1.726    c1.529-0.5,3.056-0.75,4.579-0.75c1.951,0,3.341,0.488,4.169,1.464s0.899,2.837,0.215,5.582    c-2.128,8.536-3.133,13.058-3.014,13.565c0.12,0.508,0.625,0.755,1.518,0.738c0.06,0.461,0.032,0.92-0.083,1.381    c-0.107,0.428-0.313,0.713-0.618,0.856c-0.306,0.143-0.823,0.214-1.553,0.214c-2.206,0-3.548-0.027-4.026-0.083    c-0.478-0.055-0.77-0.222-0.874-0.499c-0.105-0.278-0.077-0.742,0.085-1.394l2.558-10.258c0.815-3.269,1.011-5.442,0.591-6.521    c-0.421-1.079-1.402-1.618-2.941-1.618c-1.317,0-2.548,0.372-3.694,1.118s-1.96,2.086-2.443,4.022l-1.252,5.021    c-0.7,2.809-1.29,5.396-1.768,7.76h2.642c0.088,0.412,0.072,0.856-0.046,1.332c-0.107,0.43-0.269,0.724-0.481,0.882    c-0.215,0.158-0.568,0.237-1.06,0.237h-9.354c-0.08-0.508-0.064-0.983,0.046-1.428c0.087-0.349,0.239-0.607,0.455-0.773    c0.215-0.167,0.522-0.25,0.919-0.25h1.643c0.756-2.523,1.504-5.269,2.244-8.235L121.643,12.193z"
         id="path21"
         style="fill:#6852ae;fill-opacity:1" /><path
         fill="#009FE3"
         d="M166.576,14.978c-1.344,2.333-4.094,7.235-8.25,14.71c-4.156,7.474-6.953,11.884-8.392,13.232    c-1.44,1.349-2.9,2.214-4.384,2.595c-1.483,0.381-3.114,0.571-4.891,0.571c-1.729,0-2.82-0.127-3.273-0.381    c-0.452-0.254-0.593-0.722-0.423-1.404c0.21-0.842,0.669-1.603,1.379-2.284c2.832,0.603,4.974,0.829,6.423,0.678    c1.45-0.151,3.419-2.416,5.907-6.796c-1.306-0.047-2.003-0.11-2.095-0.19c-0.092-0.079-0.258-2.752-0.5-8.02    c-0.241-5.269-0.411-8.485-0.508-9.652c-0.099-1.166-0.207-1.976-0.324-2.428c-0.118-0.451-0.337-0.729-0.661-0.833    c-0.324-0.103-0.763-0.154-1.319-0.154c-0.075-0.523-0.058-1.008,0.053-1.452c0.134-0.539,0.485-0.86,1.05-0.964    s1.672-0.154,3.323-0.154c1.27,0,2.108,0.075,2.515,0.226c0.406,0.151,0.646,0.429,0.72,0.834c0.074,0.404,0.06,1.526-0.042,3.367    c-0.103,1.841-0.113,4.907-0.033,9.199s0.191,6.438,0.334,6.438c0.144,0,1.481-2.472,4.015-7.415    c2.533-4.942,4.087-8.183,4.662-9.723h-1.285c-0.076-0.459-0.054-0.928,0.064-1.404c0.119-0.476,0.293-0.809,0.523-0.999    c0.23-0.191,0.55-0.286,0.963-0.286h6.712c0.096,0.445,0.08,0.921-0.046,1.429c-0.123,0.491-0.31,0.825-0.559,0.999    c-0.25,0.176-0.628,0.262-1.136,0.262H166.576z"
         id="path23"
         style="fill:#6852ae;fill-opacity:1" /></g><g
       id="g25"><path
         d="M173.467,12.074h1.666l2.357-7.164c0.809,0.238,1.559,0.547,2.248,0.928c0.691,0.381,1.215,0.817,1.571,1.31    c0.357,0.492,0.536,1.706,0.536,3.642v1.285h8.045c0.27,0.635,0.404,1.309,0.404,2.022c0,0.604-0.111,1.008-0.334,1.214    c-0.222,0.207-0.65,0.31-1.285,0.31h-6.83v9.401c0,2.729,0.229,4.586,0.689,5.569c0.461,0.984,1.227,1.496,2.297,1.535    c1.071,0.04,2.377-0.337,3.916-1.13c0.459,0.618,0.689,1.325,0.689,2.118c0,1.079-0.567,1.805-1.701,2.178    c-1.135,0.373-2.9,0.56-5.296,0.56c-2.618,0-4.487-0.523-5.605-1.571c-1.118-1.047-1.678-3.078-1.678-6.093v-4.142    c0-2.618-0.08-5.427-0.238-8.426h-2.428c-0.286-0.682-0.429-1.372-0.429-2.07c0-0.539,0.107-0.92,0.321-1.143    C172.599,12.186,172.959,12.074,173.467,12.074z"
         id="path27" /><path
         d="M204.98,11.384c3.3,0,5.695,0.75,7.188,2.249c1.491,1.5,2.237,3.868,2.237,7.104c0,1.604-0.317,2.746-0.952,3.428    c-0.635,0.683-2.023,1.023-4.165,1.023h-8.854c0.048,2.079,0.516,3.709,1.404,4.891c0.889,1.183,2.451,1.773,4.689,1.773    c2.189,0,4.442-0.634,6.76-1.904c0.824,0.81,1.237,1.683,1.237,2.618c0,1.27-0.933,2.154-2.797,2.654s-4.05,0.75-6.558,0.75    c-4.315,0-7.449-0.873-9.4-2.618c-1.952-1.746-2.928-4.626-2.928-8.64c0-4.174,1.098-7.438,3.296-9.795    S201.283,11.384,204.98,11.384z M204.027,15.501c-1.174,0-2.07,0.477-2.689,1.429c-0.618,0.952-0.936,2.61-0.951,4.975h1.262    c1.761,0,3.105-0.052,4.033-0.155c0.929-0.103,1.473-0.277,1.631-0.523s0.238-0.654,0.238-1.226c0-1.429-0.31-2.535-0.929-3.32    C206.004,15.895,205.139,15.501,204.027,15.501z"
         id="path29" /><path
         d="M230.161,11.384c3.3,0,5.696,0.75,7.188,2.249c1.49,1.5,2.236,3.868,2.236,7.104c0,1.604-0.317,2.746-0.951,3.428    c-0.635,0.683-2.023,1.023-4.166,1.023h-8.854c0.047,2.079,0.516,3.709,1.404,4.891c0.889,1.183,2.451,1.773,4.688,1.773    c2.19,0,4.442-0.634,6.76-1.904c0.825,0.81,1.237,1.683,1.237,2.618c0,1.27-0.932,2.154-2.797,2.654    c-1.864,0.5-4.05,0.75-6.557,0.75c-4.316,0-7.449-0.873-9.401-2.618c-1.952-1.746-2.928-4.626-2.928-8.64    c0-4.174,1.099-7.438,3.296-9.795C223.517,12.562,226.464,11.384,230.161,11.384z M229.209,15.501    c-1.174,0-2.07,0.477-2.689,1.429s-0.937,2.61-0.952,4.975h1.262c1.761,0,3.106-0.052,4.034-0.155    c0.928-0.103,1.472-0.277,1.631-0.523c0.158-0.246,0.237-0.654,0.237-1.226c0-1.429-0.31-2.535-0.929-3.32    C231.185,15.895,230.32,15.501,229.209,15.501z"
         id="path31" /><path
         d="M244.156,12.074h1.666l2.356-7.164c0.81,0.238,1.56,0.547,2.249,0.928c0.69,0.381,1.214,0.817,1.57,1.31    c0.357,0.492,0.536,1.706,0.536,3.642v1.285h8.045c0.27,0.635,0.405,1.309,0.405,2.022c0,0.604-0.111,1.008-0.334,1.214    c-0.223,0.207-0.65,0.31-1.285,0.31h-6.831v9.401c0,2.729,0.229,4.586,0.69,5.569c0.46,0.984,1.226,1.496,2.297,1.535    c1.07,0.04,2.376-0.337,3.915-1.13c0.46,0.618,0.69,1.325,0.69,2.118c0,1.079-0.568,1.805-1.702,2.178s-2.899,0.56-5.296,0.56    c-2.617,0-4.486-0.523-5.605-1.571c-1.117-1.047-1.678-3.078-1.678-6.093v-4.142c0-2.618-0.079-5.427-0.237-8.426h-2.428    c-0.286-0.682-0.429-1.372-0.429-2.07c0-0.539,0.107-0.92,0.321-1.143C243.287,12.186,243.648,12.074,244.156,12.074z"
         id="path33" /><path
         d="M266.22,11.551c0-0.619-0.028-1.396-0.083-2.333c-0.056-0.936-0.171-1.741-0.346-2.416    c-0.174-0.674-0.479-1.11-0.916-1.309s-1.012-0.298-1.726-0.298c-0.27-0.65-0.404-1.301-0.404-1.951    c0-0.667,0.245-1.091,0.737-1.273s2.095-0.273,4.809-0.273c1.682,0,2.828,0.067,3.439,0.202c0.609,0.135,0.963,0.385,1.059,0.749    c0.096,0.365,0.143,0.881,0.143,1.548v9.425c1-0.571,2.193-1.083,3.582-1.535s2.781-0.679,4.178-0.679    c2.078,0,3.66,0.492,4.748,1.477c1.086,0.983,1.631,2.967,1.631,5.95c0,7.807,0.143,12.016,0.428,12.626    c0.285,0.611,0.904,0.908,1.856,0.893c0.238,0.571,0.356,1.166,0.356,1.785c0,0.571-0.186,0.96-0.559,1.166    c-0.373,0.207-1.083,0.31-2.131,0.31c-2.57,0-4.197-0.039-4.879-0.119c-0.682-0.079-1.15-0.337-1.404-0.773    s-0.381-1.17-0.381-2.201v-8.402c0-3.236-0.297-5.406-0.893-6.51c-0.595-1.103-1.559-1.653-2.892-1.653    c-1.126,0-2.015,0.329-2.665,0.987c-0.651,0.658-0.977,2.035-0.977,4.13v4.783c0,2,0.039,4.166,0.119,6.498h2.832    c0.27,0.523,0.404,1.111,0.404,1.762c0,0.555-0.115,0.943-0.344,1.166c-0.23,0.223-0.68,0.333-1.346,0.333h-11.21    c-0.286-0.666-0.429-1.293-0.429-1.88c0-0.492,0.111-0.846,0.334-1.06c0.222-0.214,0.578-0.321,1.07-0.321h1.738    c0.078-2.618,0.118-5.077,0.118-7.378V11.551z"
         id="path35" /></g><rect
       x="2.737"
       y="42.801"
       fill="#009FE3"
       width="128.087"
       height="1.949"
       id="rect37"
       style="fill:#6852ae;fill-opacity:1" /></g></svg>