<?xml version="1.0" encoding="UTF-8" standalone="no"?>
<!-- Created with Inkscape (http://www.inkscape.org/) -->

<svg
   xmlns:dc="http://purl.org/dc/elements/1.1/"
   xmlns:cc="http://creativecommons.org/ns#"
   xmlns:rdf="http://www.w3.org/1999/02/22-rdf-syntax-ns#"
   xmlns:svg="http://www.w3.org/2000/svg"
   xmlns="http://www.w3.org/2000/svg"
   xmlns:sodipodi="http://sodipodi.sourceforge.net/DTD/sodipodi-0.dtd"
   xmlns:inkscape="http://www.inkscape.org/namespaces/inkscape"
   id="apps"
   version="1.1"
   inkscape:version="0.91 r13725"
   xml:space="preserve"
   width="500"
   height="500"
   viewBox="0 0 500 500.00001"
   sodipodi:docname="apps_foreground_finger.svg"><metadata
     id="metadata8"><rdf:RDF><cc:Work
         rdf:about=""><dc:format>image/svg+xml</dc:format><dc:type
           rdf:resource="http://purl.org/dc/dcmitype/StillImage" /><dc:title></dc:title></cc:Work></rdf:RDF></metadata><defs
     id="defs6"><clipPath
       clipPathUnits="userSpaceOnUse"
       id="clipPath18"><path
         d="M 0,800 800,800 800,0 0,0 0,800 Z"
         id="path20"
         inkscape:connector-curvature="0" /></clipPath><clipPath
       clipPathUnits="userSpaceOnUse"
       id="clipPath26"><path
         d="m 337.081,374.47 131.857,0 0,-374.47 -131.857,0 0,374.47 z"
         id="path28"
         inkscape:connector-curvature="0" /></clipPath><clipPath
       clipPathUnits="userSpaceOnUse"
       id="clipPath40"><path
         d="m 62.772,334.065 120.809,0 0,-334.065 -120.809,0 0,334.065 z"
         id="path42"
         inkscape:connector-curvature="0" /></clipPath><clipPath
       clipPathUnits="userSpaceOnUse"
       id="clipPath54"><path
         d="m 528.32,334.065 111.326,0 0,-334.065 -111.326,0 0,334.065 z"
         id="path56"
         inkscape:connector-curvature="0" /></clipPath><clipPath
       clipPathUnits="userSpaceOnUse"
       id="clipPath68"><path
         d="m 714.941,293.071 88.361,0 0,-293.071 -88.361,0 0,293.071 z"
         id="path70"
         inkscape:connector-curvature="0" /></clipPath><clipPath
       clipPathUnits="userSpaceOnUse"
       id="clipPath378"><path
         d="M 0,800 800,800 800,0 0,0 0,800 Z"
         id="path380"
         inkscape:connector-curvature="0" /></clipPath><clipPath
       clipPathUnits="userSpaceOnUse"
       id="clipPath490"><path
         d="m 82.0386,760.912 667.2274,0 0,-332.352 -667.2274,0 0,332.352 z"
         id="path492"
         inkscape:connector-curvature="0" /></clipPath><clipPath
       clipPathUnits="userSpaceOnUse"
       id="clipPath616"><path
         d="m 69.2173,749.222 681.0487,0 0,-305.391 -681.0487,0 0,305.391 z"
         id="path618"
         inkscape:connector-curvature="0" /></clipPath><clipPath
       clipPathUnits="userSpaceOnUse"
       id="clipPath712"><path
         d="m 288.621,785.406 222.758,0 0,-22.135 -222.758,0 0,22.135 z"
         id="path714"
         inkscape:connector-curvature="0" /></clipPath><clipPath
       clipPathUnits="userSpaceOnUse"
       id="clipPath378-0"><path
         d="M 0,800 800,800 800,0 0,0 0,800 Z"
         id="path380-4"
         inkscape:connector-curvature="0" /></clipPath><clipPath
       clipPathUnits="userSpaceOnUse"
       id="clipPath490-1"><path
         d="m 82.0386,760.912 667.2274,0 0,-332.352 -667.2274,0 0,332.352 z"
         id="path492-1"
         inkscape:connector-curvature="0" /></clipPath><clipPath
       clipPathUnits="userSpaceOnUse"
       id="clipPath616-3"><path
         d="m 69.2173,749.222 681.0487,0 0,-305.391 -681.0487,0 0,305.391 z"
         id="path618-5"
         inkscape:connector-curvature="0" /></clipPath><clipPath
       clipPathUnits="userSpaceOnUse"
       id="clipPath490-1-6"><path
         d="m 82.0386,760.912 667.2274,0 0,-332.352 -667.2274,0 0,332.352 z"
         id="path492-1-5"
         inkscape:connector-curvature="0" /></clipPath><clipPath
       clipPathUnits="userSpaceOnUse"
       id="clipPath616-3-6"><path
         d="m 69.2173,749.222 681.0487,0 0,-305.391 -681.0487,0 0,305.391 z"
         id="path618-5-4"
         inkscape:connector-curvature="0" /></clipPath><clipPath
       clipPathUnits="userSpaceOnUse"
       id="clipPath616-3-6-2"><path
         d="m 69.2173,749.222 681.0487,0 0,-305.391 -681.0487,0 0,305.391 z"
         id="path618-5-4-3"
         inkscape:connector-curvature="0" /></clipPath></defs><sodipodi:namedview
     pagecolor="#ffffff"
     bordercolor="#666666"
     borderopacity="1"
     objecttolerance="10"
     gridtolerance="10"
     guidetolerance="10"
     inkscape:pageopacity="0"
     inkscape:pageshadow="2"
     inkscape:window-width="1280"
     inkscape:window-height="987"
     id="namedview4"
     showgrid="false"
     inkscape:zoom="0.5"
     inkscape:cx="193.20797"
     inkscape:cy="313"
     inkscape:window-x="1680"
     inkscape:window-y="0"
     inkscape:window-maximized="1"
     inkscape:current-layer="g3611"
     fit-margin-top="0"
     fit-margin-left="0"
     fit-margin-right="0"
     fit-margin-bottom="0" /><g
     id="g10"
     inkscape:groupmode="layer"
     inkscape:label="308"
     transform="matrix(1.25,0,0,-1.25,-170.88949,350.45536)"><g
       transform="translate(21.279512,33.103323)"
       id="g374"><g
         id="g376"
         clip-path="url(#clipPath378-0)" /></g><g
       id="g6237"
       transform="translate(30.231037,-3.9999999e-6)"><g
         id="g4417"
         transform="translate(-44.074672,-102.95475)"><g
           id="g5957"
           transform="translate(15.580319,-135.1805)"><g
             id="g3611"
             transform="translate(-729.93994,176.51865)"><g
               id="g3391"
               transform="translate(15.351323,-8.0000002e-6)"><g
                 transform="translate(947.69917,107.3607)"
                 id="g824"><path
                   inkscape:connector-curvature="0"
                   id="path826"
                   style="fill:#f6c89d;fill-opacity:1;fill-rule:nonzero;stroke:none"
                   d="m 0,0 -29.386,49.559 c -6.283,10.591 -19.962,14.093 -30.559,7.81 l -6.387,-3.787 c -0.267,-0.158 -0.513,-0.349 -0.769,-0.519 L -41.998,10.733 0,0 Z" /></g><g
                 transform="translate(960.02147,124.2611)"
                 id="g828"><path
                   inkscape:connector-curvature="0"
                   id="path830"
                   style="fill:#f6c89d;fill-opacity:1;fill-rule:nonzero;stroke:none"
                   d="m 0,0 -51.294,13.099 c -4.851,1.224 -9.726,0.75 -14.02,-1.012 L -46.411,-19.79 22.12,-37.303 0,0 Z" /></g><g
                 transform="translate(929.33487,255.26011)"
                 id="g832"><path
                   inkscape:connector-curvature="0"
                   id="path834"
                   style="fill:#f6c89d;fill-opacity:1;fill-rule:nonzero;stroke:none"
                   d="m 0,0 c 7.167,4.25 16.441,1.883 20.692,-5.287 l 56.718,-95.646 c 4.254,-7.168 1.878,-16.441 -5.287,-20.689 -7.17,-4.253 -16.446,-1.889 -20.696,5.28 L -5.29,-20.694 C -9.543,-13.525 -7.172,-4.252 0,0" /></g><g
                 transform="translate(956.56247,106.0775)"
                 id="g836"><path
                   inkscape:connector-curvature="0"
                   id="path838"
                   style="fill:#f6c89d;fill-opacity:1;fill-rule:nonzero;stroke:none"
                   d="m 0,0 c 11.051,-18.633 35.123,-24.789 53.765,-13.728 l 54.828,32.512 c 18.63,11.039 24.779,35.117 13.731,53.754 L 89.809,127.365 C 78.76,145.997 54.684,152.152 36.056,141.105 L -18.77,108.593 C -37.418,97.538 -43.566,73.47 -32.515,54.83 L 0,0 Z" /></g><g
                 transform="translate(999.76947,282.43001)"
                 id="g840"><path
                   inkscape:connector-curvature="0"
                   id="path842"
                   style="fill:#f6c89d;fill-opacity:1;fill-rule:nonzero;stroke:none"
                   d="m 0,0 c 7.163,4.246 16.435,1.887 20.693,-5.294 l 36.321,-61.25 c 4.256,-7.18 1.882,-16.452 -5.282,-20.697 -7.177,-4.258 -16.439,-1.886 -20.698,5.292 l -36.317,61.25 C -9.543,-13.517 -7.179,-4.257 0,0" /></g><g
                 transform="translate(961.56737,274.38901)"
                 id="g844"><path
                   inkscape:connector-curvature="0"
                   id="path846"
                   style="fill:#f6c89d;fill-opacity:1;fill-rule:nonzero;stroke:none"
                   d="m 0,0 c 7.168,4.247 16.447,1.881 20.696,-5.284 l 56.721,-95.65 c 4.256,-7.177 1.883,-16.457 -5.284,-20.708 -7.174,-4.252 -16.44,-1.876 -20.696,5.302 L -5.284,-20.69 C -9.531,-13.526 -7.171,-4.253 0,0" /></g><g
                 transform="translate(872.29977,278.07161)"
                 id="g848"><path
                   inkscape:connector-curvature="0"
                   id="path850"
                   style="fill:#f6c89d;fill-opacity:1;fill-rule:nonzero;stroke:none"
                   d="m 0,0 c 7.182,4.262 16.449,1.87 20.7,-5.298 l 58.656,-99.05 c 4.251,-7.167 1.896,-16.434 -5.286,-20.694 -7.161,-4.246 -16.435,-1.872 -20.684,5.293 L -5.271,-20.7 C -9.52,-13.531 -7.163,-4.243 0,0" /></g><g
                 transform="translate(1139.9219,44.728765)"
                 id="g852"><path
                   inkscape:connector-curvature="0"
                   id="path854"
                   style="fill:#f6c89d;fill-opacity:1;fill-rule:nonzero;stroke:none"
                   d="m 0,0 -80.656,136.015 c -7.493,12.638 -23.82,16.805 -36.461,9.31 l -37.2,-22.057 c -12.63,-7.493 -16.819,-23.822 -9.322,-36.465 L -82.985,-49.209 0,0 Z" /></g><g
                 transform="translate(1138.418,77.497405)"
                 id="g856"><path
                   inkscape:connector-curvature="0"
                   id="path858"
                   style="fill:#ffffff;fill-opacity:1;fill-rule:nonzero;stroke:none"
                   d="M 0,0 -113.392,-64.497 -144.12,-10.468 -30.729,54.026 0,0 Z" /></g><g
                 style="fill:#0a0a0a;fill-opacity:1"
                 transform="translate(1129.1142,104.2679)"
                 id="g860"><path
                   sodipodi:nodetypes="ccccc"
                   inkscape:connector-curvature="0"
                   id="path862"
                   style="fill:#0a0a0a;fill-opacity:1;fill-rule:nonzero;stroke:none"
                   d="m 0,0 -121.861,-69.313 65.673,-92.974 161.286,0 z" /></g><g
                 transform="translate(1136.0205,92.1292)"
                 id="g864"><path
                   inkscape:connector-curvature="0"
                   id="path866"
                   style="fill:#383639;fill-opacity:1;fill-rule:nonzero;stroke:none"
                   d="m 0,0 -121.861,-69.316 -6.907,12.141 L -6.903,12.137 0,0 Z" /></g></g></g></g></g></g></g></svg>