<?xml version="1.0" encoding="UTF-8" standalone="no"?>
<!-- Created with Inkscape (http://www.inkscape.org/) -->

<svg
   xmlns:dc="http://purl.org/dc/elements/1.1/"
   xmlns:cc="http://creativecommons.org/ns#"
   xmlns:rdf="http://www.w3.org/1999/02/22-rdf-syntax-ns#"
   xmlns:svg="http://www.w3.org/2000/svg"
   xmlns="http://www.w3.org/2000/svg"
   xmlns:sodipodi="http://sodipodi.sourceforge.net/DTD/sodipodi-0.dtd"
   xmlns:inkscape="http://www.inkscape.org/namespaces/inkscape"
   id="apps"
   version="1.1"
   inkscape:version="0.91 r13725"
   xml:space="preserve"
   width="1000"
   height="500"
   viewBox="0 0 999.99998 500"
   sodipodi:docname="apps_background.svg"><metadata
     id="metadata8"><rdf:RDF><cc:Work
         rdf:about=""><dc:format>image/svg+xml</dc:format><dc:type
           rdf:resource="http://purl.org/dc/dcmitype/StillImage" /><dc:title></dc:title></cc:Work></rdf:RDF></metadata><defs
     id="defs6"><clipPath
       clipPathUnits="userSpaceOnUse"
       id="clipPath18"><path
         d="M 0,800 800,800 800,0 0,0 0,800 Z"
         id="path20"
         inkscape:connector-curvature="0" /></clipPath><clipPath
       clipPathUnits="userSpaceOnUse"
       id="clipPath26"><path
         d="m 337.081,374.47 131.857,0 0,-374.47 -131.857,0 0,374.47 z"
         id="path28"
         inkscape:connector-curvature="0" /></clipPath><clipPath
       clipPathUnits="userSpaceOnUse"
       id="clipPath40"><path
         d="m 62.772,334.065 120.809,0 0,-334.065 -120.809,0 0,334.065 z"
         id="path42"
         inkscape:connector-curvature="0" /></clipPath><clipPath
       clipPathUnits="userSpaceOnUse"
       id="clipPath54"><path
         d="m 528.32,334.065 111.326,0 0,-334.065 -111.326,0 0,334.065 z"
         id="path56"
         inkscape:connector-curvature="0" /></clipPath><clipPath
       clipPathUnits="userSpaceOnUse"
       id="clipPath68"><path
         d="m 714.941,293.071 88.361,0 0,-293.071 -88.361,0 0,293.071 z"
         id="path70"
         inkscape:connector-curvature="0" /></clipPath><clipPath
       clipPathUnits="userSpaceOnUse"
       id="clipPath378"><path
         d="M 0,800 800,800 800,0 0,0 0,800 Z"
         id="path380"
         inkscape:connector-curvature="0" /></clipPath><clipPath
       clipPathUnits="userSpaceOnUse"
       id="clipPath490"><path
         d="m 82.0386,760.912 667.2274,0 0,-332.352 -667.2274,0 0,332.352 z"
         id="path492"
         inkscape:connector-curvature="0" /></clipPath><clipPath
       clipPathUnits="userSpaceOnUse"
       id="clipPath616"><path
         d="m 69.2173,749.222 681.0487,0 0,-305.391 -681.0487,0 0,305.391 z"
         id="path618"
         inkscape:connector-curvature="0" /></clipPath><clipPath
       clipPathUnits="userSpaceOnUse"
       id="clipPath712"><path
         d="m 288.621,785.406 222.758,0 0,-22.135 -222.758,0 0,22.135 z"
         id="path714"
         inkscape:connector-curvature="0" /></clipPath><clipPath
       clipPathUnits="userSpaceOnUse"
       id="clipPath378-0"><path
         d="M 0,800 800,800 800,0 0,0 0,800 Z"
         id="path380-4"
         inkscape:connector-curvature="0" /></clipPath><clipPath
       clipPathUnits="userSpaceOnUse"
       id="clipPath490-1"><path
         d="m 82.0386,760.912 667.2274,0 0,-332.352 -667.2274,0 0,332.352 z"
         id="path492-1"
         inkscape:connector-curvature="0" /></clipPath><clipPath
       clipPathUnits="userSpaceOnUse"
       id="clipPath616-3"><path
         d="m 69.2173,749.222 681.0487,0 0,-305.391 -681.0487,0 0,305.391 z"
         id="path618-5"
         inkscape:connector-curvature="0" /></clipPath><clipPath
       clipPathUnits="userSpaceOnUse"
       id="clipPath490-1-6"><path
         d="m 82.0386,760.912 667.2274,0 0,-332.352 -667.2274,0 0,332.352 z"
         id="path492-1-5"
         inkscape:connector-curvature="0" /></clipPath><clipPath
       clipPathUnits="userSpaceOnUse"
       id="clipPath616-3-6"><path
         d="m 69.2173,749.222 681.0487,0 0,-305.391 -681.0487,0 0,305.391 z"
         id="path618-5-4"
         inkscape:connector-curvature="0" /></clipPath><clipPath
       clipPathUnits="userSpaceOnUse"
       id="clipPath616-3-6-2"><path
         d="m 69.2173,749.222 681.0487,0 0,-305.391 -681.0487,0 0,305.391 z"
         id="path618-5-4-3"
         inkscape:connector-curvature="0" /></clipPath></defs><sodipodi:namedview
     pagecolor="#ffe7a5"
     bordercolor="#666666"
     borderopacity="1"
     objecttolerance="10"
     gridtolerance="10"
     guidetolerance="10"
     inkscape:pageopacity="1"
     inkscape:pageshadow="2"
     inkscape:window-width="1280"
     inkscape:window-height="987"
     id="namedview4"
     showgrid="false"
     inkscape:zoom="0.35355339"
     inkscape:cx="105.9851"
     inkscape:cy="745.91006"
     inkscape:window-x="1680"
     inkscape:window-y="0"
     inkscape:window-maximized="1"
     inkscape:current-layer="g4417"
     fit-margin-top="0"
     fit-margin-left="0"
     fit-margin-right="0"
     fit-margin-bottom="0" /><g
     id="g10"
     inkscape:groupmode="layer"
     inkscape:label="308"
     transform="matrix(1.25,0,0,-1.25,23.299667,344.55518)"><g
       transform="translate(21.279512,33.103323)"
       id="g374"><g
         id="g376"
         clip-path="url(#clipPath378-0)" /></g><g
       id="g6237"
       transform="translate(30.231037,-3.9999999e-6)"><g
         id="g4417"
         transform="translate(-44.074672,-102.95475)"><g
           transform="translate(0,-145.2)"
           id="g14"><g
             id="g16"
             clip-path="url(#clipPath18)"><g
               id="g22"><g
                 id="g24" /><g
                 id="g30"><g
                   clip-path="url(#clipPath26)"
                   id="g32"
                   style="opacity:0.60000598"><path
                     d="m 468.938,0 -131.857,0 0,374.47 131.857,0 0,-374.47 z"
                     style="fill:#12a3b1;fill-opacity:1;fill-rule:nonzero;stroke:none"
                     id="path34"
                     inkscape:connector-curvature="0" /></g></g></g><g
               id="g36"><g
                 id="g38" /><g
                 id="g44"><g
                   clip-path="url(#clipPath40)"
                   id="g46"
                   style="opacity:0.60000598"><path
                     d="m 183.581,0 -120.809,0 0,334.065 120.809,0 0,-334.065 z"
                     style="fill:#12a3b1;fill-opacity:1;fill-rule:nonzero;stroke:none"
                     id="path48"
                     inkscape:connector-curvature="0" /></g></g></g><g
               id="g50"><g
                 id="g52" /><g
                 id="g58"><g
                   clip-path="url(#clipPath54)"
                   id="g60"
                   style="opacity:0.60000598"><path
                     d="m 639.646,0 -111.326,0 0,334.065 111.326,0 0,-334.065 z"
                     style="fill:#12a3b1;fill-opacity:1;fill-rule:nonzero;stroke:none"
                     id="path62"
                     inkscape:connector-curvature="0" /></g></g></g><g
               id="g64"><g
                 id="g66" /><g
                 id="g72"><g
                   clip-path="url(#clipPath68)"
                   id="g74"
                   style="opacity:0.60000598"><path
                     d="m 803.302,0 -88.36,0 0,293.071 88.36,0 0,-293.071 z"
                     style="fill:#12a3b1;fill-opacity:1;fill-rule:nonzero;stroke:none"
                     id="path76"
                     inkscape:connector-curvature="0" /></g></g></g></g></g><path
           d="m 139.4,-145.2 88.36,0 0,306.514 -88.36,0 0,-306.514 z"
           style="fill:#12a3b2;fill-opacity:1;fill-rule:nonzero;stroke:none"
           id="path78"
           inkscape:connector-curvature="0" /><path
           d="m 421.986,-145.2 88.36,0 0,306.514 -88.36,0 0,-306.514 z"
           style="fill:#fcfdfc;fill-opacity:1;fill-rule:nonzero;stroke:none"
           id="path80"
           inkscape:connector-curvature="0" /><g
           id="g82"
           transform="translate(279.7443,202.0947)"><path
             d="m 0,0 0,-347.295 129.083,0 0,324.245 -67.613,0 0,-61.468 -19.978,0 L 41.492,0 0,0 Z"
             style="fill:#12a3b1;fill-opacity:1;fill-rule:nonzero;stroke:none"
             id="path84"
             inkscape:connector-curvature="0" /></g><path
           d="m 313.552,90.683 -14.599,0 0,16.904 14.599,0 0,-16.904 z"
           style="fill:#fcfdfc;fill-opacity:1;fill-rule:nonzero;stroke:none"
           id="path86"
           inkscape:connector-curvature="0" /><path
           d="m 313.552,116.807 -14.599,0 0,16.904 14.599,0 0,-16.904 z"
           style="fill:#fcfdfc;fill-opacity:1;fill-rule:nonzero;stroke:none"
           id="path88"
           inkscape:connector-curvature="0" /><path
           d="m 313.552,142.932 -14.599,0 0,16.903 14.599,0 0,-16.903 z"
           style="fill:#fcfdfc;fill-opacity:1;fill-rule:nonzero;stroke:none"
           id="path90"
           inkscape:connector-curvature="0" /><path
           d="m 313.552,169.056 -14.599,0 0,16.903 14.599,0 0,-16.903 z"
           style="fill:#fcfdfc;fill-opacity:1;fill-rule:nonzero;stroke:none"
           id="path92"
           inkscape:connector-curvature="0" /><path
           d="m 338.908,90.683 -14.598,0 0,16.904 14.598,0 0,-16.904 z"
           style="fill:#fcfdfc;fill-opacity:1;fill-rule:nonzero;stroke:none"
           id="path94"
           inkscape:connector-curvature="0" /><path
           d="m 363.111,90.683 -14.599,0 0,16.904 14.599,0 0,-16.904 z"
           style="fill:#fcfdfc;fill-opacity:1;fill-rule:nonzero;stroke:none"
           id="path96"
           inkscape:connector-curvature="0" /><path
           d="m 386.93,90.683 -14.599,0 0,16.904 14.599,0 0,-16.904 z"
           style="fill:#fcfdfc;fill-opacity:1;fill-rule:nonzero;stroke:none"
           id="path98"
           inkscape:connector-curvature="0" /><path
           d="m 363.111,116.039 -14.599,0 0,16.903 14.599,0 0,-16.903 z"
           style="fill:#fcfdfc;fill-opacity:1;fill-rule:nonzero;stroke:none"
           id="path100"
           inkscape:connector-curvature="0" /><path
           d="m 386.93,116.039 -14.599,0 0,16.903 14.599,0 0,-16.903 z"
           style="fill:#fcfdfc;fill-opacity:1;fill-rule:nonzero;stroke:none"
           id="path102"
           inkscape:connector-curvature="0" /><path
           d="m 363.111,139.09 -14.599,0 0,16.903 14.599,0 0,-16.903 z"
           style="fill:#fcfdfc;fill-opacity:1;fill-rule:nonzero;stroke:none"
           id="path104"
           inkscape:connector-curvature="0" /><path
           d="m 386.93,139.09 -14.599,0 0,16.903 14.599,0 0,-16.903 z"
           style="fill:#fcfdfc;fill-opacity:1;fill-rule:nonzero;stroke:none"
           id="path106"
           inkscape:connector-curvature="0" /><path
           d="m 313.552,59.949 -14.599,0 0,16.904 14.599,0 0,-16.904 z"
           style="fill:#fcfdfc;fill-opacity:1;fill-rule:nonzero;stroke:none"
           id="path108"
           inkscape:connector-curvature="0" /><path
           d="m 338.908,59.949 -14.598,0 0,16.904 14.598,0 0,-16.904 z"
           style="fill:#fcfdfc;fill-opacity:1;fill-rule:nonzero;stroke:none"
           id="path110"
           inkscape:connector-curvature="0" /><path
           d="m 363.111,59.949 -14.599,0 0,16.904 14.599,0 0,-16.904 z"
           style="fill:#fcfdfc;fill-opacity:1;fill-rule:nonzero;stroke:none"
           id="path112"
           inkscape:connector-curvature="0" /><path
           d="m 386.93,59.949 -14.599,0 0,16.904 14.599,0 0,-16.904 z"
           style="fill:#fcfdfc;fill-opacity:1;fill-rule:nonzero;stroke:none"
           id="path114"
           inkscape:connector-curvature="0" /><path
           d="m 313.552,32.289 -14.599,0 0,16.902 14.599,0 0,-16.902 z"
           style="fill:#fcfdfc;fill-opacity:1;fill-rule:nonzero;stroke:none"
           id="path116"
           inkscape:connector-curvature="0" /><path
           d="m 338.908,32.289 -14.598,0 0,16.902 14.598,0 0,-16.902 z"
           style="fill:#fcfdfc;fill-opacity:1;fill-rule:nonzero;stroke:none"
           id="path118"
           inkscape:connector-curvature="0" /><path
           d="m 363.111,32.289 -14.599,0 0,16.902 14.599,0 0,-16.902 z"
           style="fill:#fcfdfc;fill-opacity:1;fill-rule:nonzero;stroke:none"
           id="path120"
           inkscape:connector-curvature="0" /><path
           d="m 386.93,32.289 -14.599,0 0,16.902 14.599,0 0,-16.902 z"
           style="fill:#fcfdfc;fill-opacity:1;fill-rule:nonzero;stroke:none"
           id="path122"
           inkscape:connector-curvature="0" /><path
           d="m 313.552,1.5549998 -14.599,0 0,16.9040002 14.599,0 0,-16.9040002 z"
           style="fill:#fcfdfc;fill-opacity:1;fill-rule:nonzero;stroke:none"
           id="path124"
           inkscape:connector-curvature="0" /><path
           d="m 338.908,1.5549998 -14.598,0 0,16.9040002 14.598,0 0,-16.9040002 z"
           style="fill:#fcfdfc;fill-opacity:1;fill-rule:nonzero;stroke:none"
           id="path126"
           inkscape:connector-curvature="0" /><path
           d="m 363.111,1.5549998 -14.599,0 0,16.9040002 14.599,0 0,-16.9040002 z"
           style="fill:#fcfdfc;fill-opacity:1;fill-rule:nonzero;stroke:none"
           id="path128"
           inkscape:connector-curvature="0" /><path
           d="m 386.93,1.5549998 -14.599,0 0,16.9040002 14.599,0 0,-16.9040002 z"
           style="fill:#fcfdfc;fill-opacity:1;fill-rule:nonzero;stroke:none"
           id="path130"
           inkscape:connector-curvature="0" /><path
           d="m 313.552,-27.642 -14.599,0 0,16.903 14.599,0 0,-16.903 z"
           style="fill:#fcfdfc;fill-opacity:1;fill-rule:nonzero;stroke:none"
           id="path132"
           inkscape:connector-curvature="0" /><path
           d="m 338.908,-27.642 -14.598,0 0,16.903 14.598,0 0,-16.903 z"
           style="fill:#fcfdfc;fill-opacity:1;fill-rule:nonzero;stroke:none"
           id="path134"
           inkscape:connector-curvature="0" /><path
           d="m 363.111,-27.642 -14.599,0 0,16.903 14.599,0 0,-16.903 z"
           style="fill:#fcfdfc;fill-opacity:1;fill-rule:nonzero;stroke:none"
           id="path136"
           inkscape:connector-curvature="0" /><path
           d="m 386.93,-27.642 -14.599,0 0,16.903 14.599,0 0,-16.903 z"
           style="fill:#fcfdfc;fill-opacity:1;fill-rule:nonzero;stroke:none"
           id="path138"
           inkscape:connector-curvature="0" /><path
           d="m 313.552,-58.377 -14.599,0 0,16.904 14.599,0 0,-16.904 z"
           style="fill:#fcfdfc;fill-opacity:1;fill-rule:nonzero;stroke:none"
           id="path140"
           inkscape:connector-curvature="0" /><path
           d="m 338.908,-58.377 -14.598,0 0,16.904 14.598,0 0,-16.904 z"
           style="fill:#fcfdfc;fill-opacity:1;fill-rule:nonzero;stroke:none"
           id="path142"
           inkscape:connector-curvature="0" /><path
           d="m 363.111,-58.377 -14.599,0 0,16.904 14.599,0 0,-16.904 z"
           style="fill:#fcfdfc;fill-opacity:1;fill-rule:nonzero;stroke:none"
           id="path144"
           inkscape:connector-curvature="0" /><path
           d="m 386.93,-58.377 -14.599,0 0,16.904 14.599,0 0,-16.904 z"
           style="fill:#fcfdfc;fill-opacity:1;fill-rule:nonzero;stroke:none"
           id="path146"
           inkscape:connector-curvature="0" /><path
           d="m 313.552,-83.731 -14.599,0 0,16.902 14.599,0 0,-16.902 z"
           style="fill:#fcfdfc;fill-opacity:1;fill-rule:nonzero;stroke:none"
           id="path148"
           inkscape:connector-curvature="0" /><path
           d="m 338.908,-83.731 -14.598,0 0,16.902 14.598,0 0,-16.902 z"
           style="fill:#fcfdfc;fill-opacity:1;fill-rule:nonzero;stroke:none"
           id="path150"
           inkscape:connector-curvature="0" /><path
           d="m 363.111,-83.731 -14.599,0 0,16.902 14.599,0 0,-16.902 z"
           style="fill:#fcfdfc;fill-opacity:1;fill-rule:nonzero;stroke:none"
           id="path152"
           inkscape:connector-curvature="0" /><path
           d="m 386.93,-83.731 -14.599,0 0,16.902 14.599,0 0,-16.902 z"
           style="fill:#fcfdfc;fill-opacity:1;fill-rule:nonzero;stroke:none"
           id="path154"
           inkscape:connector-curvature="0" /><path
           d="m 313.552,-114.467 -14.599,0 0,16.904 14.599,0 0,-16.904 z"
           style="fill:#fcfdfc;fill-opacity:1;fill-rule:nonzero;stroke:none"
           id="path156"
           inkscape:connector-curvature="0" /><path
           d="m 338.908,-114.467 -14.598,0 0,16.904 14.598,0 0,-16.904 z"
           style="fill:#fcfdfc;fill-opacity:1;fill-rule:nonzero;stroke:none"
           id="path158"
           inkscape:connector-curvature="0" /><path
           d="m 363.111,-114.467 -14.599,0 0,16.904 14.599,0 0,-16.904 z"
           style="fill:#fcfdfc;fill-opacity:1;fill-rule:nonzero;stroke:none"
           id="path160"
           inkscape:connector-curvature="0" /><path
           d="m 386.93,-114.467 -14.599,0 0,16.904 14.599,0 0,-16.904 z"
           style="fill:#fcfdfc;fill-opacity:1;fill-rule:nonzero;stroke:none"
           id="path162"
           inkscape:connector-curvature="0" /><path
           d="m 334.298,-145.2 19.21,0 0,22.282 -19.21,0 0,-22.282 z"
           style="fill:#fcfdfc;fill-opacity:1;fill-rule:nonzero;stroke:none"
           id="path164"
           inkscape:connector-curvature="0" /><path
           d="m 659.877,-145.2 129.083,0 0,242.499 -129.083,0 0,-242.499 z"
           style="fill:#61a1c4;fill-opacity:1;fill-rule:nonzero;stroke:none"
           id="path166"
           inkscape:connector-curvature="0" /><path
           d="m 693.685,59.949 -14.599,0 0,16.904 14.599,0 0,-16.904 z"
           style="fill:#fcfdfc;fill-opacity:1;fill-rule:nonzero;stroke:none"
           id="path168"
           inkscape:connector-curvature="0" /><path
           d="m 719.04,59.949 -14.599,0 0,16.904 14.599,0 0,-16.904 z"
           style="fill:#fcfdfc;fill-opacity:1;fill-rule:nonzero;stroke:none"
           id="path170"
           inkscape:connector-curvature="0" /><path
           d="m 743.244,59.949 -14.6,0 0,16.904 14.6,0 0,-16.904 z"
           style="fill:#fcfdfc;fill-opacity:1;fill-rule:nonzero;stroke:none"
           id="path172"
           inkscape:connector-curvature="0" /><path
           d="m 767.062,59.949 -14.599,0 0,16.904 14.599,0 0,-16.904 z"
           style="fill:#fcfdfc;fill-opacity:1;fill-rule:nonzero;stroke:none"
           id="path174"
           inkscape:connector-curvature="0" /><path
           d="m 693.685,32.289 -14.599,0 0,16.902 14.599,0 0,-16.902 z"
           style="fill:#fcfdfc;fill-opacity:1;fill-rule:nonzero;stroke:none"
           id="path176"
           inkscape:connector-curvature="0" /><path
           d="m 719.04,32.289 -14.599,0 0,16.902 14.599,0 0,-16.902 z"
           style="fill:#fcfdfc;fill-opacity:1;fill-rule:nonzero;stroke:none"
           id="path178"
           inkscape:connector-curvature="0" /><path
           d="m 743.244,32.289 -14.6,0 0,16.902 14.6,0 0,-16.902 z"
           style="fill:#fcfdfc;fill-opacity:1;fill-rule:nonzero;stroke:none"
           id="path180"
           inkscape:connector-curvature="0" /><path
           d="m 767.062,32.289 -14.599,0 0,16.902 14.599,0 0,-16.902 z"
           style="fill:#fcfdfc;fill-opacity:1;fill-rule:nonzero;stroke:none"
           id="path182"
           inkscape:connector-curvature="0" /><path
           d="m 693.685,1.5549998 -14.599,0 0,16.9040002 14.599,0 0,-16.9040002 z"
           style="fill:#fcfdfc;fill-opacity:1;fill-rule:nonzero;stroke:none"
           id="path184"
           inkscape:connector-curvature="0" /><path
           d="m 719.04,1.5549998 -14.599,0 0,16.9040002 14.599,0 0,-16.9040002 z"
           style="fill:#fcfdfc;fill-opacity:1;fill-rule:nonzero;stroke:none"
           id="path186"
           inkscape:connector-curvature="0" /><path
           d="m 743.244,1.5549998 -14.6,0 0,16.9040002 14.6,0 0,-16.9040002 z"
           style="fill:#fcfdfc;fill-opacity:1;fill-rule:nonzero;stroke:none"
           id="path188"
           inkscape:connector-curvature="0" /><path
           d="m 767.062,1.5549998 -14.599,0 0,16.9040002 14.599,0 0,-16.9040002 z"
           style="fill:#fcfdfc;fill-opacity:1;fill-rule:nonzero;stroke:none"
           id="path190"
           inkscape:connector-curvature="0" /><path
           d="m 693.685,-27.642 -14.599,0 0,16.903 14.599,0 0,-16.903 z"
           style="fill:#fcfdfc;fill-opacity:1;fill-rule:nonzero;stroke:none"
           id="path192"
           inkscape:connector-curvature="0" /><path
           d="m 719.04,-27.642 -14.599,0 0,16.903 14.599,0 0,-16.903 z"
           style="fill:#fcfdfc;fill-opacity:1;fill-rule:nonzero;stroke:none"
           id="path194"
           inkscape:connector-curvature="0" /><path
           d="m 743.244,-27.642 -14.6,0 0,16.903 14.6,0 0,-16.903 z"
           style="fill:#fcfdfc;fill-opacity:1;fill-rule:nonzero;stroke:none"
           id="path196"
           inkscape:connector-curvature="0" /><path
           d="m 767.062,-27.642 -14.599,0 0,16.903 14.599,0 0,-16.903 z"
           style="fill:#fcfdfc;fill-opacity:1;fill-rule:nonzero;stroke:none"
           id="path198"
           inkscape:connector-curvature="0" /><path
           d="m 693.685,-58.377 -14.599,0 0,16.904 14.599,0 0,-16.904 z"
           style="fill:#fcfdfc;fill-opacity:1;fill-rule:nonzero;stroke:none"
           id="path200"
           inkscape:connector-curvature="0" /><path
           d="m 719.04,-58.377 -14.599,0 0,16.904 14.599,0 0,-16.904 z"
           style="fill:#fcfdfc;fill-opacity:1;fill-rule:nonzero;stroke:none"
           id="path202"
           inkscape:connector-curvature="0" /><path
           d="m 743.244,-58.377 -14.6,0 0,16.904 14.6,0 0,-16.904 z"
           style="fill:#fcfdfc;fill-opacity:1;fill-rule:nonzero;stroke:none"
           id="path204"
           inkscape:connector-curvature="0" /><path
           d="m 767.062,-58.377 -14.599,0 0,16.904 14.599,0 0,-16.904 z"
           style="fill:#fcfdfc;fill-opacity:1;fill-rule:nonzero;stroke:none"
           id="path206"
           inkscape:connector-curvature="0" /><path
           d="m 693.685,-83.731 -14.599,0 0,16.902 14.599,0 0,-16.902 z"
           style="fill:#fcfdfc;fill-opacity:1;fill-rule:nonzero;stroke:none"
           id="path208"
           inkscape:connector-curvature="0" /><path
           d="m 719.04,-83.731 -14.599,0 0,16.902 14.599,0 0,-16.902 z"
           style="fill:#fcfdfc;fill-opacity:1;fill-rule:nonzero;stroke:none"
           id="path210"
           inkscape:connector-curvature="0" /><path
           d="m 743.244,-83.731 -14.6,0 0,16.902 14.6,0 0,-16.902 z"
           style="fill:#fcfdfc;fill-opacity:1;fill-rule:nonzero;stroke:none"
           id="path212"
           inkscape:connector-curvature="0" /><path
           d="m 767.062,-83.731 -14.599,0 0,16.902 14.599,0 0,-16.902 z"
           style="fill:#fcfdfc;fill-opacity:1;fill-rule:nonzero;stroke:none"
           id="path214"
           inkscape:connector-curvature="0" /><path
           d="m 693.685,-114.467 -14.599,0 0,16.904 14.599,0 0,-16.904 z"
           style="fill:#fcfdfc;fill-opacity:1;fill-rule:nonzero;stroke:none"
           id="path216"
           inkscape:connector-curvature="0" /><path
           d="m 719.04,-114.467 -14.599,0 0,16.904 14.599,0 0,-16.904 z"
           style="fill:#fcfdfc;fill-opacity:1;fill-rule:nonzero;stroke:none"
           id="path218"
           inkscape:connector-curvature="0" /><path
           d="m 743.244,-114.467 -14.6,0 0,16.904 14.6,0 0,-16.904 z"
           style="fill:#fcfdfc;fill-opacity:1;fill-rule:nonzero;stroke:none"
           id="path220"
           inkscape:connector-curvature="0" /><path
           d="m 767.062,-114.467 -14.599,0 0,16.904 14.599,0 0,-16.904 z"
           style="fill:#fcfdfc;fill-opacity:1;fill-rule:nonzero;stroke:none"
           id="path222"
           inkscape:connector-curvature="0" /><path
           d="m 714.431,-145.2 19.208,0 0,22.282 -19.208,0 0,-22.282 z"
           style="fill:#fcfdfc;fill-opacity:1;fill-rule:nonzero;stroke:none"
           id="path224"
           inkscape:connector-curvature="0" /><path
           d="m 195.664,-145.2 84.08,0 0,294.278 -84.08,0 0,-294.278 z"
           style="fill:#61a1c4;fill-opacity:1;fill-rule:nonzero;stroke:none"
           id="path226"
           inkscape:connector-curvature="0" /><path
           d="m 231.281,110.541 -22.188,0 0,25.692 22.188,0 0,-25.692 z"
           style="fill:#fcfdfc;fill-opacity:1;fill-rule:nonzero;stroke:none"
           id="path228"
           inkscape:connector-curvature="0" /><path
           d="m 262.811,110.541 -22.187,0 0,25.692 22.187,0 0,-25.692 z"
           style="fill:#fcfdfc;fill-opacity:1;fill-rule:nonzero;stroke:none"
           id="path230"
           inkscape:connector-curvature="0" /><path
           d="m 231.281,74.341 -22.188,0 0,25.691 22.188,0 0,-25.691 z"
           style="fill:#fcfdfc;fill-opacity:1;fill-rule:nonzero;stroke:none"
           id="path232"
           inkscape:connector-curvature="0" /><path
           d="m 262.811,74.341 -22.187,0 0,25.691 22.187,0 0,-25.691 z"
           style="fill:#fcfdfc;fill-opacity:1;fill-rule:nonzero;stroke:none"
           id="path234"
           inkscape:connector-curvature="0" /><path
           d="m 231.281,36.971 -22.188,0 0,25.692 22.188,0 0,-25.692 z"
           style="fill:#fcfdfc;fill-opacity:1;fill-rule:nonzero;stroke:none"
           id="path236"
           inkscape:connector-curvature="0" /><path
           d="m 262.811,36.971 -22.187,0 0,25.692 22.187,0 0,-25.692 z"
           style="fill:#fcfdfc;fill-opacity:1;fill-rule:nonzero;stroke:none"
           id="path238"
           inkscape:connector-curvature="0" /><path
           d="m 231.281,1.9389998 -22.188,0 0,25.6910002 22.188,0 0,-25.6910002 z"
           style="fill:#fcfdfc;fill-opacity:1;fill-rule:nonzero;stroke:none"
           id="path240"
           inkscape:connector-curvature="0" /><path
           d="m 262.811,1.9389998 -22.187,0 0,25.6910002 22.187,0 0,-25.6910002 z"
           style="fill:#fcfdfc;fill-opacity:1;fill-rule:nonzero;stroke:none"
           id="path242"
           inkscape:connector-curvature="0" /><path
           d="m 231.281,-34.262 -22.188,0 0,25.69 22.188,0 0,-25.69 z"
           style="fill:#fcfdfc;fill-opacity:1;fill-rule:nonzero;stroke:none"
           id="path244"
           inkscape:connector-curvature="0" /><path
           d="m 262.811,-34.262 -22.187,0 0,25.69 22.187,0 0,-25.69 z"
           style="fill:#fcfdfc;fill-opacity:1;fill-rule:nonzero;stroke:none"
           id="path246"
           inkscape:connector-curvature="0" /><path
           d="m 231.281,-70.463 -22.188,0 0,25.69 22.188,0 0,-25.69 z"
           style="fill:#fcfdfc;fill-opacity:1;fill-rule:nonzero;stroke:none"
           id="path248"
           inkscape:connector-curvature="0" /><path
           d="m 262.811,-70.463 -22.187,0 0,25.69 22.187,0 0,-25.69 z"
           style="fill:#fcfdfc;fill-opacity:1;fill-rule:nonzero;stroke:none"
           id="path250"
           inkscape:connector-curvature="0" /><path
           d="m 231.281,-105.497 -22.188,0 0,25.692 22.188,0 0,-25.692 z"
           style="fill:#fcfdfc;fill-opacity:1;fill-rule:nonzero;stroke:none"
           id="path252"
           inkscape:connector-curvature="0" /><path
           d="m 262.811,-105.497 -22.187,0 0,25.692 22.187,0 0,-25.692 z"
           style="fill:#fcfdfc;fill-opacity:1;fill-rule:nonzero;stroke:none"
           id="path254"
           inkscape:connector-curvature="0" /><path
           d="m 222.131,-145.2 29.194,0 0,33.866 -29.194,0 0,-33.866 z"
           style="fill:#fcfdfc;fill-opacity:1;fill-rule:nonzero;stroke:none"
           id="path256"
           inkscape:connector-curvature="0" /><path
           d="m 575.795,-145.2 84.082,0 0,294.278 -84.082,0 0,-294.278 z"
           style="fill:#61a1c4;fill-opacity:1;fill-rule:nonzero;stroke:none"
           id="path258"
           inkscape:connector-curvature="0" /><path
           d="m -4.975,-145.2 109.63,0 0,250.233 -109.63,0 0,-250.233 z"
           style="fill:#61a1c4;fill-opacity:1;fill-rule:nonzero;stroke:none"
           id="path260"
           inkscape:connector-curvature="0" /><path
           d="m 89.072,70.52 -78.465,0 0,17.256 78.465,0 0,-17.256 z"
           style="fill:#fcfdfc;fill-opacity:1;fill-rule:nonzero;stroke:none"
           id="path262"
           inkscape:connector-curvature="0" /><path
           d="m 89.072,33.415 -78.465,0 0,17.258 78.465,0 0,-17.258 z"
           style="fill:#fcfdfc;fill-opacity:1;fill-rule:nonzero;stroke:none"
           id="path264"
           inkscape:connector-curvature="0" /><path
           d="m 89.072,-3.6880002 -78.465,0 0,17.2570002 78.465,0 0,-17.2570002 z"
           style="fill:#fcfdfc;fill-opacity:1;fill-rule:nonzero;stroke:none"
           id="path266"
           inkscape:connector-curvature="0" /><path
           d="m 89.072,-40.793 -78.465,0 0,17.259 78.465,0 0,-17.259 z"
           style="fill:#fcfdfc;fill-opacity:1;fill-rule:nonzero;stroke:none"
           id="path268"
           inkscape:connector-curvature="0" /><path
           d="m 89.072,-77.895 -78.465,0 0,17.257 78.465,0 0,-17.257 z"
           style="fill:#fcfdfc;fill-opacity:1;fill-rule:nonzero;stroke:none"
           id="path270"
           inkscape:connector-curvature="0" /><path
           d="m 89.072,120.065 -78.465,0 0,-30.061 78.465,0 0,30.061 z"
           style="fill:#61a1c4;fill-opacity:1;fill-rule:nonzero;stroke:none"
           id="path272"
           inkscape:connector-curvature="0" /><path
           d="m 466.165,-145.2 109.63,0 0,250.234 -109.63,0 0,-250.234 z"
           style="fill:#69a8cd;fill-opacity:1;fill-rule:nonzero;stroke:none"
           id="path274"
           inkscape:connector-curvature="0" /><path
           d="m 560.214,70.519 -78.466,0 0,17.257 78.466,0 0,-17.257 z"
           style="fill:#115ba4;fill-opacity:1;fill-rule:nonzero;stroke:none"
           id="path276"
           inkscape:connector-curvature="0" /><path
           d="m 560.214,33.415 -78.466,0 0,17.256 78.466,0 0,-17.256 z"
           style="fill:#115ba4;fill-opacity:1;fill-rule:nonzero;stroke:none"
           id="path278"
           inkscape:connector-curvature="0" /><path
           d="m 560.214,-3.6880002 -78.466,0 0,17.2570002 78.466,0 0,-17.2570002 z"
           style="fill:#115ba4;fill-opacity:1;fill-rule:nonzero;stroke:none"
           id="path280"
           inkscape:connector-curvature="0" /><path
           d="m 560.214,-40.793 -78.466,0 0,17.259 78.466,0 0,-17.259 z"
           style="fill:#115ba4;fill-opacity:1;fill-rule:nonzero;stroke:none"
           id="path282"
           inkscape:connector-curvature="0" /><path
           d="m 560.214,-77.895 -78.466,0 0,17.257 78.466,0 0,-17.257 z"
           style="fill:#115ba4;fill-opacity:1;fill-rule:nonzero;stroke:none"
           id="path284"
           inkscape:connector-curvature="0" /><path
           d="m 560.214,120.064 -78.466,0 0,-30.061 78.466,0 0,30.061 z"
           style="fill:#37a1d5;fill-opacity:1;fill-rule:nonzero;stroke:none"
           id="path286"
           inkscape:connector-curvature="0" /><path
           d="m 97.192,-145.2 99.273,0 0,224.347 -99.273,0 0,-224.347 z"
           style="fill:#c3dee1;fill-opacity:1;fill-rule:nonzero;stroke:none"
           id="path288"
           inkscape:connector-curvature="0" /><path
           d="m 137.61475,47.001 -26.42282,0 0,16.271 26.42282,0 0,-16.271 z"
           style="fill:#fcfdfc;fill-opacity:1;fill-rule:nonzero;stroke:none"
           id="path290"
           inkscape:connector-curvature="0" /><path
           d="m 182.46275,47.001 -26.42398,0 0,16.271 26.42398,0 0,-16.271 z"
           style="fill:#fcfdfc;fill-opacity:1;fill-rule:nonzero;stroke:none"
           id="path292"
           inkscape:connector-curvature="0" /><path
           d="m 137.61475,20.642 -26.42282,0 0,16.27 26.42282,0 0,-16.27 z"
           style="fill:#fcfdfc;fill-opacity:1;fill-rule:nonzero;stroke:none"
           id="path294"
           inkscape:connector-curvature="0" /><path
           d="m 182.46275,20.642 -26.42398,0 0,16.27 26.42398,0 0,-16.27 z"
           style="fill:#fcfdfc;fill-opacity:1;fill-rule:nonzero;stroke:none"
           id="path296"
           inkscape:connector-curvature="0" /><path
           d="m 137.61475,-5.72 -26.42282,0 0,16.271 26.42282,0 0,-16.271 z"
           style="fill:#fcfdfc;fill-opacity:1;fill-rule:nonzero;stroke:none"
           id="path298"
           inkscape:connector-curvature="0" /><path
           d="m 182.46275,-5.72 -26.42398,0 0,16.271 26.42398,0 0,-16.271 z"
           style="fill:#fcfdfc;fill-opacity:1;fill-rule:nonzero;stroke:none"
           id="path300"
           inkscape:connector-curvature="0" /><path
           d="m 137.61475,-32.08 -26.42282,0 0,16.271 26.42282,0 0,-16.271 z"
           style="fill:#fcfdfc;fill-opacity:1;fill-rule:nonzero;stroke:none"
           id="path302"
           inkscape:connector-curvature="0" /><path
           d="m 182.46275,-32.08 -26.42398,0 0,16.271 26.42398,0 0,-16.271 z"
           style="fill:#fcfdfc;fill-opacity:1;fill-rule:nonzero;stroke:none"
           id="path304"
           inkscape:connector-curvature="0" /><path
           d="m 137.61475,-58.829 -26.42282,0 0,16.271 26.42282,0 0,-16.271 z"
           style="fill:#fcfdfc;fill-opacity:1;fill-rule:nonzero;stroke:none"
           id="path306"
           inkscape:connector-curvature="0" /><path
           d="m 182.46275,-58.829 -26.42398,0 0,16.271 26.42398,0 0,-16.271 z"
           style="fill:#fcfdfc;fill-opacity:1;fill-rule:nonzero;stroke:none"
           id="path308"
           inkscape:connector-curvature="0" /><path
           d="m 137.61475,-85.578 -26.42282,0 0,16.271 26.42282,0 0,-16.271 z"
           style="fill:#fcfdfc;fill-opacity:1;fill-rule:nonzero;stroke:none"
           id="path310"
           inkscape:connector-curvature="0" /><path
           d="m 182.46275,-85.578 -26.42398,0 0,16.271 26.42398,0 0,-16.271 z"
           style="fill:#fcfdfc;fill-opacity:1;fill-rule:nonzero;stroke:none"
           id="path312"
           inkscape:connector-curvature="0" /><path
           d="m 126.45142,-145.2 40.75184,0 0,50.478 -40.75184,0 0,-50.478 z"
           style="fill:#fcfdfc;fill-opacity:1;fill-rule:nonzero;stroke:none"
           id="path314"
           inkscape:connector-curvature="0" /><path
           d="m 395.349,-145.2 85.673,0 0,224.348 -85.673,0 0,-224.348 z"
           style="fill:#fcfdfc;fill-opacity:1;fill-rule:nonzero;stroke:none"
           id="path316"
           inkscape:connector-curvature="0" /><path
           d="m 430.235,47.003 -22.803,0 0,16.271 22.803,0 0,-16.271 z"
           style="fill:#37a1d5;fill-opacity:1;fill-rule:nonzero;stroke:none"
           id="path318"
           inkscape:connector-curvature="0" /><path
           d="m 468.938,47.003 -22.804,0 0,16.271 22.804,0 0,-16.271 z"
           style="fill:#37a1d5;fill-opacity:1;fill-rule:nonzero;stroke:none"
           id="path320"
           inkscape:connector-curvature="0" /><path
           d="m 430.235,20.641 -22.803,0 0,16.271 22.803,0 0,-16.271 z"
           style="fill:#37a1d5;fill-opacity:1;fill-rule:nonzero;stroke:none"
           id="path322"
           inkscape:connector-curvature="0" /><path
           d="m 468.938,20.641 -22.804,0 0,16.271 22.804,0 0,-16.271 z"
           style="fill:#37a1d5;fill-opacity:1;fill-rule:nonzero;stroke:none"
           id="path324"
           inkscape:connector-curvature="0" /><path
           d="m 430.235,-5.72 -22.803,0 0,16.271 22.803,0 0,-16.271 z"
           style="fill:#37a1d5;fill-opacity:1;fill-rule:nonzero;stroke:none"
           id="path326"
           inkscape:connector-curvature="0" /><path
           d="m 468.938,-5.72 -22.804,0 0,16.271 22.804,0 0,-16.271 z"
           style="fill:#37a1d5;fill-opacity:1;fill-rule:nonzero;stroke:none"
           id="path328"
           inkscape:connector-curvature="0" /><path
           d="m 430.235,-32.08 -22.803,0 0,16.271 22.803,0 0,-16.271 z"
           style="fill:#37a1d5;fill-opacity:1;fill-rule:nonzero;stroke:none"
           id="path330"
           inkscape:connector-curvature="0" /><path
           d="m 468.938,-32.08 -22.804,0 0,16.271 22.804,0 0,-16.271 z"
           style="fill:#37a1d5;fill-opacity:1;fill-rule:nonzero;stroke:none"
           id="path332"
           inkscape:connector-curvature="0" /><path
           d="m 430.235,-58.829 -22.803,0 0,16.271 22.803,0 0,-16.271 z"
           style="fill:#37a1d5;fill-opacity:1;fill-rule:nonzero;stroke:none"
           id="path334"
           inkscape:connector-curvature="0" /><path
           d="m 468.938,-58.829 -22.804,0 0,16.271 22.804,0 0,-16.271 z"
           style="fill:#37a1d5;fill-opacity:1;fill-rule:nonzero;stroke:none"
           id="path336"
           inkscape:connector-curvature="0" /><path
           d="m 430.235,-85.578 -22.803,0 0,16.271 22.803,0 0,-16.271 z"
           style="fill:#37a1d5;fill-opacity:1;fill-rule:nonzero;stroke:none"
           id="path338"
           inkscape:connector-curvature="0" /><path
           d="m 468.938,-85.578 -22.804,0 0,16.271 22.804,0 0,-16.271 z"
           style="fill:#37a1d5;fill-opacity:1;fill-rule:nonzero;stroke:none"
           id="path340"
           inkscape:connector-curvature="0" /><path
           d="m 420.602,-145.2 35.169,0 0,50.478 -35.169,0 0,-50.478 z"
           style="fill:#37a1d5;fill-opacity:1;fill-rule:nonzero;stroke:none"
           id="path342"
           inkscape:connector-curvature="0" /><path
           d="m 611.413,110.541 -22.188,0 0,25.692 22.188,0 0,-25.692 z"
           style="fill:#9ec4d5;fill-opacity:1;fill-rule:nonzero;stroke:none"
           id="path344"
           inkscape:connector-curvature="0" /><path
           d="m 642.942,110.541 -22.188,0 0,25.692 22.188,0 0,-25.692 z"
           style="fill:#9ec4d5;fill-opacity:1;fill-rule:nonzero;stroke:none"
           id="path346"
           inkscape:connector-curvature="0" /><path
           d="m 611.413,74.341 -22.188,0 0,25.691 22.188,0 0,-25.691 z"
           style="fill:#9ec4d5;fill-opacity:1;fill-rule:nonzero;stroke:none"
           id="path348"
           inkscape:connector-curvature="0" /><path
           d="m 642.942,74.341 -22.188,0 0,25.691 22.188,0 0,-25.691 z"
           style="fill:#9ec4d5;fill-opacity:1;fill-rule:nonzero;stroke:none"
           id="path350"
           inkscape:connector-curvature="0" /><path
           d="m 611.413,36.971 -22.188,0 0,25.692 22.188,0 0,-25.692 z"
           style="fill:#9ec4d5;fill-opacity:1;fill-rule:nonzero;stroke:none"
           id="path352"
           inkscape:connector-curvature="0" /><path
           d="m 642.942,36.971 -22.188,0 0,25.692 22.188,0 0,-25.692 z"
           style="fill:#9ec4d5;fill-opacity:1;fill-rule:nonzero;stroke:none"
           id="path354"
           inkscape:connector-curvature="0" /><path
           d="m 611.413,1.9389998 -22.188,0 0,25.6910002 22.188,0 0,-25.6910002 z"
           style="fill:#9ec4d5;fill-opacity:1;fill-rule:nonzero;stroke:none"
           id="path356"
           inkscape:connector-curvature="0" /><path
           d="m 642.942,1.9389998 -22.188,0 0,25.6910002 22.188,0 0,-25.6910002 z"
           style="fill:#9ec4d5;fill-opacity:1;fill-rule:nonzero;stroke:none"
           id="path358"
           inkscape:connector-curvature="0" /><path
           d="m 611.413,-34.262 -22.188,0 0,25.69 22.188,0 0,-25.69 z"
           style="fill:#9ec4d5;fill-opacity:1;fill-rule:nonzero;stroke:none"
           id="path360"
           inkscape:connector-curvature="0" /><path
           d="m 642.942,-34.262 -22.188,0 0,25.69 22.188,0 0,-25.69 z"
           style="fill:#9ec4d5;fill-opacity:1;fill-rule:nonzero;stroke:none"
           id="path362"
           inkscape:connector-curvature="0" /><path
           d="m 611.413,-70.463 -22.188,0 0,25.69 22.188,0 0,-25.69 z"
           style="fill:#9ec4d5;fill-opacity:1;fill-rule:nonzero;stroke:none"
           id="path364"
           inkscape:connector-curvature="0" /><path
           d="m 642.942,-70.463 -22.188,0 0,25.69 22.188,0 0,-25.69 z"
           style="fill:#9ec4d5;fill-opacity:1;fill-rule:nonzero;stroke:none"
           id="path366"
           inkscape:connector-curvature="0" /><path
           d="m 611.413,-105.497 -22.188,0 0,25.692 22.188,0 0,-25.692 z"
           style="fill:#9ec4d5;fill-opacity:1;fill-rule:nonzero;stroke:none"
           id="path368"
           inkscape:connector-curvature="0" /><path
           d="m 642.942,-105.497 -22.188,0 0,25.692 22.188,0 0,-25.692 z"
           style="fill:#9ec4d5;fill-opacity:1;fill-rule:nonzero;stroke:none"
           id="path370"
           inkscape:connector-curvature="0" /><path
           d="m 602.263,-145.2 29.194,0 0,33.866 -29.194,0 0,-33.866 z"
           style="fill:#9ec4d5;fill-opacity:1;fill-rule:nonzero;stroke:none"
           id="path372"
           inkscape:connector-curvature="0" /><g
           id="g5957"
           transform="translate(15.580319,-135.1805)" /></g></g></g></svg>