<?xml version="1.0" encoding="UTF-8" standalone="no"?>
<!-- Created with Inkscape (http://www.inkscape.org/) -->

<svg
   xmlns:dc="http://purl.org/dc/elements/1.1/"
   xmlns:cc="http://creativecommons.org/ns#"
   xmlns:rdf="http://www.w3.org/1999/02/22-rdf-syntax-ns#"
   xmlns:svg="http://www.w3.org/2000/svg"
   xmlns="http://www.w3.org/2000/svg"
   xmlns:sodipodi="http://sodipodi.sourceforge.net/DTD/sodipodi-0.dtd"
   xmlns:inkscape="http://www.inkscape.org/namespaces/inkscape"
   id="svg2"
   version="1.1"
   inkscape:version="0.91 r"
   xml:space="preserve"
   width="500"
   height="480"
   viewBox="0 0 500 480"
   sodipodi:docname="contact.svg"><metadata
     id="metadata8"><rdf:RDF><cc:Work
         rdf:about=""><dc:format>image/svg+xml</dc:format><dc:type
           rdf:resource="http://purl.org/dc/dcmitype/StillImage" /><dc:title></dc:title></cc:Work></rdf:RDF></metadata><defs
     id="defs6"><clipPath
       clipPathUnits="userSpaceOnUse"
       id="clipPath18"><path
         d="M 0,800 800,800 800,0 0,0 0,800 Z"
         id="path20"
         inkscape:connector-curvature="0" /></clipPath><clipPath
       clipPathUnits="userSpaceOnUse"
       id="clipPath138"><path
         d="M 0,800 800,800 800,0 0,0 0,800 Z"
         id="path140"
         inkscape:connector-curvature="0" /></clipPath><clipPath
       clipPathUnits="userSpaceOnUse"
       id="clipPath146"><path
         d="m 8,142.35 656.362,0 0,-96.4223 -656.362,0 0,96.4223 z"
         id="path148"
         inkscape:connector-curvature="0" /></clipPath><clipPath
       clipPathUnits="userSpaceOnUse"
       id="clipPath448"><path
         d="m -1,802 816,0 0,-816 -816,0 0,816 z"
         id="path450"
         inkscape:connector-curvature="0" /></clipPath></defs><sodipodi:namedview
     pagecolor="#ffffff"
     bordercolor="#666666"
     borderopacity="1"
     objecttolerance="10"
     gridtolerance="10"
     guidetolerance="10"
     inkscape:pageopacity="0"
     inkscape:pageshadow="2"
     inkscape:window-width="1920"
     inkscape:window-height="1016"
     id="namedview4"
     showgrid="false"
     inkscape:zoom="0.944"
     inkscape:cx="459.6149"
     inkscape:cy="227.5083"
     inkscape:window-x="1440"
     inkscape:window-y="27"
     inkscape:window-maximized="1"
     inkscape:current-layer="g10"
     fit-margin-top="0"
     fit-margin-left="0"
     fit-margin-right="0"
     fit-margin-bottom="0" /><g
     id="g10"
     inkscape:groupmode="layer"
     inkscape:label="9"
     transform="matrix(1.25,0,0,-1.25,-87.85625,583.41425)"><g
       id="g134"
       transform="matrix(0.56564341,0,0,0.55636346,30.528753,36.702672)"><g
         id="g136"
         clip-path="url(#clipPath138)"><g
           id="g158"
           transform="translate(153.9585,394.292)"><path
             d="m 0,0 373.952,0 c 7.643,0 13.897,-6.252 13.897,-13.896 l 0,-236.247 c 0,-7.644 -6.254,-13.896 -13.897,-13.896 l -373.952,0 c -7.644,0 -13.896,6.252 -13.896,13.896 l 0,236.247 C -13.896,-6.252 -7.644,0 0,0"
             style="fill:#22304e;fill-opacity:1;fill-rule:evenodd;stroke:none"
             id="path160"
             inkscape:connector-curvature="0" /></g><g
           id="g162"
           transform="translate(160.9053,366.7236)"><path
             d="m 0,0 360.055,0 0,-193.295 L 0,-206.127 0,0 Z"
             style="fill:#f4f4f4;fill-opacity:1;fill-rule:evenodd;stroke:none"
             id="path164"
             inkscape:connector-curvature="0" /></g><g
           id="g166"
           transform="translate(340.9346,374.9629)"><path
             d="M 0,0 C 2.79,0 5.053,2.262 5.053,5.053 5.053,7.844 2.79,10.105 0,10.105 -2.793,10.105 -5.053,7.844 -5.053,5.053 -5.053,2.262 -2.793,0 0,0"
             style="fill:#f1cb15;fill-opacity:1;fill-rule:evenodd;stroke:none"
             id="path168"
             inkscape:connector-curvature="0" /></g><g
           id="g170"
           transform="translate(340.9326,137.1387)"><path
             d="m 0,0 c 4.534,0 8.21,3.676 8.21,8.211 0,4.535 -3.676,8.21 -8.21,8.21 -4.539,0 -8.21,-3.675 -8.21,-8.21 C -8.21,3.676 -4.539,0 0,0"
             style="fill:#f1cb15;fill-opacity:1;fill-rule:evenodd;stroke:none"
             id="path172"
             inkscape:connector-curvature="0" /></g><g
           id="g174"
           transform="translate(140.062,130.2529)"><path
             d="m 0,0 401.746,0 69.776,-29.686 -541.299,0 L 0,0 Z"
             style="fill:#dbdbdb;fill-opacity:1;fill-rule:evenodd;stroke:none"
             id="path176"
             inkscape:connector-curvature="0" /></g><g
           id="g178"
           transform="translate(70.2852,100.5674)"><path
             d="m 0,0 541.299,0 0,-7.794 c 0,-5.52 -4.522,-10.042 -10.045,-10.042 l -521.21,0 C 4.521,-17.836 0,-13.317 0,-7.794 L 0,0 Z"
             style="fill:#c7c7c7;fill-opacity:1;fill-rule:evenodd;stroke:none"
             id="path180"
             inkscape:connector-curvature="0" /></g><path
           d="m 286.264,95.078 109.339,0 0,-6.971 -109.339,0 0,6.971 z"
           style="fill:#a5a5a5;fill-opacity:1;fill-rule:evenodd;stroke:none"
           id="path182"
           inkscape:connector-curvature="0" /><g
           id="g184"
           transform="translate(160.9053,160.5967)"><path
             d="m 0,0 360.055,0 0,206.127 L 0,0 Z"
             style="fill:#ffffff;fill-opacity:1;fill-rule:evenodd;stroke:none"
             id="path186"
             inkscape:connector-curvature="0" /></g><g
           id="g188"
           transform="translate(730.9492,545.4175)"><path
             d="m 0,0 -44.622,-46.283 52.807,-39.54 0.48,-5.051 -58.473,39.207 -15.092,-15.653 -17.781,12.519 -50.006,-49.552 -0.483,5.049 44.375,48.808 -52.559,37.016 -0.482,5.047 75.494,-43.74 L -0.482,5.048 0,0 Z M -147.369,-3.867 -137.26,-109.882 14.196,-95.437 4.082,10.576 -147.369,-3.867 Z"
             style="fill:#f1cb15;fill-opacity:1;fill-rule:nonzero;stroke:none"
             id="path190"
             inkscape:connector-curvature="0" /></g><g
           id="g192"
           transform="translate(730.9492,545.4175)"><path
             d="m 0,0 -44.622,-46.283 52.807,-39.54 0.48,-5.051 -58.473,39.207 -15.092,-15.653 -17.781,12.519 -50.006,-49.552 -0.483,5.049 44.375,48.808 -52.559,37.016 -0.482,5.047 75.494,-43.74 L -0.482,5.048 0,0 Z"
             style="fill:#ffffff;fill-opacity:1;fill-rule:nonzero;stroke:none"
             id="path194"
             inkscape:connector-curvature="0" /></g><g
           id="g196"
           transform="translate(506.1943,398.7939)"><path
             d="m 0,0 -6.275,-31.645 33.018,-2.363 1.573,-2 -35.322,0.684 -2.122,-10.704 -10.903,0.461 -7.666,-34.488 -1.573,2.001 5.491,32.645 -32.233,1.363 -1.573,2.001 43.737,2.019 L -1.573,2.001 0,0 Z m -61.159,-41.618 33.035,-42.01 60.015,47.193 -33.037,42.01 -60.013,-47.193 z"
             style="fill:#f05e22;fill-opacity:1;fill-rule:nonzero;stroke:none"
             id="path198"
             inkscape:connector-curvature="0" /></g><g
           id="g200"
           transform="translate(506.1943,398.7939)"><path
             d="m 0,0 -6.275,-31.645 33.018,-2.363 1.573,-2 -35.322,0.684 -2.122,-10.704 -10.903,0.461 -7.666,-34.488 -1.573,2.001 5.491,32.645 -32.233,1.363 -1.573,2.001 43.737,2.019 L -1.573,2.001 0,0 Z"
             style="fill:#ffffff;fill-opacity:1;fill-rule:nonzero;stroke:none"
             id="path202"
             inkscape:connector-curvature="0" /></g><g
           id="g204"
           transform="translate(739.5498,561.1914)"><path
             d="m 0,0 -36.038,-3.826 8.482,-36.206 -1.62,-2.354 -11.053,38.115 -12.189,-1.294 -3.144,11.849 -39.548,-3.286 1.621,2.355 36.846,5.004 -9.291,35.028 1.621,2.355 L -47.555,1.499 1.621,2.355 0,0 Z M -65.048,51.715 -99.086,2.265 -28.442,-46.362 5.596,3.088 -65.048,51.715 Z"
             style="fill:#f05e22;fill-opacity:1;fill-rule:nonzero;stroke:none"
             id="path206"
             inkscape:connector-curvature="0" /></g><g
           id="g208"
           transform="translate(739.5498,561.1914)"><path
             d="m 0,0 -36.038,-3.826 8.482,-36.206 -1.62,-2.354 -11.053,38.115 -12.189,-1.294 -3.144,11.849 -39.548,-3.286 1.621,2.355 36.846,5.004 -9.291,35.028 1.621,2.355 L -47.555,1.499 1.621,2.355 0,0 Z"
             style="fill:#ffffff;fill-opacity:1;fill-rule:nonzero;stroke:none"
             id="path210"
             inkscape:connector-curvature="0" /></g><g
           id="g212"
           transform="translate(456.7549,679.5249)"><path
             d="m 0,0 -20.139,-48.231 51.671,-14.366 1.856,-3.682 -55.867,12.439 -6.811,-16.315 -17.166,4.237 -23.256,-52.297 -1.855,3.682 19.21,50.072 -50.744,12.526 -1.853,3.682 70.098,-10.854 L -1.854,3.683 0,0 Z M -110.493,-46.427 -71.54,-123.752 38.925,-68.106 -0.027,9.219 -110.493,-46.427 Z"
             style="fill:#f05e22;fill-opacity:1;fill-rule:nonzero;stroke:none"
             id="path214"
             inkscape:connector-curvature="0" /></g><g
           id="g216"
           transform="translate(456.7549,679.5249)"><path
             d="m 0,0 -20.139,-48.231 51.671,-14.366 1.856,-3.682 -55.867,12.439 -6.811,-16.315 -17.166,4.237 -23.256,-52.297 -1.855,3.682 19.21,50.072 -50.744,12.526 -1.853,3.682 70.098,-10.854 L -1.854,3.683 0,0 Z"
             style="fill:#ffffff;fill-opacity:1;fill-rule:nonzero;stroke:none"
             id="path218"
             inkscape:connector-curvature="0" /></g><g
           id="g220"
           transform="translate(450.9336,453.7266)"><path
             d="M 0,0 -20.599,-17.656 0,-36.381 l 0,-2.141 -22.994,18.813 -6.967,-5.972 -6.969,5.972 -22.992,-18.813 0,2.141 20.597,18.725 L -59.922,0 l 0,2.14 29.961,-21.4 L 0,2.14 0,0 Z m -62.063,-40.662 64.202,0 0,44.941 -64.202,0 0,-44.941 z"
             style="fill:#018c8b;fill-opacity:1;fill-rule:nonzero;stroke:none"
             id="path222"
             inkscape:connector-curvature="0" /></g><g
           id="g224"
           transform="translate(450.9336,453.7266)"><path
             d="M 0,0 -20.599,-17.656 0,-36.381 l 0,-2.141 -22.994,18.813 -6.967,-5.972 -6.969,5.972 -22.992,-18.813 0,2.141 20.597,18.725 L -59.922,0 l 0,2.14 29.961,-21.4 L 0,2.14 0,0 Z"
             style="fill:#ffffff;fill-opacity:1;fill-rule:nonzero;stroke:none"
             id="path226"
             inkscape:connector-curvature="0" /></g><g
           id="g228"
           transform="translate(370.8965,265.6211)"><path
             d="M 0,0 -20.599,-17.655 0,-36.381 l 0,-2.14 -22.994,18.812 -6.967,-5.972 -6.969,5.972 -22.992,-18.812 0,2.14 20.597,18.726 L -59.922,0 l 0,2.141 L -29.961,-19.26 0,2.141 0,0 Z m -62.063,-40.661 64.202,0 0,44.941 -64.202,0 0,-44.941 z"
             style="fill:#018c8b;fill-opacity:1;fill-rule:nonzero;stroke:none"
             id="path230"
             inkscape:connector-curvature="0" /></g><g
           id="g232"
           transform="translate(370.8965,265.6211)"><path
             d="M 0,0 -20.599,-17.655 0,-36.381 l 0,-2.14 -22.994,18.812 -6.967,-5.972 -6.969,5.972 -22.992,-18.812 0,2.14 20.597,18.726 L -59.922,0 l 0,2.141 L -29.961,-19.26 0,2.141 0,0 Z"
             style="fill:#ffffff;fill-opacity:1;fill-rule:nonzero;stroke:none"
             id="path234"
             inkscape:connector-curvature="0" /></g><g
           id="g236"
           transform="translate(673.6328,409.7187)"><path
             d="m 0,0 -66.988,7.761 0.624,-69.193 -3.906,-3.614 -4.507,73.71 -22.659,2.625 -0.872,22.794 -73.141,10.179 3.903,3.613 68.94,-5.954 -2.574,67.387 3.905,3.613 L -85.723,22.13 3.904,3.614 0,0 Z M -96.986,120.438 -178.967,44.552 -70.559,-72.563 11.422,3.322 -96.986,120.438 Z"
             style="fill:#018c8b;fill-opacity:1;fill-rule:nonzero;stroke:none"
             id="path238"
             inkscape:connector-curvature="0" /></g><g
           id="g240"
           transform="translate(673.6328,409.7187)"><path
             d="m 0,0 -66.988,7.761 0.624,-69.193 -3.906,-3.614 -4.507,73.71 -22.659,2.625 -0.872,22.794 -73.141,10.179 3.903,3.613 68.94,-5.954 -2.574,67.387 3.905,3.613 L -85.723,22.13 3.904,3.614 0,0 Z"
             style="fill:#ffffff;fill-opacity:1;fill-rule:nonzero;stroke:none"
             id="path242"
             inkscape:connector-curvature="0" /></g><g
           id="g244"
           transform="translate(639.4336,702.7686)"><path
             d="m 0,0 -28.586,-52.424 57.014,-22.433 1.673,-4.405 -62.011,20.743 -9.669,-17.731 -19.003,6.843 -32.612,-56.675 -1.672,4.403 27.75,54.625 -56.178,20.234 -1.673,4.404 L -46.596,-63.04 -1.672,4.404 0,0 Z m -131.042,-39.687 35.116,-92.47 132.103,50.165 -35.116,92.471 -132.103,-50.166 z"
             style="fill:#018c8b;fill-opacity:1;fill-rule:nonzero;stroke:none"
             id="path246"
             inkscape:connector-curvature="0" /></g><g
           id="g248"
           transform="translate(639.4336,702.7686)"><path
             d="m 0,0 -28.586,-52.424 57.014,-22.433 1.673,-4.405 -62.011,20.743 -9.669,-17.731 -19.003,6.843 -32.612,-56.675 -1.672,4.403 27.75,54.625 -56.178,20.234 -1.673,4.404 L -46.596,-63.04 -1.672,4.404 0,0 Z"
             style="fill:#ffffff;fill-opacity:1;fill-rule:nonzero;stroke:none"
             id="path250"
             inkscape:connector-curvature="0" /></g><g
           id="g252"
           transform="translate(475.2832,520.3491)"><path
             d="m 0,0 -22.122,4.056 -1.315,-23.04 -1.378,-1.117 0.121,24.629 -7.483,1.371 0.211,7.605 -24.117,4.996 1.379,1.117 22.81,-3.498 0.626,22.483 1.378,1.116 L -28.041,9.25 1.379,1.117 0,0 Z m -29.628,42.213 -28.95,-23.451 33.502,-41.359 28.95,23.451 -33.502,41.359 z"
             style="fill:#f1cb15;fill-opacity:1;fill-rule:nonzero;stroke:none"
             id="path254"
             inkscape:connector-curvature="0" /></g><g
           id="g256"
           transform="translate(475.2832,520.3491)"><path
             d="m 0,0 -22.122,4.056 -1.315,-23.04 -1.378,-1.117 0.121,24.629 -7.483,1.371 0.211,7.605 -24.117,4.996 1.379,1.117 22.81,-3.498 0.626,22.483 1.378,1.116 L -28.041,9.25 1.379,1.117 0,0 Z"
             style="fill:#ffffff;fill-opacity:1;fill-rule:nonzero;stroke:none"
             id="path258"
             inkscape:connector-curvature="0" /></g><g
           id="g260"
           transform="translate(556.9492,723.3877)"><path
             d="m 0,0 -28.113,2.642 0.887,-28.961 -1.601,-1.549 -2.556,30.817 -9.51,0.894 -0.571,9.534 -30.711,3.597 1.602,1.548 28.913,-1.867 -1.688,28.186 1.601,1.548 5.66,-37.902 L 1.602,1.548 0,0 Z M -41.694,49.54 -75.325,17.028 -28.88,-31.017 4.751,1.495 -41.694,49.54 Z"
             style="fill:#f1cb15;fill-opacity:1;fill-rule:nonzero;stroke:none"
             id="path262"
             inkscape:connector-curvature="0" /></g><g
           id="g264"
           transform="translate(556.9492,723.3877)"><path
             d="m 0,0 -28.113,2.642 0.887,-28.961 -1.601,-1.549 -2.556,30.817 -9.51,0.894 -0.571,9.534 -30.711,3.597 1.602,1.548 28.913,-1.867 -1.688,28.186 1.601,1.548 5.66,-37.902 L 1.602,1.548 0,0 Z"
             style="fill:#ffffff;fill-opacity:1;fill-rule:nonzero;stroke:none"
             id="path266"
             inkscape:connector-curvature="0" /></g><g
           id="g268"
           transform="translate(720.75,353.2812)"><path
             d="m 0,0 -40.804,3.834 1.289,-42.033 -2.325,-2.248 -3.709,44.726 -13.802,1.298 -0.829,13.838 -44.574,5.221 2.325,2.247 41.964,-2.71 -2.449,40.909 2.323,2.247 8.215,-55.011 L 2.324,2.246 0,0 Z M -60.515,71.901 -109.326,24.715 -41.916,-45.017 6.896,2.17 -60.515,71.901 Z"
             style="fill:#f1cb15;fill-opacity:1;fill-rule:nonzero;stroke:none"
             id="path270"
             inkscape:connector-curvature="0" /></g><g
           id="g272"
           transform="translate(720.75,353.2812)"><path
             d="m 0,0 -40.804,3.834 1.289,-42.033 -2.325,-2.248 -3.709,44.726 -13.802,1.298 -0.829,13.838 -44.574,5.221 2.325,2.247 41.964,-2.71 -2.449,40.909 2.323,2.247 8.215,-55.011 L 2.324,2.246 0,0 Z"
             style="fill:#ffffff;fill-opacity:1;fill-rule:nonzero;stroke:none"
             id="path274"
             inkscape:connector-curvature="0" /></g><g
           id="g276"
           transform="translate(322.5688,246.6201)"><path
             d="m 0,0 -28.034,-14.656 18.491,-26.68 -0.562,-2.432 -21.189,27.407 -9.483,-4.957 -6.349,8.612 -31.059,-15.343 0.562,2.432 28.313,15.873 -18.77,25.463 0.561,2.43 28.427,-32.172 L 0.562,2.431 0,0 Z M -69.39,21.142 -81.179,-29.918 -8.235,-46.759 3.554,4.301 -69.39,21.142 Z"
             style="fill:#f1cb15;fill-opacity:1;fill-rule:nonzero;stroke:none"
             id="path278"
             inkscape:connector-curvature="0" /></g><g
           id="g280"
           transform="translate(322.5688,246.6201)"><path
             d="m 0,0 -28.034,-14.656 18.491,-26.68 -0.562,-2.432 -21.189,27.407 -9.483,-4.957 -6.349,8.612 -31.059,-15.343 0.562,2.432 28.313,15.873 -18.77,25.463 0.561,2.43 28.427,-32.172 L 0.562,2.431 0,0 Z"
             style="fill:#ffffff;fill-opacity:1;fill-rule:nonzero;stroke:none"
             id="path282"
             inkscape:connector-curvature="0" /></g><g
           id="g284"
           transform="translate(489.0811,299.1943)"><path
             d="m 0,0 -30.193,-9.442 13.458,-29.54 -0.986,-2.293 -15.983,30.734 -10.212,-3.193 -4.719,9.603 -33.29,-9.581 0.985,2.293 30.682,10.591 -13.947,28.391 0.983,2.293 L -40.961,-6.855 0.983,2.293 0,0 Z M -64.531,33.134 -85.204,-15.02 -16.411,-44.552 4.26,3.602 -64.531,33.134 Z"
             style="fill:#f1cb15;fill-opacity:1;fill-rule:nonzero;stroke:none"
             id="path286"
             inkscape:connector-curvature="0" /></g><g
           id="g288"
           transform="translate(489.0811,299.1943)"><path
             d="m 0,0 -30.193,-9.442 13.458,-29.54 -0.986,-2.293 -15.983,30.734 -10.212,-3.193 -4.719,9.603 -33.29,-9.581 0.985,2.293 30.682,10.591 -13.947,28.391 0.983,2.293 L -40.961,-6.855 0.983,2.293 0,0 Z"
             style="fill:#ffffff;fill-opacity:1;fill-rule:nonzero;stroke:none"
             id="path290"
             inkscape:connector-curvature="0" /></g><g
           id="g292"
           transform="translate(603.3262,561.7031)"><path
             d="M 0,0 -35.259,-30.222 0,-62.275 l 0,-3.663 -39.358,32.201 -11.926,-10.222 -11.927,10.222 -39.358,-32.201 0,3.663 35.257,32.053 -35.257,30.222 0,3.663 51.285,-36.631 L 0,3.663 0,0 Z m -106.232,-69.601 109.896,0 0,76.927 -109.896,0 0,-76.927 z"
             style="fill:#d82534;fill-opacity:1;fill-rule:nonzero;stroke:none"
             id="path294"
             inkscape:connector-curvature="0" /></g><g
           id="g296"
           transform="translate(603.3262,561.7031)"><path
             d="M 0,0 -35.259,-30.222 0,-62.275 l 0,-3.663 -39.358,32.201 -11.926,-10.222 -11.927,10.222 -39.358,-32.201 0,3.663 35.257,32.053 -35.257,30.222 0,3.663 51.285,-36.631 L 0,3.663 0,0 Z"
             style="fill:#ffffff;fill-opacity:1;fill-rule:nonzero;stroke:none"
             id="path298"
             inkscape:connector-curvature="0" /></g><g
           id="g300"
           transform="translate(619.9531,296.5361)"><path
             d="m 0,0 -34.059,-16.869 21.511,-32.529 -0.738,-2.906 -24.733,33.474 -11.518,-5.706 -7.401,10.512 -37.708,-17.614 0.737,2.906 34.426,18.321 -21.878,31.077 0.738,2.906 33.3,-39.391 L 0.737,2.905 0,0 Z m -82.791,27.216 -15.5,-61.022 87.173,-22.142 15.5,61.021 -87.173,22.143 z"
             style="fill:#d82534;fill-opacity:1;fill-rule:nonzero;stroke:none"
             id="path302"
             inkscape:connector-curvature="0" /></g><g
           id="g304"
           transform="translate(619.9531,296.5361)"><path
             d="m 0,0 -34.059,-16.869 21.511,-32.529 -0.738,-2.906 -24.733,33.474 -11.518,-5.706 -7.401,10.512 -37.708,-17.614 0.737,2.906 34.426,18.321 -21.878,31.077 0.738,2.906 33.3,-39.391 L 0.737,2.905 0,0 Z"
             style="fill:#ffffff;fill-opacity:1;fill-rule:nonzero;stroke:none"
             id="path306"
             inkscape:connector-curvature="0" /></g><g
           id="g308"
           transform="translate(389.7666,335.6484)"><path
             d="m 0,0 -9.556,-32.466 34.271,-5.597 1.453,-2.237 -36.835,4.061 -3.231,-10.981 -11.347,1.515 -11.275,-35.301 -1.454,2.239 8.828,33.582 -33.542,4.479 -1.454,2.239 45.882,-2.036 L -1.454,2.238 0,0 Z M -67.834,-37.683 -37.305,-84.698 29.86,-41.086 -0.669,5.931 -67.834,-37.683 Z"
             style="fill:#d82534;fill-opacity:1;fill-rule:nonzero;stroke:none"
             id="path310"
             inkscape:connector-curvature="0" /></g><g
           id="g312"
           transform="translate(389.7666,335.6484)"><path
             d="m 0,0 -9.556,-32.466 34.271,-5.597 1.453,-2.237 -36.835,4.061 -3.231,-10.981 -11.347,1.515 -11.275,-35.301 -1.454,2.239 8.828,33.582 -33.542,4.479 -1.454,2.239 45.882,-2.036 L -1.454,2.238 0,0 Z"
             style="fill:#ffffff;fill-opacity:1;fill-rule:nonzero;stroke:none"
             id="path314"
             inkscape:connector-curvature="0" /></g><g
           id="g316"
           transform="translate(757.1279,643.0776)"><path
             d="m 0,0 -24.5,6.05 -3.041,-25.714 -1.619,-1.156 1.812,27.574 -8.286,2.045 0.755,8.503 -26.668,7.238 1.621,1.156 25.307,-5.471 2.231,25.135 1.621,1.156 L -30.773,12.27 1.619,1.157 0,0 Z m -30.304,49.293 -34.019,-24.29 34.699,-48.599 34.02,24.29 -34.7,48.599 z"
             style="fill:#d82534;fill-opacity:1;fill-rule:nonzero;stroke:none"
             id="path318"
             inkscape:connector-curvature="0" /></g><g
           id="g320"
           transform="translate(757.1279,643.0776)"><path
             d="m 0,0 -24.5,6.05 -3.041,-25.714 -1.619,-1.156 1.812,27.574 -8.286,2.045 0.755,8.503 -26.668,7.238 1.621,1.156 25.307,-5.471 2.231,25.135 1.621,1.156 L -30.773,12.27 1.619,1.157 0,0 Z"
             style="fill:#ffffff;fill-opacity:1;fill-rule:nonzero;stroke:none"
             id="path322"
             inkscape:connector-curvature="0" /></g><g
           id="g324"
           transform="translate(734.2529,394.4658)"><path
             d="m 0,0 -10.874,12.802 -11.649,-12.701 -1.325,0.005 11.71,14.184 -3.678,4.329 3.716,4.298 -11.584,14.286 1.326,-0.006 L -10.822,24.394 0.165,37.098 1.489,37.092 -11.841,18.602 1.325,-0.005 0,0 Z M 2.82,38.411 -25.002,38.534 -25.179,-1.213 2.644,-1.336 2.82,38.411 Z"
             style="fill:#d82534;fill-opacity:1;fill-rule:nonzero;stroke:none"
             id="path326"
             inkscape:connector-curvature="0" /></g><g
           id="g328"
           transform="translate(734.2529,394.4658)"><path
             d="m 0,0 -10.874,12.802 -11.649,-12.701 -1.325,0.005 11.71,14.184 -3.678,4.329 3.716,4.298 -11.584,14.286 1.326,-0.006 L -10.822,24.394 0.165,37.098 1.489,37.092 -11.841,18.602 1.325,-0.005 0,0 Z"
             style="fill:#ffffff;fill-opacity:1;fill-rule:nonzero;stroke:none"
             id="path330"
             inkscape:connector-curvature="0" /></g><g
           id="g332"
           transform="translate(336.6226,431.6689)"><path
             d="m 0,0 c 0,-5.799 -4.701,-10.5 -10.5,-10.5 -5.799,0 -10.5,4.701 -10.5,10.5 0,5.799 4.701,10.5 10.5,10.5 C -4.701,10.5 0,5.799 0,0"
             style="fill:#f1cb15;fill-opacity:1;fill-rule:nonzero;stroke:none"
             id="path334"
             inkscape:connector-curvature="0" /></g><g
           id="g336"
           transform="translate(777.4443,415.2046)"><path
             d="m 0,0 c 0,-5.115 -4.146,-9.262 -9.262,-9.262 -5.115,0 -9.261,4.147 -9.261,9.262 0,5.115 4.146,9.262 9.261,9.262 C -4.146,9.262 0,5.115 0,0"
             style="fill:#f1cb15;fill-opacity:1;fill-rule:nonzero;stroke:none"
             id="path338"
             inkscape:connector-curvature="0" /></g><g
           id="g340"
           transform="translate(719.5742,240.5879)"><path
             d="m 0,0 c 0,-5.799 -4.701,-10.5 -10.5,-10.5 -5.799,0 -10.5,4.701 -10.5,10.5 0,5.799 4.701,10.5 10.5,10.5 C -4.701,10.5 0,5.799 0,0"
             style="fill:#f1cb15;fill-opacity:1;fill-rule:nonzero;stroke:none"
             id="path342"
             inkscape:connector-curvature="0" /></g><g
           id="g344"
           transform="translate(695.5547,713.2476)"><path
             d="m 0,0 c 0,-5.799 -4.701,-10.5 -10.5,-10.5 -5.799,0 -10.5,4.701 -10.5,10.5 0,5.799 4.701,10.5 10.5,10.5 C -4.701,10.5 0,5.799 0,0"
             style="fill:#f1cb15;fill-opacity:1;fill-rule:nonzero;stroke:none"
             id="path346"
             inkscape:connector-curvature="0" /></g><g
           id="g348"
           transform="translate(594.0801,751)"><path
             d="m 0,0 c 0,-5.799 -4.701,-10.5 -10.5,-10.5 -5.799,0 -10.5,4.701 -10.5,10.5 0,5.799 4.701,10.5 10.5,10.5 C -4.701,10.5 0,5.799 0,0"
             style="fill:#d82534;fill-opacity:1;fill-rule:nonzero;stroke:none"
             id="path350"
             inkscape:connector-curvature="0" /></g><g
           id="g352"
           transform="translate(772.0234,539.9653)"><path
             d="m 0,0 c 0,-5.799 -4.701,-10.5 -10.5,-10.5 -5.799,0 -10.5,4.701 -10.5,10.5 0,5.799 4.701,10.5 10.5,10.5 C -4.701,10.5 0,5.799 0,0"
             style="fill:#d82534;fill-opacity:1;fill-rule:nonzero;stroke:none"
             id="path354"
             inkscape:connector-curvature="0" /></g><g
           id="g356"
           transform="translate(750.1143,264.7695)"><path
             d="m 0,0 c 0,-5.799 -4.701,-10.5 -10.5,-10.5 -5.799,0 -10.5,4.701 -10.5,10.5 0,5.799 4.701,10.5 10.5,10.5 C -4.701,10.5 0,5.799 0,0"
             style="fill:#d82534;fill-opacity:1;fill-rule:nonzero;stroke:none"
             id="path358"
             inkscape:connector-curvature="0" /></g><g
           id="g360"
           transform="translate(359.6431,455.8667)"><path
             d="m 0,0 c 0,-5.799 -4.701,-10.5 -10.5,-10.5 -5.799,0 -10.5,4.701 -10.5,10.5 0,5.799 4.701,10.5 10.5,10.5 C -4.701,10.5 0,5.799 0,0"
             style="fill:#d82534;fill-opacity:1;fill-rule:nonzero;stroke:none"
             id="path362"
             inkscape:connector-curvature="0" /></g><g
           id="g364"
           transform="translate(362.6533,504.5605)"><path
             d="m 0,0 c 0,-3.731 -3.024,-6.755 -6.755,-6.755 -3.731,0 -6.755,3.024 -6.755,6.755 0,3.73 3.024,6.755 6.755,6.755 C -3.024,6.755 0,3.73 0,0"
             style="fill:#018c8b;fill-opacity:1;fill-rule:nonzero;stroke:none"
             id="path366"
             inkscape:connector-curvature="0" /></g><g
           id="g368"
           transform="translate(479.1572,576.6875)"><path
             d="m 0,0 c 0,-3.731 -3.024,-6.755 -6.755,-6.755 -3.73,0 -6.756,3.024 -6.756,6.755 0,3.73 3.026,6.755 6.756,6.755 C -3.024,6.755 0,3.73 0,0"
             style="fill:#018c8b;fill-opacity:1;fill-rule:nonzero;stroke:none"
             id="path370"
             inkscape:connector-curvature="0" /></g><g
           id="g372"
           transform="translate(765.5029,612.9072)"><path
             d="m 0,0 c 0,-3.731 -3.024,-6.755 -6.755,-6.755 -3.73,0 -6.756,3.024 -6.756,6.755 0,3.73 3.026,6.755 6.756,6.755 C -3.024,6.755 0,3.73 0,0"
             style="fill:#018c8b;fill-opacity:1;fill-rule:nonzero;stroke:none"
             id="path374"
             inkscape:connector-curvature="0" /></g><g
           id="g376"
           transform="translate(699.5605,275.2695)"><path
             d="m 0,0 c 0,-3.73 -3.024,-6.756 -6.755,-6.756 -3.73,0 -6.756,3.026 -6.756,6.756 0,3.73 3.026,6.755 6.756,6.755 C -3.024,6.755 0,3.73 0,0"
             style="fill:#018c8b;fill-opacity:1;fill-rule:nonzero;stroke:none"
             id="path378"
             inkscape:connector-curvature="0" /></g><g
           id="g380"
           transform="translate(575.2109,218.2051)"><path
             d="m 0,0 c 0,-3.73 -3.024,-6.756 -6.755,-6.756 -3.73,0 -6.756,3.026 -6.756,6.756 0,3.73 3.026,6.755 6.756,6.755 C -3.024,6.755 0,3.73 0,0"
             style="fill:#018c8b;fill-opacity:1;fill-rule:nonzero;stroke:none"
             id="path382"
             inkscape:connector-curvature="0" /></g><g
           id="g384"
           transform="translate(355.8984,413.0654)"><path
             d="m 0,0 c 0,-3.73 -3.024,-6.756 -6.755,-6.756 -3.73,0 -6.756,3.026 -6.756,6.756 0,3.73 3.026,6.755 6.756,6.755 C -3.024,6.755 0,3.73 0,0"
             style="fill:#018c8b;fill-opacity:1;fill-rule:nonzero;stroke:none"
             id="path386"
             inkscape:connector-curvature="0" /></g><g
           id="g388"
           transform="translate(477.0117,480.5205)"><path
             d="m 0,0 c 0,-1.48 -1.2,-2.68 -2.68,-2.68 -1.48,0 -2.68,1.2 -2.68,2.68 0,1.48 1.2,2.68 2.68,2.68 C -1.2,2.68 0,1.48 0,0"
             style="fill:#f05e22;fill-opacity:1;fill-rule:nonzero;stroke:none"
             id="path390"
             inkscape:connector-curvature="0" /></g><g
           id="g392"
           transform="translate(731.7949,284.7041)"><path
             d="m 0,0 c 0,-1.479 -1.2,-2.68 -2.68,-2.68 -1.48,0 -2.68,1.201 -2.68,2.68 0,1.479 1.2,2.68 2.68,2.68 C -1.2,2.68 0,1.479 0,0"
             style="fill:#f05e22;fill-opacity:1;fill-rule:nonzero;stroke:none"
             id="path394"
             inkscape:connector-curvature="0" /></g><g
           id="g396"
           transform="translate(768.1826,349.666)"><path
             d="m 0,0 c 0,-1.479 -1.2,-2.68 -2.68,-2.68 -1.48,0 -2.68,1.201 -2.68,2.68 0,1.479 1.2,2.68 2.68,2.68 C -1.2,2.68 0,1.479 0,0"
             style="fill:#f05e22;fill-opacity:1;fill-rule:nonzero;stroke:none"
             id="path398"
             inkscape:connector-curvature="0" /></g><g
           id="g400"
           transform="translate(672.2148,298.3145)"><path
             d="m 0,0 c 0,-1.479 -1.2,-2.68 -2.68,-2.68 -1.48,0 -2.68,1.201 -2.68,2.68 0,1.479 1.2,2.68 2.68,2.68 C -1.2,2.68 0,1.479 0,0"
             style="fill:#f05e22;fill-opacity:1;fill-rule:nonzero;stroke:none"
             id="path402"
             inkscape:connector-curvature="0" /></g><g
           id="g404"
           transform="translate(752.7949,376.0342)"><path
             d="m 0,0 c 0,-1.479 -1.2,-2.68 -2.68,-2.68 -1.48,0 -2.68,1.201 -2.68,2.68 0,1.479 1.2,2.68 2.68,2.68 C -1.2,2.68 0,1.479 0,0"
             style="fill:#f05e22;fill-opacity:1;fill-rule:nonzero;stroke:none"
             id="path406"
             inkscape:connector-curvature="0" /></g><g
           id="g408"
           transform="translate(747.8262,592.6689)"><path
             d="m 0,0 c 0,-1.479 -1.2,-2.68 -2.68,-2.68 -1.48,0 -2.68,1.201 -2.68,2.68 0,1.479 1.2,2.68 2.68,2.68 C -1.2,2.68 0,1.479 0,0"
             style="fill:#f05e22;fill-opacity:1;fill-rule:nonzero;stroke:none"
             id="path410"
             inkscape:connector-curvature="0" /></g><g
           id="g412"
           transform="translate(692.8047,692.3711)"><path
             d="m 0,0 c 0,-1.479 -1.2,-2.68 -2.68,-2.68 -1.48,0 -2.68,1.201 -2.68,2.68 0,1.479 1.2,2.68 2.68,2.68 C -1.2,2.68 0,1.479 0,0"
             style="fill:#f05e22;fill-opacity:1;fill-rule:nonzero;stroke:none"
             id="path414"
             inkscape:connector-curvature="0" /></g><g
           id="g416"
           transform="translate(490.1348,565.3662)"><path
             d="m 0,0 c 0,-1.479 -1.2,-2.68 -2.68,-2.68 -1.48,0 -2.68,1.201 -2.68,2.68 0,1.479 1.2,2.68 2.68,2.68 C -1.2,2.68 0,1.479 0,0"
             style="fill:#f05e22;fill-opacity:1;fill-rule:nonzero;stroke:none"
             id="path418"
             inkscape:connector-curvature="0" /></g><g
           id="g420"
           transform="translate(338.562,475.1611)"><path
             d="m 0,0 c 0,-1.479 -1.2,-2.68 -2.68,-2.68 -1.48,0 -2.68,1.201 -2.68,2.68 0,1.479 1.2,2.68 2.68,2.68 C -1.2,2.68 0,1.479 0,0"
             style="fill:#f05e22;fill-opacity:1;fill-rule:nonzero;stroke:none"
             id="path422"
             inkscape:connector-curvature="0" /></g><g
           id="g424"
           transform="translate(328.8027,522.6401)"><path
             d="m 0,0 c 0,-1.479 -1.2,-2.68 -2.68,-2.68 -1.48,0 -2.68,1.201 -2.68,2.68 0,1.479 1.2,2.68 2.68,2.68 C -1.2,2.68 0,1.479 0,0"
             style="fill:#f05e22;fill-opacity:1;fill-rule:nonzero;stroke:none"
             id="path426"
             inkscape:connector-curvature="0" /></g><g
           id="g428"
           transform="translate(351.8232,568.0459)"><path
             d="m 0,0 c 0,-1.479 -1.2,-2.68 -2.68,-2.68 -1.48,0 -2.68,1.201 -2.68,2.68 0,1.479 1.2,2.68 2.68,2.68 C -1.2,2.68 0,1.479 0,0"
             style="fill:#f05e22;fill-opacity:1;fill-rule:nonzero;stroke:none"
             id="path430"
             inkscape:connector-curvature="0" /></g><g
           id="g432"
           transform="translate(436.1797,707.1729)"><path
             d="m 0,0 c 0,-1.479 -1.2,-2.68 -2.68,-2.68 -1.48,0 -2.68,1.201 -2.68,2.68 0,1.479 1.2,2.68 2.68,2.68 C -1.2,2.68 0,1.479 0,0"
             style="fill:#d82534;fill-opacity:1;fill-rule:nonzero;stroke:none"
             id="path434"
             inkscape:connector-curvature="0" /></g><g
           id="g436"
           transform="translate(450.6113,726.4272)"><path
             d="m 0,0 c 0,-1.479 -1.2,-2.68 -2.68,-2.68 -1.48,0 -2.68,1.201 -2.68,2.68 0,1.479 1.2,2.68 2.68,2.68 C -1.2,2.68 0,1.479 0,0"
             style="fill:#f1cb15;fill-opacity:1;fill-rule:nonzero;stroke:none"
             id="path438"
             inkscape:connector-curvature="0" /></g><g
           id="g440"
           transform="translate(318.5991,458.0059)"><path
             d="m 0,0 c 0,-1.643 -1.333,-2.976 -2.976,-2.976 -1.644,0 -2.977,1.333 -2.977,2.976 0,1.644 1.333,2.977 2.977,2.977 C -1.333,2.977 0,1.644 0,0"
             style="fill:#018c8b;fill-opacity:1;fill-rule:nonzero;stroke:none"
             id="path442"
             inkscape:connector-curvature="0" /></g></g></g></g></svg>