<?xml version="1.0" encoding="UTF-8" standalone="no"?>
<svg
   xmlns:dc="http://purl.org/dc/elements/1.1/"
   xmlns:cc="http://creativecommons.org/ns#"
   xmlns:rdf="http://www.w3.org/1999/02/22-rdf-syntax-ns#"
   xmlns:svg="http://www.w3.org/2000/svg"
   xmlns="http://www.w3.org/2000/svg"
   xmlns:sodipodi="http://sodipodi.sourceforge.net/DTD/sodipodi-0.dtd"
   xmlns:inkscape="http://www.inkscape.org/namespaces/inkscape"
   version="1.1"
   id="svg5595"
   viewBox="0 0 800.00003 300"
   height="300"
   width="800"
   inkscape:version="0.91 r"
   sodipodi:docname="ecommerce_background_summer.svg">
  <sodipodi:namedview
     pagecolor="#ffffff"
     bordercolor="#666666"
     borderopacity="1"
     objecttolerance="10"
     gridtolerance="10"
     guidetolerance="10"
     inkscape:pageopacity="0"
     inkscape:pageshadow="2"
     inkscape:window-width="1440"
     inkscape:window-height="863"
     id="namedview395"
     showgrid="false"
     inkscape:zoom="1.0075"
     inkscape:cx="126.69633"
     inkscape:cy="105.24783"
     inkscape:window-x="0"
     inkscape:window-y="180"
     inkscape:window-maximized="1"
     inkscape:current-layer="svg5595" />
  <defs
     id="defs5597">
    <clipPath
       id="clipPath1648"
       clipPathUnits="userSpaceOnUse">
      <path
         id="path1650"
         d="M 0,0 800,0 800,266 0,266 0,0 Z" />
    </clipPath>
  </defs>
  <metadata
     id="metadata5600">
    <rdf:RDF>
      <cc:Work
         rdf:about="">
        <dc:format>image/svg+xml</dc:format>
        <dc:type
           rdf:resource="http://purl.org/dc/dcmitype/StillImage" />
        <dc:title />
      </cc:Work>
    </rdf:RDF>
  </metadata>
  <g
     transform="translate(0,-809.15115)"
     id="layer1">
    <g
       transform="matrix(0.80071429,0,0,0.80071429,62.661228,244.07207)"
       id="g6782">
      <path
         d="m 16.297305,951.96133 -8.7499997,0 0,57.49997 8.7499997,0 0,-57.49997 z"
         style="fill:#b1e8d1;fill-opacity:1;fill-rule:nonzero;stroke:none"
         id="path94"
         inkscape:connector-curvature="0" />
      <g
         id="g96"
         transform="matrix(1.25,0,0,-1.25,55.656425,910.12533)">
        <path
           d="m 0,0 c 0,-19.094 -15.478,-34.574 -34.572,-34.574 -19.095,0 -34.573,15.48 -34.573,34.574 0,19.093 15.478,34.572 34.573,34.572 C -15.478,34.572 0,19.093 0,0"
           style="fill:#b1e8d1;fill-opacity:1;fill-rule:nonzero;stroke:none"
           id="path98"
           inkscape:connector-curvature="0" />
      </g>
      <g
         id="g100"
         transform="matrix(1.25,0,0,-1.25,12.547305,866.92343)">
        <path
           d="M 0,0 0,-69.124 C 19,-68.9 34.156,-53.519 34.156,-34.562 34.156,-15.607 19,-0.224 0,0"
           style="fill:#b1e8d1;fill-opacity:1;fill-rule:nonzero;stroke:none"
           id="path102"
           inkscape:connector-curvature="0" />
      </g>
      <path
         d="m 836.29729,886.96133 -6.25,0 0,122.49997 6.25,0 0,-122.49997 z"
         style="fill:#b1e8d1;fill-opacity:1;fill-rule:nonzero;stroke:none"
         id="path104"
         inkscape:connector-curvature="0" />
      <g
         id="g106"
         transform="matrix(1.25,0,0,-1.25,867.56319,921.75613)">
        <path
           d="m 0,0 c 0,2.847 -1.642,5.283 -3.988,6.379 0.33,0.921 0.53,1.944 0.53,3.042 0,2.975 -1.367,5.488 -3.278,6.465 0.326,1.115 0.514,2.31 0.514,3.56 0,5.919 -3.986,10.717 -8.902,10.717 -2.022,0 -3.882,-0.821 -5.375,-2.188 -1.658,3.738 -5.28,6.337 -9.492,6.337 -4.489,0 -8.307,-2.952 -9.789,-7.088 -3.904,-0.019 -7.063,-4.538 -7.063,-10.112 0,-1.522 0.242,-2.961 0.665,-4.257 -2.161,-1.124 -3.67,-3.566 -3.67,-6.417 0,-1.873 0.66,-3.563 1.717,-4.831 -2.725,-1.336 -4.59,-4.028 -4.59,-7.139 0,-2.904 1.627,-5.439 4.059,-6.851 -1.457,-1.365 -2.33,-3.099 -2.33,-4.988 0,-4.393 4.701,-7.952 10.501,-7.952 1.302,0 2.541,0.187 3.69,0.514 1.586,-3.247 5.305,-5.527 9.641,-5.527 5.006,0 9.182,3.038 10.21,7.093 0.945,-0.22 1.93,-0.352 2.948,-0.352 6.683,0 12.101,5.069 12.101,11.322 0,2.215 -0.69,4.274 -1.865,6.019 C -1.543,-5.109 0,-2.752 0,0"
           style="fill:#b1e8d1;fill-opacity:1;fill-rule:nonzero;stroke:none"
           id="path108"
           inkscape:connector-curvature="0" />
      </g>
      <g
         id="g110"
         transform="matrix(1.25,0,0,-1.25,867.56319,921.75613)">
        <path
           d="m 0,0 c 0,2.847 -1.642,5.283 -3.988,6.379 0.33,0.921 0.53,1.944 0.53,3.042 0,2.975 -1.367,5.488 -3.278,6.465 0.326,1.115 0.514,2.31 0.514,3.56 0,5.919 -3.986,10.717 -8.902,10.717 -2.022,0 -4.343,-0.821 -5.837,-2.188 -1.261,2.842 -4.052,5.019 -7.052,5.901 l 0,-64.206 c 5,0.028 9.578,3.051 10.602,7.087 0.945,-0.22 2.161,-0.352 3.179,-0.352 6.682,0 12.215,5.069 12.215,11.322 0,2.215 -0.632,4.274 -1.806,6.019 C -1.599,-5.109 0,-2.752 0,0"
           style="fill:#b1e8d1;fill-opacity:1;fill-rule:nonzero;stroke:none"
           id="path112"
           inkscape:connector-curvature="0" />
      </g>
      <path
         d="m 243.7973,881.96133 -5,0 0,127.49997 5,0 0,-127.49997 z"
         style="fill:#b1e8d1;fill-opacity:1;fill-rule:nonzero;stroke:none"
         id="path114"
         inkscape:connector-curvature="0" />
      <g
         id="g116"
         transform="matrix(1.25,0,0,-1.25,260.24992,906.19103)">
        <path
           d="m 0,0 c 0,-8.404 -7.26,-15.219 -16.215,-15.219 -8.955,0 -16.213,6.815 -16.213,15.219 0,8.403 7.258,66.922 16.213,66.922 C -7.26,66.922 0,8.403 0,0"
           style="fill:#b1e8d1;fill-opacity:1;fill-rule:nonzero;stroke:none"
           id="path118"
           inkscape:connector-curvature="0" />
      </g>
      <g
         id="g120"
         transform="matrix(1.25,0,0,-1.25,243.85468,925.71133)">
        <path
           d="m 0,0 c 7.473,0 12.642,7.865 12.642,15.275 0,8.405 -6.688,67.263 -16.688,67.263 L -4.046,0 0,0 Z"
           style="fill:#b1e8d1;fill-opacity:1;fill-rule:nonzero;stroke:none"
           id="path122"
           inkscape:connector-curvature="0" />
      </g>
      <g
         id="g124"
         transform="matrix(1.25,0,0,-1.25,240.0473,959.04864)">
        <path
           d="m 0,0 0,2.997 c 10,0 17.46,2.256 21.114,6.707 3.606,4.392 2.906,9.392 2.864,9.602 l 3.057,0.6 C 27.089,19.643 27.899,13.367 23.408,7.85 19.167,2.643 13,0 0,0"
           style="fill:#b1e8d1;fill-opacity:1;fill-rule:nonzero;stroke:none"
           id="path126"
           inkscape:connector-curvature="0" />
      </g>
      <g
         id="g128"
         transform="matrix(1.25,0,0,-1.25,281.61655,931.36443)">
        <path
           d="m 0,0 c 0,-3.901 -3.371,-7.066 -7.529,-7.066 -4.16,0 -7.531,3.165 -7.531,7.066 0,3.903 3.371,31.08 7.531,31.08 C -3.371,31.08 0,3.903 0,0"
           style="fill:#b1e8d1;fill-opacity:1;fill-rule:nonzero;stroke:none"
           id="path130"
           inkscape:connector-curvature="0" />
      </g>
      <g
         id="g132"
         transform="matrix(1.25,0,0,-1.25,274.00242,940.71133)">
        <path
           d="m 0,0 c 3.471,0 5.727,3.767 5.727,7.206 0,3.905 -2.891,31.352 -7.891,31.352 L -2.164,0 0,0 Z"
           style="fill:#b1e8d1;fill-opacity:1;fill-rule:nonzero;stroke:none"
           id="path134"
           inkscape:connector-curvature="0" />
      </g>
      <g
         id="g136"
         transform="matrix(1.25,0,0,-1.25,241.2973,981.52304)">
        <path
           d="m 0,0 c -10,0 -18.35,2.641 -22.59,7.849 -4.493,5.517 -3.062,11.794 -3.007,12.056 l 3.033,-0.605 -1.417,0.304 1.492,-0.298 c -0.042,-0.211 -1.365,-5.21 2.24,-9.604 C -16.594,5.253 -10,2.997 0,2.997 L 0,0 Z"
           style="fill:#b1e8d1;fill-opacity:1;fill-rule:nonzero;stroke:none"
           id="path138"
           inkscape:connector-curvature="0" />
      </g>
      <g
         id="g140"
         transform="matrix(1.25,0,0,-1.25,201.9223,953.83883)">
        <path
           d="m 0,0 c 0,-3.903 3.371,-7.067 7.53,-7.067 4.159,0 7.529,3.164 7.529,7.067 0,3.902 -3.37,31.078 -7.529,31.078 C 3.371,31.078 0,3.902 0,0"
           style="fill:#b1e8d1;fill-opacity:1;fill-rule:nonzero;stroke:none"
           id="path142"
           inkscape:connector-curvature="0" />
      </g>
      <g
         id="g144"
         transform="matrix(1.25,0,0,-1.25,209.53642,963.21134)">
        <path
           d="m 0,0 c -3.471,0 -5.605,3.775 -5.605,7.217 0,3.903 3.014,31.359 8.014,31.359 L 2.409,0 0,0 Z"
           style="fill:#b1e8d1;fill-opacity:1;fill-rule:nonzero;stroke:none"
           id="path146"
           inkscape:connector-curvature="0" />
      </g>
      <g
         id="g148"
         transform="matrix(1.25,0,0,-1.25,214.41805,744.71283)">
        <path
           d="m 0.2479176,-7.3135693 c 0,5.168 -4.189,9.482 -9.357,9.482 -2.1519996,0 -4.1279996,-0.67 -5.7079996,-1.89099996 0.169,0.618 0.267,1.29799996 0.267,1.96999996 0,4.053 -3.287,7.356 -7.342,7.356 -4.054,0 -7.341,-3.279 -7.341,-7.333 0,-0.191 0.014,-0.376 0.029,-0.564 -1.679,1.597 -3.944,2.585 -6.444,2.585 -2.279,0 -4.366,-0.815 -5.989,-2.168 0.002,0.057 0.009,0.112 0.009,0.17 0,4.805 -3.895,8.7010003 -8.7,8.7010003 -0.764,0 -1.501,-0.109 -2.207,-0.293 0.002,0.097 0.015,0.193 0.015,0.292 0,9.61 -7.791,17.401 -17.4,17.401 -7.519,0 -13.904,-4.776 -16.336,-11.453 -0.674,0.112 -1.361,0.184 -2.066,0.184 -6.914,0 -12.518998,-5.605 -12.518998,-12.5190003 0,-1.035 0.14,-2.286 0.377,-3.248 -4.531,-1.35499996 -7.914,-5.471 -8.345,-10.471 l 46.301998,0 c 1.557,-1.9999997 4.376,-4.3049997 7.605,-4.3049997 3.23,0 6.048,2.305 7.605,4.3049997 l 47.4059996,0 c 0.085,1 0.139,1.27 0.139,1.799"
           style="fill:#ffffff;fill-opacity:1;fill-rule:nonzero;stroke:none"
           id="path150"
           inkscape:connector-curvature="0" />
      </g>
      <g
         id="g160"
         transform="matrix(1.25,0,0,-1.25,534.41743,856.86363)">
        <path
           d="m 0,0 c 0,3.406 -2.762,6.196 -6.168,6.196 -1.417,0 -2.72,-0.469 -3.762,-1.272 0.112,0.406 0.176,0.842 0.176,1.284 0,2.672 -2.166,4.842 -4.838,4.842 -2.673,0 -4.84,-2.165 -4.84,-4.837 0,-0.126 0.01,-0.249 0.02,-0.373 -1.108,1.053 -2.6,1.703 -4.247,1.703 -1.502,0 -2.878,-0.538 -3.948,-1.431 0.002,0.038 0.006,0.075 0.006,0.114 0,3.167 -2.567,5.734 -5.735,5.734 -0.503,0 -0.988,-0.071 -1.454,-0.193 10e-4,0.064 0.01,0.128 0.01,0.192 0,6.335 -5.136,11.47 -11.469,11.47 -4.955,0 -9.164,-3.149 -10.768,-7.549 -0.444,0.074 -0.896,0.121 -1.361,0.121 -4.558,0 -8.251,-3.694 -8.251,-8.252 0,-0.682 0.091,-1.399 0.247,-2.033 -2.986,-0.893 -5.216,-3.794 -5.499,-6.794 l 30.519,0 c 1.025,-2 2.883,-2.837 5.011,-2.837 2.129,0 3.987,0.837 5.013,2.837 l 31.246,0 C -0.035,-1.078 0,-0.349 0,0"
           style="fill:#ffffff;fill-opacity:1;fill-rule:nonzero;stroke:none"
           id="path162"
           inkscape:connector-curvature="0" />
      </g>
      <g
         id="g164"
         transform="matrix(1.25,0,0,-1.25,684.41742,746.86363)">
        <path
           d="m 0,0 c 0,3.406 -2.762,6.196 -6.168,6.196 -1.417,0 -2.72,-0.469 -3.762,-1.272 0.112,0.406 0.176,0.842 0.176,1.284 0,2.672 -2.166,4.842 -4.838,4.842 -2.673,0 -4.84,-2.165 -4.84,-4.837 0,-0.126 0.01,-0.249 0.02,-0.373 -1.108,1.053 -2.6,1.703 -4.247,1.703 -1.502,0 -2.878,-0.538 -3.948,-1.431 0.002,0.038 0.006,0.075 0.006,0.114 0,3.167 -2.567,5.734 -5.735,5.734 -0.503,0 -0.988,-0.071 -1.454,-0.193 10e-4,0.064 0.01,0.128 0.01,0.192 0,6.335 -5.136,11.47 -11.469,11.47 -4.955,0 -9.164,-3.149 -10.768,-7.549 -0.444,0.074 -0.896,0.121 -1.361,0.121 -4.558,0 -8.251,-3.694 -8.251,-8.252 0,-0.682 0.091,-1.399 0.247,-2.033 -2.986,-0.893 -5.216,-3.794 -5.499,-6.794 l 30.519,0 c 1.025,-2 2.883,-2.837 5.011,-2.837 2.129,0 3.987,0.837 5.013,2.837 l 31.246,0 C -0.035,-1.078 0,-0.349 0,0"
           style="fill:#ffffff;fill-opacity:1;fill-rule:nonzero;stroke:none"
           id="path166"
           inkscape:connector-curvature="0" />
      </g>
      <g
         id="g168"
         transform="matrix(1.25,0,0,-1.25,894.41739,811.86363)">
        <path
           d="m 0,0 c 0,3.406 -2.762,6.196 -6.168,6.196 -1.417,0 -2.72,-0.469 -3.762,-1.272 0.112,0.406 0.176,0.842 0.176,1.284 0,2.672 -2.166,4.842 -4.838,4.842 -2.673,0 -4.84,-2.165 -4.84,-4.837 0,-0.126 0.01,-0.249 0.02,-0.373 -1.108,1.053 -2.6,1.703 -4.247,1.703 -1.502,0 -2.878,-0.538 -3.948,-1.431 0.002,0.038 0.006,0.075 0.006,0.114 0,3.167 -2.567,5.734 -5.735,5.734 -0.503,0 -0.988,-0.071 -1.454,-0.193 10e-4,0.064 0.01,0.128 0.01,0.192 0,6.335 -5.136,11.47 -11.469,11.47 -4.955,0 -9.164,-3.149 -10.768,-7.549 -0.444,0.074 -0.896,0.121 -1.361,0.121 -4.558,0 -8.251,-3.694 -8.251,-8.252 0,-0.682 0.091,-1.399 0.247,-2.033 -2.986,-0.893 -5.216,-3.794 -5.499,-6.794 l 30.519,0 c 1.025,-2 2.883,-2.837 5.011,-2.837 2.129,0 3.987,0.837 5.013,2.837 l 31.246,0 C -0.035,-1.078 0,-0.349 0,0"
           style="fill:#ffffff;fill-opacity:1;fill-rule:nonzero;stroke:none"
           id="path170"
           inkscape:connector-curvature="0" />
      </g>
      <g
         id="g172"
         transform="matrix(1.25,0,0,-1.25,335.06805,809.27583)">
        <path
           d="m 0,0 c -0.979,0 -1.914,-0.182 -2.783,-0.499 -0.854,2.196 -2.983,3.756 -5.481,3.756 -2.601,0 -4.803,-1.689 -5.581,-4.028 -1.707,1 -3.688,1.584 -5.81,1.584 -2.412,0 -4.65,-0.745 -6.5,-2.012 0.051,0.33 0.085,0.667 0.085,1.011 0,3.699 -2.998,6.697 -6.697,6.697 -1.97,0 -3.736,-0.857 -4.961,-2.211 -2.117,3.428 -5.897,5.72 -10.221,5.72 -6.638,0 -12.019,-5.381 -12.019,-12.019 0,-0.025 0.004,-0.049 0.004,-0.074 -0.958,0.675 -2.123,1.075 -3.384,1.075 -3.25,0 -5.884,-2.885 -5.884,-6.134 0,-0.615 0.095,-1.014 0.27,-2.014 l 14.916,0 c 0.607,-3 3.48,-5.772 6.939,-5.772 3.459,0 6.332,2.772 6.939,5.772 l 2.214,0 6.975,0 22.647,0 c -0.008,1 -0.012,0.345 -0.021,0.392 0.03,-10e-4 0.059,0.12 0.089,0.12 0.049,0 0.097,-0.181 0.145,-0.18 0.003,-0.049 0.011,0.668 0.014,-0.332 l 16.216,0 c 0.011,1 0.026,0.588 0.026,0.761 C 8.137,-3.894 4.494,0 0,0"
           style="fill:#ffffff;fill-opacity:1;fill-rule:nonzero;stroke:none"
           id="path174"
           inkscape:connector-curvature="0" />
      </g>
      <g
         id="g188"
         transform="matrix(1.25,0,0,-1.25,48.977925,782.09063)">
        <path
           d="m 0,0 c 0,5.253 -6.193,9.639 -13.895,9.756 10e-4,0.06 0.009,0.181 0.009,0.241 0,6.665 -5.599,12.099 -12.508,12.099 -5.466,0 -10.102,-3.374 -11.803,-8.088 -1.593,1.91 -4.077,3.152 -6.876,3.152 -4.809,0 -8.706,-3.623 -8.706,-8.097 0,-0.182 0.016,-0.358 0.029,-0.538 -0.937,0.243 -1.927,0.375 -2.954,0.375 -5.691,0 -10.304,-4.217 -10.304,-9.117 0,-1.616 0.511,-2.703 1.388,-4.679 l 11.978,0 c 0.454,-2.872 2.933,-5.069 5.932,-5.069 2.999,0 5.477,2.197 5.932,5.069 l 40.014,0 C -0.642,-2.92 0,-1.687 0,0"
           style="fill:#ffffff;fill-opacity:1;fill-rule:nonzero;stroke:none"
           id="path190"
           inkscape:connector-curvature="0" />
      </g>
      <g
         id="g196"
         transform="matrix(1.25,0,0,-1.25,421.47792,779.59063)">
        <path
           d="m 0,0 c 0,5.253 -6.193,9.639 -13.895,9.756 10e-4,0.06 0.009,0.181 0.009,0.241 0,6.665 -5.599,12.099 -12.508,12.099 -5.466,0 -10.102,-3.374 -11.803,-8.088 -1.593,1.91 -4.077,3.152 -6.876,3.152 -4.809,0 -8.706,-3.623 -8.706,-8.097 0,-0.182 0.016,-0.358 0.029,-0.538 -0.937,0.243 -1.927,0.375 -2.954,0.375 -5.691,0 -10.304,-4.217 -10.304,-9.117 0,-1.616 0.511,-2.703 1.388,-4.679 l 11.978,0 c 0.454,-2.872 2.933,-5.069 5.932,-5.069 2.999,0 5.477,2.197 5.932,5.069 l 40.014,0 C -0.642,-2.92 0,-1.687 0,0"
           style="fill:#ffffff;fill-opacity:1;fill-rule:nonzero;stroke:none"
           id="path198"
           inkscape:connector-curvature="0" />
      </g>
      <path
         d="m 105.0473,931.96133 -8.749999,0 0,77.49997 8.749999,0 0,-77.49997 z"
         style="fill:#c39467;fill-opacity:1;fill-rule:nonzero;stroke:none"
         id="path200"
         inkscape:connector-curvature="0" />
      <g
         id="g202"
         transform="matrix(1.25,0,0,-1.25,147.4808,874.91053)">
        <path
           d="m 0,0 c 0,-40.716 -15.964,-73.724 -35.657,-73.724 -19.693,0 -35.657,33.008 -35.657,73.724 0,40.715 15.964,73.723 35.657,73.723 C -15.964,73.723 0,40.715 0,0"
           style="fill:#80ad12;fill-opacity:1;fill-rule:nonzero;stroke:none"
           id="path204"
           inkscape:connector-curvature="0" />
      </g>
      <g
         id="g206"
         transform="matrix(1.25,0,0,-1.25,102.43618,782.75713)">
        <path
           d="m 0,0 c -0.18,0 1.089,-0.022 -0.911,-0.027 l 0,-147.391 c 2,-0.006 0.731,-0.028 0.911,-0.028 19.692,0 35.656,33.008 35.656,73.723 C 35.656,-33.008 19.692,0 0,0"
           style="fill:#91c60e;fill-opacity:1;fill-rule:nonzero;stroke:none"
           id="path208"
           inkscape:connector-curvature="0" />
      </g>
      <path
         d="m 453.7973,963.21134 -5,0 0,46.24996 5,0 0,-46.24996 z"
         style="fill:#b1e8d1;fill-opacity:1;fill-rule:nonzero;stroke:none"
         id="path210"
         inkscape:connector-curvature="0" />
      <g
         id="g212"
         transform="matrix(1.25,0,0,-1.25,478.73142,928.41883)">
        <path
           d="m 0,0 c 0,-24.523 -9.616,-44.404 -21.478,-44.404 -11.861,0 -21.476,19.881 -21.476,44.404 0,24.523 9.615,44.406 21.476,44.406 C -9.616,44.406 0,24.523 0,0"
           style="fill:#b1e8d1;fill-opacity:1;fill-rule:nonzero;stroke:none"
           id="path214"
           inkscape:connector-curvature="0" />
      </g>
      <g
         id="g216"
         transform="matrix(1.25,0,0,-1.25,451.79042,872.91103)">
        <path
           d="m 0,0 c -0.107,0 0.605,-0.014 -0.395,-0.018 l 0,-88.776 c 1,-0.003 0.288,-0.017 0.395,-0.017 11.861,0 21.479,19.881 21.479,44.405 C 21.479,-19.883 11.861,0 0,0"
           style="fill:#b1e8d1;fill-opacity:1;fill-rule:nonzero;stroke:none"
           id="path218"
           inkscape:connector-curvature="0" />
      </g>
      <g
         id="g220"
         transform="matrix(1.25,0,0,-1.25,517.0993,949.62983)">
        <path
           d="m 0,0 -2.568,2.029 -10.074,-12.401 0,12.507 -4,0 0,-12.507 -9.523,12.401 -2.761,-2.029 12.284,-15.513 0,-32.352 4,0 0,32.352 L 0,0 Z"
           style="fill:#c39467;fill-opacity:1;fill-rule:nonzero;stroke:none"
           id="path222"
           inkscape:connector-curvature="0" />
      </g>
      <g
         id="g224"
         transform="matrix(1.25,0,0,-1.25,520.0168,917.03093)">
        <path
           d="m 0,0 c -1.141,0 -2.255,-0.121 -3.33,-0.345 -2.839,4.717 -7.993,7.883 -13.899,7.883 -6.489,0 -12.072,-3.815 -14.67,-9.317 -1.492,0.454 -3.075,0.702 -4.715,0.702 -8.964,0 -16.232,-7.268 -16.232,-16.232 0,-8.963 7.268,-16.23 16.232,-16.23 6.487,0 12.07,3.815 14.668,9.315 1.493,-0.453 3.074,-0.7 4.717,-0.7 1.14,0 2.253,0.119 3.329,0.344 2.838,-4.717 7.993,-7.883 13.9,-7.883 8.963,0 16.23,7.267 16.23,16.232 C 16.23,-7.267 8.963,0 0,0"
           style="fill:#80ad12;fill-opacity:1;fill-rule:nonzero;stroke:none"
           id="path226"
           inkscape:connector-curvature="0" />
      </g>
      <g
         id="g228"
         transform="matrix(1.25,0,0,-1.25,520.0168,917.03093)">
        <path
           d="m 0,0 c -1.141,0 -2.287,-0.121 -3.363,-0.345 -2.787,4.63 -7.613,7.759 -13.613,7.872 l 0,-32.434 c 1,0.02 2.07,0.125 3.042,0.327 2.839,-4.717 8.01,-7.883 13.917,-7.883 8.963,0 16.239,7.267 16.239,16.232 C 16.222,-7.267 8.963,0 0,0"
           style="fill:#91c60e;fill-opacity:1;fill-rule:nonzero;stroke:none"
           id="path230"
           inkscape:connector-curvature="0" />
      </g>
      <g
         id="g232"
         transform="matrix(1.25,0,0,-1.25,884.59929,949.62983)">
        <path
           d="m 0,0 -2.568,2.029 -10.074,-12.401 0,12.507 -4,0 0,-12.507 -9.523,12.401 -2.761,-2.029 12.284,-15.513 0,-32.352 4,0 0,32.352 L 0,0 Z"
           style="fill:#c39467;fill-opacity:1;fill-rule:nonzero;stroke:none"
           id="path234"
           inkscape:connector-curvature="0" />
      </g>
      <g
         id="g236"
         transform="matrix(1.25,0,0,-1.25,887.51679,917.03093)">
        <path
           d="m 0,0 c -1.141,0 -2.255,-0.121 -3.33,-0.345 -2.839,4.717 -7.993,7.883 -13.899,7.883 -6.489,0 -12.072,-3.815 -14.67,-9.317 -1.492,0.454 -3.075,0.702 -4.715,0.702 -8.964,0 -16.232,-7.268 -16.232,-16.232 0,-8.963 7.268,-16.23 16.232,-16.23 6.487,0 12.07,3.815 14.668,9.315 1.493,-0.453 3.074,-0.7 4.717,-0.7 1.14,0 2.253,0.119 3.329,0.344 2.838,-4.717 7.993,-7.883 13.9,-7.883 8.963,0 16.23,7.267 16.23,16.232 C 16.23,-7.267 8.963,0 0,0"
           style="fill:#80ad12;fill-opacity:1;fill-rule:nonzero;stroke:none"
           id="path238"
           inkscape:connector-curvature="0" />
      </g>
      <g
         id="g240"
         transform="matrix(1.25,0,0,-1.25,887.51679,917.03093)">
        <path
           d="m 0,0 c -1.141,0 -2.287,-0.121 -3.363,-0.345 -2.787,4.63 -7.613,7.759 -13.613,7.872 l 0,-32.434 c 1,0.02 2.07,0.125 3.042,0.327 2.839,-4.717 8.01,-7.883 13.917,-7.883 8.963,0 16.239,7.267 16.239,16.232 C 16.222,-7.267 8.963,0 0,0"
           style="fill:#91c60e;fill-opacity:1;fill-rule:nonzero;stroke:none"
           id="path242"
           inkscape:connector-curvature="0" />
      </g>
      <path
         d="m -38.702695,954.46133 -3.75,0 0,54.99997 3.75,0 0,-54.99997 z"
         style="fill:#c39467;fill-opacity:1;fill-rule:nonzero;stroke:none"
         id="path256"
         inkscape:connector-curvature="0" />
      <g
         id="g258"
         transform="matrix(1.25,0,0,-1.25,-17.721194,964.19884)">
        <path
           d="m 0,0 -11.04,-0.399 -7.167,-8.405 -7.196,8.381 -11.041,0.364 2.067,10.852 -6.6,8.859 9.774,5.149 2.812,10.683 10.118,-4.428 10.106,4.463 L -5.32,24.844 4.47,19.727 -2.102,10.847 0,0 Z"
           style="fill:#668408;fill-opacity:1;fill-rule:nonzero;stroke:none"
           id="path260"
           inkscape:connector-curvature="0" />
      </g>
      <g
         id="g262"
         transform="matrix(1.25,0,0,-1.25,-24.371694,933.14413)">
        <path
           d="m 0,0 -2.847,10.675 -10.202,-4.463 -0.416,0.139 0,-39.551 0.482,-0.447 7.215,8.404 11.065,0.399 -2.09,10.847 6.577,8.88 L 0,0 Z"
           style="fill:#85ad07;fill-opacity:1;fill-rule:nonzero;stroke:none"
           id="path264"
           inkscape:connector-curvature="0" />
      </g>
      <g
         id="g266"
         transform="matrix(1.25,0,0,-1.25,279.90568,957.65214)">
        <path
           d="m 0,0 -2.458,1.885 -12.429,-9.516 0,13.184 -3,0 0,-13.184 L -28.94,2.885 -31.398,1 l 13.511,-12.404 0,-30.043 3,0 0,30.043 L 0,0 Z"
           style="fill:#c39467;fill-opacity:1;fill-rule:nonzero;stroke:none"
           id="path268"
           inkscape:connector-curvature="0" />
      </g>
      <g
         id="g270"
         transform="matrix(1.25,0,0,-1.25,281.14042,930.21333)">
        <path
           d="m 0,0 c 0,-9.367 -7.594,-16.962 -16.962,-16.962 -9.369,0 -16.963,7.595 -16.963,16.962 0,9.368 7.594,16.963 16.963,16.963 C -7.594,16.963 0,9.368 0,0"
           style="fill:#80ad12;fill-opacity:1;fill-rule:nonzero;stroke:none"
           id="path272"
           inkscape:connector-curvature="0" />
      </g>
      <g
         id="g274"
         transform="matrix(1.25,0,0,-1.25,296.45292,953.96333)">
        <path
           d="m 0,0 c 0,-5.087 -4.125,-9.212 -9.212,-9.212 -5.088,0 -9.213,4.125 -9.213,9.212 0,5.088 4.125,9.213 9.213,9.213 C -4.125,9.213 0,5.088 0,0"
           style="fill:#91c60e;fill-opacity:1;fill-rule:nonzero;stroke:none"
           id="path276"
           inkscape:connector-curvature="0" />
      </g>
      <g
         id="g278"
         transform="matrix(1.25,0,0,-1.25,251.45292,956.54143)">
        <path
           d="m 0,0 c 0,-4.017 -3.257,-7.274 -7.275,-7.274 -4.018,0 -7.275,3.257 -7.275,7.274 0,4.018 3.257,7.275 7.275,7.275 C -3.257,7.275 0,4.018 0,0"
           style="fill:#80ad12;fill-opacity:1;fill-rule:nonzero;stroke:none"
           id="path280"
           inkscape:connector-curvature="0" />
      </g>
      <g
         id="g282"
         transform="matrix(1.25,0,0,-1.25,260.0473,909.01583)">
        <path
           d="m 0,0 0,-33.915 c 9.327,0.048 16.875,7.619 16.875,16.957 C 16.875,-7.619 9.327,-0.048 0,0"
           style="fill:#91c60e;fill-opacity:1;fill-rule:nonzero;stroke:none"
           id="path284"
           inkscape:connector-curvature="0" />
      </g>
      <g
         id="g286"
         transform="matrix(1.25,0,0,-1.25,478.75218,1003.2113)">
        <path
           d="m 0,0 c 1.147,1 1.804,3.287 1.804,5.013 0,5.369 -6.33,9.858 -14.204,9.977 0,0.063 0.01,0.187 0.01,0.249 0,6.814 -5.721,12.369 -12.783,12.369 -5.589,0 -10.326,-3.449 -12.063,-8.266 -1.629,1.95 -4.169,3.221 -7.031,3.221 -4.915,0 -8.899,-3.702 -8.899,-8.275 0,-0.186 0.018,-0.366 0.032,-0.553 -0.957,0.249 -1.969,0.39 -3.019,0.39 -5.818,0 -10.533,-4.327 -10.533,-9.333 C -66.686,3.14 -66.164,1 -65.267,0 L 0,0 Z"
           style="fill:#74960b;fill-opacity:1;fill-rule:nonzero;stroke:none"
           id="path288"
           inkscape:connector-curvature="0" />
      </g>
      <g
         id="g290"
         transform="matrix(1.25,0,0,-1.25,467.04317,1005.7113)">
        <path
           d="m 0,0 c 0.814,1.012 1.281,2.304 1.281,3.53 0,3.821 -4.502,6.992 -10.101,7.078 0.002,0.046 0.008,0.126 0.008,0.17 0,4.843 -4.07,8.79 -9.092,8.79 -3.975,0 -7.344,-2.453 -8.579,-5.88 -1.161,1.387 -2.966,2.289 -5.001,2.289 -3.496,0 -6.33,-2.634 -6.33,-5.886 0,-0.13 0.014,-0.259 0.021,-0.391 -0.68,0.175 -1.399,0.273 -2.146,0.273 -4.138,0 -7.49,-3.037 -7.49,-6.6 0,-1.174 0.37,-2.361 1.008,-3.373 L 0,0 Z"
           style="fill:#91c60e;fill-opacity:1;fill-rule:nonzero;stroke:none"
           id="path292"
           inkscape:connector-curvature="0" />
      </g>
      <g
         id="g294"
         transform="matrix(1.25,0,0,-1.25,-11.473695,994.50894)">
        <path
           d="M 0,0 C 0,0 8.429,4.368 15.676,-4.78 15.676,-4.78 5.345,-6.425 0,0"
           style="fill:#80ad12;fill-opacity:1;fill-rule:nonzero;stroke:none"
           id="path296"
           inkscape:connector-curvature="0" />
      </g>
      <g
         id="g298"
         transform="matrix(1.25,0,0,-1.25,0.42205528,981.49994)">
        <path
           d="M 0,0 C 0,0 -3.6,-8.785 6.16,-15.188 6.16,-15.188 6.876,-4.75 0,0"
           style="fill:#80ad12;fill-opacity:1;fill-rule:nonzero;stroke:none"
           id="path300"
           inkscape:connector-curvature="0" />
      </g>
      <g
         id="g302"
         transform="matrix(1.25,0,0,-1.25,21.225935,987.92934)">
        <path
           d="m 0,0 c 0,0 -1.297,-9.404 -12.951,-10.044 0,0 4.619,9.387 12.951,10.044"
           style="fill:#80ad12;fill-opacity:1;fill-rule:nonzero;stroke:none"
           id="path304"
           inkscape:connector-curvature="0" />
      </g>
      <g
         id="g306"
         transform="matrix(1.25,0,0,-1.25,27.239675,994.55764)">
        <path
           d="m 0,0 c 0,0 -9.262,5.245 -17.762,-4.702 0,0 11.506,-2.274 17.762,4.702"
           style="fill:#80ad12;fill-opacity:1;fill-rule:nonzero;stroke:none"
           id="path308"
           inkscape:connector-curvature="0" />
      </g>
      <g
         id="g310"
         transform="matrix(1.25,0,0,-1.25,8.8601853,997.80734)">
        <path
           d="m 0,0 c 0.025,0.108 2.633,10.968 12.316,18.499 l -1.008,1.298 C 5.169,15.023 1.776,9.1 0.026,5.053 -0.093,11.861 -0.805,23.869 -4.198,28.755 L -5.549,27.816 C -1.095,21.403 -1.617,0.418 -1.624,0.207 L 0,0 Z"
           style="fill:#80ad12;fill-opacity:1;fill-rule:nonzero;stroke:none"
           id="path312"
           inkscape:connector-curvature="0" />
      </g>
      <g
         id="g314"
         transform="matrix(1.25,0,0,-1.25,2.7670553,955.07893)">
        <path
           d="m 0,0 -1.309,4.081 0.016,-4.286 -2.506,3.477 1.34,-4.071 -3.458,2.532 2.533,-3.458 -4.072,1.34 3.477,-2.506 -4.287,0.016 4.082,-1.309 -4.082,-1.309 4.287,0.016 -3.477,-2.506 4.072,1.34 -2.533,-3.459 3.458,2.533 -1.34,-4.072 2.506,3.478 -0.016,-4.286 L 0,-8.368 1.309,-12.449 1.293,-8.163 3.799,-11.641 2.46,-7.569 5.918,-10.102 3.386,-6.643 7.457,-7.983 3.98,-5.477 8.265,-5.493 4.184,-4.184 8.265,-2.875 3.98,-2.891 7.457,-0.385 3.386,-1.725 5.918,1.733 2.46,-0.799 3.799,3.272 1.293,-0.205 1.309,4.081 0,0 Z"
           style="fill:#fff200;fill-opacity:1;fill-rule:nonzero;stroke:none"
           id="path316"
           inkscape:connector-curvature="0" />
      </g>
      <g
         id="g318"
         transform="matrix(1.25,0,0,-1.25,-1.7995647,960.16934)">
        <path
           d="m 0,0 c 0,-2.019 1.636,-3.654 3.653,-3.654 2.018,0 3.654,1.635 3.654,3.654 0,2.018 -1.636,3.654 -3.654,3.654 C 1.636,3.654 0,2.018 0,0"
           style="fill:#ed1c24;fill-opacity:1;fill-rule:nonzero;stroke:none"
           id="path320"
           inkscape:connector-curvature="0" />
      </g>
      <g
         id="g322"
         transform="matrix(1.25,0,0,-1.25,25.381805,966.38634)">
        <path
           d="m 0,0 -1.309,4.081 0.016,-4.286 -2.506,3.477 1.34,-4.071 -3.458,2.532 2.533,-3.458 -4.072,1.34 3.477,-2.506 -4.287,0.016 4.082,-1.309 -4.082,-1.309 4.287,0.016 -3.477,-2.506 4.072,1.34 -2.533,-3.458 3.458,2.532 -1.34,-4.072 2.506,3.478 -0.016,-4.286 1.309,4.081 1.309,-4.081 -0.016,4.286 2.506,-3.478 -1.34,4.072 3.459,-2.532 -2.532,3.458 4.071,-1.34 L 3.98,-5.477 8.265,-5.493 4.184,-4.184 8.265,-2.875 3.98,-2.891 7.457,-0.385 3.386,-1.725 5.918,1.733 2.459,-0.799 3.799,3.272 1.293,-0.205 1.309,4.081 0,0 Z"
           style="fill:#fff200;fill-opacity:1;fill-rule:nonzero;stroke:none"
           id="path324"
           inkscape:connector-curvature="0" />
      </g>
      <g
         id="g326"
         transform="matrix(1.25,0,0,-1.25,20.815185,971.47664)">
        <path
           d="m 0,0 c 0,-2.019 1.636,-3.654 3.653,-3.654 2.018,0 3.654,1.635 3.654,3.654 0,2.019 -1.636,3.654 -3.654,3.654 C 1.636,3.654 0,2.019 0,0"
           style="fill:#ed1c24;fill-opacity:1;fill-rule:nonzero;stroke:none"
           id="path328"
           inkscape:connector-curvature="0" />
      </g>
      <g
         id="g402"
         transform="matrix(1.25,0,0,-1.25,673.5263,993.25894)">
        <path
           d="M 0,0 C 0,0 8.43,4.368 15.676,-4.78 15.676,-4.78 5.346,-6.425 0,0"
           style="fill:#80ad12;fill-opacity:1;fill-rule:nonzero;stroke:none"
           id="path404"
           inkscape:connector-curvature="0" />
      </g>
      <g
         id="g406"
         transform="matrix(1.25,0,0,-1.25,685.42205,980.24994)">
        <path
           d="M 0,0 C 0,0 -3.6,-8.785 6.159,-15.188 6.159,-15.188 6.876,-4.75 0,0"
           style="fill:#80ad12;fill-opacity:1;fill-rule:nonzero;stroke:none"
           id="path408"
           inkscape:connector-curvature="0" />
      </g>
      <g
         id="g410"
         transform="matrix(1.25,0,0,-1.25,706.22655,986.67934)">
        <path
           d="m 0,0 c 0,0 -1.298,-9.404 -12.951,-10.044 0,0 4.619,9.387 12.951,10.044"
           style="fill:#80ad12;fill-opacity:1;fill-rule:nonzero;stroke:none"
           id="path412"
           inkscape:connector-curvature="0" />
      </g>
      <g
         id="g414"
         transform="matrix(1.25,0,0,-1.25,712.23968,993.30764)">
        <path
           d="m 0,0 c 0,0 -9.262,5.245 -17.762,-4.702 0,0 11.506,-2.274 17.762,4.702"
           style="fill:#80ad12;fill-opacity:1;fill-rule:nonzero;stroke:none"
           id="path416"
           inkscape:connector-curvature="0" />
      </g>
      <g
         id="g418"
         transform="matrix(1.25,0,0,-1.25,693.8608,996.55734)">
        <path
           d="m 0,0 c 0.024,0.108 2.633,10.968 12.315,18.499 l -1.008,1.298 C 5.169,15.023 1.775,9.1 0.025,5.053 -0.094,11.861 -0.805,23.869 -4.199,28.755 L -5.55,27.816 C -1.096,21.403 -1.617,0.418 -1.624,0.207 L 0,0 Z"
           style="fill:#80ad12;fill-opacity:1;fill-rule:nonzero;stroke:none"
           id="path420"
           inkscape:connector-curvature="0" />
      </g>
      <g
         id="g422"
         transform="matrix(1.25,0,0,-1.25,687.76705,953.82893)">
        <path
           d="m 0,0 -1.309,4.081 0.016,-4.286 -2.506,3.477 1.34,-4.071 -3.458,2.532 2.532,-3.458 -4.071,1.34 3.477,-2.506 -4.287,0.016 4.082,-1.309 -4.082,-1.309 4.287,0.016 -3.477,-2.506 4.071,1.34 -2.532,-3.459 3.458,2.533 -1.34,-4.072 2.506,3.478 -0.016,-4.286 L 0,-8.368 1.309,-12.449 1.293,-8.163 3.799,-11.641 2.46,-7.569 5.918,-10.102 3.386,-6.643 7.457,-7.983 3.98,-5.477 8.266,-5.493 4.184,-4.184 8.266,-2.875 3.98,-2.891 7.457,-0.385 3.386,-1.725 5.918,1.733 2.46,-0.799 3.799,3.272 1.293,-0.205 1.309,4.081 0,0 Z"
           style="fill:#fff200;fill-opacity:1;fill-rule:nonzero;stroke:none"
           id="path424"
           inkscape:connector-curvature="0" />
      </g>
      <g
         id="g426"
         transform="matrix(1.25,0,0,-1.25,683.20043,958.91934)">
        <path
           d="m 0,0 c 0,-2.019 1.636,-3.654 3.653,-3.654 2.018,0 3.655,1.635 3.655,3.654 0,2.018 -1.637,3.654 -3.655,3.654 C 1.636,3.654 0,2.018 0,0"
           style="fill:#ed1c24;fill-opacity:1;fill-rule:nonzero;stroke:none"
           id="path428"
           inkscape:connector-curvature="0" />
      </g>
      <g
         id="g430"
         transform="matrix(1.25,0,0,-1.25,710.3818,965.13634)">
        <path
           d="m 0,0 -1.309,4.081 0.016,-4.286 -2.506,3.477 1.34,-4.071 -3.458,2.532 2.532,-3.458 -4.071,1.34 3.477,-2.506 -4.287,0.016 4.082,-1.309 -4.082,-1.309 4.287,0.016 -3.477,-2.506 4.071,1.34 -2.532,-3.458 3.458,2.532 -1.34,-4.072 2.506,3.478 -0.016,-4.286 1.309,4.081 1.309,-4.081 -0.016,4.286 2.506,-3.478 -1.34,4.072 3.459,-2.532 -2.532,3.458 4.071,-1.34 L 3.98,-5.477 8.266,-5.493 4.184,-4.184 8.266,-2.875 3.98,-2.891 7.457,-0.385 3.386,-1.725 5.918,1.733 2.459,-0.799 3.799,3.272 1.293,-0.205 1.309,4.081 0,0 Z"
           style="fill:#fff200;fill-opacity:1;fill-rule:nonzero;stroke:none"
           id="path432"
           inkscape:connector-curvature="0" />
      </g>
      <g
         id="g434"
         transform="matrix(1.25,0,0,-1.25,705.81517,970.22664)">
        <path
           d="m 0,0 c 0,-2.019 1.636,-3.654 3.653,-3.654 2.018,0 3.655,1.635 3.655,3.654 0,2.019 -1.637,3.654 -3.655,3.654 C 1.636,3.654 0,2.019 0,0"
           style="fill:#ed1c24;fill-opacity:1;fill-rule:nonzero;stroke:none"
           id="path436"
           inkscape:connector-curvature="0" />
      </g>
      <g
         id="g438"
         transform="matrix(1.25,0,0,-1.25,347.2763,993.25894)">
        <path
           d="M 0,0 C 0,0 8.429,4.368 15.676,-4.78 15.676,-4.78 5.345,-6.425 0,0"
           style="fill:#80ad12;fill-opacity:1;fill-rule:nonzero;stroke:none"
           id="path440"
           inkscape:connector-curvature="0" />
      </g>
      <g
         id="g442"
         transform="matrix(1.25,0,0,-1.25,359.17205,980.24994)">
        <path
           d="M 0,0 C 0,0 -3.6,-8.785 6.16,-15.188 6.16,-15.188 6.876,-4.75 0,0"
           style="fill:#80ad12;fill-opacity:1;fill-rule:nonzero;stroke:none"
           id="path444"
           inkscape:connector-curvature="0" />
      </g>
      <g
         id="g446"
         transform="matrix(1.25,0,0,-1.25,379.97592,986.67934)">
        <path
           d="m 0,0 c 0,0 -1.297,-9.404 -12.951,-10.044 0,0 4.619,9.387 12.951,10.044"
           style="fill:#80ad12;fill-opacity:1;fill-rule:nonzero;stroke:none"
           id="path448"
           inkscape:connector-curvature="0" />
      </g>
      <g
         id="g450"
         transform="matrix(1.25,0,0,-1.25,385.98967,993.30764)">
        <path
           d="m 0,0 c 0,0 -9.262,5.245 -17.762,-4.702 0,0 11.506,-2.274 17.762,4.702"
           style="fill:#80ad12;fill-opacity:1;fill-rule:nonzero;stroke:none"
           id="path452"
           inkscape:connector-curvature="0" />
      </g>
      <g
         id="g454"
         transform="matrix(1.25,0,0,-1.25,367.61017,996.55734)">
        <path
           d="m 0,0 c 0.025,0.108 2.633,10.968 12.316,18.499 l -1.008,1.298 C 5.169,15.023 1.776,9.1 0.026,5.053 -0.093,11.861 -0.805,23.869 -4.198,28.755 L -5.549,27.816 C -1.095,21.403 -1.617,0.418 -1.624,0.207 L 0,0 Z"
           style="fill:#80ad12;fill-opacity:1;fill-rule:nonzero;stroke:none"
           id="path456"
           inkscape:connector-curvature="0" />
      </g>
      <g
         id="g458"
         transform="matrix(1.25,0,0,-1.25,361.51705,953.82893)">
        <path
           d="m 0,0 -1.309,4.081 0.016,-4.286 -2.506,3.477 1.34,-4.071 -3.458,2.532 2.533,-3.458 -4.072,1.34 3.477,-2.506 -4.287,0.016 4.082,-1.309 -4.082,-1.309 4.287,0.016 -3.477,-2.506 4.072,1.34 -2.533,-3.459 3.458,2.533 -1.34,-4.072 2.506,3.478 -0.016,-4.286 L 0,-8.368 1.309,-12.449 1.293,-8.163 3.799,-11.641 2.46,-7.569 5.918,-10.102 3.386,-6.643 7.457,-7.983 3.98,-5.477 8.265,-5.493 4.184,-4.184 8.265,-2.875 3.98,-2.891 7.457,-0.385 3.386,-1.725 5.918,1.733 2.46,-0.799 3.799,3.272 1.293,-0.205 1.309,4.081 0,0 Z"
           style="fill:#ed1c24;fill-opacity:1;fill-rule:nonzero;stroke:none"
           id="path460"
           inkscape:connector-curvature="0" />
      </g>
      <g
         id="g462"
         transform="matrix(1.25,0,0,-1.25,356.95042,958.91934)">
        <path
           d="m 0,0 c 0,-2.019 1.636,-3.654 3.653,-3.654 2.018,0 3.654,1.635 3.654,3.654 0,2.018 -1.636,3.654 -3.654,3.654 C 1.636,3.654 0,2.018 0,0"
           style="fill:#f7bb34;fill-opacity:1;fill-rule:nonzero;stroke:none"
           id="path464"
           inkscape:connector-curvature="0" />
      </g>
      <g
         id="g466"
         transform="matrix(1.25,0,0,-1.25,384.1318,965.13634)">
        <path
           d="m 0,0 -1.309,4.081 0.016,-4.286 -2.506,3.477 1.34,-4.071 -3.458,2.532 2.533,-3.458 -4.072,1.34 3.477,-2.506 -4.287,0.016 4.082,-1.309 -4.082,-1.309 4.287,0.016 -3.477,-2.506 4.072,1.34 -2.533,-3.458 3.458,2.532 -1.34,-4.072 2.506,3.478 -0.016,-4.286 1.309,4.081 1.309,-4.081 -0.016,4.286 2.506,-3.478 -1.34,4.072 3.459,-2.532 -2.532,3.458 4.071,-1.34 L 3.98,-5.477 8.265,-5.493 4.184,-4.184 8.265,-2.875 3.98,-2.891 7.457,-0.385 3.386,-1.725 5.918,1.733 2.459,-0.799 3.799,3.272 1.293,-0.205 1.309,4.081 0,0 Z"
           style="fill:#ed1c24;fill-opacity:1;fill-rule:nonzero;stroke:none"
           id="path468"
           inkscape:connector-curvature="0" />
      </g>
      <g
         id="g470"
         transform="matrix(1.25,0,0,-1.25,379.56517,970.22664)">
        <path
           d="m 0,0 c 0,-2.019 1.636,-3.654 3.653,-3.654 2.018,0 3.654,1.635 3.654,3.654 0,2.019 -1.636,3.654 -3.654,3.654 C 1.636,3.654 0,2.019 0,0"
           style="fill:#f7bb34;fill-opacity:1;fill-rule:nonzero;stroke:none"
           id="path472"
           inkscape:connector-curvature="0" />
      </g>
      <g
         id="g474"
         transform="matrix(1.25,0,0,-1.25,789.77629,1000.7589)">
        <path
           d="M 0,0 C 0,0 8.43,4.368 15.676,-4.78 15.676,-4.78 5.346,-6.425 0,0"
           style="fill:#80ad12;fill-opacity:1;fill-rule:nonzero;stroke:none"
           id="path476"
           inkscape:connector-curvature="0" />
      </g>
      <g
         id="g478"
         transform="matrix(1.25,0,0,-1.25,801.67209,987.74994)">
        <path
           d="M 0,0 C 0,0 -3.6,-8.785 6.159,-15.188 6.159,-15.188 6.876,-4.75 0,0"
           style="fill:#80ad12;fill-opacity:1;fill-rule:nonzero;stroke:none"
           id="path480"
           inkscape:connector-curvature="0" />
      </g>
      <g
         id="g482"
         transform="matrix(1.25,0,0,-1.25,822.47659,994.17934)">
        <path
           d="m 0,0 c 0,0 -1.298,-9.404 -12.951,-10.044 0,0 4.619,9.387 12.951,10.044"
           style="fill:#80ad12;fill-opacity:1;fill-rule:nonzero;stroke:none"
           id="path484"
           inkscape:connector-curvature="0" />
      </g>
      <g
         id="g486"
         transform="matrix(1.25,0,0,-1.25,828.48969,1000.8076)">
        <path
           d="m 0,0 c 0,0 -9.262,5.245 -17.762,-4.702 0,0 11.506,-2.274 17.762,4.702"
           style="fill:#80ad12;fill-opacity:1;fill-rule:nonzero;stroke:none"
           id="path488"
           inkscape:connector-curvature="0" />
      </g>
      <g
         id="g490"
         transform="matrix(1.25,0,0,-1.25,810.11079,1004.0573)">
        <path
           d="m 0,0 c 0.024,0.108 2.633,10.968 12.315,18.499 l -1.008,1.298 C 5.169,15.023 1.775,9.1 0.025,5.053 -0.094,11.861 -0.805,23.869 -4.199,28.755 L -5.55,27.816 C -1.096,21.403 -1.617,0.418 -1.624,0.207 L 0,0 Z"
           style="fill:#80ad12;fill-opacity:1;fill-rule:nonzero;stroke:none"
           id="path492"
           inkscape:connector-curvature="0" />
      </g>
      <g
         id="g494"
         transform="matrix(1.25,0,0,-1.25,804.01709,961.32894)">
        <path
           d="m 0,0 -1.309,4.081 0.016,-4.286 -2.506,3.477 1.34,-4.071 -3.458,2.532 2.532,-3.458 -4.071,1.34 3.477,-2.506 -4.287,0.016 4.082,-1.309 -4.082,-1.309 4.287,0.016 -3.477,-2.506 4.071,1.34 -2.532,-3.459 3.458,2.533 -1.34,-4.072 2.506,3.478 -0.016,-4.286 L 0,-8.368 1.309,-12.449 1.293,-8.163 3.799,-11.641 2.46,-7.569 5.918,-10.102 3.386,-6.643 7.457,-7.983 3.98,-5.477 8.266,-5.493 4.184,-4.184 8.266,-2.875 3.98,-2.891 7.457,-0.385 3.386,-1.725 5.918,1.733 2.46,-0.799 3.799,3.272 1.293,-0.205 1.309,4.081 0,0 Z"
           style="fill:#ed1c24;fill-opacity:1;fill-rule:nonzero;stroke:none"
           id="path496"
           inkscape:connector-curvature="0" />
      </g>
      <g
         id="g498"
         transform="matrix(1.25,0,0,-1.25,799.45039,966.41934)">
        <path
           d="m 0,0 c 0,-2.019 1.636,-3.654 3.653,-3.654 2.018,0 3.655,1.635 3.655,3.654 0,2.018 -1.637,3.654 -3.655,3.654 C 1.636,3.654 0,2.018 0,0"
           style="fill:#f7bb34;fill-opacity:1;fill-rule:nonzero;stroke:none"
           id="path500"
           inkscape:connector-curvature="0" />
      </g>
      <g
         id="g502"
         transform="matrix(1.25,0,0,-1.25,826.63179,972.63634)">
        <path
           d="m 0,0 -1.309,4.081 0.016,-4.286 -2.506,3.477 1.34,-4.071 -3.458,2.532 2.532,-3.458 -4.071,1.34 3.477,-2.506 -4.287,0.016 4.082,-1.309 -4.082,-1.309 4.287,0.016 -3.477,-2.506 4.071,1.34 -2.532,-3.458 3.458,2.532 -1.34,-4.072 2.506,3.478 -0.016,-4.286 1.309,4.081 1.309,-4.081 -0.016,4.286 2.506,-3.478 -1.34,4.072 3.459,-2.532 -2.532,3.458 4.071,-1.34 L 3.98,-5.477 8.266,-5.493 4.184,-4.184 8.266,-2.875 3.98,-2.891 7.457,-0.385 3.386,-1.725 5.918,1.733 2.459,-0.799 3.799,3.272 1.293,-0.205 1.309,4.081 0,0 Z"
           style="fill:#ed1c24;fill-opacity:1;fill-rule:nonzero;stroke:none"
           id="path504"
           inkscape:connector-curvature="0" />
      </g>
      <g
         id="g506"
         transform="matrix(1.25,0,0,-1.25,822.06519,977.72664)">
        <path
           d="m 0,0 c 0,-2.019 1.636,-3.654 3.653,-3.654 2.018,0 3.655,1.635 3.655,3.654 0,2.019 -1.637,3.654 -3.655,3.654 C 1.636,3.654 0,2.019 0,0"
           style="fill:#f7bb34;fill-opacity:1;fill-rule:nonzero;stroke:none"
           id="path508"
           inkscape:connector-curvature="0" />
      </g>
      <g
         id="g510"
         transform="matrix(1.25,0,0,-1.25,151.49267,997.04554)">
        <path
           d="m 0,0 c 0,0 -10.717,-1.375 -15.817,-9.885 0,0 10.362,1.602 15.817,9.885"
           style="fill:#be1e2d;fill-opacity:1;fill-rule:nonzero;stroke:none"
           id="path512"
           inkscape:connector-curvature="0" />
      </g>
      <g
         id="g514"
         transform="matrix(1.25,0,0,-1.25,141.2418,985.00334)">
        <path
           d="m 0,0 c 0,0 -8.732,-8.431 -7.616,-19.52 0,0 8.26,8.397 7.616,19.52"
           style="fill:#ed1c24;fill-opacity:1;fill-rule:nonzero;stroke:none"
           id="path516"
           inkscape:connector-curvature="0" />
      </g>
      <g
         id="g518"
         transform="matrix(1.25,0,0,-1.25,146.84905,995.68444)">
        <path
           d="m 0,0 c 0,0 -3.714,-8.705 -12.103,-10.974 0,0 3.822,8.351 12.103,10.974"
           style="fill:#ed1c24;fill-opacity:1;fill-rule:nonzero;stroke:none"
           id="path520"
           inkscape:connector-curvature="0" />
      </g>
      <g
         id="g522"
         transform="matrix(1.25,0,0,-1.25,132.25305,979.05844)">
        <path
           d="m 0,0 c 0,0 5.659,-12.876 -0.41,-24.275 0,0 -5.168,12.631 0.41,24.275"
           style="fill:#be1e2d;fill-opacity:1;fill-rule:nonzero;stroke:none"
           id="path524"
           inkscape:connector-curvature="0" />
      </g>
      <g
         id="g526"
         transform="matrix(1.25,0,0,-1.25,144.9503,990.20464)">
        <path
           d="m 0,0 c 0,0 -1.854,-10.645 -10.583,-15.358 0,0 2.064,10.28 10.583,15.358"
           style="fill:#be1e2d;fill-opacity:1;fill-rule:nonzero;stroke:none"
           id="path528"
           inkscape:connector-curvature="0" />
      </g>
      <g
         id="g530"
         transform="matrix(1.25,0,0,-1.25,124.31242,987.34584)">
        <path
           d="m 0,0 c 0,0 7.45,-7.824 6.042,-17.646 0,0 -7.031,7.778 -6.042,17.646"
           style="fill:#ed1c24;fill-opacity:1;fill-rule:nonzero;stroke:none"
           id="path532"
           inkscape:connector-curvature="0" />
      </g>
      <g
         id="g534"
         transform="matrix(1.25,0,0,-1.25,118.9493,993.58484)">
        <path
           d="M 0,0 C 0,0 8.5,-4.159 10.333,-12.653 10.333,-12.653 2.191,-8.406 0,0"
           style="fill:#be1e2d;fill-opacity:1;fill-rule:nonzero;stroke:none"
           id="path536"
           inkscape:connector-curvature="0" />
      </g>
      <g
         id="g538"
         transform="matrix(1.25,0,0,-1.25,114.18305,998.35164)">
        <path
           d="M 0,0 C 0,0 9.584,-1.229 14.146,-8.84 14.146,-8.84 4.878,-7.407 0,0"
           style="fill:#ed1c24;fill-opacity:1;fill-rule:nonzero;stroke:none"
           id="path540"
           inkscape:connector-curvature="0" />
      </g>
      <path
         d="m 187.5473,906.96133 -3.75,0 0,102.49997 3.75,0 0,-102.49997 z"
         style="fill:#c39467;fill-opacity:1;fill-rule:nonzero;stroke:none"
         id="path542"
         inkscape:connector-curvature="0" />
      <g
         id="g544"
         transform="matrix(1.25,0,0,-1.25,201.1258,926.77203)">
        <path
           d="m 0,0 c 0,-6.729 -5.813,-12.186 -12.984,-12.186 -7.17,0 -12.981,5.457 -12.981,12.186 0,6.729 5.811,53.585 12.981,53.585 C -5.813,53.585 0,6.729 0,0"
           style="fill:#4caa15;fill-opacity:1;fill-rule:nonzero;stroke:none"
           id="path546"
           inkscape:connector-curvature="0" />
      </g>
      <g
         id="g548"
         transform="matrix(1.25,0,0,-1.25,187.9978,941.96133)">
        <path
           d="m 0,0 c 5.983,0 10.062,6.121 10.062,12.055 0,6.729 -5.422,53.681 -13.422,53.681 L -3.36,0 0,0 Z"
           style="fill:#72c63c;fill-opacity:1;fill-rule:nonzero;stroke:none"
           id="path550"
           inkscape:connector-curvature="0" />
      </g>
      <g
         id="g552"
         transform="matrix(1.25,0,0,-1.25,185.0473,969.09504)">
        <path
           d="m 0,0 0,2.399 c 8,0 13.941,1.807 16.867,5.371 2.887,3.516 2.307,7.52 2.273,7.688 l 2.438,0.48 c 0.044,-0.21 0.727,-5.235 -2.87,-9.653 C 15.313,2.115 10,0 0,0"
           style="fill:#c39467;fill-opacity:1;fill-rule:nonzero;stroke:none"
           id="path554"
           inkscape:connector-curvature="0" />
      </g>
      <g
         id="g556"
         transform="matrix(1.25,0,0,-1.25,218.23392,946.92833)">
        <path
           d="m 0,0 c 0,-3.124 -2.699,-5.658 -6.029,-5.658 -3.331,0 -6.029,2.534 -6.029,5.658 0,3.125 2.698,24.886 6.029,24.886 C -2.699,24.886 0,3.125 0,0"
           style="fill:#4caa15;fill-opacity:1;fill-rule:nonzero;stroke:none"
           id="path558"
           inkscape:connector-curvature="0" />
      </g>
      <g
         id="g560"
         transform="matrix(1.25,0,0,-1.25,212.13717,954.46133)">
        <path
           d="m 0,0 c 2.779,0 4.616,3.035 4.616,5.789 0,3.127 -2.288,25.123 -6.288,25.123 L -1.672,0 0,0 Z"
           style="fill:#72c63c;fill-opacity:1;fill-rule:nonzero;stroke:none"
           id="path562"
           inkscape:connector-curvature="0" />
      </g>
      <g
         id="g564"
         transform="matrix(1.25,0,0,-1.25,186.2973,987.09064)">
        <path
           d="m 0,0 c -8,0 -14.832,2.114 -18.227,6.284 -3.597,4.418 -2.521,9.444 -2.477,9.654 l 2.394,-0.485 -1.152,0.243 1.186,-0.238 C -18.31,15.289 -19.234,11.286 -16.348,7.769 -13.422,4.206 -8,2.399 0,2.399 L 0,0 Z"
           style="fill:#c39467;fill-opacity:1;fill-rule:nonzero;stroke:none"
           id="path566"
           inkscape:connector-curvature="0" />
      </g>
      <g
         id="g568"
         transform="matrix(1.25,0,0,-1.25,154.4223,964.92394)">
        <path
           d="m 0,0 c 0,-3.125 2.699,-5.659 6.029,-5.659 3.331,0 6.029,2.534 6.029,5.659 0,3.125 -2.698,24.885 -6.029,24.885 C 2.699,24.885 0,3.125 0,0"
           style="fill:#4caa15;fill-opacity:1;fill-rule:nonzero;stroke:none"
           id="path570"
           inkscape:connector-curvature="0" />
      </g>
      <g
         id="g572"
         transform="matrix(1.25,0,0,-1.25,160.51905,971.96134)">
        <path
           d="m 0,0 c -2.779,0 -4.641,2.836 -4.641,5.592 0,3.125 2.264,24.923 6.264,24.923 L 1.623,0 0,0 Z"
           style="fill:#72c63c;fill-opacity:1;fill-rule:nonzero;stroke:none"
           id="path574"
           inkscape:connector-curvature="0" />
      </g>
      <path
         d="m 772.54729,839.46133 -7.5,0 0,169.99997 7.5,0 0,-169.99997 z"
         style="fill:#c39467;fill-opacity:1;fill-rule:nonzero;stroke:none"
         id="path576"
         inkscape:connector-curvature="0" />
      <g
         id="g578"
         transform="matrix(1.25,0,0,-1.25,793.67519,871.35583)">
        <path
           d="m 0,0 c 0,-11.239 -9.71,-20.353 -21.686,-20.353 -11.975,0 -21.68,9.114 -21.68,20.353 0,11.238 9.705,89.496 21.68,89.496 C -9.71,89.496 0,11.238 0,0"
           style="fill:#4caa15;fill-opacity:1;fill-rule:nonzero;stroke:none"
           id="path580"
           inkscape:connector-curvature="0" />
      </g>
      <g
         id="g582"
         transform="matrix(1.25,0,0,-1.25,771.74889,896.96133)">
        <path
           d="m 0,0 c 9.994,0 16.93,10.318 16.93,20.229 0,11.24 -8.291,89.751 -22.291,89.751 L -5.361,0 0,0 Z"
           style="fill:#72c63c;fill-opacity:1;fill-rule:nonzero;stroke:none"
           id="path584"
           inkscape:connector-curvature="0" />
      </g>
      <g
         id="g586"
         transform="matrix(1.25,0,0,-1.25,767.54729,942.04193)">
        <path
           d="m 0,0 0,4.007 c 14,0 22.994,3.017 27.881,8.969 4.82,5.874 3.707,12.56 3.65,12.841 l 4,0.803 C 35.604,26.268 37,17.875 30.993,10.496 25.322,3.531 16,0 0,0"
           style="fill:#c39467;fill-opacity:1;fill-rule:nonzero;stroke:none"
           id="path588"
           inkscape:connector-curvature="0" />
      </g>
      <g
         id="g590"
         transform="matrix(1.25,0,0,-1.25,822.24939,905.01913)">
        <path
           d="m 0,0 c 0,-5.219 -4.509,-9.452 -10.069,-9.452 -5.564,0 -10.071,4.233 -10.071,9.452 0,5.219 4.507,41.563 10.071,41.563 C -4.509,41.563 0,5.219 0,0"
           style="fill:#4caa15;fill-opacity:1;fill-rule:nonzero;stroke:none"
           id="path592"
           inkscape:connector-curvature="0" />
      </g>
      <g
         id="g594"
         transform="matrix(1.25,0,0,-1.25,812.06629,916.96133)">
        <path
           d="m 0,0 c 4.642,0 8.299,4.813 8.299,9.412 0,5.223 -3.914,41.704 -9.914,41.704 L -1.615,0 0,0 Z"
           style="fill:#72c63c;fill-opacity:1;fill-rule:nonzero;stroke:none"
           id="path596"
           inkscape:connector-curvature="0" />
      </g>
      <g
         id="g598"
         transform="matrix(1.25,0,0,-1.25,770.04729,972.09934)">
        <path
           d="m 0,0 c -14,0 -25.227,3.532 -30.898,10.497 -6.008,7.379 -4.437,15.772 -4.365,16.124 l 3.885,-0.81 -1.981,0.405 1.953,-0.398 c -0.057,-0.281 -1.16,-6.967 3.661,-12.842 C -22.859,7.025 -14,4.008 0,4.008 L 0,0 Z"
           style="fill:#c39467;fill-opacity:1;fill-rule:nonzero;stroke:none"
           id="path600"
           inkscape:connector-curvature="0" />
      </g>
      <g
         id="g602"
         transform="matrix(1.25,0,0,-1.25,715.6723,935.07653)">
        <path
           d="m 0,0 c 0,-5.219 4.509,-9.451 10.069,-9.451 5.564,0 10.071,4.232 10.071,9.451 0,5.219 -4.507,41.563 -10.071,41.563 C 4.509,41.563 0,5.219 0,0"
           style="fill:#4caa15;fill-opacity:1;fill-rule:nonzero;stroke:none"
           id="path604"
           inkscape:connector-curvature="0" />
      </g>
      <g
         id="g606"
         transform="matrix(1.25,0,0,-1.25,725.85542,946.96133)">
        <path
           d="m 0,0 c -4.642,0 -7.43,4.79 -7.43,9.391 0,5.22 4.784,41.679 10.784,41.679 L 3.354,0 0,0 Z"
           style="fill:#72c63c;fill-opacity:1;fill-rule:nonzero;stroke:none"
           id="path608"
           inkscape:connector-curvature="0" />
      </g>
      <path
         d="m 593.7973,849.46133 -7.5,0 0,159.99997 7.5,0 0,-159.99997 z"
         style="fill:#c39467;fill-opacity:1;fill-rule:nonzero;stroke:none"
         id="path644"
         inkscape:connector-curvature="0" />
      <g
         id="g646"
         transform="matrix(1.25,0,0,-1.25,635.06318,895.13883)">
        <path
           d="m 0,0 c 0,3.711 -2.14,6.887 -5.199,8.314 0.43,1.202 0.692,2.536 0.692,3.965 0,3.879 -1.783,7.155 -4.274,8.428 0.426,1.453 0.671,3.012 0.671,4.641 0,7.715 -5.197,13.969 -11.604,13.969 -2.637,0 -5.059,-1.07 -7.007,-2.852 -2.161,4.872 -6.882,8.26 -12.372,8.26 -5.851,0 -10.828,-3.847 -12.761,-9.24 -5.086,-0.024 -9.206,-5.915 -9.206,-13.179 0,-1.985 0.317,-3.86 0.868,-5.549 -2.817,-1.465 -4.784,-4.649 -4.784,-8.365 0,-2.441 0.86,-4.645 2.238,-6.297 -3.553,-1.741 -5.983,-5.251 -5.983,-9.307 0,-3.784 2.12,-7.089 5.29,-8.93 -1.898,-1.778 -3.037,-4.039 -3.037,-6.502 0,-5.724 6.128,-10.365 13.688,-10.365 1.697,0 3.312,0.245 4.81,0.671 2.068,-4.232 6.915,-7.204 12.568,-7.204 6.524,0 11.968,3.959 13.307,9.245 1.233,-0.287 2.517,-0.459 3.844,-0.459 8.711,0 15.772,6.608 15.772,14.758 0,2.888 -0.898,5.571 -2.429,7.847 C -2.011,-6.66 0,-3.587 0,0"
           style="fill:#6a8909;fill-opacity:1;fill-rule:nonzero;stroke:none"
           id="path648"
           inkscape:connector-curvature="0" />
      </g>
      <g
         id="g650"
         transform="matrix(1.25,0,0,-1.25,635.06318,895.13883)">
        <path
           d="m 0,0 c 0,3.711 -2.14,6.887 -5.199,8.314 0.43,1.202 0.692,2.536 0.692,3.965 0,3.879 -1.783,7.155 -4.274,8.428 0.426,1.453 0.671,3.012 0.671,4.641 0,7.715 -5.197,13.969 -11.604,13.969 -2.637,0 -5.91,-1.07 -7.857,-2.852 -1.644,3.705 -4.442,6.543 -9.442,7.692 l 0,-83.692 c 7,0.037 12.734,3.976 14.068,9.238 1.232,-0.287 2.942,-0.459 4.268,-0.459 8.711,0 15.987,6.608 15.987,14.758 0,2.888 -0.793,5.571 -2.325,7.847 C -2.116,-6.66 0,-3.587 0,0"
           style="fill:#8db708;fill-opacity:1;fill-rule:nonzero;stroke:none"
           id="path652"
           inkscape:connector-curvature="0" />
      </g>
      <g
         id="g654"
         transform="matrix(1.25,0,0,-1.25,596.8783,859.68103)">
        <path
           d="m 0,0 c 0,-2.56 -2.074,-4.634 -4.635,-4.634 -2.559,0 -4.634,2.074 -4.634,4.634 0,2.561 2.075,4.635 4.634,4.635 C -2.074,4.635 0,2.561 0,0"
           style="fill:#ed1c24;fill-opacity:1;fill-rule:nonzero;stroke:none"
           id="path656"
           inkscape:connector-curvature="0" />
      </g>
      <g
         id="g658"
         transform="matrix(1.25,0,0,-1.25,608.6703,877.55333)">
        <path
           d="m 0,0 c 0,-2.118 -1.717,-3.838 -3.84,-3.838 -2.119,0 -3.836,1.72 -3.836,3.838 0,2.123 1.717,3.84 3.836,3.84 C -1.717,3.84 0,2.123 0,0"
           style="fill:#ed1c24;fill-opacity:1;fill-rule:nonzero;stroke:none"
           id="path660"
           inkscape:connector-curvature="0" />
      </g>
      <g
         id="g662"
         transform="matrix(1.25,0,0,-1.25,592.16155,889.34403)">
        <path
           d="m 0,0 c 0,-2.119 -1.717,-3.838 -3.839,-3.838 -2.119,0 -3.836,1.719 -3.836,3.838 0,2.122 1.717,3.839 3.836,3.839 C -1.717,3.839 0,2.122 0,0"
           style="fill:#ed1c24;fill-opacity:1;fill-rule:nonzero;stroke:none"
           id="path664"
           inkscape:connector-curvature="0" />
      </g>
      <g
         id="g666"
         transform="matrix(1.25,0,0,-1.25,577.05418,878.03183)">
        <path
           d="m 0,0 c 0,-1.907 -1.548,-3.455 -3.456,-3.455 -1.907,0 -3.453,1.548 -3.453,3.455 0,1.91 1.546,3.456 3.453,3.456 C -1.548,3.456 0,1.91 0,0"
           style="fill:#ed1c24;fill-opacity:1;fill-rule:nonzero;stroke:none"
           id="path668"
           inkscape:connector-curvature="0" />
      </g>
      <g
         id="g670"
         transform="matrix(1.25,0,0,-1.25,621.86242,889.82383)">
        <path
           d="m 0,0 c 0,-1.906 -1.548,-3.454 -3.457,-3.454 -1.906,0 -3.452,1.548 -3.452,3.454 0,1.911 1.546,3.457 3.452,3.457 C -1.548,3.457 0,1.911 0,0"
           style="fill:#ed1c24;fill-opacity:1;fill-rule:nonzero;stroke:none"
           id="path672"
           inkscape:connector-curvature="0" />
      </g>
      <g
         id="g674"
         transform="matrix(1.25,0,0,-1.25,614.7873,913.40653)">
        <path
           d="m 0,0 c 0,-1.907 -1.548,-3.454 -3.457,-3.454 -1.906,0 -3.452,1.547 -3.452,3.454 0,1.91 1.546,3.456 3.452,3.456 C -1.548,3.456 0,1.91 0,0"
           style="fill:#ed1c24;fill-opacity:1;fill-rule:nonzero;stroke:none"
           id="path676"
           inkscape:connector-curvature="0" />
      </g>
      <g
         id="g678"
         transform="matrix(1.25,0,0,-1.25,595.92005,922.84013)">
        <path
           d="m 0,0 c 0,-1.906 -1.547,-3.454 -3.456,-3.454 -1.907,0 -3.453,1.548 -3.453,3.454 0,1.911 1.546,3.457 3.453,3.457 C -1.547,3.457 0,1.911 0,0"
           style="fill:#ed1c24;fill-opacity:1;fill-rule:nonzero;stroke:none"
           id="path680"
           inkscape:connector-curvature="0" />
      </g>
      <g
         id="g682"
         transform="matrix(1.25,0,0,-1.25,577.05418,908.68983)">
        <path
           d="m 0,0 c 0,-1.907 -1.548,-3.455 -3.456,-3.455 -1.907,0 -3.453,1.548 -3.453,3.455 0,1.91 1.546,3.456 3.453,3.456 C -1.548,3.456 0,1.91 0,0"
           style="fill:#ed1c24;fill-opacity:1;fill-rule:nonzero;stroke:none"
           id="path684"
           inkscape:connector-curvature="0" />
      </g>
      <g
         id="g686"
         transform="matrix(1.25,0,0,-1.25,105.6283,818.43103)">
        <path
           d="m 0,0 c 0,-2.56 -2.074,-4.634 -4.635,-4.634 -2.559,0 -4.634,2.074 -4.634,4.634 0,2.561 2.075,4.635 4.634,4.635 C -2.074,4.635 0,2.561 0,0"
           style="fill:#f7941e;fill-opacity:1;fill-rule:nonzero;stroke:none"
           id="path688"
           inkscape:connector-curvature="0" />
      </g>
      <g
         id="g690"
         transform="matrix(1.25,0,0,-1.25,117.4203,836.30333)">
        <path
           d="m 0,0 c 0,-2.118 -1.717,-3.838 -3.84,-3.838 -2.119,0 -3.836,1.72 -3.836,3.838 0,2.123 1.717,3.84 3.836,3.84 C -1.717,3.84 0,2.123 0,0"
           style="fill:#f7941e;fill-opacity:1;fill-rule:nonzero;stroke:none"
           id="path692"
           inkscape:connector-curvature="0" />
      </g>
      <g
         id="g694"
         transform="matrix(1.25,0,0,-1.25,100.91155,848.09403)">
        <path
           d="m 0,0 c 0,-2.119 -1.717,-3.838 -3.839,-3.838 -2.119,0 -3.836,1.719 -3.836,3.838 0,2.122 1.717,3.839 3.836,3.839 C -1.717,3.839 0,2.122 0,0"
           style="fill:#f7941e;fill-opacity:1;fill-rule:nonzero;stroke:none"
           id="path696"
           inkscape:connector-curvature="0" />
      </g>
      <g
         id="g698"
         transform="matrix(1.25,0,0,-1.25,85.804171,836.78183)">
        <path
           d="m 0,0 c 0,-1.907 -1.548,-3.455 -3.456,-3.455 -1.907,0 -3.453,1.548 -3.453,3.455 0,1.91 1.546,3.456 3.453,3.456 C -1.548,3.456 0,1.91 0,0"
           style="fill:#f7941e;fill-opacity:1;fill-rule:nonzero;stroke:none"
           id="path700"
           inkscape:connector-curvature="0" />
      </g>
      <g
         id="g702"
         transform="matrix(1.25,0,0,-1.25,130.61242,848.57383)">
        <path
           d="m 0,0 c 0,-1.906 -1.548,-3.454 -3.457,-3.454 -1.906,0 -3.452,1.548 -3.452,3.454 0,1.911 1.546,3.457 3.452,3.457 C -1.548,3.457 0,1.911 0,0"
           style="fill:#f7941e;fill-opacity:1;fill-rule:nonzero;stroke:none"
           id="path704"
           inkscape:connector-curvature="0" />
      </g>
      <g
         id="g706"
         transform="matrix(1.25,0,0,-1.25,123.5373,872.15653)">
        <path
           d="m 0,0 c 0,-1.907 -1.548,-3.454 -3.457,-3.454 -1.906,0 -3.452,1.547 -3.452,3.454 0,1.91 1.546,3.456 3.452,3.456 C -1.548,3.456 0,1.91 0,0"
           style="fill:#f7941e;fill-opacity:1;fill-rule:nonzero;stroke:none"
           id="path708"
           inkscape:connector-curvature="0" />
      </g>
      <g
         id="g710"
         transform="matrix(1.25,0,0,-1.25,104.67005,881.59013)">
        <path
           d="m 0,0 c 0,-1.906 -1.547,-3.454 -3.456,-3.454 -1.907,0 -3.453,1.548 -3.453,3.454 0,1.911 1.546,3.457 3.453,3.457 C -1.547,3.457 0,1.911 0,0"
           style="fill:#f7941e;fill-opacity:1;fill-rule:nonzero;stroke:none"
           id="path712"
           inkscape:connector-curvature="0" />
      </g>
      <g
         id="g714"
         transform="matrix(1.25,0,0,-1.25,85.804171,867.43983)">
        <path
           d="m 0,0 c 0,-1.907 -1.548,-3.455 -3.456,-3.455 -1.907,0 -3.453,1.548 -3.453,3.455 0,1.91 1.546,3.456 3.453,3.456 C -1.548,3.456 0,1.91 0,0"
           style="fill:#f7941e;fill-opacity:1;fill-rule:nonzero;stroke:none"
           id="path716"
           inkscape:connector-curvature="0" />
      </g>
      <g
         id="g718"
         transform="matrix(1.25,0,0,-1.25,519.4138,926.30453)">
        <path
           d="m 0,0 c 0,-1.481 -1.201,-2.681 -2.683,-2.681 -1.48,0 -2.68,1.2 -2.68,2.681 0,1.481 1.2,2.682 2.68,2.682 C -1.201,2.682 0,1.481 0,0"
           style="fill:#f9ed32;fill-opacity:1;fill-rule:nonzero;stroke:none"
           id="path720"
           inkscape:connector-curvature="0" />
      </g>
      <g
         id="g722"
         transform="matrix(1.25,0,0,-1.25,526.23505,936.64513)">
        <path
           d="m 0,0 c 0,-1.226 -0.993,-2.22 -2.222,-2.22 -1.225,0 -2.218,0.994 -2.218,2.22 0,1.229 0.993,2.222 2.218,2.222 C -0.993,2.222 0,1.229 0,0"
           style="fill:#f9ed32;fill-opacity:1;fill-rule:nonzero;stroke:none"
           id="path724"
           inkscape:connector-curvature="0" />
      </g>
      <g
         id="g726"
         transform="matrix(1.25,0,0,-1.25,516.6843,943.46763)">
        <path
           d="m 0,0 c 0,-1.225 -0.994,-2.219 -2.222,-2.219 -1.225,0 -2.218,0.994 -2.218,2.219 0,1.229 0.993,2.223 2.218,2.223 C -0.994,2.223 0,1.229 0,0"
           style="fill:#f9ed32;fill-opacity:1;fill-rule:nonzero;stroke:none"
           id="path728"
           inkscape:connector-curvature="0" />
      </g>
      <g
         id="g730"
         transform="matrix(1.25,0,0,-1.25,507.94405,936.92213)">
        <path
           d="m 0,0 c 0,-1.103 -0.896,-1.998 -2,-1.998 -1.104,0 -1.998,0.895 -1.998,1.998 0,1.105 0.894,2 1.998,2 1.104,0 2,-0.895 2,-2"
           style="fill:#f9ed32;fill-opacity:1;fill-rule:nonzero;stroke:none"
           id="path732"
           inkscape:connector-curvature="0" />
      </g>
      <g
         id="g734"
         transform="matrix(1.25,0,0,-1.25,533.86805,943.74353)">
        <path
           d="m 0,0 c 0,-1.103 -0.896,-1.998 -2.001,-1.998 -1.103,0 -1.997,0.895 -1.997,1.998 0,1.105 0.894,2 1.997,2 C -0.896,2 0,1.105 0,0"
           style="fill:#f9ed32;fill-opacity:1;fill-rule:nonzero;stroke:none"
           id="path736"
           inkscape:connector-curvature="0" />
      </g>
      <g
         id="g738"
         transform="matrix(1.25,0,0,-1.25,475.6638,926.30453)">
        <path
           d="m 0,0 c 0,-1.481 -1.201,-2.681 -2.683,-2.681 -1.48,0 -2.68,1.2 -2.68,2.681 0,1.481 1.2,2.682 2.68,2.682 C -1.201,2.682 0,1.481 0,0"
           style="fill:#f9ed32;fill-opacity:1;fill-rule:nonzero;stroke:none"
           id="path740"
           inkscape:connector-curvature="0" />
      </g>
      <g
         id="g742"
         transform="matrix(1.25,0,0,-1.25,482.48505,936.64513)">
        <path
           d="m 0,0 c 0,-1.226 -0.993,-2.22 -2.222,-2.22 -1.225,0 -2.218,0.994 -2.218,2.22 0,1.229 0.993,2.222 2.218,2.222 C -0.993,2.222 0,1.229 0,0"
           style="fill:#f9ed32;fill-opacity:1;fill-rule:nonzero;stroke:none"
           id="path744"
           inkscape:connector-curvature="0" />
      </g>
      <g
         id="g746"
         transform="matrix(1.25,0,0,-1.25,472.9343,943.46763)">
        <path
           d="m 0,0 c 0,-1.225 -0.994,-2.219 -2.222,-2.219 -1.225,0 -2.218,0.994 -2.218,2.219 0,1.229 0.993,2.223 2.218,2.223 C -0.994,2.223 0,1.229 0,0"
           style="fill:#f9ed32;fill-opacity:1;fill-rule:nonzero;stroke:none"
           id="path748"
           inkscape:connector-curvature="0" />
      </g>
      <g
         id="g750"
         transform="matrix(1.25,0,0,-1.25,464.19405,936.92213)">
        <path
           d="m 0,0 c 0,-1.103 -0.896,-1.998 -2,-1.998 -1.104,0 -1.998,0.895 -1.998,1.998 0,1.105 0.894,2 1.998,2 1.104,0 2,-0.895 2,-2"
           style="fill:#f9ed32;fill-opacity:1;fill-rule:nonzero;stroke:none"
           id="path752"
           inkscape:connector-curvature="0" />
      </g>
      <g
         id="g754"
         transform="matrix(1.25,0,0,-1.25,490.11805,943.74353)">
        <path
           d="m 0,0 c 0,-1.103 -0.896,-1.998 -2.001,-1.998 -1.103,0 -1.997,0.895 -1.997,1.998 0,1.105 0.894,2 1.997,2 C -0.896,2 0,1.105 0,0"
           style="fill:#f9ed32;fill-opacity:1;fill-rule:nonzero;stroke:none"
           id="path756"
           inkscape:connector-curvature="0" />
      </g>
      <g
         id="g758"
         transform="matrix(1.25,0,0,-1.25,304.22155,981.96134)">
        <path
           d="M 0,0 C -0.032,6 -5.121,11.345 -11.399,11.345 -17.676,11.345 -22.766,6 -22.798,0 L 0,0 Z"
           style="fill:#be1e2d;fill-opacity:1;fill-rule:nonzero;stroke:none"
           id="path760"
           inkscape:connector-curvature="0" />
      </g>
      <g
         id="g762"
         transform="matrix(1.25,0,0,-1.25,290.0473,981.96134)">
        <path
           d="M 0,0 11.339,0 C 11.309,6 7,11.138 0,11.288 L 0,0 Z"
           style="fill:#ed1c24;fill-opacity:1;fill-rule:nonzero;stroke:none"
           id="path764"
           inkscape:connector-curvature="0" />
      </g>
      <path
         d="m 292.5473,1004.4613 -5,0 0,-22.49996 5,0 0,22.49996 z"
         style="fill:#c39467;fill-opacity:1;fill-rule:nonzero;stroke:none"
         id="path766"
         inkscape:connector-curvature="0" />
      <g
         id="g768"
         transform="matrix(1.25,0,0,-1.25,285.64905,976.67204)">
        <path
           d="m 0,0 c 0,-0.985 -0.798,-1.784 -1.784,-1.784 -0.986,0 -1.784,0.799 -1.784,1.784 0,0.985 0.798,1.784 1.784,1.784 C -0.798,1.784 0,0.985 0,0"
           style="fill:#ffffff;fill-opacity:1;fill-rule:nonzero;stroke:none"
           id="path770"
           inkscape:connector-curvature="0" />
      </g>
      <g
         id="g772"
         transform="matrix(1.25,0,0,-1.25,293.8833,973.69104)">
        <path
           d="m 0,0 c 0,-0.631 -0.511,-1.142 -1.142,-1.142 -0.629,0 -1.14,0.511 -1.14,1.142 0,0.631 0.511,1.141 1.14,1.141 C -0.511,1.141 0,0.631 0,0"
           style="fill:#ffffff;fill-opacity:1;fill-rule:nonzero;stroke:none"
           id="path774"
           inkscape:connector-curvature="0" />
      </g>
      <g
         id="g776"
         transform="matrix(1.25,0,0,-1.25,299.22943,977.87684)">
        <path
           d="m 0,0 c 0,-0.809 -0.655,-1.463 -1.464,-1.463 -0.807,0 -1.462,0.654 -1.462,1.463 0,0.808 0.655,1.462 1.462,1.462 C -0.655,1.462 0,0.808 0,0"
           style="fill:#ffffff;fill-opacity:1;fill-rule:nonzero;stroke:none"
           id="path778"
           inkscape:connector-curvature="0" />
      </g>
      <g
         id="g780"
         transform="matrix(1.25,0,0,-1.25,92.971551,981.96134)">
        <path
           d="M 0,0 C -0.032,6 -5.121,11.345 -11.399,11.345 -17.676,11.345 -22.766,6 -22.798,0 L 0,0 Z"
           style="fill:#be1e2d;fill-opacity:1;fill-rule:nonzero;stroke:none"
           id="path782"
           inkscape:connector-curvature="0" />
      </g>
      <g
         id="g784"
         transform="matrix(1.25,0,0,-1.25,78.797301,981.96134)">
        <path
           d="M 0,0 11.339,0 C 11.309,6 7,11.138 0,11.288 L 0,0 Z"
           style="fill:#ed1c24;fill-opacity:1;fill-rule:nonzero;stroke:none"
           id="path786"
           inkscape:connector-curvature="0" />
      </g>
      <path
         d="m 81.297301,1004.4613 -5,0 0,-22.49996 5,0 0,22.49996 z"
         style="fill:#c39467;fill-opacity:1;fill-rule:nonzero;stroke:none"
         id="path788"
         inkscape:connector-curvature="0" />
      <g
         id="g790"
         transform="matrix(1.25,0,0,-1.25,74.399051,976.67204)">
        <path
           d="m 0,0 c 0,-0.985 -0.798,-1.784 -1.784,-1.784 -0.986,0 -1.784,0.799 -1.784,1.784 0,0.985 0.798,1.784 1.784,1.784 C -0.798,1.784 0,0.985 0,0"
           style="fill:#ffffff;fill-opacity:1;fill-rule:nonzero;stroke:none"
           id="path792"
           inkscape:connector-curvature="0" />
      </g>
      <g
         id="g794"
         transform="matrix(1.25,0,0,-1.25,82.633301,973.69104)">
        <path
           d="m 0,0 c 0,-0.631 -0.511,-1.142 -1.142,-1.142 -0.629,0 -1.14,0.511 -1.14,1.142 0,0.631 0.511,1.141 1.14,1.141 C -0.511,1.141 0,0.631 0,0"
           style="fill:#ffffff;fill-opacity:1;fill-rule:nonzero;stroke:none"
           id="path796"
           inkscape:connector-curvature="0" />
      </g>
      <g
         id="g798"
         transform="matrix(1.25,0,0,-1.25,87.979421,977.87684)">
        <path
           d="m 0,0 c 0,-0.809 -0.655,-1.463 -1.464,-1.463 -0.807,0 -1.462,0.654 -1.462,1.463 0,0.808 0.655,1.462 1.462,1.462 C -0.655,1.462 0,0.808 0,0"
           style="fill:#ffffff;fill-opacity:1;fill-rule:nonzero;stroke:none"
           id="path800"
           inkscape:connector-curvature="0" />
      </g>
      <g
         id="g802"
         transform="matrix(1.25,0,0,-1.25,323.93155,985.71134)">
        <path
           d="M 0,0 C -0.019,3 -3.047,6.751 -6.783,6.751 -10.519,6.751 -13.547,3 -13.566,0 L 0,0 Z"
           style="fill:#be1e2d;fill-opacity:1;fill-rule:nonzero;stroke:none"
           id="path804"
           inkscape:connector-curvature="0" />
      </g>
      <g
         id="g806"
         transform="matrix(1.25,0,0,-1.25,315.0473,985.71134)">
        <path
           d="M 0,0 7.107,0 C 7.089,3 5,6.339 0,6.428 L 0,0 Z"
           style="fill:#ed1c24;fill-opacity:1;fill-rule:nonzero;stroke:none"
           id="path808"
           inkscape:connector-curvature="0" />
      </g>
      <path
         d="m 317.5473,999.46134 -3.75,0 0,-13.75 3.75,0 0,13.75 z"
         style="fill:#c39467;fill-opacity:1;fill-rule:nonzero;stroke:none"
         id="path810"
         inkscape:connector-curvature="0" />
      <g
         id="g812"
         transform="matrix(1.25,0,0,-1.25,312.87992,982.92444)">
        <path
           d="m 0,0 c 0,-0.587 -0.475,-1.063 -1.062,-1.063 -0.586,0 -1.062,0.476 -1.062,1.063 0,0.586 0.476,1.062 1.062,1.062 C -0.475,1.062 0,0.586 0,0"
           style="fill:#ffffff;fill-opacity:1;fill-rule:nonzero;stroke:none"
           id="path814"
           inkscape:connector-curvature="0" />
      </g>
      <g
         id="g816"
         transform="matrix(1.25,0,0,-1.25,317.7798,981.15084)">
        <path
           d="m 0,0 c 0,-0.376 -0.304,-0.68 -0.679,-0.68 -0.375,0 -0.679,0.304 -0.679,0.68 0,0.375 0.304,0.679 0.679,0.679 C -0.304,0.679 0,0.375 0,0"
           style="fill:#ffffff;fill-opacity:1;fill-rule:nonzero;stroke:none"
           id="path818"
           inkscape:connector-curvature="0" />
      </g>
      <g
         id="g820"
         transform="matrix(1.25,0,0,-1.25,320.96105,983.64214)">
        <path
           d="m 0,0 c 0,-0.481 -0.39,-0.87 -0.871,-0.87 -0.481,0 -0.87,0.389 -0.87,0.87 0,0.48 0.389,0.87 0.87,0.87 C -0.39,0.87 0,0.48 0,0"
           style="fill:#ffffff;fill-opacity:1;fill-rule:nonzero;stroke:none"
           id="path822"
           inkscape:connector-curvature="0" />
      </g>
      <g
         id="g824"
         transform="matrix(1.25,0,0,-1.25,647.9928,993.21134)">
        <path
           d="M 0,0 C -0.037,7 -6.023,13.343 -13.407,13.343 -20.791,13.343 -26.777,7 -26.815,0 L 0,0 Z"
           style="fill:#be1e2d;fill-opacity:1;fill-rule:nonzero;stroke:none"
           id="path826"
           inkscape:connector-curvature="0" />
      </g>
      <g
         id="g828"
         transform="matrix(1.25,0,0,-1.25,631.2973,993.21134)">
        <path
           d="M 0,0 13.356,0 C 13.32,7 8,13.272 0,13.449 L 0,0 Z"
           style="fill:#ed1c24;fill-opacity:1;fill-rule:nonzero;stroke:none"
           id="path830"
           inkscape:connector-curvature="0" />
      </g>
      <path
         d="m 633.7973,1001.9613 -5,0 0,-8.74996 5,0 0,8.74996 z"
         style="fill:#c39467;fill-opacity:1;fill-rule:nonzero;stroke:none"
         id="path832"
         inkscape:connector-curvature="0" />
      <g
         id="g834"
         transform="matrix(1.25,0,0,-1.25,626.14843,986.77584)">
        <path
           d="m 0,0 c 0,-1.159 -0.939,-2.099 -2.099,-2.099 -1.159,0 -2.098,0.94 -2.098,2.099 0,1.159 0.939,2.099 2.098,2.099 C -0.939,2.099 0,1.159 0,0"
           style="fill:#ffffff;fill-opacity:1;fill-rule:nonzero;stroke:none"
           id="path836"
           inkscape:connector-curvature="0" />
      </g>
      <g
         id="g838"
         transform="matrix(1.25,0,0,-1.25,635.83343,983.26864)">
        <path
           d="m 0,0 c 0,-0.742 -0.602,-1.343 -1.343,-1.343 -0.741,0 -1.342,0.601 -1.342,1.343 0,0.741 0.601,1.342 1.342,1.342 C -0.602,1.342 0,0.741 0,0"
           style="fill:#ffffff;fill-opacity:1;fill-rule:nonzero;stroke:none"
           id="path840"
           inkscape:connector-curvature="0" />
      </g>
      <g
         id="g842"
         transform="matrix(1.25,0,0,-1.25,642.1213,988.19304)">
        <path
           d="m 0,0 c 0,-0.951 -0.771,-1.721 -1.722,-1.721 -0.949,0 -1.719,0.77 -1.719,1.721 0,0.95 0.77,1.72 1.719,1.72 C -0.771,1.72 0,0.95 0,0"
           style="fill:#ffffff;fill-opacity:1;fill-rule:nonzero;stroke:none"
           id="path844"
           inkscape:connector-curvature="0" />
      </g>
      <g
         id="g846"
         transform="matrix(1.25,0,0,-1.25,602.7658,1003.2113)">
        <path
           d="m 0,0 -50.662,0 c 0,0 1.887,2.335 4.131,3.324 0,0 -2.066,1.659 -4.131,1.212 0,0 1.078,3.033 4.85,3.66 0,0 -3.953,-0.235 -5.48,2.01 0,0 2.516,0.196 4.941,1.724 0,0 -2.222,2.008 -4.445,1.468 0,0 1.684,2.766 5.253,2.766 0,0 -1.278,1.149 -2.964,0.879 0,0 1.416,2.561 6.132,2.763 0,0 -0.606,1.685 -2.224,1.956 0,0 2.29,3.097 6.939,2.76 0,0 -0.203,2.425 -2.426,2.56 0,0 2.83,2.156 5.997,0.405 0,0 0,3.571 -1.279,3.84 0,0 2.829,-0.673 4.31,-2.763 0,0 1.55,1.55 0.27,3.1 0,0 2.695,-1.213 2.896,-3.976 0,0 1.685,3.033 1.146,5.122 0,0 2.088,-0.608 2.426,-3.167 0,0 0.539,1.819 2.223,2.425 0,0 -0.202,-1.414 0.336,-2.896 0,0 1.01,1.751 3.504,2.762 0,0 -0.404,-0.81 -0.404,-2.83 0,0 1.752,1.75 4.042,1.954 0,0 -0.741,-2.831 -0.741,-3.774 0,0 2.425,1.011 4.985,0.673 0,0 -0.674,-0.875 -1.481,-2.625 0,0 3.233,0.47 7.208,-2.966 0,0 -2.224,-1.01 -2.831,-1.683 0,0 3.707,-0.472 6.467,-2.898 0,0 -2.627,-0.336 -3.636,-1.112 0,0 4.042,-0.504 5.254,-3.469 0,0 -3.166,0.538 -4.11,-1.144 0,0 1.55,0 4.447,-2.831 0,0 -3.099,0.068 -4.447,-1.144 0,0 2.83,-0.338 4.447,-2.897 0,0 -2.628,-0.473 -4.043,-1.954 0,0 2.494,0 3.1,-3.234"
           style="fill:#b5c614;fill-opacity:1;fill-rule:nonzero;stroke:none"
           id="path848"
           inkscape:connector-curvature="0" />
      </g>
      <g
         id="g850"
         transform="matrix(1.25,0,0,-1.25,593.51167,1000.7113)">
        <path
           d="m 0,0 -35.764,0 c 0,0 1.332,1.98 2.917,2.68 0,0 -1.458,1.341 -2.917,1.024 0,0 0.76,2.225 3.424,2.669 0,0 -2.789,-0.128 -3.867,1.457 0,0 1.775,0.161 3.487,1.238 0,0 -1.569,1.43 -3.138,1.048 0,0 1.188,1.957 3.71,1.957 0,0 -0.904,0.815 -2.093,0.625 0,0 0.998,1.806 4.327,1.948 0,0 -0.427,1.193 -1.569,1.383 0,0 1.617,2.188 4.899,1.95 0,0 -0.145,1.711 -1.713,1.807 0,0 1.998,1.523 4.233,0.285 0,0 0,2.52 -0.905,2.713 0,0 1.998,-0.477 3.045,-1.951 0,0 1.093,1.093 0.191,2.188 0,0 1.902,-0.857 2.044,-2.805 0,0 1.19,2.138 0.81,3.614 0,0 1.473,-0.429 1.711,-2.236 0,0 0.38,1.285 1.569,1.712 0,0 -0.142,-0.999 0.238,-2.045 0,0 0.713,1.235 2.472,1.951 0,0 -0.285,-0.57 -0.285,-1.999 0,0 1.237,1.236 2.856,1.378 0,0 -0.526,-1.995 -0.526,-2.662 0,0 1.713,0.714 3.521,0.476 0,0 -0.476,-0.619 -1.046,-1.854 0,0 2.281,0.332 5.088,-2.093 0,0 -1.57,-0.714 -1.997,-1.188 0,0 2.615,-0.335 4.565,-2.047 0,0 -1.855,-0.238 -2.568,-0.785 0,0 2.853,-0.355 3.71,-2.448 0,0 -2.236,0.381 -2.902,-0.808 0,0 1.094,0 3.139,-1.998 0,0 -2.187,0.047 -3.139,-0.808 0,0 1.997,-0.239 3.139,-2.046 0,0 -1.854,-0.668 -2.854,-1.715 0,0 1.76,1.385 2.188,-2.615"
           style="fill:#c8ce49;fill-opacity:1;fill-rule:nonzero;stroke:none"
           id="path852"
           inkscape:connector-curvature="0" />
      </g>
      <path
         d="m 60.047305,963.21134 -6.25,0 0,46.24996 6.25,0 0,-46.24996 z"
         style="fill:#c39467;fill-opacity:1;fill-rule:nonzero;stroke:none"
         id="path870"
         inkscape:connector-curvature="0" />
      <g
         id="g872"
         transform="matrix(1.25,0,0,-1.25,91.906421,930.05943)">
        <path
           d="m 0,0 c 0,-15.262 -12.372,-27.636 -27.635,-27.636 -15.262,0 -27.635,12.374 -27.635,27.636 0,15.262 12.373,27.635 27.635,27.635 C -12.372,27.635 0,15.262 0,0"
           style="fill:#80ad12;fill-opacity:1;fill-rule:nonzero;stroke:none"
           id="path874"
           inkscape:connector-curvature="0" />
      </g>
      <g
         id="g876"
         transform="matrix(1.25,0,0,-1.25,57.547305,895.52693)">
        <path
           d="m 0,0 0,-55.253 c 15,0.179 27.302,12.475 27.302,27.627 C 27.302,-12.476 15,-0.179 0,0"
           style="fill:#91c60e;fill-opacity:1;fill-rule:nonzero;stroke:none"
           id="path878"
           inkscape:connector-curvature="0" />
      </g>
      <path
         d="m 657.5473,1009.4613 -1.25,0 0,-39.99996 1.25,0 0,39.99996 z"
         style="fill:#c39467;fill-opacity:1;fill-rule:nonzero;stroke:none"
         id="path900"
         inkscape:connector-curvature="0" />
      <g
         id="g902"
         transform="matrix(1.25,0,0,-1.25,661.2973,976.04584)">
        <path
           d="m 0,0 c 0,-0.957 -0.775,-1.732 -1.732,-1.732 l -2.536,0 C -5.225,-1.732 -6,-0.957 -6,0 l 0,9.535 c 0,0.957 0.775,1.733 1.732,1.733 l 2.536,0 C -0.775,11.268 0,10.492 0,9.535 L 0,0 Z"
           style="fill:#ff001f;fill-opacity:1;fill-rule:nonzero;stroke:none"
           id="path904"
           inkscape:connector-curvature="0" />
      </g>
      <g
         id="g906"
         transform="matrix(1.25,0,0,-1.25,658.53117,961.96134)">
        <path
           d="m 0,0 -0.787,0 0,-13 0.787,0 c 0.953,0 2.213,0.794 2.213,1.747 l 0,9.237 C 2.213,-1.063 0.953,0 0,0"
           style="fill:#ff5c70;fill-opacity:1;fill-rule:nonzero;stroke:none"
           id="path908"
           inkscape:connector-curvature="0" />
      </g>
      <path
         d="m 452.5473,1009.4613 -1.25,0 0,-39.99996 1.25,0 0,39.99996 z"
         style="fill:#c39467;fill-opacity:1;fill-rule:nonzero;stroke:none"
         id="path950"
         inkscape:connector-curvature="0" />
      <g
         id="g952"
         transform="matrix(1.25,0,0,-1.25,456.2973,976.04584)">
        <path
           d="m 0,0 c 0,-0.957 -0.775,-1.732 -1.732,-1.732 l -2.536,0 C -5.225,-1.732 -6,-0.957 -6,0 l 0,9.535 c 0,0.957 0.775,1.733 1.732,1.733 l 2.536,0 C -0.775,11.268 0,10.492 0,9.535 L 0,0 Z"
           style="fill:#ff001f;fill-opacity:1;fill-rule:nonzero;stroke:none"
           id="path954"
           inkscape:connector-curvature="0" />
      </g>
      <g
         id="g956"
         transform="matrix(1.25,0,0,-1.25,453.53117,961.96134)">
        <path
           d="m 0,0 -0.787,0 0,-13 0.787,0 c 0.953,0 2.213,0.794 2.213,1.747 l 0,9.237 C 2.213,-1.063 0.953,0 0,0"
           style="fill:#ff5c70;fill-opacity:1;fill-rule:nonzero;stroke:none"
           id="path958"
           inkscape:connector-curvature="0" />
      </g>
      <g
         id="g960"
         transform="matrix(1.25,0,0,-1.25,59.906925,908.26133)">
        <path
           d="m 0,0 c 0,-1.933 -1.566,-3.499 -3.5,-3.499 -1.932,0 -3.499,1.566 -3.499,3.499 0,1.933 1.567,3.499 3.499,3.499 C -1.566,3.499 0,1.933 0,0"
           style="fill:#009444;fill-opacity:1;fill-rule:nonzero;stroke:none"
           id="path962"
           inkscape:connector-curvature="0" />
      </g>
      <g
         id="g964"
         transform="matrix(1.25,0,0,-1.25,68.810175,921.75613)">
        <path
           d="m 0,0 c 0,-1.6 -1.296,-2.897 -2.899,-2.897 -1.6,0 -2.896,1.297 -2.896,2.897 0,1.603 1.296,2.899 2.896,2.899 C -1.296,2.899 0,1.603 0,0"
           style="fill:#009444;fill-opacity:1;fill-rule:nonzero;stroke:none"
           id="path966"
           inkscape:connector-curvature="0" />
      </g>
      <g
         id="g968"
         transform="matrix(1.25,0,0,-1.25,56.345555,930.65883)">
        <path
           d="m 0,0 c 0,-1.6 -1.296,-2.897 -2.898,-2.897 -1.601,0 -2.897,1.297 -2.897,2.897 0,1.603 1.296,2.898 2.897,2.898 C -1.296,2.898 0,1.603 0,0"
           style="fill:#009444;fill-opacity:1;fill-rule:nonzero;stroke:none"
           id="path970"
           inkscape:connector-curvature="0" />
      </g>
      <g
         id="g972"
         transform="matrix(1.25,0,0,-1.25,44.938675,922.11753)">
        <path
           d="m 0,0 c 0,-1.44 -1.169,-2.608 -2.609,-2.608 -1.441,0 -2.608,1.168 -2.608,2.608 0,1.442 1.167,2.609 2.608,2.609 C -1.169,2.609 0,1.442 0,0"
           style="fill:#009444;fill-opacity:1;fill-rule:nonzero;stroke:none"
           id="path974"
           inkscape:connector-curvature="0" />
      </g>
      <g
         id="g976"
         transform="matrix(1.25,0,0,-1.25,78.771051,931.02133)">
        <path
           d="m 0,0 c 0,-1.439 -1.169,-2.607 -2.61,-2.607 -1.44,0 -2.607,1.168 -2.607,2.607 0,1.443 1.167,2.61 2.607,2.61 C -1.169,2.61 0,1.443 0,0"
           style="fill:#009444;fill-opacity:1;fill-rule:nonzero;stroke:none"
           id="path978"
           inkscape:connector-curvature="0" />
      </g>
      <g
         id="g980"
         transform="matrix(1.25,0,0,-1.25,73.428671,948.82653)">
        <path
           d="m 0,0 c 0,-1.44 -1.168,-2.608 -2.61,-2.608 -1.439,0 -2.607,1.168 -2.607,2.608 0,1.441 1.168,2.609 2.607,2.609 C -1.168,2.609 0,1.441 0,0"
           style="fill:#009444;fill-opacity:1;fill-rule:nonzero;stroke:none"
           id="path982"
           inkscape:connector-curvature="0" />
      </g>
      <g
         id="g984"
         transform="matrix(1.25,0,0,-1.25,59.183055,955.94933)">
        <path
           d="m 0,0 c 0,-1.439 -1.168,-2.608 -2.609,-2.608 -1.44,0 -2.608,1.169 -2.608,2.608 0,1.442 1.168,2.609 2.608,2.609 C -1.168,2.609 0,1.442 0,0"
           style="fill:#009444;fill-opacity:1;fill-rule:nonzero;stroke:none"
           id="path986"
           inkscape:connector-curvature="0" />
      </g>
      <g
         id="g988"
         transform="matrix(1.25,0,0,-1.25,44.938675,945.26583)">
        <path
           d="m 0,0 c 0,-1.44 -1.169,-2.608 -2.609,-2.608 -1.441,0 -2.608,1.168 -2.608,2.608 0,1.442 1.167,2.609 2.608,2.609 C -1.169,2.609 0,1.442 0,0"
           style="fill:#009444;fill-opacity:1;fill-rule:nonzero;stroke:none"
           id="path990"
           inkscape:connector-curvature="0" />
      </g>
      <g
         transform="matrix(1.25,0,0,-1.25,-78.702695,1009.4613)"
         id="g1644">
        <g
           id="g1646"
           clip-path="url(#clipPath1648)">
          <g
             id="g1652"
             transform="translate(860.2549,0)">
            <path
               d="m 0,0 -4.185,20.439 -3.563,-13.128 -1.7,18.19 -4.535,-21.044 -2.647,9.32 -3.211,-9.416 -3.779,16.264 -3.213,-15.674 -2.645,6.807 -2.267,-6.613 -2.647,2.079 -1.888,-2.455 -4.725,13.227 -3.969,-12.661 -2.267,6.612 -6.803,-6.422 -5.478,19.274 -3.024,-15.872 -4.535,7.746 -5.67,-10.014 -4.534,14.525 L -84.655,0 -81.798,0 0,0 Z"
               style="fill:#5f7505;fill-opacity:1;fill-rule:nonzero;stroke:none"
               id="path1654"
               inkscape:connector-curvature="0" />
          </g>
          <g
             id="g1656"
             transform="translate(774.7324,12.5625)">
            <path
               d="m 0,0 -2.432,-11.718 -5.244,14.787 -3.742,-9.92 -1.496,2.527 -3.559,-3.461 -3.93,15.91 -3.37,-16.287 -2.247,8.162 -3.931,-8.162 -2.622,11.607 -3.929,-11.607 -2.808,6.364 -3.184,-6.364 -4.681,14.601 -3.742,-14.787 -3.557,8.348 -2.247,-7.974 -3.556,4.117 -4.868,-4.868 -3.181,15.727 -5.992,-18.72 L 3.135,-12.896 0,0 Z"
               style="fill:#5f7505;fill-opacity:1;fill-rule:nonzero;stroke:none"
               id="path1658"
               inkscape:connector-curvature="0" />
          </g>
          <g
             id="g1660"
             transform="translate(703.7969,0)">
            <path
               d="m 0,0 -4.185,20.439 -3.563,-13.128 -1.7,18.19 -4.534,-21.044 -2.647,9.32 -3.211,-9.416 -3.78,16.264 -3.213,-15.674 -2.644,6.807 -2.267,-6.613 -2.647,2.079 -1.888,-2.455 -4.726,13.227 -3.968,-12.661 -2.267,6.612 -6.803,-6.422 -5.478,19.274 -3.025,-15.872 -4.535,7.746 L -72.75,6.659 -77.285,21.184 -84.654,0 -81.798,0 0,0 Z"
               style="fill:#5f7505;fill-opacity:1;fill-rule:nonzero;stroke:none"
               id="path1662"
               inkscape:connector-curvature="0" />
          </g>
          <g
             id="g1664"
             transform="translate(618.2744,12.5625)">
            <path
               d="m 0,0 -2.431,-11.718 -5.244,14.787 -3.742,-9.92 -1.497,2.527 -3.558,-3.461 -3.931,15.91 -3.369,-16.287 -2.247,8.162 -3.932,-8.162 -2.622,11.607 -3.928,-11.607 -2.809,6.364 -3.183,-6.364 -4.682,14.601 -3.742,-14.787 -3.557,8.348 -2.247,-7.974 -3.555,4.117 -4.868,-4.868 -3.181,15.727 -5.992,-18.72 L 3.136,-12.896 0,0 Z"
               style="fill:#5f7505;fill-opacity:1;fill-rule:nonzero;stroke:none"
               id="path1666"
               inkscape:connector-curvature="0" />
          </g>
          <g
             id="g1668"
             transform="translate(547.3398,0)">
            <path
               d="m 0,0 -4.186,20.439 -3.562,-13.128 -1.701,18.19 -4.534,-21.044 -2.647,9.32 -3.21,-9.416 -3.781,16.264 -3.213,-15.674 -2.644,6.807 -2.266,-6.613 -2.647,2.079 -1.888,-2.455 -4.727,13.227 -3.968,-12.661 -2.266,6.612 -6.803,-6.422 -5.478,19.274 -3.026,-15.872 -4.535,7.746 L -72.75,6.659 -77.285,21.184 -84.654,0 -81.799,0 0,0 Z"
               style="fill:#5f7505;fill-opacity:1;fill-rule:nonzero;stroke:none"
               id="path1670"
               inkscape:connector-curvature="0" />
          </g>
          <g
             id="g1672"
             transform="translate(461.8174,12.5625)">
            <path
               d="m 0,0 -2.432,-11.718 -5.243,14.787 -3.742,-9.92 -1.498,2.527 -3.558,-3.461 -3.93,15.91 -3.37,-16.287 -2.246,8.162 -3.933,-8.162 -2.621,11.607 -3.928,-11.607 -2.809,6.364 -3.183,-6.364 -4.682,14.601 -3.742,-14.787 -3.557,8.348 -2.247,-7.974 -3.556,4.117 -4.868,-4.868 -3.181,15.727 -5.992,-18.72 L 3.136,-12.896 0,0 Z"
               style="fill:#5f7505;fill-opacity:1;fill-rule:nonzero;stroke:none"
               id="path1674"
               inkscape:connector-curvature="0" />
          </g>
          <g
             id="g1676"
             transform="translate(390.8823,0)">
            <path
               d="m 0,0 -4.185,20.439 -3.563,-13.128 -1.701,18.19 -4.534,-21.044 -2.647,9.32 -3.21,-9.416 -3.781,16.264 -3.212,-15.674 -2.645,6.807 -2.267,-6.613 -2.646,2.079 -1.889,-2.455 -4.725,13.227 -3.968,-12.661 -2.268,6.612 -6.802,-6.422 -5.996,24.457 -2.507,-21.055 -4.536,7.746 L -72.75,6.659 -77.285,21.184 -84.655,0 -81.798,0 0,0 Z"
               style="fill:#5f7505;fill-opacity:1;fill-rule:nonzero;stroke:none"
               id="path1678"
               inkscape:connector-curvature="0" />
          </g>
          <g
             id="g1680"
             transform="translate(305.3599,12.5625)">
            <path
               d="m 0,0 -2.432,-11.718 -5.243,14.787 -3.742,-9.92 -1.498,2.527 -3.558,-3.461 -3.93,15.91 -3.37,-16.287 -2.246,8.162 -3.933,-8.162 -3.039,20.183 -3.51,-20.183 -2.809,6.364 -3.184,-6.364 -4.681,14.601 -3.742,-14.787 -3.556,8.348 -2.248,-7.974 -3.556,4.117 -4.868,-4.868 -3.181,15.727 -5.992,-18.72 L 3.135,-12.896 0,0 Z"
               style="fill:#5f7505;fill-opacity:1;fill-rule:nonzero;stroke:none"
               id="path1682"
               inkscape:connector-curvature="0" />
          </g>
          <g
             id="g1684"
             transform="translate(234.4248,0)">
            <path
               d="m 0,0 -4.185,20.439 -3.563,-13.128 -1.7,18.19 -4.535,-21.044 -2.646,9.32 -3.211,-9.416 -3.929,21.14 -3.064,-20.55 -2.645,6.807 -2.267,-6.613 -2.646,2.079 -1.889,-2.455 -4.725,13.227 -3.968,-12.661 -2.268,6.612 -6.802,-6.422 -5.71,21.757 -2.793,-18.355 -4.536,7.746 L -72.75,6.659 -77.285,21.184 -84.655,0 -81.798,0 0,0 Z"
               style="fill:#5f7505;fill-opacity:1;fill-rule:nonzero;stroke:none"
               id="path1686"
               inkscape:connector-curvature="0" />
          </g>
          <g
             id="g1688"
             transform="translate(148.9023,12.5625)">
            <path
               d="m 0,0 -2.432,-11.718 -5.013,23.739 -3.972,-18.872 -1.497,2.527 -3.559,-3.461 -3.93,15.91 -3.37,-16.287 -2.246,8.162 -3.933,-8.162 -2.621,11.607 -3.928,-11.607 -2.809,6.364 -3.184,-6.364 -4.681,14.601 -3.742,-14.787 -3.556,8.348 -2.248,-7.974 -3.556,4.117 -4.868,-4.868 -3.181,15.727 -5.992,-18.72 L 3.135,-12.896 0,0 Z"
               style="fill:#5f7505;fill-opacity:1;fill-rule:nonzero;stroke:none"
               id="path1690"
               inkscape:connector-curvature="0" />
          </g>
          <g
             id="g1692"
             transform="translate(-15,6.8936)">
            <path
               d="m 0,0 6.661,9.638 4.258,-11.581 4.763,11.532 4.535,-9.823 5.669,5.478 4.535,-5.478 3.025,13.604 5.478,-14.738 4.535,8.689 4.535,-8.88 3.968,12.662 4.726,-13.228 1.888,2.455 2.647,-2.079 2.267,6.612 2.644,-6.806 3.213,15.672 3.78,-16.266 3.211,9.411 2.646,-9.331 4.535,21.022 1.701,-18.232 3.562,13.213 4.185,-20.44 -81.798,0 -2.856,0 L 0,-6.894 0,0 Z"
               style="fill:#5f7505;fill-opacity:1;fill-rule:nonzero;stroke:none"
               id="path1694"
               inkscape:connector-curvature="0" />
          </g>
          <g
             id="g1696"
             transform="translate(-15,-1)">
            <path
               d="m 0,0 4.186,20.673 3.562,-13.015 1.701,18.25 4.534,-21.014 2.646,9.335 3.212,-9.41 3.407,25.667 3.585,-25.072 2.645,6.808 2.267,-6.613 2.646,2.08 L 36.28,5.233 41.004,18.462 44.973,5.8 47.24,12.412 54.042,5.99 59.522,25.264 62.545,9.392 67.081,17.138 72.75,7.124 77.284,30.486 84.654,0 81.798,0 0,0 Z"
               style="fill:#80ad12;fill-opacity:1;fill-rule:nonzero;stroke:none"
               id="path1698"
               inkscape:connector-curvature="0" />
          </g>
          <g
             id="g1700"
             transform="translate(70.5215,12.0273)">
            <path
               d="m 0,0 2.434,-11.718 5.241,14.787 3.745,-9.92 1.497,2.527 3.557,-3.461 2.755,23.04 4.545,-23.417 2.247,8.162 3.931,-8.162 2.621,11.607 3.931,-11.607 2.808,6.364 3.183,-6.364 4.441,23.417 3.982,-23.603 3.558,8.348 2.246,-7.974 3.556,4.117 4.868,-4.868 3.183,15.727 5.989,-20.029 -77.453,0.131 L 0,0 Z"
               style="fill:#80ad12;fill-opacity:1;fill-rule:nonzero;stroke:none"
               id="path1702"
               inkscape:connector-curvature="0" />
          </g>
          <g
             id="g1704"
             transform="translate(141.4575,-1)">
            <path
               d="m 0,0 4.186,20.673 3.562,-13.015 1.701,18.25 4.535,-21.014 2.644,9.335 3.213,-9.41 3.78,16.268 3.212,-15.673 2.645,6.808 2.267,-6.613 2.646,2.08 L 36.28,5.233 41.004,18.462 44.972,5.8 47.24,12.412 54.042,5.99 59.522,29.799 62.545,9.392 67.081,17.138 72.75,7.124 77.284,21.417 84.654,0 81.798,0 0,0 Z"
               style="fill:#80ad12;fill-opacity:1;fill-rule:nonzero;stroke:none"
               id="path1706"
               inkscape:connector-curvature="0" />
          </g>
          <g
             id="g1708"
             transform="translate(226.979,12.0273)">
            <path
               d="m 0,0 2.434,-11.718 5.241,14.787 3.744,-9.92 1.498,2.527 3.557,-3.461 2.108,20.342 5.192,-20.719 2.247,8.162 3.931,-8.162 2.621,11.607 3.931,-11.607 2.808,6.364 3.183,-6.364 4.68,14.601 3.743,-14.787 3.558,8.348 2.246,-7.974 3.556,4.117 4.868,-4.868 3.183,15.727 5.989,-18.72 L -3.135,-12.896 0,0 Z"
               style="fill:#80ad12;fill-opacity:1;fill-rule:nonzero;stroke:none"
               id="path1710"
               inkscape:connector-curvature="0" />
          </g>
          <g
             id="g1712"
             transform="translate(297.915,-1)">
            <path
               d="m 0,0 4.186,20.673 3.562,-13.015 3.968,20.518 2.267,-23.282 2.645,9.335 3.213,-9.41 3.78,16.268 3.212,-15.673 2.645,6.808 2.267,-6.613 2.646,2.08 L 36.28,5.233 41.004,18.462 44.972,5.8 47.24,12.412 54.042,5.99 59.522,25.264 62.545,9.392 67.081,17.138 72.75,7.124 76.828,23.966 84.654,0 81.798,0 0,0 Z"
               style="fill:#80ad12;fill-opacity:1;fill-rule:nonzero;stroke:none"
               id="path1714"
               inkscape:connector-curvature="0" />
          </g>
          <g
             id="g1716"
             transform="translate(383.4365,12.0273)">
            <path
               d="m 0,0 2.434,-11.718 5.241,14.787 3.744,-9.92 1.498,2.527 3.557,-3.461 3.62,20.342 3.68,-20.719 2.247,8.162 3.931,-8.162 2.621,11.607 3.931,-11.607 2.808,6.364 3.183,-6.364 4.68,14.601 3.743,-14.787 3.558,8.348 2.246,-7.974 3.556,4.117 4.868,-4.868 3.183,15.727 5.989,-18.72 L -3.135,-12.896 0,0 Z"
               style="fill:#80ad12;fill-opacity:1;fill-rule:nonzero;stroke:none"
               id="path1718"
               inkscape:connector-curvature="0" />
          </g>
          <g
             id="g1720"
             transform="translate(454.373,-1)">
            <path
               d="m 0,0 4.186,20.673 3.562,-13.015 1.7,18.25 4.534,-21.014 2.646,9.335 3.212,-9.41 3.78,16.268 3.212,-15.673 2.645,6.808 2.267,-6.613 2.647,2.08 1.888,-2.456 4.725,15.496 L 44.972,5.8 47.239,12.412 54.042,5.99 59.521,25.264 62.545,9.392 67.08,17.138 72.748,7.124 77.283,21.417 84.653,0 81.798,0 0,0 Z"
               style="fill:#80ad12;fill-opacity:1;fill-rule:nonzero;stroke:none"
               id="path1722"
               inkscape:connector-curvature="0" />
          </g>
          <g
             id="g1724"
             transform="translate(539.8945,12.0273)">
            <path
               d="m 0,0 2.434,-11.718 5.241,14.787 3.744,-9.92 3.765,4.794 1.289,-5.728 3.931,15.91 3.369,-16.287 2.248,8.162 3.93,-8.162 2.621,11.607 3.932,-11.607 2.807,6.364 3.183,-6.364 4.68,14.601 3.744,-14.787 3.557,8.348 2.247,-7.974 3.555,4.117 4.868,-4.868 3.183,15.727 5.99,-18.72 L -3.136,-12.896 0,0 Z"
               style="fill:#80ad12;fill-opacity:1;fill-rule:nonzero;stroke:none"
               id="path1726"
               inkscape:connector-curvature="0" />
          </g>
          <g
             id="g1728"
             transform="translate(610.8301,-1)">
            <path
               d="m 0,0 4.186,20.673 3.562,-13.015 1.701,18.25 4.534,-21.014 2.646,9.335 3.211,-9.41 3.781,16.268 3.211,-15.673 2.646,6.808 2.267,-6.613 2.646,2.08 1.888,-2.456 4.725,13.229 L 44.973,5.8 49.508,14.68 54.043,5.99 59.521,25.264 62.545,9.392 67.08,17.138 72.749,7.124 77.284,21.417 84.654,0 81.799,0 0,0 Z"
               style="fill:#80ad12;fill-opacity:1;fill-rule:nonzero;stroke:none"
               id="path1730"
               inkscape:connector-curvature="0" />
          </g>
          <g
             id="g1732"
             transform="translate(696.3516,12.0273)">
            <path
               d="m 0,0 2.434,-11.718 5.242,14.787 3.744,-9.92 1.496,2.527 3.558,-3.461 3.93,15.91 3.37,-16.287 2.247,8.162 3.93,-8.162 2.622,11.607 3.931,-11.607 2.808,6.364 3.182,-6.364 4.681,14.601 3.743,-14.787 3.558,8.348 2.247,-7.974 3.555,4.117 4.868,-4.868 3.182,15.727 5.99,-18.72 L -3.135,-12.896 0,0 Z"
               style="fill:#80ad12;fill-opacity:1;fill-rule:nonzero;stroke:none"
               id="path1734"
               inkscape:connector-curvature="0" />
          </g>
          <g
             id="g1736"
             transform="translate(767.2871,-1)">
            <path
               d="m 0,0 4.187,20.673 3.561,-13.015 1.701,18.25 4.535,-21.014 2.645,9.335 3.212,-9.41 3.78,16.268 3.212,-15.673 2.646,6.808 2.266,-6.613 2.647,2.08 L 36.28,5.233 41.005,18.462 44.973,5.8 47.24,12.412 54.043,5.99 59.522,25.264 62.546,9.392 67.081,17.138 72.75,7.124 77.285,21.417 84.654,0 81.799,0 0,0 Z"
               style="fill:#80ad12;fill-opacity:1;fill-rule:nonzero;stroke:none"
               id="path1738"
               inkscape:connector-curvature="0" />
          </g>
        </g>
      </g>
    </g>
  </g>
</svg>
