<?xml version="1.0" encoding="UTF-8" standalone="no"?>
<!-- Created with Inkscape (http://www.inkscape.org/) -->

<svg
   xmlns:dc="http://purl.org/dc/elements/1.1/"
   xmlns:cc="http://creativecommons.org/ns#"
   xmlns:rdf="http://www.w3.org/1999/02/22-rdf-syntax-ns#"
   xmlns:svg="http://www.w3.org/2000/svg"
   xmlns="http://www.w3.org/2000/svg"
   xmlns:sodipodi="http://sodipodi.sourceforge.net/DTD/sodipodi-0.dtd"
   xmlns:inkscape="http://www.inkscape.org/namespaces/inkscape"
   width="800"
   height="300"
   viewBox="0 0 800.00001 300"
   id="svg7973"
   version="1.1"
   inkscape:version="0.91 r"
   sodipodi:docname="ecommerce_background_spring.svg">
  <defs
     id="defs7975">
    <clipPath
       clipPathUnits="userSpaceOnUse"
       id="clipPath1636">
      <path
         d="M 0,800 800,800 800,0 0,0 0,800 Z"
         id="path1638"
         inkscape:connector-curvature="0" />
    </clipPath>
    <clipPath
       clipPathUnits="userSpaceOnUse"
       id="clipPath1540">
      <path
         d="m 0,266 800,0 0,49.999 -800,0 L 0,266 Z"
         id="path1542"
         inkscape:connector-curvature="0" />
    </clipPath>
  </defs>
  <sodipodi:namedview
     id="base"
     pagecolor="#ffffff"
     bordercolor="#666666"
     borderopacity="1.0"
     inkscape:pageopacity="0.0"
     inkscape:pageshadow="2"
     inkscape:zoom="0.98994949"
     inkscape:cx="255.3262"
     inkscape:cy="-7.1325431"
     inkscape:document-units="px"
     inkscape:current-layer="g8427"
     showgrid="false"
     units="px"
     borderlayer="true"
     inkscape:window-width="1920"
     inkscape:window-height="1016"
     inkscape:window-x="1440"
     inkscape:window-y="27"
     inkscape:window-maximized="1" />
  <metadata
     id="metadata7978">
    <rdf:RDF>
      <cc:Work
         rdf:about="">
        <dc:format>image/svg+xml</dc:format>
        <dc:type
           rdf:resource="http://purl.org/dc/dcmitype/StillImage" />
        <dc:title />
      </cc:Work>
    </rdf:RDF>
  </metadata>
  <g
     inkscape:label="Ebene 1"
     inkscape:groupmode="layer"
     id="layer1"
     transform="translate(0,-752.36216)">
    <g
       id="g8427"
       transform="matrix(0.80621474,0,0,0.80621474,-172.69803,469.69569)">
      <path
         inkscape:connector-curvature="0"
         id="path36"
         style="fill:#c39467;fill-opacity:1;fill-rule:nonzero;stroke:none"
         d="m 1113.9286,567.55603 -10,0 0,83.75 10,0 0,-83.75 z" />
      <g
         transform="matrix(1.25,0,0,-1.25,1150.8683,520.72254)"
         id="g46">
        <path
           inkscape:connector-curvature="0"
           id="path48"
           style="fill:#6a890a;fill-opacity:1;fill-rule:nonzero;stroke:none"
           d="m 0,0 c 2.872,3.326 4.514,7.117 4.514,11.147 0,7.809 -6.14,14.718 -15.59,19.061 2.847,2.764 4.515,6.058 4.515,9.605 0,9.705 -12.395,17.577 -27.688,17.577 -15.293,0 -27.689,-7.872 -27.689,-17.577 0,-3.547 1.668,-6.841 4.515,-9.605 -9.449,-4.343 -15.591,-11.252 -15.591,-19.061 0,-4.03 1.643,-7.821 4.514,-11.147 -9.738,-5.707 -15.829,-13.812 -15.829,-22.809 0,-17.275 22.42,-31.282 50.08,-31.282 27.66,0 50.08,14.007 50.08,31.282 C 15.831,-13.812 9.739,-5.707 0,0" />
      </g>
      <g
         transform="matrix(1.25,0,0,-1.25,1150.8683,520.72254)"
         id="g50">
        <path
           inkscape:connector-curvature="0"
           id="path52"
           style="fill:#7fa50a;fill-opacity:1;fill-rule:nonzero;stroke:none"
           d="m 0,0 c 2.872,3.326 4.514,7.117 4.514,11.147 0,7.809 -6.14,14.718 -15.59,19.061 2.847,2.764 4.515,6.058 4.515,9.605 0,9.705 -12.751,17.577 -28.043,17.577 -0.199,0 0.052,-0.016 -0.948,-0.02 l 0,-111.45 c 1,-0.002 0.749,-0.011 0.948,-0.011 27.661,0 50.258,14.007 50.258,31.282 C 15.654,-13.812 9.739,-5.707 0,0" />
      </g>
      <path
         inkscape:connector-curvature="0"
         id="path54"
         style="fill:#c39467;fill-opacity:1;fill-rule:nonzero;stroke:none"
         d="m 457.67857,588.80603 -7.5,0 0,61.25 7.5,0 0,-61.25 z" />
      <g
         transform="matrix(1.25,0,0,-1.25,492.00719,469.70141)"
         id="g56">
        <path
           inkscape:connector-curvature="0"
           id="path58"
           style="fill:#80ad12;fill-opacity:1;fill-rule:nonzero;stroke:none"
           d="m 0,0 c 3.936,5.796 6.236,12.792 6.236,20.327 0,20.014 -16.225,36.24 -36.241,36.24 -20.016,0 -36.24,-16.226 -36.24,-36.24 0,-7.535 2.3,-14.531 6.235,-20.327 -3.935,-5.798 -6.235,-12.793 -6.235,-20.327 0,-7.534 2.3,-14.531 6.235,-20.327 -3.935,-5.798 -6.235,-12.793 -6.235,-20.327 0,-20.015 16.224,-36.242 36.24,-36.242 20.016,0 36.241,16.227 36.241,36.242 0,7.534 -2.3,14.529 -6.236,20.327 3.936,5.796 6.236,12.793 6.236,20.327 C 6.236,-12.793 3.936,-5.798 0,0" />
      </g>
      <g
         transform="matrix(1.25,0,0,-1.25,491.64957,469.70329)"
         id="g60">
        <path
           inkscape:connector-curvature="0"
           id="path62"
           style="fill:#91c60e;fill-opacity:1;fill-rule:nonzero;stroke:none"
           d="m 0,0 c 3.954,5.796 6.454,12.792 6.454,20.328 0,19.869 -16.631,35.995 -35.631,36.229 l 0,-40.654 0,-31.805 0,-8.848 0,-31.806 0,-40.654 c 19,0.234 35.631,16.359 35.631,36.231 0,7.536 -2.413,14.53 -6.367,20.326 3.954,5.796 6.236,12.791 6.236,20.328 C 6.323,-12.79 3.954,-5.795 0,0" />
      </g>
      <path
         inkscape:connector-curvature="0"
         id="path64"
         style="fill:#c39467;fill-opacity:1;fill-rule:nonzero;stroke:none"
         d="m 730.17857,592.55603 -3.75,0 0,58.75 3.75,0 0,-58.75 z" />
      <g
         transform="matrix(1.25,0,0,-1.25,755.2787,580.43813)"
         id="g66">
        <path
           inkscape:connector-curvature="0"
           id="path68"
           style="fill:#98aa13;fill-opacity:1;fill-rule:nonzero;stroke:none"
           d="m 0,0 c 0.428,1.304 0.668,2.691 0.668,4.138 0,7.324 -5.939,13.263 -13.264,13.263 -3.236,0 -6.198,-1.162 -8.5,-3.087 -2.302,1.925 -5.265,3.087 -8.5,3.087 -7.325,0 -13.264,-5.939 -13.264,-13.263 0,-1.447 0.239,-2.834 0.667,-4.138 -3.423,-2.398 -5.667,-6.366 -5.667,-10.862 0,-7.326 5.939,-13.264 13.264,-13.264 0.149,0 0.293,0.018 0.441,0.022 1.77,-5.243 6.719,-9.022 12.559,-9.022 5.862,0 10.825,3.806 12.578,9.078 0.468,-0.05 0.942,-0.078 1.422,-0.078 7.325,0 13.264,5.938 13.264,13.264 C 5.668,-6.366 3.424,-2.398 0,0" />
      </g>
      <g
         transform="matrix(1.25,0,0,-1.25,755.2787,580.43813)"
         id="g70">
        <path
           inkscape:connector-curvature="0"
           id="path72"
           style="fill:#aac410;fill-opacity:1;fill-rule:nonzero;stroke:none"
           d="m 0,0 c 0.428,1.304 0.668,2.691 0.668,4.138 0,7.324 -6.189,13.263 -13.514,13.263 -3.002,0 -5.234,-1.008 -8.234,-2.691 l 0,-47.795 c 6,0.41 10.162,4.072 11.812,9.037 0.468,-0.05 1.067,-0.078 1.547,-0.078 7.325,0 13.326,5.938 13.326,13.264 C 5.605,-6.366 3.424,-2.398 0,0" />
      </g>
      <path
         inkscape:connector-curvature="0"
         id="path74"
         style="fill:#c39467;fill-opacity:1;fill-rule:nonzero;stroke:none"
         d="m 362.67857,608.80603 -3.75,0 0,41.25 3.75,0 0,-41.25 z" />
      <g
         transform="matrix(1.25,0,0,-1.25,391.45294,630.05603)"
         id="g76">
        <path
           inkscape:connector-curvature="0"
           id="path78"
           style="fill:#6a8909;fill-opacity:1;fill-rule:nonzero;stroke:none"
           d="m 0,0 -11.227,13 7.557,0 -15.545,18 9.67,0 -10.363,12 6.738,0 -8.637,10 4.75,0 -7.664,8.875 -7.666,-8.875 4.751,0 -8.636,-10 6.739,0 -10.364,-12 9.67,0 -15.545,-18 7.556,0 L -49.443,0 0,0 Z" />
      </g>
      <g
         transform="matrix(1.25,0,0,-1.25,360.17857,630.05603)"
         id="g80">
        <path
           inkscape:connector-curvature="0"
           id="path82"
           style="fill:#8db708;fill-opacity:1;fill-rule:nonzero;stroke:none"
           d="M 0,0 25.02,0 13.793,13 21.35,13 5.805,31 15.475,31 5.111,43 11.85,43 3.213,53 7.963,53 0.623,62 0,62 0,0 Z" />
      </g>
      <g
         transform="matrix(1.25,0,0,-1.25,562.50945,648.80603)"
         id="g84">
        <path
           inkscape:connector-curvature="0"
           id="path86"
           style="fill:#9eaf56;fill-opacity:1;fill-rule:nonzero;stroke:none"
           d="m 0,0 c 1.334,2 2.098,3.987 2.098,5.995 0,6.247 -7.365,11.552 -16.525,11.693 0,0.072 0.011,0.256 0.011,0.329 0,7.926 -6.657,14.411 -14.872,14.411 -6.502,0 -12.014,-4.004 -14.035,-9.61 -1.896,2.27 -4.851,3.755 -8.18,3.755 -5.718,0 -10.353,-4.305 -10.353,-9.626 0,-0.217 0.02,-0.424 0.036,-0.64 -1.113,0.289 -2.291,0.453 -3.512,0.453 -6.769,0 -12.254,-5.197 -12.254,-11.021 0,-1.924 0.607,-3.739 1.65,-5.739 L 0,0 Z" />
      </g>
      <g
         transform="matrix(1.25,0,0,-1.25,548.88707,651.30603)"
         id="g88">
        <path
           inkscape:connector-curvature="0"
           id="path90"
           style="fill:#d6ea98;fill-opacity:1;fill-rule:nonzero;stroke:none"
           d="m 0,0 c 0.946,1.177 1.49,2.681 1.49,4.107 0,4.445 -5.238,8.135 -11.753,8.236 0.002,0.053 0.009,0.145 0.009,0.196 0,5.636 -4.735,10.228 -10.579,10.228 -4.623,0 -8.544,-2.854 -9.981,-6.841 -1.348,1.613 -3.45,2.662 -5.816,2.662 -4.069,0 -7.367,-3.065 -7.367,-6.848 0,-0.151 0.018,-0.301 0.026,-0.454 -0.791,0.202 -1.629,0.317 -2.498,0.317 -4.813,0 -8.713,-3.533 -8.713,-7.678 0,-1.366 0.43,-2.748 1.172,-3.925 L 0,0 Z" />
      </g>
      <g
         transform="matrix(1.25,0,0,-1.25,374.54932,444.05754)"
         id="g152">
        <path
           inkscape:connector-curvature="0"
           id="path154"
           style="fill:#ffffff;fill-opacity:1;fill-rule:nonzero;stroke:none"
           d="m 0,0 c 0,5.168 -4.189,9.482 -9.357,9.482 -2.152,0 -4.128,-0.67 -5.708,-1.891 0.169,0.618 0.267,1.298 0.267,1.97 0,4.053 -3.287,7.356 -7.342,7.356 -4.054,0 -7.341,-3.279 -7.341,-7.333 0,-0.191 0.014,-0.376 0.029,-0.564 -1.679,1.597 -3.944,2.585 -6.444,2.585 -2.279,0 -4.366,-0.815 -5.989,-2.168 0.002,0.057 0.009,0.112 0.009,0.17 0,4.805 -3.895,8.701 -8.7,8.701 -0.764,0 -1.501,-0.109 -2.207,-0.293 0.002,0.097 0.015,0.193 0.015,0.292 0,9.61 -7.791,17.401 -17.4,17.401 -7.519,0 -13.904,-4.776 -16.336,-11.453 -0.674,0.112 -1.361,0.184 -2.066,0.184 -6.914,0 -12.519,-5.605 -12.519,-12.519 0,-1.035 0.14,-2.286 0.377,-3.248 -4.531,-1.355 -7.914,-5.471 -8.345,-10.471 l 46.302,0 c 1.557,-2 4.376,-4.305 7.605,-4.305 3.23,0 6.048,2.305 7.605,4.305 l 47.406,0 C -0.054,-0.799 0,-0.529 0,0" />
      </g>
      <g
         transform="matrix(1.25,0,0,-1.25,882.04869,397.80754)"
         id="g156">
        <path
           inkscape:connector-curvature="0"
           id="path158"
           style="fill:#ffffff;fill-opacity:1;fill-rule:nonzero;stroke:none"
           d="m 0,0 c 0,5.168 -4.189,9.482 -9.357,9.482 -2.151,0 -4.127,-0.67 -5.707,-1.891 0.168,0.618 0.266,1.298 0.266,1.97 0,4.053 -3.286,7.356 -7.341,7.356 -4.054,0 -7.341,-3.279 -7.341,-7.333 0,-0.191 0.013,-0.376 0.029,-0.564 -1.68,1.597 -3.945,2.585 -6.445,2.585 -2.278,0 -4.366,-0.815 -5.989,-2.168 0.002,0.057 0.01,0.112 0.01,0.17 0,4.805 -3.896,8.701 -8.701,8.701 -0.764,0 -1.5,-0.109 -2.206,-0.293 10e-4,0.097 0.014,0.193 0.014,0.292 0,9.61 -7.791,17.401 -17.4,17.401 -7.518,0 -13.903,-4.776 -16.336,-11.453 -0.674,0.112 -1.36,0.184 -2.065,0.184 -6.914,0 -12.519,-5.605 -12.519,-12.519 0,-1.035 0.139,-2.286 0.376,-3.248 -4.53,-1.355 -7.914,-5.471 -8.345,-10.471 l 46.303,0 c 1.557,-2 4.375,-4.305 7.605,-4.305 3.229,0 6.047,2.305 7.604,4.305 l 47.406,0 C -0.054,-0.799 0,-0.529 0,0" />
      </g>
      <g
         transform="matrix(1.25,0,0,-1.25,693.94932,474.87054)"
         id="g176">
        <path
           inkscape:connector-curvature="0"
           id="path178"
           style="fill:#ffffff;fill-opacity:1;fill-rule:nonzero;stroke:none"
           d="m 0,0 c -0.979,0 -1.914,-0.182 -2.783,-0.499 -0.854,2.196 -2.983,3.756 -5.481,3.756 -2.601,0 -4.803,-1.689 -5.581,-4.028 -1.707,1 -3.688,1.584 -5.81,1.584 -2.412,0 -4.65,-0.745 -6.5,-2.012 0.051,0.33 0.085,0.667 0.085,1.011 0,3.699 -2.998,6.697 -6.697,6.697 -1.97,0 -3.736,-0.857 -4.961,-2.211 -2.117,3.428 -5.897,5.72 -10.221,5.72 -6.638,0 -12.019,-5.381 -12.019,-12.019 0,-0.025 0.004,-0.049 0.004,-0.074 -0.958,0.675 -2.123,1.075 -3.384,1.075 -3.25,0 -5.884,-2.885 -5.884,-6.134 0,-0.615 0.095,-1.014 0.27,-2.014 l 14.916,0 c 0.607,-3 3.48,-5.772 6.939,-5.772 3.459,0 6.332,2.772 6.939,5.772 l 2.214,0 6.975,0 22.647,0 c -0.008,1 -0.012,0.345 -0.021,0.392 0.03,-10e-4 0.059,0.12 0.089,0.12 0.049,0 0.097,-0.181 0.145,-0.18 0.003,-0.049 0.011,0.668 0.014,-0.332 l 16.216,0 c 0.011,1 0.026,0.588 0.026,0.761 C 8.137,-3.894 4.494,0 0,0" />
      </g>
      <g
         transform="matrix(1.25,0,0,-1.25,1015.1993,459.87054)"
         id="g180">
        <path
           inkscape:connector-curvature="0"
           id="path182"
           style="fill:#ffffff;fill-opacity:1;fill-rule:nonzero;stroke:none"
           d="m 0,0 c -0.979,0 -1.914,-0.182 -2.783,-0.499 -0.854,2.196 -2.984,3.756 -5.482,3.756 -2.599,0 -4.802,-1.689 -5.58,-4.028 -1.707,1 -3.688,1.584 -5.81,1.584 -2.412,0 -4.65,-0.745 -6.5,-2.012 0.051,0.33 0.085,0.667 0.085,1.011 0,3.699 -2.998,6.697 -6.697,6.697 -1.97,0 -3.736,-0.857 -4.961,-2.211 -2.117,3.428 -5.897,5.72 -10.221,5.72 -6.638,0 -12.019,-5.381 -12.019,-12.019 0,-0.025 0.004,-0.049 0.004,-0.074 -0.958,0.675 -2.123,1.075 -3.384,1.075 -3.25,0 -5.883,-2.885 -5.883,-6.134 0,-0.615 0.094,-1.014 0.269,-2.014 l 14.916,0 c 0.608,-3 3.48,-5.772 6.939,-5.772 3.459,0 6.332,2.772 6.938,5.772 l 2.215,0 6.975,0 22.648,0 c -0.01,1 -0.013,0.345 -0.022,0.392 0.03,-10e-4 0.059,0.12 0.088,0.12 0.05,0 0.098,-0.181 0.147,-0.18 0.002,-0.049 0.01,0.668 0.014,-0.332 l 16.215,0 c 0.011,1 0.027,0.588 0.027,0.761 C 8.138,-3.894 4.494,0 0,0" />
      </g>
      <g
         transform="matrix(1.25,0,0,-1.25,1157.6993,381.12054)"
         id="g184">
        <path
           inkscape:connector-curvature="0"
           id="path186"
           style="fill:#ffffff;fill-opacity:1;fill-rule:nonzero;stroke:none"
           d="m 0,0 c -0.979,0 -1.914,-0.182 -2.783,-0.499 -0.854,2.196 -2.984,3.756 -5.482,3.756 -2.599,0 -4.802,-1.689 -5.58,-4.028 -1.707,1 -3.688,1.584 -5.81,1.584 -2.412,0 -4.65,-0.745 -6.5,-2.012 0.051,0.33 0.085,0.667 0.085,1.011 0,3.699 -2.998,6.697 -6.697,6.697 -1.97,0 -3.736,-0.857 -4.961,-2.211 -2.117,3.428 -5.897,5.72 -10.221,5.72 -6.638,0 -12.019,-5.381 -12.019,-12.019 0,-0.025 0.004,-0.049 0.004,-0.074 -0.958,0.675 -2.123,1.075 -3.384,1.075 -3.25,0 -5.883,-2.885 -5.883,-6.134 0,-0.615 0.094,-1.014 0.269,-2.014 l 14.916,0 c 0.608,-3 3.48,-5.772 6.939,-5.772 3.459,0 6.332,2.772 6.938,5.772 l 2.215,0 6.975,0 22.648,0 c -0.01,1 -0.013,0.345 -0.022,0.392 0.03,-10e-4 0.059,0.12 0.088,0.12 0.05,0 0.098,-0.181 0.147,-0.18 0.002,-0.049 0.01,0.668 0.014,-0.332 l 16.215,0 c 0.011,1 0.027,0.588 0.027,0.761 C 8.138,-3.894 4.494,0 0,0" />
      </g>
      <g
         transform="matrix(1.25,0,0,-1.25,601.60919,386.43541)"
         id="g192">
        <path
           inkscape:connector-curvature="0"
           id="path194"
           style="fill:#ffffff;fill-opacity:1;fill-rule:nonzero;stroke:none"
           d="m 0,0 c 0,5.253 -6.193,9.639 -13.895,9.756 10e-4,0.06 0.009,0.181 0.009,0.241 0,6.665 -5.599,12.099 -12.508,12.099 -5.466,0 -10.102,-3.374 -11.803,-8.088 -1.593,1.91 -4.077,3.152 -6.876,3.152 -4.809,0 -8.706,-3.623 -8.706,-8.097 0,-0.182 0.016,-0.358 0.029,-0.538 -0.937,0.243 -1.927,0.375 -2.954,0.375 -5.691,0 -10.304,-4.217 -10.304,-9.117 0,-1.616 0.511,-2.703 1.388,-4.679 l 11.978,0 c 0.454,-2.872 2.933,-5.069 5.932,-5.069 2.999,0 5.477,2.197 5.932,5.069 l 40.014,0 C -0.642,-2.92 0,-1.687 0,0" />
      </g>
      <g
         transform="matrix(1.25,0,0,-1.25,601.36507,558.71941)"
         id="g244">
        <path
           inkscape:connector-curvature="0"
           id="path246"
           style="fill:#c39467;fill-opacity:1;fill-rule:nonzero;stroke:none"
           d="m 0,0 -3.903,3.014 -15.046,-18.414 0,18.331 -6,0 0,-18.331 L -38.88,3.014 -43.083,0 l 18.134,-23.032 0,-48.037 6,0 0,48.037 L 0,0 Z" />
      </g>
      <g
         transform="matrix(1.25,0,0,-1.25,605.92195,510.31604)"
         id="g248">
        <path
           inkscape:connector-curvature="0"
           id="path250"
           style="fill:#80ad12;fill-opacity:1;fill-rule:nonzero;stroke:none"
           d="m 0,0 c -1.694,0 -3.348,-0.18 -4.945,-0.512 -4.215,7.003 -11.868,11.704 -20.638,11.704 -9.633,0 -17.923,-5.665 -21.781,-13.835 -2.214,0.675 -4.565,1.043 -7.001,1.043 -13.309,0 -24.1,-10.791 -24.1,-24.1 0,-13.31 10.791,-24.099 24.1,-24.099 9.633,0 17.922,5.665 21.779,13.831 2.217,-0.672 4.565,-1.039 7.003,-1.039 1.694,0 3.347,0.177 4.944,0.511 4.215,-7.004 11.868,-11.705 20.639,-11.705 13.308,0 24.099,10.79 24.099,24.1 C 24.099,-10.79 13.308,0 0,0" />
      </g>
      <g
         transform="matrix(1.25,0,0,-1.25,605.92195,510.31604)"
         id="g252">
        <path
           inkscape:connector-curvature="0"
           id="path254"
           style="fill:#91c60e;fill-opacity:1;fill-rule:nonzero;stroke:none"
           d="m 0,0 c -1.694,0 -3.591,-0.18 -5.189,-0.512 -4.138,6.874 -11.406,11.52 -20.406,11.688 l 0,-48.158 c 2,0.03 3.267,0.185 4.712,0.486 4.215,-7.004 11.989,-11.705 20.761,-11.705 13.308,0 24.159,10.79 24.159,24.1 C 24.037,-10.79 13.308,0 0,0" />
      </g>
      <g
         transform="matrix(1.25,0,0,-1.25,279.70195,638.82553)"
         id="g330">
        <path
           inkscape:connector-curvature="0"
           id="path332"
           style="fill:#80ad12;fill-opacity:1;fill-rule:nonzero;stroke:none"
           d="M 0,0 C 0,0 8.466,4.387 15.745,-4.802 15.745,-4.802 5.368,-6.453 0,0" />
      </g>
      <g
         transform="matrix(1.25,0,0,-1.25,291.64957,625.76043)"
         id="g334">
        <path
           inkscape:connector-curvature="0"
           id="path336"
           style="fill:#80ad12;fill-opacity:1;fill-rule:nonzero;stroke:none"
           d="M 0,0 C 0,0 -3.616,-8.823 6.187,-15.254 6.187,-15.254 6.906,-4.771 0,0" />
      </g>
      <g
         transform="matrix(1.25,0,0,-1.25,312.5437,632.21793)"
         id="g338">
        <path
           inkscape:connector-curvature="0"
           id="path340"
           style="fill:#80ad12;fill-opacity:1;fill-rule:nonzero;stroke:none"
           d="m 0,0 c 0,0 -1.303,-9.445 -13.007,-10.088 0,0 4.639,9.428 13.007,10.088" />
      </g>
      <g
         transform="matrix(1.25,0,0,-1.25,318.5837,638.87443)"
         id="g342">
        <path
           inkscape:connector-curvature="0"
           id="path344"
           style="fill:#80ad12;fill-opacity:1;fill-rule:nonzero;stroke:none"
           d="m 0,0 c 0,0 -9.302,5.268 -17.839,-4.723 0,0 11.556,-2.284 17.839,4.723" />
      </g>
      <g
         transform="matrix(1.25,0,0,-1.25,300.1242,642.13853)"
         id="g346">
        <path
           inkscape:connector-curvature="0"
           id="path348"
           style="fill:#80ad12;fill-opacity:1;fill-rule:nonzero;stroke:none"
           d="m 0,0 c 0.025,0.109 2.645,11.016 12.37,18.58 l -1.013,1.303 C 5.192,15.089 1.784,9.14 0.026,5.075 -0.094,11.913 -0.808,23.974 -4.217,28.881 L -5.574,27.938 C -1.1,21.497 -1.624,0.42 -1.631,0.208 L 0,0 Z" />
      </g>
      <g
         transform="matrix(1.25,0,0,-1.25,294.0042,599.22353)"
         id="g350">
        <path
           inkscape:connector-curvature="0"
           id="path352"
           style="fill:#fff200;fill-opacity:1;fill-rule:nonzero;stroke:none"
           d="m 0,0 -1.314,4.099 0.016,-4.305 -2.517,3.492 1.345,-4.089 -3.472,2.544 2.543,-3.473 -4.089,1.345 3.492,-2.516 -4.305,0.015 4.099,-1.314 -4.099,-1.316 4.305,0.017 -3.492,-2.518 4.089,1.347 -2.543,-3.474 3.472,2.543 -1.345,-4.088 2.517,3.492 -0.016,-4.305 1.314,4.099 1.315,-4.099 -0.016,4.305 2.517,-3.492 -1.345,4.088 3.473,-2.543 -2.543,3.474 4.088,-1.347 -3.491,2.518 4.303,-0.017 -4.098,1.316 4.098,1.314 L 3.998,-2.903 7.489,-0.387 3.401,-1.732 5.944,1.741 2.471,-0.803 3.816,3.286 1.299,-0.206 1.315,4.099 0,0 Z" />
      </g>
      <g
         transform="matrix(1.25,0,0,-1.25,289.41807,604.33583)"
         id="g354">
        <path
           inkscape:connector-curvature="0"
           id="path356"
           style="fill:#ed1c24;fill-opacity:1;fill-rule:nonzero;stroke:none"
           d="m 0,0 c 0,-2.027 1.643,-3.671 3.669,-3.671 2.027,0 3.67,1.644 3.67,3.671 0,2.026 -1.643,3.67 -3.67,3.67 C 1.643,3.67 0,2.026 0,0" />
      </g>
      <g
         transform="matrix(1.25,0,0,-1.25,316.71782,610.58093)"
         id="g358">
        <path
           inkscape:connector-curvature="0"
           id="path360"
           style="fill:#fff200;fill-opacity:1;fill-rule:nonzero;stroke:none"
           d="m 0,0 -1.315,4.1 0.017,-4.306 -2.517,3.493 1.345,-4.089 -3.473,2.543 2.544,-3.472 -4.09,1.345 3.493,-2.517 -4.306,0.016 4.1,-1.314 -4.1,-1.316 4.306,0.017 -3.493,-2.518 4.09,1.347 -2.544,-3.474 3.473,2.543 -1.345,-4.089 2.517,3.493 -0.017,-4.305 L 0,-8.404 1.315,-12.503 1.299,-8.198 3.816,-11.691 2.47,-7.602 5.944,-10.145 3.4,-6.671 7.489,-8.018 3.998,-5.5 8.301,-5.517 4.203,-4.201 8.301,-2.887 3.998,-2.903 7.489,-0.386 3.4,-1.731 5.944,1.741 2.47,-0.802 3.816,3.287 1.299,-0.206 1.315,4.1 0,0 Z" />
      </g>
      <g
         transform="matrix(1.25,0,0,-1.25,312.13107,615.69333)"
         id="g362">
        <path
           inkscape:connector-curvature="0"
           id="path364"
           style="fill:#ed1c24;fill-opacity:1;fill-rule:nonzero;stroke:none"
           d="m 0,0 c 0,-2.027 1.643,-3.67 3.669,-3.67 2.027,0 3.67,1.643 3.67,3.67 0,2.027 -1.643,3.67 -3.67,3.67 C 1.643,3.67 0,2.027 0,0" />
      </g>
      <g
         transform="matrix(1.25,0,0,-1.25,848.34507,638.82553)"
         id="g366">
        <path
           inkscape:connector-curvature="0"
           id="path368"
           style="fill:#80ad12;fill-opacity:1;fill-rule:nonzero;stroke:none"
           d="m 0,0 c 0,0 -8.467,4.387 -15.745,-4.802 0,0 10.376,-1.651 15.745,4.802" />
      </g>
      <g
         transform="matrix(1.25,0,0,-1.25,836.39682,625.76043)"
         id="g370">
        <path
           inkscape:connector-curvature="0"
           id="path372"
           style="fill:#80ad12;fill-opacity:1;fill-rule:nonzero;stroke:none"
           d="m 0,0 c 0,0 3.615,-8.823 -6.187,-15.254 0,0 -0.719,10.483 6.187,15.254" />
      </g>
      <g
         transform="matrix(1.25,0,0,-1.25,815.50332,632.21793)"
         id="g374">
        <path
           inkscape:connector-curvature="0"
           id="path376"
           style="fill:#80ad12;fill-opacity:1;fill-rule:nonzero;stroke:none"
           d="M 0,0 C 0,0 1.303,-9.445 13.006,-10.088 13.006,-10.088 8.367,-0.66 0,0" />
      </g>
      <g
         transform="matrix(1.25,0,0,-1.25,809.46319,638.87443)"
         id="g378">
        <path
           inkscape:connector-curvature="0"
           id="path380"
           style="fill:#80ad12;fill-opacity:1;fill-rule:nonzero;stroke:none"
           d="M 0,0 C 0,0 9.301,5.268 17.838,-4.723 17.838,-4.723 6.283,-7.007 0,0" />
      </g>
      <g
         transform="matrix(1.25,0,0,-1.25,827.92269,642.13853)"
         id="g382">
        <path
           inkscape:connector-curvature="0"
           id="path384"
           style="fill:#80ad12;fill-opacity:1;fill-rule:nonzero;stroke:none"
           d="m 0,0 c -0.025,0.109 -2.646,11.016 -12.37,18.58 l 1.013,1.303 C -5.192,15.089 -1.785,9.14 -0.027,5.075 0.094,11.913 0.808,23.974 4.217,28.881 L 5.573,27.938 C 1.1,21.497 1.623,0.42 1.631,0.208 L 0,0 Z" />
      </g>
      <g
         transform="matrix(1.25,0,0,-1.25,834.04207,599.22353)"
         id="g386">
        <path
           inkscape:connector-curvature="0"
           id="path388"
           style="fill:#fff200;fill-opacity:1;fill-rule:nonzero;stroke:none"
           d="M 0,0 1.314,4.099 1.298,-0.206 3.815,3.286 2.47,-0.803 5.942,1.741 3.399,-1.732 l 4.089,1.345 -3.493,-2.516 4.307,0.015 -4.1,-1.314 4.1,-1.316 -4.307,0.017 3.493,-2.518 -4.089,1.347 2.543,-3.474 -3.472,2.543 1.345,-4.088 -2.517,3.492 0.016,-4.305 -1.314,4.099 -1.315,-4.099 0.016,4.305 -2.516,-3.492 1.344,4.088 -3.473,-2.543 2.543,3.474 -4.088,-1.347 3.492,2.518 -4.305,-0.017 4.1,1.316 -4.1,1.314 4.305,-0.015 -3.492,2.516 4.088,-1.345 -2.543,3.473 3.473,-2.544 -1.344,4.089 2.516,-3.492 L -1.315,4.099 0,0 Z" />
      </g>
      <g
         transform="matrix(1.25,0,0,-1.25,838.62832,604.33583)"
         id="g390">
        <path
           inkscape:connector-curvature="0"
           id="path392"
           style="fill:#ed1c24;fill-opacity:1;fill-rule:nonzero;stroke:none"
           d="m 0,0 c 0,-2.027 -1.643,-3.671 -3.669,-3.671 -2.026,0 -3.67,1.644 -3.67,3.671 0,2.026 1.644,3.67 3.67,3.67 C -1.643,3.67 0,2.026 0,0" />
      </g>
      <g
         transform="matrix(1.25,0,0,-1.25,811.32844,610.58093)"
         id="g394">
        <path
           inkscape:connector-curvature="0"
           id="path396"
           style="fill:#fff200;fill-opacity:1;fill-rule:nonzero;stroke:none"
           d="M 0,0 1.314,4.1 1.299,-0.206 3.815,3.287 2.47,-0.802 5.943,1.741 3.398,-1.731 l 4.09,1.345 -3.492,-2.517 4.306,0.016 -4.1,-1.314 4.1,-1.316 -4.306,0.017 3.492,-2.518 -4.09,1.347 2.545,-3.474 -3.473,2.543 1.345,-4.089 -2.516,3.493 0.015,-4.305 -1.314,4.099 -1.314,-4.099 0.015,4.305 -2.517,-3.493 1.345,4.089 -3.472,-2.543 2.543,3.474 -4.089,-1.347 3.491,2.518 -4.303,-0.017 4.098,1.316 -4.098,1.314 4.303,-0.016 -3.491,2.517 4.089,-1.345 -2.543,3.472 3.472,-2.543 -1.345,4.089 2.517,-3.493 L -1.314,4.1 0,0 Z" />
      </g>
      <g
         transform="matrix(1.25,0,0,-1.25,815.91582,615.69333)"
         id="g398">
        <path
           inkscape:connector-curvature="0"
           id="path400"
           style="fill:#ed1c24;fill-opacity:1;fill-rule:nonzero;stroke:none"
           d="m 0,0 c 0,-2.027 -1.644,-3.67 -3.67,-3.67 -2.027,0 -3.67,1.643 -3.67,3.67 0,2.027 1.643,3.67 3.67,3.67 C -1.644,3.67 0,2.027 0,0" />
      </g>
      <path
         inkscape:connector-curvature="0"
         id="path610"
         style="fill:#c39467;fill-opacity:1;fill-rule:nonzero;stroke:none"
         d="m 897.67857,502.55604 -6.25,0 0,147.49999 6.25,0 0,-147.49999 z" />
      <g
         transform="matrix(1.25,0,0,-1.25,915.76694,530.61142)"
         id="g612">
        <path
           inkscape:connector-curvature="0"
           id="path614"
           style="fill:#4caa15;fill-opacity:1;fill-rule:nonzero;stroke:none"
           d="m 0,0 c 0,-9.721 -8.398,-17.603 -18.756,-17.603 -10.357,0 -18.751,7.882 -18.751,17.603 0,9.72 8.394,77.403 18.751,77.403 C -8.398,77.403 0,9.72 0,0" />
      </g>
      <g
         transform="matrix(1.25,0,0,-1.25,896.80332,552.55604)"
         id="g616">
        <path
           inkscape:connector-curvature="0"
           id="path618"
           style="fill:#72c63c;fill-opacity:1;fill-rule:nonzero;stroke:none"
           d="M 0,0 C 8.644,0 14.811,8.844 14.811,17.414 14.811,27.137 7.7,94.958 -4.3,94.958 L -4.3,0 0,0 Z" />
      </g>
      <g
         transform="matrix(1.25,0,0,-1.25,892.67857,591.74663)"
         id="g620">
        <path
           inkscape:connector-curvature="0"
           id="path622"
           style="fill:#c39467;fill-opacity:1;fill-rule:nonzero;stroke:none"
           d="m 0,0 0,3.466 c 13,0 20.083,2.609 24.31,7.757 4.169,5.08 3.303,10.863 3.254,11.106 l 3.509,0.694 C 31.136,22.719 32.172,15.46 26.977,9.078 22.072,3.054 14,0 0,0" />
      </g>
      <g
         transform="matrix(1.25,0,0,-1.25,940.48007,559.72642)"
         id="g624">
        <path
           inkscape:connector-curvature="0"
           id="path626"
           style="fill:#4caa15;fill-opacity:1;fill-rule:nonzero;stroke:none"
           d="m 0,0 c 0,-4.514 -3.9,-8.175 -8.709,-8.175 -4.812,0 -8.71,3.661 -8.71,8.175 0,4.514 3.898,35.946 8.71,35.946 C -3.9,35.946 0,4.514 0,0" />
      </g>
      <g
         transform="matrix(1.25,0,0,-1.25,931.67269,570.05603)"
         id="g628">
        <path
           inkscape:connector-curvature="0"
           id="path630"
           style="fill:#72c63c;fill-opacity:1;fill-rule:nonzero;stroke:none"
           d="m 0,0 c 4.015,0 7.279,4.162 7.279,8.141 0,4.517 -3.474,36.069 -8.474,36.069 L -1.195,0 0,0 Z" />
      </g>
      <g
         transform="matrix(1.25,0,0,-1.25,895.17857,617.74283)"
         id="g632">
        <path
           inkscape:connector-curvature="0"
           id="path634"
           style="fill:#c39467;fill-opacity:1;fill-rule:nonzero;stroke:none"
           d="m 0,0 c -12,0 -21.756,3.056 -26.662,9.079 -5.195,6.382 -3.807,13.641 -3.744,13.945 l 3.375,-0.701 -1.706,0.351 1.693,-0.344 c -0.05,-0.243 -1.062,-6.026 3.107,-11.107 C -19.711,6.076 -12,3.467 0,3.467 L 0,0 Z" />
      </g>
      <g
         transform="matrix(1.25,0,0,-1.25,848.30357,585.72253)"
         id="g636">
        <path
           inkscape:connector-curvature="0"
           id="path638"
           style="fill:#4caa15;fill-opacity:1;fill-rule:nonzero;stroke:none"
           d="m 0,0 c 0,-4.514 3.899,-8.174 8.709,-8.174 4.812,0 8.709,3.66 8.709,8.174 0,4.514 -3.897,35.946 -8.709,35.946 C 3.899,35.946 0,4.514 0,0" />
      </g>
      <g
         transform="matrix(1.25,0,0,-1.25,857.11094,596.30603)"
         id="g640">
        <path
           inkscape:connector-curvature="0"
           id="path642"
           style="fill:#72c63c;fill-opacity:1;fill-rule:nonzero;stroke:none"
           d="m 0,0 c -4.015,0 -6.649,4.265 -6.649,8.243 0,4.516 4.103,36.17 9.103,36.17 L 2.454,0 0,0 Z" />
      </g>
      <g
         transform="matrix(1.25,0,0,-1.25,651.64707,650.05603)"
         id="g854">
        <path
           inkscape:connector-curvature="0"
           id="path856"
           style="fill:#b5c614;fill-opacity:1;fill-rule:nonzero;stroke:none"
           d="m 0,0 -50.662,0 c 0,0 1.887,2.335 4.131,3.324 0,0 -2.066,1.659 -4.131,1.212 0,0 1.078,3.033 4.85,3.66 0,0 -3.953,-0.235 -5.48,2.01 0,0 2.516,0.196 4.941,1.724 0,0 -2.222,2.008 -4.445,1.468 0,0 1.684,2.766 5.253,2.766 0,0 -1.278,1.149 -2.964,0.879 0,0 1.416,2.561 6.132,2.763 0,0 -0.606,1.685 -2.224,1.956 0,0 2.29,3.097 6.939,2.76 0,0 -0.203,2.425 -2.426,2.56 0,0 2.83,2.156 5.997,0.405 0,0 0,3.571 -1.279,3.84 0,0 2.829,-0.673 4.31,-2.763 0,0 1.55,1.55 0.27,3.1 0,0 2.695,-1.213 2.896,-3.976 0,0 1.685,3.033 1.146,5.122 0,0 2.088,-0.608 2.426,-3.167 0,0 0.539,1.819 2.223,2.425 0,0 -0.202,-1.414 0.336,-2.896 0,0 1.01,1.751 3.504,2.762 0,0 -0.404,-0.81 -0.404,-2.83 0,0 1.752,1.75 4.042,1.954 0,0 -0.741,-2.831 -0.741,-3.774 0,0 2.425,1.011 4.985,0.673 0,0 -0.674,-0.875 -1.481,-2.625 0,0 3.233,0.47 7.208,-2.966 0,0 -2.224,-1.01 -2.831,-1.683 0,0 3.707,-0.472 6.467,-2.898 0,0 -2.627,-0.336 -3.636,-1.112 0,0 4.042,-0.504 5.254,-3.469 0,0 -3.166,0.538 -4.11,-1.144 0,0 1.55,0 4.447,-2.831 0,0 -3.099,0.068 -4.447,-1.144 0,0 2.83,-0.338 4.447,-2.897 0,0 -2.628,-0.473 -4.043,-1.954 0,0 2.494,0 3.1,-3.234" />
      </g>
      <g
         transform="matrix(1.25,0,0,-1.25,642.39295,647.55603)"
         id="g858">
        <path
           inkscape:connector-curvature="0"
           id="path860"
           style="fill:#c8ce49;fill-opacity:1;fill-rule:nonzero;stroke:none"
           d="m 0,0 -35.764,0 c 0,0 1.332,1.98 2.917,2.68 0,0 -1.458,1.341 -2.917,1.024 0,0 0.76,2.225 3.424,2.669 0,0 -2.789,-0.128 -3.867,1.457 0,0 1.775,0.161 3.487,1.238 0,0 -1.569,1.43 -3.138,1.048 0,0 1.188,1.957 3.71,1.957 0,0 -0.904,0.815 -2.093,0.625 0,0 0.998,1.806 4.327,1.948 0,0 -0.427,1.193 -1.569,1.383 0,0 1.617,2.188 4.899,1.95 0,0 -0.145,1.711 -1.713,1.807 0,0 1.998,1.523 4.233,0.285 0,0 0,2.52 -0.905,2.713 0,0 1.998,-0.477 3.045,-1.951 0,0 1.093,1.093 0.191,2.188 0,0 1.902,-0.857 2.044,-2.805 0,0 1.19,2.138 0.81,3.614 0,0 1.473,-0.429 1.711,-2.236 0,0 0.38,1.285 1.569,1.712 0,0 -0.142,-0.999 0.238,-2.045 0,0 0.713,1.235 2.472,1.951 0,0 -0.285,-0.57 -0.285,-1.999 0,0 1.237,1.236 2.856,1.378 0,0 -0.526,-1.995 -0.526,-2.662 0,0 1.713,0.714 3.521,0.476 0,0 -0.476,-0.619 -1.046,-1.854 0,0 2.281,0.332 5.088,-2.093 0,0 -1.57,-0.714 -1.997,-1.188 0,0 2.615,-0.335 4.565,-2.047 0,0 -1.855,-0.238 -2.568,-0.785 0,0 2.853,-0.355 3.71,-2.448 0,0 -2.236,0.381 -2.902,-0.808 0,0 1.094,0 3.139,-1.998 0,0 -2.187,0.047 -3.139,-0.808 0,0 1.997,-0.239 3.139,-2.046 0,0 -1.854,-0.668 -2.854,-1.715 0,0 1.76,1.385 2.188,-2.615" />
      </g>
      <g
         transform="matrix(1.25,0,0,-1.25,1067.8971,650.05603)"
         id="g862">
        <path
           inkscape:connector-curvature="0"
           id="path864"
           style="fill:#b5c614;fill-opacity:1;fill-rule:nonzero;stroke:none"
           d="m 0,0 -50.662,0 c 0,0 1.887,2.335 4.131,3.324 0,0 -2.066,1.659 -4.131,1.212 0,0 1.078,3.033 4.85,3.66 0,0 -3.953,-0.235 -5.48,2.01 0,0 2.516,0.196 4.941,1.724 0,0 -2.222,2.008 -4.445,1.468 0,0 1.684,2.766 5.253,2.766 0,0 -1.278,1.149 -2.964,0.879 0,0 1.416,2.561 6.132,2.763 0,0 -0.606,1.685 -2.224,1.956 0,0 2.29,3.097 6.939,2.76 0,0 -0.203,2.425 -2.426,2.56 0,0 2.83,2.156 5.997,0.405 0,0 0,3.571 -1.279,3.84 0,0 2.829,-0.673 4.31,-2.763 0,0 1.55,1.55 0.27,3.1 0,0 2.695,-1.213 2.896,-3.976 0,0 1.685,3.033 1.146,5.122 0,0 2.088,-0.608 2.426,-3.167 0,0 0.539,1.819 2.223,2.425 0,0 -0.202,-1.414 0.336,-2.896 0,0 1.01,1.751 3.504,2.762 0,0 -0.404,-0.81 -0.404,-2.83 0,0 1.752,1.75 4.042,1.954 0,0 -0.741,-2.831 -0.741,-3.774 0,0 2.425,1.011 4.985,0.673 0,0 -0.674,-0.875 -1.481,-2.625 0,0 3.233,0.47 7.208,-2.966 0,0 -2.224,-1.01 -2.831,-1.683 0,0 3.707,-0.472 6.467,-2.898 0,0 -2.627,-0.336 -3.636,-1.112 0,0 4.042,-0.504 5.254,-3.469 0,0 -3.166,0.538 -4.11,-1.144 0,0 1.55,0 4.447,-2.831 0,0 -3.099,0.068 -4.447,-1.144 0,0 2.83,-0.338 4.447,-2.897 0,0 -2.628,-0.473 -4.043,-1.954 0,0 2.494,0 3.1,-3.234" />
      </g>
      <g
         transform="matrix(1.25,0,0,-1.25,1058.6429,647.55603)"
         id="g866">
        <path
           inkscape:connector-curvature="0"
           id="path868"
           style="fill:#c8ce49;fill-opacity:1;fill-rule:nonzero;stroke:none"
           d="m 0,0 -35.764,0 c 0,0 1.332,1.98 2.917,2.68 0,0 -1.458,1.341 -2.917,1.024 0,0 0.76,2.225 3.424,2.669 0,0 -2.789,-0.128 -3.867,1.457 0,0 1.775,0.161 3.487,1.238 0,0 -1.569,1.43 -3.138,1.048 0,0 1.188,1.957 3.71,1.957 0,0 -0.904,0.815 -2.093,0.625 0,0 0.998,1.806 4.327,1.948 0,0 -0.427,1.193 -1.569,1.383 0,0 1.617,2.188 4.899,1.95 0,0 -0.145,1.711 -1.713,1.807 0,0 1.998,1.523 4.233,0.285 0,0 0,2.52 -0.905,2.713 0,0 1.998,-0.477 3.045,-1.951 0,0 1.093,1.093 0.191,2.188 0,0 1.902,-0.857 2.044,-2.805 0,0 1.19,2.138 0.81,3.614 0,0 1.473,-0.429 1.711,-2.236 0,0 0.38,1.285 1.569,1.712 0,0 -0.142,-0.999 0.238,-2.045 0,0 0.713,1.235 2.472,1.951 0,0 -0.285,-0.57 -0.285,-1.999 0,0 1.237,1.236 2.856,1.378 0,0 -0.526,-1.995 -0.526,-2.662 0,0 1.713,0.714 3.521,0.476 0,0 -0.476,-0.619 -1.046,-1.854 0,0 2.281,0.332 5.088,-2.093 0,0 -1.57,-0.714 -1.997,-1.188 0,0 2.615,-0.335 4.565,-2.047 0,0 -1.855,-0.238 -2.568,-0.785 0,0 2.853,-0.355 3.71,-2.448 0,0 -2.236,0.381 -2.902,-0.808 0,0 1.094,0 3.139,-1.998 0,0 -2.187,0.047 -3.139,-0.808 0,0 1.997,-0.239 3.139,-2.046 0,0 -1.854,-0.668 -2.854,-1.715 0,0 1.76,1.385 2.188,-2.615" />
      </g>
      <path
         inkscape:connector-curvature="0"
         id="path880"
         style="fill:#c39467;fill-opacity:1;fill-rule:nonzero;stroke:none"
         d="m 982.67857,605.05603 -6.25,0 0,46.25 6.25,0 0,-46.25 z" />
      <g
         transform="matrix(1.25,0,0,-1.25,1014.5377,571.90413)"
         id="g882">
        <path
           inkscape:connector-curvature="0"
           id="path884"
           style="fill:#80ad12;fill-opacity:1;fill-rule:nonzero;stroke:none"
           d="m 0,0 c 0,-15.262 -12.372,-27.636 -27.635,-27.636 -15.262,0 -27.635,12.374 -27.635,27.636 0,15.262 12.373,27.635 27.635,27.635 C -12.372,27.635 0,15.262 0,0" />
      </g>
      <g
         transform="matrix(1.25,0,0,-1.25,980.17857,537.37166)"
         id="g886">
        <path
           inkscape:connector-curvature="0"
           id="path888"
           style="fill:#91c60e;fill-opacity:1;fill-rule:nonzero;stroke:none"
           d="m 0,0 0,-55.253 c 15,0.179 27.302,12.475 27.302,27.627 C 27.302,-12.476 15,-0.179 0,0" />
      </g>
      <path
         inkscape:connector-curvature="0"
         id="path890"
         style="fill:#c39467;fill-opacity:1;fill-rule:nonzero;stroke:none"
         d="m 1155.1786,615.05603 -3.75,0 0,36.25 3.75,0 0,-36.25 z" />
      <g
         transform="matrix(1.25,0,0,-1.25,1180.5802,589.38213)"
         id="g892">
        <path
           inkscape:connector-curvature="0"
           id="path894"
           style="fill:#80ad12;fill-opacity:1;fill-rule:nonzero;stroke:none"
           d="m 0,0 c 0,-11.902 -9.648,-21.553 -21.552,-21.553 -11.903,0 -21.552,9.651 -21.552,21.553 0,11.902 9.649,21.552 21.552,21.552 C -9.648,21.552 0,11.902 0,0" />
      </g>
      <g
         transform="matrix(1.25,0,0,-1.25,1153.9286,562.45104)"
         id="g896">
        <path
           inkscape:connector-curvature="0"
           id="path898"
           style="fill:#91c60e;fill-opacity:1;fill-rule:nonzero;stroke:none"
           d="m 0,0 0,-43.091 c 12,0.14 21.292,9.73 21.292,21.546 C 21.292,-9.729 12,-0.139 0,0" />
      </g>
      <path
         inkscape:connector-curvature="0"
         id="path910"
         style="fill:#c39467;fill-opacity:1;fill-rule:nonzero;stroke:none"
         d="m 422.67857,645.05603 -1.25,0 0,-40 1.25,0 0,40 z" />
      <g
         transform="matrix(1.25,0,0,-1.25,426.42857,611.64053)"
         id="g912">
        <path
           inkscape:connector-curvature="0"
           id="path914"
           style="fill:#6a8909;fill-opacity:1;fill-rule:nonzero;stroke:none"
           d="m 0,0 c 0,-0.957 -0.775,-1.732 -1.732,-1.732 l -2.536,0 C -5.225,-1.732 -6,-0.957 -6,0 l 0,9.535 c 0,0.957 0.775,1.733 1.732,1.733 l 2.536,0 C -0.775,11.268 0,10.492 0,9.535 L 0,0 Z" />
      </g>
      <g
         transform="matrix(1.25,0,0,-1.25,423.66244,597.55603)"
         id="g916">
        <path
           inkscape:connector-curvature="0"
           id="path918"
           style="fill:#8db708;fill-opacity:1;fill-rule:nonzero;stroke:none"
           d="m 0,0 -0.787,0 0,-13 0.787,0 c 0.953,0 2.213,0.794 2.213,1.747 l 0,9.237 C 2.213,-1.063 0.953,0 0,0" />
      </g>
      <path
         inkscape:connector-curvature="0"
         id="path920"
         style="fill:#c39467;fill-opacity:1;fill-rule:nonzero;stroke:none"
         d="m 921.42857,645.05603 -1.25,0 0,-40 1.25,0 0,40 z" />
      <g
         transform="matrix(1.25,0,0,-1.25,925.17857,611.64053)"
         id="g922">
        <path
           inkscape:connector-curvature="0"
           id="path924"
           style="fill:#6a8909;fill-opacity:1;fill-rule:nonzero;stroke:none"
           d="m 0,0 c 0,-0.957 -0.775,-1.732 -1.732,-1.732 l -2.536,0 C -5.225,-1.732 -6,-0.957 -6,0 l 0,9.535 c 0,0.957 0.775,1.733 1.732,1.733 l 2.536,0 C -0.775,11.268 0,10.492 0,9.535 L 0,0 Z" />
      </g>
      <g
         transform="matrix(1.25,0,0,-1.25,922.41244,597.55603)"
         id="g926">
        <path
           inkscape:connector-curvature="0"
           id="path928"
           style="fill:#8db708;fill-opacity:1;fill-rule:nonzero;stroke:none"
           d="m 0,0 -0.787,0 0,-13 0.787,0 c 0.953,0 2.213,0.794 2.213,1.747 l 0,9.237 C 2.213,-1.063 0.953,0 0,0" />
      </g>
      <path
         inkscape:connector-curvature="0"
         id="path930"
         style="fill:#c39467;fill-opacity:1;fill-rule:nonzero;stroke:none"
         d="m 938.92857,651.30603 -1.25,0 0,-27.5 1.25,0 0,27.5 z" />
      <g
         transform="matrix(1.25,0,0,-1.25,942.67857,628.55093)"
         id="g932">
        <path
           inkscape:connector-curvature="0"
           id="path934"
           style="fill:#6a8909;fill-opacity:1;fill-rule:nonzero;stroke:none"
           d="m 0,0 c 0,-0.665 -0.775,-1.204 -1.732,-1.204 l -2.536,0 C -5.225,-1.204 -6,-0.665 -6,0 l 0,6.592 c 0,0.665 0.775,1.204 1.732,1.204 l 2.536,0 C -0.775,7.796 0,7.257 0,6.592 L 0,0 Z" />
      </g>
      <g
         transform="matrix(1.25,0,0,-1.25,939.91244,618.80603)"
         id="g936">
        <path
           inkscape:connector-curvature="0"
           id="path938"
           style="fill:#8db708;fill-opacity:1;fill-rule:nonzero;stroke:none"
           d="m 0,0 -0.787,0 0,-9 L 0,-9 c 0.953,0 2.213,0.923 2.213,1.585 l 0,6.419 C 2.213,-0.334 0.953,0 0,0" />
      </g>
      <path
         inkscape:connector-curvature="0"
         id="path940"
         style="fill:#c39467;fill-opacity:1;fill-rule:nonzero;stroke:none"
         d="m 268.92857,650.05603 -1.25,0 0,-40 1.25,0 0,40 z" />
      <g
         transform="matrix(1.25,0,0,-1.25,272.67857,616.64053)"
         id="g942">
        <path
           inkscape:connector-curvature="0"
           id="path944"
           style="fill:#6a8909;fill-opacity:1;fill-rule:nonzero;stroke:none"
           d="m 0,0 c 0,-0.957 -0.775,-1.732 -1.732,-1.732 l -2.536,0 C -5.225,-1.732 -6,-0.957 -6,0 l 0,9.535 c 0,0.957 0.775,1.733 1.732,1.733 l 2.536,0 C -0.775,11.268 0,10.492 0,9.535 L 0,0 Z" />
      </g>
      <g
         transform="matrix(1.25,0,0,-1.25,269.91245,602.55603)"
         id="g946">
        <path
           inkscape:connector-curvature="0"
           id="path948"
           style="fill:#8db708;fill-opacity:1;fill-rule:nonzero;stroke:none"
           d="m 0,0 -0.787,0 0,-13 0.787,0 c 0.953,0 2.213,0.794 2.213,1.747 l 0,9.237 C 2.213,-1.063 0.953,0 0,0" />
      </g>
      <g
         transform="matrix(1.25,0,0,-1.25,680.60332,621.30603)"
         id="g1374">
        <path
           inkscape:connector-curvature="0"
           id="path1376"
           style="fill:#90492d;fill-opacity:1;fill-rule:nonzero;stroke:none"
           d="M 0,0 C -0.032,6 -5.121,11.345 -11.399,11.345 -17.677,11.345 -22.767,6 -22.799,0 L 0,0 Z" />
      </g>
      <g
         transform="matrix(1.25,0,0,-1.25,666.42857,621.30603)"
         id="g1378">
        <path
           inkscape:connector-curvature="0"
           id="path1380"
           style="fill:#b06010;fill-opacity:1;fill-rule:nonzero;stroke:none"
           d="M 0,0 11.34,0 C 11.309,6 7,11.138 0,11.288 L 0,0 Z" />
      </g>
      <path
         inkscape:connector-curvature="0"
         id="path1382"
         style="fill:#c39467;fill-opacity:1;fill-rule:nonzero;stroke:none"
         d="m 668.92857,643.80603 -5,0 0,-22.5 5,0 0,22.5 z" />
      <g
         transform="matrix(1.25,0,0,-1.25,662.03032,616.01683)"
         id="g1384">
        <path
           inkscape:connector-curvature="0"
           id="path1386"
           style="fill:#ffffff;fill-opacity:1;fill-rule:nonzero;stroke:none"
           d="m 0,0 c 0,-0.985 -0.798,-1.784 -1.784,-1.784 -0.986,0 -1.784,0.799 -1.784,1.784 0,0.985 0.798,1.784 1.784,1.784 C -0.798,1.784 0,0.985 0,0" />
      </g>
      <g
         transform="matrix(1.25,0,0,-1.25,670.26407,613.03583)"
         id="g1388">
        <path
           inkscape:connector-curvature="0"
           id="path1390"
           style="fill:#ffffff;fill-opacity:1;fill-rule:nonzero;stroke:none"
           d="m 0,0 c 0,-0.631 -0.511,-1.142 -1.141,-1.142 -0.63,0 -1.14,0.511 -1.14,1.142 0,0.631 0.51,1.141 1.14,1.141 C -0.511,1.141 0,0.631 0,0" />
      </g>
      <g
         transform="matrix(1.25,0,0,-1.25,675.6107,617.22153)"
         id="g1392">
        <path
           inkscape:connector-curvature="0"
           id="path1394"
           style="fill:#ffffff;fill-opacity:1;fill-rule:nonzero;stroke:none"
           d="m 0,0 c 0,-0.809 -0.655,-1.463 -1.464,-1.463 -0.807,0 -1.462,0.654 -1.462,1.463 0,0.808 0.655,1.462 1.462,1.462 C -0.655,1.462 0,0.808 0,0" />
      </g>
      <g
         transform="matrix(1.25,0,0,-1.25,251.85332,621.30603)"
         id="g1396">
        <path
           inkscape:connector-curvature="0"
           id="path1398"
           style="fill:#90492d;fill-opacity:1;fill-rule:nonzero;stroke:none"
           d="M 0,0 C -0.032,6 -5.121,11.345 -11.399,11.345 -17.677,11.345 -22.767,6 -22.799,0 L 0,0 Z" />
      </g>
      <g
         transform="matrix(1.25,0,0,-1.25,237.67857,621.30603)"
         id="g1400">
        <path
           inkscape:connector-curvature="0"
           id="path1402"
           style="fill:#b06010;fill-opacity:1;fill-rule:nonzero;stroke:none"
           d="M 0,0 11.34,0 C 11.309,6 7,11.138 0,11.288 L 0,0 Z" />
      </g>
      <path
         inkscape:connector-curvature="0"
         id="path1404"
         style="fill:#c39467;fill-opacity:1;fill-rule:nonzero;stroke:none"
         d="m 240.17857,643.80603 -5,0 0,-22.5 5,0 0,22.5 z" />
      <g
         transform="matrix(1.25,0,0,-1.25,233.28032,616.01683)"
         id="g1406">
        <path
           inkscape:connector-curvature="0"
           id="path1408"
           style="fill:#ffffff;fill-opacity:1;fill-rule:nonzero;stroke:none"
           d="m 0,0 c 0,-0.985 -0.798,-1.784 -1.784,-1.784 -0.986,0 -1.784,0.799 -1.784,1.784 0,0.985 0.798,1.784 1.784,1.784 C -0.798,1.784 0,0.985 0,0" />
      </g>
      <g
         transform="matrix(1.25,0,0,-1.25,241.51407,613.03583)"
         id="g1410">
        <path
           inkscape:connector-curvature="0"
           id="path1412"
           style="fill:#ffffff;fill-opacity:1;fill-rule:nonzero;stroke:none"
           d="m 0,0 c 0,-0.631 -0.511,-1.142 -1.141,-1.142 -0.63,0 -1.14,0.511 -1.14,1.142 0,0.631 0.51,1.141 1.14,1.141 C -0.511,1.141 0,0.631 0,0" />
      </g>
      <g
         transform="matrix(1.25,0,0,-1.25,246.8607,617.22153)"
         id="g1414">
        <path
           inkscape:connector-curvature="0"
           id="path1416"
           style="fill:#ffffff;fill-opacity:1;fill-rule:nonzero;stroke:none"
           d="m 0,0 c 0,-0.809 -0.655,-1.463 -1.464,-1.463 -0.807,0 -1.462,0.654 -1.462,1.463 0,0.808 0.655,1.462 1.462,1.462 C -0.655,1.462 0,0.808 0,0" />
      </g>
      <g
         transform="matrix(1.25,0,0,-1.25,703.31032,627.55603)"
         id="g1418">
        <path
           inkscape:connector-curvature="0"
           id="path1420"
           style="fill:#90492d;fill-opacity:1;fill-rule:nonzero;stroke:none"
           d="M 0,0 C -0.023,4 -3.586,7.944 -7.982,7.944 -12.378,7.944 -15.942,4 -15.964,0 L 0,0 Z" />
      </g>
      <g
         transform="matrix(1.25,0,0,-1.25,693.92857,627.55603)"
         id="g1422">
        <path
           inkscape:connector-curvature="0"
           id="path1424"
           style="fill:#b06010;fill-opacity:1;fill-rule:nonzero;stroke:none"
           d="M 0,0 7.505,0 C 7.483,4 4,7.402 0,7.508 L 0,0 Z" />
      </g>
      <path
         inkscape:connector-curvature="0"
         id="path1426"
         style="fill:#c39467;fill-opacity:1;fill-rule:nonzero;stroke:none"
         d="m 695.17857,643.80603 -3.75,0 0,-16.25 3.75,0 0,16.25 z" />
      <g
         transform="matrix(1.25,0,0,-1.25,690.30494,624.34803)"
         id="g1428">
        <path
           inkscape:connector-curvature="0"
           id="path1430"
           style="fill:#ffffff;fill-opacity:1;fill-rule:nonzero;stroke:none"
           d="m 0,0 c 0,-0.689 -0.559,-1.249 -1.25,-1.249 -0.689,0 -1.249,0.56 -1.249,1.249 0,0.69 0.56,1.25 1.249,1.25 C -0.559,1.25 0,0.69 0,0" />
      </g>
      <g
         transform="matrix(1.25,0,0,-1.25,696.07032,622.26063)"
         id="g1432">
        <path
           inkscape:connector-curvature="0"
           id="path1434"
           style="fill:#ffffff;fill-opacity:1;fill-rule:nonzero;stroke:none"
           d="m 0,0 c 0,-0.441 -0.358,-0.799 -0.799,-0.799 -0.442,0 -0.799,0.358 -0.799,0.799 0,0.442 0.357,0.799 0.799,0.799 C -0.358,0.799 0,0.442 0,0" />
      </g>
      <g
         transform="matrix(1.25,0,0,-1.25,699.81419,625.19153)"
         id="g1436">
        <path
           inkscape:connector-curvature="0"
           id="path1438"
           style="fill:#ffffff;fill-opacity:1;fill-rule:nonzero;stroke:none"
           d="m 0,0 c 0,-0.565 -0.459,-1.024 -1.025,-1.024 -0.566,0 -1.024,0.459 -1.024,1.024 0,0.565 0.458,1.024 1.024,1.024 C -0.459,1.024 0,0.565 0,0" />
      </g>
      <g
         id="g1536"
         transform="matrix(1.25,0,0,-1.25,211.42857,986.30606)">
        <g
           clip-path="url(#clipPath1540)"
           id="g1538">
          <g
             transform="translate(860.2549,266)"
             id="g1544">
            <path
               inkscape:connector-curvature="0"
               id="path1546"
               style="fill:#c2d23d;fill-opacity:1;fill-rule:nonzero;stroke:none"
               d="m 0,0 -4.185,20.439 -3.563,-13.128 -1.7,18.19 -4.535,-21.044 -2.647,9.32 -3.211,-9.416 -3.779,16.264 -3.213,-15.674 -2.645,6.807 -2.267,-6.613 -2.647,2.079 -1.888,-2.455 -4.725,13.227 -3.969,-12.661 -2.267,6.612 -6.803,-6.422 -5.478,19.274 -3.024,-15.872 -4.535,7.746 -5.67,-10.014 -4.534,14.525 L -84.655,0 -81.798,0 0,0 Z" />
          </g>
          <g
             transform="translate(774.7324,278.5625)"
             id="g1548">
            <path
               inkscape:connector-curvature="0"
               id="path1550"
               style="fill:#c2d23d;fill-opacity:1;fill-rule:nonzero;stroke:none"
               d="m 0,0 -2.432,-11.718 -5.244,14.787 -3.742,-9.92 -1.496,2.527 -3.559,-3.461 -3.93,15.91 -3.37,-16.287 -2.247,8.162 -3.931,-8.162 -2.622,11.607 -3.929,-11.607 -2.808,6.364 -3.184,-6.364 -4.681,14.601 -3.742,-14.787 -3.557,8.348 -2.247,-7.974 -3.556,4.117 -4.868,-4.868 -3.181,15.727 -5.992,-18.72 L 3.135,-12.896 0,0 Z" />
          </g>
          <g
             transform="translate(703.7969,266)"
             id="g1552">
            <path
               inkscape:connector-curvature="0"
               id="path1554"
               style="fill:#c2d23d;fill-opacity:1;fill-rule:nonzero;stroke:none"
               d="m 0,0 -4.185,20.439 -3.563,-13.128 -1.7,18.19 -4.534,-21.044 -2.647,9.32 -3.211,-9.416 -3.78,16.264 -3.213,-15.674 -2.644,6.807 -2.267,-6.613 -2.647,2.079 -1.888,-2.455 -4.726,13.227 -3.968,-12.661 -2.267,6.612 -6.803,-6.422 -5.478,19.274 -3.025,-15.872 -4.535,7.746 L -72.75,6.659 -77.285,21.184 -84.654,0 -81.798,0 0,0 Z" />
          </g>
          <g
             transform="translate(618.2744,278.5625)"
             id="g1556">
            <path
               inkscape:connector-curvature="0"
               id="path1558"
               style="fill:#c2d23d;fill-opacity:1;fill-rule:nonzero;stroke:none"
               d="m 0,0 -2.431,-11.718 -5.244,14.787 -3.742,-9.92 -1.497,2.527 -3.558,-3.461 -3.931,15.91 -3.369,-16.287 -2.247,8.162 -3.932,-8.162 -2.622,11.607 -3.928,-11.607 -2.809,6.364 -3.183,-6.364 -4.682,14.601 -3.742,-14.787 -3.557,8.348 -2.247,-7.974 -3.555,4.117 -4.868,-4.868 -3.181,15.727 -5.992,-18.72 L 3.136,-12.896 0,0 Z" />
          </g>
          <g
             transform="translate(547.3398,266)"
             id="g1560">
            <path
               inkscape:connector-curvature="0"
               id="path1562"
               style="fill:#c2d23d;fill-opacity:1;fill-rule:nonzero;stroke:none"
               d="m 0,0 -4.186,20.439 -3.562,-13.128 -1.701,18.19 -4.534,-21.044 -2.647,9.32 -3.21,-9.416 -3.781,16.264 -3.213,-15.674 -2.644,6.807 -2.266,-6.613 -2.647,2.079 -1.888,-2.455 -4.727,13.227 -3.968,-12.661 -2.266,6.612 -6.803,-6.422 -5.478,19.274 -3.026,-15.872 -4.535,7.746 L -72.75,6.659 -77.285,21.184 -84.654,0 -81.799,0 0,0 Z" />
          </g>
          <g
             transform="translate(461.8174,278.5625)"
             id="g1564">
            <path
               inkscape:connector-curvature="0"
               id="path1566"
               style="fill:#c2d23d;fill-opacity:1;fill-rule:nonzero;stroke:none"
               d="m 0,0 -2.432,-11.718 -5.243,14.787 -3.742,-9.92 -1.498,2.527 -3.558,-3.461 -3.93,15.91 -3.37,-16.287 -2.246,8.162 -3.933,-8.162 -2.621,11.607 -3.928,-11.607 -2.809,6.364 -3.183,-6.364 -4.682,14.601 -3.742,-14.787 -3.557,8.348 -2.247,-7.974 -3.556,4.117 -4.868,-4.868 -3.181,15.727 -5.992,-18.72 L 3.136,-12.896 0,0 Z" />
          </g>
          <g
             transform="translate(390.8823,266)"
             id="g1568">
            <path
               inkscape:connector-curvature="0"
               id="path1570"
               style="fill:#c2d23d;fill-opacity:1;fill-rule:nonzero;stroke:none"
               d="m 0,0 -4.185,20.439 -3.563,-13.128 -1.701,18.19 -4.534,-21.044 -2.647,9.32 -3.21,-9.416 -3.781,16.264 -3.212,-15.674 -2.645,6.807 -2.267,-6.613 -2.646,2.079 -1.889,-2.455 -4.725,13.227 -3.968,-12.661 -2.268,6.612 -6.802,-6.422 -5.996,24.457 -2.507,-21.055 -4.536,7.746 L -72.75,6.659 -77.285,21.184 -84.655,0 -81.798,0 0,0 Z" />
          </g>
          <g
             transform="translate(305.3599,278.5625)"
             id="g1572">
            <path
               inkscape:connector-curvature="0"
               id="path1574"
               style="fill:#c2d23d;fill-opacity:1;fill-rule:nonzero;stroke:none"
               d="m 0,0 -2.432,-11.718 -5.243,14.787 -3.742,-9.92 -1.498,2.527 -3.558,-3.461 -3.93,15.91 -3.37,-16.287 -2.246,8.162 -3.933,-8.162 -3.039,20.183 -3.51,-20.183 -2.809,6.364 -3.184,-6.364 -4.681,14.601 -3.742,-14.787 -3.556,8.348 -2.248,-7.974 -3.556,4.117 -4.868,-4.868 -3.181,15.727 -5.992,-18.72 L 3.135,-12.896 0,0 Z" />
          </g>
          <g
             transform="translate(234.4248,266)"
             id="g1576">
            <path
               inkscape:connector-curvature="0"
               id="path1578"
               style="fill:#c2d23d;fill-opacity:1;fill-rule:nonzero;stroke:none"
               d="m 0,0 -4.185,20.439 -3.563,-13.128 -1.7,18.19 -4.535,-21.044 -2.646,9.32 -3.211,-9.416 -3.929,21.14 -3.064,-20.55 -2.645,6.807 -2.267,-6.613 -2.646,2.079 -1.889,-2.455 -4.725,13.227 -3.968,-12.661 -2.268,6.612 -6.802,-6.422 -5.71,21.757 -2.793,-18.355 -4.536,7.746 L -72.75,6.659 -77.285,21.184 -84.655,0 -81.798,0 0,0 Z" />
          </g>
          <g
             transform="translate(148.9023,278.5625)"
             id="g1580">
            <path
               inkscape:connector-curvature="0"
               id="path1582"
               style="fill:#c2d23d;fill-opacity:1;fill-rule:nonzero;stroke:none"
               d="m 0,0 -2.432,-11.718 -5.013,23.739 -3.972,-18.872 -1.497,2.527 -3.559,-3.461 -3.93,15.91 -3.37,-16.287 -2.246,8.162 -3.933,-8.162 -2.621,11.607 -3.928,-11.607 -2.809,6.364 -3.184,-6.364 -4.681,14.601 -3.742,-14.787 -3.556,8.348 -2.248,-7.974 -3.556,4.117 -4.868,-4.868 -3.181,15.727 -5.992,-18.72 L 3.135,-12.896 0,0 Z" />
          </g>
          <g
             transform="translate(-15,272.8936)"
             id="g1584">
            <path
               inkscape:connector-curvature="0"
               id="path1586"
               style="fill:#c2d23d;fill-opacity:1;fill-rule:nonzero;stroke:none"
               d="m 0,0 6.661,9.638 4.258,-11.581 4.763,11.532 4.535,-9.823 5.669,5.478 4.535,-5.478 3.025,13.604 5.478,-14.738 4.535,8.689 4.535,-8.88 3.968,12.662 4.726,-13.228 1.888,2.455 2.647,-2.079 2.267,6.612 2.644,-6.806 3.213,15.672 3.78,-16.266 3.211,9.411 2.646,-9.331 4.535,21.022 1.701,-18.232 3.562,13.213 4.185,-20.44 -81.798,0 -2.856,0 L 0,-6.894 0,0 Z" />
          </g>
          <g
             transform="translate(-15,264)"
             id="g1588">
            <path
               inkscape:connector-curvature="0"
               id="path1590"
               style="fill:#a0ad14;fill-opacity:1;fill-rule:nonzero;stroke:none"
               d="m 0,0 4.186,20.673 3.562,-13.015 1.701,18.25 4.534,-21.014 2.646,9.335 3.212,-9.41 3.407,25.667 3.585,-25.072 2.645,6.808 2.267,-6.613 2.646,2.08 L 36.28,5.233 41.004,18.462 44.973,5.8 47.24,12.412 54.042,5.99 59.522,25.264 62.545,9.392 67.081,17.138 72.75,7.124 77.284,30.486 84.654,0 81.798,0 0,0 Z" />
          </g>
          <g
             transform="translate(70.5215,277.0273)"
             id="g1592">
            <path
               inkscape:connector-curvature="0"
               id="path1594"
               style="fill:#a0ad14;fill-opacity:1;fill-rule:nonzero;stroke:none"
               d="m 0,0 2.434,-11.718 5.241,14.787 3.745,-9.92 1.497,2.527 3.557,-3.461 2.755,23.04 4.545,-23.417 2.247,8.162 3.931,-8.162 2.621,11.607 3.931,-11.607 2.808,6.364 3.183,-6.364 4.441,23.417 3.982,-23.603 3.558,8.348 2.246,-7.974 3.556,4.117 4.868,-4.868 3.183,15.727 5.989,-20.029 -77.453,0.131 L 0,0 Z" />
          </g>
          <g
             transform="translate(141.4575,264)"
             id="g1596">
            <path
               inkscape:connector-curvature="0"
               id="path1598"
               style="fill:#a0ad14;fill-opacity:1;fill-rule:nonzero;stroke:none"
               d="m 0,0 4.186,20.673 3.562,-13.015 1.701,18.25 4.535,-21.014 2.644,9.335 3.213,-9.41 3.78,16.268 3.212,-15.673 2.645,6.808 2.267,-6.613 2.646,2.08 L 36.28,5.233 41.004,18.462 44.972,5.8 47.24,12.412 54.042,5.99 59.522,29.799 62.545,9.392 67.081,17.138 72.75,7.124 77.284,21.417 84.654,0 81.798,0 0,0 Z" />
          </g>
          <g
             transform="translate(226.979,277.0273)"
             id="g1600">
            <path
               inkscape:connector-curvature="0"
               id="path1602"
               style="fill:#a0ad14;fill-opacity:1;fill-rule:nonzero;stroke:none"
               d="m 0,0 2.434,-11.718 5.241,14.787 3.744,-9.92 1.498,2.527 3.557,-3.461 2.108,20.342 5.192,-20.719 2.247,8.162 3.931,-8.162 2.621,11.607 3.931,-11.607 2.808,6.364 3.183,-6.364 4.68,14.601 3.743,-14.787 3.558,8.348 2.246,-7.974 3.556,4.117 4.868,-4.868 3.183,15.727 5.989,-18.72 L -3.135,-12.896 0,0 Z" />
          </g>
          <g
             transform="translate(297.915,264)"
             id="g1604">
            <path
               inkscape:connector-curvature="0"
               id="path1606"
               style="fill:#a0ad14;fill-opacity:1;fill-rule:nonzero;stroke:none"
               d="m 0,0 4.186,20.673 3.562,-13.015 3.968,20.518 2.267,-23.282 2.645,9.335 3.213,-9.41 3.78,16.268 3.212,-15.673 2.645,6.808 2.267,-6.613 2.646,2.08 L 36.28,5.233 41.004,18.462 44.972,5.8 47.24,12.412 54.042,5.99 59.522,25.264 62.545,9.392 67.081,17.138 72.75,7.124 76.828,23.966 84.654,0 81.798,0 0,0 Z" />
          </g>
          <g
             transform="translate(383.4365,277.0273)"
             id="g1608">
            <path
               inkscape:connector-curvature="0"
               id="path1610"
               style="fill:#a0ad14;fill-opacity:1;fill-rule:nonzero;stroke:none"
               d="m 0,0 2.434,-11.718 5.241,14.787 3.744,-9.92 1.498,2.527 3.557,-3.461 3.62,20.342 3.68,-20.719 2.247,8.162 3.931,-8.162 2.621,11.607 3.931,-11.607 2.808,6.364 3.183,-6.364 4.68,14.601 3.743,-14.787 3.558,8.348 2.246,-7.974 3.556,4.117 4.868,-4.868 3.183,15.727 5.989,-18.72 L -3.135,-12.896 0,0 Z" />
          </g>
          <g
             transform="translate(454.373,264)"
             id="g1612">
            <path
               inkscape:connector-curvature="0"
               id="path1614"
               style="fill:#a0ad14;fill-opacity:1;fill-rule:nonzero;stroke:none"
               d="m 0,0 4.186,20.673 3.562,-13.015 1.7,18.25 4.534,-21.014 2.646,9.335 3.212,-9.41 3.78,16.268 3.212,-15.673 2.645,6.808 2.267,-6.613 2.647,2.08 1.888,-2.456 4.725,15.496 L 44.972,5.8 47.239,12.412 54.042,5.99 59.521,25.264 62.545,9.392 67.08,17.138 72.748,7.124 77.283,21.417 84.653,0 81.798,0 0,0 Z" />
          </g>
          <g
             transform="translate(539.8945,277.0273)"
             id="g1616">
            <path
               inkscape:connector-curvature="0"
               id="path1618"
               style="fill:#a0ad14;fill-opacity:1;fill-rule:nonzero;stroke:none"
               d="m 0,0 2.434,-11.718 5.241,14.787 3.744,-9.92 3.765,4.794 1.289,-5.728 3.931,15.91 3.369,-16.287 2.248,8.162 3.93,-8.162 2.621,11.607 3.932,-11.607 2.807,6.364 3.183,-6.364 4.68,14.601 3.744,-14.787 3.557,8.348 2.247,-7.974 3.555,4.117 4.868,-4.868 3.183,15.727 5.99,-18.72 L -3.136,-12.896 0,0 Z" />
          </g>
          <g
             transform="translate(610.8301,264)"
             id="g1620">
            <path
               inkscape:connector-curvature="0"
               id="path1622"
               style="fill:#a0ad14;fill-opacity:1;fill-rule:nonzero;stroke:none"
               d="m 0,0 4.186,20.673 3.562,-13.015 1.701,18.25 4.534,-21.014 2.646,9.335 3.211,-9.41 3.781,16.268 3.211,-15.673 2.646,6.808 2.267,-6.613 2.646,2.08 1.888,-2.456 4.725,13.229 L 44.973,5.8 49.508,14.68 54.043,5.99 59.521,25.264 62.545,9.392 67.08,17.138 72.749,7.124 77.284,21.417 84.654,0 81.799,0 0,0 Z" />
          </g>
          <g
             transform="translate(696.3516,277.0273)"
             id="g1624">
            <path
               inkscape:connector-curvature="0"
               id="path1626"
               style="fill:#a0ad14;fill-opacity:1;fill-rule:nonzero;stroke:none"
               d="m 0,0 2.434,-11.718 5.242,14.787 3.744,-9.92 1.496,2.527 3.558,-3.461 3.93,15.91 3.37,-16.287 2.247,8.162 3.93,-8.162 2.622,11.607 3.931,-11.607 2.808,6.364 3.182,-6.364 4.681,14.601 3.743,-14.787 3.558,8.348 2.247,-7.974 3.555,4.117 4.868,-4.868 3.182,15.727 5.99,-18.72 L -3.135,-12.896 0,0 Z" />
          </g>
          <g
             transform="translate(767.2871,264)"
             id="g1628">
            <path
               inkscape:connector-curvature="0"
               id="path1630"
               style="fill:#a0ad14;fill-opacity:1;fill-rule:nonzero;stroke:none"
               d="m 0,0 4.187,20.673 3.561,-13.015 1.701,18.25 4.535,-21.014 2.645,9.335 3.212,-9.41 3.78,16.268 3.212,-15.673 2.646,6.808 2.266,-6.613 2.647,2.08 L 36.28,5.233 41.005,18.462 44.973,5.8 47.24,12.412 54.043,5.99 59.522,25.264 62.546,9.392 67.081,17.138 72.75,7.124 77.285,21.417 84.654,0 81.799,0 0,0 Z" />
          </g>
        </g>
      </g>
      <g
         id="g1632"
         transform="matrix(1.25,0,0,-1.25,211.42857,986.30606)">
        <g
           clip-path="url(#clipPath1636)"
           id="g1634">
          <g
             transform="translate(627.0977,471.6055)"
             id="g1640">
            <path
               inkscape:connector-curvature="0"
               id="path1642"
               style="fill:#ffffff;fill-opacity:1;fill-rule:nonzero;stroke:none"
               d="m 0,0 c 0,-14.888 12.068,-26.957 26.956,-26.957 14.888,0 26.957,12.069 26.957,26.957 0,14.888 -12.069,26.957 -26.957,26.957 C 12.068,26.957 0,14.888 0,0" />
          </g>
        </g>
      </g>
    </g>
  </g>
</svg>
