<?xml version="1.0" encoding="UTF-8" standalone="no"?>
<svg
   xmlns:dc="http://purl.org/dc/elements/1.1/"
   xmlns:cc="http://creativecommons.org/ns#"
   xmlns:rdf="http://www.w3.org/1999/02/22-rdf-syntax-ns#"
   xmlns:svg="http://www.w3.org/2000/svg"
   xmlns="http://www.w3.org/2000/svg"
   version="1.1"
   id="svg12871"
   viewBox="0 0 505.50864 416.23085"
   height="117.4696mm"
   width="142.66577mm">
  <defs
     id="defs12873">
    <clipPath
       id="clipPath1336"
       clipPathUnits="userSpaceOnUse">
      <path
         id="path1338"
         d="m 299.009,214.975 44.743,0 0,-42.978 -44.743,0 0,42.978 z" />
    </clipPath>
    <clipPath
       id="clipPath1186"
       clipPathUnits="userSpaceOnUse">
      <path
         id="path1188"
         d="m 120.411,180.065 22.722,0 0,-17.693 -22.722,0 0,17.693 z" />
    </clipPath>
    <clipPath
       id="clipPath1134"
       clipPathUnits="userSpaceOnUse">
      <path
         id="path1136"
         d="m 107.957,198.292 38.136,0 0,-30.861 -38.136,0 0,30.861 z" />
    </clipPath>
    <clipPath
       id="clipPath1110"
       clipPathUnits="userSpaceOnUse">
      <path
         id="path1112"
         d="m 107.925,198.292 38.168,0 0,-38.171 -38.168,0 0,38.171 z" />
    </clipPath>
  </defs>
  <metadata
     id="metadata12876">
    <rdf:RDF>
      <cc:Work
         rdf:about="">
        <dc:format>image/svg+xml</dc:format>
        <dc:type
           rdf:resource="http://purl.org/dc/dcmitype/StillImage" />
        <dc:title></dc:title>
      </cc:Work>
    </rdf:RDF>
  </metadata>
  <g
     transform="translate(-87.245693,-300.41458)"
     id="layer1">
    <g
       transform="matrix(1.25,0,0,-1.25,231.91306,429.04053)"
       id="g960">
      <path
         id="path962"
         style="fill:#ffffff;fill-opacity:1;fill-rule:nonzero;stroke:none"
         d="m 0,0 0,-106.382 c 0,-4.283 3.478,-7.751 7.761,-7.751 l 140.048,0 c 4.276,0 7.749,3.468 7.749,7.751 l 0,106.382 c 0,4.279 -3.473,7.747 -7.749,7.747 l -140.048,0 C 3.478,7.747 0,4.279 0,0" />
    </g>
    <g
       transform="matrix(1.25,0,0,-1.25,416.67444,419.35663)"
       id="g964">
      <path
         id="path966"
         style="fill:#f1f2f2;fill-opacity:1;fill-rule:nonzero;stroke:none"
         d="m 0,0 -71.174,0 0,-121.88 71.174,0 c 4.276,0 7.749,3.468 7.749,7.751 l 0,106.382 C 7.749,-3.468 4.276,0 0,0" />
    </g>
    <g
       transform="matrix(1.25,0,0,-1.25,421.41444,495.53103)"
       id="g968">
      <path
         id="path970"
         style="fill:#2c465f;fill-opacity:1;fill-rule:nonzero;stroke:none"
         d="m 0,0 c 0,-1.719 -1.397,-3.119 -3.12,-3.119 -1.728,0 -3.111,1.4 -3.111,3.119 0,1.723 1.383,3.121 3.111,3.121 C -1.397,3.121 0,1.723 0,0" />
    </g>
    <g
       transform="matrix(1.25,0,0,-1.25,245.64656,495.53103)"
       id="g972">
      <path
         id="path974"
         style="fill:#2c465f;fill-opacity:1;fill-rule:nonzero;stroke:none"
         d="m 0,0 c 0,-0.97 -0.789,-1.756 -1.759,-1.756 -0.974,0 -1.756,0.786 -1.756,1.756 0,0.97 0.782,1.759 1.756,1.759 C -0.789,1.759 0,0.97 0,0" />
    </g>
    <path
       id="path976"
       style="fill:#fc611f;fill-opacity:1;fill-rule:nonzero;stroke:none"
       d="m 407.56944,554.42413 -156.85875,0 0,-117.7787 156.85875,0 0,117.7787 z" />
    <g
       transform="matrix(1.25,0,0,-1.25,314.28181,518.60483)"
       id="g978">
      <path
         id="path980"
         style="fill:#ffffff;fill-opacity:1;fill-rule:evenodd;stroke:none"
         d="m 0,0 c -1.627,0 -2.925,-1.298 -2.925,-2.906 0,-1.606 1.298,-2.924 2.925,-2.924 1.607,0 2.916,1.318 2.916,2.924 C 2.916,-1.298 1.607,0 0,0 m 27.988,0 c -1.617,0 -2.915,-1.298 -2.915,-2.906 0,-1.606 1.298,-2.924 2.915,-2.924 1.618,0 2.916,1.318 2.916,2.924 0,1.608 -1.298,2.906 -2.916,2.906 m 8.232,35.539 -42.133,0 c -1.905,0 -2.441,0.475 -2.884,2.288 -0.742,2.904 -1.474,5.809 -2.204,8.713 -0.423,1.588 -0.824,1.917 -2.524,1.917 l -10.807,0 c -1.926,0 -1.535,-4.491 0.393,-4.491 l 8.796,0 c 1.68,0 1.854,-0.287 2.267,-1.937 3.214,-12.67 5.831,-23.856 9.22,-36.466 0.566,-2.101 0.258,-2.617 -0.907,-3.791 -1.226,-1.216 -1.999,-2.884 -1.999,-4.737 0,-3.627 2.936,-6.554 6.562,-6.554 2.42,0 4.543,1.299 5.676,3.256 0.762,1.341 1.432,1.855 2.74,1.855 l 10.909,0 c 1.577,0 2.132,-0.475 2.884,-1.773 1.154,-1.976 3.266,-3.338 5.727,-3.338 3.636,0 6.572,2.927 6.572,6.554 0,3.625 -2.936,6.57 -6.572,6.57 -2.234,0 -4.202,-1.112 -5.397,-2.823 -1.196,-1.709 -1.926,-2.286 -3.091,-2.286 l -10.981,0 C 7.078,-1.504 6.459,-0.948 5.449,0.7 4.646,1.978 3.357,2.885 1.896,3.317 0.36,3.792 -0.288,4.142 -0.66,5.563 -0.824,6.242 -0.99,6.924 -1.164,7.602 -1.576,9.188 -1.246,9.538 0.547,9.538 l 28.491,0 c 2.534,0 3.297,0.436 3.741,1.876 0.71,2.224 0.37,2.451 -1.669,2.451 l -30.492,0 c -1.247,0 -1.267,1.896 -0.02,1.896 l 31.181,0 c 1.916,0 2.173,0.185 2.545,1.647 0.381,1.567 0.144,1.732 -1.711,1.732 l -33.324,0 c -1.246,0 -1.277,1.895 -0.031,1.895 l 33.84,0 c 1.885,0 2.183,0.146 2.544,1.629 0.37,1.421 0.154,1.647 -1.865,1.647 l -35.786,0 c -1.258,0 -1.277,1.916 -0.021,1.916 l 36.456,0 c 1.794,0 2.174,0.184 2.546,1.669 0.338,1.318 0.215,1.648 -1.814,1.648 l -38.474,0 c -1.258,0 -1.278,1.916 -0.042,1.916 l 39,0 c 2.009,0 2.327,0.144 2.689,1.792 0.401,1.895 -0.094,2.287 -2.111,2.287" />
    </g>
    <g
       transform="matrix(1.25,0,0,-1.25,431.39544,386.73343)"
       id="g982">
      <path
         id="path984"
         style="fill:#0e303f;fill-opacity:1;fill-rule:nonzero;stroke:none"
         d="m 0,0 -95.583,-0.064 -0.049,63.91 95.585,0.063 L 0,0 Z" />
    </g>
    <g
       transform="matrix(1.25,0,0,-1.25,507.76081,349.76803)"
       id="g986">
      <path
         id="path988"
         style="fill:#fc611f;fill-opacity:1;fill-rule:nonzero;stroke:none"
         d="m 0,0 -16.245,29.044 -42.152,-0.033 0.046,-63.926 24,0.016 24.967,0.031 9.412,0 L 0,-0.359 l -0.096,0 L 0,0 Z" />
    </g>
    <g
       transform="matrix(1.25,0,0,-1.25,498.67394,351.94093)"
       id="g990">
      <path
         id="path992"
         style="fill:#ffffff;fill-opacity:1;fill-rule:nonzero;stroke:none"
         d="M 0,0 -41.918,-0.031 -41.933,27.085 -14.097,27.1 0,2.461 0,0 Z" />
    </g>
    <g
       transform="matrix(1.25,0,0,-1.25,455.01057,363.02493)"
       id="g994">
      <path
         id="path996"
         style="fill:#ffffff;fill-opacity:1;fill-rule:nonzero;stroke:none"
         d="m 0,0 c 0,-1.049 -0.847,-1.909 -1.912,-1.909 l -3.807,0 c -1.066,0 -1.909,0.86 -1.909,1.894 0,1.065 0.843,1.911 1.895,1.927 l 3.821,0 C -0.847,1.912 0,1.05 0,0" />
    </g>
    <g
       transform="matrix(1.25,0,0,-1.25,361.53156,386.77493)"
       id="g998">
      <path
         id="path1000"
         style="fill:#ffffff;fill-opacity:1;fill-rule:nonzero;stroke:none"
         d="m 0,0 c 1.238,-1.707 3.996,-5.497 4.154,-7.723 l 55.323,0.033 c 0.142,2.241 3.228,6.029 4.451,7.723 L 0,0 Z" />
    </g>
    <g
       transform="matrix(1.25,0,0,-1.25,317.98544,386.71633)"
       id="g1002">
      <path
         id="path1004"
         style="fill:#ffffff;fill-opacity:1;fill-rule:nonzero;stroke:none"
         d="m 0,0 0.015,-7.801 15.635,0.016 c 0.156,2.225 2.41,6.094 3.633,7.803 L 0,0 Z" />
    </g>
    <g
       transform="matrix(1.25,0,0,-1.25,510.46044,388.83053)"
       id="g1006">
      <path
         id="path1008"
         style="fill:#ffffff;fill-opacity:1;fill-rule:nonzero;stroke:none"
         d="m 0,0 -38.47,-0.031 c 1.221,-1.723 1.99,-3.759 2.13,-5.984 L 0,-6.001 0,0 Z" />
    </g>
    <g
       transform="matrix(1.25,0,0,-1.25,451.50531,382.70013)"
       id="g1010">
      <path
         id="path1012"
         style="fill:#ffffff;fill-opacity:1;fill-rule:nonzero;stroke:none"
         d="m 0,0 c -3.994,0 -7.503,-1.99 -9.665,-4.998 l 19.345,0 C 7.518,-1.976 3.996,0 0,0" />
    </g>
    <g
       transform="matrix(1.25,0,0,-1.25,438.52381,388.89043)"
       id="g1014">
      <path
         id="path1016"
         style="fill:#fff7eb;fill-opacity:1;fill-rule:nonzero;stroke:none"
         d="m 0,0 c -1.204,-1.723 -1.975,-3.757 -2.117,-5.998 l 23.326,0.031 c -0.14,2.225 -0.909,4.261 -2.13,5.984 L 0,0 Z" />
    </g>
    <g
       transform="matrix(1.25,0,0,-1.25,351.85994,382.77953)"
       id="g1018">
      <path
         id="path1020"
         style="fill:#ffffff;fill-opacity:1;fill-rule:nonzero;stroke:none"
         d="M 0,0 C -3.996,-0.016 -7.505,-1.975 -9.649,-4.997 L 9.665,-4.98 C 7.502,-1.975 3.978,0 0,0" />
    </g>
    <g
       transform="matrix(1.25,0,0,-1.25,340.22782,388.96853)"
       id="g1022">
      <path
         id="path1024"
         style="fill:#fff7eb;fill-opacity:1;fill-rule:nonzero;stroke:none"
         d="m 0,0 c -1.236,-1.723 -1.988,-3.758 -2.144,-5.983 l 23.341,0.015 c -0.158,2.226 -0.926,4.277 -2.15,5.985 L 0,0 Z" />
    </g>
    <g
       transform="matrix(1.25,0,0,-1.25,364.03707,396.42833)"
       id="g1026">
      <path
         id="path1028"
         style="fill:#231f20;fill-opacity:1;fill-rule:nonzero;stroke:none"
         d="m 0,0 c 0.019,-5.264 -4.261,-9.54 -9.523,-9.54 -5.248,0 -9.524,4.276 -9.524,9.524 -0.015,5.264 4.26,9.54 9.524,9.54 C -4.274,9.524 0,5.264 0,0" />
    </g>
    <g
       transform="matrix(1.25,0,0,-1.25,357.37931,396.42833)"
       id="g1030">
      <path
         id="path1032"
         style="fill:#fff7eb;fill-opacity:1;fill-rule:nonzero;stroke:none"
         d="m 0,0 c 0,-2.318 -1.878,-4.199 -4.197,-4.199 -2.317,0 -4.198,1.881 -4.198,4.183 0,2.333 1.881,4.213 4.198,4.213 C -1.878,4.197 0,2.317 0,0" />
    </g>
    <g
       transform="matrix(1.25,0,0,-1.25,463.95706,396.34893)"
       id="g1034">
      <path
         id="path1036"
         style="fill:#231f20;fill-opacity:1;fill-rule:nonzero;stroke:none"
         d="m 0,0 c 0.017,-5.263 -4.244,-9.54 -9.507,-9.54 -5.266,0 -9.539,4.262 -9.539,9.509 0,5.277 4.26,9.54 9.524,9.54 C -4.259,9.509 0,5.264 0,0" />
    </g>
    <g
       transform="matrix(1.25,0,0,-1.25,457.30057,396.36843)"
       id="g1038">
      <path
         id="path1040"
         style="fill:#fff7eb;fill-opacity:1;fill-rule:nonzero;stroke:none"
         d="m 0,0 c 0.016,-2.318 -1.864,-4.199 -4.197,-4.199 -2.303,0 -4.185,1.881 -4.185,4.199 0,2.316 1.864,4.197 4.185,4.197 C -1.88,4.197 0,2.316 0,0" />
    </g>
    <g
       transform="matrix(1.25,0,0,-1.25,510.49519,598.97593)"
       id="g1042">
      <path
         id="path1044"
         style="fill:#ef4136;fill-opacity:1;fill-rule:nonzero;stroke:none"
         d="m 0,0 c -2.216,0 -4.015,1.8 -4.015,4.017 0,2.219 1.799,4.017 4.015,4.017 2.22,0 4.018,-1.798 4.018,-4.017 C 4.018,1.8 2.22,0 0,0 M 9.146,6.478 -4.331,20.012 c -1.347,1.352 -4.013,2.46 -5.923,2.46 l -54.008,0 c -1.909,0 -3.471,-1.564 -3.471,-3.473 l 0,-29.963 c 0,-1.91 1.562,-3.473 3.471,-3.473 l 54.008,0 c 1.91,0 4.576,1.109 5.923,2.461 L 9.146,1.558 c 1.348,1.352 1.348,3.566 0,4.92" />
    </g>
    <text
       id="text1046"
       style="font-variant:normal;font-weight:normal;font-stretch:normal;font-size:39.70199966px;font-family:'Bebas Neue';-inkscape-font-specification:BebasNeue;writing-mode:lr-tb;fill:#ffffff;fill-opacity:1;fill-rule:nonzero;stroke:none"
       x="439.01993"
       y="606.84814">
      <tspan
         id="tspan1048"
         y="606.84814"
         x="439.01993 454.74191 470.4639">$50</tspan>
    </text>
    <g
       transform="matrix(1.25,0,0,-1.25,305.44206,583.38383)"
       id="g1058">
      <path
         id="path1060"
         style="fill:#fdcf9d;fill-opacity:1;fill-rule:nonzero;stroke:none"
         d="m 0,0 0,17.554 c 0,3.751 -3.041,6.795 -6.795,6.795 l -2.262,0 c -0.095,0 -0.19,-0.013 -0.283,-0.019 L -9.34,9.338 0,0 Z" />
    </g>
    <g
       transform="matrix(1.25,0,0,-1.25,312.75894,580.24053)"
       id="g1062">
      <path
         id="path1064"
         style="fill:#fdcf9d;fill-opacity:1;fill-rule:nonzero;stroke:none"
         d="m 0,0 -11.405,11.401 c -1.081,1.077 -2.432,1.709 -3.832,1.914 l 0,-11.292 L 0,-13.214 0,0 Z" />
    </g>
    <g
       transform="matrix(1.25,0,0,-1.25,328.15457,531.37093)"
       id="g1066">
      <path
         id="path1068"
         style="fill:#fdcf9d;fill-opacity:1;fill-rule:nonzero;stroke:none"
         d="m 0,0 c 2.539,0 4.6,-2.061 4.6,-4.6 l 0,-33.879 c 0.002,-2.541 -2.061,-4.599 -4.6,-4.599 -2.54,0 -4.602,2.058 -4.602,4.599 l 0,33.879 C -4.602,-2.061 -2.54,0 0,0" />
    </g>
    <g
       transform="matrix(1.25,0,0,-1.25,308.09469,585.52613)"
       id="g1070">
      <path
         id="path1072"
         style="fill:#fdcf9d;fill-opacity:1;fill-rule:nonzero;stroke:none"
         d="m 0,0 c 0,-6.601 5.352,-11.954 11.955,-11.951 l 19.421,0 C 37.975,-11.954 43.328,-6.601 43.328,0 l 0,19.42 c 0,6.601 -5.353,11.954 -11.952,11.954 l -19.421,0 C 5.352,31.374 0,26.023 0,19.42 L 0,0 Z" />
    </g>
    <g
       transform="matrix(1.25,0,0,-1.25,356.50469,536.15243)"
       id="g1074">
      <path
         id="path1076"
         style="fill:#fdcf9d;fill-opacity:1;fill-rule:nonzero;stroke:none"
         d="m 0,0 c 2.537,0 4.6,-2.06 4.6,-4.602 l 0,-21.696 c 0,-2.542 -2.063,-4.603 -4.6,-4.603 -2.544,0 -4.601,2.061 -4.601,4.603 l 0,21.696 C -4.601,-2.06 -2.544,0 0,0" />
    </g>
    <g
       transform="matrix(1.25,0,0,-1.25,342.42944,531.36603)"
       id="g1078">
      <path
         id="path1080"
         style="fill:#fdcf9d;fill-opacity:1;fill-rule:nonzero;stroke:none"
         d="m 0,0 c 2.54,0 4.601,-2.061 4.601,-4.602 l 0,-33.878 c 0,-2.543 -2.061,-4.605 -4.601,-4.605 -2.541,0 -4.601,2.062 -4.601,4.605 l 0,33.878 C -4.601,-2.061 -2.541,0 0,0" />
    </g>
    <g
       transform="matrix(1.25,0,0,-1.25,313.87719,517.24363)"
       id="g1082">
      <path
         id="path1084"
         style="fill:#fdcf9d;fill-opacity:1;fill-rule:nonzero;stroke:none"
         d="m 0,0 c 2.544,0 4.601,-2.064 4.601,-4.604 l 0,-31.533 c 0,-2.54 -2.057,-4.602 -4.601,-4.602 -2.538,0 -4.599,2.062 -4.599,4.602 l 0,31.533 C -4.599,-2.064 -2.538,0 0,0" />
    </g>
    <g
       transform="matrix(1.25,0,0,-1.25,356.24169,641.24153)"
       id="g1086">
      <path
         id="path1088"
         style="fill:#fdcf9d;fill-opacity:1;fill-rule:nonzero;stroke:none"
         d="m 0,0 0,48.178 c 0,4.478 -3.631,8.106 -8.108,8.106 l -13.175,0 c -4.476,0 -8.11,-3.628 -8.11,-8.106 L -29.393,0 0,0 Z" />
    </g>
    <path
       id="path1090"
       style="fill:#ffffff;fill-opacity:1;fill-rule:nonzero;stroke:none"
       d="m 362.86444,641.60293 -49.98,0 0,-25.465 49.98,0 0,25.465 z" />
    <path
       id="path1092"
       style="fill:#2f4962;fill-opacity:1;fill-rule:nonzero;stroke:none"
       d="m 364.74694,716.64543 -53.74875,0 0,-91.905 53.74875,0 0,91.905 z" />
    <g
       transform="matrix(1.25,0,0,-1.25,358.98094,635.30153)"
       id="g1094">
      <path
         id="path1096"
         style="fill:#103754;fill-opacity:1;fill-rule:nonzero;stroke:none"
         d="m 0,0 c 0,-1.13 -0.919,-2.049 -2.047,-2.049 -1.133,0 -2.048,0.919 -2.048,2.049 0,1.126 0.915,2.046 2.048,2.046 C -0.919,2.046 0,1.128 0,0" />
    </g>
    <g
       transform="matrix(1.25,0,0,-1.25,181.06156,514.23703)"
       id="g1098">
      <path
         id="path1100"
         style="fill:#fdcf9d;fill-opacity:1;fill-rule:nonzero;stroke:none"
         d="m 0,0 9.339,15.031 c 1.996,3.214 6.217,4.199 9.432,2.204 l 1.935,-1.203 c 0.086,-0.054 0.16,-0.11 0.235,-0.167 L 12.966,3.028 0,0 Z" />
    </g>
    <g
       transform="matrix(1.25,0,0,-1.25,176.46694,507.64893)"
       id="g1102">
      <path
         id="path1104"
         style="fill:#fdcf9d;fill-opacity:1;fill-rule:nonzero;stroke:none"
         d="m 0,0 15.835,3.689 c 1.496,0.354 2.991,0.173 4.295,-0.397 L 14.126,-6.375 -7.029,-11.313 0,0 Z" />
    </g>
    <g
       id="g1106"
       transform="matrix(1.25,0,0,-1.25,87.245693,716.65043)">
      <g
         id="g1108" />
      <g
         id="g1114">
        <g
           style="opacity:0.10000598"
           id="g1116"
           clip-path="url(#clipPath1110)">
          <g
             id="g1118"
             transform="translate(146.0791,179.9248)">
            <path
               id="path1120"
               style="fill:#ffffff;fill-opacity:1;fill-rule:nonzero;stroke:none"
               d="m 0,0 c -0.191,5.087 -2.344,9.799 -6.061,13.259 -7.706,7.173 -19.807,6.739 -26.98,-0.966 -3.481,-3.739 -5.291,-8.614 -5.099,-13.741 0.193,-5.085 2.346,-9.793 6.058,-13.247 3.728,-3.473 8.593,-5.282 13.699,-5.096 5.105,0.181 9.823,2.336 13.296,6.064 C -1.616,-9.995 0.192,-5.118 0,0" />
          </g>
        </g>
      </g>
    </g>
    <g
       transform="matrix(1.25,0,0,-1.25,222.18706,491.39403)"
       id="g1122">
      <path
         id="path1124"
         style="fill:#a6dae9;fill-opacity:1;fill-rule:nonzero;stroke:none"
         d="M 0,0 C -0.016,-0.274 -0.024,-0.548 -0.024,-0.831 -0.024,-0.548 -0.016,-0.274 0,0" />
    </g>
    <g
       transform="matrix(1.25,0,0,-1.25,222.15594,492.50003)"
       id="g1126">
      <path
         id="path1128"
         style="fill:#a6dae9;fill-opacity:1;fill-rule:nonzero;stroke:none"
         d="M 0,0 C -0.003,-0.279 0.002,-0.561 0.011,-0.844 0.002,-0.561 -0.003,-0.279 0,0" />
    </g>
    <g
       id="g1130"
       transform="matrix(1.25,0,0,-1.25,87.245693,716.65043)">
      <g
         id="g1132" />
      <g
         id="g1138">
        <g
           style="opacity:0.60000598"
           id="g1140"
           clip-path="url(#clipPath1134)">
          <g
             id="g1142"
             transform="translate(146.0791,179.9248)">
            <path
               id="path1144"
               style="fill:#ffffff;fill-opacity:1;fill-rule:nonzero;stroke:none"
               d="m 0,0 c 0.172,-4.571 -1.255,-8.948 -4.035,-12.494 0.545,0.693 1.031,1.418 1.469,2.169 0.725,2.164 1.065,4.46 0.974,6.811 -0.192,5.091 -2.345,9.8 -6.064,13.262 -7.704,7.171 -19.807,6.736 -26.98,-0.968 -0.977,-1.048 -1.822,-2.194 -2.527,-3.404 -0.541,-1.618 -0.867,-3.315 -0.96,-5.052 0.238,4.469 2.009,8.664 5.082,11.969 7.173,7.705 19.274,8.139 26.98,0.966 C -2.344,9.799 -0.191,5.087 0,0" />
          </g>
        </g>
      </g>
    </g>
    <g
       transform="matrix(1.25,0,0,-1.25,264.77131,507.39503)"
       id="g1146">
      <path
         id="path1148"
         style="fill:#a6dae9;fill-opacity:1;fill-rule:nonzero;stroke:none"
         d="M 0,0 C -0.091,-0.12 -0.188,-0.236 -0.282,-0.352 -0.188,-0.233 -0.091,-0.12 0,0" />
    </g>
    <g
       transform="matrix(1.25,0,0,-1.25,264.34406,507.92733)"
       id="g1150">
      <path
         id="path1152"
         style="fill:#a6dae9;fill-opacity:1;fill-rule:nonzero;stroke:none"
         d="M 0,0 C -0.091,-0.103 -0.174,-0.205 -0.264,-0.306 -0.174,-0.205 -0.089,-0.104 0,0" />
    </g>
    <g
       transform="matrix(1.25,0,0,-1.25,263.91131,508.43013)"
       id="g1154">
      <path
         id="path1156"
         style="fill:#a6dae9;fill-opacity:1;fill-rule:nonzero;stroke:none"
         d="M 0,0 C -0.111,-0.125 -0.225,-0.253 -0.341,-0.378 -0.225,-0.253 -0.111,-0.125 0,0" />
    </g>
    <g
       transform="matrix(1.25,0,0,-1.25,204.31907,494.03203)"
       id="g1158">
      <path
         id="path1160"
         style="fill:#0e303f;fill-opacity:1;fill-rule:nonzero;stroke:none"
         d="m 0,0 c -0.065,1.806 1.351,3.328 3.162,3.39 l 5.875,0.131 c 1.81,0.059 3.331,-1.35 3.396,-3.156 0,0 -10e-4,-0.007 -0.003,-0.011 0.067,-1.809 -1.347,-3.331 -3.159,-3.395 L 3.393,-3.167 C 1.587,-3.234 0.066,-1.82 0,-0.012 c 0,0 0,0.007 0,0.012" />
    </g>
    <g
       transform="matrix(1.25,0,0,-1.25,262.26831,475.17093)"
       id="g1162">
      <path
         id="path1164"
         style="fill:#2c5871;fill-opacity:1;fill-rule:nonzero;stroke:none"
         d="m 0,0 c 3.717,-3.46 5.87,-8.172 6.061,-13.259 0.192,-5.118 -1.616,-9.995 -5.087,-13.726 -3.473,-3.729 -8.191,-5.884 -13.296,-6.065 -5.106,-0.185 -9.971,1.623 -13.699,5.096 -3.712,3.454 -5.865,8.162 -6.058,13.247 -0.192,5.127 1.618,10.002 5.099,13.741 C -19.807,6.739 -7.706,7.173 0,0 M 4.473,4.803 C -5.882,14.44 -22.15,13.859 -31.788,3.505 -36.461,-1.521 -38.897,-8.074 -38.637,-14.95 l 0.002,-0.001 c 0.254,-6.839 3.149,-13.159 8.146,-17.809 5.007,-4.662 11.543,-7.097 18.401,-6.849 6.853,0.247 13.201,3.141 17.863,8.151 4.674,5.023 7.105,11.573 6.848,18.446 -0.257,6.837 -3.154,13.166 -8.15,17.815" />
    </g>
    <g
       transform="matrix(1.25,0,0,-1.25,208.44807,485.67883)"
       id="g1166">
      <path
         id="path1168"
         style="fill:#103754;fill-opacity:1;fill-rule:nonzero;stroke:none"
         d="M 0,0 0.495,-13.185 -40.806,-14.742 -41.303,-1.554 0,0 Z" />
    </g>
    <g
       transform="matrix(1.25,0,0,-1.25,208.57569,489.09553)"
       id="g1170">
      <path
         id="path1172"
         style="fill:#2c5871;fill-opacity:1;fill-rule:nonzero;stroke:none"
         d="M 0,0 0.289,-7.724 -41.01,-9.277 -41.302,-1.554 0,0 Z" />
    </g>
    <g
       transform="matrix(1.25,0,0,-1.25,164.74081,487.32183)"
       id="g1174">
      <path
         id="path1176"
         style="fill:#0e303f;fill-opacity:1;fill-rule:nonzero;stroke:none"
         d="M 0,0 0.491,-13.19 -5.84,-13.428 -6.337,-0.239 0,0 Z" />
    </g>
    <g
       transform="matrix(1.25,0,0,-1.25,164.86719,490.73983)"
       id="g1178">
      <path
         id="path1180"
         style="fill:#164866;fill-opacity:1;fill-rule:nonzero;stroke:none"
         d="M 0,0 0.291,-7.724 -6.043,-7.962 -6.335,-0.238 0,0 Z" />
    </g>
    <g
       id="g1182"
       transform="matrix(1.25,0,0,-1.25,87.245693,716.65043)">
      <g
         id="g1184" />
      <g
         id="g1190">
        <g
           style="opacity:0.60000598"
           id="g1192"
           clip-path="url(#clipPath1186)">
          <g
             id="g1194"
             transform="translate(131.0601,163.6318)">
            <path
               id="path1196"
               style="fill:#ffffff;fill-opacity:1;fill-rule:nonzero;stroke:none"
               d="m 0,0 c 4.76,1.814 8.529,5.368 10.616,9.999 0.724,1.608 1.201,3.265 1.457,4.926 L 8.371,16.434 C 8.182,14.394 7.662,12.353 6.777,10.382 4.692,5.749 0.923,2.199 -3.833,0.385 -6.029,-0.453 -8.37,-0.855 -10.649,-0.866 -7.123,-1.596 -3.456,-1.313 0,0" />
          </g>
        </g>
      </g>
    </g>
    <g
       transform="matrix(1.25,0,0,-1.25,185.58856,463.56813)"
       id="g1198">
      <path
         id="path1200"
         style="fill:#fdcf9d;fill-opacity:1;fill-rule:nonzero;stroke:none"
         d="m 0,0 c -2.178,1.354 -5.038,0.683 -6.387,-1.491 l -18.026,-29.012 c -1.348,-2.172 -0.683,-5.032 1.492,-6.385 2.176,-1.35 5.037,-0.681 6.385,1.492 L 1.492,-6.386 C 2.843,-4.214 2.177,-1.35 0,0" />
    </g>
    <g
       transform="matrix(1.25,0,0,-1.25,177.64969,514.65583)"
       id="g1202">
      <path
         id="path1204"
         style="fill:#fdcf9d;fill-opacity:1;fill-rule:nonzero;stroke:none"
         d="m 0,0 c -3.511,-5.652 -10.94,-7.39 -16.595,-3.874 l -16.631,10.33 c -5.651,3.511 -7.384,10.942 -3.874,16.596 l 10.333,16.628 c 3.512,5.651 10.94,7.386 16.593,3.875 L 6.458,33.221 C 12.11,29.71 13.843,22.281 10.33,16.628 L 0,0 Z" />
    </g>
    <g
       transform="matrix(1.25,0,0,-1.25,160.59169,449.64353)"
       id="g1206">
      <path
         id="path1208"
         style="fill:#fdcf9d;fill-opacity:1;fill-rule:nonzero;stroke:none"
         d="m 0,0 c -2.175,1.352 -5.034,0.684 -6.386,-1.491 l -11.544,-18.58 c -1.352,-2.179 -0.686,-5.041 1.488,-6.39 2.179,-1.353 5.036,-0.682 6.39,1.495 L 1.492,-6.387 C 2.841,-4.211 2.177,-1.353 0,0" />
    </g>
    <g
       transform="matrix(1.25,0,0,-1.25,172.52156,457.33533)"
       id="g1210">
      <path
         id="path1212"
         style="fill:#fdcf9d;fill-opacity:1;fill-rule:nonzero;stroke:none"
         d="m 0,0 c -2.176,1.354 -5.038,0.686 -6.389,-1.49 l -18.026,-29.013 c -1.353,-2.175 -0.683,-5.033 1.493,-6.386 2.174,-1.351 5.033,-0.682 6.385,1.493 L 1.488,-6.384 C 2.839,-4.207 2.174,-1.348 0,0" />
    </g>
    <g
       transform="matrix(1.25,0,0,-1.25,197.54657,471.58563)"
       id="g1214">
      <path
         id="path1216"
         style="fill:#fdcf9d;fill-opacity:1;fill-rule:nonzero;stroke:none"
         d="m 0,0 c -2.175,1.353 -5.036,0.682 -6.388,-1.488 l -14.33,-23.068 c -1.349,-2.176 -0.684,-5.034 1.493,-6.388 2.175,-1.349 5.037,-0.681 6.389,1.494 L 1.493,-6.385 C 2.843,-4.213 2.175,-1.352 0,0" />
    </g>
    <g
       transform="matrix(1.25,0,0,-1.25,107.14556,536.16093)"
       id="g1218">
      <path
         id="path1220"
         style="fill:#fdcf9d;fill-opacity:1;fill-rule:nonzero;stroke:none"
         d="m 0,0 25.341,40.782 c 2.383,3.834 7.424,5.01 11.257,2.629 l 11.281,-7.01 c 3.833,-2.38 5.011,-7.422 2.628,-11.255 L 25.168,-15.637 0,0 Z" />
    </g>
    <g
       transform="matrix(1.25,0,0,-1.25,101.28194,532.94553)"
       id="g1222">
      <path
         id="path1224"
         style="fill:#ffffff;fill-opacity:1;fill-rule:nonzero;stroke:none"
         d="M 0,0 34.242,-21.273 45.08,-3.829 10.84,17.444 0,0 Z" />
    </g>
    <g
       transform="matrix(1.25,0,0,-1.25,87.245693,654.70343)"
       id="g1226">
      <path
         id="path1228"
         style="fill:#40bfc6;fill-opacity:1;fill-rule:nonzero;stroke:none"
         d="M 0,0 53.938,86.885 17.12,109.759 0,82.153 0,0 Z" />
    </g>
    <g
       transform="matrix(1.25,0,0,-1.25,107.95981,529.61553)"
       id="g1230">
      <path
         id="path1232"
         style="fill:#103754;fill-opacity:1;fill-rule:nonzero;stroke:none"
         d="M 0,0 C -0.601,-0.968 -0.302,-2.245 0.665,-2.845 1.631,-3.446 2.906,-3.147 3.507,-2.181 4.108,-1.212 3.812,0.061 2.842,0.663 1.878,1.263 0.603,0.967 0,0" />
    </g>
    <g
       transform="matrix(1.25,0,0,-1.25,190.95719,349.06493)"
       id="g1234">
      <path
         id="path1236"
         style="fill:#fdcf9d;fill-opacity:1;fill-rule:nonzero;stroke:none"
         d="m 0,0 17.547,0 c 3.749,0 6.795,3.037 6.795,6.789 l 0,2.264 c 0,0.094 -0.013,0.186 -0.02,0.282 L 9.337,9.335 0,0 Z" />
    </g>
    <g
       transform="matrix(1.25,0,0,-1.25,194.09931,356.38303)"
       id="g1238">
      <path
         id="path1240"
         style="fill:#fdcf9d;fill-opacity:1;fill-rule:nonzero;stroke:none"
         d="m 0,0 11.396,11.405 c 1.079,1.076 1.709,2.425 1.915,3.828 l -11.287,0 L -13.207,0 0,0 Z" />
    </g>
    <g
       transform="matrix(1.25,0,0,-1.25,261.21969,371.77133)"
       id="g1242">
      <path
         id="path1244"
         style="fill:#fdcf9d;fill-opacity:1;fill-rule:nonzero;stroke:none"
         d="m 0,0 c 0,-2.539 -2.065,-4.6 -4.602,-4.6 l -33.869,0 c -2.538,-0.003 -4.598,2.061 -4.598,4.6 0,2.537 2.06,4.598 4.598,4.598 l 33.869,0 C -2.065,4.598 0,2.537 0,0" />
    </g>
    <g
       transform="matrix(1.25,0,0,-1.25,188.81731,351.72003)"
       id="g1246">
      <path
         id="path1248"
         style="fill:#fdcf9d;fill-opacity:1;fill-rule:nonzero;stroke:none"
         d="m 0,0 c -6.601,0 -11.951,-5.351 -11.947,-11.949 l 0,-19.417 C -11.951,-37.962 -6.601,-43.314 0,-43.314 l 19.412,0 c 6.598,0 11.95,5.352 11.95,11.948 l 0,19.417 C 31.362,-5.351 26.014,0 19.412,0 L 0,0 Z" />
    </g>
    <g
       transform="matrix(1.25,0,0,-1.25,243.70994,400.11353)"
       id="g1250">
      <path
         id="path1252"
         style="fill:#fdcf9d;fill-opacity:1;fill-rule:nonzero;stroke:none"
         d="m 0,0 c 0,-2.539 -2.058,-4.6 -4.596,-4.6 l -21.692,0 c -2.54,0 -4.602,2.061 -4.602,4.6 0,2.541 2.062,4.598 4.602,4.598 l 21.692,0 C -2.058,4.598 0,2.541 0,0" />
    </g>
    <g
       transform="matrix(1.25,0,0,-1.25,251.32594,386.04133)"
       id="g1254">
      <path
         id="path1256"
         style="fill:#fdcf9d;fill-opacity:1;fill-rule:nonzero;stroke:none"
         d="m 0,0 c 0,-2.543 -2.062,-4.6 -4.601,-4.6 l -33.87,0 c -2.54,0 -4.6,2.057 -4.6,4.6 0,2.537 2.06,4.598 4.6,4.598 l 33.87,0 C -2.062,4.598 0,2.537 0,0" />
    </g>
    <g
       transform="matrix(1.25,0,0,-1.25,251.32594,357.50363)"
       id="g1258">
      <path
         id="path1260"
         style="fill:#fdcf9d;fill-opacity:1;fill-rule:nonzero;stroke:none"
         d="m 0,0 c 0,-2.541 -2.063,-4.598 -4.601,-4.598 l -26.923,0 c -2.541,0 -4.6,2.057 -4.6,4.598 0,2.539 2.059,4.6 4.6,4.6 l 26.923,0 C -2.063,4.6 0,2.539 0,0" />
    </g>
    <g
       transform="matrix(1.25,0,0,-1.25,133.81006,399.85483)"
       id="g1262">
      <path
         id="path1264"
         style="fill:#fdcf9d;fill-opacity:1;fill-rule:nonzero;stroke:none"
         d="m 0,0 47.608,0 c 4.479,0 8.106,3.631 8.106,8.111 l 0,13.167 c 0,4.477 -3.627,8.105 -8.106,8.105 L 0,29.383 0,0 Z" />
    </g>
    <path
       id="path1266"
       style="fill:#ffffff;fill-opacity:1;fill-rule:nonzero;stroke:none"
       d="m 133.44444,356.50793 25.46125,0 0,49.9625 -25.46125,0 0,-49.9625 z" />
    <path
       id="path1268"
       style="fill:#2f4962;fill-opacity:1;fill-rule:nonzero;stroke:none"
       d="m 87.245693,354.62163 63.061247,0 0,53.7313 -63.061247,0 0,-53.7313 z" />
    <g
       transform="matrix(1.25,0,0,-1.25,139.74506,364.49103)"
       id="g1270">
      <path
         id="path1272"
         style="fill:#103754;fill-opacity:1;fill-rule:nonzero;stroke:none"
         d="M 0,0 C -1.13,0 -2.049,0.92 -2.049,2.049 -2.049,3.18 -1.13,4.096 0,4.096 1.129,4.096 2.046,3.18 2.046,2.049 2.046,0.92 1.131,0 0,0" />
    </g>
    <path
       id="path1274"
       style="fill:#fc9f1e;fill-opacity:1;fill-rule:nonzero;stroke:none"
       d="m 276.99694,393.30793 -106.29125,0 0,-79.9013 106.29125,0 0,79.9013 z" />
    <g
       transform="matrix(1.25,0,0,-1.25,276.99669,313.56333)"
       id="g1276">
      <path
         id="path1278"
         style="fill:#fc611f;fill-opacity:1;fill-rule:nonzero;stroke:none"
         d="m 0,0 -85.033,0 9.217,10.519 68.656,0 L 0,0 Z" />
    </g>
    <path
       id="path1280"
       style="fill:#ffffff;fill-opacity:1;fill-rule:nonzero;stroke:none"
       d="m 241.52944,384.39913 -59.53125,0 0,-43.5675 59.53125,0 0,43.5675 z" />
    <path
       id="path1282"
       style="fill:#231f20;fill-opacity:1;fill-rule:nonzero;stroke:none"
       d="m 186.14444,374.54043 -0.96375,0 0,-28.5 0.96375,0 0,28.5 z" />
    <path
       id="path1284"
       style="fill:#231f20;fill-opacity:1;fill-rule:nonzero;stroke:none"
       d="m 188.53194,374.54043 -0.965,0 0,-28.5 0.965,0 0,28.5 z" />
    <path
       id="path1286"
       style="fill:#231f20;fill-opacity:1;fill-rule:nonzero;stroke:none"
       d="m 190.88319,374.54043 -0.9675,0 0,-28.5 0.9675,0 0,28.5 z" />
    <path
       id="path1288"
       style="fill:#231f20;fill-opacity:1;fill-rule:nonzero;stroke:none"
       d="m 193.23194,378.44293 -0.96625,0 0,-32.4013 0.96625,0 0,32.4013 z" />
    <path
       id="path1290"
       style="fill:#231f20;fill-opacity:1;fill-rule:nonzero;stroke:none"
       d="m 195.58569,374.54043 -0.96625,0 0,-28.5 0.96625,0 0,28.5 z" />
    <path
       id="path1292"
       style="fill:#231f20;fill-opacity:1;fill-rule:nonzero;stroke:none"
       d="m 197.93569,374.54043 -0.96625,0 0,-28.5 0.96625,0 0,28.5 z" />
    <path
       id="path1294"
       style="fill:#231f20;fill-opacity:1;fill-rule:nonzero;stroke:none"
       d="m 200.28194,378.44293 -0.9625,0 0,-32.4013 0.9625,0 0,32.4013 z" />
    <path
       id="path1296"
       style="fill:#231f20;fill-opacity:1;fill-rule:nonzero;stroke:none"
       d="m 202.63444,374.54043 -0.96625,0 0,-28.5 0.96625,0 0,28.5 z" />
    <path
       id="path1298"
       style="fill:#231f20;fill-opacity:1;fill-rule:nonzero;stroke:none"
       d="m 204.98319,374.54043 -0.965,0 0,-28.5 0.965,0 0,28.5 z" />
    <path
       id="path1300"
       style="fill:#231f20;fill-opacity:1;fill-rule:nonzero;stroke:none"
       d="m 207.33444,374.54043 -0.96625,0 0,-28.5 0.96625,0 0,28.5 z" />
    <path
       id="path1302"
       style="fill:#231f20;fill-opacity:1;fill-rule:nonzero;stroke:none"
       d="m 209.68569,374.54043 -0.96625,0 0,-28.5 0.96625,0 0,28.5 z" />
    <path
       id="path1304"
       style="fill:#231f20;fill-opacity:1;fill-rule:nonzero;stroke:none"
       d="m 212.03694,378.44293 -0.96625,0 0,-32.4013 0.96625,0 0,32.4013 z" />
    <path
       id="path1306"
       style="fill:#231f20;fill-opacity:1;fill-rule:nonzero;stroke:none"
       d="m 214.38444,374.54043 -0.96375,0 0,-28.5 0.96375,0 0,28.5 z" />
    <path
       id="path1308"
       style="fill:#231f20;fill-opacity:1;fill-rule:nonzero;stroke:none"
       d="m 216.73444,374.54043 -0.96375,0 0,-28.5 0.96375,0 0,28.5 z" />
    <path
       id="path1310"
       style="fill:#231f20;fill-opacity:1;fill-rule:nonzero;stroke:none"
       d="m 219.08569,374.54043 -0.96375,0 0,-28.5 0.96375,0 0,28.5 z" />
    <path
       id="path1312"
       style="fill:#231f20;fill-opacity:1;fill-rule:nonzero;stroke:none"
       d="m 221.43444,374.54043 -0.96375,0 0,-28.5 0.96375,0 0,28.5 z" />
    <path
       id="path1314"
       style="fill:#231f20;fill-opacity:1;fill-rule:nonzero;stroke:none"
       d="m 223.78444,378.44293 -0.9625,0 0,-32.4013 0.9625,0 0,32.4013 z" />
    <path
       id="path1316"
       style="fill:#231f20;fill-opacity:1;fill-rule:nonzero;stroke:none"
       d="m 226.13444,374.54043 -0.9675,0 0,-28.5 0.9675,0 0,28.5 z" />
    <path
       id="path1318"
       style="fill:#231f20;fill-opacity:1;fill-rule:nonzero;stroke:none"
       d="m 228.48694,374.54043 -0.96625,0 0,-28.5 0.96625,0 0,28.5 z" />
    <path
       id="path1320"
       style="fill:#231f20;fill-opacity:1;fill-rule:nonzero;stroke:none"
       d="m 230.83694,374.54043 -0.96625,0 0,-28.5 0.96625,0 0,28.5 z" />
    <path
       id="path1322"
       style="fill:#231f20;fill-opacity:1;fill-rule:nonzero;stroke:none"
       d="m 233.18694,374.54043 -0.96625,0 0,-28.5 0.96625,0 0,28.5 z" />
    <path
       id="path1324"
       style="fill:#231f20;fill-opacity:1;fill-rule:nonzero;stroke:none"
       d="m 235.53694,374.54043 -0.965,0 0,-28.5 0.965,0 0,28.5 z" />
    <path
       id="path1326"
       style="fill:#231f20;fill-opacity:1;fill-rule:nonzero;stroke:none"
       d="m 237.88819,374.54043 -0.96625,0 0,-28.5 0.96625,0 0,28.5 z" />
    <g
       transform="matrix(1.25,0,0,-1.25,516.93569,447.93213)"
       id="g1328">
      <path
         id="path1330"
         style="fill:#d1ecfb;fill-opacity:1;fill-rule:nonzero;stroke:none"
         d="m 0,0 -51.223,0 0,-48.848 c 0,-0.606 0.233,-1.215 0.698,-1.677 0.462,-0.462 1.068,-0.694 1.676,-0.694 l 46.476,0 c 0.607,0 1.213,0.232 1.678,0.694 0.46,0.462 0.695,1.071 0.695,1.677 L 0,0 Z" />
    </g>
    <g
       id="g1332"
       transform="matrix(1.25,0,0,-1.25,87.245693,716.65043)">
      <g
         id="g1334" />
      <g
         id="g1340">
        <g
           style="opacity:0.10000598"
           id="g1342"
           clip-path="url(#clipPath1336)">
          <g
             id="g1344"
             transform="translate(299.0088,214.9746)">
            <path
               id="path1346"
               style="fill:#ffffff;fill-opacity:1;fill-rule:nonzero;stroke:none"
               d="m 0,0 44.743,0 0,-42.978 L 0,0 Z" />
          </g>
        </g>
      </g>
    </g>
    <g
       transform="matrix(1.25,0,0,-1.25,481.85256,461.66863)"
       id="g1348">
      <path
         id="path1350"
         style="fill:#21d8de;fill-opacity:1;fill-rule:nonzero;stroke:none"
         d="m 0,0 c 0,-0.229 -0.187,-0.416 -0.415,-0.416 l -17.062,0 c -0.229,0 -0.414,0.187 -0.414,0.416 l 0,5.489 c 0,0.226 0.185,0.414 0.414,0.414 l 17.062,0 C -0.187,5.903 0,5.715 0,5.489 L 0,0 Z" />
    </g>
    <g
       transform="matrix(1.25,0,0,-1.25,496.32406,461.66863)"
       id="g1352">
      <path
         id="path1354"
         style="fill:#e64717;fill-opacity:1;fill-rule:nonzero;stroke:none"
         d="m 0,0 c 0,-0.229 -0.187,-0.416 -0.416,-0.416 l -5.484,0 c -0.228,0 -0.415,0.187 -0.415,0.416 l 0,5.489 c 0,0.226 0.187,0.414 0.415,0.414 l 5.484,0 C -0.187,5.903 0,5.715 0,5.489 L 0,0 Z" />
    </g>
    <g
       transform="matrix(1.25,0,0,-1.25,510.78994,461.66863)"
       id="g1356">
      <path
         id="path1358"
         style="fill:#f2f9ff;fill-opacity:1;fill-rule:nonzero;stroke:none"
         d="m 0,0 c 0,-0.229 -0.185,-0.416 -0.412,-0.416 l -5.486,0 c -0.227,0 -0.413,0.187 -0.413,0.416 l 0,5.489 c 0,0.226 0.186,0.414 0.413,0.414 l 5.486,0 C -0.185,5.903 0,5.715 0,5.489 L 0,0 Z" />
    </g>
    <g
       transform="matrix(1.25,0,0,-1.25,467.38119,476.14383)"
       id="g1360">
      <path
         id="path1362"
         style="fill:#f2f9ff;fill-opacity:1;fill-rule:nonzero;stroke:none"
         d="m 0,0 c 0,-0.227 -0.185,-0.412 -0.413,-0.412 l -5.486,0 c -0.23,0 -0.414,0.185 -0.414,0.412 l 0,5.49 c 0,0.231 0.184,0.413 0.414,0.413 l 5.486,0 C -0.185,5.903 0,5.721 0,5.49 L 0,0 Z" />
    </g>
    <g
       transform="matrix(1.25,0,0,-1.25,481.85256,476.14383)"
       id="g1364">
      <path
         id="path1366"
         style="fill:#f2f9ff;fill-opacity:1;fill-rule:nonzero;stroke:none"
         d="m 0,0 c 0,-0.227 -0.187,-0.412 -0.415,-0.412 l -5.485,0 c -0.23,0 -0.415,0.185 -0.415,0.412 l 0,5.49 c 0,0.231 0.185,0.413 0.415,0.413 l 5.485,0 C -0.187,5.903 0,5.721 0,5.49 L 0,0 Z" />
    </g>
    <g
       transform="matrix(1.25,0,0,-1.25,496.32406,476.14383)"
       id="g1368">
      <path
         id="path1370"
         style="fill:#f2f9ff;fill-opacity:1;fill-rule:nonzero;stroke:none"
         d="m 0,0 c 0,-0.227 -0.187,-0.412 -0.416,-0.412 l -5.484,0 c -0.228,0 -0.415,0.185 -0.415,0.412 l 0,5.49 c 0,0.231 0.187,0.413 0.415,0.413 l 5.484,0 C -0.187,5.903 0,5.721 0,5.49 L 0,0 Z" />
    </g>
    <g
       transform="matrix(1.25,0,0,-1.25,510.78994,476.14383)"
       id="g1372">
      <path
         id="path1374"
         style="fill:#f2f9ff;fill-opacity:1;fill-rule:nonzero;stroke:none"
         d="m 0,0 c 0,-0.227 -0.185,-0.412 -0.412,-0.412 l -5.486,0 c -0.227,0 -0.413,0.185 -0.413,0.412 l 0,5.49 c 0,0.231 0.186,0.413 0.413,0.413 l 5.486,0 C -0.185,5.903 0,5.721 0,5.49 L 0,0 Z" />
    </g>
    <g
       transform="matrix(1.25,0,0,-1.25,467.38119,490.61043)"
       id="g1376">
      <path
         id="path1378"
         style="fill:#f2f9ff;fill-opacity:1;fill-rule:nonzero;stroke:none"
         d="m 0,0 c 0,-0.229 -0.185,-0.415 -0.413,-0.415 l -5.486,0 c -0.23,0 -0.414,0.186 -0.414,0.415 l 0,5.487 c 0,0.229 0.184,0.412 0.414,0.412 l 5.486,0 C -0.185,5.899 0,5.716 0,5.487 L 0,0 Z" />
    </g>
    <g
       transform="matrix(1.25,0,0,-1.25,481.85256,490.61043)"
       id="g1380">
      <path
         id="path1382"
         style="fill:#f2f9ff;fill-opacity:1;fill-rule:nonzero;stroke:none"
         d="m 0,0 c 0,-0.229 -0.187,-0.415 -0.415,-0.415 l -5.485,0 c -0.23,0 -0.415,0.186 -0.415,0.415 l 0,5.487 c 0,0.229 0.185,0.412 0.415,0.412 l 5.485,0 C -0.187,5.899 0,5.716 0,5.487 L 0,0 Z" />
    </g>
    <g
       transform="matrix(1.25,0,0,-1.25,496.32406,490.61043)"
       id="g1384">
      <path
         id="path1386"
         style="fill:#20364d;fill-opacity:1;fill-rule:nonzero;stroke:none"
         d="m 0,0 c 0,-0.229 -0.187,-0.415 -0.416,-0.415 l -5.484,0 c -0.228,0 -0.415,0.186 -0.415,0.415 l 0,5.487 c 0,0.229 0.187,0.412 0.415,0.412 l 5.484,0 C -0.187,5.899 0,5.716 0,5.487 L 0,0 Z" />
    </g>
    <g
       transform="matrix(1.25,0,0,-1.25,467.38119,505.08303)"
       id="g1388">
      <path
         id="path1390"
         style="fill:#f2f9ff;fill-opacity:1;fill-rule:nonzero;stroke:none"
         d="m 0,0 c 0,-0.228 -0.185,-0.412 -0.413,-0.412 l -5.486,0 c -0.23,0 -0.414,0.184 -0.414,0.412 l 0,5.486 c 0,0.228 0.184,0.416 0.414,0.416 l 5.486,0 C -0.185,5.902 0,5.714 0,5.486 L 0,0 Z" />
    </g>
    <g
       transform="matrix(1.25,0,0,-1.25,481.85256,505.08303)"
       id="g1392">
      <path
         id="path1394"
         style="fill:#f2f9ff;fill-opacity:1;fill-rule:nonzero;stroke:none"
         d="m 0,0 c 0,-0.228 -0.187,-0.412 -0.415,-0.412 l -5.485,0 c -0.23,0 -0.415,0.184 -0.415,0.412 l 0,5.486 c 0,0.228 0.185,0.416 0.415,0.416 l 5.485,0 C -0.187,5.902 0,5.714 0,5.486 L 0,0 Z" />
    </g>
    <g
       transform="matrix(1.25,0,0,-1.25,496.32406,505.08303)"
       id="g1396">
      <path
         id="path1398"
         style="fill:#20364d;fill-opacity:1;fill-rule:nonzero;stroke:none"
         d="m 0,0 c 0,-0.228 -0.187,-0.412 -0.416,-0.412 l -5.484,0 c -0.228,0 -0.415,0.184 -0.415,0.412 l 0,5.486 c 0,0.228 0.187,0.416 0.415,0.416 l 5.484,0 C -0.187,5.902 0,5.714 0,5.486 L 0,0 Z" />
    </g>
    <g
       transform="matrix(1.25,0,0,-1.25,510.78994,505.08303)"
       id="g1400">
      <path
         id="path1402"
         style="fill:#20364d;fill-opacity:1;fill-rule:nonzero;stroke:none"
         d="m 0,0 c 0,-0.228 -0.185,-0.412 -0.412,-0.412 l -5.486,0 c -0.227,0 -0.413,0.184 -0.413,0.412 l 0,5.486 c 0,0.228 0.186,0.416 0.413,0.416 l 5.486,0 C -0.185,5.902 0,5.714 0,5.486 L 0,0 Z" />
    </g>
    <g
       transform="matrix(1.25,0,0,-1.25,510.78994,490.61043)"
       id="g1404">
      <path
         id="path1406"
         style="fill:#20364d;fill-opacity:1;fill-rule:nonzero;stroke:none"
         d="m 0,0 c 0,-0.229 -0.185,-0.415 -0.412,-0.415 l -5.486,0 c -0.227,0 -0.413,0.186 -0.413,0.415 l 0,5.487 c 0,0.229 0.186,0.412 0.413,0.412 l 5.486,0 C -0.185,5.899 0,5.716 0,5.487 L 0,0 Z" />
    </g>
    <g
       transform="matrix(1.25,0,0,-1.25,516.93569,422.40113)"
       id="g1408">
      <path
         id="path1410"
         style="fill:#ffffff;fill-opacity:1;fill-rule:nonzero;stroke:none"
         d="M 0,0 C 0,0.608 -0.235,1.218 -0.695,1.679 -1.16,2.144 -1.766,2.374 -2.373,2.374 l -46.476,0 c -0.608,0 -1.214,-0.23 -1.676,-0.695 C -50.99,1.218 -51.223,0.608 -51.223,0 l 0,-20.425 51.223,0 L 0,0 Z" />
    </g>
    <g
       transform="matrix(1.25,0,0,-1.25,460.00694,442.81003)"
       id="g1412">
      <path
         id="path1414"
         style="fill:#d7e1ea;fill-opacity:1;fill-rule:nonzero;stroke:none"
         d="m 0,0 c -0.374,0 -0.728,0.144 -0.991,0.41 -0.264,0.264 -0.41,0.614 -0.41,0.988 l 0,11.803 c 0,0.374 0.146,0.725 0.41,0.987 0.263,0.265 0.617,0.414 0.991,0.414 l 40.215,0 c 0.376,0 0.73,-0.149 0.994,-0.415 0.26,-0.261 0.406,-0.612 0.406,-0.986 l 0,-11.803 C 41.615,1.024 41.469,0.674 41.207,0.41 40.945,0.146 40.591,0 40.215,0 L 0,0 Z" />
    </g>
    <g
       transform="matrix(1.25,0,0,-1.25,460.00694,425.79353)"
       id="g1416">
      <path
         id="path1418"
         style="fill:#0e303f;fill-opacity:1;fill-rule:nonzero;stroke:none"
         d="m 0,0 c -0.106,0 -0.212,-0.038 -0.292,-0.12 -0.082,-0.082 -0.122,-0.187 -0.122,-0.292 l 0,-11.803 c 0,-0.104 0.04,-0.212 0.122,-0.291 0.08,-0.081 0.186,-0.122 0.292,-0.122 l 40.215,0 c 0.105,0 0.21,0.041 0.292,0.122 0.08,0.079 0.119,0.187 0.119,0.291 l 0,11.803 c 0,0.105 -0.039,0.21 -0.119,0.292 C 40.425,-0.038 40.32,0 40.215,0 L 0,0 Z" />
    </g>
    <path
       id="path1420"
       style="fill:#2f4f6b;fill-opacity:1;fill-rule:nonzero;stroke:none"
       d="m 516.93569,447.93163 -64.02875,0 0,-1.2325 64.02875,0 0,1.2325 z" />
    <g
       transform="matrix(1.25,0,0,-1.25,504.56806,520.08303)"
       id="g1422">
      <path
         id="path1424"
         style="fill:#fdcf9d;fill-opacity:1;fill-rule:nonzero;stroke:none"
         d="m 0,0 -12.407,12.407 c -2.652,2.652 -6.953,2.657 -9.606,0.005 l -1.6,-1.6 c -0.067,-0.068 -0.123,-0.142 -0.186,-0.214 L -13.203,0.002 0,0 Z" />
    </g>
    <g
       transform="matrix(1.25,0,0,-1.25,507.52094,512.68683)"
       id="g1426">
      <path
         id="path1428"
         style="fill:#fdcf9d;fill-opacity:1;fill-rule:nonzero;stroke:none"
         d="m 0,0 -16.123,-0.006 c -1.523,0.001 -2.923,-0.506 -4.061,-1.353 L -12.203,-9.34 9.339,-9.338 0,0 Z" />
    </g>
    <g
       transform="matrix(1.25,0,0,-1.25,470.94081,454.34453)"
       id="g1430">
      <path
         id="path1432"
         style="fill:#fdcf9d;fill-opacity:1;fill-rule:nonzero;stroke:none"
         d="m 0,0 c 1.795,1.796 4.713,1.792 6.506,-0.001 l 23.95,-23.949 c 1.796,-1.792 1.794,-4.709 -0.001,-6.504 -1.794,-1.794 -4.708,-1.794 -6.503,0.001 L 0.003,-6.504 C -1.791,-4.711 -1.794,-1.794 0,0" />
    </g>
    <g
       transform="matrix(1.25,0,0,-1.25,507.95856,519.71803)"
       id="g1434">
      <path
         id="path1436"
         style="fill:#fdcf9d;fill-opacity:1;fill-rule:nonzero;stroke:none"
         d="m 0,0 c 4.667,-4.668 12.234,-4.668 16.897,0.001 l 13.73,13.729 c 4.667,4.662 4.668,12.23 0.001,16.898 L 16.902,44.354 C 12.236,49.02 4.667,49.02 0.003,44.355 l -13.73,-13.73 c -4.666,-4.665 -4.667,-12.23 10e-4,-16.898 L 0,0 Z" />
    </g>
    <g
       transform="matrix(1.25,0,0,-1.25,509.57844,452.90043)"
       id="g1438">
      <path
         id="path1440"
         style="fill:#fdcf9d;fill-opacity:1;fill-rule:nonzero;stroke:none"
         d="m 0,0 c 1.795,1.796 4.708,1.798 6.502,0.003 l 15.339,-15.339 c 1.796,-1.796 1.797,-4.711 10e-4,-6.506 -1.797,-1.797 -4.708,-1.794 -6.505,0.003 L -0.001,-6.5 C -1.796,-4.706 -1.797,-1.797 0,0" />
    </g>
    <g
       transform="matrix(1.25,0,0,-1.25,490.28469,453.50713)"
       id="g1442">
      <path
         id="path1444"
         style="fill:#fdcf9d;fill-opacity:1;fill-rule:nonzero;stroke:none"
         d="m 0,0 c 1.798,1.799 4.71,1.795 6.505,0 l 23.95,-23.95 c 1.796,-1.796 1.799,-4.707 0.001,-6.506 -1.794,-1.794 -4.708,-1.794 -6.504,0.003 L 0.002,-6.504 C -1.793,-4.708 -1.794,-1.794 0,0" />
    </g>
    <g
       transform="matrix(1.25,0,0,-1.25,467.84806,471.42833)"
       id="g1446">
      <path
         id="path1448"
         style="fill:#fdcf9d;fill-opacity:1;fill-rule:nonzero;stroke:none"
         d="M 0,0 C 1.797,1.797 4.71,1.792 6.504,-0.002 L 25.542,-19.04 c 1.797,-1.797 1.798,-4.707 10e-4,-6.504 -1.795,-1.795 -4.708,-1.797 -6.504,0 L 0.001,-6.506 C -1.793,-4.712 -1.795,-1.796 0,0" />
    </g>
    <g
       transform="matrix(1.25,0,0,-1.25,580.89131,524.57763)"
       id="g1450">
      <path
         id="path1452"
         style="fill:#fdcf9d;fill-opacity:1;fill-rule:nonzero;stroke:none"
         d="m 0,0 -33.664,33.664 c -3.167,3.167 -8.299,3.164 -11.467,-0.005 l -9.311,-9.309 c -3.165,-3.166 -3.166,-8.296 10e-4,-11.463 L -20.777,-20.777 0,0 Z" />
    </g>
    <g
       transform="matrix(1.25,0,0,-1.25,585.82657,520.15863)"
       id="g1454">
      <path
         id="path1456"
         style="fill:#ffffff;fill-opacity:1;fill-rule:nonzero;stroke:none"
         d="M 0,0 -28.263,-28.263 -42.666,-13.859 -14.403,14.403 0,0 Z" />
    </g>
    <g
       transform="matrix(1.25,0,0,-1.25,587.24569,518.91483)"
       id="g1458">
      <path
         id="path1460"
         style="fill:#2f4962;fill-opacity:1;fill-rule:nonzero;stroke:none"
         d="M 0,0 -9.608,9.608 -40.003,-20.786 0,-60.79 0,0 Z" />
    </g>
    <g
       transform="matrix(1.25,0,0,-1.25,551.68844,545.38703)"
       id="g1462">
      <path
         id="path1464"
         style="fill:#103754;fill-opacity:1;fill-rule:nonzero;stroke:none"
         d="m 0,0 c 0.799,-0.799 0.798,-2.1 0,-2.897 -0.799,-0.8 -2.097,-0.798 -2.896,10e-4 -0.798,0.798 -0.799,2.094 0,2.894 C -2.097,0.796 -0.799,0.799 0,0" />
    </g>
    <g
       transform="matrix(1.25,0,0,-1.25,450.75769,666.21093)"
       id="g1994">
      <path
         id="path1996"
         style="fill:#ffffff;fill-opacity:1;fill-rule:evenodd;stroke:none"
         d="M 0,0 C 0,-0.586 0.09,-1.09 0.273,-1.508 0.457,-1.922 0.711,-2.23 1.027,-2.441 1.347,-2.654 1.695,-2.76 2.074,-2.76 l 0.006,0 0,-1.625 C 1.865,-4.42 1.64,-4.439 1.404,-4.439 c -0.521,0 -1.006,0.109 -1.449,0.328 -0.44,0.22 -0.828,0.535 -1.154,0.947 -0.323,0.404 -0.571,0.889 -0.738,1.443 -0.169,0.551 -0.251,1.151 -0.251,1.797 0,1.36 0.334,2.42 0.998,3.182 0.666,0.76 1.541,1.14 2.627,1.14 0.227,0 0.44,-0.013 0.643,-0.041 l 0,-1.572 -0.022,0 C 1.658,2.785 1.301,2.676 0.986,2.451 0.676,2.223 0.433,1.896 0.26,1.473 0.084,1.053 0,0.559 0,0 m 2.08,-2.76 c 0.381,0 0.728,0.104 1.041,0.301 0.318,0.199 0.57,0.502 0.76,0.916 0.187,0.416 0.281,0.928 0.281,1.543 0,0.584 -0.094,1.082 -0.281,1.498 -0.19,0.42 -0.443,0.74 -0.77,0.955 C 2.797,2.676 2.455,2.781 2.08,2.785 l 0,1.572 C 2.435,4.305 2.748,4.213 3.023,4.078 3.453,3.863 3.873,3.529 4.283,3.084 l 0,3.215 c 0,0.449 0.088,0.785 0.268,1.013 0.178,0.233 0.433,0.342 0.761,0.342 0.332,0 0.584,-0.105 0.76,-0.318 C 6.254,7.127 6.344,6.82 6.344,6.41 l 0,-9.607 c 0,-0.414 -0.096,-0.727 -0.286,-0.932 -0.197,-0.209 -0.443,-0.31 -0.746,-0.31 -0.297,0 -0.541,0.101 -0.738,0.32 -0.193,0.213 -0.291,0.525 -0.291,0.922 l 0,0.218 C 3.99,-3.318 3.701,-3.588 3.418,-3.799 3.133,-4.012 2.826,-4.168 2.492,-4.279 2.359,-4.322 2.224,-4.357 2.08,-4.385 l 0,1.625 z" />
    </g>
    <g
       transform="matrix(1.25,0,0,-1.25,463.69469,665.34913)"
       id="g1998">
      <path
         id="path2000"
         style="fill:#ffffff;fill-opacity:1;fill-rule:evenodd;stroke:none"
         d="m 0,0 1.974,0 0,-1.238 -1.974,0 c 0.002,-0.494 0.104,-0.93 0.297,-1.305 0.195,-0.381 0.453,-0.664 0.777,-0.855 0.277,-0.166 0.574,-0.26 0.9,-0.284 l 0,-1.445 c -1.289,0.043 -2.304,0.44 -3.037,1.195 -0.779,0.797 -1.166,1.877 -1.166,3.243 0,0.646 0.094,1.242 0.289,1.796 0.192,0.547 0.471,1.022 0.838,1.414 0.367,0.393 0.817,0.696 1.354,0.905 0.521,0.205 1.095,0.308 1.722,0.314 l 0,-1.515 -0.005,0 C 1.426,2.225 0.979,2.039 0.633,1.668 0.285,1.289 0.07,0.734 0,0 m 1.974,-5.127 0,1.445 c 0.055,-0.002 0.108,-0.004 0.164,-0.004 0.258,0 0.497,0.03 0.716,0.09 0.212,0.059 0.419,0.157 0.622,0.287 0.205,0.133 0.389,0.272 0.561,0.42 0.168,0.149 0.389,0.35 0.66,0.604 0.113,0.097 0.272,0.148 0.479,0.148 0.222,0 0.402,-0.062 0.543,-0.185 0.136,-0.121 0.207,-0.297 0.207,-0.518 0,-0.197 -0.075,-0.426 -0.229,-0.691 C 5.541,-3.795 5.31,-4.049 4.996,-4.289 4.688,-4.531 4.295,-4.73 3.824,-4.895 3.353,-5.051 2.813,-5.129 2.199,-5.129 c -0.076,0 -0.152,0 -0.225,0.002 M 1.974,0 3.949,0 C 3.896,0.742 3.693,1.301 3.344,1.668 2.996,2.037 2.539,2.225 1.974,2.225 l 0,1.515 0.067,0 C 2.894,3.74 3.623,3.564 4.229,3.199 4.842,2.842 5.297,2.379 5.604,1.811 5.904,1.244 6.053,0.662 6.053,0.07 6.053,-0.475 5.896,-0.834 5.584,-0.994 5.267,-1.158 4.828,-1.238 4.26,-1.238 l -2.286,0 0,1.238 z" />
    </g>
    <g
       transform="matrix(1.25,0,0,-1.25,482.32257,668.20553)"
       id="g2002">
      <path
         id="path2004"
         style="fill:#ffffff;fill-opacity:1;fill-rule:evenodd;stroke:none"
         d="m 0,0 c 0,-0.598 -0.145,-1.113 -0.437,-1.539 -0.294,-0.432 -0.725,-0.756 -1.296,-0.977 -0.572,-0.218 -1.271,-0.328 -2.086,-0.328 -0.781,0 -1.453,0.115 -2.013,0.356 -0.563,0.238 -0.971,0.543 -1.237,0.898 -0.265,0.358 -0.4,0.719 -0.4,1.082 0,0.24 0.084,0.444 0.256,0.612 0.172,0.173 0.387,0.259 0.648,0.259 0.227,0 0.401,-0.058 0.526,-0.17 0.121,-0.107 0.24,-0.267 0.353,-0.468 0.221,-0.389 0.49,-0.68 0.797,-0.868 0.313,-0.195 0.74,-0.289 1.275,-0.289 0.434,0 0.793,0.098 1.075,0.289 0.279,0.194 0.418,0.416 0.418,0.666 0,0.383 -0.149,0.664 -0.434,0.84 -0.291,0.172 -0.768,0.344 -1.434,0.502 -0.75,0.186 -1.361,0.377 -1.83,0.586 -0.47,0.205 -0.845,0.473 -1.127,0.809 -0.283,0.338 -0.425,0.744 -0.425,1.238 0,0.438 0.129,0.848 0.392,1.24 0.258,0.387 0.645,0.692 1.151,0.926 0.509,0.231 1.123,0.346 1.839,0.346 0.563,0 1.071,-0.057 1.52,-0.172 0.449,-0.119 0.824,-0.276 1.125,-0.475 0.301,-0.195 0.531,-0.414 0.684,-0.654 0.158,-0.238 0.238,-0.473 0.238,-0.699 0,-0.25 -0.084,-0.457 -0.25,-0.614 -0.168,-0.158 -0.406,-0.242 -0.715,-0.242 -0.223,0 -0.414,0.065 -0.572,0.19 -0.155,0.127 -0.336,0.318 -0.537,0.576 -0.164,0.213 -0.358,0.385 -0.582,0.514 -0.225,0.125 -0.526,0.191 -0.911,0.191 -0.394,0 -0.72,-0.09 -0.98,-0.256 -0.26,-0.166 -0.391,-0.375 -0.391,-0.621 0,-0.232 0.094,-0.42 0.289,-0.564 0.19,-0.147 0.444,-0.27 0.772,-0.368 0.322,-0.091 0.773,-0.207 1.338,-0.349 0.678,-0.166 1.23,-0.356 1.658,-0.588 C -0.875,1.648 -0.549,1.381 -0.33,1.066 -0.108,0.756 0,0.398 0,0" />
    </g>
    <g
       transform="matrix(1.25,0,0,-1.25,486.00419,659.42633)"
       id="g2006">
      <path
         id="path2008"
         style="fill:#ffffff;fill-opacity:1;fill-rule:evenodd;stroke:none"
         d="M 0,0 C -0.305,0 -0.562,0.096 -0.776,0.279 -0.994,0.467 -1.1,0.73 -1.1,1.068 c 0,0.311 0.11,0.567 0.33,0.766 0.221,0.201 0.477,0.297 0.77,0.297 0.281,0 0.531,-0.088 0.752,-0.27 C 0.97,1.678 1.078,1.414 1.078,1.068 1.078,0.734 0.972,0.475 0.76,0.283 0.545,0.098 0.293,0 0,0 m 1.078,-2.246 0,-6.299 c 0,-0.437 -0.102,-0.766 -0.311,-0.99 -0.205,-0.223 -0.472,-0.332 -0.788,-0.332 -0.323,0 -0.583,0.111 -0.78,0.34 -0.201,0.23 -0.299,0.558 -0.299,0.982 l 0,6.232 c 0,0.428 0.098,0.756 0.299,0.971 0.197,0.219 0.457,0.328 0.78,0.328 0.316,0 0.583,-0.109 0.788,-0.328 0.209,-0.215 0.311,-0.517 0.311,-0.904" />
    </g>
    <g
       transform="matrix(1.25,0,0,-1.25,494.90806,673.90633)"
       id="g2010">
      <path
         id="path2012"
         style="fill:#ffffff;fill-opacity:1;fill-rule:evenodd;stroke:none"
         d="m 0,0 0,-1.514 -0.146,-0.002 c -0.75,0 -1.423,0.104 -2.012,0.317 -0.592,0.207 -1.047,0.478 -1.366,0.81 C -3.842,-0.053 -4,0.287 -4,0.639 c 0,0.265 0.088,0.48 0.271,0.644 0.178,0.176 0.395,0.258 0.651,0.258 0.32,0 0.599,-0.141 0.841,-0.422 0.114,-0.144 0.233,-0.293 0.36,-0.437 0.127,-0.145 0.265,-0.272 0.418,-0.377 0.148,-0.102 0.332,-0.178 0.545,-0.229 0.211,-0.051 0.457,-0.078 0.734,-0.078 0.061,0 0.121,0 0.18,0.002 m -2.096,6.213 c 0,-0.881 0.195,-1.551 0.578,-2.002 0.387,-0.447 0.885,-0.678 1.498,-0.678 L 0,3.533 0,1.971 C -0.213,1.934 -0.437,1.916 -0.676,1.916 c -0.727,0 -1.365,0.186 -1.912,0.559 -0.543,0.369 -0.963,0.89 -1.254,1.564 -0.295,0.67 -0.441,1.443 -0.441,2.324 0,0.649 0.093,1.241 0.267,1.766 0.18,0.527 0.432,0.973 0.762,1.334 0.33,0.365 0.711,0.633 1.144,0.818 0.428,0.18 0.903,0.274 1.42,0.274 0.241,0 0.473,-0.018 0.69,-0.055 l 0,-1.559 -0.037,0 C -0.66,8.941 -1.158,8.709 -1.533,8.232 -1.908,7.762 -2.096,7.092 -2.096,6.213 M 0,3.533 C 0.354,3.537 0.689,3.635 1.004,3.822 1.326,4.021 1.588,4.313 1.791,4.703 1.996,5.096 2.094,5.57 2.094,6.125 2.094,7.018 1.898,7.705 1.508,8.203 1.123,8.688 0.621,8.934 0,8.941 L 0,10.5 C 0.334,10.443 0.64,10.344 0.912,10.203 1.363,9.967 1.783,9.592 2.176,9.088 l 0,0.295 c 0,0.377 0.091,0.672 0.277,0.877 0.187,0.209 0.426,0.31 0.715,0.31 0.424,0 0.701,-0.138 0.84,-0.41 C 4.146,9.891 4.215,9.494 4.215,8.975 l 0,-6.329 C 4.215,1.926 4.142,1.301 3.984,0.779 3.832,0.258 3.586,-0.172 3.242,-0.514 2.902,-0.85 2.457,-1.107 1.906,-1.271 1.388,-1.422 0.754,-1.506 0,-1.514 L 0,0 C 0.478,0.018 0.854,0.094 1.133,0.234 1.445,0.391 1.658,0.609 1.787,0.891 1.914,1.178 1.982,1.479 2.004,1.797 2.025,2.119 2.045,2.635 2.056,3.35 1.717,2.885 1.33,2.523 0.892,2.281 0.625,2.133 0.326,2.029 0,1.971 l 0,1.562 z" />
    </g>
    <g
       transform="matrix(1.25,0,0,-1.25,505.40606,662.19733)"
       id="g2014">
      <path
         id="path2016"
         style="fill:#ffffff;fill-opacity:1;fill-rule:evenodd;stroke:none"
         d="M 0,0 0,-0.266 C 0.383,0.242 0.804,0.611 1.256,0.848 1.709,1.086 2.234,1.203 2.824,1.203 3.4,1.203 3.912,1.08 4.363,0.832 4.814,0.58 5.152,0.225 5.377,-0.229 5.521,-0.5 5.613,-0.789 5.656,-1.09 5.699,-1.402 5.72,-1.795 5.72,-2.271 l 0,-4.057 c 0,-0.438 -0.099,-0.766 -0.296,-0.99 -0.2,-0.223 -0.463,-0.332 -0.78,-0.332 -0.326,0 -0.588,0.111 -0.79,0.339 -0.202,0.231 -0.302,0.559 -0.302,0.983 l 0,3.633 c 0,0.716 -0.101,1.265 -0.3,1.648 -0.198,0.379 -0.598,0.568 -1.194,0.568 -0.388,0 -0.742,-0.117 -1.062,-0.347 C 0.677,-1.053 0.443,-1.373 0.295,-1.779 0.189,-2.104 0.133,-2.713 0.133,-3.6 l 0,-2.728 c 0,-0.44 -0.102,-0.774 -0.305,-0.994 -0.207,-0.219 -0.469,-0.328 -0.795,-0.328 -0.311,0 -0.572,0.111 -0.772,0.339 -0.203,0.231 -0.304,0.559 -0.304,0.983 l 0,6.299 c 0,0.412 0.09,0.724 0.273,0.925 0.18,0.206 0.424,0.307 0.74,0.307 0.19,0 0.364,-0.043 0.516,-0.133 C -0.358,0.979 -0.233,0.844 -0.141,0.66 -0.047,0.482 0,0.262 0,0" />
    </g>
    <g
       transform="matrix(1.25,0,0,-1.25,517.54231,665.34913)"
       id="g2018">
      <path
         id="path2020"
         style="fill:#ffffff;fill-opacity:1;fill-rule:evenodd;stroke:none"
         d="m 0,0 1.978,0 0,-1.238 -1.978,0 c 0.006,-0.494 0.105,-0.93 0.299,-1.305 0.193,-0.381 0.453,-0.664 0.771,-0.855 0.281,-0.166 0.58,-0.26 0.908,-0.284 l 0,-1.445 c -1.291,0.043 -2.304,0.44 -3.039,1.195 -0.775,0.797 -1.166,1.877 -1.166,3.243 0,0.646 0.1,1.242 0.289,1.796 0.19,0.547 0.469,1.022 0.838,1.414 0.371,0.393 0.817,0.696 1.356,0.905 0.517,0.205 1.091,0.306 1.722,0.314 l 0,-1.515 -0.006,0 C 1.429,2.225 0.982,2.039 0.633,1.668 0.287,1.289 0.076,0.734 0,0 m 1.978,-5.127 0,1.445 c 0.051,-0.002 0.106,-0.004 0.164,-0.004 0.258,0 0.496,0.03 0.712,0.09 0.216,0.059 0.421,0.157 0.626,0.287 0.205,0.133 0.389,0.272 0.557,0.42 0.172,0.149 0.394,0.35 0.662,0.604 0.114,0.097 0.275,0.148 0.48,0.148 0.223,0 0.403,-0.062 0.543,-0.185 0.137,-0.121 0.211,-0.297 0.211,-0.518 0,-0.197 -0.079,-0.426 -0.236,-0.691 C 5.543,-3.795 5.312,-4.049 4.998,-4.289 4.691,-4.531 4.299,-4.73 3.826,-4.895 3.357,-5.051 2.814,-5.129 2.203,-5.129 c -0.076,0 -0.151,0 -0.225,0.002 M 1.978,0 3.951,0 C 3.896,0.742 3.695,1.301 3.347,1.668 3.002,2.037 2.541,2.225 1.978,2.225 l 0,1.515 0.067,0 C 2.896,3.74 3.623,3.564 4.232,3.199 4.842,2.842 5.299,2.379 5.604,1.811 5.904,1.244 6.058,0.662 6.058,0.07 6.058,-0.475 5.898,-0.834 5.586,-0.994 5.273,-1.158 4.832,-1.238 4.263,-1.238 l -2.285,0 0,1.238 z" />
    </g>
    <g
       transform="matrix(1.25,0,0,-1.25,529.51256,666.21093)"
       id="g2022">
      <path
         id="path2024"
         style="fill:#ffffff;fill-opacity:1;fill-rule:evenodd;stroke:none"
         d="M 0,0 C 0,-0.586 0.092,-1.09 0.275,-1.508 0.461,-1.922 0.711,-2.23 1.027,-2.441 1.349,-2.654 1.697,-2.76 2.072,-2.76 l 0.012,0 0,-1.625 C 1.867,-4.42 1.642,-4.439 1.404,-4.439 c -0.519,0 -1.006,0.109 -1.449,0.328 -0.442,0.22 -0.828,0.535 -1.149,0.947 -0.328,0.404 -0.574,0.889 -0.74,1.443 -0.17,0.551 -0.254,1.151 -0.254,1.797 0,1.36 0.334,2.42 1,3.182 0.666,0.76 1.541,1.14 2.626,1.14 0.226,0 0.443,-0.013 0.646,-0.041 l 0,-1.572 -0.026,0 C 1.658,2.785 1.303,2.676 0.988,2.451 0.674,2.223 0.433,1.896 0.258,1.473 0.084,1.053 0,0.559 0,0 m 2.084,-2.76 c 0.379,0.002 0.726,0.104 1.041,0.301 0.313,0.199 0.568,0.502 0.756,0.916 C 4.072,-1.127 4.166,-0.615 4.166,0 4.166,0.584 4.072,1.082 3.881,1.498 3.693,1.918 3.438,2.238 3.115,2.453 2.803,2.676 2.459,2.781 2.084,2.785 l 0,1.572 C 2.438,4.305 2.75,4.213 3.021,4.078 3.453,3.863 3.875,3.529 4.283,3.084 l 0,3.215 c 0,0.449 0.092,0.785 0.27,1.013 0.177,0.233 0.429,0.342 0.761,0.342 0.33,0 0.582,-0.105 0.762,-0.318 C 6.254,7.127 6.344,6.82 6.344,6.41 l 0,-9.607 c 0,-0.414 -0.096,-0.727 -0.286,-0.932 -0.193,-0.209 -0.443,-0.31 -0.744,-0.31 -0.297,0 -0.543,0.101 -0.738,0.32 -0.195,0.213 -0.293,0.525 -0.293,0.922 l 0,0.218 C 3.99,-3.318 3.703,-3.588 3.418,-3.799 3.133,-4.012 2.824,-4.168 2.494,-4.279 2.361,-4.322 2.228,-4.357 2.084,-4.385 l 0,1.625 z" />
    </g>
    <g
       transform="matrix(1.25,0,0,-1.25,547.92557,666.28663)"
       id="g2026">
      <path
         id="path2028"
         style="fill:#ffffff;fill-opacity:1;fill-rule:evenodd;stroke:none"
         d="m 0,0 c 0,-0.867 0.199,-1.535 0.592,-2 0.386,-0.449 0.88,-0.68 1.49,-0.699 l 0,-1.633 c -0.108,0.02 -0.219,0.043 -0.322,0.068 -0.295,0.084 -0.549,0.188 -0.754,0.321 -0.207,0.127 -0.385,0.259 -0.532,0.402 -0.146,0.137 -0.339,0.344 -0.576,0.623 l 0,-0.219 c 0,-0.408 -0.099,-0.718 -0.297,-0.931 -0.197,-0.209 -0.445,-0.311 -0.748,-0.311 -0.31,0 -0.558,0.102 -0.742,0.311 -0.182,0.213 -0.275,0.523 -0.275,0.931 l 0,9.516 c 0,0.435 0.093,0.771 0.268,0.996 0.179,0.23 0.425,0.34 0.749,0.34 0.334,0 0.59,-0.108 0.772,-0.324 0.181,-0.217 0.273,-0.52 0.273,-0.92 l 0,-3.326 c 0.41,0.425 0.826,0.75 1.25,0.974 0.272,0.145 0.582,0.244 0.934,0.297 l 0,-1.572 C 1.697,2.834 1.354,2.721 1.047,2.512 0.722,2.283 0.463,1.957 0.279,1.527 0.092,1.096 0,0.588 0,0 m 2.082,-2.699 0.07,0 c 0.549,0 1.022,0.242 1.418,0.715 0.397,0.476 0.594,1.158 0.594,2.045 0,0.58 -0.08,1.07 -0.246,1.488 C 3.752,1.963 3.519,2.283 3.217,2.512 2.914,2.736 2.558,2.846 2.152,2.846 c -0.023,0 -0.045,0 -0.07,-0.002 l 0,1.572 C 2.285,4.445 2.5,4.459 2.73,4.459 3.451,4.459 4.088,4.285 4.631,3.945 5.179,3.604 5.601,3.107 5.9,2.453 6.201,1.805 6.351,1.027 6.351,0.137 6.351,-0.525 6.267,-1.133 6.103,-1.682 5.935,-2.232 5.689,-2.709 5.369,-3.111 5.049,-3.516 4.664,-3.83 4.209,-4.051 3.756,-4.27 3.254,-4.379 2.705,-4.379 c -0.215,0 -0.424,0.016 -0.623,0.047 l 0,1.633 z" />
    </g>
    <g
       transform="matrix(1.25,0,0,-1.25,560.29381,672.10453)"
       id="g2030">
      <path
         id="path2032"
         style="fill:#ffffff;fill-opacity:1;fill-rule:evenodd;stroke:none"
         d="m 0,0 0.199,0.486 -2.68,6.752 c -0.165,0.391 -0.248,0.674 -0.248,0.846 0,0.184 0.045,0.365 0.145,0.52 0.094,0.162 0.226,0.287 0.394,0.38 0.168,0.098 0.342,0.145 0.52,0.145 0.316,0 0.551,-0.1 0.711,-0.299 0.16,-0.197 0.303,-0.482 0.426,-0.857 L 1.312,2.611 3.058,7.6 C 3.193,8.004 3.32,8.318 3.431,8.549 3.543,8.777 3.66,8.93 3.787,9.01 3.91,9.09 4.088,9.129 4.316,9.129 4.48,9.129 4.64,9.086 4.791,8.996 4.943,8.908 5.06,8.793 5.142,8.643 5.226,8.494 5.265,8.338 5.265,8.174 5.246,8.076 5.209,7.93 5.162,7.744 5.115,7.555 5.056,7.365 4.984,7.176 L 2.146,-0.26 C 1.9,-0.918 1.662,-1.428 1.426,-1.799 1.195,-2.174 0.888,-2.459 0.498,-2.658 0.113,-2.857 -0.408,-2.957 -1.061,-2.957 c -0.638,0 -1.117,0.072 -1.437,0.207 -0.317,0.135 -0.477,0.389 -0.477,0.756 0,0.252 0.076,0.441 0.225,0.582 0.154,0.139 0.377,0.201 0.676,0.201 0.113,0 0.23,-0.016 0.345,-0.049 0.135,-0.029 0.254,-0.045 0.356,-0.045 0.25,0 0.447,0.039 0.588,0.112 0.146,0.07 0.275,0.203 0.389,0.386 C -0.281,-0.625 -0.146,-0.354 0,0" />
    </g>
    <g
       transform="matrix(1.25,0,0,-1.25,589.23056,653.67193)"
       id="g2078">
      <path
         id="path2080"
         style="fill:#ffffff;fill-opacity:1;fill-rule:evenodd;stroke:none"
         d="M 0,0 C -0.046,0.143 -0.093,0.279 -0.138,0.418 0.592,0.486 1.084,1.363 0.727,2.012 0.555,2.4 0.151,2.609 -0.248,2.617 l -0.046,0 C -0.636,2.611 -0.968,2.465 -1.164,2.16 -1.63,1.572 -1.267,0.631 -0.552,0.439 c 0.043,-0.146 0.086,-0.296 0.131,-0.453 -1.098,-0.072 -2.217,-0.314 -3.137,-0.941 0.094,-0.262 0.19,-0.531 0.285,-0.803 1.857,0.819 3.938,0.643 5.895,0.446 0.066,0.257 0.13,0.517 0.197,0.775 C 1.934,-0.139 0.963,0.008 0,0" />
    </g>
    <g
       transform="matrix(1.25,0,0,-1.25,577.71319,659.09183)"
       id="g2090">
      <path
         id="path2092"
         style="fill:#ffffff;fill-opacity:1;fill-rule:evenodd;stroke:none"
         d="m 0,0 c -0.776,-0.471 -1.416,-1.133 -1.951,-1.861 -0.155,0.289 -0.202,0.634 -0.403,0.892 -0.119,0.155 -0.326,0.092 -0.488,0.094 -0.207,-0.021 -0.408,0.035 -0.6,0.094 0.227,0.322 0.166,0.81 -0.185,1.019 -0.371,0.27 -0.946,0.035 -1.045,-0.408 -0.158,-0.484 0.36,-0.971 0.836,-0.844 0.252,-0.377 0.709,-0.314 1.101,-0.326 0.172,-0.306 0.305,-0.639 0.53,-0.914 -0.418,-0.82 -0.651,-1.742 -0.67,-2.666 0.533,-0.223 1.068,-0.453 1.609,-0.676 0.024,0.586 0.092,1.162 0.18,1.733 0.181,1.252 0.902,2.338 1.76,3.234 C 0.461,-0.406 0.226,-0.213 0,0" />
    </g>
  </g>
</svg>
