<?xml version="1.0" encoding="UTF-8" standalone="no"?>
<svg
   xmlns:dc="http://purl.org/dc/elements/1.1/"
   xmlns:cc="http://creativecommons.org/ns#"
   xmlns:rdf="http://www.w3.org/1999/02/22-rdf-syntax-ns#"
   xmlns:svg="http://www.w3.org/2000/svg"
   xmlns="http://www.w3.org/2000/svg"
   xmlns:sodipodi="http://sodipodi.sourceforge.net/DTD/sodipodi-0.dtd"
   xmlns:inkscape="http://www.inkscape.org/namespaces/inkscape"
   version="1.1"
   id="svg9311"
   viewBox="0 0 800 300"
   height="300"
   width="800"
   inkscape:version="0.91 r"
   sodipodi:docname="ecommerce_background_fall.svg">
  <sodipodi:namedview
     pagecolor="#ffffff"
     bordercolor="#666666"
     borderopacity="1"
     objecttolerance="10"
     gridtolerance="10"
     guidetolerance="10"
     inkscape:pageopacity="0"
     inkscape:pageshadow="2"
     inkscape:window-width="1440"
     inkscape:window-height="863"
     id="namedview249"
     showgrid="false"
     inkscape:zoom="0.71241008"
     inkscape:cx="426.90364"
     inkscape:cy="91.894814"
     inkscape:window-x="0"
     inkscape:window-y="180"
     inkscape:window-maximized="1"
     inkscape:current-layer="svg9311" />
  <defs
     id="defs9313">
    <clipPath
       id="clipPath1444"
       clipPathUnits="userSpaceOnUse">
      <path
         id="path1446"
         d="m 0,534 800,0 0,50 -800,0 0,-50 z" />
    </clipPath>
    <clipPath
       id="clipPath42"
       clipPathUnits="userSpaceOnUse">
      <path
         id="path44"
         d="M 0,800 800,800 800,0 0,0 0,800 Z" />
    </clipPath>
    <clipPath
       id="clipPath1166"
       clipPathUnits="userSpaceOnUse">
      <path
         id="path1168"
         d="m 25.4399,723.507 109.0571,0 0,-41.812 -109.0571,0 0,41.812 z" />
    </clipPath>
    <clipPath
       id="clipPath1182"
       clipPathUnits="userSpaceOnUse">
      <path
         id="path1184"
         d="m 278.44,778.507 109.057,0 0,-41.812 -109.057,0 0,41.812 z" />
    </clipPath>
    <clipPath
       id="clipPath1198"
       clipPathUnits="userSpaceOnUse">
      <path
         id="path1200"
         d="m 492.615,778.507 71.881,0 0,-27.344 -71.881,0 0,27.344 z" />
    </clipPath>
    <clipPath
       id="clipPath1214"
       clipPathUnits="userSpaceOnUse">
      <path
         id="path1216"
         d="m 374.785,707.166 77.369,0 0,-24.937 -77.369,0 0,24.937 z" />
    </clipPath>
    <clipPath
       id="clipPath1230"
       clipPathUnits="userSpaceOnUse">
      <path
         id="path1232"
         d="m 111.785,728.394 50.153,0 0,-16.135 -50.153,0 0,16.135 z" />
    </clipPath>
    <clipPath
       id="clipPath1246"
       clipPathUnits="userSpaceOnUse">
      <path
         id="path1248"
         d="m 701.785,773.394 50.152,0 0,-16.135 -50.152,0 0,16.135 z" />
    </clipPath>
    <clipPath
       id="clipPath1262"
       clipPathUnits="userSpaceOnUse">
      <path
         id="path1264"
         d="m 631.137,727.992 67.008,0 0,-32.06 -67.008,0 0,32.06 z" />
    </clipPath>
  </defs>
  <metadata
     id="metadata9316">
    <rdf:RDF>
      <cc:Work
         rdf:about="">
        <dc:format>image/svg+xml</dc:format>
        <dc:type
           rdf:resource="http://purl.org/dc/dcmitype/StillImage" />
        <dc:title />
      </cc:Work>
    </rdf:RDF>
  </metadata>
  <g
     transform="translate(0,-807.80775)"
     id="layer1">
    <g
       transform="matrix(0.81095596,0,0,0.81095596,1238.7602,902.88149)"
       id="g9809">
      <g
         transform="matrix(1.25,0,0,-1.25,-1534.2857,851.82649)"
         id="g38">
        <g
           id="g40"
           clip-path="url(#clipPath42)">
          <path
             d="m 666,564 -4,0 0,-27 4,0 0,27 z"
             style="fill:#f0f2b1;fill-opacity:1;fill-rule:nonzero;stroke:none"
             id="path994"
             inkscape:connector-curvature="0" />
          <g
             id="g996"
             transform="translate(681.3037,617.7734)">
            <path
               d="m 0,0 c 2.203,3.245 3.49,7.161 3.49,11.379 0,11.205 -9.083,20.289 -20.288,20.289 -11.205,0 -20.288,-9.084 -20.288,-20.289 0,-4.218 1.288,-8.134 3.491,-11.379 -2.203,-3.246 -3.491,-7.162 -3.491,-11.38 0,-4.218 1.288,-8.135 3.491,-11.379 -2.203,-3.246 -3.491,-7.162 -3.491,-11.38 0,-11.204 9.083,-20.289 20.288,-20.289 11.205,0 20.288,9.085 20.288,20.289 0,4.218 -1.287,8.134 -3.49,11.38 2.203,3.244 3.49,7.161 3.49,11.379 C 3.49,-7.162 2.203,-3.246 0,0"
               style="fill:#f0f2b1;fill-opacity:1;fill-rule:nonzero;stroke:none"
               id="path998"
               inkscape:connector-curvature="0" />
          </g>
          <g
             id="g1000"
             transform="translate(681.1426,617.7725)">
            <path
               d="m 0,0 c 2.214,3.245 3.709,7.161 3.709,11.38 0,11.123 -8.852,20.151 -19.852,20.282 l 0,-22.759 0,-17.805 0,-4.953 0,-17.806 0,-22.759 c 11,0.131 19.852,9.158 19.852,20.282 0,4.219 -1.398,8.135 -3.612,11.379 2.214,3.245 3.466,7.161 3.466,11.38 C 3.563,-7.16 2.214,-3.244 0,0"
               style="fill:#f0f2b1;fill-opacity:1;fill-rule:nonzero;stroke:none"
               id="path1002"
               inkscape:connector-curvature="0" />
          </g>
          <path
             d="m 435,600 -4,0 0,-63 4,0 0,63 z"
             style="fill:#f0f2b1;fill-opacity:1;fill-rule:nonzero;stroke:none"
             id="path1004"
             inkscape:connector-curvature="0" />
          <g
             id="g1006"
             transform="translate(459.876,588.9131)">
            <path
               d="m 0,0 -15.826,-0.572 -10.277,-12.051 -10.317,12.017 -15.829,0.522 2.963,15.558 -9.46,12.7 14.011,7.382 4.031,15.316 14.507,-6.35 14.488,6.399 L -7.628,35.617 6.408,28.28 -3.013,15.55 0,0 Z"
               style="fill:#f0f2b1;fill-opacity:1;fill-rule:nonzero;stroke:none"
               id="path1008"
               inkscape:connector-curvature="0" />
          </g>
          <g
             id="g1010"
             transform="translate(452.248,624.5303)">
            <path
               d="m 0,0 -4.081,15.304 -14.599,-6.399 -0.568,0.199 0,-56.703 0.662,-0.641 10.331,12.051 15.856,0.572 -2.999,15.55 9.427,12.73 L 0,0 Z"
               style="fill:#f0f2b1;fill-opacity:1;fill-rule:nonzero;stroke:none"
               id="path1012"
               inkscape:connector-curvature="0" />
          </g>
          <path
             d="m 295,580 -4,0 0,-45 4,0 0,45 z"
             style="fill:#f0f2b1;fill-opacity:1;fill-rule:nonzero;stroke:none"
             id="path1014"
             inkscape:connector-curvature="0" />
          <g
             id="g1016"
             transform="translate(326.6938,557)">
            <path
               d="m 0,0 -15.466,18 10.41,0 -21.416,25 13.322,0 -14.277,16 9.283,0 -11.898,14 6.543,0 L -34.058,85.228 -44.619,73 l 6.545,0 -11.898,-14 9.284,0 -14.278,-16 13.323,0 L -63.061,18 -52.65,18 -68.118,0 0,0 Z"
               style="fill:#f0f2b1;fill-opacity:1;fill-rule:nonzero;stroke:none"
               id="path1018"
               inkscape:connector-curvature="0" />
          </g>
          <g
             id="g1020"
             transform="translate(292,557)">
            <path
               d="M 0,0 34.694,0 19.228,18 29.638,18 8.222,43 21.544,43 7.267,59 16.55,59 4.651,73 11.195,73 1.083,85 0,85 0,0 Z"
               style="fill:#f0f2b1;fill-opacity:1;fill-rule:nonzero;stroke:none"
               id="path1022"
               inkscape:connector-curvature="0" />
          </g>
          <g
             id="g1024"
             transform="translate(110.3818,589.1445)">
            <path
               d="m 0,0 -3.179,2.462 -16.203,-12.431 0,16.824 -4,0 0,-16.824 -14.464,13.738 -3.199,-2.462 17.663,-16.205 0,-39.247 4,0 0,39.247 L 0,0 Z"
               style="fill:#f0f2b1;fill-opacity:1;fill-rule:nonzero;stroke:none"
               id="path1026"
               inkscape:connector-curvature="0" />
          </g>
          <g
             id="g1028"
             transform="translate(111.6074,617.8203)">
            <path
               d="m 0,0 c 0,-12.237 -9.921,-22.158 -22.159,-22.158 -12.238,0 -22.158,9.921 -22.158,22.158 0,12.238 9.92,22.159 22.158,22.159 C -9.921,22.159 0,12.238 0,0"
               style="fill:#f0f2b1;fill-opacity:1;fill-rule:nonzero;stroke:none"
               id="path1030"
               inkscape:connector-curvature="0" />
          </g>
          <g
             id="g1032"
             transform="translate(127.6104,593)">
            <path
               d="m 0,0 c 0,-6.646 -5.388,-12.034 -12.035,-12.034 -6.646,0 -12.034,5.388 -12.034,12.034 0,6.646 5.388,12.035 12.034,12.035 C -5.388,12.035 0,6.646 0,0"
               style="fill:#f0f2b1;fill-opacity:1;fill-rule:nonzero;stroke:none"
               id="path1034"
               inkscape:connector-curvature="0" />
          </g>
          <g
             id="g1036"
             transform="translate(80.5815,590.3057)">
            <path
               d="m 0,0 c 0,-5.247 -4.254,-9.503 -9.503,-9.503 -5.249,0 -9.504,4.256 -9.504,9.503 0,5.248 4.255,9.504 9.504,9.504 C -4.254,9.504 0,5.248 0,0"
               style="fill:#f0f2b1;fill-opacity:1;fill-rule:nonzero;stroke:none"
               id="path1038"
               inkscape:connector-curvature="0" />
          </g>
          <g
             id="g1040"
             transform="translate(90,639.9727)">
            <path
               d="m 0,0 0,-44.305 c 12,0.063 22.044,9.954 22.044,22.153 C 22.044,-9.953 12,-0.063 0,0"
               style="fill:#f0f2b1;fill-opacity:1;fill-rule:nonzero;stroke:none"
               id="path1042"
               inkscape:connector-curvature="0" />
          </g>
          <path
             d="m 749,591 -6,0 0,-56 6,0 0,56 z"
             style="fill:#f0f2b1;fill-opacity:1;fill-rule:nonzero;stroke:none"
             id="path1044"
             inkscape:connector-curvature="0" />
          <g
             id="g1046"
             transform="translate(787.8545,562)">
            <path
               d="m 0,0 -19.136,22 12.881,0 -26.498,31 16.483,0 -17.665,20 11.487,0 -14.722,17 8.096,0 -13.064,15.128 L -55.204,90 l 8.098,0 -14.722,-17 11.487,0 -17.666,-20 16.484,0 -26.498,-31 12.88,0 L -84.278,0 0,0 Z"
               style="fill:#f0f2b1;fill-opacity:1;fill-rule:nonzero;stroke:none"
               id="path1048"
               inkscape:connector-curvature="0" />
          </g>
          <g
             id="g1050"
             transform="translate(745,562)">
            <path
               d="M 0,0 42.854,0 23.719,22 36.6,22 10.102,53 26.585,53 8.92,73 20.406,73 5.685,90 13.78,90 1.27,106 0,106 0,0 Z"
               style="fill:#f0f2b1;fill-opacity:1;fill-rule:nonzero;stroke:none"
               id="path1052"
               inkscape:connector-curvature="0" />
          </g>
          <path
             d="m 521,564 -4,0 0,-27 4,0 0,27 z"
             style="fill:#c39467;fill-opacity:1;fill-rule:nonzero;stroke:none"
             id="path1054"
             inkscape:connector-curvature="0" />
          <g
             id="g1056"
             transform="translate(536.3037,617.7734)">
            <path
               d="m 0,0 c 2.203,3.245 3.49,7.161 3.49,11.379 0,11.205 -9.083,20.289 -20.288,20.289 -11.205,0 -20.288,-9.084 -20.288,-20.289 0,-4.218 1.288,-8.134 3.491,-11.379 -2.203,-3.246 -3.491,-7.162 -3.491,-11.38 0,-4.218 1.288,-8.135 3.491,-11.379 -2.203,-3.246 -3.491,-7.162 -3.491,-11.38 0,-11.204 9.083,-20.289 20.288,-20.289 11.205,0 20.288,9.085 20.288,20.289 0,4.218 -1.287,8.134 -3.49,11.38 2.203,3.244 3.49,7.161 3.49,11.379 C 3.49,-7.162 2.203,-3.246 0,0"
               style="fill:#c4bf00;fill-opacity:1;fill-rule:nonzero;stroke:none"
               id="path1058"
               inkscape:connector-curvature="0" />
          </g>
          <g
             id="g1060"
             transform="translate(536.1426,617.7725)">
            <path
               d="m 0,0 c 2.214,3.245 3.709,7.161 3.709,11.38 0,11.123 -8.852,20.151 -19.852,20.282 l 0,-22.759 0,-17.805 0,-4.953 0,-17.806 0,-22.759 c 11,0.131 19.852,9.158 19.852,20.282 0,4.219 -1.398,8.135 -3.612,11.379 2.214,3.245 3.466,7.161 3.466,11.38 C 3.563,-7.16 2.214,-3.244 0,0"
               style="fill:#f4f92b;fill-opacity:1;fill-rule:nonzero;stroke:none"
               id="path1062"
               inkscape:connector-curvature="0" />
          </g>
          <path
             d="m 233,583 -6,0 0,-49 6,0 0,49 z"
             style="fill:#c39467;fill-opacity:1;fill-rule:nonzero;stroke:none"
             id="path1064"
             inkscape:connector-curvature="0" />
          <g
             id="g1066"
             transform="translate(260.8262,679.0737)">
            <path
               d="m 0,0 c 3.957,5.828 6.27,12.863 6.27,20.438 0,20.125 -16.314,36.439 -36.439,36.439 -20.125,0 -36.439,-16.314 -36.439,-36.439 0,-7.575 2.312,-14.61 6.269,-20.438 -3.957,-5.829 -6.269,-12.863 -6.269,-20.438 0,-7.575 2.312,-14.61 6.269,-20.438 -3.957,-5.83 -6.269,-12.863 -6.269,-20.439 0,-20.124 16.314,-36.44 36.439,-36.44 20.125,0 36.439,16.316 36.439,36.44 0,7.576 -2.313,14.609 -6.27,20.439 3.957,5.828 6.27,12.863 6.27,20.438 C 6.27,-12.863 3.957,-5.829 0,0"
               style="fill:#f25a29;fill-opacity:1;fill-rule:nonzero;stroke:none"
               id="path1068"
               inkscape:connector-curvature="0" />
          </g>
          <g
             id="g1070"
             transform="translate(260.5376,679.0728)">
            <path
               d="m 0,0 c 3.977,5.828 6.388,12.861 6.388,20.439 0,19.978 -15.926,36.192 -35.926,36.428 l 0,-40.877 0,-31.98 0,-8.896 0,-31.98 0,-40.877 c 20,0.237 35.926,16.45 35.926,36.429 0,7.577 -2.374,14.61 -6.351,20.438 3.977,5.828 6.295,12.861 6.295,20.439 C 6.332,-12.861 3.977,-5.827 0,0"
               style="fill:#fa9e2f;fill-opacity:1;fill-rule:nonzero;stroke:none"
               id="path1072"
               inkscape:connector-curvature="0" />
          </g>
          <path
             d="m 388,570 -2,0 0,-33 2,0 0,33 z"
             style="fill:#c39467;fill-opacity:1;fill-rule:nonzero;stroke:none"
             id="path1074"
             inkscape:connector-curvature="0" />
          <g
             id="g1076"
             transform="translate(400.8994,564.1904)">
            <path
               d="m 0,0 -8.29,-0.3 -5.382,-6.311 -5.404,6.294 -8.291,0.273 1.553,8.148 -4.956,6.653 7.339,3.866 2.111,8.023 7.599,-3.327 7.588,3.352 2.137,-8.016 L 3.356,14.813 -1.578,8.145 0,0 Z"
               style="fill:#668408;fill-opacity:1;fill-rule:nonzero;stroke:none"
               id="path1078"
               inkscape:connector-curvature="0" />
          </g>
          <g
             id="g1080"
             transform="translate(396.9038,582.8457)">
            <path
               d="m 0,0 -2.137,8.016 -7.558,-3.352 -0.209,0.105 0,-29.7 0.258,-0.336 5.367,6.312 8.282,0.3 -1.582,8.144 4.933,6.668 L 0,0 Z"
               style="fill:#85ad07;fill-opacity:1;fill-rule:nonzero;stroke:none"
               id="path1082"
               inkscape:connector-curvature="0" />
          </g>
          <path
             d="m 178,597 -6,0 0,-62 6,0 0,62 z"
             style="fill:#c39467;fill-opacity:1;fill-rule:nonzero;stroke:none"
             id="path1084"
             inkscape:connector-curvature="0" />
          <g
             id="g1086"
             transform="translate(220.9941,565)">
            <path
               d="m 0,0 -21.211,25 14.277,0 -29.371,34 18.271,0 -19.58,22 12.731,0 -16.318,19 8.974,0 -14.48,16.769 L -61.191,100 -52.215,100 -68.533,81 -55.8,81 -75.382,59 -57.11,59 -86.482,25 -72.205,25 -93.418,0 0,0 Z"
               style="fill:#a5b40e;fill-opacity:1;fill-rule:nonzero;stroke:none"
               id="path1088"
               inkscape:connector-curvature="0" />
          </g>
          <g
             id="g1090"
             transform="translate(174,565)">
            <path
               d="M 0,0 46.994,0 25.783,25 40.061,25 10.689,59 28.96,59 9.38,81 22.111,81 5.793,100 14.768,100 0.899,117 0,117 0,0 Z"
               style="fill:#efdf1a;fill-opacity:1;fill-rule:nonzero;stroke:none"
               id="path1092"
               inkscape:connector-curvature="0" />
          </g>
          <path
             d="m 475,558 -2,0 0,-24 2,0 0,24 z"
             style="fill:#c39467;fill-opacity:1;fill-rule:nonzero;stroke:none"
             id="path1094"
             inkscape:connector-curvature="0" />
          <g
             id="g1096"
             transform="translate(491.5879,546)">
            <path
               d="m 0,0 -8.176,9 5.504,0 -11.322,13 7.043,0 -7.549,9 4.908,0 -6.291,7 3.46,0 -5.582,6.465 -5.583,-6.465 3.46,0 -6.29,-7 4.908,0 -7.549,-9 7.043,0 L -33.338,9 -27.834,9 -36.012,0 0,0 Z"
               style="fill:#80ad12;fill-opacity:1;fill-rule:nonzero;stroke:none"
               id="path1098"
               inkscape:connector-curvature="0" />
          </g>
          <g
             id="g1100"
             transform="translate(473,546)">
            <path
               d="m 0,0 18.588,0 -8.176,9 5.504,0 -11.322,13 7.043,0 -7.549,9 4.908,0 -6.291,7 3.46,0 L 0.818,45 0,45 0,0 Z"
               style="fill:#91c60e;fill-opacity:1;fill-rule:nonzero;stroke:none"
               id="path1102"
               inkscape:connector-curvature="0" />
          </g>
          <g
             id="g1104"
             transform="translate(427.5,570.9668)">
            <path
               d="m 0,0 c -0.828,0 -1.5,-0.672 -1.5,-1.499 l 0,-10.468 -4,0 0,7.722 c 0,1.647 -0.573,3.278 -2.221,3.278 l -0.5,0 c -1.646,0 -4.279,-1.631 -4.279,-3.278 l 0,-12.722 -2,0 0,10.973 c 0,0.828 -1.172,1.498 -2,1.498 -0.828,0 -2,-0.67 -2,-1.498 l 0,-12.486 c 0,-0.828 0.712,-1.487 1.539,-1.487 l 4.461,0 0,-7.753 c 0,-1.648 2.633,-3.247 4.279,-3.247 l 0.5,0 c 1.648,0 2.221,1.599 2.221,3.247 l 0,11.753 5.521,0 c 0.828,0 1.479,1.154 1.479,1.983 l 0,12.485 C 1.5,-0.672 0.828,0 0,0"
               style="fill:#5e890b;fill-opacity:1;fill-rule:nonzero;stroke:none"
               id="path1106"
               inkscape:connector-curvature="0" />
          </g>
          <g
             id="g1108"
             transform="translate(427.5,570.9668)">
            <path
               d="m 0,0 c -0.828,0 -1.5,-0.672 -1.5,-1.499 l 0,-10.468 -4,0 0,7.722 c 0,1.647 -0.573,3.278 -2.221,3.278 l -0.5,0 c -0.083,0 -0.279,-0.537 -0.279,-0.542 l 0,-29.444 c 0,-0.008 0.196,-0.014 0.279,-0.014 l 0.5,0 c 1.648,0 2.221,1.599 2.221,3.247 l 0,11.753 5.521,0 c 0.828,0 1.479,1.154 1.479,1.983 l 0,12.485 C 1.5,-0.672 0.828,0 0,0"
               style="fill:#b3c410;fill-opacity:1;fill-rule:nonzero;stroke:none"
               id="path1110"
               inkscape:connector-curvature="0" />
          </g>
          <g
             id="g1112"
             transform="translate(299.1748,537)">
            <path
               d="m 0,0 -50.662,0 c 0,0 1.887,2.335 4.131,3.324 0,0 -2.066,1.659 -4.131,1.212 0,0 1.078,3.033 4.85,3.66 0,0 -3.953,-0.235 -5.48,2.01 0,0 2.516,0.196 4.941,1.724 0,0 -2.222,2.008 -4.445,1.468 0,0 1.684,2.766 5.253,2.766 0,0 -1.278,1.149 -2.964,0.879 0,0 1.416,2.561 6.132,2.763 0,0 -0.606,1.685 -2.224,1.956 0,0 2.29,3.097 6.939,2.76 0,0 -0.203,2.425 -2.426,2.56 0,0 2.83,2.156 5.997,0.405 0,0 0,3.571 -1.279,3.84 0,0 2.829,-0.673 4.31,-2.763 0,0 1.55,1.55 0.27,3.1 0,0 2.695,-1.213 2.896,-3.976 0,0 1.685,3.033 1.146,5.122 0,0 2.088,-0.608 2.426,-3.167 0,0 0.539,1.819 2.223,2.425 0,0 -0.202,-1.414 0.336,-2.896 0,0 1.01,1.751 3.504,2.762 0,0 -0.404,-0.81 -0.404,-2.83 0,0 1.752,1.75 4.042,1.954 0,0 -0.741,-2.831 -0.741,-3.774 0,0 2.425,1.011 4.985,0.673 0,0 -0.674,-0.875 -1.481,-2.625 0,0 3.233,0.47 7.208,-2.966 0,0 -2.224,-1.01 -2.831,-1.683 0,0 3.707,-0.472 6.467,-2.898 0,0 -2.627,-0.336 -3.636,-1.112 0,0 4.042,-0.504 5.254,-3.469 0,0 -3.166,0.538 -4.11,-1.144 0,0 1.55,0 4.447,-2.831 0,0 -3.099,0.068 -4.447,-1.144 0,0 2.83,-0.338 4.447,-2.897 0,0 -2.628,-0.473 -4.043,-1.954 0,0 2.494,0 3.1,-3.234"
               style="fill:#b5c614;fill-opacity:1;fill-rule:nonzero;stroke:none"
               id="path1114"
               inkscape:connector-curvature="0" />
          </g>
          <g
             id="g1116"
             transform="translate(291.7715,539)">
            <path
               d="m 0,0 -35.764,0 c 0,0 1.332,1.98 2.917,2.68 0,0 -1.458,1.341 -2.917,1.024 0,0 0.76,2.225 3.424,2.669 0,0 -2.789,-0.128 -3.867,1.457 0,0 1.775,0.161 3.487,1.238 0,0 -1.569,1.43 -3.138,1.048 0,0 1.188,1.957 3.71,1.957 0,0 -0.904,0.815 -2.093,0.625 0,0 0.998,1.806 4.327,1.948 0,0 -0.427,1.193 -1.569,1.383 0,0 1.617,2.188 4.899,1.95 0,0 -0.145,1.711 -1.713,1.807 0,0 1.998,1.523 4.233,0.285 0,0 0,2.52 -0.905,2.713 0,0 1.998,-0.477 3.045,-1.951 0,0 1.093,1.093 0.191,2.188 0,0 1.902,-0.857 2.044,-2.805 0,0 1.19,2.138 0.81,3.614 0,0 1.473,-0.429 1.711,-2.236 0,0 0.38,1.285 1.569,1.712 0,0 -0.142,-0.999 0.238,-2.045 0,0 0.713,1.235 2.472,1.951 0,0 -0.285,-0.57 -0.285,-1.999 0,0 1.237,1.236 2.856,1.378 0,0 -0.526,-1.995 -0.526,-2.662 0,0 1.713,0.714 3.521,0.476 0,0 -0.476,-0.619 -1.046,-1.854 0,0 2.281,0.332 5.088,-2.093 0,0 -1.57,-0.714 -1.997,-1.188 0,0 2.615,-0.335 4.565,-2.047 0,0 -1.855,-0.238 -2.568,-0.785 0,0 2.853,-0.355 3.71,-2.448 0,0 -2.236,0.381 -2.902,-0.808 0,0 1.094,0 3.139,-1.998 0,0 -2.187,0.047 -3.139,-0.808 0,0 1.997,-0.239 3.139,-2.046 0,0 -1.854,-0.668 -2.854,-1.715 0,0 1.76,1.385 2.188,-2.615"
               style="fill:#c8ce49;fill-opacity:1;fill-rule:nonzero;stroke:none"
               id="path1118"
               inkscape:connector-curvature="0" />
          </g>
          <g
             id="g1120"
             transform="translate(331.8867,576.4473)">
            <path
               d="m 0,0 -2.458,1.885 -12.429,-9.516 0,13.184 -3,0 0,-13.184 L -28.94,2.885 -31.398,1 l 13.511,-12.404 0,-30.043 3,0 0,30.043 L 0,0 Z"
               style="fill:#c39467;fill-opacity:1;fill-rule:nonzero;stroke:none"
               id="path1122"
               inkscape:connector-curvature="0" />
          </g>
          <g
             id="g1124"
             transform="translate(332.8745,598.3984)">
            <path
               d="m 0,0 c 0,-9.367 -7.594,-16.962 -16.962,-16.962 -9.369,0 -16.963,7.595 -16.963,16.962 0,9.368 7.594,16.963 16.963,16.963 C -7.594,16.963 0,9.368 0,0"
               style="fill:#fbb040;fill-opacity:1;fill-rule:nonzero;stroke:none"
               id="path1126"
               inkscape:connector-curvature="0" />
          </g>
          <g
             id="g1128"
             transform="translate(345.1245,579.3984)">
            <path
               d="m 0,0 c 0,-5.087 -4.125,-9.212 -9.212,-9.212 -5.088,0 -9.213,4.125 -9.213,9.212 0,5.088 4.125,9.213 9.213,9.213 C -4.125,9.213 0,5.088 0,0"
               style="fill:#f7d134;fill-opacity:1;fill-rule:nonzero;stroke:none"
               id="path1130"
               inkscape:connector-curvature="0" />
          </g>
          <g
             id="g1132"
             transform="translate(309.1245,577.3359)">
            <path
               d="m 0,0 c 0,-4.017 -3.257,-7.274 -7.275,-7.274 -4.018,0 -7.275,3.257 -7.275,7.274 0,4.018 3.257,7.275 7.275,7.275 C -3.257,7.275 0,4.018 0,0"
               style="fill:#fbb040;fill-opacity:1;fill-rule:nonzero;stroke:none"
               id="path1134"
               inkscape:connector-curvature="0" />
          </g>
          <g
             id="g1136"
             transform="translate(316,615.3564)">
            <path
               d="m 0,0 0,-33.915 c 9.327,0.048 16.875,7.619 16.875,16.957 C 16.875,-7.619 9.327,-0.048 0,0"
               style="fill:#f7d134;fill-opacity:1;fill-rule:nonzero;stroke:none"
               id="path1138"
               inkscape:connector-curvature="0" />
          </g>
          <g
             id="g1140"
             transform="translate(360.3394,556)">
            <path
               d="M 0,0 C -0.032,6 -5.121,11.345 -11.399,11.345 -17.676,11.345 -22.766,6 -22.798,0 L 0,0 Z"
               style="fill:#be1e2d;fill-opacity:1;fill-rule:nonzero;stroke:none"
               id="path1142"
               inkscape:connector-curvature="0" />
          </g>
          <g
             id="g1144"
             transform="translate(349,556)">
            <path
               d="M 0,0 11.339,0 C 11.309,6 7,11.138 0,11.288 L 0,0 Z"
               style="fill:#ed1c24;fill-opacity:1;fill-rule:nonzero;stroke:none"
               id="path1146"
               inkscape:connector-curvature="0" />
          </g>
          <path
             d="m 351,538 -4,0 0,18 4,0 0,-18 z"
             style="fill:#c39467;fill-opacity:1;fill-rule:nonzero;stroke:none"
             id="path1148"
             inkscape:connector-curvature="0" />
          <g
             id="g1150"
             transform="translate(345.4814,560.2314)">
            <path
               d="m 0,0 c 0,-0.985 -0.798,-1.784 -1.784,-1.784 -0.986,0 -1.784,0.799 -1.784,1.784 0,0.985 0.798,1.784 1.784,1.784 C -0.798,1.784 0,0.985 0,0"
               style="fill:#ffffff;fill-opacity:1;fill-rule:nonzero;stroke:none"
               id="path1152"
               inkscape:connector-curvature="0" />
          </g>
          <g
             id="g1154"
             transform="translate(352.0688,562.6162)">
            <path
               d="m 0,0 c 0,-0.631 -0.511,-1.142 -1.142,-1.142 -0.629,0 -1.14,0.511 -1.14,1.142 0,0.631 0.511,1.141 1.14,1.141 C -0.511,1.141 0,0.631 0,0"
               style="fill:#ffffff;fill-opacity:1;fill-rule:nonzero;stroke:none"
               id="path1156"
               inkscape:connector-curvature="0" />
          </g>
          <g
             id="g1158"
             transform="translate(356.3457,559.2676)">
            <path
               d="m 0,0 c 0,-0.809 -0.655,-1.463 -1.464,-1.463 -0.807,0 -1.462,0.654 -1.462,1.463 0,0.808 0.655,1.462 1.462,1.462 C -0.655,1.462 0,0.808 0,0"
               style="fill:#ffffff;fill-opacity:1;fill-rule:nonzero;stroke:none"
               id="path1160"
               inkscape:connector-curvature="0" />
          </g>
          <g
             id="g1162">
            <g
               id="g1164" />
            <g
               id="g1170">
              <g
                 clip-path="url(#clipPath1166)"
                 id="g1172"
                 style="opacity:0.69999701">
                <g
                   transform="translate(134.4966,687.7988)"
                   id="g1174">
                  <path
                     d="m 0,0 c 0,5.168 -4.189,9.482 -9.357,9.482 -2.152,0 -4.128,-0.67 -5.708,-1.891 0.169,0.618 0.267,1.298 0.267,1.97 0,4.053 -3.287,7.356 -7.342,7.356 -4.054,0 -7.341,-3.279 -7.341,-7.333 0,-0.191 0.014,-0.376 0.029,-0.564 -1.679,1.597 -3.944,2.585 -6.444,2.585 -2.279,0 -4.366,-0.815 -5.989,-2.168 0.002,0.057 0.009,0.112 0.009,0.17 0,4.805 -3.895,8.701 -8.7,8.701 -0.764,0 -1.501,-0.109 -2.207,-0.293 0.002,0.097 0.015,0.193 0.015,0.292 0,9.61 -7.791,17.401 -17.4,17.401 -7.519,0 -13.904,-4.776 -16.336,-11.453 -0.674,0.112 -1.361,0.184 -2.066,0.184 -6.914,0 -12.519,-5.605 -12.519,-12.519 0,-1.035 0.14,-2.286 0.377,-3.248 -4.531,-1.355 -7.914,-5.471 -8.345,-10.471 l 46.302,0 c 1.557,-2 4.376,-4.305 7.605,-4.305 3.23,0 6.048,2.305 7.605,4.305 l 47.406,0 C -0.054,-0.799 0,-0.529 0,0"
                     style="fill:#fff6a2;fill-opacity:1;fill-rule:nonzero;stroke:none"
                     id="path1176"
                     inkscape:connector-curvature="0" />
                </g>
              </g>
            </g>
          </g>
          <g
             id="g1178">
            <g
               id="g1180" />
            <g
               id="g1186">
              <g
                 clip-path="url(#clipPath1182)"
                 id="g1188"
                 style="opacity:0.69999701">
                <g
                   transform="translate(387.4966,742.7988)"
                   id="g1190">
                  <path
                     d="m 0,0 c 0,5.168 -4.189,9.482 -9.357,9.482 -2.152,0 -4.128,-0.67 -5.708,-1.891 0.169,0.618 0.267,1.298 0.267,1.97 0,4.053 -3.287,7.356 -7.342,7.356 -4.054,0 -7.341,-3.279 -7.341,-7.333 0,-0.191 0.014,-0.376 0.029,-0.564 -1.679,1.597 -3.944,2.585 -6.444,2.585 -2.279,0 -4.366,-0.815 -5.989,-2.168 0.002,0.057 0.009,0.112 0.009,0.17 0,4.805 -3.895,8.701 -8.7,8.701 -0.764,0 -1.501,-0.109 -2.207,-0.293 0.002,0.097 0.015,0.193 0.015,0.292 0,9.61 -7.791,17.401 -17.4,17.401 -7.519,0 -13.904,-4.776 -16.336,-11.453 -0.674,0.112 -1.361,0.184 -2.066,0.184 -6.914,0 -12.519,-5.605 -12.519,-12.519 0,-1.035 0.14,-2.286 0.377,-3.248 -4.531,-1.355 -7.914,-5.471 -8.345,-10.471 l 46.302,0 c 1.557,-2 4.376,-4.305 7.605,-4.305 3.23,0 6.048,2.305 7.605,4.305 l 47.406,0 C -0.054,-0.799 0,-0.529 0,0"
                     style="fill:#fff6a2;fill-opacity:1;fill-rule:nonzero;stroke:none"
                     id="path1192"
                     inkscape:connector-curvature="0" />
                </g>
              </g>
            </g>
          </g>
          <g
             id="g1194">
            <g
               id="g1196" />
            <g
               id="g1202">
              <g
                 clip-path="url(#clipPath1198)"
                 id="g1204"
                 style="opacity:0.69999701">
                <g
                   transform="translate(564.4961,755.0781)"
                   id="g1206">
                  <path
                     d="m 0,0 c 0,3.406 -2.762,6.196 -6.168,6.196 -1.417,0 -2.72,-0.469 -3.762,-1.272 0.112,0.406 0.176,0.842 0.176,1.284 0,2.672 -2.166,4.842 -4.838,4.842 -2.673,0 -4.84,-2.165 -4.84,-4.837 0,-0.126 0.01,-0.249 0.02,-0.373 -1.108,1.053 -2.6,1.703 -4.247,1.703 -1.502,0 -2.878,-0.538 -3.948,-1.431 0.002,0.038 0.006,0.075 0.006,0.114 0,3.167 -2.567,5.734 -5.735,5.734 -0.503,0 -0.988,-0.071 -1.454,-0.193 10e-4,0.064 0.01,0.128 0.01,0.192 0,6.335 -5.136,11.47 -11.469,11.47 -4.955,0 -9.164,-3.149 -10.768,-7.549 -0.444,0.074 -0.896,0.121 -1.361,0.121 -4.558,0 -8.251,-3.694 -8.251,-8.252 0,-0.682 0.091,-1.399 0.247,-2.033 -2.986,-0.893 -5.216,-3.794 -5.499,-6.794 l 30.519,0 c 1.025,-2 2.883,-2.837 5.011,-2.837 2.129,0 3.987,0.837 5.013,2.837 l 31.246,0 C -0.035,-1.078 0,-0.349 0,0"
                     style="fill:#fff6a2;fill-opacity:1;fill-rule:nonzero;stroke:none"
                     id="path1208"
                     inkscape:connector-curvature="0" />
                </g>
              </g>
            </g>
          </g>
          <g
             id="g1210">
            <g
               id="g1212" />
            <g
               id="g1218">
              <g
                 clip-path="url(#clipPath1214)"
                 id="g1220"
                 style="opacity:0.69999701">
                <g
                   transform="translate(444.0166,697.1484)"
                   id="g1222">
                  <path
                     d="m 0,0 c -0.979,0 -1.914,-0.182 -2.783,-0.499 -0.854,2.196 -2.984,3.756 -5.482,3.756 -2.599,0 -4.802,-1.689 -5.58,-4.028 -1.707,1 -3.688,1.584 -5.81,1.584 -2.412,0 -4.65,-0.745 -6.5,-2.012 0.051,0.33 0.085,0.667 0.085,1.011 0,3.699 -2.998,6.697 -6.697,6.697 -1.97,0 -3.736,-0.857 -4.961,-2.211 -2.117,3.428 -5.897,5.72 -10.221,5.72 -6.638,0 -12.019,-5.381 -12.019,-12.019 0,-0.025 0.004,-0.049 0.004,-0.074 -0.958,0.675 -2.123,1.075 -3.384,1.075 -3.25,0 -5.884,-2.885 -5.884,-6.134 0,-0.615 0.095,-1.014 0.27,-2.014 l 14.916,0 c 0.607,-3 3.48,-5.772 6.939,-5.772 3.459,0 6.332,2.772 6.938,5.772 l 2.215,0 6.975,0 22.648,0 c -0.01,1 -0.013,0.345 -0.022,0.392 0.03,-10e-4 0.059,0.12 0.088,0.12 0.05,0 0.098,-0.181 0.147,-0.18 0.002,-0.049 0.01,0.668 0.014,-0.332 l 16.215,0 c 0.011,1 0.027,0.588 0.027,0.761 C 8.138,-3.894 4.494,0 0,0"
                     style="fill:#fff6a2;fill-opacity:1;fill-rule:nonzero;stroke:none"
                     id="path1224"
                     inkscape:connector-curvature="0" />
                </g>
              </g>
            </g>
          </g>
          <g
             id="g1226">
            <g
               id="g1228" />
            <g
               id="g1234">
              <g
                 clip-path="url(#clipPath1230)"
                 id="g1236"
                 style="opacity:0.69999701">
                <g
                   transform="translate(117.0601,721.8999)"
                   id="g1238">
                  <path
                     d="m 0,0 c 0.635,0 1.241,-0.118 1.804,-0.323 0.553,1.423 1.934,2.434 3.553,2.434 1.685,0 3.114,-1.094 3.618,-2.611 1.106,0.648 2.391,1.027 3.766,1.027 1.564,0 3.014,-0.483 4.214,-1.304 -0.033,0.214 -0.056,0.432 -0.056,0.655 0,2.398 1.944,4.341 4.341,4.341 1.278,0 2.422,-0.555 3.216,-1.433 1.372,2.222 3.823,3.708 6.626,3.708 4.303,0 7.791,-3.488 7.791,-7.791 0,-0.016 -0.003,-0.032 -0.003,-0.048 0.621,0.437 1.376,0.697 2.193,0.697 2.107,0 3.815,-1.855 3.815,-3.961 0,-0.399 -0.062,-0.291 -0.175,-1.291 l -9.669,0 c -0.393,-2 -2.256,-3.741 -4.498,-3.741 -2.242,0 -4.104,1.741 -4.497,3.741 l -1.436,0 -4.521,0 -14.682,0 c 0.007,1 0.009,0.209 0.015,0.239 -0.019,0 -0.039,0.071 -0.058,0.071 -0.032,0 -0.063,-0.106 -0.094,-0.106 C 5.261,-5.728 5.256,-4.9 5.253,-5.9 l -10.511,0 c -0.007,1 -0.017,0.367 -0.017,0.479 C -5.275,-2.509 -2.913,0 0,0"
                     style="fill:#fff6a2;fill-opacity:1;fill-rule:nonzero;stroke:none"
                     id="path1240"
                     inkscape:connector-curvature="0" />
                </g>
              </g>
            </g>
          </g>
          <g
             id="g1242">
            <g
               id="g1244" />
            <g
               id="g1250">
              <g
                 clip-path="url(#clipPath1246)"
                 id="g1252"
                 style="opacity:0.69999701">
                <g
                   transform="translate(707.0605,766.8999)"
                   id="g1254">
                  <path
                     d="m 0,0 c 0.635,0 1.24,-0.118 1.804,-0.323 0.553,1.423 1.934,2.434 3.553,2.434 1.685,0 3.114,-1.094 3.618,-2.611 1.105,0.648 2.39,1.027 3.765,1.027 1.565,0 3.014,-0.483 4.214,-1.304 -0.032,0.214 -0.056,0.432 -0.056,0.655 0,2.398 1.944,4.341 4.342,4.341 1.278,0 2.422,-0.555 3.215,-1.433 1.373,2.222 3.823,3.708 6.627,3.708 4.303,0 7.79,-3.488 7.79,-7.791 0,-0.016 -0.003,-0.032 -0.003,-0.048 0.621,0.437 1.377,0.697 2.194,0.697 2.107,0 3.814,-1.855 3.814,-3.961 0,-0.399 -0.062,-0.291 -0.175,-1.291 l -9.669,0 c -0.392,-2 -2.256,-3.741 -4.498,-3.741 -2.242,0 -4.103,1.741 -4.497,3.741 l -1.435,0 -4.522,0 -14.681,0 c 0.006,1 0.008,0.209 0.014,0.239 -0.019,0 -0.038,0.071 -0.057,0.071 -0.033,0 -0.064,-0.106 -0.095,-0.106 C 5.261,-5.728 5.256,-4.9 5.253,-5.9 l -10.511,0 c -0.008,1 -0.017,0.367 -0.017,0.479 C -5.275,-2.509 -2.914,0 0,0"
                     style="fill:#fff6a2;fill-opacity:1;fill-rule:nonzero;stroke:none"
                     id="path1256"
                     inkscape:connector-curvature="0" />
                </g>
              </g>
            </g>
          </g>
          <g
             id="g1258">
            <g
               id="g1260" />
            <g
               id="g1266">
              <g
                 clip-path="url(#clipPath1262)"
                 id="g1268"
                 style="opacity:0.69999701">
                <g
                   transform="translate(698.1445,705.8965)"
                   id="g1270">
                  <path
                     d="m 0,0 c 0,5.253 -6.193,9.639 -13.895,9.756 0,0.06 0.008,0.181 0.008,0.241 0,6.665 -5.598,12.099 -12.507,12.099 -5.466,0 -10.102,-3.374 -11.803,-8.088 -1.592,1.91 -4.076,3.152 -6.876,3.152 -4.809,0 -8.706,-3.623 -8.706,-8.097 0,-0.182 0.016,-0.358 0.029,-0.538 -0.938,0.243 -1.927,0.375 -2.953,0.375 -5.692,0 -10.305,-4.217 -10.305,-9.117 0,-1.616 0.511,-2.703 1.388,-4.679 l 11.977,0 c 0.455,-2.872 2.934,-5.069 5.933,-5.069 2.999,0 5.478,2.197 5.932,5.069 l 40.014,0 C -0.642,-2.92 0,-1.687 0,0"
                     style="fill:#fff6a2;fill-opacity:1;fill-rule:nonzero;stroke:none"
                     id="path1272"
                     inkscape:connector-curvature="0" />
                </g>
              </g>
            </g>
          </g>
          <g
             id="g1274"
             transform="translate(647.4219,563.0615)">
            <path
               d="m 0,0 c 0,0 5.437,-15.958 6.877,-26.062 l 2.43,0 c 0,0 4.109,14.092 7.989,18.638 0,0 -4.213,-3.484 -6.872,-10.134 0,0 0.444,10.894 4.323,19.982 0,0 -3.325,-5.748 -5.431,-15.724 0,0 -0.666,25.391 3.879,36.253 0,0 -5.653,-10.524 -5.653,-32.028 0,0 -0.887,11.42 -7.094,19.067 0,0 5.654,-12.474 6.207,-25.554 0,0 -1.784,7.689 -6.655,15.562"
               style="fill:#ff9629;fill-opacity:1;fill-rule:nonzero;stroke:none"
               id="path1276"
               inkscape:connector-curvature="0" />
          </g>
          <g
             id="g1278"
             transform="translate(666.4219,563.0615)">
            <path
               d="m 0,0 c 0,0 5.437,-15.958 6.877,-26.062 l 2.43,0 c 0,0 4.109,14.092 7.989,18.638 0,0 -4.213,-3.484 -6.872,-10.134 0,0 0.444,10.894 4.323,19.982 0,0 -3.325,-5.748 -5.431,-15.724 0,0 -0.666,25.391 3.879,36.253 0,0 -5.653,-10.524 -5.653,-32.028 0,0 -0.887,11.42 -7.094,19.067 0,0 5.654,-12.474 6.207,-25.554 0,0 -1.784,7.689 -6.655,15.562"
               style="fill:#eb7a00;fill-opacity:1;fill-rule:nonzero;stroke:none"
               id="path1280"
               inkscape:connector-curvature="0" />
          </g>
          <path
             d="m 583,620 -9,0 0,-85 9,0 0,85 z"
             style="fill:#c39467;fill-opacity:1;fill-rule:nonzero;stroke:none"
             id="path1282"
             inkscape:connector-curvature="0" />
          <g
             id="g1284"
             transform="translate(641.6572,576)">
            <path
               d="m 0,0 -29.081,34 19.575,0 -40.269,47 25.049,0 -26.845,30 17.456,0 -22.374,26 12.304,0 -19.853,22.991 -19.858,-22.991 12.307,0 -22.374,-26 17.458,0 -26.848,-30 25.051,0 -40.27,-47 19.575,0 L -128.081,0 0,0 Z"
               style="fill:#eb7a00;fill-opacity:1;fill-rule:nonzero;stroke:none"
               id="path1286"
               inkscape:connector-curvature="0" />
          </g>
          <g
             id="g1288"
             transform="translate(577,576)">
            <path
               d="m 0,0 64.657,0 -29.081,34 19.575,0 -40.269,47 25.05,0 -26.846,30 17.456,0 -22.374,26 12.305,0 L 1.459,161 0,161 0,0 Z"
               style="fill:#ff9629;fill-opacity:1;fill-rule:nonzero;stroke:none"
               id="path1290"
               inkscape:connector-curvature="0" />
          </g>
          <path
             d="m 631,584 -6,0 0,-48 6,0 0,48 z"
             style="fill:#c39467;fill-opacity:1;fill-rule:nonzero;stroke:none"
             id="path1292"
             inkscape:connector-curvature="0" />
          <g
             id="g1294"
             transform="translate(657.3125,620.042)">
            <path
               d="m 0,0 c 0,-31.79 -12.465,-57.561 -27.841,-57.561 -15.375,0 -27.839,25.771 -27.839,57.561 0,31.788 12.464,57.56 27.839,57.56 C -12.465,57.56 0,31.788 0,0"
               style="fill:#80ad12;fill-opacity:1;fill-rule:nonzero;stroke:none"
               id="path1296"
               inkscape:connector-curvature="0" />
          </g>
          <g
             id="g1298"
             transform="translate(628.9434,677.6016)">
            <path
               d="m 0,0 c -0.141,0 1.057,-0.018 -0.943,-0.021 l 0,-115.078 c 2,-0.004 0.802,-0.021 0.943,-0.021 15.375,0 27.84,25.77 27.84,57.56 C 27.84,-25.771 15.375,0 0,0"
               style="fill:#91c60e;fill-opacity:1;fill-rule:nonzero;stroke:none"
               id="path1300"
               inkscape:connector-curvature="0" />
          </g>
          <path
             d="m 55,576 -3,0 0,-33 3,0 0,33 z"
             style="fill:#c39467;fill-opacity:1;fill-rule:nonzero;stroke:none"
             id="path1302"
             inkscape:connector-curvature="0" />
          <g
             id="g1304"
             transform="translate(78.0195,559)">
            <path
               d="m 0,0 -11.227,13 7.557,0 -15.545,18 9.67,0 -10.363,12 6.738,0 -8.637,10 4.75,0 -7.664,8.875 -7.666,-8.875 4.751,0 -8.636,-10 6.739,0 -10.364,-12 9.67,0 -15.545,-18 7.556,0 L -49.443,0 0,0 Z"
               style="fill:#6a8909;fill-opacity:1;fill-rule:nonzero;stroke:none"
               id="path1306"
               inkscape:connector-curvature="0" />
          </g>
          <g
             id="g1308"
             transform="translate(53,559)">
            <path
               d="M 0,0 25.02,0 13.793,13 21.35,13 5.805,31 15.475,31 5.111,43 11.85,43 3.213,53 7.963,53 0.623,62 0,62 0,0 Z"
               style="fill:#8db708;fill-opacity:1;fill-rule:nonzero;stroke:none"
               id="path1310"
               inkscape:connector-curvature="0" />
          </g>
          <g
             id="g1312"
             transform="translate(102.0503,543.3232)">
            <path
               d="m 0,0 c 0.025,0.108 2.633,10.968 12.316,18.499 l -1.008,1.298 C 5.169,15.023 1.776,9.1 0.026,5.053 -0.093,11.861 -0.805,23.869 -4.198,28.755 L -5.549,27.816 C -1.095,21.403 -1.617,0.418 -1.624,0.207 L 0,0 Z"
               style="fill:#e77e1a;fill-opacity:1;fill-rule:nonzero;stroke:none"
               id="path1314"
               inkscape:connector-curvature="0" />
          </g>
          <g
             id="g1316"
             transform="translate(97.1758,577.5059)">
            <path
               d="m 0,0 -1.309,4.081 0.016,-4.286 -2.506,3.477 1.34,-4.071 -3.458,2.532 2.533,-3.458 -4.072,1.34 3.477,-2.506 -4.287,0.016 4.082,-1.309 -4.082,-1.309 4.287,0.016 -3.477,-2.506 4.072,1.34 -2.533,-3.459 3.458,2.533 -1.34,-4.072 2.506,3.478 -0.016,-4.286 L 0,-8.368 1.309,-12.449 1.293,-8.163 3.799,-11.641 2.46,-7.569 5.918,-10.102 3.386,-6.643 7.457,-7.983 3.98,-5.477 8.265,-5.493 4.184,-4.184 8.265,-2.875 3.98,-2.891 7.457,-0.385 3.386,-1.725 5.918,1.733 2.46,-0.799 3.799,3.272 1.293,-0.205 1.309,4.081 0,0 Z"
               style="fill:#fbb040;fill-opacity:1;fill-rule:nonzero;stroke:none"
               id="path1318"
               inkscape:connector-curvature="0" />
          </g>
          <g
             id="g1320"
             transform="translate(93.5225,573.4336)">
            <path
               d="m 0,0 c 0,-2.019 1.636,-3.654 3.653,-3.654 2.018,0 3.654,1.635 3.654,3.654 0,2.018 -1.636,3.654 -3.654,3.654 C 1.636,3.654 0,2.018 0,0"
               style="fill:#80ad12;fill-opacity:1;fill-rule:nonzero;stroke:none"
               id="path1322"
               inkscape:connector-curvature="0" />
          </g>
          <g
             id="g1324"
             transform="translate(115.2676,568.46)">
            <path
               d="m 0,0 -1.309,4.081 0.016,-4.286 -2.506,3.477 1.34,-4.071 -3.458,2.532 2.533,-3.458 -4.072,1.34 3.477,-2.506 -4.287,0.016 4.082,-1.309 -4.082,-1.309 4.287,0.016 -3.477,-2.506 4.072,1.34 -2.533,-3.458 3.458,2.532 -1.34,-4.072 2.506,3.478 -0.016,-4.286 1.309,4.081 1.309,-4.081 -0.016,4.286 2.506,-3.478 -1.34,4.072 3.459,-2.532 -2.532,3.458 4.071,-1.34 L 3.98,-5.477 8.265,-5.493 4.184,-4.184 8.265,-2.875 3.98,-2.891 7.457,-0.385 3.386,-1.725 5.918,1.733 2.459,-0.799 3.799,3.272 1.293,-0.205 1.309,4.081 0,0 Z"
               style="fill:#fbb040;fill-opacity:1;fill-rule:nonzero;stroke:none"
               id="path1326"
               inkscape:connector-curvature="0" />
          </g>
          <g
             id="g1328"
             transform="translate(111.6143,564.3877)">
            <path
               d="m 0,0 c 0,-2.019 1.636,-3.654 3.653,-3.654 2.018,0 3.654,1.635 3.654,3.654 0,2.019 -1.636,3.654 -3.654,3.654 C 1.636,3.654 0,2.019 0,0"
               style="fill:#80ad12;fill-opacity:1;fill-rule:nonzero;stroke:none"
               id="path1330"
               inkscape:connector-curvature="0" />
          </g>
          <g
             id="g1332"
             transform="translate(730.8867,575.4473)">
            <path
               d="m 0,0 -2.459,1.885 -12.428,-9.516 0,13.184 -3,0 0,-13.184 L -28.939,2.885 -31.398,1 l 13.511,-12.404 0,-30.043 3,0 0,30.043 L 0,0 Z"
               style="fill:#c39467;fill-opacity:1;fill-rule:nonzero;stroke:none"
               id="path1334"
               inkscape:connector-curvature="0" />
          </g>
          <g
             id="g1336"
             transform="translate(731.875,597.3984)">
            <path
               d="m 0,0 c 0,-9.367 -7.595,-16.962 -16.963,-16.962 -9.368,0 -16.963,7.595 -16.963,16.962 0,9.368 7.595,16.963 16.963,16.963 C -7.595,16.963 0,9.368 0,0"
               style="fill:#c9a700;fill-opacity:1;fill-rule:nonzero;stroke:none"
               id="path1338"
               inkscape:connector-curvature="0" />
          </g>
          <g
             id="g1340"
             transform="translate(744.125,578.3984)">
            <path
               d="m 0,0 c 0,-5.087 -4.125,-9.212 -9.213,-9.212 -5.088,0 -9.213,4.125 -9.213,9.212 0,5.088 4.125,9.213 9.213,9.213 C -4.125,9.213 0,5.088 0,0"
               style="fill:#dde203;fill-opacity:1;fill-rule:nonzero;stroke:none"
               id="path1342"
               inkscape:connector-curvature="0" />
          </g>
          <g
             id="g1344"
             transform="translate(708.125,576.3359)">
            <path
               d="m 0,0 c 0,-4.017 -3.258,-7.274 -7.275,-7.274 -4.018,0 -7.276,3.257 -7.276,7.274 0,4.018 3.258,7.275 7.276,7.275 C -3.258,7.275 0,4.018 0,0"
               style="fill:#c9a700;fill-opacity:1;fill-rule:nonzero;stroke:none"
               id="path1346"
               inkscape:connector-curvature="0" />
          </g>
          <g
             id="g1348"
             transform="translate(715,614.3564)">
            <path
               d="m 0,0 0,-33.915 c 9.327,0.048 16.875,7.619 16.875,16.957 C 16.875,-7.619 9.327,-0.048 0,0"
               style="fill:#dde203;fill-opacity:1;fill-rule:nonzero;stroke:none"
               id="path1350"
               inkscape:connector-curvature="0" />
          </g>
          <g
             id="g1352"
             transform="translate(762.3398,556)">
            <path
               d="M 0,0 C -0.032,6 -5.121,11.345 -11.399,11.345 -17.677,11.345 -22.767,6 -22.799,0 L 0,0 Z"
               style="fill:#90492d;fill-opacity:1;fill-rule:nonzero;stroke:none"
               id="path1354"
               inkscape:connector-curvature="0" />
          </g>
          <g
             id="g1356"
             transform="translate(751,556)">
            <path
               d="M 0,0 11.34,0 C 11.309,6 7,11.138 0,11.288 L 0,0 Z"
               style="fill:#b06010;fill-opacity:1;fill-rule:nonzero;stroke:none"
               id="path1358"
               inkscape:connector-curvature="0" />
          </g>
          <path
             d="m 753,538 -4,0 0,18 4,0 0,-18 z"
             style="fill:#c39467;fill-opacity:1;fill-rule:nonzero;stroke:none"
             id="path1360"
             inkscape:connector-curvature="0" />
          <g
             id="g1362"
             transform="translate(747.4814,560.2314)">
            <path
               d="m 0,0 c 0,-0.985 -0.798,-1.784 -1.784,-1.784 -0.986,0 -1.784,0.799 -1.784,1.784 0,0.985 0.798,1.784 1.784,1.784 C -0.798,1.784 0,0.985 0,0"
               style="fill:#ffffff;fill-opacity:1;fill-rule:nonzero;stroke:none"
               id="path1364"
               inkscape:connector-curvature="0" />
          </g>
          <g
             id="g1366"
             transform="translate(754.0684,562.6162)">
            <path
               d="m 0,0 c 0,-0.631 -0.511,-1.142 -1.141,-1.142 -0.63,0 -1.14,0.511 -1.14,1.142 0,0.631 0.51,1.141 1.14,1.141 C -0.511,1.141 0,0.631 0,0"
               style="fill:#ffffff;fill-opacity:1;fill-rule:nonzero;stroke:none"
               id="path1368"
               inkscape:connector-curvature="0" />
          </g>
          <g
             id="g1370"
             transform="translate(758.3457,559.2676)">
            <path
               d="m 0,0 c 0,-0.809 -0.655,-1.463 -1.464,-1.463 -0.807,0 -1.462,0.654 -1.462,1.463 0,0.808 0.655,1.462 1.462,1.462 C -0.655,1.462 0,0.808 0,0"
               style="fill:#ffffff;fill-opacity:1;fill-rule:nonzero;stroke:none"
               id="path1372"
               inkscape:connector-curvature="0" />
          </g>
        </g>
      </g>
      <g
         transform="matrix(1.25,0,0,-1.25,-1534.2857,851.82649)"
         id="g1440">
        <g
           id="g1442"
           clip-path="url(#clipPath1444)">
          <g
             id="g1448"
             transform="translate(860.2549,534)">
            <path
               d="m 0,0 -4.185,20.439 -3.563,-13.128 -1.7,18.19 -4.535,-21.044 -2.647,9.32 -3.211,-9.416 -3.779,16.264 -3.213,-15.674 -2.645,6.807 -2.267,-6.613 -2.647,2.079 -1.888,-2.455 -4.725,13.227 -3.969,-12.661 -2.267,6.612 -6.803,-6.422 -5.478,19.274 -3.024,-15.872 -4.535,7.746 -5.67,-10.014 -4.534,14.525 L -84.655,0 -81.798,0 0,0 Z"
               style="fill:#ff9f2a;fill-opacity:1;fill-rule:nonzero;stroke:none"
               id="path1450"
               inkscape:connector-curvature="0" />
          </g>
          <g
             id="g1452"
             transform="translate(774.7324,546.5625)">
            <path
               d="m 0,0 -2.432,-11.718 -5.244,14.787 -3.742,-9.92 -1.496,2.527 -3.559,-3.461 -3.93,15.91 -3.37,-16.287 -2.247,8.162 -3.931,-8.162 -2.622,11.607 -3.929,-11.607 -2.808,6.364 -3.184,-6.364 -4.681,14.601 -3.742,-14.787 -3.557,8.348 -2.247,-7.974 -3.556,4.117 -4.868,-4.868 -3.181,15.727 -5.992,-18.72 L 3.135,-12.896 0,0 Z"
               style="fill:#ff9f2a;fill-opacity:1;fill-rule:nonzero;stroke:none"
               id="path1454"
               inkscape:connector-curvature="0" />
          </g>
          <g
             id="g1456"
             transform="translate(703.7969,534)">
            <path
               d="m 0,0 -4.185,20.439 -3.563,-13.128 -1.7,18.19 -4.534,-21.044 -2.647,9.32 -3.211,-9.416 -3.78,16.264 -3.213,-15.674 -2.644,6.807 -2.267,-6.613 -2.647,2.079 -1.888,-2.455 -4.726,13.227 -3.968,-12.661 -2.267,6.612 -6.803,-6.422 -5.478,19.274 -3.025,-15.872 -4.535,7.746 L -72.75,6.659 -77.285,21.184 -84.654,0 -81.798,0 0,0 Z"
               style="fill:#ff9f2a;fill-opacity:1;fill-rule:nonzero;stroke:none"
               id="path1458"
               inkscape:connector-curvature="0" />
          </g>
          <g
             id="g1460"
             transform="translate(618.2744,546.5625)">
            <path
               d="m 0,0 -2.431,-11.718 -5.244,14.787 -3.742,-9.92 -1.497,2.527 -3.558,-3.461 -3.931,15.91 -3.369,-16.287 -2.247,8.162 -3.932,-8.162 -2.622,11.607 -3.928,-11.607 -2.809,6.364 -3.183,-6.364 -4.682,14.601 -3.742,-14.787 -3.557,8.348 -2.247,-7.974 -3.555,4.117 -4.868,-4.868 -3.181,15.727 -5.992,-18.72 L 3.136,-12.896 0,0 Z"
               style="fill:#ff9f2a;fill-opacity:1;fill-rule:nonzero;stroke:none"
               id="path1462"
               inkscape:connector-curvature="0" />
          </g>
          <g
             id="g1464"
             transform="translate(547.3398,534)">
            <path
               d="m 0,0 -4.186,20.439 -3.562,-13.128 -1.701,18.19 -4.534,-21.044 -2.647,9.32 -3.21,-9.416 -3.781,16.264 -3.213,-15.674 -2.644,6.807 -2.266,-6.613 -2.647,2.079 -1.888,-2.455 -4.727,13.227 -3.968,-12.661 -2.266,6.612 -6.803,-6.422 -5.478,19.274 -3.026,-15.872 -4.535,7.746 L -72.75,6.659 -77.285,21.184 -84.654,0 -81.799,0 0,0 Z"
               style="fill:#ff9f2a;fill-opacity:1;fill-rule:nonzero;stroke:none"
               id="path1466"
               inkscape:connector-curvature="0" />
          </g>
          <g
             id="g1468"
             transform="translate(461.8174,546.5625)">
            <path
               d="m 0,0 -2.432,-11.718 -5.243,14.787 -3.742,-9.92 -1.498,2.527 -3.558,-3.461 -3.93,15.91 -3.37,-16.287 -2.246,8.162 -3.933,-8.162 -2.621,11.607 -3.928,-11.607 -2.809,6.364 -3.183,-6.364 -4.682,14.601 -3.742,-14.787 -3.557,8.348 -2.247,-7.974 -3.556,4.117 -4.868,-4.868 -3.181,15.727 -5.992,-18.72 L 3.136,-12.896 0,0 Z"
               style="fill:#ff9f2a;fill-opacity:1;fill-rule:nonzero;stroke:none"
               id="path1470"
               inkscape:connector-curvature="0" />
          </g>
          <g
             id="g1472"
             transform="translate(390.8823,534)">
            <path
               d="m 0,0 -4.185,20.439 -3.563,-13.128 -1.701,18.19 -4.534,-21.044 -2.647,9.32 -3.21,-9.416 -3.781,16.264 -3.212,-15.674 -2.645,6.807 -2.267,-6.613 -2.646,2.079 -1.889,-2.455 -4.725,13.227 -3.968,-12.661 -2.268,6.612 -6.802,-6.422 -5.996,24.457 -2.507,-21.055 -4.536,7.746 L -72.75,6.659 -77.285,21.184 -84.655,0 -81.798,0 0,0 Z"
               style="fill:#ff9f2a;fill-opacity:1;fill-rule:nonzero;stroke:none"
               id="path1474"
               inkscape:connector-curvature="0" />
          </g>
          <g
             id="g1476"
             transform="translate(305.3599,546.5625)">
            <path
               d="m 0,0 -2.432,-11.718 -5.243,14.787 -3.742,-9.92 -1.498,2.527 -3.558,-3.461 -3.93,15.91 -3.37,-16.287 -2.246,8.162 -3.933,-8.162 -3.039,20.183 -3.51,-20.183 -2.809,6.364 -3.184,-6.364 -4.681,14.601 -3.742,-14.787 -3.556,8.348 -2.248,-7.974 -3.556,4.117 -4.868,-4.868 -3.181,15.727 -5.992,-18.72 L 3.135,-12.896 0,0 Z"
               style="fill:#ff9f2a;fill-opacity:1;fill-rule:nonzero;stroke:none"
               id="path1478"
               inkscape:connector-curvature="0" />
          </g>
          <g
             id="g1480"
             transform="translate(234.4248,534)">
            <path
               d="m 0,0 -4.185,20.439 -3.563,-13.128 -1.7,18.19 -4.535,-21.044 -2.646,9.32 -3.211,-9.416 -3.929,21.14 -3.064,-20.55 -2.645,6.807 -2.267,-6.613 -2.646,2.079 -1.889,-2.455 -4.725,13.227 -3.968,-12.661 -2.268,6.612 -6.802,-6.422 -5.71,21.757 -2.793,-18.355 -4.536,7.746 L -72.75,6.659 -77.285,21.184 -84.655,0 -81.798,0 0,0 Z"
               style="fill:#ff9f2a;fill-opacity:1;fill-rule:nonzero;stroke:none"
               id="path1482"
               inkscape:connector-curvature="0" />
          </g>
          <g
             id="g1484"
             transform="translate(148.9023,546.5625)">
            <path
               d="m 0,0 -2.432,-11.718 -5.013,23.739 -3.972,-18.872 -1.497,2.527 -3.559,-3.461 -3.93,15.91 -3.37,-16.287 -2.246,8.162 -3.933,-8.162 -2.621,11.607 -3.928,-11.607 -2.809,6.364 -3.184,-6.364 -4.681,14.601 -3.742,-14.787 -3.556,8.348 -2.248,-7.974 -3.556,4.117 -4.868,-4.868 -3.181,15.727 -5.992,-18.72 L 3.135,-12.896 0,0 Z"
               style="fill:#ff9f2a;fill-opacity:1;fill-rule:nonzero;stroke:none"
               id="path1486"
               inkscape:connector-curvature="0" />
          </g>
          <g
             id="g1488"
             transform="translate(-15,540.8936)">
            <path
               d="m 0,0 6.661,9.638 4.258,-11.581 4.763,11.532 4.535,-9.823 5.669,5.478 4.535,-5.478 3.025,13.604 5.478,-14.738 4.535,8.689 4.535,-8.88 3.968,12.662 4.726,-13.228 1.888,2.455 2.647,-2.079 2.267,6.612 2.644,-6.806 3.213,15.672 3.78,-16.266 3.211,9.411 2.646,-9.331 4.535,21.022 1.701,-18.232 3.562,13.213 4.185,-20.44 -81.798,0 -2.856,0 L 0,-6.894 0,0 Z"
               style="fill:#ff9f2a;fill-opacity:1;fill-rule:nonzero;stroke:none"
               id="path1490"
               inkscape:connector-curvature="0" />
          </g>
          <g
             id="g1492"
             transform="translate(-15,532)">
            <path
               d="m 0,0 4.186,20.673 3.562,-13.015 1.701,18.25 4.534,-21.014 2.646,9.335 3.212,-9.41 3.407,25.667 3.585,-25.072 2.645,6.808 2.267,-6.613 2.646,2.08 L 36.28,5.233 41.004,18.462 44.973,5.8 47.24,12.412 54.042,5.99 59.522,25.264 62.545,9.392 67.081,17.138 72.75,7.124 77.284,30.486 84.654,0 81.798,0 0,0 Z"
               style="fill:#d8e034;fill-opacity:1;fill-rule:nonzero;stroke:none"
               id="path1494"
               inkscape:connector-curvature="0" />
          </g>
          <g
             id="g1496"
             transform="translate(70.5215,545.0273)">
            <path
               d="m 0,0 2.434,-11.718 5.241,14.787 3.745,-9.92 1.497,2.527 3.557,-3.461 2.755,23.04 4.545,-23.417 2.247,8.162 3.931,-8.162 2.621,11.607 3.931,-11.607 2.808,6.364 3.183,-6.364 4.441,23.417 3.982,-23.603 3.558,8.348 2.246,-7.974 3.556,4.117 4.868,-4.868 3.183,15.727 5.989,-20.029 -77.453,0.131 L 0,0 Z"
               style="fill:#d8e034;fill-opacity:1;fill-rule:nonzero;stroke:none"
               id="path1498"
               inkscape:connector-curvature="0" />
          </g>
          <g
             id="g1500"
             transform="translate(141.4575,532)">
            <path
               d="m 0,0 4.186,20.673 3.562,-13.015 1.701,18.25 4.535,-21.014 2.644,9.335 3.213,-9.41 3.78,16.268 3.212,-15.673 2.645,6.808 2.267,-6.613 2.646,2.08 L 36.28,5.233 41.004,18.462 44.972,5.8 47.24,12.412 54.042,5.99 59.522,29.799 62.545,9.392 67.081,17.138 72.75,7.124 77.284,21.417 84.654,0 81.798,0 0,0 Z"
               style="fill:#d8e034;fill-opacity:1;fill-rule:nonzero;stroke:none"
               id="path1502"
               inkscape:connector-curvature="0" />
          </g>
          <g
             id="g1504"
             transform="translate(226.979,545.0273)">
            <path
               d="m 0,0 2.434,-11.718 5.241,14.787 3.744,-9.92 1.498,2.527 3.557,-3.461 2.108,20.342 5.192,-20.719 2.247,8.162 3.931,-8.162 2.621,11.607 3.931,-11.607 2.808,6.364 3.183,-6.364 4.68,14.601 3.743,-14.787 3.558,8.348 2.246,-7.974 3.556,4.117 4.868,-4.868 3.183,15.727 5.989,-18.72 L -3.135,-12.896 0,0 Z"
               style="fill:#d8e034;fill-opacity:1;fill-rule:nonzero;stroke:none"
               id="path1506"
               inkscape:connector-curvature="0" />
          </g>
          <g
             id="g1508"
             transform="translate(297.915,532)">
            <path
               d="m 0,0 4.186,20.673 3.562,-13.015 3.968,20.518 2.267,-23.282 2.645,9.335 3.213,-9.41 3.78,16.268 3.212,-15.673 2.645,6.808 2.267,-6.613 2.646,2.08 L 36.28,5.233 41.004,18.462 44.972,5.8 47.24,12.412 54.042,5.99 59.522,25.264 62.545,9.392 67.081,17.138 72.75,7.124 76.828,23.966 84.654,0 81.798,0 0,0 Z"
               style="fill:#d8e034;fill-opacity:1;fill-rule:nonzero;stroke:none"
               id="path1510"
               inkscape:connector-curvature="0" />
          </g>
          <g
             id="g1512"
             transform="translate(383.4365,545.0273)">
            <path
               d="m 0,0 2.434,-11.718 5.241,14.787 3.744,-9.92 1.498,2.527 3.557,-3.461 3.62,20.342 3.68,-20.719 2.247,8.162 3.931,-8.162 2.621,11.607 3.931,-11.607 2.808,6.364 3.183,-6.364 4.68,14.601 3.743,-14.787 3.558,8.348 2.246,-7.974 3.556,4.117 4.868,-4.868 3.183,15.727 5.989,-18.72 L -3.135,-12.896 0,0 Z"
               style="fill:#d8e034;fill-opacity:1;fill-rule:nonzero;stroke:none"
               id="path1514"
               inkscape:connector-curvature="0" />
          </g>
          <g
             id="g1516"
             transform="translate(454.373,532)">
            <path
               d="m 0,0 4.186,20.673 3.562,-13.015 1.7,18.25 4.534,-21.014 2.646,9.335 3.212,-9.41 3.78,16.268 3.212,-15.673 2.645,6.808 2.267,-6.613 2.647,2.08 1.888,-2.456 4.725,15.496 L 44.972,5.8 47.239,12.412 54.042,5.99 59.521,25.264 62.545,9.392 67.08,17.138 72.748,7.124 77.283,21.417 84.653,0 81.798,0 0,0 Z"
               style="fill:#d8e034;fill-opacity:1;fill-rule:nonzero;stroke:none"
               id="path1518"
               inkscape:connector-curvature="0" />
          </g>
          <g
             id="g1520"
             transform="translate(539.8945,545.0273)">
            <path
               d="m 0,0 2.434,-11.718 5.241,14.787 3.744,-9.92 3.765,4.794 1.289,-5.728 3.931,15.91 3.369,-16.287 2.248,8.162 3.93,-8.162 2.621,11.607 3.932,-11.607 2.807,6.364 3.183,-6.364 4.68,14.601 3.744,-14.787 3.557,8.348 2.247,-7.974 3.555,4.117 4.868,-4.868 3.183,15.727 5.99,-18.72 L -3.136,-12.896 0,0 Z"
               style="fill:#d8e034;fill-opacity:1;fill-rule:nonzero;stroke:none"
               id="path1522"
               inkscape:connector-curvature="0" />
          </g>
          <g
             id="g1524"
             transform="translate(610.8301,532)">
            <path
               d="m 0,0 4.186,20.673 3.562,-13.015 1.701,18.25 4.534,-21.014 2.646,9.335 3.211,-9.41 3.781,16.268 3.211,-15.673 2.646,6.808 2.267,-6.613 2.646,2.08 1.888,-2.456 4.725,13.229 L 44.973,5.8 49.508,14.68 54.043,5.99 59.521,25.264 62.545,9.392 67.08,17.138 72.749,7.124 77.284,21.417 84.654,0 81.799,0 0,0 Z"
               style="fill:#d8e034;fill-opacity:1;fill-rule:nonzero;stroke:none"
               id="path1526"
               inkscape:connector-curvature="0" />
          </g>
          <g
             id="g1528"
             transform="translate(696.3516,545.0273)">
            <path
               d="m 0,0 2.434,-11.718 5.242,14.787 3.744,-9.92 1.496,2.527 3.558,-3.461 3.93,15.91 3.37,-16.287 2.247,8.162 3.93,-8.162 2.622,11.607 3.931,-11.607 2.808,6.364 3.182,-6.364 4.681,14.601 3.743,-14.787 3.558,8.348 2.247,-7.974 3.555,4.117 4.868,-4.868 3.182,15.727 5.99,-18.72 L -3.135,-12.896 0,0 Z"
               style="fill:#d8e034;fill-opacity:1;fill-rule:nonzero;stroke:none"
               id="path1530"
               inkscape:connector-curvature="0" />
          </g>
          <g
             id="g1532"
             transform="translate(767.2871,532)">
            <path
               d="m 0,0 4.187,20.673 3.561,-13.015 1.701,18.25 4.535,-21.014 2.645,9.335 3.212,-9.41 3.78,16.268 3.212,-15.673 2.646,6.808 2.266,-6.613 2.647,2.08 L 36.28,5.233 41.005,18.462 44.973,5.8 47.24,12.412 54.043,5.99 59.522,25.264 62.546,9.392 67.081,17.138 72.75,7.124 77.285,21.417 84.654,0 81.799,0 0,0 Z"
               style="fill:#d8e034;fill-opacity:1;fill-rule:nonzero;stroke:none"
               id="path1534"
               inkscape:connector-curvature="0" />
          </g>
        </g>
      </g>
    </g>
  </g>
</svg>
