<?xml version="1.0" encoding="utf-8"?>
<!-- Generator: Adobe Illustrator 15.1.0, SVG Export Plug-In . SVG Version: 6.00 Build 0)  -->
<!DOCTYPE svg PUBLIC "-//W3C//DTD SVG 1.1//EN" "http://www.w3.org/Graphics/SVG/1.1/DTD/svg11.dtd">
<svg version="1.1"
	 id="Ebene_1" xmlns:sodipodi="http://sodipodi.sourceforge.net/DTD/sodipodi-0.dtd" xmlns:dc="http://purl.org/dc/elements/1.1/" xmlns:inkscape="http://www.inkscape.org/namespaces/inkscape" xmlns:svg="http://www.w3.org/2000/svg" inkscape:version="0.91 r" sodipodi:docname="icon-praxis.svg" xmlns:rdf="http://www.w3.org/1999/02/22-rdf-syntax-ns#" xmlns:cc="http://creativecommons.org/ns#"
	 xmlns="http://www.w3.org/2000/svg" xmlns:xlink="http://www.w3.org/1999/xlink" x="0px" y="0px" width="186.33px"
	 height="83.85px" viewBox="0 0 186.33 83.85" enable-background="new 0 0 186.33 83.85" xml:space="preserve">
<g>
	<g>
		<g>
			<path fill="#9D0044" d="M157.034,9.447c-10.239-2.2-20.667-3.913-31.284-5.141c-10.62-1.225-21.217-1.84-31.793-1.84
				c-10.915,0-21.893,0.678-32.935,2.031C49.98,5.851,39.044,7.84,28.215,10.461l0.38,3.808L4.988,20.742
				c2.031,1.523,4.082,2.982,6.156,4.378c2.072,1.396,4.125,2.772,6.155,4.125l-7.234,14.723l36.933-3.681l0.381-6.092
				c7.697-1.438,15.271-2.476,22.718-3.109c7.443-0.635,14.933-0.952,22.465-0.952c8.037,0,16.032,0.38,23.986,1.142
				c7.952,0.761,16.118,1.82,24.494,3.173l0.255,4.95l33.506,6.6c-0.678-1.945-1.377-4.166-2.094-6.663
				c-0.72-2.495-1.417-4.76-2.096-6.79l12.439-9.645l-26.146-8.631L157.034,9.447z"/>
		</g>
		<path fill="#FFFFFF" d="M30.118,11.477c20.475-4.906,41.291-7.38,62.444-7.425c21.151-0.042,42.051,2.095,62.696,6.409V34.83
			c-10.239-2.114-20.479-3.764-30.713-4.95c-10.239-1.184-20.457-1.819-30.651-1.904C83.696,27.893,73.48,28.4,63.242,29.499
			C53.005,30.6,42.766,32.376,32.529,34.83L30.118,11.477z"/>
		<polygon fill="#FFFFFF" points="31.006,35.846 44.332,38.509 12.477,41.556 18.823,28.864 8.035,21.25 28.849,15.665 		"/>
		<polygon fill="#FFFFFF" points="156.652,15.285 178.991,22.9 168.203,31.021 172.01,43.207 145.866,38.002 157.034,36.226 		"/>
	</g>
	<g>
		<path fill="#231F20" d="M54.384,24.169c-1.088-2.384-2.198-4.761-3.328-7.131c-0.613,0.105-1.227,0.214-1.839,0.325
			c-0.351,2.631-0.677,5.263-0.979,7.895c-1.188-2.348-2.399-4.687-3.633-7.02c-0.598,0.12-1.197,0.241-1.795,0.365
			c1.625,2.998,3.215,6.008,4.768,9.032c0.593-0.116,1.188-0.229,1.78-0.34c0.312-2.63,0.647-5.262,1.009-7.894
			c1.149,2.365,2.278,4.735,3.388,7.113c0.591-0.099,1.185-0.196,1.777-0.292c0.544-3.394,1.131-6.788,1.762-10.18
			c-0.528,0.077-1.056,0.157-1.583,0.238C55.242,18.909,54.801,21.539,54.384,24.169"/>
		<path fill="#231F20" d="M64.68,14.849c-1.418,0.167-2.532,0.998-3.321,2.485c-0.274-2.078-0.546-4.155-0.818-6.233
			c-0.628,0.082-1.255,0.167-1.88,0.254c0.651,4.702,1.305,9.404,1.957,14.105c0.593-0.083,1.184-0.163,1.774-0.24
			c-0.273-2.096-0.549-4.191-0.823-6.286c0.801-1.543,1.777-2.383,2.905-2.517c0.512-0.061,0.895,0.052,1.151,0.334
			c0.256,0.282,0.423,0.786,0.505,1.508c0.24,2.14,0.481,4.278,0.722,6.417c0.593-0.067,1.186-0.131,1.778-0.194
			c-0.243-2.332-0.488-4.665-0.734-6.996c-0.094-0.903-0.431-1.596-1.014-2.073C66.3,14.937,65.563,14.747,64.68,14.849"/>
		<path fill="#231F20" d="M71.051,12.621c0.623-0.056,1.246-0.111,1.869-0.163c-0.05-0.59-0.1-1.179-0.148-1.771
			c-0.627,0.053-1.255,0.107-1.88,0.164C70.944,11.441,70.997,12.031,71.051,12.621"/>
		<path fill="#231F20" d="M72.093,24.146c0.595-0.054,1.188-0.105,1.784-0.155c-0.271-3.253-0.541-6.507-0.812-9.76
			c-0.618,0.051-1.237,0.104-1.854,0.16C71.505,17.643,71.8,20.894,72.093,24.146"/>
		<path fill="#231F20" d="M78.603,11.88c-0.621,0.094-1.241,0.191-1.859,0.29c0.039,0.591,0.079,1.183,0.12,1.773
			c-0.428,0.03-0.855,0.06-1.281,0.09c0.031,0.444,0.063,0.888,0.096,1.331c0.426-0.03,0.851-0.061,1.275-0.09
			c0.129,1.914,0.26,3.828,0.39,5.742c0.062,0.919,0.366,1.617,0.909,2.1c0.541,0.484,1.263,0.697,2.167,0.647
			c0.404-0.023,0.878-0.124,1.421-0.302c-0.021-0.408-0.042-0.816-0.062-1.224c-0.336,0.094-0.622,0.149-0.859,0.162
			c-1.116,0.06-1.713-0.543-1.791-1.822c-0.109-1.807-0.219-3.614-0.328-5.42c0.888-0.054,1.777-0.103,2.665-0.146
			c-0.021-0.444-0.044-0.888-0.066-1.333c-0.893,0.044-1.787,0.093-2.679,0.146C78.681,13.177,78.641,12.528,78.603,11.88"/>
		<path fill="#231F20" d="M85.314,17.357c0.097-1.825,0.858-2.766,2.283-2.802c1.417-0.035,2.141,0.868,2.17,2.688
			C88.282,17.268,86.798,17.306,85.314,17.357 M87.677,13.218c-1.31,0.032-2.372,0.544-3.173,1.524
			c-0.8,0.981-1.161,2.216-1.097,3.7c0.064,1.526,0.583,2.747,1.539,3.672c0.956,0.923,2.15,1.365,3.601,1.333
			c0.853-0.019,1.873-0.219,3.068-0.591c-0.004-0.469-0.009-0.938-0.014-1.406c-1.087,0.407-1.999,0.621-2.747,0.637
			c-2.038,0.043-3.227-1.074-3.575-3.392c2.109-0.074,4.221-0.121,6.332-0.141c0.001-0.183,0.004-0.367,0.004-0.551
			c-0.014-1.55-0.358-2.745-1.044-3.577C89.887,13.593,88.918,13.188,87.677,13.218"/>
		<path fill="#231F20" d="M102.903,11.577c-0.626,0.035-1.252,0.072-1.878,0.112c-0.018,0.592-0.033,1.185-0.05,1.776
			c-0.428-0.011-0.856-0.022-1.283-0.031c-0.011,0.444-0.021,0.888-0.031,1.333c0.425,0.01,0.852,0.021,1.276,0.033
			c-0.053,1.917-0.107,3.833-0.16,5.751c-0.025,0.92,0.211,1.645,0.703,2.177c0.493,0.534,1.19,0.815,2.097,0.852
			c0.403,0.016,0.884-0.04,1.441-0.164c0.019-0.409,0.037-0.817,0.056-1.225c-0.344,0.062-0.634,0.088-0.871,0.078
			c-1.115-0.046-1.651-0.705-1.607-1.985c0.063-1.808,0.127-3.618,0.192-5.426c0.888,0.031,1.776,0.067,2.665,0.108
			c0.02-0.445,0.04-0.889,0.062-1.333c-0.893-0.042-1.786-0.078-2.681-0.109C102.857,12.875,102.88,12.226,102.903,11.577"/>
		<path fill="#231F20" d="M109.063,17.67c0.269-1.808,1.117-2.67,2.539-2.571c1.416,0.102,2.051,1.068,1.904,2.882
			C112.026,17.865,110.545,17.761,109.063,17.67 M111.812,13.775c-1.311-0.093-2.417,0.315-3.307,1.214
			c-0.891,0.9-1.368,2.096-1.447,3.578c-0.08,1.525,0.318,2.791,1.182,3.801c0.863,1.012,2.013,1.565,3.46,1.671
			c0.851,0.062,1.886-0.038,3.112-0.294c0.039-0.467,0.081-0.934,0.12-1.401c-1.121,0.301-2.051,0.426-2.797,0.371
			c-2.034-0.152-3.111-1.378-3.238-3.718c2.11,0.129,4.216,0.284,6.322,0.466c0.019-0.183,0.037-0.365,0.057-0.548
			c0.135-1.545-0.095-2.767-0.697-3.661C113.975,14.361,113.049,13.865,111.812,13.775"/>
		<path fill="#231F20" d="M119.643,18.545c0.348-1.795,1.233-2.621,2.65-2.46c1.412,0.162,2.004,1.155,1.781,2.961
			C122.599,18.866,121.12,18.698,119.643,18.545 M122.557,14.771c-1.305-0.149-2.428,0.211-3.356,1.072
			c-0.929,0.861-1.457,2.034-1.6,3.512c-0.146,1.52,0.199,2.802,1.021,3.849c0.818,1.047,1.944,1.648,3.386,1.817
			c0.85,0.099,1.889,0.043,3.127-0.16c0.06-0.465,0.121-0.93,0.181-1.396c-1.136,0.253-2.071,0.339-2.814,0.25
			c-2.028-0.238-3.052-1.51-3.078-3.854c2.104,0.22,4.203,0.464,6.301,0.737c0.027-0.181,0.055-0.363,0.082-0.544
			c0.199-1.539,0.021-2.768-0.543-3.688C124.697,15.449,123.792,14.913,122.557,14.771"/>
		<path fill="#231F20" d="M131.799,14.258c-0.628-0.037-1.256-0.071-1.884-0.104c-0.084,0.587-0.167,1.173-0.252,1.76
			c-0.425-0.061-0.85-0.121-1.274-0.179c-0.061,0.439-0.121,0.881-0.183,1.321c0.423,0.058,0.846,0.119,1.269,0.178
			c-0.272,1.899-0.545,3.797-0.817,5.696c-0.129,0.911,0.022,1.658,0.452,2.243c0.43,0.586,1.094,0.946,1.992,1.085
			c0.4,0.063,0.886,0.063,1.454,0.002c0.065-0.403,0.131-0.807,0.195-1.21c-0.349,0.023-0.641,0.015-0.876-0.022
			c-1.106-0.174-1.566-0.888-1.377-2.155c0.271-1.79,0.54-3.58,0.812-5.37c0.881,0.133,1.763,0.271,2.643,0.414
			c0.07-0.439,0.142-0.878,0.213-1.317c-0.885-0.144-1.771-0.282-2.657-0.415C131.605,15.542,131.701,14.9,131.799,14.258"/>
		<path fill="#231F20" d="M144.128,19.021c-0.413-0.633-1.059-1.039-1.934-1.209c-1.405-0.273-2.724,0.18-3.928,1.356
			c0.371-2.062,0.742-4.124,1.114-6.187c-0.623-0.112-1.247-0.222-1.871-0.33c-0.807,4.678-1.613,9.355-2.421,14.034
			c0.59,0.102,1.179,0.205,1.767,0.312c0.375-2.08,0.75-4.16,1.124-6.24c1.234-1.225,2.423-1.729,3.542-1.513
			c0.504,0.098,0.839,0.321,0.997,0.668c0.159,0.348,0.166,0.878,0.023,1.591c-0.421,2.11-0.842,4.222-1.264,6.333
			c0.588,0.117,1.175,0.235,1.761,0.357c0.477-2.296,0.952-4.592,1.428-6.889C144.651,20.416,144.539,19.654,144.128,19.021"/>
	</g>
	<g>
		<path fill="#231F20" d="M153.18,59.368c0.983-1.026,1.855-1.541,2.617-1.541c0.292,0,0.523,0.107,0.693,0.325
			c0.171,0.218,0.256,0.438,0.256,0.66c0,1.022-0.596,2.143-1.785,3.357c-1.188,1.217-2.666,2.213-4.435,2.987
			C151.311,62.325,152.194,60.396,153.18,59.368 M156.597,62.883c1.271-1.198,1.905-2.371,1.905-3.522
			c0-0.575-0.225-1.104-0.676-1.586c-0.451-0.481-1.017-0.722-1.695-0.722c-1.933,0-3.916,1.36-5.947,4.081
			c-2.032,2.721-3.049,5.2-3.049,7.439c0,1.031,0.309,1.943,0.923,2.736c0.615,0.791,1.462,1.187,2.54,1.187
			c1.406,0,2.757-0.555,4.052-1.661c1.294-1.105,1.942-1.952,1.942-2.538c0-0.209-0.111-0.315-0.334-0.315s-0.469,0.204-0.737,0.614
			c-0.54,0.832-1.202,1.536-1.987,2.118c-0.785,0.578-1.529,0.868-2.233,0.868c-0.492,0-0.882-0.202-1.169-0.604
			c-0.287-0.404-0.431-0.858-0.431-1.362c0-0.83,0.187-2.053,0.562-3.668C153.214,65.103,155.325,64.081,156.597,62.883
			 M145.678,58.283l1.299,0.105c0.176,0,0.264-0.264,0.264-0.791c0-0.07-0.016-0.114-0.044-0.131
			c-0.029-0.018-0.401-0.038-1.114-0.062l-2.162-0.053l1.599-4.884l0.053-0.141c0-0.128-0.202-0.249-0.605-0.36
			c-0.404-0.111-0.817-0.167-1.239-0.167c-0.105,0-0.175,0.047-0.21,0.141l-0.687,2.01c-0.434,1.234-0.794,2.34-1.084,3.314
			c-0.987,0-1.762,0.022-2.324,0.07c-0.562,0.047-0.879,0.096-0.949,0.148c-0.069,0.053-0.104,0.249-0.104,0.589
			c0,0.164,0.082,0.247,0.246,0.247l1.16-0.054l1.65,0.034c-2.108,6.258-3.181,9.434-3.216,9.527
			c-0.503,1.356-0.755,2.433-0.755,3.229c0,0.353,0.135,0.68,0.405,0.984c0.269,0.306,0.672,0.457,1.212,0.457
			c1.559,0,3.062-0.691,4.509-2.075c1.447-1.383,2.172-2.225,2.172-2.528c0-0.164-0.105-0.245-0.316-0.245
			c-0.164,0-0.357,0.128-0.58,0.386c-1.712,1.99-3.001,2.987-3.868,2.987c-0.528,0-0.791-0.354-0.791-1.062
			c0-1.073,0.865-4.065,2.599-8.979c0.525-1.519,0.833-2.446,0.928-2.785L145.678,58.283z M130.664,58.669
			c0.287,0.444,0.43,0.995,0.43,1.651c0,2.015-0.693,4.268-2.081,6.756c-1.389,2.489-2.762,3.733-4.12,3.733
			c-0.526,0-0.926-0.189-1.195-0.571c-0.27-0.383-0.403-0.947-0.403-1.699c0-1.266,0.379-2.85,1.142-4.75
			c0.761-1.899,1.635-3.339,2.618-4.318s1.814-1.47,2.494-1.47C130.004,58.001,130.376,58.224,130.664,58.669 M134.45,57.299
			c-0.34-0.059-0.697-0.117-1.072-0.176c-0.457,0.869-0.791,1.573-1.001,2.113c-0.082-0.74-0.278-1.291-0.589-1.655
			s-0.729-0.546-1.257-0.546c-2.002,0-4.131,1.467-6.386,4.4c-2.255,2.936-3.383,5.532-3.383,7.792c0,0.785,0.205,1.491,0.616,2.118
			c0.409,0.627,1.042,0.939,1.896,0.939c1.98,0,3.877-1.227,5.693-3.679c-0.082,0.993-0.124,1.812-0.124,2.452
			c0,0.923,0.341,1.386,1.021,1.386c0.996,0,2.133-0.542,3.411-1.626c1.276-1.084,1.916-1.784,1.916-2.101
			c0-0.198-0.101-0.298-0.299-0.298c-0.129,0-0.357,0.193-0.687,0.58c-0.492,0.585-1,1.069-1.521,1.448
			c-0.522,0.381-0.918,0.572-1.188,0.572c-0.386,0-0.58-0.198-0.58-0.598c0-0.632,0.165-1.395,0.492-2.284l1.546-4.902
			c0.995-3.162,1.658-5.105,1.986-5.833C134.86,57.393,134.695,57.359,134.45,57.299 M113.899,58.791
			c-1.399,1.087-2.675,2.604-3.822,4.545c-1.148,1.942-1.722,3.832-1.722,5.668c0,1.066,0.325,1.926,0.975,2.581
			c0.65,0.656,1.526,0.982,2.628,0.982c1.688,0,3.167-0.649,4.438-1.95c1.271-1.301,1.907-2.149,1.907-2.549
			c0-0.209-0.094-0.315-0.28-0.315c-0.188,0-0.422,0.204-0.704,0.612c-0.539,0.795-1.217,1.531-2.038,2.212
			c-0.82,0.683-1.575,1.024-2.267,1.024c-0.632,0-1.109-0.24-1.432-0.719s-0.482-1.197-0.482-2.155c0-1.272,0.31-2.837,0.932-4.688
			c0.619-1.852,1.408-3.3,2.362-4.346c0.954-1.045,1.771-1.568,2.451-1.568c0.21,0,0.387,0.053,0.527,0.158
			c0.14,0.105,0.28,0.434,0.421,0.984c0.151,0.527,0.311,0.89,0.475,1.09c0.163,0.198,0.41,0.299,0.738,0.299
			c0.28,0,0.54-0.119,0.781-0.354c0.24-0.233,0.359-0.562,0.359-0.982c0-0.598-0.237-1.107-0.711-1.529
			c-0.475-0.421-1.017-0.633-1.626-0.633C116.604,57.158,115.301,57.704,113.899,58.791 M103.44,65.96
			c1.604-3.806,2.479-5.914,2.626-6.324c0.146-0.41,0.22-0.826,0.22-1.248c0-0.34-0.145-0.657-0.432-0.958
			c-0.287-0.298-0.629-0.447-1.027-0.447c-0.961,0-2.058,0.472-3.288,1.414c-1.229,0.942-1.847,1.567-1.847,1.871
			c0,0.188,0.082,0.281,0.247,0.281c0.175,0,0.479-0.211,0.914-0.633c1.113-1.077,1.923-1.617,2.428-1.617
			c0.164,0,0.284,0.051,0.36,0.15c0.075,0.1,0.114,0.254,0.114,0.466c0,0.538-0.826,2.799-2.477,6.781
			c-1.302,3.163-1.951,5.009-1.951,5.536c0,0.35,0.167,0.657,0.501,0.921s0.823,0.396,1.469,0.396c1.007,0,2.104-0.425,3.287-1.273
			s1.775-1.479,1.775-1.889c0-0.188-0.104-0.28-0.316-0.28c-0.152,0-0.356,0.134-0.614,0.402c-0.587,0.61-1.203,1.118-1.847,1.53
			c-0.646,0.408-1.149,0.614-1.513,0.614c-0.164,0-0.291-0.051-0.379-0.15c-0.087-0.1-0.132-0.247-0.132-0.448
			C101.56,70.857,102.186,69.16,103.44,65.96 M106.277,48.929c-0.275,0.266-0.413,0.593-0.413,0.981c0,0.39,0.135,0.72,0.404,0.991
			c0.269,0.271,0.597,0.405,0.983,0.405c0.375,0,0.696-0.135,0.967-0.405c0.27-0.271,0.403-0.602,0.403-0.991
			c0-0.378-0.134-0.701-0.403-0.972c-0.271-0.272-0.592-0.407-0.967-0.407C106.878,48.532,106.553,48.665,106.277,48.929
			 M98.749,58.495c0.035-0.141,0.063-0.322,0.088-0.546c0.034-0.211,0.063-0.374,0.087-0.491c-2.049,0-3.164-0.023-3.342-0.07
			c0.904-3.413,1.808-5.684,2.71-6.812c0.901-1.128,1.921-1.692,3.057-1.692c0.422,0,0.735,0.069,0.94,0.202
			c0.205,0.136,0.307,0.337,0.307,0.607c0,0.188-0.088,0.397-0.263,0.632c-0.27,0.387-0.404,0.708-0.404,0.967
			c0,0.362,0.138,0.665,0.412,0.904c0.275,0.24,0.601,0.359,0.976,0.359c0.457,0,0.825-0.166,1.107-0.5
			c0.28-0.333,0.421-0.711,0.421-1.133c0-0.726-0.304-1.37-0.913-1.934c-0.608-0.562-1.452-0.842-2.529-0.842
			c-1.841,0-3.475,0.776-4.902,2.331c-1.43,1.556-2.536,3.929-3.32,7.12c-1.57,0.024-2.822,0.071-3.761,0.141l-0.228,0.984
			l3.727-0.088c-0.19,0.609-0.598,2.143-1.223,4.603c-1.575,6.244-2.946,10.75-4.112,13.521s-2.556,4.155-4.173,4.155
			c-0.433,0-0.782-0.113-1.045-0.343c-0.264-0.228-0.396-0.479-0.396-0.746c0-0.188,0.083-0.464,0.246-0.827
			c0.142-0.303,0.212-0.562,0.212-0.772c0-0.351-0.141-0.654-0.422-0.905s-0.62-0.377-1.02-0.377c-0.456,0-0.844,0.182-1.158,0.545
			c-0.317,0.363-0.476,0.802-0.476,1.318c0,0.784,0.349,1.459,1.047,2.028c0.696,0.567,1.577,0.853,2.643,0.853
			c1.781,0,3.376-0.748,4.788-2.241c1.412-1.492,2.587-3.838,3.522-7.036l3.897-13.827C96.41,58.546,97.576,58.518,98.749,58.495
			 M83.199,65.96c1.605-3.806,2.48-5.914,2.626-6.324c0.147-0.41,0.221-0.826,0.221-1.248c0-0.34-0.144-0.657-0.431-0.958
			c-0.287-0.298-0.631-0.447-1.028-0.447c-0.961,0-2.058,0.472-3.288,1.414c-1.231,0.942-1.846,1.567-1.846,1.871
			c0,0.188,0.081,0.281,0.245,0.281c0.177,0,0.481-0.211,0.915-0.633c1.113-1.077,1.924-1.617,2.428-1.617
			c0.164,0,0.284,0.051,0.36,0.15s0.114,0.254,0.114,0.466c0,0.538-0.825,2.799-2.477,6.781c-1.301,3.163-1.951,5.009-1.951,5.536
			c0,0.35,0.167,0.657,0.5,0.921c0.336,0.264,0.825,0.396,1.469,0.396c1.008,0,2.104-0.425,3.289-1.273
			c1.183-0.849,1.775-1.479,1.775-1.889c0-0.188-0.105-0.28-0.317-0.28c-0.152,0-0.356,0.134-0.615,0.402
			c-0.586,0.61-1.201,1.118-1.847,1.53c-0.646,0.408-1.149,0.614-1.513,0.614c-0.163,0-0.29-0.051-0.378-0.15
			s-0.132-0.247-0.132-0.448C81.319,70.857,81.946,69.16,83.199,65.96 M86.037,48.929c-0.275,0.266-0.413,0.593-0.413,0.981
			c0,0.39,0.135,0.72,0.404,0.991c0.27,0.271,0.598,0.405,0.983,0.405c0.375,0,0.697-0.135,0.968-0.405
			c0.268-0.271,0.403-0.602,0.403-0.991c0-0.378-0.136-0.701-0.403-0.972c-0.271-0.272-0.593-0.407-0.968-0.407
			C86.638,48.532,86.312,48.665,86.037,48.929 M76.733,58.283l1.301,0.105c0.176,0,0.264-0.264,0.264-0.791
			c0-0.07-0.016-0.114-0.043-0.131c-0.031-0.018-0.402-0.038-1.116-0.062l-2.161-0.053l1.599-4.884l0.052-0.141
			c0-0.128-0.202-0.249-0.605-0.36c-0.404-0.111-0.816-0.167-1.238-0.167c-0.106,0-0.176,0.047-0.211,0.141l-0.686,2.01
			c-0.434,1.234-0.795,2.34-1.086,3.314c-0.985,0-1.761,0.022-2.323,0.07c-0.562,0.047-0.878,0.096-0.948,0.148
			s-0.105,0.249-0.105,0.589c0,0.164,0.082,0.247,0.245,0.247l1.161-0.054l1.651,0.034c-2.108,6.258-3.181,9.434-3.216,9.527
			c-0.503,1.356-0.755,2.433-0.755,3.229c0,0.353,0.135,0.68,0.403,0.984c0.271,0.306,0.675,0.457,1.214,0.457
			c1.559,0,3.062-0.691,4.509-2.075c1.447-1.383,2.17-2.225,2.17-2.528c0-0.164-0.104-0.245-0.314-0.245
			c-0.165,0-0.358,0.128-0.581,0.386c-1.711,1.99-3.001,2.987-3.867,2.987c-0.528,0-0.793-0.354-0.793-1.062
			c0-1.073,0.867-4.065,2.602-8.979c0.523-1.519,0.832-2.446,0.926-2.785L76.733,58.283z M60.658,60.185
			c0.14-0.798,0.21-1.379,0.21-1.743c0-0.315-0.12-0.617-0.36-0.904s-0.601-0.432-1.081-0.432c-0.914,0-1.98,0.693-3.2,2.082
			c-1.219,1.388-1.828,2.223-1.828,2.503c0,0.188,0.1,0.282,0.3,0.282c0.198,0,0.479-0.265,0.842-0.795
			c0.458-0.672,0.998-1.307,1.619-1.907c0.622-0.6,1.045-0.9,1.267-0.9c0.176,0,0.265,0.113,0.265,0.34
			c0,0.619-0.85,4.124-2.548,10.516c-0.633,1.922-0.979,3.013-1.036,3.271l0.245,0.019l0.967-0.019h0.948l2.478-7.598
			c0.867-1.748,1.728-3.196,2.582-4.347c0.855-1.149,1.465-1.725,1.828-1.725c0.199,0,0.357,0.223,0.475,0.667
			c0.187,0.669,0.654,1.003,1.406,1.003c0.433,0,0.787-0.183,1.062-0.546c0.275-0.362,0.413-0.755,0.413-1.177
			c0-0.504-0.173-0.908-0.518-1.212c-0.347-0.306-0.776-0.457-1.291-0.457c-0.773,0-1.6,0.413-2.479,1.24s-1.815,2.069-2.812,3.725
			C60.528,61.084,60.611,60.456,60.658,60.185 M47.779,59.368c0.983-1.026,1.856-1.541,2.617-1.541c0.294,0,0.525,0.107,0.695,0.325
			c0.169,0.218,0.254,0.438,0.254,0.66c0,1.022-0.594,2.143-1.783,3.357c-1.189,1.217-2.667,2.213-4.437,2.987
			C45.911,62.325,46.796,60.396,47.779,59.368 M51.196,62.883c1.271-1.198,1.906-2.371,1.906-3.522c0-0.575-0.226-1.104-0.677-1.586
			c-0.45-0.481-1.016-0.722-1.694-0.722c-1.934,0-3.916,1.36-5.947,4.081c-2.033,2.721-3.048,5.2-3.048,7.439
			c0,1.031,0.307,1.943,0.923,2.736c0.614,0.791,1.46,1.187,2.54,1.187c1.405,0,2.756-0.555,4.051-1.661
			c1.295-1.105,1.942-1.952,1.942-2.538c0-0.209-0.111-0.315-0.333-0.315c-0.223,0-0.47,0.204-0.738,0.614
			c-0.539,0.832-1.201,1.536-1.988,2.118c-0.784,0.578-1.528,0.868-2.232,0.868c-0.492,0-0.882-0.202-1.17-0.604
			c-0.286-0.404-0.43-0.858-0.43-1.362c0-0.83,0.187-2.053,0.562-3.668C47.814,65.103,49.926,64.081,51.196,62.883 M35.083,58.791
			c-1.4,1.087-2.675,2.604-3.823,4.545c-1.148,1.942-1.722,3.832-1.722,5.668c0,1.066,0.325,1.926,0.975,2.581
			c0.651,0.656,1.527,0.982,2.628,0.982c1.687,0,3.167-0.649,4.439-1.95c1.271-1.301,1.907-2.149,1.907-2.549
			c0-0.209-0.094-0.315-0.282-0.315c-0.188,0-0.422,0.204-0.704,0.612c-0.539,0.795-1.217,1.531-2.038,2.212
			c-0.82,0.683-1.576,1.024-2.266,1.024c-0.633,0-1.11-0.24-1.432-0.719s-0.483-1.197-0.483-2.155c0-1.272,0.31-2.837,0.932-4.688
			c0.62-1.852,1.408-3.3,2.363-4.346c0.954-1.045,1.771-1.568,2.451-1.568c0.211,0,0.386,0.053,0.526,0.158
			c0.141,0.105,0.281,0.434,0.422,0.984c0.152,0.527,0.31,0.89,0.474,1.09c0.164,0.198,0.41,0.299,0.738,0.299
			c0.282,0,0.542-0.119,0.782-0.354c0.24-0.233,0.36-0.562,0.36-0.982c0-0.598-0.237-1.107-0.713-1.529
			c-0.474-0.421-1.016-0.633-1.625-0.633C37.787,57.158,36.483,57.704,35.083,58.791"/>
	</g>
</g>
</svg>
