<?xml version="1.0" encoding="UTF-8" standalone="no"?>
<!-- Generator: Adobe Illustrator 15.1.0, SVG Export Plug-In . SVG Version: 6.00 Build 0)  -->

<svg
   xmlns:dc="http://purl.org/dc/elements/1.1/"
   xmlns:cc="http://creativecommons.org/ns#"
   xmlns:rdf="http://www.w3.org/1999/02/22-rdf-syntax-ns#"
   xmlns:svg="http://www.w3.org/2000/svg"
   xmlns="http://www.w3.org/2000/svg"
   xmlns:sodipodi="http://sodipodi.sourceforge.net/DTD/sodipodi-0.dtd"
   xmlns:inkscape="http://www.inkscape.org/namespaces/inkscape"
   version="1.1"
   id="Ebene_1"
   inkscape:version="0.91 r13725"
   sodipodi:docname="footer_logo_01.svg"
   x="0px"
   y="0px"
   width="186.33"
   height="83.849998"
   viewBox="0 0 186.33 83.85"
   enable-background="new 0 0 103.334 83.85"
   xml:space="preserve"><metadata
     id="metadata17"><rdf:RDF><cc:Work
         rdf:about=""><dc:format>image/svg+xml</dc:format><dc:type
           rdf:resource="http://purl.org/dc/dcmitype/StillImage" /><dc:title></dc:title></cc:Work></rdf:RDF></metadata><defs
     id="defs15" /><sodipodi:namedview
     pagecolor="#ffffff"
     bordercolor="#666666"
     borderopacity="1"
     objecttolerance="10"
     gridtolerance="10"
     guidetolerance="10"
     inkscape:pageopacity="0"
     inkscape:pageshadow="2"
     inkscape:window-width="1280"
     inkscape:window-height="987"
     id="namedview13"
     showgrid="false"
     units="px"
     inkscape:zoom="1.9901873"
     inkscape:cx="81.875888"
     inkscape:cy="-29.858655"
     inkscape:window-x="1440"
     inkscape:window-y="0"
     inkscape:window-maximized="1"
     inkscape:current-layer="Ebene_1" /><g
     id="g3"
     transform="translate(42.543001,-3.8146973e-6)"><path
       d="m 81.933,41.792 c 0,17.293 -14.021,31.311 -31.312,31.311 -17.291,0 -31.31,-14.019 -31.31,-31.311 0,-17.292 14.02,-31.311 31.311,-31.311 17.291,0 31.311,14.019 31.311,31.311 m 10.481,0 C 92.414,18.71 73.703,0 50.621,0 27.541,0 8.83,18.71 8.83,41.792 8.83,64.874 27.541,83.584 50.621,83.584 73.703,83.583 92.414,64.873 92.414,41.792"
       id="path5"
       inkscape:connector-curvature="0"
       style="fill:#301200" /><path
       d="m 54.703,78.263 c 0.164,-0.342 0.459,-0.547 0.881,-0.617 0.854,-0.142 1.369,0.298 1.537,1.319 0.187,1.12 -0.244,1.766 -1.291,1.938 -0.435,0.073 -0.729,0.037 -0.886,-0.106 0.082,-0.075 0.113,-0.163 0.099,-0.261 -0.028,-0.185 -0.138,-0.261 -0.319,-0.229 -0.191,0.031 -0.267,0.159 -0.229,0.387 0.086,0.515 0.596,0.692 1.53,0.537 1.543,-0.255 2.201,-1.058 1.978,-2.41 -0.224,-1.352 -0.978,-1.922 -2.262,-1.709 -0.351,0.059 -0.65,0.196 -0.904,0.413 l 0.017,-1.735 c 0.311,0.018 0.635,-0.002 0.971,-0.059 0.746,-0.124 1.199,-0.568 1.361,-1.338 l -0.109,0.019 c -0.211,0.249 -0.635,0.426 -1.271,0.53 -0.225,0.038 -0.455,0.065 -0.691,0.086 -0.233,0.021 -0.477,0.036 -0.727,0.047 l -0.016,3.104 0.331,0.084 z m -3.522,2.784 c -0.162,-0.134 -0.298,-0.329 -0.41,-0.585 -0.113,-0.257 -0.201,-0.569 -0.267,-0.939 -0.063,-0.367 -0.104,-0.789 -0.125,-1.26 -0.01,-0.279 -0.006,-0.569 0.017,-0.872 0.022,-0.301 0.067,-0.581 0.137,-0.838 0.066,-0.257 0.158,-0.471 0.275,-0.639 0.116,-0.17 0.27,-0.258 0.455,-0.267 0.291,-0.013 0.532,0.084 0.723,0.288 0.19,0.203 0.342,0.457 0.455,0.764 0.11,0.308 0.19,0.636 0.238,0.985 0.049,0.354 0.077,0.672 0.09,0.957 0.014,0.334 0.012,0.654 -0.004,0.963 -0.017,0.309 -0.062,0.582 -0.134,0.819 -0.075,0.239 -0.182,0.432 -0.321,0.576 -0.142,0.146 -0.332,0.223 -0.572,0.231 -0.216,0.013 -0.398,-0.051 -0.557,-0.183 m 1.298,0.27 c 0.248,-0.201 0.457,-0.462 0.625,-0.779 0.168,-0.316 0.291,-0.676 0.367,-1.075 0.077,-0.4 0.106,-0.805 0.092,-1.214 -0.019,-0.403 -0.078,-0.79 -0.187,-1.161 -0.109,-0.371 -0.254,-0.695 -0.437,-0.974 -0.18,-0.278 -0.395,-0.498 -0.641,-0.658 -0.244,-0.162 -0.514,-0.236 -0.803,-0.225 -0.318,0.013 -0.6,0.115 -0.846,0.312 -0.246,0.195 -0.453,0.453 -0.617,0.772 -0.163,0.32 -0.284,0.685 -0.364,1.093 -0.08,0.404 -0.11,0.825 -0.094,1.26 0.016,0.408 0.073,0.795 0.172,1.162 0.099,0.363 0.233,0.684 0.405,0.955 0.173,0.271 0.382,0.485 0.625,0.642 0.246,0.154 0.521,0.226 0.832,0.213 0.33,-0.015 0.621,-0.122 0.871,-0.323 m -6.645,-3.068 c 0.242,-0.29 0.578,-0.417 1.004,-0.381 0.865,0.074 1.252,0.628 1.164,1.659 -0.099,1.131 -0.674,1.649 -1.729,1.56 -0.439,-0.037 -0.715,-0.146 -0.832,-0.323 0.098,-0.054 0.151,-0.13 0.16,-0.229 0.018,-0.187 -0.068,-0.287 -0.254,-0.303 -0.191,-0.018 -0.298,0.09 -0.316,0.317 -0.045,0.52 0.406,0.819 1.352,0.901 1.557,0.134 2.393,-0.482 2.51,-1.849 0.119,-1.366 -0.473,-2.104 -1.768,-2.216 -0.354,-0.03 -0.68,0.029 -0.979,0.178 l 0.442,-1.68 c 0.297,0.093 0.617,0.155 0.957,0.185 0.752,0.064 1.304,-0.255 1.649,-0.959 l -0.11,-0.01 c -0.267,0.189 -0.719,0.256 -1.362,0.199 -0.228,-0.019 -0.457,-0.048 -0.691,-0.088 -0.234,-0.038 -0.473,-0.083 -0.717,-0.136 l -0.781,3.004 0.301,0.171 z m -1.758,2.766 0.062,-0.271 C 43.42,80.59 43.107,80.314 43.191,79.922 l 1.018,-4.71 c 0.018,-0.085 0.043,-0.173 0.072,-0.267 0.029,-0.092 0.068,-0.194 0.119,-0.312 L 44.176,74.52 c -0.172,0.089 -0.323,0.16 -0.454,0.215 -0.134,0.056 -0.267,0.094 -0.398,0.119 -0.133,0.025 -0.281,0.038 -0.445,0.037 -0.166,-0.001 -0.363,-0.007 -0.596,-0.02 l -0.059,0.272 0.772,0.166 c 0.224,0.049 0.31,0.2 0.254,0.454 l -0.858,3.983 c -0.086,0.394 -0.486,0.515 -1.201,0.358 l -0.06,0.273 2.945,0.638 z"
       id="path7"
       inkscape:connector-curvature="0"
       style="fill:#ffffff" /><path
       d="m 88.117,45.385 c 0.362,0.006 0.698,-0.009 1.012,-0.043 0.312,-0.033 0.604,-0.092 0.888,-0.177 -0.06,-0.214 -0.162,-0.419 -0.312,-0.617 0.073,-0.161 0.157,-0.339 0.254,-0.528 0.099,-0.19 0.146,-0.422 0.149,-0.69 0.004,-0.232 -0.034,-0.455 -0.114,-0.671 -0.078,-0.215 -0.19,-0.402 -0.336,-0.564 -0.146,-0.162 -0.322,-0.293 -0.527,-0.39 -0.202,-0.098 -0.435,-0.146 -0.688,-0.15 -0.35,-0.004 -0.633,0.063 -0.85,0.205 -0.215,0.142 -0.396,0.332 -0.541,0.573 -0.146,0.24 -0.27,0.519 -0.377,0.834 -0.107,0.315 -0.223,0.646 -0.348,0.989 -0.107,0.295 -0.25,0.509 -0.434,0.642 -0.185,0.133 -0.396,0.197 -0.638,0.193 -0.192,-0.004 -0.358,-0.054 -0.498,-0.153 -0.137,-0.1 -0.252,-0.219 -0.34,-0.362 -0.088,-0.142 -0.151,-0.294 -0.192,-0.454 -0.041,-0.162 -0.062,-0.308 -0.06,-0.438 0.004,-0.208 0.049,-0.422 0.14,-0.641 0.092,-0.218 0.215,-0.415 0.375,-0.589 0.159,-0.174 0.35,-0.315 0.571,-0.427 0.224,-0.108 0.465,-0.163 0.729,-0.159 l 0.006,-0.312 c -0.268,-0.004 -0.577,0.01 -0.93,0.04 -0.354,0.028 -0.758,0.077 -1.213,0.14 0.029,0.119 0.076,0.239 0.141,0.36 0.064,0.119 0.14,0.239 0.224,0.359 -0.021,0.024 -0.049,0.068 -0.094,0.132 -0.044,0.062 -0.087,0.147 -0.13,0.257 -0.043,0.11 -0.082,0.245 -0.112,0.404 -0.031,0.159 -0.052,0.351 -0.054,0.568 -0.004,0.34 0.046,0.632 0.148,0.875 0.102,0.243 0.238,0.44 0.41,0.594 0.17,0.153 0.363,0.269 0.58,0.343 0.215,0.075 0.436,0.115 0.658,0.118 0.365,0.005 0.652,-0.054 0.865,-0.173 0.213,-0.119 0.391,-0.29 0.531,-0.512 0.143,-0.222 0.268,-0.488 0.377,-0.802 0.108,-0.312 0.246,-0.66 0.407,-1.041 0.129,-0.307 0.274,-0.535 0.438,-0.687 0.16,-0.153 0.351,-0.228 0.568,-0.226 0.277,0.005 0.506,0.113 0.684,0.331 0.181,0.216 0.267,0.502 0.263,0.86 -0.004,0.435 -0.155,0.796 -0.453,1.087 -0.295,0.291 -0.688,0.498 -1.18,0.616 l 0,0.286 z m -4.223,-5.45 4.705,-0.811 c 0.655,-0.112 1.026,0.116 1.121,0.687 l 0.274,-0.048 -0.354,-2.224 -0.277,0.049 c 0.103,0.633 -0.176,1.005 -0.832,1.118 l -3.2,0.551 3.881,-4.414 -0.272,-1.703 -0.277,0.047 c 0.098,0.614 0.021,0.942 -0.229,0.987 l -3.943,0.679 c -0.711,0.121 -1.105,-0.078 -1.189,-0.598 l -0.268,0.045 0.355,2.233 0.268,-0.048 c -0.102,-0.637 0.203,-1.019 0.91,-1.14 l 3.604,-0.621 -4.379,4.979 0.102,0.232 z m -1.547,-8.15 c 0.305,0.297 0.645,0.518 1.018,0.66 0.373,0.146 0.764,0.219 1.17,0.219 0.408,0 0.793,-0.071 1.154,-0.213 0.412,-0.163 0.766,-0.388 1.062,-0.673 0.297,-0.285 0.524,-0.609 0.688,-0.973 0.16,-0.363 0.248,-0.754 0.26,-1.172 0.012,-0.418 -0.059,-0.842 -0.217,-1.271 -0.158,-0.435 -0.387,-0.797 -0.683,-1.085 -0.297,-0.29 -0.629,-0.507 -0.995,-0.65 -0.365,-0.146 -0.75,-0.214 -1.152,-0.209 -0.402,0.004 -0.791,0.081 -1.162,0.228 -0.402,0.159 -0.752,0.379 -1.053,0.663 -0.302,0.284 -0.535,0.605 -0.703,0.964 -0.17,0.359 -0.267,0.745 -0.287,1.157 -0.02,0.412 0.045,0.826 0.199,1.244 0.162,0.443 0.395,0.814 0.701,1.111 m -0.472,-2.123 c 0.045,-0.301 0.158,-0.577 0.338,-0.83 0.179,-0.252 0.414,-0.48 0.709,-0.685 0.293,-0.204 0.627,-0.379 1,-0.525 0.341,-0.136 0.677,-0.232 1.009,-0.293 0.334,-0.062 0.645,-0.067 0.936,-0.018 0.289,0.051 0.547,0.163 0.773,0.34 0.226,0.177 0.399,0.433 0.522,0.768 0.133,0.364 0.172,0.703 0.114,1.018 -0.057,0.315 -0.18,0.601 -0.364,0.856 -0.188,0.255 -0.429,0.481 -0.718,0.681 -0.291,0.199 -0.604,0.364 -0.94,0.498 -0.362,0.145 -0.713,0.241 -1.055,0.29 -0.341,0.052 -0.654,0.045 -0.941,-0.016 -0.286,-0.062 -0.541,-0.183 -0.76,-0.364 -0.218,-0.185 -0.388,-0.439 -0.509,-0.768 -0.12,-0.335 -0.159,-0.653 -0.114,-0.952 m -1.599,-2.745 1.65,-0.772 -0.068,-0.256 c -0.264,0.061 -0.498,0.104 -0.703,0.128 -0.204,0.027 -0.397,0.01 -0.579,-0.05 -0.183,-0.06 -0.359,-0.177 -0.531,-0.351 -0.172,-0.174 -0.358,-0.429 -0.562,-0.765 l -0.147,-0.248 c -0.256,-0.427 -0.237,-0.734 0.056,-0.924 l 1.469,-0.954 c 0.168,-0.108 0.326,-0.042 0.475,0.204 l 0.059,0.096 c 0.103,0.172 0.178,0.32 0.23,0.449 0.052,0.129 0.074,0.253 0.064,0.371 -0.013,0.119 -0.062,0.234 -0.146,0.348 -0.086,0.114 -0.217,0.244 -0.396,0.389 l 0.181,0.296 1.989,-1.293 -0.178,-0.296 c -0.201,0.102 -0.375,0.161 -0.518,0.176 -0.145,0.016 -0.271,-0.002 -0.377,-0.056 -0.106,-0.054 -0.199,-0.133 -0.281,-0.239 -0.082,-0.107 -0.164,-0.227 -0.242,-0.359 L 81.557,22.54 c -0.076,-0.128 -0.039,-0.242 0.115,-0.342 l 1.377,-0.895 c 0.23,-0.15 0.467,-0.021 0.711,0.383 l 0.135,0.225 c 0.125,0.208 0.232,0.403 0.326,0.588 0.092,0.185 0.144,0.369 0.148,0.553 0.008,0.185 -0.035,0.375 -0.133,0.57 -0.096,0.195 -0.268,0.406 -0.516,0.635 l 0.18,0.228 1.399,-0.998 -2.521,-4.197 -0.238,0.154 c 0.318,0.528 0.26,0.932 -0.17,1.212 l -3.484,2.261 c -0.332,0.216 -0.646,0.08 -0.941,-0.411 l -0.229,0.148 2.56,4.263 z m -3.384,-5.318 1.364,-1.323 c 0.336,-0.325 0.688,-0.282 1.056,0.126 l 0.198,-0.192 -1.766,-1.974 -0.201,0.192 c 0.42,0.469 0.399,0.926 -0.06,1.372 -0.17,0.162 -0.336,0.272 -0.506,0.328 -0.168,0.056 -0.336,0.07 -0.502,0.042 -0.166,-0.028 -0.324,-0.091 -0.477,-0.188 -0.154,-0.098 -0.297,-0.222 -0.434,-0.373 -0.23,-0.258 -0.375,-0.534 -0.435,-0.83 -0.06,-0.296 -0.053,-0.598 0.019,-0.906 0.072,-0.309 0.203,-0.614 0.395,-0.916 0.193,-0.303 0.428,-0.588 0.707,-0.858 0.256,-0.249 0.529,-0.464 0.82,-0.646 0.289,-0.184 0.584,-0.305 0.881,-0.364 0.297,-0.061 0.59,-0.048 0.875,0.036 0.285,0.084 0.553,0.266 0.805,0.547 0.354,0.395 0.527,0.839 0.516,1.33 -0.01,0.491 -0.164,0.976 -0.463,1.454 l 0.209,0.234 c 0.644,-0.621 1.076,-1.187 1.306,-1.698 -0.177,-0.141 -0.419,-0.216 -0.726,-0.228 -0.068,-0.26 -0.149,-0.514 -0.248,-0.759 -0.096,-0.247 -0.229,-0.469 -0.408,-0.666 -0.293,-0.327 -0.627,-0.562 -1.006,-0.707 -0.377,-0.146 -0.766,-0.21 -1.164,-0.194 -0.397,0.017 -0.787,0.108 -1.17,0.276 -0.383,0.168 -0.727,0.4 -1.031,0.695 -0.309,0.3 -0.553,0.633 -0.727,1 -0.176,0.366 -0.277,0.742 -0.309,1.129 -0.032,0.386 0.016,0.766 0.135,1.139 0.119,0.374 0.322,0.719 0.605,1.036 0.207,0.229 0.44,0.421 0.705,0.573 0.264,0.152 0.522,0.251 0.779,0.296 l 0.092,0.838 0.166,0.179 z M 73.47,16.373 c -0.22,0.182 -0.386,0.227 -0.5,0.135 -0.097,-0.076 -0.146,-0.185 -0.148,-0.325 -0.002,-0.14 0.016,-0.294 0.059,-0.459 0.041,-0.165 0.096,-0.332 0.158,-0.502 0.066,-0.17 0.119,-0.315 0.164,-0.438 0.066,-0.202 0.086,-0.449 0.062,-0.742 -0.025,-0.292 -0.109,-0.587 -0.257,-0.886 l 0.019,-0.022 c 0.215,0.109 0.426,0.191 0.631,0.243 0.205,0.052 0.402,0.074 0.588,0.063 0.186,-0.01 0.359,-0.058 0.521,-0.143 0.162,-0.085 0.307,-0.214 0.434,-0.389 0.131,-0.175 0.211,-0.367 0.244,-0.578 C 75.48,12.119 75.47,11.906 75.42,11.69 75.37,11.475 75.275,11.264 75.139,11.057 75.004,10.849 74.832,10.663 74.625,10.498 74.457,10.364 74.314,10.252 74.193,10.16 74.076,10.068 73.961,9.984 73.855,9.908 73.748,9.831 73.638,9.749 73.527,9.664 73.416,9.579 73.28,9.473 73.12,9.347 L 72.22,8.63 72.05,8.861 c 0.457,0.362 0.566,0.704 0.332,1.023 l -2.609,3.539 c -0.239,0.324 -0.569,0.318 -0.992,-0.019 l -0.163,0.224 2.026,1.618 0.166,-0.226 c -0.44,-0.352 -0.543,-0.688 -0.305,-1.015 l 1.199,-1.623 c 0.057,-0.04 0.152,-0.008 0.283,0.095 l 0.215,0.173 c 0.174,0.139 0.271,0.313 0.297,0.527 0.026,0.214 0.01,0.443 -0.045,0.688 -0.057,0.244 -0.135,0.499 -0.236,0.762 -0.104,0.263 -0.195,0.512 -0.277,0.747 -0.102,0.284 -0.121,0.531 -0.057,0.745 0.062,0.213 0.24,0.436 0.535,0.669 0.1,0.08 0.209,0.125 0.33,0.133 0.117,0.008 0.234,-0.004 0.344,-0.034 0.109,-0.031 0.209,-0.078 0.299,-0.143 0.088,-0.063 0.156,-0.125 0.199,-0.186 L 73.47,16.373 Z m -1.321,-4.224 c -0.096,-0.076 -0.127,-0.159 -0.09,-0.25 l 1.053,-1.429 c 0.205,-0.279 0.398,-0.346 0.582,-0.201 l 0.347,0.275 c 0.121,0.096 0.231,0.208 0.334,0.337 0.103,0.129 0.179,0.271 0.229,0.426 0.049,0.154 0.061,0.321 0.033,0.497 -0.029,0.176 -0.109,0.359 -0.25,0.548 -0.164,0.226 -0.328,0.376 -0.488,0.454 -0.16,0.078 -0.318,0.109 -0.478,0.096 -0.155,-0.015 -0.312,-0.064 -0.459,-0.151 -0.147,-0.087 -0.293,-0.188 -0.438,-0.303 L 72.149,12.149 Z M 68,10.817 c -0.082,0.176 -0.188,0.353 -0.317,0.53 -0.129,0.179 -0.285,0.322 -0.474,0.43 -0.187,0.106 -0.408,0.162 -0.67,0.164 -0.263,0.002 -0.563,-0.087 -0.91,-0.266 C 65.256,11.482 64.99,11.283 64.836,11.076 64.683,10.87 64.595,10.661 64.574,10.451 64.553,10.241 64.58,10.03 64.655,9.82 64.731,9.61 64.817,9.41 64.908,9.218 L 66.244,6.424 C 66.438,6.013 66.795,5.94 67.309,6.206 L 67.432,5.944 65.086,4.731 64.961,4.994 c 0.516,0.265 0.674,0.604 0.477,1.015 L 64,9.023 c -0.125,0.266 -0.201,0.531 -0.226,0.801 -0.022,0.269 0.009,0.525 0.097,0.774 0.086,0.249 0.229,0.48 0.426,0.694 0.197,0.214 0.457,0.403 0.774,0.569 0.505,0.26 0.933,0.416 1.285,0.469 0.354,0.053 0.656,0.026 0.912,-0.076 0.254,-0.104 0.474,-0.272 0.652,-0.51 0.182,-0.236 0.35,-0.516 0.502,-0.835 l 1.225,-2.566 c 0.238,-0.496 0.58,-0.627 1.031,-0.395 L 70.801,7.685 68.918,6.711 68.793,6.973 c 0.557,0.288 0.719,0.68 0.48,1.175 L 68,10.817 Z M 62.485,5.853 C 62.582,5.49 62.651,5.146 62.696,4.824 62.746,4.502 62.762,4.189 62.754,3.887 62.539,3.892 62.321,3.945 62.103,4.046 61.97,3.93 61.827,3.8 61.672,3.656 61.521,3.511 61.318,3.405 61.068,3.334 60.853,3.272 60.633,3.256 60.416,3.281 60.195,3.307 59.992,3.374 59.805,3.48 59.618,3.587 59.453,3.731 59.313,3.914 59.172,4.096 59.063,4.313 59,4.568 c -0.095,0.353 -0.101,0.654 -0.021,0.908 0.078,0.252 0.211,0.482 0.397,0.688 0.188,0.206 0.414,0.401 0.685,0.588 0.268,0.186 0.545,0.384 0.836,0.596 0.246,0.181 0.41,0.379 0.487,0.597 0.076,0.219 0.085,0.447 0.021,0.69 -0.049,0.194 -0.137,0.348 -0.264,0.462 -0.127,0.114 -0.269,0.199 -0.422,0.252 -0.156,0.055 -0.312,0.082 -0.476,0.083 -0.158,0 -0.302,-0.017 -0.423,-0.051 C 59.628,9.327 59.439,9.227 59.259,9.082 59.077,8.936 58.925,8.762 58.802,8.558 58.681,8.355 58.597,8.127 58.548,7.876 58.501,7.626 58.513,7.367 58.583,7.1 L 58.292,7.018 c -0.068,0.268 -0.133,0.583 -0.193,0.946 -0.061,0.364 -0.117,0.783 -0.17,1.256 0.117,0 0.24,-0.017 0.367,-0.052 0.129,-0.036 0.26,-0.08 0.393,-0.134 0.021,0.024 0.052,0.065 0.099,0.126 0.049,0.059 0.116,0.124 0.209,0.193 0.092,0.072 0.207,0.144 0.349,0.215 0.141,0.072 0.312,0.138 0.518,0.194 0.314,0.089 0.6,0.112 0.85,0.069 0.254,-0.043 0.473,-0.131 0.656,-0.265 0.186,-0.133 0.34,-0.3 0.463,-0.5 C 61.958,8.867 62.05,8.655 62.108,8.43 62.202,8.066 62.219,7.762 62.161,7.517 62.103,7.272 61.989,7.052 61.817,6.854 61.647,6.657 61.43,6.463 61.165,6.275 60.903,6.087 60.612,5.865 60.298,5.606 60.046,5.398 59.868,5.193 59.767,4.994 c -0.101,-0.2 -0.123,-0.411 -0.063,-0.63 0.071,-0.279 0.229,-0.481 0.478,-0.607 0.243,-0.126 0.534,-0.143 0.866,-0.049 0.402,0.114 0.701,0.355 0.899,0.727 0.197,0.372 0.289,0.82 0.279,1.345 l 0.259,0.073 z M 52.438,8.295 52.446,8.012 C 51.827,7.988 51.524,7.724 51.544,7.222 l 0.061,-1.724 c 0.008,-0.189 0.066,-0.28 0.176,-0.276 l 0.416,0.016 c 0.246,0.011 0.439,0.047 0.58,0.107 0.142,0.062 0.244,0.137 0.314,0.226 0.068,0.088 0.111,0.181 0.131,0.278 0.019,0.1 0.023,0.191 0.021,0.279 L 53.235,6.316 53.544,6.329 53.632,3.927 53.323,3.915 C 53.278,4.108 53.239,4.266 53.196,4.387 53.155,4.509 53.102,4.603 53.032,4.673 52.964,4.743 52.87,4.789 52.755,4.813 52.64,4.837 52.482,4.844 52.282,4.836 L 52.147,4.83 C 51.8,4.815 51.634,4.692 51.643,4.46 l 0.061,-1.658 c 0.01,-0.257 0.197,-0.379 0.566,-0.364 l 0.271,0.012 c 0.267,0.01 0.502,0.031 0.711,0.064 0.207,0.033 0.388,0.099 0.541,0.196 0.151,0.098 0.278,0.238 0.379,0.421 0.099,0.184 0.17,0.433 0.213,0.749 L 54.703,3.864 54.621,2.125 49.975,1.94 49.962,2.232 c 0.574,0.022 0.853,0.312 0.83,0.863 l -0.147,4.088 c -0.019,0.502 -0.293,0.743 -0.824,0.723 l -0.01,0.282 2.627,0.107 z M 47.117,8.247 C 47.463,8.003 47.746,7.708 47.965,7.361 48.185,7.015 48.338,6.635 48.431,6.223 48.521,5.809 48.537,5.405 48.486,5.006 48.424,4.552 48.295,4.142 48.09,3.777 47.892,3.414 47.638,3.109 47.332,2.865 47.026,2.62 46.681,2.446 46.291,2.34 45.901,2.235 45.487,2.214 45.054,2.278 44.61,2.343 44.22,2.494 43.881,2.73 c -0.338,0.236 -0.612,0.524 -0.83,0.864 -0.219,0.339 -0.368,0.713 -0.452,1.122 -0.086,0.41 -0.101,0.819 -0.048,1.229 0.062,0.442 0.189,0.848 0.39,1.216 0.199,0.366 0.449,0.677 0.748,0.928 0.299,0.252 0.639,0.434 1.021,0.547 0.381,0.112 0.783,0.138 1.209,0.076 0.454,-0.066 0.853,-0.221 1.198,-0.465 M 45.021,8.252 C 44.751,8.139 44.517,7.963 44.32,7.726 44.124,7.49 43.964,7.199 43.837,6.854 43.714,6.511 43.622,6.133 43.566,5.723 43.515,5.349 43.499,4.987 43.515,4.635 c 0.016,-0.352 0.08,-0.669 0.191,-0.952 0.111,-0.282 0.275,-0.519 0.49,-0.709 0.217,-0.189 0.496,-0.31 0.834,-0.358 0.371,-0.055 0.701,-0.019 0.98,0.109 0.284,0.126 0.524,0.313 0.723,0.562 0.197,0.247 0.356,0.54 0.479,0.877 0.121,0.337 0.209,0.692 0.26,1.065 0.053,0.398 0.064,0.776 0.037,1.132 C 47.48,6.717 47.405,7.035 47.284,7.312 47.163,7.59 46.991,7.82 46.772,8 46.553,8.18 46.276,8.296 45.94,8.345 45.603,8.396 45.295,8.365 45.021,8.252 m -5.542,1.816 -0.494,-1.812 -0.254,0.032 c 0.021,0.279 0.025,0.526 0.021,0.743 -0.004,0.215 -0.049,0.411 -0.133,0.59 -0.084,0.178 -0.221,0.344 -0.41,0.495 -0.189,0.151 -0.461,0.308 -0.809,0.466 l -0.256,0.117 C 36.699,10.9 36.41,10.838 36.271,10.509 L 35.579,8.859 C 35.5,8.669 35.588,8.516 35.842,8.4 l 0.101,-0.045 c 0.176,-0.08 0.33,-0.138 0.461,-0.173 0.129,-0.036 0.25,-0.039 0.361,-0.011 0.11,0.029 0.215,0.095 0.311,0.198 0.096,0.103 0.201,0.257 0.312,0.46 l 0.309,-0.141 -0.941,-2.235 -0.307,0.14 c 0.066,0.223 0.098,0.409 0.092,0.56 -0.008,0.15 -0.043,0.276 -0.107,0.378 -0.065,0.103 -0.156,0.188 -0.27,0.256 -0.114,0.068 -0.24,0.134 -0.377,0.196 L 35.506,8.111 C 35.371,8.173 35.27,8.116 35.195,7.943 L 34.547,6.397 C 34.438,6.138 34.594,5.914 35.014,5.722 l 0.232,-0.105 c 0.215,-0.099 0.418,-0.183 0.607,-0.25 0.188,-0.069 0.369,-0.095 0.547,-0.074 0.176,0.02 0.352,0.092 0.522,0.22 0.173,0.127 0.351,0.335 0.529,0.624 L 37.694,5.986 36.946,4.4 32.588,6.384 32.701,6.652 c 0.547,-0.25 0.924,-0.132 1.127,0.353 l 1.646,3.913 c 0.158,0.375 -0.02,0.678 -0.527,0.909 l 0.107,0.259 4.425,-2.018 z m -5.518,2.763 -1.026,-1.622 C 32.683,10.81 32.781,10.457 33.23,10.147 l -0.15,-0.234 -2.166,1.481 0.149,0.236 c 0.515,-0.353 0.945,-0.255 1.289,0.291 0.127,0.199 0.203,0.39 0.228,0.572 0.024,0.182 0.012,0.355 -0.043,0.521 -0.056,0.166 -0.142,0.318 -0.259,0.458 -0.116,0.142 -0.26,0.269 -0.428,0.382 -0.281,0.193 -0.567,0.295 -0.856,0.307 -0.289,0.01 -0.576,-0.046 -0.856,-0.17 -0.279,-0.124 -0.548,-0.31 -0.802,-0.558 -0.254,-0.247 -0.485,-0.536 -0.694,-0.867 -0.193,-0.305 -0.354,-0.622 -0.478,-0.949 -0.125,-0.328 -0.19,-0.65 -0.197,-0.966 -0.01,-0.313 0.052,-0.61 0.179,-0.89 0.127,-0.28 0.346,-0.524 0.653,-0.735 0.435,-0.297 0.884,-0.398 1.347,-0.307 0.465,0.093 0.897,0.333 1.301,0.718 L 31.705,9.261 C 31.223,8.5 30.76,7.96 30.312,7.642 30.15,7.798 30.037,8.033 29.974,8.346 c -0.257,0.026 -0.513,0.068 -0.761,0.126 -0.25,0.059 -0.481,0.161 -0.698,0.31 -0.357,0.245 -0.64,0.55 -0.841,0.912 -0.198,0.363 -0.325,0.75 -0.377,1.161 -0.051,0.411 -0.028,0.827 0.065,1.246 0.099,0.42 0.261,0.812 0.488,1.173 0.232,0.368 0.508,0.671 0.828,0.912 0.318,0.241 0.656,0.409 1.018,0.504 0.361,0.097 0.729,0.113 1.104,0.053 0.373,-0.061 0.734,-0.209 1.082,-0.448 0.253,-0.172 0.474,-0.382 0.662,-0.627 0.188,-0.246 0.324,-0.495 0.41,-0.749 l 0.81,0.044 0.197,-0.132 z m -5.209,3.671 -1.078,-1.513 -0.228,0.123 c 0.111,0.255 0.201,0.483 0.271,0.688 0.068,0.203 0.092,0.403 0.076,0.601 -0.018,0.197 -0.09,0.402 -0.215,0.614 -0.127,0.212 -0.326,0.456 -0.598,0.733 l -0.203,0.204 c -0.346,0.352 -0.639,0.398 -0.879,0.143 l -1.211,-1.288 c -0.14,-0.147 -0.107,-0.324 0.09,-0.525 l 0.078,-0.079 c 0.139,-0.142 0.264,-0.251 0.373,-0.333 0.108,-0.08 0.223,-0.128 0.334,-0.144 0.115,-0.014 0.231,0.01 0.358,0.071 0.125,0.062 0.272,0.167 0.447,0.315 l 0.239,-0.243 -1.641,-1.747 -0.24,0.244 c 0.14,0.184 0.232,0.347 0.277,0.489 0.045,0.144 0.055,0.273 0.027,0.395 -0.027,0.12 -0.082,0.231 -0.164,0.338 -0.082,0.104 -0.178,0.213 -0.285,0.323 l -0.221,0.224 c -0.105,0.105 -0.219,0.09 -0.346,-0.044 l -1.134,-1.207 c -0.19,-0.202 -0.12,-0.47 0.207,-0.805 l 0.183,-0.185 c 0.168,-0.171 0.33,-0.324 0.481,-0.458 0.154,-0.134 0.315,-0.224 0.486,-0.271 0.172,-0.047 0.36,-0.042 0.563,0.014 0.205,0.055 0.441,0.186 0.707,0.389 l 0.176,-0.23 -1.233,-1.208 -3.406,3.458 0.197,0.209 c 0.426,-0.436 0.817,-0.463 1.174,-0.085 l 2.869,3.055 c 0.272,0.292 0.211,0.642 -0.187,1.045 l 0.189,0.202 3.467,-3.512 z m -3.892,4.058 -1.348,-1.372 -0.174,0.184 c 0.455,0.619 0.664,1.083 0.625,1.396 -0.027,0.166 -0.086,0.348 -0.174,0.545 -0.09,0.197 -0.217,0.411 -0.381,0.646 l -0.244,0.35 c -0.232,0.331 -0.451,0.418 -0.656,0.262 L 19.053,19.95 c -0.371,-0.281 -0.395,-0.655 -0.066,-1.123 l -0.227,-0.173 -1.545,2.201 0.227,0.172 c 0.354,-0.502 0.718,-0.612 1.088,-0.332 l 3.455,2.622 c 0.265,0.2 0.238,0.523 -0.073,0.971 l 0.219,0.167 2.729,-3.895 z m -3.132,4.51 -1.552,-1.117 -0.141,0.21 c 0.549,0.529 0.83,0.953 0.842,1.267 0,0.169 -0.026,0.359 -0.084,0.568 -0.058,0.21 -0.146,0.443 -0.271,0.703 l -0.186,0.388 c -0.176,0.365 -0.375,0.49 -0.604,0.372 l -3.83,-1.98 C 15.49,25.269 15.408,24.903 15.656,24.386 l -0.252,-0.131 -1.167,2.439 0.252,0.13 c 0.266,-0.558 0.605,-0.729 1.016,-0.518 l 3.832,1.98 c 0.291,0.15 0.318,0.474 0.084,0.969 l 0.242,0.126 2.065,-4.311 z m -3.122,6.926 c -0.069,-0.428 -0.211,-0.816 -0.424,-1.167 -0.211,-0.352 -0.479,-0.655 -0.803,-0.913 -0.322,-0.257 -0.67,-0.443 -1.041,-0.559 -0.422,-0.13 -0.834,-0.177 -1.236,-0.137 -0.402,0.04 -0.773,0.153 -1.113,0.339 -0.342,0.188 -0.639,0.442 -0.893,0.769 -0.252,0.323 -0.443,0.706 -0.568,1.146 -0.127,0.445 -0.158,0.877 -0.092,1.294 0.066,0.417 0.203,0.799 0.41,1.146 0.209,0.345 0.473,0.643 0.795,0.894 0.322,0.251 0.674,0.437 1.057,0.553 0.412,0.128 0.819,0.174 1.223,0.138 0.404,-0.035 0.779,-0.144 1.123,-0.32 0.345,-0.18 0.646,-0.425 0.899,-0.74 0.259,-0.313 0.447,-0.685 0.57,-1.112 0.133,-0.458 0.163,-0.901 0.093,-1.331 m -0.866,1.986 c -0.212,0.209 -0.462,0.358 -0.75,0.445 -0.291,0.087 -0.611,0.12 -0.964,0.095 C 15.672,34.5 15.305,34.428 14.922,34.31 14.574,34.203 14.25,34.067 13.951,33.906 13.65,33.745 13.4,33.552 13.197,33.329 c -0.201,-0.224 -0.34,-0.477 -0.416,-0.76 -0.076,-0.28 -0.066,-0.596 0.033,-0.938 0.105,-0.373 0.273,-0.668 0.502,-0.882 0.229,-0.215 0.492,-0.364 0.791,-0.449 0.299,-0.084 0.619,-0.114 0.967,-0.089 0.346,0.024 0.691,0.091 1.039,0.198 0.371,0.115 0.705,0.261 1.006,0.435 0.301,0.174 0.545,0.376 0.738,0.607 0.192,0.23 0.322,0.486 0.391,0.771 0.066,0.283 0.053,0.594 -0.045,0.931 -0.097,0.342 -0.25,0.618 -0.463,0.829 m -2.143,3.035 c 0.291,0.154 0.528,0.308 0.721,0.459 0.188,0.153 0.336,0.315 0.438,0.486 0.104,0.17 0.173,0.353 0.205,0.549 0.031,0.195 0.037,0.411 0.019,0.649 -0.033,0.376 -0.138,0.689 -0.314,0.944 -0.176,0.256 -0.404,0.456 -0.688,0.601 -0.281,0.144 -0.607,0.237 -0.979,0.282 -0.372,0.046 -0.771,0.049 -1.197,0.008 -0.309,-0.027 -0.605,-0.092 -0.895,-0.191 -0.289,-0.099 -0.543,-0.237 -0.762,-0.416 -0.217,-0.178 -0.387,-0.395 -0.508,-0.651 -0.121,-0.256 -0.166,-0.559 -0.137,-0.901 0.041,-0.477 0.223,-0.879 0.545,-1.209 0.322,-0.329 0.779,-0.541 1.369,-0.63 l 0.027,-0.319 c -0.266,-0.025 -0.52,-0.036 -0.762,-0.031 -0.244,0.002 -0.459,0.012 -0.648,0.029 -0.189,0.017 -0.346,0.038 -0.467,0.065 -0.119,0.026 -0.189,0.049 -0.209,0.065 0.016,0.235 0.123,0.471 0.32,0.712 -0.312,0.4 -0.49,0.841 -0.531,1.322 -0.033,0.4 0.012,0.784 0.139,1.153 0.125,0.368 0.318,0.697 0.578,0.988 0.262,0.294 0.58,0.535 0.959,0.729 0.377,0.191 0.801,0.311 1.271,0.354 0.428,0.04 0.832,0.009 1.214,-0.096 0.383,-0.104 0.719,-0.271 1.012,-0.503 0.293,-0.231 0.531,-0.521 0.717,-0.865 0.184,-0.347 0.295,-0.742 0.332,-1.186 0.025,-0.301 0.012,-0.596 -0.043,-0.88 -0.055,-0.286 -0.148,-0.549 -0.283,-0.784 -0.135,-0.236 -0.312,-0.44 -0.529,-0.616 -0.219,-0.176 -0.482,-0.305 -0.791,-0.39 l -0.123,0.273 z"
       id="path9"
       inkscape:connector-curvature="0"
       style="fill:#ffffff" /><path
       d="m 69.222,64.137 c 0.082,0.244 0.217,0.396 0.405,0.448 -0.653,0.327 -1.088,0.49 -1.308,0.49 -0.026,0 -0.043,0.068 -0.043,0.203 -0.055,0 -0.258,-0.014 -0.612,-0.039 -0.242,0 -0.363,0.08 -0.363,0.241 l -2.288,0 c -0.027,-0.053 -0.027,-0.094 0,-0.121 0.026,-0.023 0.038,-0.054 0.038,-0.081 l -1.021,0 c 0.027,-0.135 -0.026,-0.203 -0.161,-0.203 l -0.406,0 c 0.024,-0.138 -0.028,-0.206 -0.164,-0.206 -0.301,0 -0.437,0.017 -0.411,0.043 0.057,-0.138 -0.015,-0.204 -0.199,-0.204 -0.17,0 -0.224,-0.067 -0.17,-0.207 -0.187,0.058 -0.361,0.03 -0.525,-0.081 -0.168,-0.082 -0.314,-0.121 -0.449,-0.121 0,-0.137 -0.193,-0.285 -0.576,-0.449 0.059,-0.081 0.219,-0.162 0.494,-0.244 0.27,-0.056 0.418,-0.138 0.451,-0.245 l 0.525,0 c 0.19,0.025 0.272,-0.042 0.25,-0.204 2.201,-0.137 3.319,-0.206 3.346,-0.206 -0.08,0.081 -0.08,0.125 0,0.125 0.107,-0.028 0.123,0 0.043,0.081 l 0.652,0 c 0.217,0 0.297,0.069 0.24,0.204 l 0.737,0 c 0.108,0.22 0.354,0.342 0.735,0.365 0.138,0.247 0.396,0.385 0.78,0.411 m 3.099,-8.658 c 1.007,-0.191 2.095,-0.259 3.265,-0.206 0.029,0.165 -0.012,0.304 -0.119,0.41 -0.106,0.108 -0.137,0.233 -0.082,0.368 -0.545,0.381 -0.995,0.831 -1.35,1.347 -0.298,-0.027 -0.488,0.098 -0.57,0.368 -0.299,0.053 -0.437,0.12 -0.405,0.202 l -0.37,0 c -0.16,0 -0.23,0.068 -0.205,0.206 l -0.369,0 c -0.16,-0.028 -0.227,0.041 -0.199,0.204 -0.027,0 -0.193,-0.014 -0.494,-0.043 -0.217,0 -0.312,0.068 -0.281,0.206 l -1.27,0 c -0.545,0.026 -0.953,0.015 -1.225,-0.043 0.162,-0.217 0.492,-0.555 0.979,-1.02 0.437,-0.408 0.75,-0.761 0.938,-1.063 0.242,-0.025 0.435,-0.146 0.574,-0.364 0.297,-0.027 0.432,-0.097 0.406,-0.205 0.385,-0.026 0.643,-0.15 0.777,-0.367 m 3.634,-4.984 c 0.028,-0.026 0.19,-0.026 0.494,0 0.217,0 0.311,-0.065 0.28,-0.203 l 1.351,0 0,0.367 c -0.244,0.137 -0.381,0.396 -0.406,0.774 -0.082,-0.023 -0.139,0 -0.166,0.083 -0.026,0.108 -0.096,0.148 -0.202,0.123 l 0,0.367 c -0.466,0.3 -0.845,0.683 -1.144,1.144 -0.326,-0.024 -0.521,0.108 -0.576,0.408 -0.403,0.027 -0.664,0.149 -0.774,0.368 l -0.406,0 c -0.164,0 -0.217,0.069 -0.164,0.203 l -0.404,0 c -0.164,0 -0.234,0.067 -0.207,0.202 -0.027,0 -0.217,-0.012 -0.57,-0.038 -0.248,0 -0.369,0.066 -0.369,0.203 -0.709,-0.082 -1.035,-0.096 -0.979,-0.04 l 0.207,-0.53 c 0.104,0.053 0.177,0.025 0.199,-0.082 0.028,-0.108 0.1,-0.137 0.207,-0.081 l 0,-0.41 c 0.081,0.058 0.137,0.03 0.161,-0.082 0.027,-0.105 0.099,-0.146 0.205,-0.121 l 0,-0.366 c 0.463,-0.3 0.845,-0.681 1.146,-1.145 0.297,0.025 0.553,-0.163 0.775,-0.572 0.379,-0.025 0.637,-0.162 0.773,-0.408 -0.025,0 0.096,0.014 0.368,0.043 l 0.244,0 c 0,0 -0.015,-0.069 -0.043,-0.207 m -50.351,3.064 c 0.026,-0.108 0,-0.175 -0.082,-0.205 -0.107,-0.024 -0.15,-0.095 -0.119,-0.203 l -0.371,0 c -0.299,-0.461 -0.678,-0.844 -1.143,-1.144 0.026,-0.3 -0.107,-0.49 -0.406,-0.573 -0.031,-0.38 -0.15,-0.639 -0.369,-0.774 l 0,-0.367 1.346,0 c -0.025,0.138 0.068,0.203 0.287,0.203 0.301,-0.026 0.461,-0.026 0.488,0 -0.053,0.139 0,0.207 0.168,0.207 l 0.406,-0.043 c 0.106,0.245 0.369,0.383 0.774,0.408 0,0.109 0.058,0.202 0.164,0.285 0.137,0.081 0.205,0.177 0.205,0.287 l 0.366,0 c 0.326,0.464 0.722,0.845 1.185,1.145 -0.058,0.298 0.065,0.487 0.369,0.569 -0.028,0.301 0.094,0.491 0.362,0.573 -0.024,0.245 0.043,0.396 0.207,0.448 0.025,-0.081 -0.289,-0.043 -0.938,0.122 0,-0.137 -0.125,-0.203 -0.369,-0.203 -0.381,0.026 -0.584,0.038 -0.61,0.038 0.026,-0.135 -0.027,-0.202 -0.162,-0.202 l -0.408,0 c 0.025,-0.134 -0.027,-0.203 -0.162,-0.203 l -0.414,0 c -0.105,-0.219 -0.16,-0.327 -0.16,-0.327 0,0 -0.203,-0.014 -0.614,-0.041 m 45.167,-5.185 c -0.08,-0.492 -0.273,-0.817 -0.574,-0.98 0,-0.461 -0.133,-0.774 -0.404,-0.938 -0.107,-1.308 -0.164,-1.945 -0.164,-1.918 -0.082,-0.027 -0.137,0.011 -0.164,0.119 0.057,0.058 0.039,-0.243 -0.043,-0.896 l 0.207,0 c -0.055,-0.301 -0.043,-0.614 0.039,-0.942 0.086,-0.38 0.125,-0.636 0.125,-0.774 l 0.404,0 c 0.875,0.953 1.256,1.402 1.146,1.349 0.027,0.381 0.148,0.628 0.367,0.733 l 0,0.412 c 0,0.161 0.067,0.216 0.207,0.161 l 0,0.53 c -0.026,0.191 0.039,0.271 0.199,0.245 l 0,3.266 c -0.16,-0.024 -0.228,0.081 -0.199,0.329 0.024,0.271 0.013,0.422 -0.043,0.448 -0.22,-0.106 -0.41,-0.312 -0.567,-0.61 C 71.165,48.66 71.1,48.539 71.1,48.539 c 0,0 -0.11,-0.057 -0.329,-0.165 m -8.659,-3.8 c 0.082,0.191 0,0.342 -0.243,0.449 -0.19,0.108 -0.263,0.179 -0.207,0.204 -0.545,0.057 -1.308,0.083 -2.283,0.083 -1.308,-0.026 -2.101,-0.026 -2.369,0 -0.057,0 -0.161,-0.068 -0.325,-0.205 -0.086,-0.028 -0.142,0.016 -0.168,0.122 0,0.083 -0.054,0.108 -0.164,0.083 l -13.269,0 c -0.058,0 -0.14,-0.057 -0.248,-0.164 -0.082,-0.081 -0.188,-0.096 -0.323,-0.041 0,0.026 0.079,0.041 0.241,0.041 -0.325,0.107 -0.842,0.164 -1.551,0.164 -0.953,-0.026 -1.524,-0.026 -1.716,0 0.109,-0.083 0.082,-0.164 -0.082,-0.245 -0.241,-0.081 -0.366,-0.178 -0.366,-0.287 -0.024,-0.106 0.015,-0.188 0.125,-0.242 0.082,-0.082 0.135,-0.152 0.162,-0.205 l 10.778,0 10.861,0 c 0.632,0 1.013,0.081 1.147,0.243 m -31.118,2.819 c -0.109,-0.028 -0.179,0.027 -0.201,0.163 -0.028,0.108 -0.101,0.123 -0.207,0.042 0.056,0.136 0.024,0.256 -0.082,0.365 -0.106,0.111 -0.137,0.246 -0.082,0.41 -0.219,0.107 -0.394,0.283 -0.53,0.53 -0.162,0.271 -0.326,0.478 -0.486,0.611 -0.139,0 -0.18,-0.135 -0.125,-0.41 0.025,-0.271 -0.043,-0.393 -0.207,-0.368 l 0,-3.265 c 0.139,0.026 0.207,-0.054 0.207,-0.245 -0.027,-0.328 -0.043,-0.504 -0.043,-0.531 0.168,0.056 0.232,0 0.207,-0.16 l 0,-0.412 c 0.242,-0.105 0.379,-0.354 0.404,-0.733 0.086,0.027 0.139,-0.013 0.17,-0.123 0.022,-0.107 0.094,-0.135 0.198,-0.08 l 0,-0.408 c 0.14,-0.025 0.313,-0.163 0.533,-0.408 0.16,-0.247 0.367,-0.355 0.61,-0.328 l 0,0.37 c 0,0.16 0.068,0.229 0.205,0.203 0.22,0.813 0.283,1.211 0.203,1.186 l 0,0.735 c 0.109,-0.027 0.043,0.421 -0.203,1.345 -0.137,-0.054 -0.205,0 -0.205,0.164 l 0,0.409 c -0.271,0.164 -0.407,0.245 -0.407,0.245 0,0 0.017,0.232 0.041,0.693 m 45.168,-8.82 c 0.135,-0.055 0.34,-0.23 0.61,-0.533 0.22,-0.271 0.463,-0.418 0.734,-0.448 l 0,-0.163 0.369,0 c 0.025,-0.19 0.096,0.301 0.203,1.47 0.109,-0.023 0.039,0.396 -0.203,1.269 -0.082,-0.056 -0.15,-0.067 -0.203,-0.043 l 0,0.736 c -0.111,-0.027 -0.18,0.016 -0.205,0.121 0,0.191 0.012,0.285 0.039,0.285 l -0.121,0 c -0.057,-0.025 -0.082,-0.025 -0.082,0 0.025,-0.025 -0.043,0.233 -0.205,0.776 -0.271,0.058 -0.395,0.245 -0.369,0.573 -0.135,-0.027 -0.242,0.057 -0.324,0.244 -0.081,0.136 -0.163,0.179 -0.243,0.123 l 0,0.407 c -0.354,0.163 -0.613,0.41 -0.777,0.733 -0.241,-0.024 -0.395,0.043 -0.448,0.207 0.055,0 0.012,-0.26 -0.125,-0.777 -0.082,0.137 -0.146,0.15 -0.199,0.04 -0.029,-0.106 -0.029,-0.245 0,-0.406 l 0.117,0 c 0.028,0.026 0.059,0.042 0.082,0.042 -0.023,-0.164 0.098,-1.145 0.371,-2.943 0.024,0 0.162,-0.257 0.403,-0.775 -0.053,0.081 -0.012,0.058 0.125,-0.081 0.108,-0.082 0.125,-0.176 0.043,-0.284 0.104,0.026 0.177,0 0.201,-0.082 0.028,-0.107 0.099,-0.15 0.207,-0.122 l 0,-0.369 z m -7.309,-2.124 c -0.058,0.137 -0.015,0.204 0.121,0.204 l 0.248,0 c 0.022,0 0.022,0.026 0,0.079 l 0,0.125 c -0.031,-0.055 0.229,0 0.774,0.163 0.106,0.217 0.336,0.478 0.692,0.775 0.326,0.3 0.545,0.57 0.652,0.816 0.08,-0.024 0.148,-0.04 0.205,-0.04 -0.057,0.135 -0.014,0.301 0.119,0.489 0.168,0.219 0.25,0.396 0.25,0.528 0.08,-0.052 0.146,-0.081 0.199,-0.081 -0.08,0.112 -0.064,0.288 0.043,0.53 0.082,0.221 0.191,0.37 0.326,0.452 l 0,0.487 c -0.025,0.222 0.045,0.314 0.205,0.285 l 0,0.493 c -0.027,0.188 0.039,0.283 0.203,0.283 -0.107,0.41 -0.136,0.601 -0.082,0.572 -0.517,-0.271 -0.814,-0.408 -0.896,-0.408 0.024,-0.083 0,-0.136 -0.082,-0.164 -0.11,-0.027 -0.149,-0.096 -0.125,-0.202 l -0.365,0 c 0.027,-0.108 0,-0.178 -0.082,-0.205 -0.106,-0.028 -0.149,-0.093 -0.118,-0.206 l -0.371,0 c -0.381,-0.516 -0.83,-0.951 -1.351,-1.307 l 0,-0.324 C 69.314,39.764 69.22,39.655 69.138,39.467 69.051,39.276 68.957,39.166 68.851,39.14 68.824,38.839 68.754,38.717 68.646,38.772 l 0,-0.409 c 0,-0.163 -0.066,-0.229 -0.203,-0.202 l 0.041,-0.491 c 0,-0.189 -0.07,-0.272 -0.207,-0.245 l 0,-0.979 0.576,0.003 0,0 z m -40.431,6.166 c 0.056,0 0.015,-0.19 -0.125,-0.573 0.14,0 0.207,-0.095 0.207,-0.283 -0.026,-0.33 -0.026,-0.493 0,-0.493 0.138,0.029 0.205,-0.063 0.205,-0.285 -0.028,-0.299 -0.043,-0.461 -0.043,-0.487 0.138,0.053 0.207,-0.016 0.207,-0.207 0,-0.163 0.063,-0.217 0.198,-0.163 -0.161,-0.405 -0.161,-0.583 0,-0.531 0.082,0.031 0.14,-0.012 0.164,-0.119 0.029,-0.082 0.099,-0.125 0.207,-0.125 -0.026,-0.162 0.015,-0.311 0.121,-0.449 0.109,-0.106 0.14,-0.217 0.082,-0.324 0.027,0 0.097,-0.067 0.201,-0.206 l 0.086,0 0.084,0 c 0.023,0 0.051,-0.052 0.08,-0.163 0.053,-0.107 0.096,-0.175 0.119,-0.202 0,-0.027 0.027,-0.027 0.082,0 l 0.123,0 c 0,-0.027 0.057,-0.123 0.164,-0.286 0.082,-0.137 0.148,-0.231 0.207,-0.287 l 0.406,-0.407 c 0.381,-0.027 0.623,-0.147 0.736,-0.366 0.299,-0.029 0.434,-0.098 0.405,-0.205 l 0.57,0 0,0.979 c -0.162,-0.027 -0.229,0.056 -0.201,0.245 l 0,0.491 c -0.14,-0.026 -0.205,0.039 -0.205,0.202 l 0,0.409 c -0.106,0.027 -0.219,0.19 -0.328,0.49 -0.106,0.272 -0.241,0.421 -0.407,0.45 l 0,0.323 c -0.056,0 -0.084,-0.026 -0.084,-0.08 -0.052,0.162 -0.256,0.396 -0.611,0.692 -0.324,0.327 -0.543,0.587 -0.652,0.775 -0.299,-0.023 -0.488,0.113 -0.574,0.411 -0.322,-0.056 -0.525,0.067 -0.611,0.366 -0.299,0.028 -0.444,0.042 -0.444,0.042 l -0.369,0.366 z m 41.574,-14.255 0,-0.486 c 0.022,-0.19 -0.043,-0.272 -0.205,-0.246 l 0,-2.695 c 0.162,0.027 0.229,-0.069 0.205,-0.285 l 0,-0.489 c 0.135,0.025 0.198,-0.026 0.198,-0.166 l 0,-0.406 c 0.111,-0.055 0.234,-0.246 0.371,-0.572 0.107,-0.297 0.302,-0.435 0.574,-0.41 0.053,0.082 0.135,0.259 0.242,0.531 0.107,0.22 0.219,0.369 0.326,0.451 l 0,0.406 c 0,0.139 0.068,0.191 0.207,0.166 l 0,0.489 c -0.027,0.216 0.039,0.312 0.199,0.285 l 0,1.308 0,1.185 c -0.053,0 -0.094,-0.015 -0.119,-0.041 -0.027,-0.026 -0.055,-0.041 -0.08,-0.041 l 0,0.855 c -0.139,-0.026 -0.207,0.043 -0.207,0.206 l 0,0.409 c -0.055,-0.028 -0.107,-0.041 -0.162,-0.041 0.025,0.19 -0.014,0.38 -0.125,0.572 -0.107,0.19 -0.135,0.382 -0.08,0.572 -0.107,-0.054 -0.178,0.082 -0.201,0.408 l -0.371,0 c -0.024,-0.408 -0.16,-0.667 -0.41,-0.775 0.029,0 0.043,-0.137 0.043,-0.411 0,-0.163 -0.069,-0.216 -0.207,-0.163 l 0,-0.406 0,-0.245 c 0,-0.002 -0.063,0.011 -0.198,0.035 M 29.115,27.423 c -0.054,-0.273 -0.066,-0.68 -0.044,-1.225 l 0,-1.267 c 0.14,0.027 0.207,-0.069 0.207,-0.285 -0.026,-0.301 -0.043,-0.464 -0.043,-0.489 0.168,0.025 0.232,-0.026 0.207,-0.166 l 0,-0.406 c 0.107,-0.055 0.23,-0.246 0.367,-0.572 0.137,-0.297 0.34,-0.435 0.611,-0.41 0.027,0.058 0.109,0.233 0.246,0.531 0.082,0.22 0.189,0.369 0.326,0.451 l 0,0.406 c -0.025,0.139 0.041,0.191 0.205,0.166 0,0.025 -0.016,0.188 -0.043,0.489 0,0.216 0.068,0.312 0.205,0.285 l 0,2.695 c -0.137,-0.026 -0.205,0.056 -0.205,0.246 l 0.043,0.486 c -0.164,-0.023 -0.23,0.043 -0.205,0.207 l 0,0.406 c -0.137,-0.053 -0.201,0 -0.201,0.163 l 0,0.411 c -0.221,0.108 -0.344,0.367 -0.371,0.775 l -0.404,0 c 0.023,-0.327 -0.031,-0.479 -0.17,-0.449 0.029,-0.19 -0.01,-0.37 -0.119,-0.531 -0.106,-0.163 -0.137,-0.341 -0.082,-0.531 0,-0.028 -0.024,-0.041 -0.082,-0.041 -0.024,0 -0.039,0.013 -0.039,0.041 -0.057,0 -0.082,-0.123 -0.082,-0.37 0.025,-0.216 -0.039,-0.298 -0.207,-0.245 0.029,0 0.043,-0.175 0.043,-0.529 l 0,-0.365 c 0,10e-4 -0.052,0.042 -0.163,0.123 m 5.148,0.937 1.346,0 c -0.135,-0.379 -0.176,-0.568 -0.121,-0.568 l -0.16,0 c -0.082,-0.029 -0.125,0.025 -0.125,0.163 0.027,0.164 0.012,0.243 -0.039,0.243 l -0.531,0 c 0.107,-0.569 0.137,-0.829 0.082,-0.773 0.812,0.108 1.168,0.135 1.057,0.082 l 0,0.854 1.353,0 c -0.108,-0.379 -0.151,-0.568 -0.127,-0.568 l -0.119,0 c -0.106,-0.029 -0.149,0.025 -0.125,0.163 0.028,0.164 0,0.243 -0.078,0.243 l -0.489,0 c 0.08,-0.569 0.096,-0.829 0.037,-0.773 0.981,0.108 1.418,0.135 1.307,0.082 l 0,0.854 1.146,0 c -0.106,-0.379 -0.147,-0.568 -0.12,-0.568 -0.169,0.216 -0.302,0.353 -0.41,0.406 -0.082,0 -0.148,-0.038 -0.201,-0.12 -0.082,-0.082 -0.152,-0.123 -0.207,-0.123 0.082,-0.382 0.094,-0.561 0.043,-0.531 0.977,0.108 1.4,0.135 1.264,0.082 l 0,0.854 1.184,0 c -0.135,-0.379 -0.176,-0.568 -0.121,-0.568 -0.301,0.298 -0.52,0.435 -0.655,0.406 0.028,-0.161 0,-0.299 -0.082,-0.406 -0.104,-0.108 -0.146,-0.233 -0.117,-0.368 1.03,0.108 1.481,0.135 1.347,0.082 l 0,0.854 1.35,0 c -0.111,-0.379 -0.152,-0.568 -0.125,-0.568 -0.162,-0.056 -0.244,0 -0.244,0.163 -0.027,0.164 -0.084,0.243 -0.166,0.243 l -0.408,0 c 0.086,-0.569 0.098,-0.829 0.043,-0.773 0.818,0.108 1.182,0.135 1.1,0.082 l 0,0.854 1.351,0 c -0.136,-0.379 -0.179,-0.568 -0.125,-0.568 l -0.16,0 c -0.082,-0.029 -0.121,0.025 -0.121,0.163 0.024,0.164 0.013,0.243 -0.043,0.243 -0.325,-0.026 -0.504,-0.054 -0.528,-0.079 0.106,-0.518 0.135,-0.75 0.08,-0.694 0.952,0.108 1.375,0.135 1.27,0.082 l 0,0.855 1.143,0 c -0.113,-0.38 -0.152,-0.569 -0.125,-0.569 -0.055,0 -0.107,0.07 -0.164,0.204 -0.055,0.137 -0.148,0.202 -0.285,0.202 -0.162,0 -0.271,-0.095 -0.326,-0.285 -0.082,-0.163 -0.082,-0.327 0,-0.488 0.927,-0.192 1.361,-0.229 1.308,-0.123 0,-0.026 -0.056,-0.053 -0.164,-0.083 C 45.207,27.2 45.198,27.141 45.224,27.06 l -10.961,0 0,1.3 z m -0.409,0.452 c 0.105,0.08 0.051,-0.571 -0.168,-1.96 -0.024,-0.137 -0.012,-0.204 0.043,-0.204 l 12.455,0 0,2.326 c -0.738,-0.026 -2.803,-0.026 -6.207,0 -2.557,0.028 -4.598,-0.028 -6.123,-0.162 m -1.143,-2.534 c 0.084,0.139 0.015,-0.949 -0.205,-3.266 0.106,0.027 0.179,0.013 0.205,-0.043 0.024,-0.108 0.056,-0.161 0.084,-0.161 2.117,0.027 8.082,0.027 17.881,0 7.326,-0.029 13.248,0.016 17.769,0.123 0.137,0.108 0.203,0.667 0.203,1.672 0,0.954 -0.066,1.514 -0.203,1.675 -0.437,-0.025 -0.885,-0.161 -1.35,-0.406 -1.169,0.082 -3.091,0.082 -5.759,0 -2.558,-0.107 -4.451,-0.107 -5.676,0 -0.382,0.054 -0.572,0.096 -0.572,0.123 -0.299,-0.329 -0.448,-0.626 -0.448,-0.899 -0.162,-0.082 -0.611,-0.504 -1.351,-1.268 -0.731,-0.354 -1.127,-0.569 -1.183,-0.651 -0.082,0 -0.219,0.015 -0.405,0.039 -0.193,0 -0.33,-0.012 -0.412,-0.039 l 0,-0.081 0,-0.083 C 51.265,22.986 51.25,22.999 51.25,23.052 l -0.043,0.082 c -0.297,-0.108 -0.992,-0.094 -2.08,0.042 -0.437,0.327 -0.847,0.531 -1.229,0.613 -0.104,0.134 -0.528,0.568 -1.264,1.306 -0.025,0.109 -0.08,0.233 -0.162,0.368 -0.109,0.137 -0.15,0.271 -0.123,0.408 l -12.211,0 c -0.679,0.271 -1.019,0.406 -1.019,0.406 l -0.408,10e-4 0,0 z m 30.83,40.554 c 0.026,-0.026 0.026,-0.055 0,-0.081 -0.024,-0.058 -0.015,-0.098 0.039,-0.122 0.028,0.106 0.082,0.216 0.164,0.324 0.082,0.11 0.11,0.259 0.082,0.448 -0.054,-0.026 -0.147,-0.026 -0.285,0 -0.106,0.027 -0.179,0.027 -0.203,0 0.106,0.139 0.017,0.192 -0.289,0.163 -0.379,-0.024 -0.555,0.042 -0.53,0.206 l -1.629,0 c 0,-0.027 0.014,-0.056 0.039,-0.083 0.026,-0.054 0.038,-0.094 0.038,-0.123 l -0.977,0 c 0.053,-0.136 0,-0.2 -0.166,-0.2 l -0.406,0.037 C 59.31,67.159 59.049,67.022 58.642,66.996 58.699,66.914 58.574,66.858 58.275,66.832 58.22,66.724 58.086,66.601 57.867,66.466 57.65,66.356 57.525,66.221 57.5,66.056 l -0.37,0 c 0,-0.024 -0.135,-0.177 -0.408,-0.449 0,-0.081 0.045,-0.137 0.127,-0.162 0.105,0 0.135,-0.056 0.08,-0.163 l 0.488,0 c 0.219,0.026 0.312,-0.04 0.287,-0.204 l 2.857,0 c 0,0.164 0.094,0.23 0.289,0.204 l 0.485,0 c -0.024,0.138 0.045,0.201 0.207,0.201 l 0.369,0 c -0.033,0.11 0.037,0.164 0.2,0.164 0.189,0 0.261,0.069 0.203,0.205 l 0.082,0 c 10e-4,-0.001 0.384,0.324 1.145,0.98 m 8.006,-7.147 c 0.056,0.082 0.369,0.217 0.938,0.408 l 0,0.367 c -0.135,0.082 -0.312,0.231 -0.529,0.45 -0.219,0.245 -0.354,0.38 -0.408,0.407 -0.242,0.163 -0.383,0.271 -0.406,0.325 -0.272,0.027 -0.396,0.081 -0.371,0.163 -0.324,0 -0.475,0.069 -0.446,0.205 l -0.451,0 c -0.188,-0.028 -0.271,0.042 -0.244,0.205 l -1.471,0 c -0.517,-0.138 -0.654,-0.096 -0.41,0.12 0.086,-0.108 -0.082,-0.163 -0.488,-0.163 -0.598,0.029 -0.926,0.043 -0.981,0.043 0.057,-0.081 0.082,-0.15 0.082,-0.205 l -0.201,0.124 c 0.055,-0.191 0.082,-0.234 0.082,-0.124 l -0.656,0 c -0.053,0.135 -0.117,0.055 -0.201,-0.244 0.025,-0.082 0.094,-0.163 0.201,-0.246 0.137,-0.081 0.205,-0.178 0.205,-0.285 0.246,0.026 0.488,-0.162 0.738,-0.57 0.299,-0.027 0.432,-0.098 0.406,-0.205 0.383,-0.029 0.639,-0.15 0.774,-0.367 l 0.371,0 c 0.16,0 0.229,-0.066 0.198,-0.206 l 0.369,0 c 0.162,0.031 0.23,-0.038 0.205,-0.202 l 2.694,0 z m -11.723,2.532 c -1.142,0.49 -1.853,0.732 -2.121,0.732 l 0,-9.924 c -0.056,-0.078 -0.354,-0.176 -0.897,-0.285 0.461,-0.136 0.774,-0.12 0.936,0.043 0.059,0 0.082,-0.029 0.082,-0.081 0,-0.029 -0.023,-0.043 -0.082,-0.043 0.029,0 0.221,0.043 0.576,0.124 0.324,0.082 0.502,0.015 0.531,-0.207 0.135,0.164 0.311,0.222 0.53,0.164 0.353,-0.105 0.556,-0.164 0.61,-0.164 0.054,0.247 0,0.396 -0.165,0.449 l 0,9.192 0,0 z m -3.264,1.346 c -0.324,-0.026 -0.668,0.018 -1.019,0.125 -0.467,0.136 -0.767,0.216 -0.901,0.245 l 0,-10.906 c -0.324,-0.136 -0.476,-0.256 -0.447,-0.366 -0.109,0.139 -0.219,0.164 -0.328,0.081 0.027,-0.164 0.109,-0.202 0.244,-0.12 0.139,0.053 0.221,0.134 0.246,0.245 0.055,0 0.08,-0.042 0.08,-0.125 -0.025,-0.105 -0.015,-0.164 0.043,-0.164 0.082,-0.023 0.137,0 0.162,0.083 0,0.081 0.014,0.124 0.041,0.124 0.135,-0.163 0.364,-0.191 0.696,-0.081 0.322,0.107 0.543,0.067 0.651,-0.126 0.056,0 0.179,0.059 0.367,0.164 0.135,0.058 0.201,0 0.201,-0.164 0.137,0.028 0.191,0.112 0.168,0.247 -0.059,0.163 -0.125,0.231 -0.207,0.202 l 0,10.536 0.003,0 z m -3.472,0.574 c -0.272,-0.056 -0.601,-0.026 -0.979,0.081 -0.354,0.108 -0.668,0.135 -0.939,0.081 l 0,-11.272 c -0.107,-0.026 -0.189,-0.12 -0.242,-0.285 0,-0.024 0.053,-0.024 0.162,0 0.107,0.058 0.176,0.029 0.201,-0.081 0.055,-0.024 0.055,0.014 0,0.124 0.219,0.026 0.301,-0.043 0.248,-0.207 0.082,0 0.135,0.028 0.164,0.083 0.023,0.081 0.066,0.124 0.119,0.124 0.057,-0.11 0.152,-0.163 0.287,-0.163 0.137,-0.028 0.229,0.024 0.289,0.163 0.104,-0.163 0.254,-0.207 0.447,-0.124 0.27,0.11 0.434,0.15 0.487,0.124 0.026,-0.055 0,-0.095 -0.08,-0.124 -0.058,-0.024 -0.082,0 -0.082,0.081 -0.162,-0.136 0,-0.188 0.49,-0.164 -0.082,0.222 -0.272,0.396 -0.572,0.531 l 0,11.028 z m -3.469,0.162 c -1.201,-0.137 -1.839,-0.188 -1.92,-0.162 0.055,-0.164 0,-0.233 -0.164,-0.204 l 0,-10.824 -0.166,-0.202 c -0.082,-0.082 -0.082,-0.165 0,-0.246 0.055,0 0.067,0.014 0.043,0.043 0,0.026 -0.015,0.038 -0.043,0.038 -0.024,-0.105 0.043,-0.164 0.207,-0.164 0.485,0.14 0.789,0.14 0.897,0 -0.027,0.14 0.025,0.207 0.16,0.207 l 0.408,0 c 0.162,-0.11 0.342,-0.163 0.533,-0.163 0.242,0.024 0.406,0.015 0.488,-0.044 -0.406,0.247 -0.558,0.385 -0.445,0.41 l 0.002,11.311 0,0 z m -5.188,-11.19 c 0.026,-0.082 0,-0.121 -0.082,-0.121 -0.107,0 -0.138,-0.039 -0.08,-0.121 0.055,-0.082 0.381,-0.111 0.979,-0.082 0.547,0.026 0.832,-0.043 0.859,-0.207 -0.058,-0.217 0.174,-0.188 0.692,0.083 -0.082,0.029 -0.178,0.11 -0.284,0.246 -0.109,0.137 -0.222,0.22 -0.328,0.244 l 0,10.575 c -0.463,0.031 -1.047,-0.095 -1.756,-0.365 l 0,-10.252 z m -0.903,-0.406 c 0,0.188 -0.082,0.284 -0.243,0.284 l 0,5.023 c 0.026,2.068 0,3.714 -0.08,4.938 -0.408,-0.08 -1.021,-0.323 -1.84,-0.732 l 0,-9.108 c -0.162,-0.137 -0.229,-0.284 -0.199,-0.448 0.104,-0.055 0.31,-0.024 0.61,0.081 0.244,0.083 0.42,0.029 0.527,-0.164 0.086,0.222 0.301,0.289 0.654,0.207 0.301,-0.081 0.436,-0.095 0.406,-0.043 0.139,-0.105 0.438,-0.164 0.902,-0.164 0,0.164 -0.125,0.233 -0.369,0.207 -0.243,-0.03 -0.368,-0.054 -0.368,-0.081 l 0,0.038 0,-0.038 z m 23.526,0.734 c -0.054,-0.165 -0.039,0.327 0.041,1.471 -0.138,0 -0.205,0.12 -0.205,0.365 0.026,0.355 0.043,0.547 0.043,0.573 -0.138,-0.026 -0.203,0.038 -0.203,0.205 l 0,0.364 c -0.222,0.14 -0.342,0.396 -0.371,0.774 -0.242,0.141 -0.379,0.397 -0.404,0.777 -0.191,-0.023 -0.246,0.108 -0.166,0.41 -0.055,0 -0.096,-0.014 -0.123,-0.043 -0.025,-0.026 -0.053,-0.039 -0.082,-0.039 0,0.136 -0.082,0.271 -0.244,0.408 -0.135,0.135 -0.205,0.271 -0.205,0.406 0.029,0.028 0.029,-0.024 0,-0.164 -0.107,0.057 -0.148,0.179 -0.121,0.369 l -0.406,0 c -0.139,-0.761 -0.192,-2.043 -0.166,-3.838 0.138,0.026 0.205,-0.065 0.205,-0.288 -0.024,-0.298 -0.039,-0.462 -0.039,-0.486 0.136,0.024 0.201,-0.029 0.201,-0.164 l 0,-0.407 c 0.219,-0.107 0.342,-0.366 0.369,-0.776 0.109,0.058 0.178,0.03 0.205,-0.082 0.025,-0.105 0.094,-0.146 0.201,-0.121 l 0,-0.366 c 0.33,-0.163 0.588,-0.424 0.775,-0.776 l 0.371,0 c 0.024,0.3 0.096,0.436 0.203,0.407 l 0,0.326 0,0.409 c 0,0.299 0.037,0.393 0.121,0.286 M 42.754,37.59 c 0.029,0.03 0.029,0.096 0,0.205 -0.024,0 0.029,-0.19 0.162,-0.571 0.086,-0.026 0.11,-0.014 0.086,0.041 -0.028,0.054 -0.017,0.08 0.039,0.08 -0.056,0.028 -0.039,-0.134 0.043,-0.488 0.054,-0.026 0.201,-0.286 0.444,-0.775 0.029,0 0.043,0.012 0.043,0.04 l -0.043,0 0.332,0.124 0,0.327 c 0.16,0.189 0.433,0.42 0.812,0.693 0.33,0.243 0.572,0.49 0.736,0.735 0.082,-0.057 0.207,0 0.369,0.163 0.022,0.024 0.094,0.039 0.201,0.039 0.108,-0.024 0.178,-0.039 0.205,-0.039 l 0,0.12 c -0.027,0.058 -0.027,0.082 0,0.082 0,0.029 0.055,0.029 0.164,0 l 0.205,0 0,0.084 0,0.122 c 0.024,0.025 0.118,0.025 0.282,0 0.138,-0.028 0.166,0.041 0.086,0.203 0.188,-0.055 0.392,-0.025 0.611,0.082 0.188,0.108 0.379,0.135 0.569,0.082 l 0,0.204 0.57,0 c 0.248,-0.025 0.367,0.04 0.367,0.202 l 3.021,0 c 0.057,-0.027 0.067,-0.053 0.043,-0.08 -0.027,-0.055 -0.027,-0.096 0,-0.122 l 0.612,0 c 0.244,0.026 0.367,-0.041 0.367,-0.204 -0.026,0 0.106,0.015 0.408,0.039 0.137,0 0.188,-0.067 0.163,-0.203 l 0.531,0 c 0.435,-0.353 0.937,-0.611 1.508,-0.774 0.191,-0.216 0.453,-0.45 0.777,-0.694 0.463,-0.354 0.734,-0.575 0.816,-0.653 0.027,0 0.123,-0.192 0.287,-0.571 0.516,0.954 0.871,1.704 1.061,2.246 0.082,0 0.148,0.039 0.207,0.123 0.025,0.081 0.094,0.122 0.201,0.122 0,0.271 0.15,0.53 0.451,0.773 0.324,0.244 0.49,0.438 0.49,0.573 0.326,0.056 0.639,0.178 0.938,0.365 0.328,0.191 0.652,0.329 0.984,0.412 l 0,0.365 -22.656,0 0,-0.365 c 0.353,-0.083 0.678,-0.221 0.978,-0.412 0.33,-0.188 0.627,-0.311 0.897,-0.365 0.026,-0.107 0.205,-0.298 0.532,-0.573 0.3,-0.243 0.464,-0.503 0.486,-0.773 0.164,-0.055 0.25,-0.081 0.25,-0.081 0,0 0.124,-0.304 0.365,-0.903 M 74.61,33.588 c 0.218,-0.135 0.336,-0.394 0.367,-0.776 0.107,0.028 0.176,-0.014 0.203,-0.122 0.025,-0.081 0.096,-0.107 0.203,-0.081 l 0,-0.367 c 0.109,-0.083 0.451,-0.411 1.021,-0.98 0.082,-0.028 0.123,0.015 0.123,0.123 0.025,0.082 0.096,0.108 0.201,0.082 l 0,0.776 c 0.028,-0.027 0.043,-0.097 0.043,-0.205 -0.082,-0.163 -0.043,0.6 0.121,2.288 -0.136,0 -0.203,0.095 -0.203,0.285 l 0.039,0.49 c -0.135,-0.028 -0.201,0.041 -0.201,0.204 l 0,0.365 c -0.219,0.14 -0.342,0.396 -0.367,0.778 -0.244,0.137 -0.383,0.394 -0.408,0.775 -0.221,0.108 -0.424,0.313 -0.611,0.612 -0.276,0.409 -0.451,0.654 -0.531,0.734 -0.274,0.055 -0.385,0.055 -0.329,0 -0.138,-0.054 -0.107,-0.08 0.084,-0.08 0.081,0.242 0.038,-1.009 -0.125,-3.761 0.139,0.029 0.206,-0.038 0.206,-0.202 -0.03,-0.27 -0.043,-0.394 -0.043,-0.366 0.14,0.026 0.207,-0.042 0.207,-0.205 l 0,-0.408 0,0.041 0,0 z m -50.352,0.738 c 0.218,-1.527 0.283,-2.273 0.201,-2.246 l 0,-0.613 c -0.162,-0.055 -0.082,-0.123 0.248,-0.205 0.106,0.082 0.28,0.244 0.526,0.488 0.222,0.248 0.41,0.41 0.574,0.493 -0.055,0.298 0.066,0.489 0.369,0.569 0.025,0.383 0.16,0.642 0.406,0.776 -0.027,-0.025 -0.043,0.096 -0.043,0.369 0,0.162 0.07,0.231 0.207,0.205 l 0,0.367 c 0,0.163 0.066,0.23 0.205,0.201 -0.057,2.588 -0.082,3.842 -0.082,3.761 0.025,0 -0.068,0.026 -0.287,0.081 -0.082,-0.081 -0.26,-0.326 -0.531,-0.735 -0.219,-0.299 -0.434,-0.504 -0.65,-0.612 -0.03,-0.3 -0.088,-0.423 -0.168,-0.368 -0.053,-0.3 -0.121,-0.435 -0.203,-0.407 -0.026,-0.383 -0.147,-0.64 -0.364,-0.778 l 0,-0.365 c 0,-0.163 -0.069,-0.231 -0.207,-0.204 l 0,-0.49 c 0.028,-0.19 0.043,-0.285 0.043,-0.285 l -0.244,-0.002 0,0 z m 43.613,1.918 c -0.547,0.408 -0.994,0.857 -1.347,1.346 -0.272,0.03 -0.396,0.096 -0.369,0.205 -0.383,0.027 -0.641,0.148 -0.774,0.368 l -0.411,0 c -0.136,0 -0.189,0.066 -0.162,0.202 -0.025,0.029 -0.23,0.029 -0.613,0 -0.242,-0.024 -0.367,0.043 -0.367,0.205 l -1.264,0 c -0.027,-0.027 -0.027,-0.096 0,-0.205 l -1.021,0 c 0.022,-0.136 -0.028,-0.202 -0.162,-0.202 l -0.414,0 c 0.029,-0.137 -0.038,-0.204 -0.2,-0.204 C 60.492,37.987 60.371,38 60.397,38 60.422,37.892 60.289,37.822 59.99,37.795 59.932,37.577 59.621,37.317 59.049,37.02 59.076,36.721 58.943,36.53 58.642,36.45 58.617,36.067 58.494,35.81 58.275,35.672 l 0,-0.365 c 0,-0.163 -0.066,-0.231 -0.201,-0.204 l 0,-2.126 c 0.244,-0.108 0.379,-0.354 0.404,-0.732 0.272,-0.109 0.465,-0.315 0.571,-0.613 0.384,-0.027 0.642,-0.151 0.775,-0.368 0.354,-0.028 0.547,-0.042 0.573,-0.042 0,-0.052 -0.043,-0.068 -0.125,-0.04 -0.08,0.027 -0.106,-0.012 -0.08,-0.124 l 1.92,0 c -0.026,0.112 0.107,0.178 0.404,0.206 0.467,1.251 0.711,1.771 0.738,1.55 -0.436,-0.026 -0.639,-0.094 -0.611,-0.202 l -1.633,0 c -0.081,0.056 -0.178,0.176 -0.284,0.365 -0.138,0.193 -0.246,0.328 -0.326,0.41 l 0,1.06 c 0.951,0.818 1.332,1.226 1.145,1.226 l 0,0.206 1.264,0 c 0.027,0 0.058,-0.066 0.08,-0.206 0.299,0.031 0.533,-0.12 0.693,-0.447 0.221,-0.409 0.371,-0.639 0.451,-0.695 l 0,-0.488 c -0.027,-0.219 0.043,-0.312 0.205,-0.288 -0.027,-0.651 -0.096,-0.966 -0.205,-0.939 -0.027,-0.515 -0.068,-0.76 -0.119,-0.732 0.051,0.026 0.023,-0.098 -0.086,-0.369 -0.082,-0.054 -0.246,-0.218 -0.488,-0.49 -0.189,-0.218 -0.408,-0.328 -0.65,-0.328 l 0,-0.207 -0.371,0 c -0.159,0 -0.229,-0.068 -0.203,-0.204 l -1.84,0 c -0.024,0 -0.053,0.07 -0.08,0.204 -0.489,-0.025 -0.803,0.095 -0.938,0.366 -0.188,-0.054 -0.354,0 -0.487,0.164 -0.273,0.354 -0.369,0.49 -0.289,0.41 -0.054,0.054 -0.136,0.095 -0.24,0.12 -0.082,0.03 -0.141,0.057 -0.164,0.082 -0.332,0.519 -0.449,0.777 -0.369,0.777 l 0,0.408 c 0,0.134 -0.068,0.19 -0.205,0.163 l 0,1.714 c -0.301,0.081 -0.422,0.288 -0.369,0.611 -0.678,0.52 -1.264,1.091 -1.752,1.718 -0.385,0.027 -0.629,0.148 -0.738,0.366 -0.406,0.03 -0.666,0.165 -0.774,0.41 l -0.406,-0.041 c -0.168,0 -0.222,0.067 -0.168,0.204 l -0.405,0 c -0.162,0 -0.22,0.066 -0.162,0.202 -1.088,0.246 -1.607,0.313 -1.554,0.205 l -1.146,0 0,-0.205 c 0.166,-0.024 -0.735,-0.149 -2.692,-0.365 l 0,-0.205 c -0.22,0 -0.405,-0.054 -0.574,-0.161 -0.188,-0.138 -0.379,-0.207 -0.569,-0.207 0.026,-0.108 -0.107,-0.176 -0.406,-0.203 -0.465,-0.627 -1.037,-1.199 -1.719,-1.718 0.026,-0.324 -0.105,-0.531 -0.406,-0.611 l 0,-1.632 c 0,-0.028 -0.057,-0.055 -0.164,-0.082 l 0,-0.49 C 43.555,32.665 43.418,32.404 43.094,31.916 43.063,31.862 42.983,31.794 42.846,31.711 42.682,31.603 42.575,31.523 42.522,31.467 42.495,31.44 42.465,31.37 42.438,31.262 42.385,31.152 42.344,31.086 42.315,31.056 41.827,30.731 41.584,30.609 41.584,30.69 l -0.406,0 c -0.168,0 -0.223,-0.068 -0.168,-0.204 l -1.877,0 c -0.026,0 -0.056,0.07 -0.082,0.204 0.164,0 -0.405,0.312 -1.713,0.94 l 0,0.45 C 37.28,32.053 37.213,32.038 37.133,32.038 l 0.041,0.489 c 0,0.219 -0.067,0.313 -0.205,0.285 0,0.028 -0.014,0.221 -0.043,0.573 0,0.245 0.069,0.366 0.207,0.366 l 0,0.693 c 0.979,0.818 1.373,1.226 1.181,1.226 l 0,0.206 1.27,0 c 0.027,0 0.057,-0.066 0.082,-0.206 0.301,0.031 0.531,-0.12 0.693,-0.447 0.188,-0.409 0.342,-0.639 0.448,-0.695 0.082,-0.681 -0.106,-1.319 -0.571,-1.918 -1.228,0.272 -1.812,0.341 -1.752,0.202 l -0.574,0 0,-0.774 c 0.354,-0.192 0.611,-0.451 0.775,-0.775 0.297,-0.028 0.422,-0.094 0.366,-0.206 l 1.959,0 c 0.026,0.164 -0.039,0.193 -0.203,0.081 0,0.031 0.191,0.07 0.57,0.125 0.108,0.217 0.371,0.34 0.774,0.368 0.109,0.298 0.304,0.503 0.574,0.613 0.025,0.379 0.15,0.624 0.369,0.732 l 0,2.126 c -0.139,-0.028 -0.207,0.041 -0.207,0.204 0,0.271 0.014,0.396 0.039,0.365 -0.244,0.14 -0.379,0.396 -0.404,0.778 -0.303,0.081 -0.424,0.271 -0.371,0.57 -0.567,0.299 -0.893,0.559 -0.975,0.775 -0.275,0.027 -0.398,0.097 -0.371,0.205 l -0.406,-0.041 c -0.166,0 -0.221,0.067 -0.166,0.204 l -0.408,0 c -0.161,0 -0.217,0.066 -0.161,0.202 -0.709,0.029 -1.062,0.096 -1.062,0.206 l -1.265,0 c 0,-0.163 -0.125,-0.23 -0.369,-0.206 -0.354,0.029 -0.545,0.029 -0.573,0 0.028,-0.136 -0.039,-0.202 -0.201,-0.202 l -0.418,0 c 0,-0.026 -0.244,-0.15 -0.732,-0.368 0.055,0.027 0.025,-0.027 -0.082,-0.161 -0.08,-0.084 -0.188,-0.097 -0.324,-0.044 -0.33,-0.488 -0.775,-0.938 -1.35,-1.346 0.055,-0.3 -0.068,-0.493 -0.369,-0.574 0,-0.461 -0.135,-0.775 -0.406,-0.94 0,-0.025 0.012,-0.242 0.043,-0.649 0,-0.246 -0.07,-0.354 -0.207,-0.329 -0.055,-0.923 0,-1.824 0.164,-2.695 0.027,0 0.162,-0.245 0.406,-0.732 -0.025,0.053 0.029,0.025 0.164,-0.082 0.08,-0.109 0.096,-0.219 0.043,-0.327 0.189,-0.026 0.312,-0.151 0.365,-0.367 l 12.701,0 c -0.027,0.081 0,0.149 0.082,0.201 0.108,0.032 0.137,0.112 0.082,0.248 0.106,-0.054 0.164,-0.041 0.164,0.041 -0.027,0.161 0.055,0.26 0.241,0.286 0.027,0.326 0.22,0.611 0.574,0.856 0.435,0.299 0.692,0.518 0.774,0.652 0.383,0.03 0.625,0.166 0.736,0.411 0,-0.027 0.135,-0.044 0.406,-0.044 0.164,0 0.232,0.068 0.203,0.207 l 2.207,0 c 0.027,0 0.055,-0.056 0.082,-0.163 l 0.531,0 c 1.467,-0.98 2.26,-1.73 2.367,-2.247 0.163,-0.054 0.286,-0.204 0.368,-0.449 l 12.699,0 c 0.024,0.216 0.149,0.341 0.371,0.367 0.022,0.3 0.094,0.435 0.198,0.408 0.029,0.38 0.15,0.628 0.369,0.732 l 0,0.738 c 0.137,-0.164 0.205,0.038 0.205,0.611 l 0,1.346 c -0.162,0 -0.229,0.125 -0.205,0.368 l 0,0.61 c -0.27,0.165 -0.395,0.479 -0.369,0.94 -0.299,0.081 -0.444,0.124 -0.444,0.124 0,0 0.012,0.154 0.038,0.453 M 49.817,25.871 c -0.135,0.026 -0.28,-0.013 -0.448,-0.124 -0.164,-0.082 -0.339,-0.095 -0.527,-0.039 0.025,0.025 0.164,0.178 0.406,0.449 l 0,0.896 0.371,0 c 0,-0.108 0.053,-0.203 0.161,-0.284 0.136,-0.082 0.218,-0.165 0.242,-0.247 -0.132,-0.023 -0.205,-0.244 -0.205,-0.651 m 0.371,0.57 0.568,0 c 0.438,-0.379 0.572,-0.569 0.41,-0.569 l 0,-0.367 c -0.107,0 -0.203,-0.067 -0.285,-0.206 -0.082,-0.135 -0.178,-0.203 -0.287,-0.203 l 0,0.776 c -0.107,-0.028 -0.176,0.015 -0.201,0.123 -0.028,0.082 -0.098,0.107 -0.205,0.082 l 0,0.364 z m 0.98,-0.163 c -0.056,0.139 -0.041,0.245 0.039,0.327 0.108,0.083 0.164,0.165 0.164,0.247 l 0.735,0 c 0.056,-0.216 0.189,-0.353 0.406,-0.41 -0.135,-0.379 -0.176,-0.569 -0.117,-0.569 -0.028,0.054 -0.082,0.123 -0.164,0.205 -0.082,0.082 -0.139,0.148 -0.168,0.203 l -0.896,0 0,-0.003 z m 1.92,1.389 c 0.024,0.057 -0.162,0.042 -0.573,-0.039 0.028,-0.108 -0.013,-0.178 -0.117,-0.204 -0.082,-0.029 -0.111,-0.094 -0.082,-0.206 l -0.494,-0.163 c -0.08,-0.024 -0.135,0 -0.162,0.082 -0.055,0.082 -0.055,0.112 0,0.082 0,0.03 0.027,0.221 0.082,0.574 0.107,0 0.285,0.053 0.531,0.163 0.188,0.082 0.393,0.096 0.61,0.041 -0.024,-0.108 0,-0.165 0.082,-0.165 0.109,-0.027 0.147,-0.083 0.123,-0.165 m -0.205,0.9 c -0.463,0.026 -0.774,-0.094 -0.938,-0.371 l -0.407,0 c -0.166,0 -0.222,-0.064 -0.166,-0.201 -0.244,0 -0.57,0.094 -0.978,0.283 -0.383,0.14 -0.764,0.163 -1.146,0.082 0.026,-0.134 -0.065,-0.189 -0.285,-0.164 -0.243,0.029 -0.34,-0.037 -0.287,-0.201 -0.271,0 -0.407,0.041 -0.407,0.123 0.137,0.025 0.207,0.053 0.207,0.078 l -0.246,0 c -0.112,0 -0.149,0.044 -0.125,0.125 l 1.062,0.449 c 0.271,0 0.369,0.041 0.283,0.121 0.818,0.244 1.281,0.14 1.393,-0.325 l 0.896,0 c -0.055,0.135 0.014,0.204 0.205,0.204 0.162,0 0.217,0.067 0.162,0.202 l 0.774,0 0,-0.405 0.003,0 z m -1.346,1.143 c 0.813,-0.163 1.209,-0.207 1.185,-0.125 0,0.057 -0.207,0.042 -0.613,-0.039 0.055,-0.137 0,-0.205 -0.162,-0.205 -0.191,0 -0.26,-0.067 -0.205,-0.207 -0.189,0.058 -0.383,0.031 -0.572,-0.082 -0.189,-0.108 -0.381,-0.135 -0.572,-0.082 0,0.082 -0.041,0.151 -0.121,0.207 -0.08,0.053 -0.123,0.108 -0.123,0.163 l -1.063,0 c 0.082,-0.137 -0.054,-0.207 -0.404,-0.207 -0.354,-0.024 -0.559,0.015 -0.614,0.125 -0.025,-0.028 0.164,0 0.574,0.082 -0.058,0.135 -0.017,0.205 0.12,0.205 0.164,-0.027 0.259,-0.027 0.285,0 l 0,0.081 0,0.082 c 0.301,0.135 0.683,0.204 1.146,0.204 0,-0.084 0.039,-0.151 0.117,-0.204 0.084,-0.056 0.127,-0.108 0.127,-0.163 l 0.898,0 -0.003,0.165 0,0 z m -3.268,-2.656 c 0.057,0.082 0.045,0.139 -0.037,0.163 -0.113,0.03 -0.15,0.069 -0.125,0.125 -0.025,-0.029 0.162,0 0.569,0.082 0.218,0.354 0.478,0.545 0.775,0.572 l 0,-0.778 c -0.104,0 -0.283,-0.039 -0.527,-0.121 C 48.705,27.015 48.487,27 48.269,27.054 m 0.407,-2.122 c 0.386,-0.026 0.642,-0.164 0.775,-0.41 0.846,-0.134 1.239,-0.176 1.188,-0.12 0,-0.025 0.368,0.015 1.102,0.12 0.107,0.247 0.367,0.384 0.773,0.41 0.25,0.408 0.561,0.721 0.942,0.939 0.022,0.299 0.094,0.436 0.203,0.406 l 0,0.369 c 0,0.163 0.065,0.23 0.202,0.204 l 0,1.919 c -0.243,0.108 -0.383,0.365 -0.405,0.776 0.082,-0.056 -0.112,0.201 -0.574,0.774 -0.299,-0.025 -0.485,0.097 -0.567,0.367 -0.277,0.027 -0.396,0.095 -0.369,0.202 L 51.538,30.85 c -0.166,0 -0.221,0.067 -0.166,0.202 l -1.553,0 c 0.027,-0.135 -0.023,-0.202 -0.16,-0.202 -0.301,0.027 -0.438,0.038 -0.41,0.038 0.027,-0.107 -0.107,-0.175 -0.406,-0.202 0.082,0.138 -0.232,-0.122 -0.943,-0.774 0,-0.355 -0.116,-0.586 -0.362,-0.696 l 0,-0.326 c -0.029,-0.108 -0.099,-0.146 -0.205,-0.121 l 0,-1.919 c 0.138,0.026 0.205,-0.041 0.205,-0.204 l 0,-0.369 c 0.082,0.029 0.135,-0.107 0.164,-0.406 0.405,-0.219 0.612,-0.326 0.612,-0.326 l 0.362,-0.613 z m 19.479,3.428 c 0.191,0.14 0.425,0.411 0.695,0.819 0.271,0.379 0.531,0.626 0.775,0.735 -0.055,0.3 0.066,0.489 0.369,0.571 -0.057,0.19 0,0.354 0.162,0.489 0.219,0.162 0.338,0.259 0.369,0.287 l 0,0.082 c 0.024,0 0.039,0.067 0.039,0.205 0,0.108 0.067,0.135 0.203,0.081 -0.056,0.326 0.067,0.53 0.371,0.613 0.022,0.271 0.094,0.395 0.2,0.367 0.027,0.381 0.147,0.639 0.367,0.775 0.026,0.38 0.164,0.639 0.405,0.776 0.029,0.271 0.101,0.394 0.207,0.366 0,0.437 0.125,0.763 0.367,0.979 l 0,0.37 c 0,0.162 0.068,0.229 0.203,0.205 -0.024,-0.027 -0.039,0.096 -0.039,0.368 0,0.163 0.066,0.229 0.205,0.205 l 0,0.405 c 0,0.14 0.066,0.192 0.201,0.166 -0.053,0.245 -0.023,0.503 0.082,0.776 0.109,0.271 0.15,0.53 0.123,0.774 -0.027,-0.055 0.027,-0.055 0.164,0 0.246,0.764 0.312,1.145 0.207,1.145 -0.029,0.49 0.012,1.211 0.119,2.165 0.107,0.897 0.137,1.647 0.08,2.246 l -0.199,0 c 0.053,0.436 0.039,0.937 -0.043,1.511 -0.082,0.68 -0.139,1.143 -0.164,1.388 -0.107,-0.024 -0.164,-0.015 -0.164,0.039 0.082,0.059 0.068,0.276 -0.043,0.656 -0.135,0.461 -0.186,0.803 -0.162,1.021 -0.135,-0.029 -0.201,0.026 -0.201,0.16 l 0,0.41 c -0.139,-0.026 -0.205,0.041 -0.205,0.205 0,0.271 0.015,0.395 0.039,0.367 -0.135,-0.028 -0.203,0.038 -0.203,0.203 l 0,0.367 c -0.106,-0.025 -0.178,0.111 -0.205,0.408 l -0.244,-0.08 c 0,0.026 0.027,0.244 0.082,0.652 -0.137,-0.055 -0.207,-0.015 -0.207,0.122 l 0,0.245 c 0,0.027 -0.022,0.027 -0.079,0 l -0.119,0 c 0.024,-0.027 -0.043,0.231 -0.207,0.776 -0.106,0.082 -0.22,0.242 -0.326,0.487 -0.137,0.272 -0.229,0.449 -0.284,0.53 -0.082,0 -0.125,-0.146 -0.125,-0.448 0.108,0.058 0.168,0.014 0.168,-0.121 l 0,-0.238 c 0,-0.026 0.036,-0.026 0.118,0 l 0.082,0 c -0.026,0.026 0.041,-0.233 0.205,-0.775 0.106,-0.027 0.205,-0.151 0.287,-0.369 0.056,-0.243 0.146,-0.379 0.28,-0.409 l 0,-0.568 c 0.14,0.053 0.207,-0.014 0.207,-0.206 -0.026,-0.164 0.027,-0.218 0.162,-0.164 0,-0.324 0.111,-0.733 0.326,-1.226 0.191,-0.487 0.273,-0.923 0.248,-1.307 l 0.201,0 0,-0.57 c -0.023,-0.245 0.045,-0.367 0.205,-0.367 l 0,-1.149 0.164,0 0,-1.307 c 0.025,-0.57 0.025,-0.949 0,-1.146 0.055,-0.162 0.109,-0.134 0.164,0.083 0.082,-0.054 0.096,-0.217 0.043,-0.488 -0.029,-0.3 -0.07,-0.353 -0.125,-0.164 -0.057,-0.271 -0.082,-0.679 -0.082,-1.226 0.025,-0.706 0.025,-1.129 0,-1.266 0,-0.026 -0.055,-0.053 -0.164,-0.084 0,-0.136 -0.381,-1.794 -1.143,-4.979 0,0.026 -0.068,0.026 -0.207,0 -0.023,-0.082 0.016,-0.123 0.125,-0.123 -0.082,0 -0.125,-0.094 -0.125,-0.288 0,-0.165 -0.064,-0.217 -0.199,-0.165 -0.027,-0.404 -0.15,-0.666 -0.369,-0.772 -0.027,-0.299 -0.096,-0.423 -0.205,-0.369 -0.027,-0.407 -0.148,-0.666 -0.369,-0.776 0.027,-0.299 -0.104,-0.487 -0.406,-0.569 -0.082,-0.575 -0.342,-0.967 -0.774,-1.188 0.137,-0.271 0.012,-0.461 -0.371,-0.57 0,-0.271 -0.256,-0.586 -0.772,-0.938 0.082,-0.272 0.108,-0.411 0.082,-0.411 -0.082,0.031 -0.189,-0.012 -0.328,-0.12 -0.107,-0.163 -0.217,-0.245 -0.322,-0.245 0.078,-0.271 0.119,-0.411 0.119,-0.411 l -0.041,0 0,0.002 z m 1.841,27.323 c -0.111,0 -0.205,0.057 -0.289,0.163 -0.08,0.135 -0.179,0.205 -0.287,0.205 l 0,-0.368 c 0.108,0.026 0.181,-0.015 0.207,-0.122 0.026,-0.082 0.08,-0.109 0.164,-0.082 l 0,-0.37 c 0.106,0.029 0.179,-0.012 0.205,-0.118 0.022,-0.083 0.094,-0.108 0.198,-0.083 l 0,-0.409 c 0.084,0.056 0.138,0.026 0.164,-0.082 0.029,-0.108 0.101,-0.137 0.207,-0.083 l 0,-0.405 c 0.107,0.053 0.162,0.039 0.162,-0.043 0.027,-0.082 0.058,-0.12 0.08,-0.12 0.111,-0.027 0.164,0.011 0.164,0.12 l 0,0.246 c -0.104,-0.025 -0.176,0.095 -0.203,0.367 -0.106,-0.025 -0.178,0.016 -0.203,0.123 -0.026,0.083 -0.096,0.107 -0.207,0.083 l 0,0.404 c -0.08,-0.053 -0.135,-0.025 -0.164,0.082 -0.022,0.112 -0.092,0.14 -0.198,0.082 l 0,0.41 z M 56.56,64.708 c -0.027,0 -0.189,-0.016 -0.488,-0.041 -0.219,0 -0.314,0.082 -0.287,0.245 -0.027,0 -0.232,-0.016 -0.613,-0.043 -0.244,0 -0.367,0.068 -0.367,0.206 -0.488,-0.028 -1.047,0.039 -1.676,0.203 -0.73,0.219 -1.238,0.343 -1.508,0.366 0,0.058 -0.043,0.111 -0.125,0.163 -0.08,0.059 -0.123,0.109 -0.123,0.166 0,0.055 0.084,0.08 0.248,0.08 0.135,0 0.176,0.056 0.121,0.165 l 0.367,0 c -0.027,0.107 0.014,0.178 0.125,0.202 0.082,0.029 0.104,0.096 0.082,0.206 l 0.406,0 c 0.354,0.518 0.786,0.966 1.307,1.347 -0.027,0.298 0.106,0.49 0.406,0.572 0.028,0.381 0.149,0.639 0.369,0.775 -0.027,0.189 0,0.367 0.081,0.53 0.082,0.162 0.123,0.298 0.123,0.407 -0.161,-0.027 -0.231,0.042 -0.204,0.205 l -0.369,0 C 54.492,69.59 54.234,68.949 53.662,68.543 53.58,68.134 53.334,67.808 52.928,67.561 52.49,67.263 52.217,67.019 52.11,66.829 c -0.162,0 -0.354,-0.069 -0.569,-0.203 -0.192,-0.138 -0.386,-0.206 -0.572,-0.206 l 0,-0.2 -0.696,0 c -0.025,0.025 -0.056,0.095 -0.08,0.202 -0.246,0.083 -1.129,0.654 -2.654,1.716 l 0,0.409 c -0.111,-0.029 -0.18,0 -0.205,0.081 -0.027,0.106 -0.096,0.148 -0.205,0.122 -0.025,0.38 -0.15,0.627 -0.369,0.733 l 0,0.981 -0.406,0 c 0.055,-0.163 0,-0.232 -0.164,-0.205 -0.027,-0.109 0.014,-0.259 0.125,-0.448 0.082,-0.137 0.094,-0.3 0.039,-0.489 0.241,-0.138 0.383,-0.396 0.405,-0.775 0.082,0.027 0.138,0 0.168,-0.082 0.022,-0.11 0.095,-0.149 0.201,-0.125 l 0,-0.365 c 0.461,-0.298 0.845,-0.682 1.144,-1.144 0.303,-0.026 0.559,-0.231 0.774,-0.611 0.084,0.107 0.179,0.107 0.287,0 0.137,-0.165 0.301,-0.219 0.487,-0.165 0.027,-0.106 0,-0.177 -0.08,-0.204 -0.106,-0.026 -0.149,-0.094 -0.118,-0.205 0.022,0.028 -0.099,0.043 -0.371,0.043 -0.16,0 -0.229,-0.066 -0.205,-0.207 l -0.774,0 c 0.057,-0.161 -0.068,-0.229 -0.369,-0.201 -0.299,0.026 -0.42,-0.04 -0.363,-0.204 l -1.186,0 c 0,-0.138 -0.121,-0.206 -0.369,-0.206 -0.353,0.027 -0.543,0.043 -0.57,0.043 0.027,-0.163 -0.068,-0.245 -0.285,-0.245 -0.301,0.025 -0.465,0.041 -0.49,0.041 0.025,-0.164 -0.068,-0.231 -0.287,-0.207 l -0.486,0 c 0.023,-0.134 -0.028,-0.202 -0.163,-0.202 l -0.412,0 c 0.026,-0.137 -0.024,-0.203 -0.162,-0.203 -0.299,0.025 -0.435,0.041 -0.408,0.041 0.025,-0.137 -0.043,-0.204 -0.202,-0.204 l -0.371,0 C 42.177,63.797 42.11,63.728 41.95,63.728 l -0.369,0 c -0.027,-0.105 -0.166,-0.202 -0.406,-0.283 -0.223,-0.057 -0.344,-0.151 -0.371,-0.286 -0.271,0.026 -0.557,-0.041 -0.854,-0.206 -0.359,-0.217 -0.631,-0.337 -0.82,-0.365 0.025,-0.084 0,-0.135 -0.082,-0.165 -0.107,-0.024 -0.162,-0.095 -0.162,-0.202 -0.164,0.026 -0.301,-0.014 -0.406,-0.124 -0.113,-0.109 -0.234,-0.136 -0.371,-0.081 0.027,-0.11 0,-0.175 -0.078,-0.205 -0.11,-0.024 -0.151,-0.082 -0.125,-0.163 l -0.371,0 c 0.029,-0.107 -0.012,-0.176 -0.118,-0.203 -0.08,-0.025 -0.107,-0.097 -0.08,-0.203 -0.164,0.244 -0.356,0.122 -0.576,-0.369 l -0.366,0 c 0,-0.107 -0.064,-0.202 -0.201,-0.285 -0.14,-0.082 -0.205,-0.177 -0.205,-0.283 l -0.369,0 c -0.461,-0.6 -0.84,-0.929 -1.146,-0.982 -0.514,-0.651 -1.1,-1.224 -1.752,-1.714 l 0,-0.412 c -0.11,0 -0.26,-0.104 -0.448,-0.322 -0.191,-0.245 -0.355,-0.395 -0.492,-0.452 0,-0.271 -0.189,-0.518 -0.57,-0.732 0.025,-0.329 -0.109,-0.516 -0.406,-0.574 0.053,-0.323 -0.07,-0.53 -0.371,-0.61 0.027,-0.165 -0.107,-0.367 -0.404,-0.613 0.105,0.028 0.133,-0.013 0.08,-0.12 -0.057,-0.138 -0.139,-0.205 -0.25,-0.205 -0.024,-0.3 -0.094,-0.434 -0.201,-0.407 -0.024,-0.381 -0.159,-0.628 -0.409,-0.736 -0.025,-0.299 -0.082,-0.436 -0.164,-0.407 -0.022,-0.271 -0.095,-0.396 -0.199,-0.367 0.104,-0.408 0.136,-0.599 0.08,-0.571 0,0.108 -0.097,0.108 -0.287,0 -0.024,-0.298 -0.082,-0.436 -0.162,-0.409 l 0,-0.367 c 0,-0.165 -0.067,-0.231 -0.206,-0.203 l 0,-0.367 c 0,-0.164 -0.064,-0.231 -0.199,-0.205 0,0.029 0.012,-0.106 0.037,-0.41 0,-0.134 -0.066,-0.189 -0.205,-0.16 -0.025,-0.029 -0.025,-0.192 0,-0.49 0,-0.216 -0.066,-0.314 -0.203,-0.285 -0.025,-0.029 -0.025,-0.219 0,-0.571 0.026,-0.271 -0.043,-0.395 -0.203,-0.369 0,-0.271 -0.039,-0.735 -0.121,-1.388 -0.082,-0.545 -0.111,-1.021 -0.082,-1.43 0,-0.028 -0.057,-0.054 -0.166,-0.081 -0.025,-0.245 -0.025,-0.737 0,-1.471 l 0,-1.103 c 0.027,-0.108 0.082,-0.124 0.166,-0.042 l 0,-1.797 0.203,0 0,-1.144 c 0.055,-0.026 0.096,-0.026 0.123,0 0.025,0.026 0.055,0.037 0.08,0.037 -0.055,-0.241 -0.025,-0.515 0.082,-0.812 0.106,-0.272 0.147,-0.531 0.121,-0.776 0.139,0.027 0.205,-0.026 0.205,-0.166 -0.025,-0.298 -0.037,-0.435 -0.037,-0.405 0.135,0.025 0.199,-0.042 0.199,-0.205 l 0,-0.368 c 0.139,0.025 0.206,-0.042 0.206,-0.205 l 0,-0.37 c 0.138,0.029 0.189,-0.038 0.162,-0.201 0,-0.189 0.067,-0.26 0.207,-0.204 -0.028,-0.056 -0.028,-0.137 0,-0.246 l 0,-0.326 c 0.104,0.026 0.177,-0.095 0.199,-0.367 0.219,-0.138 0.344,-0.396 0.371,-0.776 0.106,0.027 0.178,-0.107 0.202,-0.41 0.22,-0.108 0.341,-0.354 0.371,-0.732 0.105,0.024 0.177,-0.016 0.199,-0.125 0.027,-0.08 0.098,-0.108 0.205,-0.08 l 0,-0.422 c 0.109,0.054 0.164,-0.043 0.164,-0.286 -0.189,-0.274 0.012,-0.423 0.613,-0.452 l 0,-0.406 c 0.082,0.054 0.137,0.026 0.162,-0.082 0.027,-0.106 0.098,-0.136 0.205,-0.081 l 0,-0.408 c 0.137,-0.026 0.256,-0.123 0.369,-0.286 0.135,-0.163 0.27,-0.259 0.406,-0.286 -0.025,-0.219 0.057,-0.408 0.245,-0.572 0.22,-0.189 0.341,-0.329 0.367,-0.411 0.106,0 0.164,0.043 0.164,0.125 l 0,0.286 c -0.108,0 -0.207,0.067 -0.289,0.202 -0.104,0.11 -0.217,0.163 -0.324,0.163 l 0,0.411 c -0.106,0.026 -0.229,0.12 -0.366,0.283 -0.14,0.166 -0.261,0.26 -0.369,0.289 l 0,0.366 c -0.381,0.109 -0.517,0.299 -0.408,0.57 -0.434,0.221 -0.693,0.612 -0.775,1.188 -0.082,-0.056 -0.137,-0.027 -0.164,0.082 -0.025,0.107 -0.094,0.135 -0.205,0.081 -0.053,0.327 -0.217,0.721 -0.488,1.183 -0.241,0.436 -0.405,0.818 -0.491,1.142 l -0.164,0 c 0,0.083 -0.011,0.192 -0.037,0.328 0,0.084 0.015,0.165 0.037,0.247 -0.054,0 -0.095,-0.015 -0.119,-0.042 -0.026,-0.028 -0.058,-0.041 -0.08,-0.041 0.022,-0.135 0.022,-0.027 0,0.327 0,0.134 -0.069,0.178 -0.207,0.12 0.027,0.273 -0.024,0.56 -0.162,0.858 -0.163,0.327 -0.231,0.625 -0.206,0.897 l -0.199,0 c 0.022,0.245 0,0.532 -0.082,0.856 -0.111,0.354 -0.168,0.644 -0.168,0.859 -0.025,0 -0.025,-0.07 0,-0.204 0.057,-0.056 0.016,0.395 -0.121,1.346 l -0.213,0 0,2.655 c -0.027,-0.027 -0.039,-0.092 -0.039,-0.206 -0.082,0.248 -0.082,0.71 0,1.39 0.082,0.736 0.094,1.296 0.039,1.677 0,0.026 0.068,0.053 0.203,0.08 0.219,0.763 0.289,1.146 0.203,1.146 0,0.025 -0.015,0.218 -0.039,0.572 0,0.271 0.065,0.395 0.207,0.365 -0.058,0.246 -0.029,0.478 0.082,0.692 0.104,0.222 0.146,0.424 0.117,0.613 0,0.028 0.069,0.041 0.206,0.041 l -0.043,0.41 c 0,0.161 0.068,0.218 0.205,0.161 -0.024,0.493 0.108,0.819 0.406,0.981 0.028,0.054 0.028,0.135 0,0.242 -0.054,0.11 -0.054,0.206 0,0.288 l 0.082,0.039 0.082,0 c 0.19,0.493 0.327,0.751 0.409,0.778 0.027,0.38 0.148,0.639 0.371,0.774 0.023,0.271 0.095,0.396 0.199,0.366 -0.022,0.301 0.098,0.491 0.369,0.573 -0.027,0.163 0.012,0.312 0.123,0.448 0.084,0.108 0.148,0.148 0.201,0.122 0.139,0.384 0.289,0.585 0.451,0.61 -0.025,0.305 0.109,0.492 0.408,0.574 0.026,0.244 0.342,0.624 0.94,1.144 l 0,0.326 c 1.228,1.198 1.933,1.921 2.121,2.164 l 0.369,0 c 0.08,0.244 0.299,0.479 0.653,0.695 0.382,0.242 0.613,0.463 0.695,0.653 l 0.406,0 c 0.08,0.382 0.271,0.504 0.568,0.364 -0.051,0.112 -0.023,0.179 0.082,0.206 0.111,0.026 0.152,0.098 0.125,0.204 l 0.365,0 c -0.025,0.108 0,0.176 0.082,0.203 0.108,0.027 0.147,0.081 0.118,0.163 0.438,0.138 1.121,0.448 2.046,0.94 0.844,0.461 1.565,0.75 2.166,0.857 -0.164,0.082 -0.027,0.163 0.403,0.244 0.549,0.054 0.793,0.15 0.737,0.287 l 0.406,-0.041 c 0.164,0 0.232,0.065 0.207,0.203 l 0.736,0 c -0.029,0.164 0.107,0.231 0.406,0.202 0.271,-0.024 0.393,0.043 0.369,0.207 l 1.145,0 0,0.203 1.344,0 c 0,0.136 0.125,0.202 0.367,0.202 0.385,-0.023 0.586,-0.039 0.613,-0.039 0.057,0.137 0.246,0.231 0.57,0.285 0.33,0.058 0.518,0.149 0.576,0.285 l 0.323,0 c 0.082,-0.107 0.289,-0.189 0.611,-0.243 0.327,-0.082 0.53,-0.19 0.614,-0.327 0.027,0 0.218,0.016 0.568,0.039 0.25,0 0.369,-0.066 0.369,-0.201 0.926,-0.245 1.375,-0.314 1.35,-0.204 0.789,-0.22 1.168,-0.288 1.146,-0.207 l 0.524,0 c 0.193,0.029 0.275,-0.038 0.25,-0.202 0.025,0 0.189,0.016 0.488,0.039 0.219,0 0.312,-0.064 0.287,-0.201 l 0.408,0 c 0.137,0 0.188,-0.069 0.162,-0.204 l 0.492,0 c 0.217,0.026 0.309,-0.042 0.283,-0.207 0.492,0.031 0.817,-0.095 0.979,-0.365 0.056,-0.026 0.138,-0.026 0.246,0 0.106,0.025 0.188,0.025 0.239,0 0.029,0 0.045,-0.042 0.045,-0.123 l 0.039,-0.082 c 0.492,-0.163 0.736,-0.286 0.736,-0.365 0.301,-0.028 0.437,-0.098 0.406,-0.205 0.383,-0.025 0.641,-0.15 0.777,-0.367 0.383,-0.027 0.641,-0.163 0.773,-0.41 0.303,0.057 0.493,-0.066 0.575,-0.366 0.3,0.027 0.486,-0.106 0.567,-0.41 0.273,0.14 0.468,0.018 0.574,-0.364 0.189,0.026 0.369,-0.054 0.533,-0.247 0.162,-0.164 0.297,-0.229 0.406,-0.203 0,-0.056 -0.014,-0.069 -0.043,-0.04 -0.053,0.026 -0.094,0.015 -0.121,-0.041 0.383,-0.082 0.695,-0.354 0.941,-0.817 l 0.322,0 c 1.227,-1.224 1.946,-1.93 2.168,-2.126 l 0,0.412 c -0.654,0.49 -1.224,1.062 -1.715,1.714 -0.304,0.055 -0.683,0.383 -1.146,0.982 -0.27,-0.028 -0.531,0.161 -0.775,0.567 -0.299,-0.054 -0.49,0.068 -0.57,0.369 -0.272,0 -0.463,0.136 -0.574,0.407 -0.299,-0.054 -0.485,0.069 -0.567,0.368 -0.19,-0.028 -0.383,0.042 -0.575,0.205 -0.216,0.137 -0.419,0.188 -0.605,0.164 0.08,0.106 0.064,0.178 -0.043,0.203 -0.109,0.027 -0.15,0.094 -0.125,0.205 -0.164,0 -0.352,0.053 -0.57,0.159 -0.219,0.11 -0.312,0.165 -0.285,0.165 0,0.057 -0.109,0.068 -0.328,0.041 -0.162,0 -0.219,0.07 -0.162,0.205 -0.408,0.025 -0.668,0.149 -0.776,0.365 l -0.41,0 c -0.136,0 -0.188,0.069 -0.162,0.207 l -0.407,0 c -0.164,0 -0.218,0.067 -0.164,0.204 l -0.404,-0.041 c -0.168,0 -0.221,0.066 -0.168,0.203 l -0.406,0 c -0.162,0 -0.232,0.067 -0.205,0.202 l -0.488,0 c -0.191,-0.024 -0.289,-0.038 -0.289,-0.038 0,0 0.025,0.095 0.055,0.259 m 12.046,-7.76 c 0.056,0.056 0.066,0.125 0.039,0.205 0,0.081 -0.065,0.098 -0.203,0.038 l 0,-0.363 c 0.107,0 0.261,-0.122 0.447,-0.367 0.217,-0.245 0.396,-0.379 0.529,-0.408 l 0,0.364 c -0.27,0.14 -0.461,0.342 -0.568,0.612 0.003,0 -0.079,-0.027 -0.244,-0.081 M 51.74,24.157 c -1.472,0.055 -2.22,0.094 -2.246,0.119 0.026,0 0.043,-0.012 0.043,-0.039 0.022,-0.055 0.012,-0.081 -0.043,-0.081 0.026,0.107 -0.125,0.175 -0.451,0.201 0.026,0.082 -0.094,0.14 -0.367,0.164 -0.081,0.303 -0.271,0.438 -0.569,0.41 -0.056,0.217 -0.191,0.341 -0.406,0.366 l 0,0.41 c -0.082,-0.056 -0.15,-0.026 -0.207,0.082 -0.025,0.107 -0.08,0.135 -0.162,0.082 -0.027,0.299 -0.096,0.436 -0.205,0.406 l 0,0.369 c 0,0.163 -0.066,0.23 -0.201,0.204 l 0,1.919 c 0.135,0.026 0.201,0.026 0.201,0 0,0.19 0.068,0.38 0.205,0.572 0.137,0.19 0.205,0.382 0.205,0.572 0.379,0.246 0.695,0.571 0.939,0.978 0.381,0.029 0.637,0.152 0.772,0.37 l 0.41,0 c 0.137,0 0.188,0.068 0.159,0.205 l 1.554,0 c -0.056,-0.136 0,-0.205 0.166,-0.205 l 0.407,0 c 0.107,-0.218 0.369,-0.341 0.775,-0.37 0.219,-0.406 0.531,-0.731 0.939,-0.978 l 0,-0.367 c 0.41,0.108 0.531,0.039 0.367,-0.205 0.027,-0.11 0.08,-0.478 0.164,-1.103 0.08,-0.546 0.094,-1.01 0.041,-1.389 -0.14,0.026 -0.205,-0.041 -0.205,-0.204 l 0,-0.369 c -0.082,0.029 -0.137,-0.107 -0.164,-0.406 -0.299,-0.082 -0.438,-0.271 -0.406,-0.573 -0.191,-0.025 -0.314,-0.149 -0.369,-0.366 l -0.366,0 c 0.055,-0.081 0.025,-0.136 -0.082,-0.164 -0.109,-0.053 -0.15,-0.134 -0.125,-0.247 -0.406,-0.023 -0.611,-0.039 -0.611,-0.039 0,0 -0.053,-0.106 -0.162,-0.324 m -2.697,-0.204 c 0.408,-0.029 0.588,-0.068 0.533,-0.125 0.219,-0.054 0.543,-0.082 0.979,-0.082 0.571,0.028 0.926,0.043 1.063,0.043 -0.058,0.053 -0.082,0.107 -0.082,0.164 l 0.569,0 c 0.138,0.244 0.396,0.379 0.775,0.405 0.301,0.467 0.682,0.847 1.145,1.146 0.056,0.382 0.189,0.639 0.406,0.773 l 0,0.369 c 0,0.163 0.068,0.23 0.205,0.204 l 0,1.716 c -0.162,-0.028 -0.229,0.053 -0.205,0.245 l 0,0.449 c -0.024,0.027 -0.094,0.027 -0.201,0 l 0,0.45 c -0.082,-0.026 -0.149,0.014 -0.205,0.12 -0.026,0.084 -0.082,0.111 -0.164,0.084 l 0,0.408 c -0.354,0.163 -0.61,0.408 -0.774,0.732 -0.301,0.03 -0.424,0.096 -0.366,0.206 -0.406,0.027 -0.668,0.149 -0.775,0.368 -0.109,0 -0.451,0.054 -1.021,0.164 -0.413,0.081 -0.752,0.081 -1.024,0 0.164,-0.056 0.137,-0.097 -0.082,-0.126 -0.188,-0.025 -0.379,-0.038 -0.57,-0.038 L 48.476,31.26 c -0.303,-0.11 -0.424,-0.176 -0.369,-0.206 -0.19,-0.325 -0.448,-0.57 -0.774,-0.732 0.024,-0.327 -0.108,-0.531 -0.406,-0.612 -0.19,-0.627 -0.313,-0.965 -0.368,-1.021 l 0,-1.838 0.118,0 c 0.029,0.026 0.06,0.039 0.082,0.039 l 0,-0.611 c 0.22,-0.137 0.345,-0.394 0.369,-0.774 0.461,-0.3 0.845,-0.68 1.144,-1.146 0.408,-0.025 0.614,-0.039 0.614,-0.039 0,0 0.051,-0.122 0.157,-0.367 m -4.774,41.328 c 0.055,-0.165 0.106,-0.081 0.162,0.244 0,0.081 -0.07,0.164 -0.205,0.245 -0.107,0.081 -0.164,0.179 -0.164,0.285 l -0.324,0 c -0.057,0.138 -0.191,0.272 -0.408,0.41 -0.219,0.135 -0.355,0.258 -0.412,0.366 -0.297,0.026 -0.432,0.082 -0.404,0.164 -0.383,0.026 -0.641,0.163 -0.775,0.405 0.025,0 -0.098,-0.013 -0.37,-0.037 -0.162,0 -0.229,0.064 -0.199,0.2 l -0.899,0 c 0.024,0 0.024,0.069 0,0.206 l -1.595,0 0,-0.206 c -0.219,0.058 -0.45,0.042 -0.692,-0.039 -0.246,-0.106 -0.465,-0.15 -0.652,-0.124 l 0,-0.569 c 0.789,-0.708 1.168,-1.034 1.145,-0.98 0.406,-0.026 0.662,-0.147 0.775,-0.369 0.188,0.028 0.381,-0.013 0.568,-0.121 0.164,-0.081 0.354,-0.107 0.574,-0.081 l 0,-0.203 3.102,0 c -0.025,0.164 0.055,0.23 0.246,0.203 l 0.527,0.001 0,0 z m -6.538,-0.205 -0.405,0 c -0.164,0 -0.231,0.068 -0.205,0.204 l -0.938,0 c 0.026,0 0.026,0.066 0,0.201 l -2.326,0 0,-0.201 c -0.222,0.026 -0.982,-0.189 -2.289,-0.653 0.027,-0.055 0.096,-0.137 0.203,-0.245 0.108,-0.055 0.166,-0.136 0.166,-0.244 0.188,0.025 0.362,-0.041 0.526,-0.204 0.138,-0.164 0.304,-0.23 0.492,-0.207 0.164,-0.023 0.147,-0.064 -0.043,-0.12 0,-0.025 0.108,-0.043 0.33,-0.043 0.188,0 0.271,-0.064 0.241,-0.202 l 0.41,0 c 0.137,0 0.189,-0.069 0.162,-0.204 l 0.855,0 c -0.023,-0.028 -0.023,-0.097 0,-0.206 l 2.613,0 c 0,0.165 0.125,0.244 0.371,0.244 0.354,-0.023 0.543,-0.038 0.574,-0.038 0,0.162 0.094,0.229 0.28,0.204 l 0.494,0 c -0.029,0.138 0.039,0.202 0.198,0.202 l 0.369,0 c -0.055,0.109 -0.014,0.163 0.127,0.163 0.16,0 0.256,0.031 0.281,0.081 -0.082,0.06 -0.258,0.166 -0.531,0.33 -0.217,0.108 -0.364,0.23 -0.444,0.364 -0.466,-0.024 -0.774,0.109 -0.945,0.411 0,-0.026 -0.135,-0.043 -0.403,-0.043 l -0.246,0 c 10e-4,0 0.028,0.069 0.083,0.206 m -2.819,-2.94 c -1.576,0.162 -2.884,0.119 -3.918,-0.124 0.055,-0.136 -0.015,-0.205 -0.201,-0.205 -0.164,0 -0.233,-0.054 -0.207,-0.163 l -0.448,0 c -0.056,0.058 -0.068,0.058 -0.039,0 -0.111,-0.3 -0.33,-0.436 -0.654,-0.407 -0.164,-0.325 -0.424,-0.586 -0.777,-0.775 l 0,-0.367 c 0.301,-0.028 0.436,-0.094 0.406,-0.206 l 0.371,0 c 0.16,0.031 0.229,-0.038 0.203,-0.202 l 2.694,0 c -0.024,0.164 0.027,0.233 0.164,0.202 l 0.406,0 c -0.024,0.14 0.028,0.206 0.164,0.206 l 0.407,0 c 0,0.026 0.261,0.149 0.777,0.367 -0.082,-0.029 -0.055,0.026 0.08,0.164 0.082,0.107 0.178,0.122 0.289,0.041 0.244,0.408 0.5,0.598 0.777,0.57 0,0.026 0.117,0.179 0.361,0.449 0.028,0.082 0,0.121 -0.08,0.121 -0.107,0.03 -0.138,0.095 -0.082,0.205 l -0.531,0 -0.284,0 0.122,0.124 z m -6.246,-3.962 c 0.058,-0.138 0,-0.206 -0.162,-0.206 l -0.405,0 c 0.022,-0.082 -0.101,-0.149 -0.371,-0.202 0.026,-0.082 0,-0.137 -0.08,-0.163 -0.109,-0.026 -0.15,-0.097 -0.123,-0.205 l -0.369,0 c -0.379,-0.516 -0.83,-0.966 -1.346,-1.347 -0.027,-0.272 -0.097,-0.395 -0.205,-0.368 l 0,-0.41 2.576,0 c -0.029,0.03 -0.029,0.097 0,0.206 l 0.692,0 c 0,0.026 0.254,0.149 0.772,0.367 -0.082,-0.026 -0.055,0.027 0.082,0.164 0.082,0.108 0.176,0.122 0.289,0.041 0.133,0.218 0.324,0.339 0.568,0.364 0.219,0.304 0.531,0.655 0.938,1.063 0.494,0.465 0.818,0.803 0.982,1.02 -0.271,0.058 -0.668,0.069 -1.182,0.043 l -1.307,0 c 0.022,-0.138 -0.06,-0.206 -0.25,-0.206 -0.324,0.029 -0.502,0.043 -0.531,0.043 0.055,-0.163 0,-0.232 -0.164,-0.204 l -0.404,0 z m 34.59,-0.206 c -0.137,-0.023 -0.207,0.043 -0.207,0.206 0.029,0.271 0.046,0.395 0.046,0.367 -0.027,0 -0.164,0.26 -0.406,0.774 0.053,-0.08 0,-0.055 -0.17,0.082 -0.08,0.081 -0.08,0.179 0,0.286 -0.269,0.109 -0.404,0.314 -0.404,0.614 -0.109,-0.028 -0.201,0.024 -0.289,0.161 -0.08,0.136 -0.176,0.205 -0.281,0.205 l 0,0.364 c -0.275,0.112 -0.465,0.313 -0.576,0.613 -0.242,-0.054 -0.395,0 -0.449,0.163 -0.104,-0.325 -0.162,-0.843 -0.162,-1.553 0.027,-0.948 0.043,-1.522 0.043,-1.713 0.138,0.026 0.207,-0.028 0.207,-0.163 0,-0.272 -0.018,-0.41 -0.045,-0.41 0.056,-0.023 0.26,-0.406 0.613,-1.142 l 0.162,-0.411 c 0.543,-0.354 0.996,-0.787 1.352,-1.308 0.297,-0.053 0.433,-0.119 0.406,-0.202 l 0.162,0 c 0.027,0 0.027,0.164 0,0.491 0,0.189 0.068,0.285 0.207,0.285 0.025,-0.188 0.025,0.096 0,0.858 0,0.298 -0.07,0.434 -0.207,0.404 l -0.002,1.029 0,0 z m -24.584,1.717 c -0.024,-0.271 -0.096,-0.396 -0.2,-0.368 -0.031,-0.381 -0.152,-0.641 -0.371,-0.774 l 0,-0.367 c 0,-0.163 -0.068,-0.229 -0.203,-0.206 0,-0.023 0.014,-0.217 0.043,-0.57 0,-0.271 -0.07,-0.396 -0.207,-0.368 0.026,-0.082 0.026,-0.271 0,-0.569 -0.027,-0.354 -0.027,-0.613 0,-0.776 0.137,0 0.207,-0.096 0.207,-0.285 l -0.043,-0.49 c 0.082,0 0.162,0.042 0.244,0.12 0.08,0.081 0.188,0.11 0.33,0.081 0.379,0.521 0.827,0.953 1.344,1.308 0.026,0.304 0.098,0.438 0.205,0.411 0.026,0.38 0.147,0.639 0.369,0.775 0.051,0.271 0.121,0.396 0.202,0.365 l 0,0.41 c 0,0.135 0.066,0.189 0.203,0.163 l 0,1.674 c 0,0.708 -0.026,1.238 -0.08,1.592 -0.354,-0.105 -0.519,-0.163 -0.491,-0.163 -0.107,-0.3 -0.3,-0.501 -0.57,-0.612 0,-0.271 -0.207,-0.517 -0.613,-0.731 l 0,-0.45 c -0.002,-0.006 -0.125,-0.061 -0.369,-0.17 m 11.925,-7.108 c -0.056,0.028 0.026,0.083 0.248,0.164 0,0.058 -0.058,0.069 -0.169,0.043 -0.107,-0.03 -0.135,-0.094 -0.079,-0.207 m -0.45,0.083 c 0,0.029 0.107,0 0.326,-0.083 -0.055,0.083 -0.08,0.152 -0.08,0.207 l -0.205,0 c 0.027,-0.081 0.013,-0.124 -0.041,-0.124 m -3.143,0.124 c -0.028,-0.163 0.015,-0.207 0.121,-0.124 0,-0.024 0.067,-0.055 0.205,-0.083 0.024,0.164 -0.082,0.234 -0.326,0.207 m -10.821,6.533 0,-0.327 c -0.109,-0.025 -0.244,-0.15 -0.412,-0.366 -0.136,-0.191 -0.256,-0.272 -0.361,-0.245 -0.029,-0.41 -0.152,-0.668 -0.371,-0.775 -0.027,-0.3 -0.096,-0.436 -0.205,-0.412 -0.025,-0.379 -0.148,-0.636 -0.369,-0.774 l 0,-0.364 c 0,-0.167 -0.064,-0.23 -0.201,-0.205 -0.027,-0.025 -0.027,-0.218 0,-0.573 0.025,-0.244 -0.043,-0.365 -0.205,-0.365 l 0,-1.471 c 0.109,0.163 0.178,0.014 0.205,-0.448 0.055,-0.573 0.121,-0.899 0.201,-0.98 l 0.369,0 c 0.162,0.354 0.424,0.613 0.775,0.776 -0.055,0.298 0.067,0.487 0.369,0.569 0.026,0.41 0.162,0.669 0.405,0.776 -0.024,-0.025 -0.038,0.109 -0.038,0.409 0,0.135 0.067,0.188 0.206,0.164 l 0,0.486 c 0,0.223 0.064,0.314 0.199,0.288 0.028,1.795 -0.035,3.077 -0.199,3.838 l -0.368,-10e-4 0,0 z m 22.418,-8.249 1.104,0 c 0.408,0.083 0.639,0.285 0.695,0.614 -0.162,0.218 -0.914,0.325 -2.244,0.325 l -15.07,0 c -1.254,0 -2.016,-0.055 -2.289,-0.164 0.027,0.164 0.176,-0.094 0.453,-0.775 l 17.351,0 z m 11.395,1.716 c -0.14,-0.029 -0.205,0.026 -0.205,0.164 l 0,0.405 c -0.138,-0.024 -0.207,0.041 -0.207,0.205 0,0.272 0.017,0.395 0.043,0.368 -0.164,0.108 -0.312,0.327 -0.448,0.65 -0.138,0.354 -0.271,0.59 -0.408,0.694 -0.058,0.03 -0.107,-0.011 -0.162,-0.121 0,-0.107 -0.027,-0.124 -0.08,-0.043 -0.059,-0.025 -0.07,-0.146 -0.043,-0.364 0,-0.19 -0.07,-0.271 -0.207,-0.246 l 0,-0.366 c 0,-0.164 -0.064,-0.231 -0.199,-0.203 l 0,-0.49 c 0.023,-0.189 -0.043,-0.286 -0.207,-0.286 l 0,-3.062 c 0.137,0.026 0.207,-0.028 0.207,-0.163 l 0,-0.409 c 0.135,0.029 0.199,-0.026 0.199,-0.165 l 0,-0.406 c 0.219,-0.109 0.344,-0.367 0.369,-0.774 0.108,0 0.219,-0.081 0.326,-0.245 0.108,-0.138 0.26,-0.178 0.446,-0.125 -0.022,0.164 0.043,0.221 0.207,0.164 0.026,0.328 0.08,0.465 0.164,0.41 0,0.379 0.065,0.57 0.205,0.57 l 0,0.571 c -0.026,0.218 0.039,0.284 0.198,0.205 l 0,2.286 -0.118,0 c -0.027,-0.027 -0.058,-0.042 -0.08,-0.042 l 0,0.818 z M 33.28,53.151 c -0.137,0 -0.204,0.097 -0.204,0.286 l 0.043,0.49 c -0.14,-0.028 -0.207,0.039 -0.207,0.203 l 0,0.367 c -0.136,-0.025 -0.201,0.042 -0.201,0.206 l 0,0.404 c -0.058,-0.081 -0.11,-0.081 -0.162,0 l -0.086,0.164 c -0.164,-0.082 -0.312,-0.299 -0.444,-0.651 -0.168,-0.353 -0.314,-0.585 -0.451,-0.693 0.027,-0.163 0,-0.341 -0.08,-0.532 -0.109,-0.188 -0.15,-0.368 -0.125,-0.528 0,-0.029 -0.055,-0.056 -0.162,-0.082 -0.027,-0.029 -0.027,-0.191 0,-0.49 0,-0.216 -0.07,-0.313 -0.205,-0.286 l 0,-2.286 c 0.135,0.026 0.205,-0.066 0.205,-0.288 -0.027,-0.298 -0.027,-0.461 0,-0.488 0.137,0.027 0.189,-0.162 0.162,-0.57 l 0.125,0 c 0.022,0.025 0.053,0.041 0.08,0.041 l 0,-0.451 c 0.082,0.028 0.164,-0.013 0.246,-0.121 0.08,-0.082 0.188,-0.096 0.326,-0.043 0.055,0.221 0.178,0.341 0.366,0.37 0.056,0.407 0.188,0.665 0.406,0.774 l 0,0.406 c 0,0.139 0.067,0.194 0.207,0.165 -0.027,0 -0.043,0.139 -0.043,0.409 0,0.135 0.067,0.189 0.204,0.163 l 0,3.061 z m 24.423,-2.656 0,-2.121 c -0.162,0.025 -0.229,-0.041 -0.205,-0.204 -0.545,-0.081 -0.856,0.147 -0.938,0.692 0.055,-0.217 0.055,0.325 0,1.633 l -1.92,0 0,-1.877 c -0.271,-0.271 -0.406,-0.423 -0.406,-0.448 -0.193,-0.029 -0.572,0.106 -1.146,0.407 l 0,1.918 -1.92,0 0,-1.877 c -0.242,-0.271 -0.381,-0.423 -0.41,-0.448 -0.188,-0.029 -0.567,0.106 -1.139,0.407 l 0,1.918 -2.084,0 0,-2.121 c -0.302,-0.19 -0.601,-0.26 -0.9,-0.204 -0.241,0.135 -0.395,0.477 -0.448,1.019 -0.08,0.52 -0.043,0.889 0.125,1.104 0.024,-0.025 -0.601,0.042 -1.881,0.203 l 0,-0.816 c 0.026,-0.353 0.026,-0.612 0,-0.774 -0.082,-0.548 -0.382,-0.791 -0.9,-0.735 -0.025,0 -0.039,0.04 -0.039,0.122 0,0.082 -0.043,0.107 -0.125,0.082 -0.08,0.219 -0.105,0.558 -0.08,1.021 l 0,1.101 -1.92,0 0,-2.08 c -0.406,-0.164 -0.598,-0.245 -0.57,-0.245 l 0,-2.29 19.604,0 0,2.289 c -0.139,-0.057 -0.244,-0.043 -0.325,0.04 -0.111,0.107 -0.193,0.164 -0.248,0.164 l 0,2.121 -2.125,-0.001 0,0 z m 19.026,-6.164 c 0.386,-0.028 0.642,-0.149 0.777,-0.37 l 0.572,0 0,1.146 c -0.162,-0.028 -0.23,0.068 -0.203,0.286 l 0,0.488 c -0.137,-0.054 -0.203,0 -0.203,0.164 l 0,0.409 c -0.031,0 -0.152,0.26 -0.369,0.774 0.025,-0.081 -0.027,-0.054 -0.16,0.082 -0.084,0.082 -0.1,0.179 -0.045,0.287 -0.106,-0.027 -0.178,0 -0.205,0.081 -0.026,0.107 -0.084,0.148 -0.164,0.12 l 0,0.37 c -0.543,0.38 -0.992,0.828 -1.346,1.347 -0.299,-0.026 -0.492,0.095 -0.574,0.366 -0.297,-0.026 -0.488,0.11 -0.57,0.409 l -0.403,0 0,-0.775 c 0.16,0 0.228,-0.121 0.199,-0.367 -0.025,-0.353 -0.025,-0.545 0,-0.571 0.139,0.026 0.204,-0.041 0.204,-0.203 l 0,-0.41 c 0.14,0.057 0.207,0 0.207,-0.164 l -0.043,-0.406 c 0.14,0.052 0.207,0.015 0.207,-0.125 l 0,-0.365 c 0.023,-0.025 0.095,-0.025 0.199,0 -0.022,-0.164 0.029,-0.327 0.168,-0.489 0.164,-0.163 0.229,-0.341 0.203,-0.532 0.598,-0.437 0.896,-0.652 0.896,-0.652 0,0 0.221,-0.3 0.653,-0.9 M 23.313,45.88 c -0.024,-0.027 -0.024,-0.19 0,-0.488 0,-0.218 -0.063,-0.314 -0.201,-0.286 l 0,-1.146 0.568,0 c 0.111,0.221 0.369,0.342 0.777,0.37 0.438,0.601 0.955,1.113 1.555,1.55 0.053,0.465 0.246,0.805 0.57,1.021 -0.027,-0.054 -0.043,0.067 -0.043,0.365 0,0.14 0.07,0.177 0.207,0.125 l 0,0.406 c 0,0.164 0.066,0.221 0.205,0.164 l 0,0.41 c 0,0.162 0.066,0.229 0.201,0.203 0,0.026 -0.014,0.22 -0.039,0.571 0,0.246 0.066,0.367 0.205,0.367 l 0,0.775 -0.367,0 c 0.025,-0.107 0,-0.178 -0.082,-0.203 -0.109,-0.028 -0.15,-0.096 -0.123,-0.206 l -0.371,0 c 0.029,-0.082 0,-0.135 -0.082,-0.161 -0.105,-0.029 -0.145,-0.096 -0.117,-0.205 l -0.369,0 c -0.383,-0.519 -0.832,-0.967 -1.35,-1.347 0.029,-0.301 -0.105,-0.49 -0.408,-0.571 0.027,-0.136 0,-0.301 -0.08,-0.49 -0.082,-0.164 -0.148,-0.23 -0.207,-0.205 -0.053,-0.025 -0.082,-0.123 -0.082,-0.284 0,-0.164 -0.063,-0.22 -0.199,-0.164 l 0.039,-0.409 0,-0.242 c 0.001,0 -0.069,0.027 -0.207,0.08 m 40.15,-3.386 c 0.104,0.57 -0.125,0.913 -0.694,1.019 -0.111,0.03 -0.791,0.041 -2.043,0.041 l -20.172,0 c -1.638,0 -2.574,-0.124 -2.82,-0.366 -0.082,-0.382 0.055,-0.763 0.408,-1.146 2.477,0.081 6.493,0.068 12.049,-0.038 5.309,-0.108 9.354,-0.097 12.127,0.038 0.57,0.029 0.953,0.177 1.145,0.452 M 23.356,40.165 c -0.055,-0.056 -0.067,-0.286 -0.043,-0.693 0.029,-0.327 -0.039,-0.505 -0.201,-0.531 l 0,-0.573 c 0.162,0 0.23,-0.12 0.201,-0.365 -0.024,-0.354 -0.024,-0.544 0,-0.573 l 0.367,0 0,0.163 c 0.273,0.03 0.521,0.178 0.738,0.448 0.246,0.303 0.451,0.479 0.611,0.533 -0.027,0.301 0.098,0.489 0.371,0.571 0.053,0.3 0.119,0.423 0.201,0.365 0.026,0.41 0.162,0.67 0.41,0.775 -0.029,0 -0.041,0.14 -0.041,0.412 0,0.161 0.065,0.216 0.204,0.161 0.242,1.089 0.281,2.246 0.117,3.473 l -0.485,-0.207 c -0.189,-0.323 -0.449,-0.57 -0.777,-0.733 0.027,-0.3 -0.16,-0.559 -0.572,-0.774 0.029,-0.328 -0.105,-0.517 -0.408,-0.573 -0.025,-0.407 -0.15,-0.666 -0.369,-0.776 -0.022,-0.298 -0.094,-0.435 -0.199,-0.406 0,0.026 0.013,-0.137 0.039,-0.489 l 0,-0.333 c 0.001,0 -0.053,0.043 -0.164,0.125 m 45.698,-5.27 c 0.137,0.028 0.206,-0.081 0.206,-0.325 -0.026,-0.381 -0.038,-0.586 -0.038,-0.612 0.161,0 0.229,-0.123 0.198,-0.369 l 0,-0.613 c 0.164,0.082 0.354,0.246 0.576,0.491 0.217,0.245 0.405,0.409 0.569,0.49 -0.026,0.301 0.107,0.487 0.406,0.57 0.027,0.302 0.086,0.424 0.168,0.367 0.023,0.41 0.164,0.67 0.406,0.775 0.025,0.302 0.082,0.437 0.162,0.411 l 0,0.368 c -0.189,0.055 -0.381,0.027 -0.568,-0.083 -0.193,-0.107 -0.385,-0.147 -0.574,-0.122 0.025,-0.138 -0.026,-0.206 -0.164,-0.206 -0.299,0.027 -0.434,0.042 -0.405,0.042 -0.111,-0.245 -0.369,-0.38 -0.774,-0.411 0.053,-0.164 0,-0.216 -0.168,-0.164 l 0,-0.609 z m -39.612,1.186 c 0.138,0.025 0.203,-0.016 0.203,-0.123 l 0,-0.288 0.082,0 c 0.056,0.031 0.094,0.031 0.119,0 l 0,-0.164 c -0.025,-0.108 -0.025,-0.175 0,-0.201 l 0.086,0 0.084,0 c 0.023,-0.026 0.023,-0.096 0,-0.204 l 0,-0.207 c -0.059,0.112 0,0.081 0.162,-0.081 0.105,-0.083 0.119,-0.175 0.037,-0.286 0.111,0.027 0.18,0 0.205,-0.083 0.027,-0.105 0.082,-0.147 0.164,-0.119 l 0,-0.369 c 0.408,-0.245 0.738,-0.571 0.98,-0.981 l 0.203,0 -0.039,0.655 c 0,0.271 0.055,0.38 0.162,0.326 0.057,0.054 0.067,0.243 0.043,0.57 -0.029,0.272 0.039,0.396 0.203,0.367 l 0,0.611 c -0.164,-0.052 -0.232,0 -0.203,0.164 -0.386,0.031 -0.629,0.166 -0.736,0.411 l -0.406,-0.042 c -0.164,0 -0.234,0.067 -0.207,0.206 l -0.369,0 c -0.162,0 -0.23,0.069 -0.199,0.205 l -0.574,0 0,-0.367 0,0 z m 37.491,-9.027 c -0.681,0 -2.56,-0.013 -5.634,-0.04 -2.289,0 -4.129,0.027 -5.516,0.082 l 0,0.327 1.346,0 c 0.06,0.488 -0.096,0.747 -0.444,0.772 -0.086,-0.025 -0.168,-0.094 -0.25,-0.201 -0.082,-0.108 -0.146,-0.179 -0.199,-0.204 0.053,-0.029 0.022,0.163 -0.082,0.568 l 1.141,0 0,-0.937 1.348,0 -0.041,0.775 -0.527,0 C 58.044,27.897 57.993,27.76 57.907,27.79 l -0.167,0 c 0.059,0 0.043,0.189 -0.037,0.568 l 1.346,0 0,-0.937 1.146,0 c -0.082,0.572 -0.107,0.829 -0.082,0.772 l -0.408,0 c 0.057,0.111 0.014,0 -0.123,-0.323 -0.025,-0.111 -0.119,-0.138 -0.281,-0.082 0.049,-0.029 0.037,0.163 -0.045,0.568 l 1.307,0 0,-0.937 c 1.035,0.108 1.486,0.135 1.353,0.082 0.022,0.107 0,0.229 -0.088,0.368 -0.104,0.107 -0.162,0.216 -0.162,0.323 -0.162,0.029 -0.281,-0.025 -0.363,-0.16 -0.112,-0.138 -0.206,-0.22 -0.288,-0.245 0.057,-0.029 0.038,0.163 -0.043,0.568 l 1.146,0 0,-0.937 1.35,0 0,0.572 -0.532,0.201 c -0.162,-0.216 -0.285,-0.353 -0.367,-0.405 0.055,-0.029 0.043,0.163 -0.045,0.568 l 1.145,0 0,-0.937 1.35,0 c -0.106,0.572 -0.137,0.829 -0.08,0.772 l -0.492,0 c -0.053,-0.298 -0.123,-0.435 -0.202,-0.405 l -0.123,0 c 0.055,0 0.026,0.189 -0.082,0.568 l 1.35,0 0,-0.937 1.146,0 c -0.086,0.572 -0.1,0.829 -0.043,0.772 l -0.529,0 C 65.937,27.889 65.88,27.752 65.798,27.782 l -0.168,0 c 0.055,-0.029 0.039,0.163 -0.043,0.568 l 1.35,0 0,-1.303 -0.004,0 z m 0.569,-0.407 c -0.056,0.136 -0.056,0.477 0,1.02 0.08,0.519 0.08,0.856 0,1.022 -0.106,0.19 -1.155,0.284 -3.146,0.284 l -9.35,0 0,-2.122 c 0,-0.137 0.025,-0.204 0.08,-0.204 l 12.416,0 z m 5.186,6.739 0,-0.492 c 0.027,-0.216 -0.041,-0.311 -0.205,-0.283 l 0,-3.474 c 0.138,0.058 0.205,0 0.205,-0.163 l 0,-0.406 c 0.138,0.026 0.203,-0.028 0.203,-0.164 l 0,-0.407 c 0.217,-0.108 0.344,-0.368 0.367,-0.778 0.301,-0.082 0.424,-0.271 0.369,-0.57 0.299,-0.109 0.504,-0.3 0.611,-0.571 0.082,-0.026 0.139,0 0.164,0.082 0.027,0.108 0.096,0.149 0.207,0.12 l 0,0.369 c 0,0.163 0.065,0.23 0.199,0.204 l -0.037,0.49 c 0,0.19 0.065,0.286 0.205,0.286 l 0,1.92 c -0.14,-0.027 -0.205,0.055 -0.205,0.245 0.024,0.327 0.037,0.505 0.037,0.531 -0.134,-0.056 -0.199,0 -0.199,0.163 l 0,0.406 c -0.139,-0.053 -0.207,0 -0.207,0.164 l 0,0.411 c -0.217,0.108 -0.342,0.365 -0.369,0.776 -0.297,0.082 -0.434,0.271 -0.406,0.569 -0.137,0 -0.26,0.11 -0.369,0.326 -0.08,0.247 -0.16,0.396 -0.244,0.45 -0.082,0 -0.135,-0.04 -0.162,-0.122 l 0,-0.163 -0.164,0.081 z m -46.104,-2.494 0,-0.406 c 0,-0.163 -0.069,-0.218 -0.207,-0.163 -0.135,-1.716 -0.198,-2.614 -0.198,-2.695 0.159,0 0.229,-0.096 0.198,-0.286 l 0,-0.49 c 0.138,0.026 0.207,-0.041 0.207,-0.204 l 0,-0.369 c 0.164,0.029 0.22,-0.04 0.164,-0.202 0.137,0.025 0.271,0.123 0.405,0.283 0.109,0.164 0.232,0.261 0.369,0.288 -0.026,0.298 0.107,0.488 0.406,0.57 0.027,0.302 0.086,0.437 0.168,0.41 0.023,0.379 0.16,0.625 0.406,0.732 0,0.029 -0.016,0.207 -0.043,0.532 0,0.191 0.068,0.275 0.205,0.244 0.244,0.927 0.312,1.376 0.207,1.35 l 0,0.57 c 0.135,-0.023 0.064,0.493 -0.207,1.554 -0.137,-0.026 -0.205,0.067 -0.205,0.283 0.027,0.302 0.043,0.465 0.043,0.492 0.137,0.054 0.039,0.121 -0.285,0.203 -0.057,0 -0.098,-0.04 -0.121,-0.122 -0.029,-0.108 -0.082,-0.137 -0.168,-0.081 0.027,-0.298 -0.107,-0.492 -0.406,-0.573 0,-0.217 -0.121,-0.407 -0.369,-0.569 -0.024,-0.411 -0.164,-0.668 -0.405,-0.776 l 0.043,-0.411 0,-0.246 c 0,0.001 -0.069,0.029 -0.207,0.082 m 39.203,-8.655 c -0.056,-0.601 0,-1.377 0.166,-2.329 l 0.571,0 c 0.843,1.225 1.291,2 1.347,2.329 l -2.084,0 z M 35.201,19.908 c 0.188,0.952 0.26,1.729 0.207,2.329 l -2.128,0 c 0,-0.189 0.068,-0.382 0.203,-0.573 0.138,-0.216 0.203,-0.406 0.203,-0.569 0.109,-0.056 0.314,-0.298 0.613,-0.737 0.222,-0.326 0.518,-0.475 0.902,-0.45"
       id="path11"
       inkscape:connector-curvature="0"
       style="fill:#301200" /></g></svg>