<?xml version="1.0" encoding="UTF-8" standalone="no"?>
<!-- Created with Inkscape (http://www.inkscape.org/) -->

<svg
   xmlns:dc="http://purl.org/dc/elements/1.1/"
   xmlns:cc="http://creativecommons.org/ns#"
   xmlns:rdf="http://www.w3.org/1999/02/22-rdf-syntax-ns#"
   xmlns:svg="http://www.w3.org/2000/svg"
   xmlns="http://www.w3.org/2000/svg"
   xmlns:sodipodi="http://sodipodi.sourceforge.net/DTD/sodipodi-0.dtd"
   xmlns:inkscape="http://www.inkscape.org/namespaces/inkscape"
   width="220"
   height="200"
   viewBox="0 0 220 199.99999"
   id="svg4316"
   version="1.1"
   inkscape:version="0.91 r13725"
   sodipodi:docname="jumplink_mediamor.svg"
   inkscape:export-filename="/home/jumplink/Dokumente/Arbeit/Material/Logo/jumplink+mediamor.png"
   inkscape:export-xdpi="90"
   inkscape:export-ydpi="90">
  <defs
     id="defs4318" />
  <sodipodi:namedview
     id="base"
     pagecolor="#272822"
     bordercolor="#666666"
     borderopacity="1.0"
     inkscape:pageopacity="1"
     inkscape:pageshadow="2"
     inkscape:zoom="5.6568542"
     inkscape:cx="183.10243"
     inkscape:cy="141.649"
     inkscape:document-units="px"
     inkscape:current-layer="g3393"
     showgrid="false"
     fit-margin-top="0"
     fit-margin-left="0"
     fit-margin-right="0"
     fit-margin-bottom="0"
     inkscape:window-width="1280"
     inkscape:window-height="987"
     inkscape:window-x="1680"
     inkscape:window-y="0"
     inkscape:window-maximized="1"
     showguides="true"
     inkscape:guide-bbox="true"
     units="px" />
  <metadata
     id="metadata4321">
    <rdf:RDF>
      <cc:Work
         rdf:about="">
        <dc:format>image/svg+xml</dc:format>
        <dc:type
           rdf:resource="http://purl.org/dc/dcmitype/StillImage" />
        <dc:title></dc:title>
      </cc:Work>
    </rdf:RDF>
  </metadata>
  <g
     inkscape:label="Ebene 1"
     inkscape:groupmode="layer"
     id="layer1"
     transform="translate(936.00167,1856.7764)">
    <g
       id="g4150"
       transform="matrix(0.46295649,0,0,0.46295649,-3926.6194,-2982.6077)"
       style="fill:#ffffff;fill-opacity:1" />
    <path
       inkscape:connector-curvature="0"
       id="path3547-0-6"
       d="m -1662.4177,-2548.2978 c -16.1134,0 -32.887,3.5994 -47.3164,10.1777 -38.4831,19.2918 -44.2739,55.5897 -44.3027,75.5098 -0.042,29.6162 9.827,65.1527 27.7871,100.0683 24.0267,46.7313 48.0181,71.4942 96.0684,125.3497 48.0503,53.8555 55.9399,55.7399 111.6798,0 55.7399,-55.7399 72.0436,-78.6184 96.0703,-125.3497 17.9601,-34.9156 27.8285,-70.4521 27.7871,-100.0683 -0.029,-19.9201 -5.8197,-56.218 -44.3028,-75.5098 -14.4293,-6.5783 -31.2049,-10.1777 -47.3183,-10.1777 -20.4273,0 -38.6351,5.4504 -52.6563,15.7637 -10.1837,6.9978 -19.0253,15.8775 -26.8398,26.9668 -2.1619,2.8294 -4.1158,5.686 -5.8457,8.5195 l -2.7323,4.666 -2.7305,-4.666 c -1.7299,-2.8334 -3.6839,-5.6901 -5.8457,-8.5195 -7.8146,-11.0893 -16.6561,-19.969 -26.8399,-26.9668 -14.0212,-10.3133 -32.231,-15.7637 -52.6583,-15.7637 z"
       style="fill:#8f1315;fill-opacity:1"
       sodipodi:nodetypes="sccczzcccscccccccss" />
    <path
       style="fill:#ffffff;fill-rule:evenodd;stroke:none;stroke-width:0.99750191px;stroke-linecap:round;stroke-linejoin:round;stroke-opacity:1"
       d="m -1608.5957,-2461.6189 c 2.3002,14.5661 9.1126,57.2113 11.9599,74.0478 -4.2972,-0.5056 -10.5047,0.1417 -16.2239,5.2418 -5.7192,5.1002 -7.8055,14.4558 -7.7634,18.0134 -15.5209,-2.1411 -18.935,11.7085 -18.996,23.1465 -0.061,11.4379 -0.1734,-17.1737 -0.1734,17.7339 0.5897,26.5396 9.4092,43.7351 23.3182,53.5003 l 0,140.3256 79.7561,0 0,-144.4403 c 18.3485,-15.8001 22.8062,-40 22.875,-47.7487 0.2206,-24.8451 -6.8277,-25.9095 -9.1191,-28.9367 -1.7767,-2.3469 -10.0637,-5.5586 -8.0831,-17.8416 1.9807,-12.283 12.7465,-74.9515 14.5288,-89.7997 1.7824,-14.8483 -27.9024,-20.0151 -30.4486,-4.7193 -2.5462,15.2957 -13.6226,78.4198 -16.4414,78.3788 -2.8188,-0.041 -13.1041,-67.8875 -15.4006,-81.8532 -2.2965,-13.9657 -32.0887,-9.6148 -29.7885,4.9514 z"
       id="path4196-2"
       inkscape:connector-curvature="0"
       sodipodi:nodetypes="zcscscccccssszzzzz"
       inkscape:export-xdpi="90"
       inkscape:export-ydpi="90" />
    <text
       xml:space="preserve"
       style="font-style:normal;font-weight:normal;font-size:35.22338486px;line-height:125%;font-family:sans-serif;letter-spacing:0px;word-spacing:0px;fill:#ffffff;fill-opacity:1;stroke:none;stroke-width:1px;stroke-linecap:butt;stroke-linejoin:miter;stroke-opacity:1"
       x="-2778.2793"
       y="-3470.054"
       id="text5383"
       sodipodi:linespacing="125%"><tspan
         sodipodi:role="line"
         id="tspan5385"
         x="-2778.2793"
         y="-3470.054"
         style="font-style:normal;font-variant:normal;font-weight:normal;font-stretch:normal;font-size:45px;font-family:'Source Sans Pro';-inkscape-font-specification:'Source Sans Pro';fill:#ffffff;fill-opacity:1" /></text>
    <text
       xml:space="preserve"
       style="font-style:normal;font-weight:normal;font-size:35.22338486px;line-height:125%;font-family:sans-serif;letter-spacing:0px;word-spacing:0px;fill:#ffffff;fill-opacity:1;stroke:none;stroke-width:1px;stroke-linecap:butt;stroke-linejoin:miter;stroke-opacity:1"
       x="-3404.7117"
       y="-3470.054"
       id="text5387"
       sodipodi:linespacing="125%"><tspan
         sodipodi:role="line"
         id="tspan5389"
         x="-3404.7117"
         y="-3470.054"
         style="font-style:normal;font-variant:normal;font-weight:normal;font-stretch:normal;font-size:45px;font-family:'Source Sans Pro';-inkscape-font-specification:'Source Sans Pro';fill:#ffffff;fill-opacity:1" /></text>
    <g
       id="g3396"
       transform="translate(2.0000847,10.987789)">
      <g
         id="g3393"
         transform="matrix(1.1108642,0,0,1.1108642,96.095719,257.84539)">
        <path
           style="fill:#bd1a1c;fill-opacity:1"
           d="m -880.10896,-1913.4738 c -8.82463,0 -18.01096,1.9712 -25.91338,5.574 -21.0758,10.5653 -24.24723,30.4444 -24.26307,41.3539 -0.0234,16.2196 5.38197,35.6817 15.21799,54.8037 13.15858,25.5931 26.29781,39.1548 52.61315,68.6495 2.72364,3.0526 5.20099,5.7818 7.50682,8.2213 l 0,-26.1541 c -7.61743,-5.3481 -12.44761,-14.7653 -12.77064,-29.3001 0,-19.1175 0.0623,-3.4484 0.0948,-9.7124 0.0338,-6.2642 1.90322,-13.8491 10.40339,-12.6764 -0.0234,-1.9484 1.11968,-7.0712 4.25191,-9.8645 3.13219,-2.7932 6.5311,-3.1479 8.88452,-2.871 -1.55936,-9.2206 -5.28977,-32.5765 -6.5495,-40.5537 -1.25973,-7.9773 15.05559,-10.36 16.3133,-2.7117 1.25776,7.6486 6.89158,44.8058 8.43533,44.8284 1.54375,0.022 7.60988,-34.5485 9.00435,-42.9253 1.39446,-8.377 17.65101,-5.5476 16.67487,2.5842 -0.97611,8.1318 -6.87137,42.4536 -7.95613,49.1806 -1.0847,6.7269 3.45324,8.486 4.42627,9.7713 1.25492,1.6578 5.11501,2.2401 4.9942,15.847 -0.0378,4.2436 -2.47899,17.4977 -12.5278,26.1508 l 0,29.8445 c 3.00317,-2.7684 6.29605,-5.9783 9.97667,-9.6589 30.5267,-30.5268 39.45564,-43.0564 52.61418,-68.6495 9.83609,-19.122 15.24065,-38.5841 15.21797,-54.8037 -0.0158,-10.9095 -3.18718,-30.7886 -24.26296,-41.3539 -7.9024,-3.6028 -17.08984,-5.574 -25.91454,-5.574 -11.18729,0 -21.15897,2.985 -28.83788,8.6332 -5.57724,3.8325 -10.41951,8.6955 -14.69922,14.7687 -1.184,1.5495 -2.25407,3.114 -3.20148,4.6658 l -1.49644,2.5554 -1.49539,-2.5554 c -0.9474,-1.5518 -2.01753,-3.1163 -3.20148,-4.6658 -4.27976,-6.0732 -9.12187,-10.9362 -14.69917,-14.7687 -7.67888,-5.6482 -17.65174,-8.6332 -28.83894,-8.6332 l 0,0 z"
           id="path3547-0-6-7"
           inkscape:connector-curvature="0" />
      </g>
    </g>
  </g>
</svg>
