<?xml version="1.0" encoding="UTF-8" standalone="no"?>
<!-- Created with Inkscape (http://www.inkscape.org/) -->

<svg
   xmlns:dc="http://purl.org/dc/elements/1.1/"
   xmlns:cc="http://creativecommons.org/ns#"
   xmlns:rdf="http://www.w3.org/1999/02/22-rdf-syntax-ns#"
   xmlns:svg="http://www.w3.org/2000/svg"
   xmlns="http://www.w3.org/2000/svg"
   xmlns:sodipodi="http://sodipodi.sourceforge.net/DTD/sodipodi-0.dtd"
   xmlns:inkscape="http://www.inkscape.org/namespaces/inkscape"
   width="2800"
   height="1500"
   viewBox="0 0 2799.9999 1499.9999"
   id="svg4316"
   version="1.1"
   inkscape:version="0.91 r"
   sodipodi:docname="jumplink+mediamor.svg"
   inkscape:export-filename="/home/jumplink/Dokumente/Arbeit/Material/Logo/jumplink+mediamor.png"
   inkscape:export-xdpi="90"
   inkscape:export-ydpi="90">
  <defs
     id="defs4318" />
  <sodipodi:namedview
     id="base"
     pagecolor="#272822"
     bordercolor="#666666"
     borderopacity="1.0"
     inkscape:pageopacity="1"
     inkscape:pageshadow="2"
     inkscape:zoom="0.25"
     inkscape:cx="1974.4842"
     inkscape:cy="498.20624"
     inkscape:document-units="px"
     inkscape:current-layer="layer1"
     showgrid="false"
     fit-margin-top="0"
     fit-margin-left="0"
     fit-margin-right="0"
     fit-margin-bottom="0"
     inkscape:window-width="1680"
     inkscape:window-height="1013"
     inkscape:window-x="3360"
     inkscape:window-y="30"
     inkscape:window-maximized="1"
     showguides="true"
     inkscape:guide-bbox="true"
     units="px" />
  <metadata
     id="metadata4321">
    <rdf:RDF>
      <cc:Work
         rdf:about="">
        <dc:format>image/svg+xml</dc:format>
        <dc:type
           rdf:resource="http://purl.org/dc/dcmitype/StillImage" />
        <dc:title />
      </cc:Work>
    </rdf:RDF>
  </metadata>
  <g
     inkscape:label="Ebene 1"
     inkscape:groupmode="layer"
     id="layer1"
     transform="translate(1381.6783,3104.486)">
    <g
       id="g4150"
       transform="matrix(0.46295649,0,0,0.46295649,-3926.6194,-2982.6077)"
       style="fill:#ffffff;fill-opacity:1" />
    <path
       inkscape:connector-curvature="0"
       id="path3547-0-6"
       d="m -6108.7052,-6089.4886 c -16.1134,0 -32.887,3.5994 -47.3164,10.1777 -38.4831,19.2918 -44.2739,55.5897 -44.3027,75.5098 -0.042,29.6162 9.827,65.1527 27.7871,100.0683 24.0267,46.7313 48.0181,71.4942 96.0684,125.3497 48.0503,53.8555 55.9399,55.7399 111.6798,0 55.7399,-55.7399 72.0436,-78.6184 96.0703,-125.3497 17.9601,-34.9156 27.8285,-70.4521 27.7871,-100.0683 -0.029,-19.9201 -5.8197,-56.218 -44.3028,-75.5098 -14.4293,-6.5783 -31.2049,-10.1777 -47.3183,-10.1777 -20.4273,0 -38.6351,5.4504 -52.6563,15.7637 -10.1837,6.9978 -19.0253,15.8775 -26.8398,26.9668 -2.1619,2.8294 -4.1158,5.686 -5.8457,8.5195 l -2.7323,4.666 -2.7305,-4.666 c -1.7299,-2.8334 -3.6839,-5.6901 -5.8457,-8.5195 -7.8146,-11.0893 -16.6561,-19.969 -26.8399,-26.9668 -14.0212,-10.3133 -32.231,-15.7637 -52.6583,-15.7637 z"
       style="fill:#8f1315;fill-opacity:1"
       sodipodi:nodetypes="sccczzcccscccccccss" />
    <path
       style="fill:#ffffff;fill-rule:evenodd;stroke:none;stroke-width:0.99750191px;stroke-linecap:round;stroke-linejoin:round;stroke-opacity:1"
       d="m -6054.8832,-6002.8097 c 2.3002,14.5661 9.1126,57.2113 11.9599,74.0478 -4.2972,-0.5056 -10.5047,0.1417 -16.2239,5.2418 -5.7192,5.1002 -7.8055,14.4558 -7.7634,18.0134 -15.5209,-2.1411 -18.935,11.7085 -18.996,23.1465 -0.061,11.4379 -0.1734,-17.1737 -0.1734,17.7339 0.5897,26.5396 9.4092,43.7351 23.3182,53.5003 l 0,140.3256 79.7561,0 0,-144.4403 c 18.3485,-15.8001 22.8062,-40 22.875,-47.7487 0.2206,-24.8451 -6.8277,-25.9095 -9.1191,-28.9367 -1.7767,-2.3469 -10.0637,-5.5586 -8.0831,-17.8416 1.9807,-12.283 12.7465,-74.9515 14.5288,-89.7997 1.7824,-14.8483 -27.9024,-20.0151 -30.4486,-4.7193 -2.5462,15.2957 -13.6226,78.4198 -16.4414,78.3788 -2.8188,-0.041 -13.1041,-67.8875 -15.4006,-81.8532 -2.2965,-13.9657 -32.0887,-9.6148 -29.7885,4.9514 z"
       id="path4196-2"
       inkscape:connector-curvature="0"
       sodipodi:nodetypes="zcscscccccssszzzzz"
       inkscape:export-xdpi="90"
       inkscape:export-ydpi="90" />
    <text
       xml:space="preserve"
       style="font-style:normal;font-weight:normal;font-size:35.22338486px;line-height:125%;font-family:sans-serif;letter-spacing:0px;word-spacing:0px;fill:#ffffff;fill-opacity:1;stroke:none;stroke-width:1px;stroke-linecap:butt;stroke-linejoin:miter;stroke-opacity:1"
       x="-2778.2793"
       y="-3470.054"
       id="text5383"
       sodipodi:linespacing="125%"><tspan
         sodipodi:role="line"
         id="tspan5385"
         x="-2778.2793"
         y="-3470.054"
         style="font-style:normal;font-variant:normal;font-weight:normal;font-stretch:normal;font-size:45px;font-family:'Source Sans Pro';-inkscape-font-specification:'Source Sans Pro';fill:#ffffff;fill-opacity:1" /></text>
    <text
       xml:space="preserve"
       style="font-style:normal;font-weight:normal;font-size:35.22338486px;line-height:125%;font-family:sans-serif;letter-spacing:0px;word-spacing:0px;fill:#ffffff;fill-opacity:1;stroke:none;stroke-width:1px;stroke-linecap:butt;stroke-linejoin:miter;stroke-opacity:1"
       x="-3404.7117"
       y="-3470.054"
       id="text5387"
       sodipodi:linespacing="125%"><tspan
         sodipodi:role="line"
         id="tspan5389"
         x="-3404.7117"
         y="-3470.054"
         style="font-style:normal;font-variant:normal;font-weight:normal;font-stretch:normal;font-size:45px;font-family:'Source Sans Pro';-inkscape-font-specification:'Source Sans Pro';fill:#ffffff;fill-opacity:1" /></text>
    <g
       id="g5408"
       transform="translate(3968.7823,1383.3005)">
      <text
         xml:space="preserve"
         style="font-style:normal;font-weight:normal;font-size:35.22338486px;line-height:125%;font-family:sans-serif;letter-spacing:0px;word-spacing:0px;fill:#ffffff;fill-opacity:1;stroke:none;stroke-width:1px;stroke-linecap:butt;stroke-linejoin:miter;stroke-opacity:1"
         x="-4407.9644"
         y="-3230.864"
         id="text3571"
         sodipodi:linespacing="125%"><tspan
           sodipodi:role="line"
           id="tspan3573"
           x="-4407.9644"
           y="-3230.864"
           style="font-style:normal;font-variant:normal;font-weight:normal;font-stretch:normal;font-size:45px;font-family:'Source Sans Pro';-inkscape-font-specification:'Source Sans Pro';fill:#ffffff;fill-opacity:1">Leidenschaftlich entwickeln und gestalten mit <tspan
   style="fill:#bd1a1c;fill-opacity:1"
   id="tspan5421">♥</tspan>.</tspan></text>
    </g>
    <g
       id="g3357"
       style="fill:#ffffff;fill-opacity:1"
       transform="matrix(0.55144907,0,0,0.55144907,-803.2834,-1432.6021)">
      <text
         sodipodi:linespacing="125%"
         id="text4396"
         y="-2128.2795"
         x="57.519817"
         style="font-style:normal;font-weight:normal;font-size:73.45739746px;line-height:125%;font-family:sans-serif;letter-spacing:0px;word-spacing:0px;fill:#ffffff;fill-opacity:1;stroke:none;stroke-width:1px;stroke-linecap:butt;stroke-linejoin:miter;stroke-opacity:1"
         xml:space="preserve"><tspan
           style="font-style:normal;font-variant:normal;font-weight:500;font-stretch:normal;font-size:275.46524048px;font-family:Ubuntu;-inkscape-font-specification:'Ubuntu Medium';fill:#ffffff;fill-opacity:1"
           y="-2128.2795"
           x="57.519817"
           id="tspan4398"
           sodipodi:role="line">JumpLink</tspan></text>
      <text
         sodipodi:linespacing="125%"
         id="text4523"
         y="-1974.5518"
         x="56.473125"
         style="font-style:normal;font-weight:normal;font-size:73.45739746px;line-height:125%;font-family:sans-serif;letter-spacing:0px;word-spacing:0px;fill:#ffffff;fill-opacity:1;stroke:none;stroke-width:1px;stroke-linecap:butt;stroke-linejoin:miter;stroke-opacity:1"
         xml:space="preserve"><tspan
           style="font-style:normal;font-variant:normal;font-weight:normal;font-stretch:normal;font-size:91.82174683px;font-family:Ubuntu;-inkscape-font-specification:Ubuntu;fill:#ffffff;fill-opacity:1"
           y="-1974.5518"
           x="56.473125"
           id="tspan4525"
           sodipodi:role="line">Softwareentwicklung</tspan></text>
    </g>
    <path
       style="fill:#ffffff;fill-opacity:1;stroke:none;stroke-width:0.86226493;stroke-linecap:round;stroke-linejoin:round;stroke-opacity:1"
       d="m -961.114,-2765.0696 a 128.97847,128.97847 0 0 0 -128.9787,128.9787 128.97847,128.97847 0 0 0 94.4874,124.1435 l 0,-29.7775 c -12.4972,-8.774 -20.4208,-24.2244 -20.9506,-48.0701 0,-31.3644 0.1007,-5.6565 0.1555,-15.9334 0.054,-10.2769 3.1224,-22.7206 17.0677,-20.7969 -0.038,-3.1964 1.8367,-11.6026 6.9752,-16.1852 5.1387,-4.5823 10.7162,-5.1639 14.5772,-4.7096 -2.5583,-15.1276 -8.6792,-53.4441 -10.7459,-66.5318 -2.0667,-13.0876 24.7014,-16.9967 26.7648,-4.4487 2.0634,12.5481 11.3047,73.5077 13.8374,73.5443 2.5327,0.037 12.4847,-56.6796 14.7724,-70.4227 2.2877,-13.7433 28.9597,-9.101 27.3581,4.24 -1.6014,13.3412 -11.274,69.6488 -13.0536,80.685 -1.7796,11.0363 5.6663,13.9219 7.2627,16.0306 2.0588,2.72 8.391,3.6762 8.1927,25.9994 -0.062,6.9623 -4.0664,28.7054 -20.5525,42.9017 l 0,32.7228 a 128.97847,128.97847 0 0 0 91.809,-123.3914 128.97847,128.97847 0 0 0 -128.9788,-128.9787 z"
       id="circle4193"
       inkscape:connector-curvature="0" />
    <g
       transform="matrix(1.5005889,0,0,1.5005889,135.9481,-2819.4886)"
       style="fill:#ffffff"
       id="g4932">
      <path
         style="fill:#ffffff"
         inkscape:connector-curvature="0"
         d="m 157.634,134.348 c 0,1.553 -0.282,1.977 -1.976,1.977 l -13.972,0 c -1.694,0 -1.976,-0.424 -1.976,-1.977 l 0,-43.467 c 0,-5.363 -0.564,-11.855 -5.927,-11.855 -5.927,0 -10.584,4.093 -12.419,5.787 l 0,49.536 c 0,1.553 -0.282,1.977 -1.976,1.977 l -13.972,0 c -1.694,0 -1.976,-0.424 -1.976,-1.977 l 0,-43.468 c 0,-5.363 -0.564,-11.855 -5.927,-11.855 -5.927,0 -10.584,4.093 -12.419,5.787 l 0,49.536 c 0,1.553 -0.282,1.977 -1.976,1.977 l -13.972,0 c -1.694,0 -1.976,-0.424 -1.976,-1.977 l 0,-42.621 c 0,-19.899 -2.681,-18.77 -2.681,-22.016 0,-0.706 0.564,-1.27 1.552,-1.552 l 10.726,-3.528 c 0.847,-0.282 1.553,-0.423 2.117,-0.423 1.834,0 2.963,3.105 4.516,9.738 4.234,-3.669 10.443,-9.738 21.593,-9.738 6.068,0 12.701,3.811 14.395,9.738 4.234,-3.669 10.302,-9.738 21.875,-9.738 13.266,0 16.371,10.02 16.371,22.298 l 0,47.841 z"
         id="path4934" />
      <path
         style="fill:#ffffff"
         inkscape:connector-curvature="0"
         d="m 229.046,128.844 c 0.282,0.424 0.423,0.988 0.423,1.553 0,3.67 -14.113,8.326 -25.262,8.326 -18.629,0 -31.613,-10.584 -31.613,-36.552 0,-22.439 11.996,-37.963 30.907,-37.963 23.992,0 28.226,21.452 28.226,38.528 0,2.681 -0.564,3.528 -3.246,3.528 l -37.964,0 c 0,7.902 2.258,17.641 15.524,17.641 10.161,0 15.947,-4.656 17.923,-4.656 0.706,0 1.27,0.564 1.552,1.129 l 3.53,8.466 z M 212.675,93.139 c 0,-5.786 -0.423,-15.806 -10.161,-15.806 -11.008,0 -11.573,11.855 -11.996,15.806 l 22.157,0 z"
         id="path4936" />
      <path
         style="fill:#ffffff"
         inkscape:connector-curvature="0"
         d="m 291.991,138.159 c -0.564,0.141 -1.27,0.564 -1.834,0.564 -1.271,0 -3.387,-4.939 -4.093,-8.467 -2.258,2.117 -8.468,8.467 -18.629,8.467 -16.089,0 -24.133,-12.984 -24.133,-34.436 0,-26.673 9.597,-40.08 27.097,-40.08 7.621,0 10.867,2.682 13.125,4.234 l 0,-28.931 c 0,-2.117 0.988,-2.117 2.682,-2.541 L 298.06,34.57 c 0.424,0 1.694,-0.423 1.976,-0.423 1.129,0 1.411,0.565 1.411,2.964 l 0,77.056 c 0,13.689 2.541,15.525 2.541,18.348 0,0.564 -0.564,0.988 -1.271,1.27 l -10.726,4.374 z m -8.468,-57.016 c -1.27,-0.706 -3.669,-2.823 -9.597,-2.823 -10.584,0 -12.702,7.903 -12.702,23.568 0,15.948 2.682,22.721 11.855,22.721 6.351,0 8.75,-3.104 10.443,-4.939 l 0,-38.527 z"
         id="path4938" />
      <path
         style="fill:#ffffff"
         inkscape:connector-curvature="0"
         d="m 343.645,134.348 c 0,1.553 -0.282,1.977 -1.977,1.977 l -13.971,0 c -1.694,0 -1.976,-0.424 -1.976,-1.977 l 0,-54.617 -10.867,0 c -1.693,0 -1.976,-0.423 -1.976,-1.976 l 0,-9.173 c 0,-1.552 0.283,-1.976 1.976,-1.976 l 26.814,0 c 1.694,0 1.977,0.423 1.977,1.976 l 0,65.766 z m -9.033,-76.914 c -6.492,0 -11.714,-5.222 -11.714,-11.714 0,-6.492 5.222,-11.573 11.714,-11.573 6.351,0 11.572,5.081 11.572,11.573 10e-4,6.491 -5.221,11.714 -11.572,11.714 z"
         id="path4940" />
      <path
         style="fill:#ffffff"
         inkscape:connector-curvature="0"
         d="m 405.457,138.159 c -0.564,0.141 -1.271,0.564 -1.835,0.564 -1.27,0 -3.387,-4.939 -4.093,-8.467 -2.822,2.822 -7.762,8.467 -18.347,8.467 -12.983,0 -21.169,-8.467 -21.169,-21.734 0,-23.85 25.686,-23.85 36.835,-23.85 l 0,-4.375 c 0,-6.351 -1.13,-10.443 -10.021,-10.443 -7.903,0 -15.665,4.234 -17.5,4.234 -0.705,0 -1.271,-0.847 -1.411,-1.411 l -2.822,-8.609 c -0.282,-0.564 -0.424,-1.129 -0.424,-1.693 0,-3.246 13.972,-6.633 24.839,-6.633 17.641,0 24.273,8.044 24.273,22.722 l 0,27.237 c 0,13.689 3.67,15.525 3.67,18.348 0,0.564 -0.564,0.988 -1.271,1.27 l -10.724,4.373 z m -8.608,-33.448 c -3.528,0 -19.899,-1.129 -19.899,11.291 0,5.504 3.951,9.596 9.314,9.596 5.222,0 8.891,-3.67 10.585,-5.363 l 0,-15.524 z"
         id="path4942" />
    </g>
    <path
       style="fill:#ffffff"
       inkscape:connector-curvature="0"
       d="m 264.286,-2525.2171 -10.0465,0 -1.7482,-1.5366 c -21.757,-18.7214 -67.7891,-73.976 -90.3969,-117.9478 -16.8997,-32.8539 -26.1853,-66.2915 -26.1463,-94.159 0.027,-18.7438 5.4771,-52.8987 41.6879,-71.0513 13.5773,-6.19 29.3605,-9.5768 44.5224,-9.5768 19.2211,0 36.3548,5.1275 49.548,14.8318 11.3729,7.8151 20.9722,18.1121 29.281,31.4359 1.298,2.1668 2.5465,4.4132 3.777,6.8036 l 2.8376,-4.8484 c 12.788,-20.9452 38.424,-43.286 72.0943,-43.286 0.7427,0 1.4855,0.011 2.2358,0.032 l 0.2927,0 c 33.0309,0 63.3203,19.005 70.4571,44.2059 l 0.3676,1.6912 -4.8379,0 c -11.3894,-23.6313 -38.2245,-39.2389 -66.263,-38.2155 -28.6222,0.123 -46.038,18.001 -60.1196,34.7506 -6.4075,7.638 -12.974,22.2837 -15.0644,29.4836 l -1.7316,5.9693 -2.7281,-5.5852 c -23.4077,-47.8823 -54.8435,-55.0326 -71.5001,-55.0326 -10.9438,0 -21.826,2.9262 -29.8587,8.0297 -18.5128,11.7706 -22.6724,36.6864 -22.902,55.5173 -0.3316,27.2131 6.4706,57.3 12.9426,76.3814 12.1428,35.7921 43.364,92.8925 69.6018,127.292 l 2.9427,3.8565 0.7548,0.9559 z"
       id="path4944" />
    <g
       transform="matrix(1.5005889,0,0,1.5005889,135.9481,-2819.4886)"
       style="fill:#ffffff"
       id="g4946">
      <path
         style="fill:#ffffff"
         inkscape:connector-curvature="0"
         d="m 111.777,195.155 c 0.084,0.295 0.168,0.506 0.21,0.715 0,0.211 -0.168,0.252 -0.588,0.252 l -2.605,0 c -0.504,0 -0.672,-0.168 -0.756,-0.461 l -2.353,-8.111 -8.615,0 -2.143,8.111 c -0.084,0.293 -0.252,0.461 -0.757,0.461 l -2.605,0 c -0.42,0 -0.588,-0.041 -0.588,-0.252 0.042,-0.209 0.084,-0.42 0.21,-0.715 L 99.592,167.8 c 0.126,-0.42 0.168,-0.463 0.63,-0.463 l 2.479,0 c 0.336,0 0.462,0 0.63,0.463 l 8.446,27.355 z m -9.413,-19.834 c -0.336,-1.303 -0.756,-2.816 -0.967,-3.992 l -0.084,0 c -0.168,1.008 -0.588,2.857 -0.882,3.992 l -2.563,9.287 7.018,0 -2.522,-9.287 z"
         id="path4948" />
      <path
         style="fill:#ffffff"
         inkscape:connector-curvature="0"
         d="m 129.767,188.012 c 0,2.354 0.294,7.27 0.294,9.539 0,3.824 -1.723,7.396 -7.396,7.396 -3.151,0 -7.06,-1.43 -7.06,-2.229 0,-0.209 0.042,-0.293 0.168,-0.547 l 0.672,-1.428 c 0.042,-0.127 0.126,-0.252 0.294,-0.252 0.336,0 2.858,1.639 5.757,1.639 3.908,0 4.371,-2.27 4.371,-4.539 0,-2.1 -0.126,-3.824 -0.126,-4.328 -0.966,0.799 -2.899,2.313 -5.715,2.313 -3.824,0 -6.472,-3.363 -6.472,-9.287 0,-6.598 2.563,-10.926 7.9,-10.926 2.773,0 4.413,1.387 4.958,1.807 0.378,-1.051 0.841,-1.807 1.219,-1.807 0.168,0 0.294,0.041 0.378,0.084 l 1.891,1.176 c 0.168,0.127 0.168,0.168 0.168,0.252 0,0.336 -0.378,0.547 -0.756,1.555 -0.378,1.051 -0.546,1.598 -0.546,3.109 l 0,6.473 z m -3.194,-8.699 c -0.714,-0.336 -2.185,-1.135 -3.866,-1.135 -3.193,0 -4.707,2.816 -4.707,7.313 0,4.453 0.799,7.27 3.656,7.27 2.185,0 3.95,-1.43 4.917,-2.102 l 0,-11.346 z"
         id="path4950" />
      <path
         style="fill:#ffffff"
         inkscape:connector-curvature="0"
         d="m 149.815,194.19 c 0.042,0.125 0.126,0.209 0.126,0.336 0,0.461 -3.53,2.184 -6.64,2.184 -5.589,-0.041 -8.867,-4.285 -8.867,-10.674 0,-6.176 3.109,-10.672 8.32,-10.672 7.018,0 7.648,6.807 7.648,10.42 0,0.59 0,0.926 -0.462,0.926 l -12.061,0 c 0,2.563 1.008,7.186 5.799,7.186 2.731,0 4.917,-1.723 5.169,-1.723 0.126,0 0.168,0.125 0.252,0.252 l 0.716,1.765 z m -2.857,-10.086 c 0,-2.186 -0.714,-6.137 -4.37,-6.137 -3.866,0 -4.707,4.035 -4.707,6.137 l 9.077,0 z"
         id="path4952" />
      <path
         style="fill:#ffffff"
         inkscape:connector-curvature="0"
         d="m 170.452,195.618 c 0,0.336 -0.168,0.504 -0.504,0.504 l -2.185,0 c -0.336,0 -0.504,-0.168 -0.504,-0.504 l 0,-14.035 c 0,-1.807 -0.462,-3.404 -2.731,-3.404 -2.731,0 -4.496,1.639 -5.547,2.564 l 0,14.875 c 0,0.336 -0.168,0.504 -0.504,0.504 l -2.185,0 c -0.336,0 -0.504,-0.168 -0.504,-0.504 l 0,-14.498 c 0,-1.387 0,-1.85 -0.168,-2.479 -0.336,-1.262 -0.672,-1.555 -0.672,-1.766 0,-0.084 0.042,-0.168 0.21,-0.295 l 1.891,-1.049 c 0.084,-0.043 0.21,-0.168 0.336,-0.168 0.756,0 1.261,2.52 1.303,2.857 1.387,-1.094 3.572,-2.857 6.766,-2.857 4.665,0 5,3.277 5,6.303 l 0,13.952 z"
         id="path4954" />
      <path
         style="fill:#ffffff"
         inkscape:connector-curvature="0"
         d="m 187.853,194.567 c 0.042,0.168 0.084,0.295 0.084,0.42 0,0.547 -3.152,1.723 -5.421,1.723 -1.807,0 -3.32,-0.672 -3.95,-1.471 -1.219,-1.303 -1.219,-3.193 -1.219,-4.748 l 0,-11.934 -3.152,0 c -0.294,0 -0.294,-0.295 -0.294,-0.504 l 0,-1.598 c 0,-0.295 0,-0.504 0.294,-0.504 l 3.152,0 0,-5.758 c 0,-0.252 0.168,-0.42 0.462,-0.504 l 2.227,-0.631 c 0.126,0 0.21,-0.041 0.294,-0.041 0.21,0 0.21,0.209 0.21,0.461 l 0,6.473 6.219,0 c 0.252,0 0.462,0.041 0.462,0.293 0,0.084 -0.042,0.168 -0.042,0.295 l -0.546,1.639 c -0.084,0.211 -0.294,0.379 -0.546,0.379 l -5.547,0 0,11.934 c 0,1.682 0,3.404 2.521,3.404 1.975,0 3.656,-1.135 4.034,-1.135 0.168,0 0.294,0.127 0.294,0.252 l 0.464,1.555 z"
         id="path4956" />
      <path
         style="fill:#ffffff"
         inkscape:connector-curvature="0"
         d="m 202.479,176.456 c 0,-0.295 0.126,-0.463 0.294,-0.504 l 2.101,-0.504 c 0.336,-0.084 0.21,-0.043 0.504,-0.084 0.294,0 0.294,0.336 0.294,0.545 l 0,14.961 c 0,0.967 0.042,1.891 0.462,2.773 0.252,0.504 0.798,1.344 0.798,1.596 0,0.168 -0.21,0.254 -0.378,0.338 l -1.639,1.008 c -0.168,0.084 -0.252,0.125 -0.336,0.125 -0.63,0 -1.093,-1.512 -1.555,-2.479 -1.176,0.967 -3.446,2.479 -5.841,2.479 -5.673,0 -6.135,-3.277 -6.135,-6.303 l 0,-13.951 c 0,-0.295 0.126,-0.463 0.294,-0.504 l 2.101,-0.504 c 0.336,-0.084 0.21,-0.043 0.504,-0.084 0.294,0 0.294,0.336 0.294,0.545 l 0,14.582 c 0,1.807 0.714,3.404 3.446,3.404 1.303,0 3.992,-1.387 4.791,-2.143 l 0,-15.296 z"
         id="path4958" />
      <path
         style="fill:#ffffff"
         inkscape:connector-curvature="0"
         d="m 215.762,195.618 c 0,0.336 -0.168,0.504 -0.504,0.504 l -2.185,0 c -0.336,0 -0.504,-0.168 -0.504,-0.504 l 0,-14.414 c 0,-0.756 -0.126,-2.143 -0.714,-3.193 -0.336,-0.588 -0.462,-0.924 -0.462,-1.051 0.042,-0.252 0.21,-0.379 0.294,-0.42 l 1.555,-0.967 c 0.168,-0.125 0.336,-0.209 0.42,-0.209 0.756,0 1.471,2.604 1.639,3.529 1.093,-1.178 2.605,-3.529 5.043,-3.529 0.966,0 2.059,0.336 2.059,0.713 0,0.084 -0.084,0.211 -0.126,0.336 l -0.925,2.145 c -0.042,0.084 -0.084,0.293 -0.252,0.293 -0.21,0 -0.588,-0.377 -1.387,-0.377 -1.471,0 -2.941,2.184 -3.95,3.277 l 0,13.867 z"
         id="path4960" />
      <path
         style="fill:#ffffff"
         inkscape:connector-curvature="0"
         d="m 242.155,195.618 c 0,0.336 -0.168,0.504 -0.504,0.504 l -2.185,0 c -0.336,0 -0.504,-0.168 -0.504,-0.504 l 0,-17.061 -2.941,0 c -0.294,0 -0.294,-0.295 -0.294,-0.504 l 0,-1.598 c 0,-0.295 0,-0.504 0.294,-0.504 l 2.941,0 0,-3.277 c 0,-3.152 0.63,-6.977 5.841,-6.977 1.933,0 4.623,0.84 4.623,1.471 0,0.127 -0.126,0.295 -0.21,0.588 l -0.588,1.387 c -0.084,0.127 -0.168,0.252 -0.294,0.252 -0.714,0 -1.891,-0.883 -3.656,-0.883 -2.354,0 -2.521,1.766 -2.521,4.203 l 0,3.236 6.051,0 c 0.252,0 0.462,0.041 0.462,0.293 0,0.084 -0.042,0.168 -0.042,0.295 l -0.546,1.639 c -0.084,0.211 -0.294,0.379 -0.546,0.379 l -5.379,0 0,17.061 z"
         id="path4962" />
      <path
         style="fill:#ffffff"
         inkscape:connector-curvature="0"
         d="m 262.413,176.456 c 0,-0.295 0.126,-0.463 0.294,-0.504 l 2.101,-0.504 c 0.336,-0.084 0.21,-0.043 0.504,-0.084 0.294,0 0.294,0.336 0.294,0.545 l 0,14.961 c 0,0.967 0.042,1.891 0.462,2.773 0.252,0.504 0.798,1.344 0.798,1.596 0,0.168 -0.21,0.254 -0.378,0.338 l -1.639,1.008 c -0.168,0.084 -0.252,0.125 -0.336,0.125 -0.63,0 -1.093,-1.512 -1.555,-2.479 -1.176,0.967 -3.446,2.479 -5.841,2.479 -5.673,0 -6.135,-3.277 -6.135,-6.303 l 0,-13.951 c 0,-0.295 0.126,-0.463 0.294,-0.504 l 2.101,-0.504 c 0.336,-0.084 0.21,-0.043 0.504,-0.084 0.294,0 0.294,0.336 0.294,0.545 l 0,14.582 c 0,1.807 0.714,3.404 3.446,3.404 1.303,0 3.992,-1.387 4.791,-2.143 l 0,-15.296 z m -8.321,-4.539 c -1.219,0 -2.227,-1.008 -2.227,-2.227 0,-1.219 1.008,-2.227 2.227,-2.227 1.261,0 2.228,1.008 2.228,2.227 0,1.219 -0.967,2.227 -2.228,2.227 z m 8.278,-4.454 c 1.219,0 2.228,1.008 2.228,2.227 0,1.219 -1.009,2.227 -2.228,2.227 -1.218,0 -2.227,-1.008 -2.227,-2.227 0,-1.219 1.009,-2.227 2.227,-2.227 z"
         id="path4964" />
      <path
         style="fill:#ffffff"
         inkscape:connector-curvature="0"
         d="m 275.695,195.618 c 0,0.336 -0.168,0.504 -0.504,0.504 l -2.185,0 c -0.336,0 -0.504,-0.168 -0.504,-0.504 l 0,-14.414 c 0,-0.756 -0.126,-2.143 -0.714,-3.193 -0.336,-0.588 -0.462,-0.924 -0.462,-1.051 0.042,-0.252 0.21,-0.379 0.294,-0.42 l 1.555,-0.967 c 0.168,-0.125 0.336,-0.209 0.42,-0.209 0.756,0 1.471,2.604 1.639,3.529 1.093,-1.178 2.605,-3.529 5.043,-3.529 0.966,0 2.059,0.336 2.059,0.713 0,0.084 -0.084,0.211 -0.126,0.336 l -0.925,2.145 c -0.042,0.084 -0.084,0.293 -0.252,0.293 -0.21,0 -0.588,-0.377 -1.387,-0.377 -1.471,0 -2.941,2.184 -3.95,3.277 l 0,13.867 z"
         id="path4966" />
      <path
         style="fill:#ffffff"
         inkscape:connector-curvature="0"
         d="m 305.03,195.913 c -0.042,0.209 -0.126,0.504 -0.378,0.504 l -3.026,0 c -0.378,0 -0.42,-0.252 -0.42,-0.504 l -5.169,-27.4 c -0.042,-0.168 -0.084,-0.377 -0.084,-0.504 0,-0.252 0.336,-0.293 0.462,-0.336 l 2.059,-0.504 c 0.168,-0.043 0.42,-0.127 0.546,-0.127 0.21,0 0.294,0.379 0.336,0.758 l 3.572,20.465 c 0.126,0.756 0.252,3.32 0.336,4.453 l 0.084,0 c 0.126,-1.639 0.21,-3.15 0.504,-4.705 l 4.034,-20.172 c 0.042,-0.252 0.084,-0.504 0.378,-0.504 l 2.647,0 c 0.294,0 0.378,0.252 0.42,0.504 l 3.488,20.76 c 0.168,1.051 0.42,2.646 0.42,4.117 l 0.084,0 c 0.084,-1.387 0.084,-3.025 0.294,-4.16 l 3.824,-20.758 c 0.084,-0.379 0.126,-0.758 0.336,-0.758 0.126,0 0.378,0.084 0.588,0.127 l 2.017,0.504 c 0.294,0.084 0.462,0.127 0.462,0.336 0,0.127 -0.042,0.336 -0.084,0.504 l -5.757,27.4 c -0.042,0.209 -0.084,0.504 -0.42,0.504 l -3.152,0 c -0.294,0 -0.378,-0.168 -0.42,-0.504 l -3.53,-23.238 -0.081,0 -4.37,23.238 z"
         id="path4968" />
      <path
         style="fill:#ffffff"
         inkscape:connector-curvature="0"
         d="m 339.83,194.19 c 0.042,0.125 0.126,0.209 0.126,0.336 0,0.461 -3.53,2.184 -6.64,2.184 -5.589,-0.041 -8.867,-4.285 -8.867,-10.674 0,-6.176 3.109,-10.672 8.32,-10.672 7.019,0 7.648,6.807 7.648,10.42 0,0.59 0,0.926 -0.462,0.926 l -12.061,0 c 0,2.563 1.008,7.186 5.799,7.186 2.731,0 4.917,-1.723 5.169,-1.723 0.126,0 0.168,0.125 0.252,0.252 l 0.716,1.765 z m -2.857,-10.086 c 0,-2.186 -0.715,-6.137 -4.371,-6.137 -3.866,0 -4.706,4.035 -4.706,6.137 l 9.077,0 z"
         id="path4970" />
      <path
         style="fill:#ffffff"
         inkscape:connector-curvature="0"
         d="m 348.91,195.618 c 0,0.336 -0.168,0.504 -0.504,0.504 l -2.186,0 c -0.336,0 -0.504,-0.168 -0.504,-0.504 l 0,-14.414 c 0,-0.756 -0.126,-2.143 -0.715,-3.193 -0.336,-0.588 -0.462,-0.924 -0.462,-1.051 0.042,-0.252 0.21,-0.379 0.294,-0.42 l 1.555,-0.967 c 0.168,-0.125 0.336,-0.209 0.42,-0.209 0.757,0 1.472,2.604 1.64,3.529 1.093,-1.178 2.605,-3.529 5.042,-3.529 0.967,0 2.06,0.336 2.06,0.713 0,0.084 -0.084,0.211 -0.126,0.336 l -0.925,2.145 c -0.042,0.084 -0.084,0.293 -0.252,0.293 -0.21,0 -0.588,-0.377 -1.387,-0.377 -1.471,0 -2.941,2.184 -3.95,3.277 l 0,13.867 z"
         id="path4972" />
      <path
         style="fill:#ffffff"
         inkscape:connector-curvature="0"
         d="m 362.106,177.506 c 1.135,-1.178 3.404,-2.143 5.337,-2.143 5.085,0 6.808,4.244 6.808,9.412 0,6.051 -1.597,11.934 -7.186,11.934 -2.942,0 -4.497,-0.756 -5.842,-2.059 -0.21,0.588 -0.882,2.059 -1.345,2.059 -0.168,0 -0.42,-0.168 -0.588,-0.293 l -1.051,-0.672 c -0.336,-0.211 -0.63,-0.338 -0.63,-0.547 0,-0.211 0.336,-0.504 0.63,-1.219 0.378,-0.672 0.673,-1.639 0.673,-2.984 l 0,-24.204 c 0,-0.293 0.126,-0.461 0.294,-0.504 l 2.101,-0.504 c 0.337,-0.084 0.211,-0.043 0.505,-0.084 0.294,0 0.294,0.336 0.294,0.547 l 0,11.261 z m 0,14.791 c 0.967,0.674 2.521,1.598 4.37,1.598 3.95,0 4.328,-4.832 4.328,-9.203 0,-3.236 -0.336,-6.514 -3.739,-6.514 -2.438,0 -3.236,0.924 -4.959,2.102 l 0,12.017 z"
         id="path4974" />
      <path
         style="fill:#ffffff"
         inkscape:connector-curvature="0"
         d="m 390.896,176.456 c 0,-0.295 0.126,-0.463 0.294,-0.504 l 2.102,-0.504 c 0.336,-0.084 0.21,-0.043 0.504,-0.084 0.294,0 0.294,0.336 0.294,0.545 l 0,14.961 c 0,0.967 0.042,1.891 0.463,2.773 0.252,0.504 0.798,1.344 0.798,1.596 0,0.168 -0.21,0.254 -0.378,0.338 l -1.639,1.008 c -0.169,0.084 -0.253,0.125 -0.337,0.125 -0.63,0 -1.092,-1.512 -1.555,-2.479 -1.177,0.967 -3.445,2.479 -5.841,2.479 -5.673,0 -6.136,-3.277 -6.136,-6.303 l 0,-13.951 c 0,-0.295 0.126,-0.463 0.294,-0.504 l 2.102,-0.504 c 0.336,-0.084 0.21,-0.043 0.504,-0.084 0.295,0 0.295,0.336 0.295,0.545 l 0,14.582 c 0,1.807 0.714,3.404 3.445,3.404 1.303,0 3.992,-1.387 4.791,-2.143 l 0,-15.296 z"
         id="path4976" />
      <path
         style="fill:#ffffff"
         inkscape:connector-curvature="0"
         d="m 415.735,195.618 c 0,0.336 -0.169,0.504 -0.505,0.504 l -2.185,0 c -0.337,0 -0.505,-0.168 -0.505,-0.504 l 0,-14.035 c 0,-1.807 -0.462,-3.404 -2.731,-3.404 -2.731,0 -4.496,1.639 -5.547,2.564 l 0,14.875 c 0,0.336 -0.168,0.504 -0.504,0.504 l -2.186,0 c -0.336,0 -0.504,-0.168 -0.504,-0.504 l 0,-14.498 c 0,-1.387 0,-1.85 -0.168,-2.479 -0.337,-1.262 -0.673,-1.555 -0.673,-1.766 0,-0.084 0.042,-0.168 0.21,-0.295 l 1.892,-1.049 c 0.084,-0.043 0.21,-0.168 0.336,-0.168 0.756,0 1.261,2.52 1.303,2.857 1.387,-1.094 3.572,-2.857 6.766,-2.857 4.664,0 5.001,3.277 5.001,6.303 l 0,13.952 z"
         id="path4978" />
      <path
         style="fill:#ffffff"
         inkscape:connector-curvature="0"
         d="m 435.826,188.012 c 0,2.354 0.294,7.27 0.294,9.539 0,3.824 -1.723,7.396 -7.396,7.396 -3.152,0 -7.061,-1.43 -7.061,-2.229 0,-0.209 0.042,-0.293 0.168,-0.547 l 0.673,-1.428 c 0.042,-0.127 0.126,-0.252 0.294,-0.252 0.336,0 2.857,1.639 5.758,1.639 3.907,0 4.37,-2.27 4.37,-4.539 0,-2.1 -0.126,-3.824 -0.126,-4.328 -0.967,0.799 -2.9,2.313 -5.716,2.313 -3.823,0 -6.471,-3.363 -6.471,-9.287 0,-6.598 2.563,-10.926 7.899,-10.926 2.774,0 4.413,1.387 4.959,1.807 0.378,-1.051 0.841,-1.807 1.219,-1.807 0.168,0 0.294,0.041 0.378,0.084 l 1.892,1.176 c 0.168,0.127 0.168,0.168 0.168,0.252 0,0.336 -0.378,0.547 -0.757,1.555 -0.378,1.051 -0.546,1.598 -0.546,3.109 l 0,6.473 z m -3.193,-8.699 c -0.715,-0.336 -2.186,-1.135 -3.866,-1.135 -3.194,0 -4.707,2.816 -4.707,7.313 0,4.453 0.799,7.27 3.656,7.27 2.185,0 3.95,-1.43 4.917,-2.102 l 0,-11.346 z"
         id="path4980" />
      <path
         style="fill:#ffffff"
         inkscape:connector-curvature="0"
         d="m 466.424,176.456 c 0,-0.295 0.126,-0.463 0.294,-0.504 l 2.102,-0.504 c 0.336,-0.084 0.21,-0.043 0.504,-0.084 0.294,0 0.294,0.336 0.294,0.545 l 0,14.961 c 0,0.967 0.042,1.891 0.463,2.773 0.252,0.504 0.798,1.344 0.798,1.596 0,0.168 -0.21,0.254 -0.378,0.338 l -1.639,1.008 c -0.169,0.084 -0.253,0.125 -0.337,0.125 -0.63,0 -1.092,-1.512 -1.555,-2.479 -1.177,0.967 -3.445,2.479 -5.841,2.479 -5.673,0 -6.136,-3.277 -6.136,-6.303 l 0,-13.951 c 0,-0.295 0.126,-0.463 0.294,-0.504 l 2.102,-0.504 c 0.336,-0.084 0.21,-0.043 0.504,-0.084 0.295,0 0.295,0.336 0.295,0.545 l 0,14.582 c 0,1.807 0.714,3.404 3.445,3.404 1.303,0 3.992,-1.387 4.791,-2.143 l 0,-15.296 z"
         id="path4982" />
      <path
         style="fill:#ffffff"
         inkscape:connector-curvature="0"
         d="m 491.263,195.618 c 0,0.336 -0.169,0.504 -0.505,0.504 l -2.185,0 c -0.337,0 -0.505,-0.168 -0.505,-0.504 l 0,-14.035 c 0,-1.807 -0.462,-3.404 -2.731,-3.404 -2.731,0 -4.496,1.639 -5.547,2.564 l 0,14.875 c 0,0.336 -0.168,0.504 -0.504,0.504 l -2.186,0 c -0.336,0 -0.504,-0.168 -0.504,-0.504 l 0,-14.498 c 0,-1.387 0,-1.85 -0.168,-2.479 -0.337,-1.262 -0.673,-1.555 -0.673,-1.766 0,-0.084 0.042,-0.168 0.21,-0.295 l 1.892,-1.049 c 0.084,-0.043 0.21,-0.168 0.336,-0.168 0.756,0 1.261,2.52 1.303,2.857 1.387,-1.094 3.572,-2.857 6.766,-2.857 4.664,0 5.001,3.277 5.001,6.303 l 0,13.952 z"
         id="path4984" />
      <path
         style="fill:#ffffff"
         inkscape:connector-curvature="0"
         d="m 511.521,189.483 c 0,1.891 0,3.15 0.462,4.201 0.211,0.506 0.757,1.303 0.757,1.555 0,0.168 -0.21,0.254 -0.378,0.338 l -1.64,1.008 c -0.168,0.084 -0.252,0.125 -0.336,0.125 -0.588,0 -1.345,-1.807 -1.513,-2.479 -1.009,0.715 -3.067,2.479 -6.178,2.479 -4.496,0 -6.555,-5.041 -6.555,-10.252 0,-6.053 2.143,-11.094 7.018,-11.094 2.605,0 4.034,0.713 5.169,1.428 l 0,-10.002 c 0,-0.293 0.126,-0.461 0.294,-0.504 l 2.059,-0.504 c 0.337,-0.084 0.211,-0.043 0.505,-0.084 0.336,0 0.336,0.336 0.336,0.547 l 0,23.238 z m -3.193,-9.918 c -1.345,-0.715 -2.689,-1.387 -4.791,-1.387 -3.614,0 -3.95,4.119 -3.95,8.195 0,3.529 0.294,7.521 3.698,7.521 2.186,0 4.034,-1.85 5.043,-2.48 l 0,-11.849 z"
         id="path4986" />
      <path
         style="fill:#ffffff"
         inkscape:connector-curvature="0"
         d="m 552.33,195.618 c 0,0.336 -0.168,0.504 -0.504,0.504 l -2.438,0 c -0.336,0 -0.504,-0.168 -0.504,-0.504 l -0.673,-21.6 c -0.042,-0.84 0,-1.891 0.042,-2.605 l -0.084,-0.084 c -0.042,0.924 -0.168,1.975 -0.504,2.984 l -5.085,14.623 c -0.168,0.379 -0.252,0.463 -0.63,0.463 l -1.261,0 c -0.378,0 -0.505,-0.084 -0.631,-0.463 l -4.874,-14.623 c -0.336,-1.01 -0.463,-2.061 -0.505,-2.984 l -0.084,0.084 c 0.042,0.715 0.084,1.766 0.042,2.605 l -0.63,21.6 c 0,0.336 -0.168,0.504 -0.505,0.504 l -2.437,0 c -0.337,0 -0.505,-0.168 -0.505,-0.504 l 1.598,-27.777 c 0,-0.336 0.168,-0.504 0.504,-0.504 l 2.731,0 c 0.336,0 0.336,0.084 0.462,0.42 l 4.959,14.498 c 0.21,0.631 0.378,1.682 0.546,2.605 l 0.084,0 c 0.211,-0.883 0.379,-1.975 0.589,-2.605 l 4.959,-14.498 c 0.126,-0.336 0.126,-0.42 0.462,-0.42 l 2.731,0 c 0.336,0 0.504,0.168 0.504,0.504 l 1.641,27.777 z"
         id="path4988" />
      <path
         style="fill:#ffffff"
         inkscape:connector-curvature="0"
         d="m 571.876,194.19 c 0.042,0.125 0.126,0.209 0.126,0.336 0,0.461 -3.53,2.184 -6.64,2.184 -5.589,-0.041 -8.867,-4.285 -8.867,-10.674 0,-6.176 3.11,-10.672 8.321,-10.672 7.018,0 7.647,6.807 7.647,10.42 0,0.59 0,0.926 -0.462,0.926 l -12.061,0 c 0,2.563 1.009,7.186 5.799,7.186 2.731,0 4.917,-1.723 5.169,-1.723 0.126,0 0.168,0.125 0.252,0.252 l 0.716,1.765 z m -2.857,-10.086 c 0,-2.186 -0.715,-6.137 -4.371,-6.137 -3.866,0 -4.706,4.035 -4.706,6.137 l 9.077,0 z"
         id="path4990" />
      <path
         style="fill:#ffffff"
         inkscape:connector-curvature="0"
         d="m 591.714,189.483 c 0,1.891 0,3.15 0.462,4.201 0.211,0.506 0.757,1.303 0.757,1.555 0,0.168 -0.21,0.254 -0.378,0.338 l -1.64,1.008 c -0.168,0.084 -0.252,0.125 -0.336,0.125 -0.588,0 -1.345,-1.807 -1.513,-2.479 -1.009,0.715 -3.067,2.479 -6.178,2.479 -4.496,0 -6.555,-5.041 -6.555,-10.252 0,-6.053 2.143,-11.094 7.018,-11.094 2.605,0 4.034,0.713 5.169,1.428 l 0,-10.002 c 0,-0.293 0.126,-0.461 0.294,-0.504 l 2.059,-0.504 c 0.337,-0.084 0.211,-0.043 0.505,-0.084 0.336,0 0.336,0.336 0.336,0.547 l 0,23.238 z m -3.193,-9.918 c -1.345,-0.715 -2.689,-1.387 -4.791,-1.387 -3.614,0 -3.95,4.119 -3.95,8.195 0,3.529 0.294,7.521 3.698,7.521 2.186,0 4.034,-1.85 5.043,-2.48 l 0,-11.849 z"
         id="path4992" />
      <path
         style="fill:#ffffff"
         inkscape:connector-curvature="0"
         d="m 603.189,195.618 c 0,0.336 -0.168,0.504 -0.504,0.504 l -2.185,0 c -0.336,0 -0.504,-0.168 -0.504,-0.504 l 0,-17.061 -3.278,0 c -0.336,0 -0.504,-0.168 -0.504,-0.504 l 0,-1.598 c 0,-0.336 0.168,-0.504 0.504,-0.504 l 5.926,0 c 0.462,0 0.546,0.252 0.546,0.629 l 0,19.038 z m -1.806,-24.5 c -1.429,0 -2.563,-1.133 -2.563,-2.563 0,-1.43 1.135,-2.563 2.563,-2.563 1.428,0 2.563,1.176 2.563,2.563 0,1.387 -1.134,2.563 -2.563,2.563 z"
         id="path4994" />
      <path
         style="fill:#ffffff"
         inkscape:connector-curvature="0"
         d="m 623.279,194.19 c 0.042,0.125 0.126,0.209 0.126,0.336 0,0.461 -3.53,2.184 -6.64,2.184 -5.589,-0.041 -8.867,-4.285 -8.867,-10.674 0,-6.176 3.11,-10.672 8.32,-10.672 7.019,0 7.648,6.807 7.648,10.42 0,0.59 0,0.926 -0.462,0.926 l -12.061,0 c 0,2.563 1.009,7.186 5.799,7.186 2.731,0 4.917,-1.723 5.169,-1.723 0.126,0 0.168,0.125 0.252,0.252 l 0.716,1.765 z m -2.857,-10.086 c 0,-2.186 -0.715,-6.137 -4.371,-6.137 -3.865,0 -4.706,4.035 -4.706,6.137 l 9.077,0 z"
         id="path4996" />
      <path
         style="fill:#ffffff"
         inkscape:connector-curvature="0"
         d="m 643.916,195.618 c 0,0.336 -0.168,0.504 -0.505,0.504 l -2.185,0 c -0.337,0 -0.505,-0.168 -0.505,-0.504 l 0,-14.035 c 0,-1.807 -0.462,-3.404 -2.731,-3.404 -2.731,0 -4.496,1.639 -5.547,2.564 l 0,14.875 c 0,0.336 -0.168,0.504 -0.504,0.504 l -2.186,0 c -0.336,0 -0.504,-0.168 -0.504,-0.504 l 0,-14.498 c 0,-1.387 0,-1.85 -0.168,-2.479 -0.337,-1.262 -0.673,-1.555 -0.673,-1.766 0,-0.084 0.042,-0.168 0.21,-0.295 l 1.892,-1.049 c 0.084,-0.043 0.21,-0.168 0.336,-0.168 0.756,0 1.261,2.52 1.303,2.857 1.387,-1.094 3.572,-2.857 6.766,-2.857 4.664,0 5.001,3.277 5.001,6.303 l 0,13.952 z"
         id="path4998" />
    </g>
    <g
       transform="matrix(1.5005889,0,0,1.5005889,135.9481,-2819.4886)"
       style="fill:#ffffff"
       id="g5000">
      <path
         style="fill:#ffffff"
         inkscape:connector-curvature="0"
         d="m 526.897,134.348 c 0,1.553 -0.281,1.977 -1.975,1.977 l -13.972,0 c -1.693,0 -1.976,-0.424 -1.976,-1.977 l 0,-43.467 c 0,-5.363 -0.564,-11.855 -5.927,-11.855 -5.928,0 -10.585,4.093 -12.42,5.787 l 0,49.536 c 0,1.553 -0.282,1.977 -1.976,1.977 l -13.972,0 c -1.693,0 -1.977,-0.424 -1.977,-1.977 l 0,-43.468 c 0,-5.363 -0.564,-11.855 -5.927,-11.855 -5.927,0 -10.585,4.093 -12.419,5.787 l 0,49.536 c 0,1.553 -0.283,1.977 -1.977,1.977 l -13.971,0 c -1.694,0 -1.977,-0.424 -1.977,-1.977 l 0,-42.621 c 0,-19.899 -2.682,-18.77 -2.682,-22.016 0,-0.706 0.564,-1.27 1.553,-1.552 l 10.726,-3.528 c 0.847,-0.282 1.553,-0.423 2.117,-0.423 1.835,0 2.964,3.105 4.517,9.738 4.233,-3.669 10.443,-9.738 21.592,-9.738 6.068,0 12.701,3.811 14.396,9.738 4.233,-3.669 10.302,-9.738 21.875,-9.738 13.267,0 16.37,10.02 16.37,22.298 l 0,47.841 z"
         id="path5002" />
      <path
         style="fill:#ffffff"
         inkscape:connector-curvature="0"
         d="m 572.625,138.723 c -19.052,0 -30.625,-14.535 -30.625,-37.258 0,-22.722 11.573,-37.258 30.625,-37.258 18.911,0 30.625,14.536 30.625,37.258 0,22.723 -11.573,37.258 -30.625,37.258 z m 11.573,-37.258 c 0,-13.125 -1.836,-23.145 -11.573,-23.145 -9.737,0 -11.572,10.02 -11.572,23.145 0,13.125 1.693,23.145 11.572,23.145 9.879,0 11.573,-9.879 11.573,-23.145 z"
         id="path5004" />
      <path
         style="fill:#ffffff"
         inkscape:connector-curvature="0"
         d="m 637.122,134.348 c 0,1.553 -0.283,1.977 -1.977,1.977 l -13.971,0 c -1.694,0 -1.977,-0.424 -1.977,-1.977 l 0,-42.62 c 0,-15.524 -3.67,-18.064 -3.67,-21.311 0,-0.564 0.565,-0.988 1.271,-1.27 l 10.725,-4.375 c 0.564,-0.141 1.271,-0.564 1.835,-0.564 1.694,0 4.517,6.351 5.222,11.149 2.682,-3.246 7.903,-11.149 17.5,-11.149 4.093,0 8.186,1.411 8.186,3.246 0,0.564 -0.141,1.129 -0.282,1.411 l -4.375,11.855 c -0.142,0.423 -0.564,1.27 -1.129,1.27 -0.847,0 -3.388,-1.552 -6.633,-1.552 -4.375,0 -8.892,4.798 -10.726,6.774 l 0,47.136 z"
         id="path5006" />
    </g>
    <g
       transform="matrix(1.5005889,0,0,1.5005889,135.9481,-2819.4886)"
       style="fill:#ffffff"
       id="g5008">
      <linearGradient
         id="SVGID_1_"
         gradientUnits="userSpaceOnUse"
         x1="368.18649"
         y1="133.8452"
         x2="411.98679"
         y2="71.291901">
        <stop
           offset="0.259"
           style="stop-color:#8F1315"
           id="stop5011" />
        <stop
           offset="0.7289"
           style="stop-color:#032F66"
           id="stop5013" />
      </linearGradient>
      <path
         style="fill:#ffffff"
         inkscape:connector-curvature="0"
         d="m 405.769,137.282 c -0.564,0.141 -1.271,0.564 -1.835,0.564 -1.271,0 -3.388,-4.939 -4.093,-8.467 -2.822,2.822 -7.762,8.467 -18.347,8.467 -12.983,0 -21.169,-8.467 -21.169,-21.734 0,-23.85 25.686,-23.85 36.834,-23.85 l 0,-4.375 c 0,-6.351 -1.129,-10.443 -10.02,-10.443 -7.904,0 -15.666,4.234 -17.5,4.234 -0.706,0 -1.271,-0.847 -1.412,-1.411 l -2.822,-8.609 c -0.282,-0.564 -0.424,-1.129 -0.424,-1.693 0,-3.246 13.973,-6.633 24.84,-6.633 17.641,0 24.273,8.044 24.273,22.722 l 0,27.237 c 0,13.689 3.67,15.525 3.67,18.348 0,0.564 -0.564,0.988 -1.271,1.27 l -10.724,4.373 z m -8.61,-33.448 c -3.528,0 -19.898,-1.129 -19.898,11.291 0,5.504 3.951,9.596 9.314,9.596 5.221,0 8.891,-3.67 10.584,-5.363 l 0,-15.524 z"
         id="path5015" />
    </g>
    <text
       sodipodi:linespacing="125%"
       id="text5379"
       y="-2621.6956"
       x="-7.0583"
       style="font-style:normal;font-weight:normal;font-size:40px;line-height:125%;font-family:sans-serif;letter-spacing:0px;word-spacing:0px;fill:#000000;fill-opacity:1;stroke:none;stroke-width:1px;stroke-linecap:butt;stroke-linejoin:miter;stroke-opacity:1"
       xml:space="preserve"><tspan
         style="font-style:normal;font-variant:normal;font-weight:normal;font-stretch:normal;font-size:90px;font-family:Ubuntu;-inkscape-font-specification:Ubuntu;fill:#ffffff"
         y="-2621.6956"
         x="-7.0583"
         id="tspan5381"
         sodipodi:role="line">+</tspan></text>
    <path
       style="fill:#bd1a1c;fill-opacity:1"
       d="m -69.755398,-2304.2013 c -16.1134,0 -32.887002,3.5994 -47.316402,10.1777 -38.4831,19.2918 -44.274,55.5897 -44.3028,75.5098 -0.042,29.6162 9.827,65.1527 27.7871,100.0683 24.0267,46.7313 48.018102,71.4942 96.0684,125.3497 4.9731,5.5739 9.4967,10.5574 13.707,15.0117 l 0,-47.7559 c -13.909,-9.7652 -22.7286,-26.9604 -23.3183,-53.5 0,-34.9076 0.1128,-6.2965 0.1738,-17.7344 0.061,-11.438 3.4752,-25.2875 18.9961,-23.1464 -0.042,-3.5576 2.0445,-12.9116 7.7637,-18.0118 5.7192,-5.1001 11.9253999,-5.7478 16.2226003,-5.2422 -2.8473004,-16.8365 -9.6588003,-59.4827 -11.9590003,-74.0488 -2.3002,-14.5662 27.4906,-18.9168 29.7871,-4.9512 2.2966,13.9657 12.5836,81.8126 15.4024,81.8536 2.818801,0.041 13.895201,-63.0832 16.441401,-78.3789 2.5462,-15.2958 32.229699,-10.1296 30.447299,4.7187 -1.7823,14.8482 -12.5467,77.5178 -14.5274,89.8008 -1.9806,12.283 6.3054,15.4949 8.0821,17.8418 2.2914,3.0272 9.3397,4.0904 9.1191,28.9355 -0.069,7.7487 -4.5265,31.9499 -22.875,47.75 l 0,54.4942 c 5.4836,-5.0551 11.4962,-10.9161 18.2168,-17.6367 55.7399,-55.7399 72.0436,-78.6184 96.0703,-125.3497 17.9601,-34.9156 27.8285,-70.4521 27.7871,-100.0683 -0.029,-19.9201 -5.8196,-56.218 -44.3027,-75.5098 -14.4293,-6.5783 -31.205,-10.1777 -47.3184,-10.1777 -20.4273,0 -38.635,5.4504 -52.6562,15.7637 -10.183699,6.9978 -19.025399,15.8775 -26.8399,26.9668 -2.1619,2.8294 -4.1158,5.686 -5.8457,8.5195 l -2.7324,4.666 -2.7305,-4.666 c -1.7299,-2.8334 -3.6839,-5.6901 -5.8456997,-8.5195 -7.8146,-11.0893 -16.6560004,-19.969 -26.8398003,-26.9668 -14.0212,-10.3133 -32.2309,-15.7637 -52.658198,-15.7637 l 0,0 z"
       id="path3547-0-6-7"
       inkscape:connector-curvature="0" />
  </g>
</svg>
