<?xml version="1.0" encoding="UTF-8" standalone="no"?>
<!-- Created with Inkscape (http://www.inkscape.org/) -->

<svg
   xmlns:dc="http://purl.org/dc/elements/1.1/"
   xmlns:cc="http://creativecommons.org/ns#"
   xmlns:rdf="http://www.w3.org/1999/02/22-rdf-syntax-ns#"
   xmlns:svg="http://www.w3.org/2000/svg"
   xmlns="http://www.w3.org/2000/svg"
   xmlns:sodipodi="http://sodipodi.sourceforge.net/DTD/sodipodi-0.dtd"
   xmlns:inkscape="http://www.inkscape.org/namespaces/inkscape"
   id="svg2"
   version="1.1"
   inkscape:version="0.91 r13725"
   xml:space="preserve"
   width="896.0556"
   height="770.75262"
   viewBox="0 0 896.0556 770.75262"
   sodipodi:docname="multilingual.svg"><metadata
     id="metadata8"><rdf:RDF><cc:Work
         rdf:about=""><dc:format>image/svg+xml</dc:format><dc:type
           rdf:resource="http://purl.org/dc/dcmitype/StillImage" /><dc:title></dc:title></cc:Work></rdf:RDF></metadata><defs
     id="defs6"><clipPath
       clipPathUnits="userSpaceOnUse"
       id="clipPath18"><path
         d="M 0,800 800,800 800,0 0,0 0,800 Z"
         id="path20"
         inkscape:connector-curvature="0" /></clipPath><clipPath
       clipPathUnits="userSpaceOnUse"
       id="clipPath26"><path
         d="m 480.397,403.728 258.925,0 0,-168.548 -258.925,0 0,168.548 z"
         id="path28"
         inkscape:connector-curvature="0" /></clipPath><clipPath
       clipPathUnits="userSpaceOnUse"
       id="clipPath42"><path
         d="m 490.184,396.931 229.566,0 0,-147.615 -229.566,0 0,147.615 z"
         id="path44"
         inkscape:connector-curvature="0" /></clipPath><clipPath
       clipPathUnits="userSpaceOnUse"
       id="clipPath82"><path
         d="M 0,800 800,800 800,0 0,0 0,800 Z"
         id="path84"
         inkscape:connector-curvature="0" /></clipPath><clipPath
       clipPathUnits="userSpaceOnUse"
       id="clipPath122"><path
         d="M 0,800 800,800 800,0 0,0 0,800 Z"
         id="path124"
         inkscape:connector-curvature="0" /></clipPath><clipPath
       clipPathUnits="userSpaceOnUse"
       id="clipPath142"><path
         d="M 0,800 800,800 800,0 0,0 0,800 Z"
         id="path144"
         inkscape:connector-curvature="0" /></clipPath><clipPath
       clipPathUnits="userSpaceOnUse"
       id="clipPath150"><path
         d="m 22.4771,431.152 268.8599,0 0,-176.888 -268.8599,0 0,176.888 z"
         id="path152"
         inkscape:connector-curvature="0" /></clipPath><clipPath
       clipPathUnits="userSpaceOnUse"
       id="clipPath174"><path
         d="M 0,800 800,800 800,0 0,0 0,800 Z"
         id="path176"
         inkscape:connector-curvature="0" /></clipPath><clipPath
       clipPathUnits="userSpaceOnUse"
       id="clipPath182"><path
         d="m 480.927,691.052 257.815,0 0,-216.824 -257.815,0 0,216.824 z"
         id="path184"
         inkscape:connector-curvature="0" /></clipPath><clipPath
       clipPathUnits="userSpaceOnUse"
       id="clipPath206"><path
         d="M 0,800 800,800 800,0 0,0 0,800 Z"
         id="path208"
         inkscape:connector-curvature="0" /></clipPath><clipPath
       clipPathUnits="userSpaceOnUse"
       id="clipPath214"><path
         d="m 399.788,543.533 234.575,0 0,-197.647 -234.575,0 0,197.647 z"
         id="path216"
         inkscape:connector-curvature="0" /></clipPath><clipPath
       clipPathUnits="userSpaceOnUse"
       id="clipPath258"><path
         d="M 0,800 800,800 800,0 0,0 0,800 Z"
         id="path260"
         inkscape:connector-curvature="0" /></clipPath><clipPath
       clipPathUnits="userSpaceOnUse"
       id="clipPath266"><path
         d="m 75.4482,726.965 382.0788,0 0,-338.28 -382.0788,0 0,338.28 z"
         id="path268"
         inkscape:connector-curvature="0" /></clipPath><clipPath
       clipPathUnits="userSpaceOnUse"
       id="clipPath322"><path
         d="M 0,800 800,800 800,0 0,0 0,800 Z"
         id="path324"
         inkscape:connector-curvature="0" /></clipPath><clipPath
       clipPathUnits="userSpaceOnUse"
       id="clipPath330"><path
         d="m 318.584,311.7 233.755,0 0,-201.338 -233.755,0 0,201.338 z"
         id="path332"
         inkscape:connector-curvature="0" /></clipPath><clipPath
       clipPathUnits="userSpaceOnUse"
       id="clipPath374"><path
         d="M 0,800 800,800 800,0 0,0 0,800 Z"
         id="path376"
         inkscape:connector-curvature="0" /></clipPath></defs><sodipodi:namedview
     pagecolor="#ffffff"
     bordercolor="#666666"
     borderopacity="1"
     objecttolerance="10"
     gridtolerance="10"
     guidetolerance="10"
     inkscape:pageopacity="0"
     inkscape:pageshadow="2"
     inkscape:window-width="1680"
     inkscape:window-height="986"
     id="namedview4"
     showgrid="false"
     showguides="false"
     inkscape:zoom="0.6675088"
     inkscape:cx="648.32727"
     inkscape:cy="353.98378"
     inkscape:window-x="0"
     inkscape:window-y="27"
     inkscape:window-maximized="1"
     inkscape:current-layer="g10"
     fit-margin-top="0"
     fit-margin-left="0"
     fit-margin-right="0"
     fit-margin-bottom="0" /><g
     id="g10"
     inkscape:groupmode="layer"
     inkscape:label="10"
     transform="matrix(1.25,0,0,-1.25,-28.096875,908.70625)"><g
       id="g14"><g
         id="g16"
         clip-path="url(#clipPath18)"><g
           id="g22"><g
             id="g24" /><g
             id="g30"
             style="fill:#419641;fill-opacity:1"><g
               clip-path="url(#clipPath26)"
               id="g32"
               style="opacity:0.80000299;fill:#419641;fill-opacity:1"><g
                 transform="translate(700.9043,292.7988)"
                 id="g34"
                 style="fill:#419641;fill-opacity:1"><path
                   d="m 0,0 c 5.926,8.619 8.99,19.487 7.944,30.754 0,0 -1.132,10.528 -2.524,21.072 -1.39,10.543 -3.026,21.006 -3.026,21.006 -1.914,11.152 -7.691,20.854 -15.651,27.642 -7.958,6.787 -18.177,10.781 -28.69,10.434 0,0 -15.093,-0.545 -36.828,-1.916 -10.868,-0.683 -23.611,-1.933 -36.413,-3.623 -12.801,-1.689 -25.432,-3.786 -36.105,-5.943 -21.347,-4.315 -36.064,-7.703 -36.064,-7.703 -10.244,-2.392 -19.077,-8.901 -25.003,-17.52 -5.926,-8.62 -8.99,-19.487 -7.945,-30.755 0,0 1.133,-10.528 2.525,-21.071 1.389,-10.543 3.026,-21.005 3.026,-21.005 1.913,-11.152 7.692,-20.853 15.65,-27.642 7.958,-6.789 22.153,-14.807 32.667,-14.461 0,0 15.091,0.545 36.826,1.915 10.868,0.684 23.611,1.935 36.412,3.624 0,0 37.834,5.002 56.38,6.756 L 38.418,-57.619 0,0 Z"
                   style="fill:#419641;fill-opacity:1;fill-rule:nonzero;stroke:none"
                   id="path36"
                   inkscape:connector-curvature="0" /></g></g></g></g><g
           id="g38"><g
             id="g40" /><g
             id="g46"><g
               clip-path="url(#clipPath42)"
               id="g48"
               style="opacity:0.80000299"><g
                 transform="translate(689.1191,293.6592)"
                 id="g50"><path
                   d="m 0,0 -0.281,0.413 c 0.094,0.135 0.19,0.272 0.286,0.409"
                   style="fill:none;stroke:#ffffff;stroke-width:3;stroke-linecap:round;stroke-linejoin:round;stroke-miterlimit:4;stroke-dasharray:none;stroke-opacity:1"
                   id="path52"
                   inkscape:connector-curvature="0" /></g><g
                 transform="translate(694.2607,303.1855)"
                 id="g54"><path
                   d="M 0,0 C 0.891,1.786 1.723,3.646 2.452,5.541"
                   style="fill:none;stroke:#ffffff;stroke-width:3;stroke-linecap:round;stroke-linejoin:round;stroke-miterlimit:4;stroke-dasharray:1.011, 10.113;stroke-dashoffset:0;stroke-opacity:1"
                   id="path56"
                   inkscape:connector-curvature="0" /></g><g
                 transform="translate(698.3047,313.5254)"
                 id="g58"><path
                   d="m 0,0 c 1.017,3.692 1.521,7.381 1.207,10.777 0,0 -1.006,9.353 -2.247,18.719 -1.239,9.365 -2.704,18.658 -2.704,18.658 -1.714,9.906 -6.949,18.512 -14.176,24.525 -7.226,6.012 -16.514,9.538 -26.08,9.205 0,0 -13.735,-0.52 -33.515,-1.789 -9.89,-0.633 -21.488,-1.774 -33.14,-3.306 -11.653,-1.53 -23.151,-3.424 -32.866,-5.365 -19.434,-3.885 -32.833,-6.931 -32.833,-6.931 -9.327,-2.148 -17.38,-7.953 -22.792,-15.626 -5.413,-7.674 -8.226,-17.337 -7.301,-27.347 0,0 1.005,-9.353 2.246,-18.717 1.24,-9.365 2.705,-18.658 2.705,-18.658 1.715,-9.906 6.949,-18.512 14.174,-24.525 7.226,-6.014 19.128,-11.267 28.695,-10.935 0,0 16.985,0.483 36.765,1.751 9.89,0.633 25.813,3.788 37.466,5.318 0,0 28.989,4.634 45.868,6.236 l 53.349,-22.535"
                   style="fill:none;stroke:#ffffff;stroke-width:3;stroke-linecap:round;stroke-linejoin:round;stroke-miterlimit:4;stroke-dasharray:1.011, 10.113, 1.011, 10.113;stroke-dashoffset:0;stroke-opacity:1"
                   id="path60"
                   inkscape:connector-curvature="0" /></g><g
                 transform="translate(717.7891,251.0107)"
                 id="g62"><path
                   d="M 0,0 0.461,-0.194 0.18,0.219"
                   style="fill:none;stroke:#ffffff;stroke-width:3;stroke-linecap:round;stroke-linejoin:round;stroke-miterlimit:4;stroke-dasharray:none;stroke-opacity:1"
                   id="path64"
                   inkscape:connector-curvature="0" /></g><g
                 transform="translate(711.2598,261.0967)"
                 id="g66"><path
                   d="M 0,0 -4.025,5.921"
                   style="fill:none;stroke:#ffffff;stroke-width:3;stroke-linecap:round;stroke-linejoin:round;stroke-miterlimit:4;stroke-dasharray:1.193, 11.932;stroke-dashoffset:0;stroke-opacity:1"
                   id="path68"
                   inkscape:connector-curvature="0" /></g><g
                 transform="translate(703.8789,271.9512)"
                 id="g70"><path
                   d="M 0,0 -11.405,16.774"
                   style="fill:none;stroke:#ffffff;stroke-width:3;stroke-linecap:round;stroke-linejoin:round;stroke-miterlimit:4;stroke-dasharray:1.193, 11.932, 1.193, 11.932;stroke-dashoffset:0;stroke-opacity:1"
                   id="path72"
                   inkscape:connector-curvature="0" /></g></g></g></g></g></g><text
       transform="matrix(0.9928786,0.11913054,0.11913054,-0.9928786,0,0)"
       style="font-style:normal;font-variant:normal;font-weight:normal;font-stretch:normal;font-size:41.10532761px;font-family:Ubuntu;-inkscape-font-specification:Ubuntu;writing-mode:lr-tb;fill:#f1fbf4;fill-opacity:1;fill-rule:nonzero;stroke:none"
       id="text74"
       x="559.49896"
       y="-240.44603"><tspan
         sodipodi:role="line"
         id="tspan76"
         x="559.49896"
         y="-240.44603">HALLO</tspan></text>
<g
       id="g78"
       style="fill:#ec971f;fill-opacity:0.94117647"><g
         id="g80"
         clip-path="url(#clipPath82)"
         style="fill:#ec971f;fill-opacity:0.94117647"><g
           id="g86"
           transform="translate(199.3979,159.3408)"
           style="fill:#ec971f;fill-opacity:0.94117647"><path
             d="m 0,0 c 0,0 80.589,-24.45 101.665,8.231 10.32,16 16.589,27.207 33.043,68.622 7.042,20.326 -12.941,44.483 -28.522,48.07 -38.788,8.933 -102.22,17.84 -141.007,26.772 -15.582,3.588 -40.029,-8.906 -42.588,-30.262 -5.914,-49.374 -1.118,-58.091 2.915,-76.904 4.993,-23.29 23.623,-33.611 23.623,-33.611 L -94.088,-12.723 0,0 Z"
             style="fill:#ec971f;fill-opacity:0.94117647;fill-rule:nonzero;stroke:none"
             id="path88"
             inkscape:connector-curvature="0" /></g><g
           id="g90"
           transform="translate(174.8618,177.6162)"
           style="fill:#ec971f;fill-opacity:0.94117647"><path
             d="M 0,0 0.479,-0.142 0.035,-0.371"
             style="fill:#ec971f;stroke:#ffffff;stroke-width:3;stroke-linecap:round;stroke-linejoin:round;stroke-miterlimit:4;stroke-dasharray:none;stroke-opacity:1;fill-opacity:0.94117647"
             id="path92"
             inkscape:connector-curvature="0" /></g><g
           id="g94"
           transform="translate(165.9199,172.6162)"
           style="fill:#ec971f;fill-opacity:0.94117647"><path
             d="M 0,0 -5.386,-2.777"
             style="fill:#ec971f;stroke:#ffffff;stroke-width:3;stroke-linecap:round;stroke-linejoin:round;stroke-miterlimit:4;stroke-dasharray:1.01, 10.09999999999999964;stroke-dashoffset:0;stroke-opacity:1;fill-opacity:0.94117647"
             id="path96"
             inkscape:connector-curvature="0" /></g><g
           id="g98"
           transform="translate(156.0459,167.5254)"
           style="fill:#ec971f;fill-opacity:0.94117647"><path
             d="M 0,0 -15.261,-7.869"
             style="fill:#ec971f;stroke:#ffffff;stroke-width:3;stroke-linecap:round;stroke-linejoin:round;stroke-miterlimit:4;stroke-dasharray:1.01, 10.09999999999999964, 1.01000000000000001, 10.09999999999999964;stroke-dashoffset:0;stroke-opacity:1;fill-opacity:0.94117647"
             id="path100"
             inkscape:connector-curvature="0" /></g><g
           id="g102"
           transform="translate(136.2969,157.3418)"
           style="fill:#ec971f;fill-opacity:0.94117647"><path
             d="m 0,0 -0.444,-0.229 0.492,0.085"
             style="fill:#ec971f;stroke:#ffffff;stroke-width:3;stroke-linecap:round;stroke-linejoin:round;stroke-miterlimit:4;stroke-dasharray:none;stroke-opacity:1;fill-opacity:0.94117647"
             id="path104"
             inkscape:connector-curvature="0" /></g><g
           id="g106"
           transform="translate(146.3521,158.9434)"
           style="fill:#ec971f;fill-opacity:0.94117647"><path
             d="M 0,0 6.004,1.046"
             style="fill:#ec971f;stroke:#ffffff;stroke-width:3;stroke-linecap:round;stroke-linejoin:round;stroke-miterlimit:4;stroke-dasharray:1.016, 10.15799999999999947;stroke-dashoffset:0;stroke-opacity:1;fill-opacity:0.94117647"
             id="path108"
             inkscape:connector-curvature="0" /></g><g
           id="g110"
           transform="translate(157.3594,160.8623)"
           style="fill:#ec971f;fill-opacity:0.94117647"><path
             d="m 0,0 54.176,9.445 51.291,-7.543 c 10.594,-2.439 22.283,4.377 26.036,14.751 0,0 13.779,15.247 27.099,52.062 5.761,15.925 -0.513,32.251 -14.34,35.435 -34.425,7.928 -103.389,19.54 -137.813,27.469 -13.828,3.184 -26.611,-8.752 -28.395,-25.595 -4.123,-38.931 4.813,-59.41 4.813,-59.41 -1.161,-10.97 6.366,-22.214 16.961,-24.653 L 12.63,18.188"
             style="fill:#ec971f;stroke:#ffffff;stroke-width:3;stroke-linecap:round;stroke-linejoin:round;stroke-miterlimit:4;stroke-dasharray:1.016, 10.15799999999999947, 1.01600000000000001, 10.15799999999999947;stroke-dashoffset:0;stroke-opacity:1;fill-opacity:0.94117647"
             id="path112"
             inkscape:connector-curvature="0" /></g></g></g><text
       transform="matrix(0.97449225,-0.22442117,-0.22442117,-0.97449225,0,0)"
       style="font-style:normal;font-variant:normal;font-weight:normal;font-stretch:normal;font-size:55.83563995px;font-family:Ubuntu;-inkscape-font-specification:Ubuntu;writing-mode:lr-tb;fill:#f1fbf4;fill-opacity:1;fill-rule:nonzero;stroke:none"
       id="text114"
       x="123.77699"
       y="-252.43576"><tspan
         sodipodi:role="line"
         id="tspan116"
         x="123.77699"
         y="-252.43576">hej</tspan></text>
<g
       id="g118"
       style="fill:#0275d8;fill-opacity:0.94117647"><g
         id="g120"
         clip-path="url(#clipPath122)"
         style="fill:#0275d8;fill-opacity:0.94117647"><g
           id="g126"
           transform="translate(441.4707,321.8633)"
           style="fill:#0275d8;fill-opacity:0.94117647"><path
             d="m 0,0 c 0,0 -0.014,0.003 -0.015,0.003 10.161,6.529 17.268,17.553 18.286,30.521 l 1.956,24.923 c 1.184,15.087 -6.164,28.872 -17.991,36.617 -13.622,9.391 -42.282,17.341 -75.869,19.977 -33.586,2.637 -63.136,-0.744 -78.056,-7.896 -12.889,-5.804 -22.299,-18.274 -23.483,-33.361 l -1.956,-24.923 c -1.184,-15.086 6.165,-28.872 17.99,-36.615 13.622,-9.392 28.318,-16.337 61.905,-18.973 15.318,-1.202 21.657,-2.536 34.285,-1.521 l 3.988,-0.313 c 0,0 41.056,-35.413 98.429,-32.895 0,0 -69.155,21.848 -39.469,44.456"
             style="fill:#0275d8;fill-opacity:0.94117647;fill-rule:nonzero;stroke:none"
             id="path128"
             inkscape:connector-curvature="0" /></g><g
           id="g130"
           transform="translate(434.3398,325.8838)"
           style="fill:#0275d8;fill-opacity:0.94117647"><path
             d="m 0,0 c 0,0 -0.193,0.018 -0.194,0.018 9.061,5.823 15.217,15.669 16.125,27.237 l 1.745,22.229 c 1.056,13.456 -5.317,25.738 -15.864,32.643 -12.149,8.377 -37.621,15.46 -67.576,17.811 -29.956,2.351 -56.542,-0.646 -69.849,-7.025 -11.495,-5.176 -20.118,-16.28 -21.175,-29.735 l -1.744,-22.23 c -1.056,-13.456 5.775,-25.773 16.321,-32.679 12.149,-8.376 38.157,-13.496 68.114,-15.847 13.662,-1.073 18.054,-0.358 29.165,0.626 l -0.156,-1.994 c 0,0 32.433,-23.419 53.25,-28.484 0,0 -34.639,17.267 -8.162,37.43 z"
             style="fill:#0275d8;stroke:#ffffff;stroke-width:3;stroke-linecap:round;stroke-linejoin:round;stroke-miterlimit:10;stroke-dasharray:1, 10, 1, 10;stroke-dashoffset:0;stroke-opacity:1;fill-opacity:0.94117647"
             id="path132"
             inkscape:connector-curvature="0" /></g></g></g><text
       transform="matrix(0.99693375,-0.07825022,-0.07825022,-0.99693375,0,0)"
       style="font-style:normal;font-variant:normal;font-weight:normal;font-stretch:normal;font-size:67.94102478px;font-family:Ubuntu;-inkscape-font-specification:Ubuntu;writing-mode:lr-tb;fill:#ffffff;fill-opacity:1;fill-rule:nonzero;stroke:none;"
       id="text134"
       x="277.87543"
       y="-379.80984"><tspan
         sodipodi:role="line"
         id="tspan136"
         x="277.87543"
         y="-379.80984">bye</tspan></text>
<g
       id="g138"
       style="fill:#5bc0de;fill-opacity:1"><g
         id="g140"
         clip-path="url(#clipPath142)"
         style="fill:#5bc0de;fill-opacity:1"><g
           id="g146"
           style="fill:#5bc0de;fill-opacity:1"><g
             id="g148"
             style="fill:#5bc0de;fill-opacity:1" /><g
             id="g154"
             style="fill:#5bc0de;fill-opacity:1"><g
               clip-path="url(#clipPath150)"
               id="g156"
               style="opacity:0.80000299;fill:#5bc0de;fill-opacity:1"><g
                 transform="translate(291.2725,382.2148)"
                 id="g158"
                 style="fill:#5bc0de;fill-opacity:1"><path
                   d="m 0,0 c -0.311,11.311 -4.652,21.734 -11.566,29.583 -6.915,7.849 -16.464,13.253 -26.92,14.402 0,0 -15.018,1.603 -36.727,3.333 -10.855,0.866 -23.646,1.436 -36.558,1.581 -12.912,0.146 -25.712,-0.137 -36.584,-0.758 -21.743,-1.241 -36.792,-2.504 -36.792,-2.504 -10.48,-0.914 -20.147,-6.103 -27.237,-13.793 -7.09,-7.692 -11.665,-18.015 -12.23,-29.316 0,0 -0.373,-10.583 -0.492,-21.216 -0.12,-10.635 0.015,-21.223 0.015,-21.223 0.31,-11.311 4.652,-21.735 11.566,-29.583 0,0 28.107,-43.756 -55.27,-53.332 0,0 43.826,-17.648 80.062,12.555 25.449,21.212 71.949,16.988 71.949,16.988 12.911,-0.145 25.712,0.137 36.584,0.759 21.742,1.24 36.792,2.504 36.792,2.504 10.48,0.915 23.611,10.574 30.701,18.266 7.089,7.691 11.665,18.015 12.229,29.316 0,0 0.374,10.582 0.493,21.215 C 0.135,-10.589 0,0 0,0"
                   style="fill:#5bc0de;fill-opacity:1;fill-rule:nonzero;stroke:none"
                   id="path160"
                   inkscape:connector-curvature="0" /></g></g></g></g><g
           id="g162"
           transform="translate(277.5117,378.0527)"
           style="fill:#5bc0de;fill-opacity:1"><path
             d="m 0,0 c -0.277,10.083 -4.147,19.374 -10.312,26.37 -6.163,6.997 -14.675,11.814 -23.995,12.839 0,0 -13.387,1.428 -32.739,2.971 -9.676,0.771 -21.078,1.28 -32.587,1.409 -11.511,0.13 -22.921,-0.122 -32.612,-0.676 -19.382,-1.106 -32.797,-2.232 -32.797,-2.232 -9.341,-0.816 -17.959,-5.441 -24.279,-12.296 -6.32,-6.856 -10.398,-16.058 -10.902,-26.132 0,0 -0.332,-9.434 -0.439,-18.912 -0.107,-9.48 0.013,-18.917 0.013,-18.917 0.277,-10.084 4.147,-19.375 10.311,-26.372 0,0 28.662,-45.796 -37.456,-55.929 0,0 40.548,2.513 60.596,25.261 10.808,12.264 66.182,13.45 66.182,13.45 11.51,-0.131 22.921,0.123 32.612,0.675 19.382,1.107 32.797,2.233 32.797,2.233 9.341,0.817 17.96,5.44 24.279,12.296 6.32,6.857 10.398,16.058 10.902,26.132 0,0 0.332,9.434 0.439,18.912 C 0.12,-9.439 0,0 0,0 Z"
             style="fill:#5bc0de;stroke:#ffffff;stroke-width:3;stroke-linecap:round;stroke-linejoin:round;stroke-miterlimit:10;stroke-dasharray:1, 10, 1, 10;stroke-dashoffset:0;stroke-opacity:1;fill-opacity:1"
             id="path164"
             inkscape:connector-curvature="0" /></g></g></g><text
       transform="matrix(0.99993672,-0.01124963,-0.01124963,-0.99993672,0,0)"
       style="font-style:normal;font-variant:normal;font-weight:normal;font-stretch:normal;font-size:79.91375732px;font-family:Ubuntu;-inkscape-font-specification:Ubuntu;writing-mode:lr-tb;fill:#f1fbf4;fill-opacity:1;fill-rule:nonzero;stroke:none"
       id="text166"
       x="115.45799"
       y="-327.05081"><tspan
         sodipodi:role="line"
         id="tspan168"
         x="115.45799"
         y="-327.05081">Hi!</tspan></text>
<g
       id="g170"
       style="fill:#ec971f;fill-opacity:0.94117647"><g
         id="g172"
         clip-path="url(#clipPath174)"
         style="fill:#ec971f;fill-opacity:0.94117647"><g
           id="g178"
           style="fill:#ec971f;fill-opacity:0.94117647"><g
             id="g180"
             style="fill:#ec971f;fill-opacity:0.94117647" /><g
             id="g186"
             style="fill:#ec971f;fill-opacity:0.94117647"><g
               clip-path="url(#clipPath182)"
               id="g188"
               style="opacity:0.80000299;fill:#ec971f;fill-opacity:0.94117647"><g
                 transform="translate(671.4668,520.7573)"
                 id="g190"
                 style="fill:#ec971f;fill-opacity:0.94117647"><path
                   d="m 0,0 c 40.081,15.373 67.275,45.272 67.275,79.64 0,50.067 -57.713,90.654 -128.908,90.654 -71.193,0 -128.907,-40.587 -128.907,-90.654 0,-50.068 57.714,-90.655 128.907,-90.655 2.752,0 5.481,0.068 8.189,0.187 0.962,-0.896 46.974,-43.38 109.308,-34.475 0,0 -47.857,15.702 -55.864,45.303"
                   style="fill:#ec971f;fill-opacity:0.94117647;fill-rule:nonzero;stroke:none"
                   id="path192"
                   inkscape:connector-curvature="0" /></g></g></g></g><g
           id="g194"
           transform="translate(657.5566,529.958)"
           style="fill:#ec971f;fill-opacity:0.94117647"><path
             d="m 0,0 c 33.98,13.034 61.566,40.6 61.566,69.736 0,42.448 -48.929,76.858 -109.289,76.858 -60.358,0 -109.289,-34.41 -109.289,-76.858 0,-42.447 48.931,-76.857 109.289,-76.857 2.333,0 9.398,0.453 11.694,0.555 0.815,-0.76 18.035,-19.888 64.029,-34.809 0,0 -21.212,16.278 -28,41.375 z"
             style="fill:#ec971f;stroke:#ffffff;stroke-width:3;stroke-linecap:round;stroke-linejoin:round;stroke-miterlimit:10;stroke-dasharray:1, 10, 1, 10;stroke-dashoffset:0;stroke-opacity:1;fill-opacity:0.94117647"
             id="path196"
             inkscape:connector-curvature="0" /></g></g></g><text
       transform="scale(1,-1)"
       style="font-style:normal;font-variant:normal;font-weight:normal;font-stretch:normal;font-size:41.91669846px;font-family:Ubuntu;-inkscape-font-specification:Ubuntu;writing-mode:lr-tb;fill:#f1fbf4;fill-opacity:1;fill-rule:nonzero;stroke:none"
       id="text198"
       x="545.5144"
       y="-584.28516"><tspan
         sodipodi:role="line"
         id="tspan200"
         x="545.5144"
         y="-584.28516">ADIÓS</tspan></text>
<g
       id="g202"><g
         id="g204"
         clip-path="url(#clipPath206)"><g
           id="g210"><g
             id="g212" /><g
             id="g218"><g
               clip-path="url(#clipPath214)"
               id="g220"><g
                 transform="translate(624.1885,428.2891)"
                 id="g222"><path
                   d="m 0,0 c -0.556,-11.395 -9.065,-20.815 -19.024,-21.398 0,0 -72.741,-5.23 -105.971,-8.288 -14.532,-1.336 -27.797,-36.455 12.904,-52.244 -46.416,-5.271 -61.924,34.88 -65.712,49.14 -7.769,-0.454 -4.627,-0.393 -4.627,-0.393 -9.958,-0.583 -19.638,10.001 -21.519,21.252 0,0 -13.196,42.492 -19.868,82.424 -2.885,17.273 5.203,32.627 18.199,33.387 32.35,1.893 161.423,9.443 193.774,11.335 12.995,0.761 22.82,-13.546 21.967,-31.037 C 8.152,43.74 0,0 0,0"
                   style="fill:#9665e4;fill-opacity:1;fill-rule:nonzero;stroke:none"
                   id="path224"
                   inkscape:connector-curvature="0" /></g></g></g></g><g
           id="g226"
           transform="translate(487.2705,357.748)"><path
             d="m 0,0 c 0.104,-0.131 0.208,-0.262 0.313,-0.393 -0.163,0.039 -0.325,0.08 -0.486,0.12"
             style="fill:none;stroke:#ffffff;stroke-width:3;stroke-linecap:round;stroke-linejoin:round;stroke-miterlimit:4;stroke-dasharray:none;stroke-opacity:1"
             id="path228"
             inkscape:connector-curvature="0" /></g><g
           id="g230"
           transform="translate(477.6738,360.9932)"><path
             d="M 0,0 C -1.852,0.95 -3.57,2.005 -5.166,3.142"
             style="fill:none;stroke:#ffffff;stroke-width:3;stroke-linecap:round;stroke-linejoin:round;stroke-miterlimit:4;stroke-dasharray:1.008, 10.078;stroke-dashoffset:0;stroke-opacity:1"
             id="path232"
             inkscape:connector-curvature="0" /></g><g
           id="g234"
           transform="translate(468.5898,367.293)"><path
             d="m 0,0 c -13.77,12.509 -16.152,30.869 -16.152,30.869 l -0.885,3.743"
             style="fill:none;stroke:#ffffff;stroke-width:3;stroke-linecap:round;stroke-linejoin:round;stroke-miterlimit:4;stroke-dasharray:1.008, 10.078, 1.008, 10.078;stroke-dashoffset:0;stroke-opacity:1"
             id="path236"
             inkscape:connector-curvature="0" /></g><g
           id="g238"
           transform="translate(450.3936,406.8101)"><path
             d="M 0,0 -0.115,0.487 C -0.282,0.477 -0.448,0.47 -0.615,0.466"
             style="fill:none;stroke:#ffffff;stroke-width:3;stroke-linecap:round;stroke-linejoin:round;stroke-miterlimit:4;stroke-dasharray:none;stroke-opacity:1"
             id="path240"
             inkscape:connector-curvature="0" /></g><g
           id="g242"
           transform="translate(440.1934,409.9927)"><path
             d="M 0,0 C -1.705,1.062 -3.254,2.396 -4.57,3.934"
             style="fill:none;stroke:#ffffff;stroke-width:3;stroke-linecap:round;stroke-linejoin:round;stroke-miterlimit:4;stroke-dasharray:1.01, 10.099;stroke-dashoffset:0;stroke-opacity:1"
             id="path244"
             inkscape:connector-curvature="0" /></g><g
           id="g246"
           transform="translate(432.8662,418.1445)"><path
             d="m 0,0 c -0.687,1.434 -1.193,2.957 -1.479,4.537 0,0 -11.667,36.957 -17.35,68.321 -2.459,13.568 4.8,25.818 16.332,26.493 28.712,1.679 143.256,8.38 171.967,10.059 11.533,0.675 20.17,-10.646 19.31,-24.408 -1.987,-31.813 -9.265,-69.878 -9.265,-69.878 -0.56,-8.965 -8.135,-16.965 -16.971,-17.481 L 62.741,-8.195 c 0,0 -33.838,-15.325 -11.342,-48.142"
             style="fill:none;stroke:#ffffff;stroke-width:3;stroke-linecap:round;stroke-linejoin:round;stroke-miterlimit:4;stroke-dasharray:1.01, 10.099, 1.01, 10.099;stroke-dashoffset:0;stroke-opacity:1"
             id="path248"
             inkscape:connector-curvature="0" /></g></g></g><text
       transform="matrix(0.99829331,0.05839925,0.05839925,-0.99829331,0,0)"
       style="font-style:normal;font-variant:normal;font-weight:normal;font-stretch:normal;font-size:45.4594841px;font-family:Ubuntu;-inkscape-font-specification:Ubuntu;writing-mode:lr-tb;fill:#f1fbf4;fill-opacity:1;fill-rule:nonzero;stroke:none"
       id="text250"
       x="487.00726"
       y="-418.87119"><tspan
         sodipodi:role="line"
         id="tspan252"
         x="487.00726"
         y="-418.87119">HOLA</tspan></text>
<g
       id="g254"><g
         id="g256"
         clip-path="url(#clipPath258)"><g
           id="g262"
           style="fill:#41964f;fill-opacity:0.94117647"><g
             id="g264"
             style="fill:#41964f;fill-opacity:0.94117647" /><g
             id="g270"
             style="fill:#41964f;fill-opacity:0.94117647"><g
               clip-path="url(#clipPath266)"
               id="g272"
               style="fill:#41964f;fill-opacity:0.94117647"><g
                 transform="translate(442.9062,630.3203)"
                 id="g274"
                 style="fill:#41964f;fill-opacity:0.94117647"><path
                   d="m 0,0 c -13.425,24.014 -33.598,42.917 -55.841,57.602 -11.315,7.47 -23.555,13.693 -36.239,18.928 -38.063,15.707 -80.601,22.072 -120.608,19.596 -48.937,-3.027 -99.057,-23.252 -131.311,-62.442 -7.931,-9.638 -14.172,-20.178 -18.233,-31.474 -4.06,-11.296 -5.927,-23.372 -4.987,-36.155 3.335,-37.8 12.229,-76.71 41.134,-103.392 25.41,-23.915 47.071,-36.704 80.456,-43.901 0.004,-0.014 19.592,-3.727 11.814,-22.617 -2.279,-5.534 -38.891,-37.781 -38.891,-37.781 0,0 75.827,6.511 102.917,53.815 45.831,3.553 90.956,20.129 126.359,47.711 11.832,9.962 22.925,20.44 33.124,30.866 7.277,9.454 13.303,19.598 17.61,30.396 4.305,10.8 6.894,22.254 7.292,34.434 C 15.105,-28.793 7.754,-13.872 0,0"
                   style="fill:#41964f;fill-opacity:0.94117647;fill-rule:nonzero;stroke:none"
                   id="path276"
                   inkscape:connector-curvature="0" /></g></g></g></g><g
           id="g278"
           transform="translate(203.6089,459.9038)"><path
             d="m 0,0 c 0.163,-0.036 0.326,-0.071 0.489,-0.106 0,-0.001 0.157,-0.076 0.447,-0.214"
             style="fill:none;stroke:#ffffff;stroke-width:6;stroke-linecap:round;stroke-linejoin:round;stroke-miterlimit:4;stroke-dasharray:none;stroke-opacity:1"
             id="path280"
             inkscape:connector-curvature="0" /></g><g
           id="g282"
           transform="translate(222.3291,450.6636)"><path
             d="M 0,0 C 2.544,-1.37 4.89,-2.7 6.662,-3.833 7.008,-4.881 7.21,-5.945 7.283,-7.02"
             style="fill:none;stroke:#ffffff;stroke-width:6;stroke-linecap:round;stroke-linejoin:round;stroke-miterlimit:4;stroke-dasharray:0.995, 19.896;stroke-dashoffset:0;stroke-opacity:1"
             id="path284"
             inkscape:connector-curvature="0" /></g><g
           id="g286"
           transform="translate(227.3262,434.0796)"><path
             d="M 0,0 C -4.472,-8.864 -14.496,-17.405 -21.828,-22.836"
             style="fill:none;stroke:#ffffff;stroke-width:6;stroke-linecap:round;stroke-linejoin:round;stroke-miterlimit:4;stroke-dasharray:0.995, 19.896, 0.995, 19.896;stroke-dashoffset:0;stroke-opacity:1"
             id="path288"
             inkscape:connector-curvature="0" /></g><g
           id="g290"
           transform="translate(197.29,405.6133)"><path
             d="m 0,0 c -0.275,-0.172 -0.422,-0.261 -0.422,-0.261 0,0 0.17,0.009 0.495,0.036"
             style="fill:none;stroke:#ffffff;stroke-width:6;stroke-linecap:round;stroke-linejoin:round;stroke-miterlimit:4;stroke-dasharray:none;stroke-opacity:1"
             id="path292"
             inkscape:connector-curvature="0" /></g><g
           id="g294"
           transform="translate(217.3179,409.9082)"><path
             d="M 0,0 C 3.271,1.136 6.783,2.552 10.417,4.316"
             style="fill:none;stroke:#ffffff;stroke-width:6;stroke-linecap:round;stroke-linejoin:round;stroke-miterlimit:4;stroke-dasharray:1.025, 20.507;stroke-dashoffset:0;stroke-opacity:1"
             id="path296"
             inkscape:connector-curvature="0" /></g><g
           id="g298"
           transform="translate(236.6973,419.2007)"><path
             d="M 0,0 C 8.26,5.209 16.652,12.365 23.917,22.19"
             style="fill:none;stroke:#ffffff;stroke-width:6;stroke-linecap:round;stroke-linejoin:round;stroke-miterlimit:4;stroke-dasharray:1.025, 20.507, 1.025, 20.507;stroke-dashoffset:0;stroke-opacity:1"
             id="path300"
             inkscape:connector-curvature="0" /></g><g
           id="g302"
           transform="translate(266.2378,449.9648)"><path
             d="M 0,0 C 0.083,0.144 0.167,0.289 0.25,0.434 0.416,0.446 0.582,0.459 0.748,0.473"
             style="fill:none;stroke:#ffffff;stroke-width:6;stroke-linecap:round;stroke-linejoin:round;stroke-miterlimit:4;stroke-dasharray:none;stroke-opacity:1"
             id="path304"
             inkscape:connector-curvature="0" /></g><g
           id="g306"
           transform="translate(286.8789,453.1108)"><path
             d="M 0,0 C 3.594,0.667 7.203,1.434 10.815,2.292"
             style="fill:none;stroke:#ffffff;stroke-width:6;stroke-linecap:round;stroke-linejoin:round;stroke-miterlimit:4;stroke-dasharray:1.004, 20.084;stroke-dashoffset:0;stroke-opacity:1"
             id="path308"
             inkscape:connector-curvature="0" /></g><g
           id="g310"
           transform="translate(307.4116,457.937)"><path
             d="m 0,0 c 28.923,8.196 57.328,22.083 78.961,38.935 10.665,8.982 20.664,18.428 29.858,27.826 6.559,8.522 11.993,17.667 15.875,27.402 3.882,9.734 6.215,20.059 6.573,31.039 0.46,14.082 -6.168,27.533 -13.158,40.037 -12.102,21.648 -30.286,38.688 -50.338,51.926 -10.2,6.734 -21.232,12.344 -32.667,17.063 -34.312,14.159 -72.659,19.897 -108.724,17.665 -44.113,-2.729 -89.295,-20.961 -118.37,-56.289 -7.15,-8.688 -12.776,-18.19 -16.436,-28.373 -3.66,-10.182 -5.344,-21.068 -4.496,-32.592 3.007,-34.074 11.024,-69.15 37.081,-93.202 20.205,-19.017 37.78,-30.229 62.299,-37.062"
             style="fill:none;stroke:#ffffff;stroke-width:6;stroke-linecap:round;stroke-linejoin:round;stroke-miterlimit:4;stroke-dasharray:1.004, 20.084, 1.004, 20.084;stroke-dashoffset:0;stroke-opacity:1"
             id="path312"
             inkscape:connector-curvature="0" /></g></g></g><text
       transform="scale(1,-1)"
       style="font-variant:normal;font-weight:normal;font-stretch:normal;font-size:75.53240204px;font-family:DayPosterBlack;-inkscape-font-specification:DayPosterBlack;writing-mode:lr-tb;fill:#ffffff;fill-opacity:1;fill-rule:nonzero;stroke:none;"
       id="text314"
       x="133.20438"
       y="-558.90796"><tspan
         x="133.20438 180.56319 244.01041 291.82242 348.24512"
         y="-558.90796"
         sodipodi:role="line"
         id="tspan316"
         style="font-style:normal;font-variant:normal;font-weight:normal;font-stretch:normal;font-family:Ubuntu;-inkscape-font-specification:Ubuntu;fill:#ffffff;fill-opacity:1;">SALUT</tspan></text>
<g
       id="g318"><g
         id="g320"
         clip-path="url(#clipPath322)"><g
           id="g326"
           style="fill:#d9534f;fill-opacity:1"><g
             id="g328"
             style="fill:#d9534f;fill-opacity:1" /><g
             id="g334"
             style="fill:#d9534f;fill-opacity:1"><g
               clip-path="url(#clipPath330)"
               id="g336"
               style="opacity:0.89999402;fill:#d9534f;fill-opacity:1"><g
                 transform="translate(547.4023,230.0889)"
                 id="g338"
                 style="fill:#d9534f;fill-opacity:1"><path
                   d="m 0,0 c -5.721,16.083 -16.1,29.74 -28.183,41.03 -6.147,5.745 -12.988,10.823 -20.205,15.339 -21.655,13.559 -47.015,21.865 -71.746,24.503 -30.25,3.226 -63.01,-3.948 -86.806,-24.575 -5.852,-5.074 -10.763,-10.872 -14.42,-17.362 -3.656,-6.488 -6.051,-13.682 -6.802,-21.6 -1.88,-23.469 -0.478,-48.195 14.436,-67.516 13.064,-17.266 24.987,-27.337 44.663,-35.204 10e-4,-0.009 11.599,-4.311 4.88,-15.06 -1.967,-3.149 -27.709,-19.077 -27.709,-19.077 0,0 47.061,-3.884 68.539,22.242 28.406,-2.58 57.73,2.878 82.249,16.077 8.271,4.866 16.144,10.125 23.466,15.444 5.431,5.03 10.17,10.61 13.925,16.769 3.756,6.159 6.527,12.897 8.034,20.306 C 6.254,-19.18 3.306,-9.289 0,0"
                   style="fill:#d9534f;fill-opacity:1;fill-rule:nonzero;stroke:none"
                   id="path340"
                   inkscape:connector-curvature="0" /></g></g></g></g><g
           id="g342"
           transform="translate(374.0122,118.1855)"><path
             d="m 0,0 c -0.297,-0.123 -0.459,-0.187 -0.459,-0.187 0,0 0.17,-0.02 0.493,-0.045"
             style="fill:none;stroke:#ffffff;stroke-width:6;stroke-linecap:round;stroke-linejoin:round;stroke-miterlimit:4;stroke-dasharray:none;stroke-opacity:1"
             id="path344"
             inkscape:connector-curvature="0" /></g><g
           id="g346"
           transform="translate(386.6304,118.6787)"><path
             d="M 0,0 C 2.104,0.356 4.38,0.857 6.765,1.555"
             style="fill:none;stroke:#ffffff;stroke-width:6;stroke-linecap:round;stroke-linejoin:round;stroke-miterlimit:4;stroke-dasharray:0.632, 12.631;stroke-dashoffset:0;stroke-opacity:1"
             id="path348"
             inkscape:connector-curvature="0" /></g><g
           id="g350"
           transform="translate(399.3496,122.334)"><path
             d="M 0,0 C 5.558,2.314 11.394,5.79 16.827,10.988"
             style="fill:none;stroke:#ffffff;stroke-width:6;stroke-linecap:round;stroke-linejoin:round;stroke-miterlimit:4;stroke-dasharray:0.632, 12.631, 0.632, 12.631;stroke-dashoffset:0;stroke-opacity:1"
             id="path352"
             inkscape:connector-curvature="0" /></g><g
           id="g354"
           transform="translate(420.4961,137.9443)"><path
             d="M 0,0 C 0.106,0.128 0.213,0.257 0.319,0.386 0.484,0.371 0.65,0.356 0.816,0.342"
             style="fill:none;stroke:#ffffff;stroke-width:6;stroke-linecap:round;stroke-linejoin:round;stroke-miterlimit:4;stroke-dasharray:none;stroke-opacity:1"
             id="path356"
             inkscape:connector-curvature="0" /></g><g
           id="g358"
           transform="translate(441.7451,138.2461)"><path
             d="M 0,0 C 3.713,0.278 7.451,0.703 11.182,1.266"
             style="fill:none;stroke:#ffffff;stroke-width:6;stroke-linecap:round;stroke-linejoin:round;stroke-miterlimit:4;stroke-dasharray:1.023, 20.456;stroke-dashoffset:0;stroke-opacity:1"
             id="path360"
             inkscape:connector-curvature="0" /></g><g
           id="g362"
           transform="translate(462.9854,141.3682)"><path
             d="m 0,0 c 12.942,2.826 25.42,7.263 35.988,12.952 7.456,4.388 14.553,9.129 21.153,13.924 4.897,4.533 9.17,9.564 12.554,15.114 3.384,5.554 5.883,11.627 7.241,18.307 1.743,8.565 -0.916,17.482 -3.896,25.857 -5.155,14.498 -14.513,26.809 -25.404,36.989 -5.543,5.176 -11.709,9.753 -18.215,13.826 -19.521,12.223 -42.383,19.71 -64.676,22.087 -27.269,2.908 -56.8,-3.558 -78.252,-22.153 -5.275,-4.572 -9.702,-9.801 -12.997,-15.65 -3.296,-5.849 -5.455,-12.334 -6.132,-19.471 -1.697,-21.158 -0.431,-43.446 13.013,-60.863 11.775,-15.566 22.524,-24.643 40.261,-31.735 10e-4,-0.008 9.836,-6.844 13.883,-10.514 1.048,-6.9 -7.227,-13.231 -14.334,-17.318"
             style="fill:none;stroke:#ffffff;stroke-width:6;stroke-linecap:round;stroke-linejoin:round;stroke-miterlimit:4;stroke-dasharray:1.023, 20.456, 1.023, 20.456;stroke-dashoffset:0;stroke-opacity:1"
             id="path364"
             inkscape:connector-curvature="0" /></g></g></g><text
       transform="matrix(0.98591962,-0.16721993,-0.16721993,-0.98591962,0,0)"
       style="font-style:normal;font-variant:normal;font-weight:normal;font-stretch:normal;font-size:58.45415497px;font-family:Ubuntu;-inkscape-font-specification:Ubuntu;writing-mode:lr-tb;fill:#ffffff;fill-opacity:1;fill-rule:nonzero;stroke:none"
       id="text366"
       x="338.10791"
       y="-267.52573"><tspan
         sodipodi:role="line"
         id="tspan368"
         x="338.10791"
         y="-267.52573">HEI</tspan></text>
</g></svg>