<?xml version="1.0" encoding="UTF-8" standalone="no"?>
<!-- Created with Inkscape (http://www.inkscape.org/) -->

<svg
   xmlns:dc="http://purl.org/dc/elements/1.1/"
   xmlns:cc="http://creativecommons.org/ns#"
   xmlns:rdf="http://www.w3.org/1999/02/22-rdf-syntax-ns#"
   xmlns:svg="http://www.w3.org/2000/svg"
   xmlns="http://www.w3.org/2000/svg"
   xmlns:sodipodi="http://sodipodi.sourceforge.net/DTD/sodipodi-0.dtd"
   xmlns:inkscape="http://www.inkscape.org/namespaces/inkscape"
   width="1110"
   height="400"
   viewBox="0 0 1110 399.99997"
   id="svg4316"
   version="1.1"
   inkscape:version="0.91 r13725"
   sodipodi:docname="peace+text_dark_bg+untertext.svg"
   inkscape:export-filename="/home/jumplink/Dokumente/Arbeit/Material/Logo/peace+text_dark_bg.png"
   inkscape:export-xdpi="90"
   inkscape:export-ydpi="90">
  <defs
     id="defs4318" />
  <sodipodi:namedview
     id="base"
     pagecolor="#272822"
     bordercolor="#666666"
     borderopacity="1.0"
     inkscape:pageopacity="1"
     inkscape:pageshadow="2"
     inkscape:zoom="0.35"
     inkscape:cx="586.52588"
     inkscape:cy="486.75547"
     inkscape:document-units="px"
     inkscape:current-layer="g4175"
     showgrid="false"
     fit-margin-top="0"
     fit-margin-left="0"
     fit-margin-right="0"
     fit-margin-bottom="0"
     inkscape:window-width="1280"
     inkscape:window-height="987"
     inkscape:window-x="1680"
     inkscape:window-y="0"
     inkscape:window-maximized="1"
     showguides="true"
     inkscape:guide-bbox="true"
     units="px" />
  <metadata
     id="metadata4321">
    <rdf:RDF>
      <cc:Work
         rdf:about="">
        <dc:format>image/svg+xml</dc:format>
        <dc:type
           rdf:resource="http://purl.org/dc/dcmitype/StillImage" />
        <dc:title></dc:title>
      </cc:Work>
    </rdf:RDF>
  </metadata>
  <g
     inkscape:label="Ebene 1"
     inkscape:groupmode="layer"
     id="layer1"
     transform="translate(1133.1059,3713.9959)">
    <g
       id="g4164"
       transform="matrix(0.46295649,0,0,0.46295649,-276.74553,-2931.6093)">
      <g
         id="g4156"
         transform="translate(-78.55056,-43.6392)" />
      <g
         id="g4175"
         transform="matrix(0.61368526,0,0,0.61368526,-856.50257,-366.74937)">
        <g
           id="g3373"
           transform="translate(-78.55055,619.92606)">
          <g
             id="g4150"
             transform="translate(0,77.490639)"
             style="fill:#ffffff;fill-opacity:1" />
          <g
             id="g3357"
             style="fill:#ffffff;fill-opacity:1"
             transform="matrix(1.3793793,0,0,1.3793793,-121.08859,944.2465)">
            <text
               sodipodi:linespacing="125%"
               id="text4396"
               y="-2128.2795"
               x="57.519817"
               style="font-style:normal;font-weight:normal;font-size:73.45739746px;line-height:125%;font-family:sans-serif;letter-spacing:0px;word-spacing:0px;fill:#ffffff;fill-opacity:1;stroke:none;stroke-width:1px;stroke-linecap:butt;stroke-linejoin:miter;stroke-opacity:1"
               xml:space="preserve"><tspan
                 style="font-style:normal;font-variant:normal;font-weight:500;font-stretch:normal;font-size:275.46524048px;font-family:Ubuntu;-inkscape-font-specification:'Ubuntu Medium';fill:#ffffff;fill-opacity:1"
                 y="-2128.2795"
                 x="57.519817"
                 id="tspan4398"
                 sodipodi:role="line">JumpLink</tspan></text>
            <text
               sodipodi:linespacing="125%"
               id="text4523"
               y="-1974.5518"
               x="56.473125"
               style="font-style:normal;font-weight:normal;font-size:73.45739746px;line-height:125%;font-family:sans-serif;letter-spacing:0px;word-spacing:0px;fill:#ffffff;fill-opacity:1;stroke:none;stroke-width:1px;stroke-linecap:butt;stroke-linejoin:miter;stroke-opacity:1"
               xml:space="preserve"><tspan
                 style="font-style:normal;font-variant:normal;font-weight:normal;font-stretch:normal;font-size:91.82174683px;font-family:Ubuntu;-inkscape-font-specification:Ubuntu;fill:#ffffff;fill-opacity:1"
                 y="-1974.5518"
                 x="56.473125"
                 id="tspan4525"
                 sodipodi:role="line">Softwareentwicklung</tspan></text>
          </g>
          <path
             style="fill:#ffffff;fill-opacity:1;stroke:none;stroke-width:0.86226493;stroke-linecap:round;stroke-linejoin:round;stroke-opacity:1"
             d="m -515.88163,-2388.7507 a 322.62314,322.62314 0 0 0 -322.62381,322.6237 322.62314,322.62314 0 0 0 236.3483,310.5292 l 0,-74.4845 c -31.2602,-21.947 -51.08,-60.5943 -52.4052,-120.2414 0,-78.4539 0.2518,-14.149 0.3887,-39.8553 0.1371,-25.7064 7.8102,-56.8325 42.6929,-52.0206 -0.095,-7.9954 4.5941,-29.0227 17.44766,-40.4853 12.8537,-11.4623 26.80494,-12.917 36.4627,-11.7807 -6.39924,-37.8396 -21.70974,-133.6834 -26.87934,-166.4205 -5.16959,-32.7371 61.78737,-42.5153 66.94867,-11.128 5.16129,31.3875 28.27738,183.8701 34.61257,183.9617 6.33518,0.092 31.22885,-141.7769 36.95117,-176.1535 5.72253,-34.377 72.43886,-22.765 68.43293,10.6061 -4.00573,33.371 -28.20055,174.2174 -32.65213,201.823 -4.45126,27.6058 14.17378,34.8239 18.16682,40.0986 5.14991,6.8036 20.98897,9.1955 20.49309,65.0341 -0.15455,17.4152 -10.17176,71.8028 -51.40944,107.3132 l 0,81.8519 a 322.62314,322.62314 0 0 0 229.64825,-308.648 322.62314,322.62314 0 0 0 -322.62384,-322.6237 z"
             id="circle4193"
             inkscape:connector-curvature="0" />
        </g>
      </g>
    </g>
  </g>
</svg>
