<?xml version="1.0" encoding="UTF-8" standalone="no"?>
<svg
   xmlns:dc="http://purl.org/dc/elements/1.1/"
   xmlns:cc="http://creativecommons.org/ns#"
   xmlns:rdf="http://www.w3.org/1999/02/22-rdf-syntax-ns#"
   xmlns:svg="http://www.w3.org/2000/svg"
   xmlns="http://www.w3.org/2000/svg"
   xmlns:sodipodi="http://sodipodi.sourceforge.net/DTD/sodipodi-0.dtd"
   xmlns:inkscape="http://www.inkscape.org/namespaces/inkscape"
   version="1.1"
   id="svg4175"
   viewBox="0 0 150.00001 150"
   height="150"
   width="150"
   inkscape:version="0.91 r13725"
   sodipodi:docname="shopify.svg">
  <sodipodi:namedview
     pagecolor="#ffffff"
     bordercolor="#666666"
     borderopacity="1"
     objecttolerance="10"
     gridtolerance="10"
     guidetolerance="10"
     inkscape:pageopacity="0"
     inkscape:pageshadow="2"
     inkscape:window-width="1680"
     inkscape:window-height="986"
     id="namedview9"
     showgrid="false"
     units="px"
     inkscape:zoom="3.0333704"
     inkscape:cx="9.995292"
     inkscape:cy="117.69127"
     inkscape:window-x="0"
     inkscape:window-y="27"
     inkscape:window-maximized="1"
     inkscape:current-layer="svg4175" />
  <defs
     id="defs4177" />
  <metadata
     id="metadata4180">
    <rdf:RDF>
      <cc:Work
         rdf:about="">
        <dc:format>image/svg+xml</dc:format>
        <dc:type
           rdf:resource="http://purl.org/dc/dcmitype/StillImage" />
        <dc:title></dc:title>
      </cc:Work>
    </rdf:RDF>
  </metadata>
  <g
     transform="matrix(0.95127118,0,0,0.95127118,-240.27843,-311.83249)"
     id="layer1">
    <path
       id="path16"
       style="fill:#88c532;fill-opacity:1;fill-rule:nonzero;stroke:none"
       d="m 326.05044,334.22917 c 0.86625,0 1.73875,0.29375 2.57375,0.86875 -6.43125,3.02625 -13.325,10.64875 -16.23625,25.87 -4.255,1.3175 -8.41375,2.605 -12.25875,3.79625 3.41,-11.61 11.5075,-30.535 25.92125,-30.535 z m 5.9625,5.64375 c 1.23375,3.0925 2.03625,7.53 2.03625,13.51875 0,0.30625 -0.002,0.58625 -0.005,0.87 -4.885,1.5125 -10.19,3.155 -15.50875,4.8025 2.98625,-11.525 8.58375,-17.09125 13.4775,-19.19125 z m 14.80375,10.43625 c -2.22875,0.69 -4.7625,1.47375 -7.50875,2.32375 0.003,-0.52875 0.004,-1.05 0.004,-1.61875 0,-4.9625 -0.6875,-8.9575 -1.79375,-12.125 4.44,0.5575 7.39625,5.6075 9.29875,11.42 z m 36.04,8.83375 c -0.1075,-0.7825 -0.7925,-1.215 -1.35875,-1.2625 -0.565,-0.0475 -12.525,-0.93375 -12.525,-0.93375 0,0 -8.30625,-8.24625 -9.2175,-9.15875 -0.9125,-0.91125 -2.69375,-0.635 -3.385,-0.43125 -0.1025,0.03 -1.815,0.55875 -4.64875,1.435 -2.775,-7.98375 -7.67125,-15.32125 -16.28625,-15.32125 -0.2375,0 -0.4825,0.01 -0.72875,0.0238 -2.44875,-3.24 -5.48375,-4.6475 -8.105,-4.6475 -20.0675,0 -29.655,25.08625 -32.66125,37.835 -7.7975,2.41625 -13.3375,4.13375 -14.045,4.35625 -4.35375,1.365 -4.49,1.5025 -5.06125,5.60375 -0.43125,3.105 -11.82,91.18 -11.82,91.18 l 88.74375,16.6275 48.085,-10.4025 c 0,0 -16.88,-114.12125 -16.98625,-114.90375"
       inkscape:connector-curvature="0" />
    <path
       id="path18"
       style="fill:#538f31;fill-opacity:1;fill-rule:nonzero;stroke:none"
       d="m 381.49794,357.88042 c -0.565,-0.0475 -12.525,-0.93375 -12.525,-0.93375 0,0 -8.30625,-8.24625 -9.2175,-9.1575 -0.34125,-0.34125 -0.80125,-0.515 -1.2825,-0.59 l -6.71,137.24875 48.08,-10.40125 c 0,0 -16.88,-114.12 -16.98625,-114.90375 -0.1075,-0.7825 -0.7925,-1.215 -1.35875,-1.2625"
       inkscape:connector-curvature="0" />
    <path
       id="path20"
       style="fill:#ffffff;fill-opacity:1;fill-rule:nonzero;stroke:none"
       d="m 335.43544,384.44917 -5.92875,17.63625 c 0,0 -5.195,-2.7725 -11.5625,-2.7725 -9.335,0 -9.805,5.85875 -9.805,7.335 0,8.055 20.99625,11.14125 20.99625,30.00875 0,14.84375 -9.41375,24.4025 -22.10875,24.4025 -15.235,0 -23.02375,-9.48125 -23.02375,-9.48125 l 4.07875,-13.47625 c 0,0 8.0075,6.875 14.765,6.875 4.41375,0 6.21125,-3.47625 6.21125,-6.01625 0,-10.5075 -17.22625,-10.97625 -17.22625,-28.24125 0,-14.53125 10.42875,-28.59375 31.48375,-28.59375 8.1125,0 12.12,2.32375 12.12,2.32375"
       inkscape:connector-curvature="0" />
  </g>
</svg>
