<?xml version="1.0" encoding="UTF-8" standalone="no"?>
<!-- Generator: Adobe Illustrator 13.0.0, SVG Export Plug-In . SVG Version: 6.00 Build 14948)  -->

<svg
   xmlns:dc="http://purl.org/dc/elements/1.1/"
   xmlns:cc="http://creativecommons.org/ns#"
   xmlns:rdf="http://www.w3.org/1999/02/22-rdf-syntax-ns#"
   xmlns:svg="http://www.w3.org/2000/svg"
   xmlns="http://www.w3.org/2000/svg"
   xmlns:sodipodi="http://sodipodi.sourceforge.net/DTD/sodipodi-0.dtd"
   xmlns:inkscape="http://www.inkscape.org/namespaces/inkscape"
   version="1.1"
   id="Layer_1"
   x="0px"
   y="0px"
   width="36"
   height="36"
   viewBox="0 0 35.999999 35.999999"
   enable-background="new 0 0 405.661 316.98"
   xml:space="preserve"
   inkscape:version="0.91 r"
   sodipodi:docname="whatsapp_logo.svg"><metadata
     id="metadata35"><rdf:RDF><cc:Work
         rdf:about=""><dc:format>image/svg+xml</dc:format><dc:type
           rdf:resource="http://purl.org/dc/dcmitype/StillImage" /><dc:title></dc:title></cc:Work></rdf:RDF></metadata><defs
     id="defs33" /><sodipodi:namedview
     pagecolor="#ffffff"
     bordercolor="#666666"
     borderopacity="1"
     objecttolerance="10"
     gridtolerance="10"
     guidetolerance="10"
     inkscape:pageopacity="0"
     inkscape:pageshadow="2"
     inkscape:window-width="1440"
     inkscape:window-height="863"
     id="namedview31"
     showgrid="false"
     inkscape:zoom="4.2116776"
     inkscape:cx="-17.495717"
     inkscape:cy="12.52984"
     inkscape:window-x="0"
     inkscape:window-y="180"
     inkscape:window-maximized="1"
     inkscape:current-layer="Layer_1" /><g
     id="g5"
     transform="matrix(0.17880197,0,0,0.17897006,-19.509079,-1.4027532)"
     style="stroke:none"><path
       d="m 112.956,205.125 c 5.281,-17.05 11.402,-33.26 16.998,-49.994 -37.095,-64.878 8.812,-137.915 70.991,-143.982 58.707,-5.729 106.841,36.439 106.987,93.988 0.153,60.723 -58.74,111.713 -124.985,90.988 -4.997,-1.563 -11.18,-6.657 -16.998,-6.999 -8.131,-0.479 -18.787,5.359 -26.997,7.999 -8.999,2.895 -16.824,5.796 -25.996,8 z m 54.993,-33.996 c 53.495,32.466 117.551,-3.949 122.985,-56.993 4.918,-48.019 -33.424,-90.745 -84.99,-86.989 -58.87,4.287 -94.232,74.559 -57.993,125.984 -3.208,8.791 -6.21,17.788 -8.999,26.997 9.822,-2.844 18.876,-6.455 28.997,-8.999 z"
       id="path7"
       inkscape:connector-curvature="0"
       style="clip-rule:evenodd;fill:#ffffff;fill-rule:evenodd;stroke:none;stroke-width:5.59015274" /><path
       d="m 138.953,180.128 c 2.789,-9.209 5.791,-18.206 8.999,-26.997 -36.24,-51.425 -0.877,-121.697 57.993,-125.984 51.566,-3.756 89.908,38.97 84.99,86.989 -5.434,53.043 -69.49,89.458 -122.985,56.993 -10.122,2.544 -19.176,6.155 -28.997,8.999 z M 165.95,95.139 c 8.578,24.126 44.126,56.803 69.991,57.993 12.26,0.564 26.755,-5.796 25.996,-22.997 -7.382,-5.283 -15.892,-9.438 -24.996,-12.998 -4.358,4.307 -7.783,9.548 -12.999,12.998 -15.685,-6.979 -27.717,-17.61 -34.995,-32.996 14.331,-7.816 5.627,-25.226 0,-36.996 -22.233,-6.699 -28.087,20.681 -22.997,34.996 z"
       id="path9"
       inkscape:connector-curvature="0"
       style="clip-rule:evenodd;fill:#009f01;fill-rule:evenodd;stroke:none;stroke-width:5.59015274" /><path
       d="m 188.947,60.143 c 5.627,11.77 14.331,29.179 0,36.996 7.278,15.386 19.311,26.017 34.995,32.996 5.216,-3.45 8.641,-8.691 12.999,-12.998 9.104,3.561 17.614,7.715 24.996,12.998 0.759,17.201 -13.736,23.562 -25.996,22.997 -25.865,-1.19 -61.414,-33.867 -69.991,-57.993 -5.09,-14.315 0.764,-41.695 22.997,-34.996 z"
       id="path11"
       inkscape:connector-curvature="0"
       style="clip-rule:evenodd;fill:#ffffff;fill-rule:evenodd;stroke:none;stroke-width:5.59015274" /></g></svg>