<?xml version="1.0" encoding="UTF-8" standalone="no"?>
<!-- Generator: Adobe Illustrator 16.0.0, SVG Export Plug-In . SVG Version: 6.00 Build 0)  -->

<svg
   xmlns:dc="http://purl.org/dc/elements/1.1/"
   xmlns:cc="http://creativecommons.org/ns#"
   xmlns:rdf="http://www.w3.org/1999/02/22-rdf-syntax-ns#"
   xmlns:svg="http://www.w3.org/2000/svg"
   xmlns="http://www.w3.org/2000/svg"
   xmlns:sodipodi="http://sodipodi.sourceforge.net/DTD/sodipodi-0.dtd"
   xmlns:inkscape="http://www.inkscape.org/namespaces/inkscape"
   version="1.1"
   id="Capa_1"
   x="0px"
   y="0px"
   width="87.660004"
   height="73.699997"
   viewBox="0 0 104.78298 88.096111"
   xml:space="preserve"
   inkscape:version="0.91 r"
   sodipodi:docname="contact.svg"><metadata
     id="metadata44"><rdf:RDF><cc:Work
         rdf:about=""><dc:format>image/svg+xml</dc:format><dc:type
           rdf:resource="http://purl.org/dc/dcmitype/StillImage" /><dc:title></dc:title></cc:Work></rdf:RDF></metadata><defs
     id="defs42" /><sodipodi:namedview
     pagecolor="#ffffff"
     bordercolor="#666666"
     borderopacity="1"
     objecttolerance="10"
     gridtolerance="10"
     guidetolerance="10"
     inkscape:pageopacity="0"
     inkscape:pageshadow="2"
     inkscape:window-width="1440"
     inkscape:window-height="863"
     id="namedview40"
     showgrid="false"
     inkscape:zoom="5.2149125"
     inkscape:cx="77.139978"
     inkscape:cy="29.465839"
     inkscape:window-x="0"
     inkscape:window-y="180"
     inkscape:window-maximized="1"
     inkscape:current-layer="g4172" /><g
     style="fill:#6852ae;fill-opacity:1;stroke:none;stroke-opacity:1"
     id="g4172"
     transform="matrix(0.10669721,0,0,0.10669721,19.350564,25.655749)"><g
       style="fill:#ffe082;fill-opacity:1;stroke:none;stroke-opacity:1"
       id="g4174"><g
         style="fill:#ffe082;fill-opacity:1;stroke:none;stroke-opacity:1"
         id="g4176"><path
           style="fill:#ffe082;fill-opacity:1;stroke:none;stroke-opacity:1"
           id="path4178"
           d="m 612,156.232 c 0,-13.065 -5.16,-24.885 -13.393,-33.897 -0.137,-0.179 -0.168,-0.39 -0.316,-0.57 -0.137,-0.158 -0.327,-0.222 -0.475,-0.369 -9.361,-9.794 -22.55602,-16.28591 -37.243,-15.988 L 63.356158,115.49344 c -14.686979,0.29791 -27.882,6.194 -37.264,15.988 -0.137,0.147 -0.338,0.211 -0.475,0.38 -0.148,0.169 -0.179,0.39 -0.316,0.57 -8.221,9.012 -13.174454,20.82265 -13.382,33.886 l -4.5842916,288.5437 c -0.2125822,13.38031 5.3719996,25.486 13.9619996,34.573 0.169,0.189 0.222,0.422 0.412,0.602 0.063,0.063 0.137,0.073 0.201,0.137 9.361,9.541 22.399917,15.92776 36.863,15.514 l 496.758414,-14.2113 c 14.46308,-0.41376 27.513,-5.983 36.863,-15.523 0.063,-0.054 0.137,-0.074 0.2,-0.127 0.18,-0.169 0.232,-0.401 0.401,-0.581 8.601,-9.086 13.73558,-21.20311 13.973,-34.594 L 612.011,156.232 Z"
           inkscape:connector-curvature="0"
           sodipodi:nodetypes="ccccsscccsscccsscccscc" /></g></g></g><g
     id="g3"
     style="fill:#6852ae;fill-opacity:1;stroke:none;stroke-opacity:1"
     transform="matrix(0.10669721,0,0,0.10669721,19.546206,25.655749)"><g
       id="Shape_17"
       style="fill:#6852ae;fill-opacity:1;stroke:none;stroke-opacity:1"><g
         id="g6"
         style="fill:#6852ae;fill-opacity:1;stroke:none;stroke-opacity:1"><path
           d="m 612,156.232 c 0,-13.065 -5.16,-24.885 -13.393,-33.897 -0.137,-0.179 -0.168,-0.39 -0.316,-0.57 -0.137,-0.158 -0.327,-0.222 -0.475,-0.369 -9.361,-9.794 -22.55421,-16.17621 -37.243,-15.988 l -500.884275,6.41801 c -14.688795,0.18821 -27.882,6.194 -37.264,15.988 -0.137,0.147 -0.338,0.211 -0.475,0.38 -0.148,0.169 -0.179,0.39 -0.316,0.57 -8.221,9.012 -13.1780178,20.82259 -13.3820003,33.886 L 3.6674332,456.23643 c -0.2089317,13.38037 5.372,25.486 13.9619998,34.573 0.169,0.189 0.222,0.422 0.412,0.602 0.063,0.063 0.137,0.073 0.201,0.137 9.361,9.541 22.397799,15.84553 36.863,15.514 L 557.58351,495.54608 c 14.4652,-0.33153 27.513,-5.983 36.863,-15.523 0.063,-0.054 0.137,-0.074 0.2,-0.127 0.18,-0.169 0.232,-0.401 0.401,-0.581 8.601,-9.086 13.83417,-21.20171 13.973,-34.594 L 612.011,156.232 Z M 426.59828,281.09857 c -0.61009,-13.81075 148.55734,-122.95371 152.38029,-120.95365 3.82295,2.00006 2.6559,7.9051 2.754,12.294 l 6.08594,272.28016 c 0.0887,3.96802 -0.823,7.736 -2.248,11.208 0,0 -158.36214,-161.01776 -158.97223,-174.82851 z M 560.573,126.355 c 4.44261,-0.0591 8.633,1.013 12.442,2.723 0,0 -247.97769,207.11504 -270.8999,207.11504 -22.92222,0 -236.531209,-200.69703 -236.531209,-200.69703 3.81,-1.709 8.000392,-2.66393 12.442,-2.723 z M 27.117433,467.43443 c -1.425,-3.461 -2.357956,-7.24053 -2.248,-11.208 L 32.662729,175.0276 c 0.12162,-4.38832 1.024,-8.538 2.754,-12.294 0,0 161.459751,102.92913 164.907271,127.4424 3.44752,24.51327 -173.206567,177.25843 -173.206567,177.25843 z m 46.788185,12.83415 c -4.895664,0.0575 -9.456,-1.267 -13.55,-3.313 0,0 140.955782,-162.99477 159.503962,-162.90851 18.54818,0.0863 79.33842,58.09793 79.33842,58.09793 1.963,1.636 4.39,2.459 6.807,2.459 2.417,0 4.844,-0.823 6.807,-2.459 0,0 65.10565,-65.95812 82.58,-68.471 17.47435,-2.51288 175.74051,167.60008 175.74051,167.60008 -4.095,2.047 -8.65335,3.25547 -13.551,3.313 z"
           id="path8"
           style="fill:#6852ae;fill-opacity:1;stroke:none;stroke-opacity:1"
           inkscape:connector-curvature="0"
           sodipodi:nodetypes="ccccsscccsscccsscccscczzssczsczcsscssczcsczcsczcss" /></g></g></g><g
     id="g10"
     transform="translate(0,-523.91487)" /><g
     id="g12"
     transform="translate(0,-523.91487)" /><g
     id="g14"
     transform="translate(0,-523.91487)" /><g
     id="g16"
     transform="translate(0,-523.91487)" /><g
     id="g18"
     transform="translate(0,-523.91487)" /><g
     id="g20"
     transform="translate(0,-523.91487)" /><g
     id="g22"
     transform="translate(0,-523.91487)" /><g
     id="g24"
     transform="translate(0,-523.91487)" /><g
     id="g26"
     transform="translate(0,-523.91487)" /><g
     id="g28"
     transform="translate(0,-523.91487)" /><g
     id="g30"
     transform="translate(0,-523.91487)" /><g
     id="g32"
     transform="translate(0,-523.91487)" /><g
     id="g34"
     transform="translate(0,-523.91487)" /><g
     id="g36"
     transform="translate(0,-523.91487)" /><g
     id="g38"
     transform="translate(0,-523.91487)" /></svg>