<?xml version="1.0" encoding="UTF-8" standalone="no"?>
<!-- Generator: Adobe Illustrator 15.1.0, SVG Export Plug-In . SVG Version: 6.00 Build 0)  -->

<svg
   xmlns:dc="http://purl.org/dc/elements/1.1/"
   xmlns:cc="http://creativecommons.org/ns#"
   xmlns:rdf="http://www.w3.org/1999/02/22-rdf-syntax-ns#"
   xmlns:svg="http://www.w3.org/2000/svg"
   xmlns="http://www.w3.org/2000/svg"
   xmlns:sodipodi="http://sodipodi.sourceforge.net/DTD/sodipodi-0.dtd"
   xmlns:inkscape="http://www.inkscape.org/namespaces/inkscape"
   version="1.1"
   id="Ebene_1"
   sodipodi:docname="homoeopathie.svg"
   inkscape:version="0.91 r13725"
   x="0px"
   y="0px"
   width="87.66px"
   height="73.7px"
   viewBox="0 0 87.66 73.7"
   enable-background="new 0 0 87.66 73.7"
   xml:space="preserve"><metadata
     id="metadata27"><rdf:RDF><cc:Work
         rdf:about=""><dc:format>image/svg+xml</dc:format><dc:type
           rdf:resource="http://purl.org/dc/dcmitype/StillImage" /></cc:Work></rdf:RDF></metadata><defs
     id="defs25" /><sodipodi:namedview
     pagecolor="#ffffff"
     bordercolor="#666666"
     borderopacity="1"
     objecttolerance="10"
     gridtolerance="10"
     guidetolerance="10"
     inkscape:pageopacity="0"
     inkscape:pageshadow="2"
     inkscape:window-width="1440"
     inkscape:window-height="836"
     id="namedview23"
     showgrid="false"
     inkscape:zoom="9.0571076"
     inkscape:cx="30.089674"
     inkscape:cy="30.558437"
     inkscape:window-x="0"
     inkscape:window-y="151"
     inkscape:window-maximized="1"
     inkscape:current-layer="g3" /><g
     id="g3"><path
       fill="#8476B4"
       d="M61.641,33.21c-2.61,1.418-5.604,1.593-8.538,1.929c-1.433,0.166-2.851,0.37-4.2,0.778   c-0.293,0.089-0.585,0.188-0.872,0.298c-0.853,0.326-1.675,0.754-2.451,1.325c-0.728,0.535-1.323,1.17-1.827,1.867   c-0.8,1.115-1.356,2.398-1.814,3.732c-0.836,2.42-1.221,4.992-1.146,7.551c0.031,1.037,0.047,2.115,0.305,3.129   c0.058,0.225,0.113,0.508,0.287,0.674c0.226,0.217,0.631-0.006,0.541-0.324c-0.658-2.236-0.25-4.854,0.658-6.992   c1.043-2.459,3.059-3.922,5.521-4.812c0.653-0.236,1.321-0.445,2-0.641c0.014-0.006,0.028-0.006,0.042-0.006   c0.135,0,0.193,0.199,0.052,0.262c-0.8,0.363-1.595,0.727-2.351,1.121c-3.703,1.932-5.321,6.43-3.934,6.43   c0.114,0,0.246-0.029,0.398-0.094c2.141-0.885,4.686-0.893,7.039-1.33c0.828-0.15,1.635-0.357,2.391-0.674   c3.003-1.252,5.148-3.703,6.428-6.65c0.951-2.197,1.321-4.796,2.041-7.082c0.094-0.292-0.113-0.543-0.367-0.543   C61.779,33.154,61.709,33.171,61.641,33.21"
       id="path5" /><path
       d="M44.121,48.456c0.078-0.904,1.305-3.588,4.047-5.018c0.746-0.391,1.554-0.76,2.315-1.105   c0.365-0.164,0.563-0.553,0.479-0.943c-0.086-0.396-7.26,0.082-9.276,7.32c-0.276-0.988-0.296-2.551,0.915-5.631   c0.583-1.482,1.064-2.633,1.721-3.549c0.496-0.689,1.043-1.248,1.672-1.711c0.686-0.504,1.433-0.909,2.283-1.234   c0.266-0.101,0.543-0.195,0.824-0.28c1.321-0.4,2.74-0.599,4.077-0.754c0.338-0.038,0.678-0.075,1.019-0.111   c2.397-0.259,4.87-0.526,7.131-1.574c-0.197,0.701-0.373,1.42-0.543,2.121c-0.351,1.44-0.713,2.928-1.273,4.223   c-1.301,2.998-3.393,5.168-6.051,6.277c-0.631,0.264-1.365,0.469-2.244,0.631c-0.749,0.139-1.542,0.236-2.307,0.33   C47.295,47.645,45.629,47.85,44.121,48.456"
       id="path7"
       fill="#B4E29B" /><path
       fill="#8476B4"
       d="M23.516,25.605c2.611,1.418,5.605,1.593,8.539,1.929c1.432,0.166,2.852,0.37,4.2,0.778   c0.293,0.089,0.585,0.188,0.872,0.298c0.853,0.326,1.675,0.754,2.451,1.325c0.728,0.536,1.324,1.17,1.826,1.868   c0.801,1.114,1.357,2.397,1.815,3.73c0.836,2.421,1.22,4.992,1.146,7.55c-0.03,1.039-0.047,2.117-0.304,3.129   c-0.058,0.225-0.112,0.51-0.286,0.676c-0.227,0.217-0.633-0.008-0.541-0.324c0.656-2.238,0.248-4.855-0.66-6.992   c-1.043-2.459-3.058-3.922-5.52-4.813c-0.654-0.237-1.32-0.445-2-0.641c-0.014-0.006-0.027-0.006-0.042-0.006   c-0.135,0-0.192,0.199-0.052,0.262c0.8,0.362,1.595,0.727,2.351,1.121c3.703,1.932,5.321,6.43,3.933,6.43   c-0.113,0-0.246-0.029-0.397-0.094c-2.142-0.887-4.687-0.895-7.04-1.33c-0.828-0.152-1.634-0.359-2.39-0.674   c-3.003-1.254-5.149-3.704-6.427-6.65c-0.952-2.199-1.322-4.798-2.042-7.082c-0.094-0.292,0.113-0.543,0.367-0.543   C23.378,25.551,23.448,25.566,23.516,25.605"
       id="path9" /><path
       fill="#B4E29B"
       d="M41.037,40.85c-0.078-0.902-1.306-3.586-4.047-5.017c-0.748-0.39-1.555-0.759-2.316-1.104   c-0.365-0.164-0.563-0.553-0.479-0.944c0.085-0.396,7.261,0.083,9.276,7.322c0.275-0.988,0.296-2.551-0.915-5.631   c-0.583-1.482-1.063-2.634-1.722-3.55c-0.496-0.688-1.041-1.248-1.67-1.71c-0.687-0.505-1.434-0.909-2.285-1.234   c-0.264-0.101-0.541-0.195-0.823-0.28c-1.321-0.4-2.74-0.599-4.077-0.753c-0.338-0.039-0.678-0.076-1.018-0.112   c-2.398-0.259-4.871-0.526-7.132-1.574c0.198,0.701,0.374,1.42,0.544,2.121c0.35,1.44,0.713,2.928,1.273,4.223   c1.3,2.998,3.392,5.169,6.05,6.279c0.632,0.262,1.366,0.469,2.245,0.631c0.749,0.139,1.542,0.234,2.308,0.328   C37.861,40.042,39.528,40.247,41.037,40.85"
       id="path11" /><path
       fill="#8476B4"
       d="M80.498,21.5c-4.652-2.37-6.566,2.16-6.566,2.16l-8.39,16.467l-18.03,0.109v-0.002l-0.765,0.002   l-0.763-0.002v0.002c0,0-29.731-0.773-30.359,0.045s0,23.104,21.576,26.35c0,0-0.746,1.654,0,2.291   c0.747,0.639,18.73,0.496,19.093,0c0.363-0.496,0-2.291,0-2.291c21.576-3.246,21.902-26.169,21.576-26.35   c-0.384-0.213-1.476-0.002-1.476-0.002l6.215-12.199C82.609,28.081,85.15,23.87,80.498,21.5"
       id="path13" /><path
       d="M38.121,65.231c-17.365-2.613-22.297-22.072-20.306-23.533c1.264-1.463,57.18-0.865,58.57,0   c1.391,0.863-2.271,20.926-19.593,23.533l-1.206,0.182c-0.63,0.818,0,1.385-0.417,2.377c-0.418,0.99-14.746,0-15.842-0.283   C38.232,67.223,39.428,65.506,38.121,65.231"
       id="path15"
       fill="#FFFFFF"
       style="fill:#eceeef;fill-opacity:1" /></g><path
     fill="#B4E29B"
     d="M12.411,69.349c1.158,0,2.097-0.938,2.097-2.096c0-1.159-0.938-2.098-2.097-2.098s-2.097,0.938-2.097,2.098  C10.314,68.411,11.252,69.349,12.411,69.349"
     id="path17" /><path
     fill="#D3EDC4"
     d="M19.497,69.349c1.158,0,2.097-0.938,2.097-2.096c0-1.159-0.939-2.098-2.097-2.098S17.4,66.094,17.4,67.253  C17.4,68.411,18.339,69.349,19.497,69.349"
     id="path19" /><path
     fill="#B4E29B"
     d="M22.39,69.349c1.158,0,2.097-0.938,2.097-2.096c0-1.159-0.938-2.098-2.097-2.098  c-1.158,0-2.096,0.938-2.096,2.098C20.294,68.411,21.232,69.349,22.39,69.349"
     id="path21" /></svg>