<?xml version="1.0" encoding="UTF-8" standalone="no"?>
<!-- Generator: Adobe Illustrator 15.1.0, SVG Export Plug-In . SVG Version: 6.00 Build 0)  -->

<svg
   xmlns:dc="http://purl.org/dc/elements/1.1/"
   xmlns:cc="http://creativecommons.org/ns#"
   xmlns:rdf="http://www.w3.org/1999/02/22-rdf-syntax-ns#"
   xmlns:svg="http://www.w3.org/2000/svg"
   xmlns="http://www.w3.org/2000/svg"
   xmlns:sodipodi="http://sodipodi.sourceforge.net/DTD/sodipodi-0.dtd"
   xmlns:inkscape="http://www.inkscape.org/namespaces/inkscape"
   version="1.1"
   id="Ebene_1"
   x="0px"
   y="0px"
   width="87.66px"
   height="73.7px"
   viewBox="0 0 87.66 73.7"
   enable-background="new 0 0 87.66 73.7"
   xml:space="preserve"
   inkscape:version="0.91 r"
   sodipodi:docname="icon-praxis.svg"><metadata
     id="metadata29"><rdf:RDF><cc:Work
         rdf:about=""><dc:format>image/svg+xml</dc:format><dc:type
           rdf:resource="http://purl.org/dc/dcmitype/StillImage" /></cc:Work></rdf:RDF></metadata><defs
     id="defs27" /><sodipodi:namedview
     pagecolor="#ffffff"
     bordercolor="#666666"
     borderopacity="1"
     objecttolerance="10"
     gridtolerance="10"
     guidetolerance="10"
     inkscape:pageopacity="0"
     inkscape:pageshadow="2"
     inkscape:window-width="1440"
     inkscape:window-height="863"
     id="namedview25"
     showgrid="false"
     inkscape:zoom="4.5285538"
     inkscape:cx="25.438196"
     inkscape:cy="10.886205"
     inkscape:window-x="0"
     inkscape:window-y="180"
     inkscape:window-maximized="1"
     inkscape:current-layer="Ebene_1" /><path
     style="fill:#ffe082;fill-opacity:1;fill-rule:evenodd;stroke:none;stroke-width:1px;stroke-linecap:butt;stroke-linejoin:miter;stroke-opacity:1"
     d="m 29.203583,44.55162 1.32492,28.59633 -9.16407,0.11041 -3.643549,-1.54575 -0.55205,-35.77301 25.173599,-26.9401722 29.25879,27.3818122 2.20821,13.80132 1.32493,10.93064 -0.33124,9.3849 -5.18929,1.21451 -28.92756,0.77287 -0.44164,-27.71304 z"
     id="path4188"
     inkscape:connector-curvature="0" /><path
     style="fill:#ffffff;fill-rule:evenodd;stroke:none;stroke-width:1px;stroke-linecap:butt;stroke-linejoin:miter;stroke-opacity:1;fill-opacity:1"
     d="m 52.55541,42.78505 -0.552053,10.489 0.331232,3.974779 9.605715,-0.110411 0.552053,-8.170379 -1.656158,-5.410115 z"
     id="path4230"
     inkscape:connector-curvature="0" /><g
     id="g3"><g
       id="g5"><g
         id="g7"><g
           id="g9"><path
             d="M71.084,34.309c-1.873-0.301,6.657,32.049,2.312,34.961c-4.343,2.912-30.307,2.23-31.387,1.26      c-1.221-1.096-1.156-23.484-1.164-27.379l-12.533-0.457c0,0,1.599,23.277,1.857,28.744c-5.502,1.295-9.688,1.217-11.043-0.293      c-1.354-1.51-0.654-28.539-0.397-35.836c-3.38,0.941-2.706,8.17-2.637,14.756c0.091,8.617,0.722,22.172,0.722,22.172      s3.936,1.674,7.352,1.441c0.857,0.029,3.463,0.023,7.057-0.025c0.344-7.979-1.229-27.002-0.412-28.26      c0.816-1.256,8.557-0.406,8.557-0.406s0.128,20.678,0.519,28.52c13.738-0.32,32.546-1.025,34.859-2.305      C78.353,69.207,72.959,34.609,71.084,34.309z"
             id="path11"
             fill="#7061A8" /></g><g
           id="g13"><path
             d="M42.337,7.145C39.659,7.297,6.381,44.775,8.448,46.262      S41.432,9.283,42.922,10.699c1.489,1.418,26.142,21.166,36.242,35.203C81.624,42.938,45.017,6.992,42.337,7.145z"
             id="path15"
             clip-rule="evenodd"
             fill-rule="evenodd"
             fill="#7061A8" /></g><path
           d="M51.966,42.197c0.615,6.131-1.93,11.613-0.566,16.242     c3.664-0.467,7.584-0.658,12.029-0.287c0.311-5.984,0.077-11.459-1.576-15.609C58.557,42.428,55.262,42.312,51.966,42.197z      M61.413,55.797c-3.191-0.266-6.007-0.129-8.637,0.207c-0.979-3.322,0.849-7.26,0.407-11.662     c2.366,0.082,4.732,0.166,7.098,0.248C61.469,47.57,61.637,51.5,61.413,55.797z"
           id="path17"
           clip-rule="evenodd"
           fill-rule="evenodd"
           fill="#7061A8" /></g><g
         id="g19"><circle
           cx="43.392"
           cy="29.352"
           r="7.688"
           id="circle21"
           clip-rule="evenodd"
           fill-rule="evenodd"
           fill="#7061A8" /><polygon
           points="49.055,27.963 45.008,27.883 45.088,23.75 42.089,23.691 42.008,27.824 37.787,27.742      37.729,30.742 41.95,30.824 41.869,34.957 44.869,35.016 44.949,30.883 48.996,30.961    "
           id="polygon23"
           fill="#FFFFFF" /></g></g></g><g
     id="g4159"
     transform="translate(-93.374149,0)"><g
       id="g4161"><g
         id="g4163" /></g></g></svg>