<?xml version="1.0" encoding="utf-8"?>
<!-- Generator: Adobe Illustrator 15.1.0, SVG Export Plug-In . SVG Version: 6.00 Build 0)  -->
<!DOCTYPE svg PUBLIC "-//W3C//DTD SVG 1.1//EN" "http://www.w3.org/Graphics/SVG/1.1/DTD/svg11.dtd">
<svg version="1.1"
	 id="Ebene_1" sodipodi:docname="tea.svg" inkscape:version="0.91 r" xmlns:sodipodi="http://sodipodi.sourceforge.net/DTD/sodipodi-0.dtd" xmlns:inkscape="http://www.inkscape.org/namespaces/inkscape" xmlns:rdf="http://www.w3.org/1999/02/22-rdf-syntax-ns#" xmlns:svg="http://www.w3.org/2000/svg" xmlns:cc="http://creativecommons.org/ns#" xmlns:dc="http://purl.org/dc/elements/1.1/"
	 xmlns="http://www.w3.org/2000/svg" xmlns:xlink="http://www.w3.org/1999/xlink" x="0px" y="0px" width="87.66px" height="73.7px"
	 viewBox="0 0 87.66 73.7" enable-background="new 0 0 87.66 73.7" xml:space="preserve">
<sodipodi:namedview  bordercolor="#666666" pagecolor="#ffffff" borderopacity="1" objecttolerance="10" id="namedview25" gridtolerance="10" inkscape:window-width="1440" inkscape:window-maximized="1" showgrid="false" inkscape:zoom="1.6010855" inkscape:cx="59.648088" inkscape:window-height="863" inkscape:window-x="0" inkscape:window-y="180" guidetolerance="10" inkscape:pageopacity="0" inkscape:pageshadow="2" inkscape:current-layer="g3414" inkscape:cy="44.735874">
	</sodipodi:namedview>
<g>
	<path fill="#7162A7" d="M39.549,56.508l-0.642-3.326L35.955,40.6l0.031-1.887l-5.693-24.615c0.951-0.613,1.472-1.766,1.202-2.929
		c-0.349-1.481-1.826-2.402-3.303-2.059c-1.478,0.344-2.4,1.821-2.054,3.298c0.269,1.164,1.243,1.97,2.369,2.098l5.692,24.616
		l0.861,1.682l2.952,12.578l0.863,3.174l2.389,8.797L39.549,56.508z"/>
</g>
<g>
	<path fill="#7162A7" d="M45.378,56.268l-0.03-3.388l-0.629-12.909l0.372-1.85l-1.149-25.238c1.047-0.431,1.768-1.471,1.711-2.663
		c-0.075-1.52-1.361-2.693-2.876-2.622c-1.515,0.072-2.69,1.357-2.616,2.873c0.054,1.193,0.866,2.162,1.95,2.492l1.148,25.24
		l0.542,1.809l0.629,12.905l0.274,3.277l0.76,9.084L45.378,56.268z"/>
</g>
<g>
	<path fill="#7162A7" d="M50.771,56.45l0.684-3.318l2.1-12.752l0.752-1.73l4.184-24.916c1.113-0.201,2.036-1.066,2.232-2.244
		c0.246-1.502-0.766-2.919-2.261-3.168c-1.496-0.249-2.915,0.761-3.161,2.258c-0.198,1.178,0.392,2.296,1.383,2.846l-4.186,24.917
		l0.15,1.883l-2.098,12.749l-0.421,3.262l-1.168,9.042L50.771,56.45z"/>
</g>
<ellipse fill="#AACF85" cx="28.897" cy="11.449" rx="1.998" ry="1.874"/>
<ellipse fill="#AACF85" cx="42.906" cy="10.158" rx="1.998" ry="1.874"/>
<ellipse fill="#AACF85" cx="57.906" cy="10.914" rx="1.998" ry="1.874"/>
</svg>
