<?xml version="1.0" encoding="UTF-8" standalone="no"?>
<!-- Generator: Adobe Illustrator 15.1.0, SVG Export Plug-In . SVG Version: 6.00 Build 0)  -->

<svg
   xmlns:dc="http://purl.org/dc/elements/1.1/"
   xmlns:cc="http://creativecommons.org/ns#"
   xmlns:rdf="http://www.w3.org/1999/02/22-rdf-syntax-ns#"
   xmlns:svg="http://www.w3.org/2000/svg"
   xmlns="http://www.w3.org/2000/svg"
   xmlns:sodipodi="http://sodipodi.sourceforge.net/DTD/sodipodi-0.dtd"
   xmlns:inkscape="http://www.inkscape.org/namespaces/inkscape"
   version="1.1"
   id="Ebene_1"
   x="0px"
   y="0px"
   width="87.66px"
   height="73.7px"
   viewBox="0 0 87.66 73.7"
   enable-background="new 0 0 87.66 73.7"
   xml:space="preserve"
   inkscape:version="0.91 r13725"
   sodipodi:docname="needle.svg"><metadata
     id="metadata29"><rdf:RDF><cc:Work
         rdf:about=""><dc:format>image/svg+xml</dc:format><dc:type
           rdf:resource="http://purl.org/dc/dcmitype/StillImage" /></cc:Work></rdf:RDF></metadata><defs
     id="defs27"><clipPath
       clipPathUnits="userSpaceOnUse"
       id="clipPath3510"><path
         d="m 302.047,656.798 c -7.533,-9.019 0.861,-17.059 0.861,-17.059 l 0,0 c -4.101,8.397 2.43,13.601 8.226,23.906 l 0,0 c 5.22,9.275 -5.659,14.323 -5.659,14.323 l 0,0 c 0,0 9.307,-5.922 -3.428,-21.17"
         id="path3512"
         inkscape:connector-curvature="0" /></clipPath><mask
       maskUnits="userSpaceOnUse"
       x="0"
       y="0"
       width="1"
       height="1"
       id="mask3528"><g
         id="g3530"><g
           clip-path="url(#clipPath3518)"
           id="g3532"><g
             id="g3534"><g
               id="g3536"><path
                 d="m -32768,32767 65535,0 0,-65535 -65535,0 0,65535 z"
                 style="fill:url(#linearGradient3522);stroke:none"
                 id="path3538"
                 inkscape:connector-curvature="0" /></g></g></g></g></mask><clipPath
       clipPathUnits="userSpaceOnUse"
       id="clipPath3518"><path
         d="m -32768,32767 65535,0 0,-65535 -65535,0 0,65535 z"
         id="path3520"
         inkscape:connector-curvature="0" /></clipPath><linearGradient
       x1="0"
       y1="0"
       x2="1"
       y2="0"
       gradientUnits="userSpaceOnUse"
       gradientTransform="matrix(0,38.228699,38.228699,0,305.73016,639.7392)"
       spreadMethod="pad"
       id="linearGradient3522"><stop
         style="stop-opacity:1;stop-color:#ffffff"
         offset="0"
         id="stop3524" /><stop
         style="stop-opacity:0;stop-color:#ffffff"
         offset="1"
         id="stop3526" /></linearGradient><clipPath
       clipPathUnits="userSpaceOnUse"
       id="clipPath3464"><path
         d="m 292.161,660.832 c -6.554,-9.719 4.235,-21.093 4.235,-21.093 l 0,0 c -6.632,10.382 0.475,16.817 5.728,29.558 l 0,0 c 4.728,11.47 -9.661,17.711 -9.661,17.711 l 0,0 c 0,0 12.471,-7.234 -0.302,-26.176"
         id="path3466"
         inkscape:connector-curvature="0" /></clipPath><mask
       maskUnits="userSpaceOnUse"
       x="0"
       y="0"
       width="1"
       height="1"
       id="mask3482"><g
         id="g3484"><g
           clip-path="url(#clipPath3472)"
           id="g3486"><g
             id="g3488"><g
               id="g3490"><path
                 d="m -32768,32767 65535,0 0,-65535 -65535,0 0,65535 z"
                 style="fill:url(#linearGradient3476);stroke:none"
                 id="path3492"
                 inkscape:connector-curvature="0" /></g></g></g></g></mask><clipPath
       clipPathUnits="userSpaceOnUse"
       id="clipPath3472"><path
         d="m -32768,32767 65535,0 0,-65535 -65535,0 0,65535 z"
         id="path3474"
         inkscape:connector-curvature="0" /></clipPath><linearGradient
       x1="0"
       y1="0"
       x2="1"
       y2="0"
       gradientUnits="userSpaceOnUse"
       gradientTransform="matrix(0,47.268601,47.268601,0,296.56293,639.7392)"
       spreadMethod="pad"
       id="linearGradient3476"><stop
         style="stop-opacity:1;stop-color:#ffffff"
         offset="0"
         id="stop3478" /><stop
         style="stop-opacity:0;stop-color:#ffffff"
         offset="1"
         id="stop3480" /></linearGradient><clipPath
       clipPathUnits="userSpaceOnUse"
       id="clipPath3376"><path
         d="m 271.453,637.646 c -0.702,0 -1.286,-0.535 -1.349,-1.234 l 0,0 c -0.048,-0.55 -0.072,-1.058 -0.072,-1.553 l 0,0 0,-37.323 c 0,-9.702 7.893,-17.595 17.595,-17.595 l 0,0 18.99,0 c 8.999,0 16.436,6.791 17.468,15.517 l 0,0 c 0.043,-10e-4 0.085,-0.004 0.127,-0.004 l 0,0 0,7.193 0,22.785 0,7.193 0,2.234 c 0,0.495 -0.023,1.003 -0.072,1.553 l 0,0 c -0.061,0.699 -0.647,1.234 -1.348,1.234 l 0,0 -51.339,0 z"
         id="path3378"
         inkscape:connector-curvature="0" /></clipPath><clipPath
       clipPathUnits="userSpaceOnUse"
       id="clipPath3510-5"><path
         d="m 302.047,656.798 c -7.533,-9.019 0.861,-17.059 0.861,-17.059 l 0,0 c -4.101,8.397 2.43,13.601 8.226,23.906 l 0,0 c 5.22,9.275 -5.659,14.323 -5.659,14.323 l 0,0 c 0,0 9.307,-5.922 -3.428,-21.17"
         id="path3512-5"
         inkscape:connector-curvature="0" /></clipPath><clipPath
       clipPathUnits="userSpaceOnUse"
       id="clipPath3464-2"><path
         d="m 292.161,660.832 c -6.554,-9.719 4.235,-21.093 4.235,-21.093 l 0,0 c -6.632,10.382 0.475,16.817 5.728,29.558 l 0,0 c 4.728,11.47 -9.661,17.711 -9.661,17.711 l 0,0 c 0,0 12.471,-7.234 -0.302,-26.176"
         id="path3466-9"
         inkscape:connector-curvature="0" /></clipPath></defs><sodipodi:namedview
     pagecolor="#ffffff"
     bordercolor="#666666"
     borderopacity="1"
     objecttolerance="10"
     gridtolerance="10"
     guidetolerance="10"
     inkscape:pageopacity="0"
     inkscape:pageshadow="2"
     inkscape:window-width="1440"
     inkscape:window-height="836"
     id="namedview25"
     showgrid="false"
     inkscape:zoom="18.114215"
     inkscape:cx="48.224785"
     inkscape:cy="50.856762"
     inkscape:window-x="0"
     inkscape:window-y="27"
     inkscape:window-maximized="1"
     inkscape:current-layer="g5" /><g
     id="g3461"
     transform="matrix(0.44634562,0,0,0.44634562,12.684248,-7.7800851)"><g
       id="g3470"
       style="fill:#7061a8;fill-opacity:1"
       transform="matrix(1.25,0,0,-1.25,-312.74236,893.36658)" /><g
       id="g3516"
       style="fill:#7061a8;fill-opacity:1"
       transform="matrix(1.25,0,0,-1.25,-312.74236,893.36658)" /><g
       id="g3540"
       mask="url(#mask3528)"
       style="fill:#7061a8;fill-opacity:1"
       transform="matrix(1.25,0,0,-1.25,-312.74236,893.36658)" /><g
       transform="matrix(0.64810696,0,0,0.64810696,4.3089359,37.186149)"
       id="g3"
       style="fill:#7061a8;fill-opacity:1"><g
         id="g5"
         style="fill:#7061a8;fill-opacity:1"><circle
           r="7.4426422"
           cy="67.802521"
           cx="35.571293"
           id="circle3392"
           style="opacity:1;fill:#87cdde;fill-opacity:1" /><circle
           style="opacity:1;fill:#87cdde;fill-opacity:1"
           id="circle3390"
           cx="63.624329"
           cy="12.268959"
           r="7.4426422" /><circle
           r="7.4426422"
           cy="9.4064045"
           cx="118.39454"
           id="circle3388"
           style="opacity:1;fill:#87cdde;fill-opacity:1" /><circle
           style="opacity:1;fill:#87cdde;fill-opacity:1"
           id="path3386"
           cx="165.72211"
           cy="10.742263"
           r="7.4426422" /><path
           style="fill:#7061a8;fill-opacity:1"
           inkscape:connector-curvature="0"
           d="m 167.756,1.513 c -5.165,-0.908 -10.101,2.536 -11.002,7.705 -0.724,4.065 1.284,7.951 4.688,9.882 l -11.294,64.036 0.462,6.512 -11.631,65.965 -1.554,11.261 -17.072,-17.073 0,-60.036 1.575,-6.333 0,-65.016 c 3.684,-1.311 6.345,-4.783 6.345,-8.92 0,-5.244 -4.263,-9.496 -9.502,-9.496 -5.253,0 -9.494,4.257 -9.494,9.496 0,4.124 2.654,7.604 6.328,8.92 l 0,65.024 1.579,6.331 0,56.868 L 95.479,124.932 86.043,89.703 85.925,83.181 69.099,20.372 C 72.308,18.153 73.973,14.109 72.913,10.118 71.554,5.053 66.337,2.044 61.278,3.406 56.21,4.758 53.21,9.972 54.557,15.034 c 1.071,3.984 4.54,6.66 8.433,6.974 l 16.827,62.808 3.164,5.71 7.204,26.881 -45.717,-45.73 c 1.676,-3.526 1.092,-7.856 -1.833,-10.777 -3.705,-3.707 -9.714,-3.707 -13.425,0 -3.715,3.705 -3.715,9.719 0,13.426 2.92,2.919 7.25,3.502 10.781,1.828 l 45.975,45.981 5.598,3.359 1.081,1.078 7.678,28.646 12.618,40.976 -9.56,-41.784 -6.257,-23.36 20.062,20.061 0,5.652 1.587,42.835 1.582,-42.835 0,-2.484 16.525,16.536 -3.781,27.272 5.49,-25.564 0.337,0.339 31.409,29.171 -29.17,-31.401 -1.791,-1.792 2.726,-12.655 11.636,-65.974 2.657,-5.959 11.284,-64.033 c 3.857,-0.657 7.074,-3.62 7.793,-7.683 0.899,-5.184 -2.552,-10.115 -7.714,-11.023 z m -55.327,7.983 c 0,-3.496 2.84,-6.33 6.337,-6.33 3.493,0 6.331,2.834 6.331,6.33 0,3.492 -2.838,6.332 -6.331,6.332 -3.497,0 -6.337,-2.84 -6.337,-6.332 z m -47.057,9.196 c -3.378,0.901 -6.853,-1.105 -7.755,-4.479 -0.901,-3.376 1.099,-6.851 4.478,-7.759 3.38,-0.903 6.852,1.105 7.755,4.482 0.901,3.368 -1.104,6.842 -4.478,7.756 z M 40.393,72.085 c -2.465,2.465 -6.479,2.465 -8.954,0 -2.465,-2.471 -2.465,-6.481 0,-8.953 2.47,-2.473 6.483,-2.473 8.954,0 2.471,2.472 2.471,6.477 0,8.953 z M 165.009,17.1 c -3.445,-0.604 -5.743,-3.893 -5.136,-7.335 0.602,-3.439 3.895,-5.743 7.33,-5.144 3.447,0.607 5.748,3.896 5.138,7.346 -0.599,3.442 -3.896,5.743 -7.332,5.133 z"
           id="path7" /></g></g><g
       transform="matrix(0.64810696,0,0,0.64810696,2.4920894,37.186149)"
       id="g9"
       style="fill:#7061a8;fill-opacity:1" /><g
       transform="matrix(0.64810696,0,0,0.64810696,2.4920894,37.186149)"
       id="g11"
       style="fill:#7061a8;fill-opacity:1" /><g
       transform="matrix(0.64810696,0,0,0.64810696,2.4920894,37.186149)"
       id="g13"
       style="fill:#7061a8;fill-opacity:1" /><g
       transform="matrix(0.64810696,0,0,0.64810696,2.4920894,37.186149)"
       id="g15"
       style="fill:#7061a8;fill-opacity:1" /><g
       transform="matrix(0.64810696,0,0,0.64810696,2.4920894,37.186149)"
       id="g17"
       style="fill:#7061a8;fill-opacity:1" /><g
       transform="matrix(0.64810696,0,0,0.64810696,2.4920894,37.186149)"
       id="g19"
       style="fill:#7061a8;fill-opacity:1" /><g
       transform="matrix(0.64810696,0,0,0.64810696,2.4920894,37.186149)"
       id="g21"
       style="fill:#7061a8;fill-opacity:1" /><g
       transform="matrix(0.64810696,0,0,0.64810696,2.4920894,37.186149)"
       id="g23"
       style="fill:#7061a8;fill-opacity:1" /><g
       transform="matrix(0.64810696,0,0,0.64810696,2.4920894,37.186149)"
       id="g25"
       style="fill:#7061a8;fill-opacity:1" /><g
       transform="matrix(0.64810696,0,0,0.64810696,2.4920894,37.186149)"
       id="g27"
       style="fill:#7061a8;fill-opacity:1" /><g
       transform="matrix(0.64810696,0,0,0.64810696,2.4920894,37.186149)"
       id="g29"
       style="fill:#7061a8;fill-opacity:1" /><g
       transform="matrix(0.64810696,0,0,0.64810696,2.4920894,37.186149)"
       id="g31"
       style="fill:#7061a8;fill-opacity:1" /><g
       transform="matrix(0.64810696,0,0,0.64810696,2.4920894,37.186149)"
       id="g33"
       style="fill:#7061a8;fill-opacity:1" /><g
       transform="matrix(0.64810696,0,0,0.64810696,2.4920894,37.186149)"
       id="g35"
       style="fill:#7061a8;fill-opacity:1" /><g
       transform="matrix(0.64810696,0,0,0.64810696,2.4920894,37.186149)"
       id="g37"
       style="fill:#7061a8;fill-opacity:1" /></g></svg>