<?xml version="1.0" encoding="UTF-8" standalone="no"?>
<!-- Generator: Adobe Illustrator 15.1.0, SVG Export Plug-In . SVG Version: 6.00 Build 0)  -->

<svg
   xmlns:dc="http://purl.org/dc/elements/1.1/"
   xmlns:cc="http://creativecommons.org/ns#"
   xmlns:rdf="http://www.w3.org/1999/02/22-rdf-syntax-ns#"
   xmlns:svg="http://www.w3.org/2000/svg"
   xmlns="http://www.w3.org/2000/svg"
   xmlns:sodipodi="http://sodipodi.sourceforge.net/DTD/sodipodi-0.dtd"
   xmlns:inkscape="http://www.inkscape.org/namespaces/inkscape"
   version="1.1"
   id="Ebene_1"
   sodipodi:docname="contact.svg"
   inkscape:version="0.91 r13725"
   x="0px"
   y="0px"
   width="87.66px"
   height="73.7px"
   viewBox="0 0 87.66 73.7"
   enable-background="new 0 0 87.66 73.7"
   xml:space="preserve"><metadata
     id="metadata16"><rdf:RDF><cc:Work
         rdf:about=""><dc:format>image/svg+xml</dc:format><dc:type
           rdf:resource="http://purl.org/dc/dcmitype/StillImage" /></cc:Work></rdf:RDF></metadata><defs
     id="defs14" /><sodipodi:namedview
     inkscape:pageshadow="2"
     inkscape:current-layer="g8"
     inkscape:cy="10.444563"
     inkscape:window-height="987"
     borderopacity="1"
     inkscape:window-x="1440"
     id="namedview25"
     inkscape:window-width="1280"
     inkscape:window-maximized="1"
     showgrid="false"
     inkscape:pageopacity="0"
     inkscape:window-y="0"
     guidetolerance="10"
     gridtolerance="10"
     inkscape:zoom="4.5285538"
     inkscape:cx="-13.867951"
     pagecolor="#ffffff"
     objecttolerance="10"
     bordercolor="#666666" /><g
     id="g4"><path
       fill="#231F20"
       d="M66.032,63.986c-1.12-0.126-2.288-0.157-3.399-0.157l-1.764,0.006c-3.69,0-6.531-0.233-6.744-3.161   c-0.045-0.615,0.197-1.266,0.453-1.955c0.279-0.752,0.569-1.529,0.533-2.372c-0.043-1.043-0.373-1.55-0.754-2.136   c-0.187-0.287-0.395-0.608-0.604-1.049c0.097-0.323,0.298-0.56,0.527-0.829c0.123-0.145,0.246-0.291,0.357-0.449l0.328-0.474   l-0.54-0.199c-0.499-0.186-0.804-0.399-0.905-0.639c-0.15-0.355,0.09-0.903,0.367-1.538c0.33-0.752,0.703-1.605,0.63-2.57   l-0.012-0.151l-0.103-0.113c-0.609-0.676-1.451-0.959-2.195-1.209c-1.091-0.366-1.714-0.617-1.838-1.513   c-0.205-1.493,1.342-3.225,2.365-4.371c0.283-0.316,0.531-0.596,0.705-0.822c0.396-0.519,0.904-1.073,1.395-1.61   c1.062-1.161,2.159-2.362,2.434-3.49c0.162-0.663,0.102-1.35,0.042-2.015c-0.044-0.497-0.086-0.967-0.032-1.389   c0.736-5.802,4.227-9.878,8.753-12.408v-1.044c-5.312,2.865-8.906,7.575-9.638,13.34c-0.066,0.518-0.018,1.058,0.029,1.581   c0.055,0.62,0.106,1.205-0.02,1.725c-0.222,0.906-1.24,2.021-2.227,3.099c-0.504,0.551-1.023,1.121-1.443,1.669   c-0.164,0.213-0.396,0.474-0.662,0.771c-1.134,1.268-2.847,3.186-2.584,5.086c0.205,1.487,1.391,1.886,2.438,2.237   c0.619,0.208,1.258,0.423,1.71,0.852c0.006,0.687-0.283,1.348-0.563,1.988c-0.347,0.79-0.674,1.536-0.371,2.246   c0.147,0.348,0.432,0.638,0.863,0.876c-0.287,0.339-0.602,0.727-0.718,1.324l-0.026,0.138l0.057,0.129   c0.257,0.576,0.51,0.965,0.732,1.309c0.348,0.534,0.578,0.888,0.611,1.687c0.027,0.663-0.219,1.324-0.479,2.024   c-0.279,0.748-0.566,1.521-0.508,2.33c0.291,3.979,4.518,3.988,7.613,3.988c0.008,0,0.015,0,0.021,0l1.764-0.006   c1.116,0,2.295,0.021,3.399,0.152V63.986z"
       id="path6" /><g
       id="g8"><path
         fill="#00ADEE"
         d="M38.126,38.174c3.998-2.154,7.012-6.039,7.862-10.858c1.475-8.359-4.107-16.333-12.468-17.807    c-8.361-1.474-16.333,4.108-17.807,12.469c-1.474,8.36,4.108,16.332,12.468,17.808c1.418,0.25,2.822,0.28,4.188,0.146    c0.642,0.9,1.352,1.79,2.241,2.619c2.354,2.195,5.337,3.264,7.74,3.398c0.327,0.018,0.784,0.102,1.033-0.18    C43.25,45.538,40.051,41.436,38.126,38.174"
         id="path10"
         style="fill:#d9534f;fill-opacity:1" /><path
         fill="#231F20"
         d="M42.792,46.42c-0.113,0-0.227-0.009-0.333-0.017l-0.132-0.01c-2.831-0.159-5.828-1.474-8.02-3.518    c-0.744-0.693-1.413-1.464-2.15-2.478c-1.383,0.115-2.746,0.057-4.052-0.174c-8.588-1.516-14.344-9.736-12.83-18.325    c1.335-7.575,7.879-13.073,15.56-13.073c0.92,0,1.85,0.082,2.764,0.243c4.161,0.733,7.787,3.043,10.21,6.505    c2.422,3.461,3.354,7.658,2.62,11.819c-0.816,4.632-3.606,8.597-7.682,10.947c1.492,2.453,3.599,5.278,4.525,6.521    c0.288,0.386,0.468,0.631,0.499,0.685l0.162,0.278l-0.213,0.241C43.403,46.42,42.943,46.42,42.792,46.42z M32.583,39.461    l0.15,0.211c0.761,1.066,1.434,1.854,2.182,2.552c2.044,1.906,4.833,3.132,7.46,3.279l0.152,0.011    c0.041,0.003,0.083,0.007,0.125,0.009c-0.03-0.04-0.062-0.083-0.096-0.129c-0.985-1.32-3.292-4.413-4.814-6.993l-0.235-0.399    l0.408-0.22c4.055-2.185,6.838-6.028,7.634-10.543c0.693-3.926-0.186-7.886-2.472-11.152c-2.287-3.266-5.708-5.446-9.634-6.138    c-0.863-0.152-1.74-0.229-2.609-0.229c-7.247,0-13.421,5.188-14.681,12.336c-1.429,8.104,4.001,15.861,12.106,17.291    c1.308,0.231,2.679,0.279,4.066,0.141L32.583,39.461z"
         id="path12" /></g></g></svg>