<?xml version="1.0" encoding="UTF-8" standalone="no"?>
<!-- Generator: Adobe Illustrator 15.1.0, SVG Export Plug-In . SVG Version: 6.00 Build 0)  -->

<svg
   xmlns:dc="http://purl.org/dc/elements/1.1/"
   xmlns:cc="http://creativecommons.org/ns#"
   xmlns:rdf="http://www.w3.org/1999/02/22-rdf-syntax-ns#"
   xmlns:svg="http://www.w3.org/2000/svg"
   xmlns="http://www.w3.org/2000/svg"
   xmlns:sodipodi="http://sodipodi.sourceforge.net/DTD/sodipodi-0.dtd"
   xmlns:inkscape="http://www.inkscape.org/namespaces/inkscape"
   version="1.1"
   id="Ebene_1"
   sodipodi:docname="service_block_01.svg"
   inkscape:version="0.91 r13725"
   x="0px"
   y="0px"
   width="87.66px"
   height="73.7px"
   viewBox="0 0 87.66 73.7"
   enable-background="new 0 0 87.66 73.7"
   xml:space="preserve"><metadata
     id="metadata14"><rdf:RDF><cc:Work
         rdf:about=""><dc:format>image/svg+xml</dc:format><dc:type
           rdf:resource="http://purl.org/dc/dcmitype/StillImage" /></cc:Work></rdf:RDF></metadata><defs
     id="defs12" /><sodipodi:namedview
     inkscape:pageshadow="2"
     inkscape:current-layer="g4"
     inkscape:cy="10.444563"
     inkscape:window-height="987"
     borderopacity="1"
     inkscape:window-x="1440"
     id="namedview25"
     inkscape:window-width="1280"
     inkscape:window-maximized="1"
     showgrid="false"
     inkscape:pageopacity="0"
     inkscape:window-y="0"
     guidetolerance="10"
     gridtolerance="10"
     inkscape:zoom="4.5285538"
     inkscape:cx="-13.867951"
     pagecolor="#ffffff"
     objecttolerance="10"
     bordercolor="#666666" /><g
     id="g4"><path
       fill="#00ADEE"
       d="M52.364,70.249c8.488,0,15.371-6.883,15.371-15.371c0-8.49-6.883-15.371-15.371-15.371   c-8.49,0-15.371,6.881-15.371,15.371C36.993,63.366,43.874,70.249,52.364,70.249"
       id="path6"
       style="fill:#d9534f;fill-opacity:1" /><path
       fill="#231F20"
       d="M46.872,57.104c0.715,0.018,1.193-0.729,1.592-1.209c2.938-3.523,5.324-9.072,5.324-15.205   c0-4.544-1.17-8.462-2.086-12.295c0.664-1.274,0.899-2.633,1.263-3.896c1.101-3.831,4.144-6.702,4.116-11.418   c-0.022-4.308-2.623-6.914-6.86-6.643c-4.012,0.259-7.123,2.115-10.101,3.459c-2.924-0.814-6.033-2.503-9.441-2.636   c-3.457-0.134-6.303,1.96-6.533,5.38c-0.159,2.381,0.655,4.612,1.318,6.587c0.839,2.499,1.676,4.929,3.184,6.587   c-0.599,0.535-6.747,25.723,5.873,30.85c0.065-0.52,1.152-22.968,4.776-23.549S46.637,56.334,46.872,57.104"
       id="path8" /><path
       fill="#FFFFFF"
       d="M39.428,32.105c2.035,0,4.429,2.825,8.142,23.307c0.043-0.055,0.084-0.107,0.127-0.158   c3.188-3.824,5.092-9.27,5.092-14.562c0-3.748-0.832-7.097-1.635-10.337c-0.145-0.579-0.287-1.153-0.424-1.728l-0.087-0.362   l0.173-0.332c0.443-0.852,0.676-1.754,0.92-2.71c0.088-0.339,0.174-0.673,0.269-1.001c0.444-1.544,1.175-2.929,1.882-4.267   c1.137-2.151,2.21-4.183,2.195-6.87c-0.02-3.601-1.938-5.667-5.264-5.667c-0.175,0-0.352,0.006-0.533,0.019   c-3.092,0.198-5.635,1.417-8.096,2.594c-0.561,0.268-1.111,0.531-1.656,0.778L40.2,10.957l-0.349-0.097   c-0.991-0.276-1.966-0.635-2.997-1.015C34.851,9.107,32.78,8.345,30.64,8.26c-0.092-0.003-0.183-0.005-0.274-0.005   c-2.944,0-5.043,1.789-5.222,4.452c-0.136,2.042,0.517,3.979,1.149,5.85l0.119,0.353c0.775,2.308,1.576,4.693,2.976,6.233   l0.679,0.746l-0.621,0.555c-0.684,1.71-3.502,14.627-0.329,22.924c1.004,2.625,2.516,4.547,4.505,5.736   c1.494-22.333,4.411-22.798,5.517-22.976C39.235,32.113,39.331,32.105,39.428,32.105"
       id="path10" /></g></svg>