<?xml version="1.0" encoding="UTF-8" standalone="no"?>
<!-- Generator: Adobe Illustrator 15.1.0, SVG Export Plug-In . SVG Version: 6.00 Build 0)  -->

<svg
   xmlns:dc="http://purl.org/dc/elements/1.1/"
   xmlns:cc="http://creativecommons.org/ns#"
   xmlns:rdf="http://www.w3.org/1999/02/22-rdf-syntax-ns#"
   xmlns:svg="http://www.w3.org/2000/svg"
   xmlns="http://www.w3.org/2000/svg"
   xmlns:sodipodi="http://sodipodi.sourceforge.net/DTD/sodipodi-0.dtd"
   xmlns:inkscape="http://www.inkscape.org/namespaces/inkscape"
   version="1.1"
   id="Ebene_1"
   sodipodi:docname="service_block_03.svg"
   inkscape:version="0.91 r13725"
   x="0px"
   y="0px"
   width="87.66px"
   height="73.7px"
   viewBox="0 0 87.66 73.7"
   enable-background="new 0 0 87.66 73.7"
   xml:space="preserve"><metadata
     id="metadata14"><rdf:RDF><cc:Work
         rdf:about=""><dc:format>image/svg+xml</dc:format><dc:type
           rdf:resource="http://purl.org/dc/dcmitype/StillImage" /></cc:Work></rdf:RDF></metadata><defs
     id="defs12" /><sodipodi:namedview
     inkscape:pageshadow="2"
     inkscape:current-layer="g4"
     inkscape:cy="10.444563"
     inkscape:window-height="987"
     borderopacity="1"
     inkscape:window-x="1440"
     id="namedview25"
     inkscape:window-width="1280"
     inkscape:window-maximized="1"
     showgrid="false"
     inkscape:pageopacity="0"
     inkscape:window-y="0"
     guidetolerance="10"
     gridtolerance="10"
     inkscape:zoom="4.5285538"
     inkscape:cx="-13.867951"
     pagecolor="#ffffff"
     objecttolerance="10"
     bordercolor="#666666" /><g
     id="g4"><path
       fill="#00ADEE"
       d="M60.668,32.569c8.49,0,15.371-6.882,15.371-15.371S69.158,1.827,60.668,1.827   c-8.488,0-15.37,6.882-15.37,15.371S52.18,32.569,60.668,32.569"
       id="path6"
       style="fill:#d9534f;fill-opacity:1" /><path
       fill="#FFFFFF"
       d="M55.449,22.75l0.238-0.103c0.469-0.202,0.776-0.822,0.647-1.301c-0.097-0.36,0.171-0.875,0.521-1.002   c0.481-0.174,0.822-0.829,0.689-1.322c-0.098-0.359,0.171-0.875,0.521-1.002c0.48-0.175,0.821-0.83,0.688-1.322   c-0.097-0.36,0.171-0.875,0.521-1.002c0.481-0.174,0.822-0.83,0.689-1.321c-0.098-0.361,0.171-0.875,0.521-1.002   c0.479-0.176,0.822-0.83,0.688-1.323c-0.096-0.36,0.172-0.874,0.521-1.001c0.481-0.175,0.822-0.83,0.688-1.323   c-0.096-0.36,0.172-0.874,0.522-1.002c0.396-0.144,0.711-0.621,0.713-1.085l0.002-0.202l5.086,2.648l-8.014,15.394L55.449,22.75z"
       id="path8" /></g><path
     fill="#231F20"
     d="M63.464,6.64L63.18,7.186l0.012,0.006l0.043,0.16c0.08,0.303-0.151,0.748-0.444,0.855  c-0.544,0.196-0.916,0.91-0.767,1.47c0.082,0.3-0.15,0.747-0.443,0.854c-0.544,0.195-0.916,0.909-0.766,1.47  c0.082,0.301-0.151,0.747-0.444,0.854c-0.544,0.196-0.916,0.911-0.765,1.471c0.08,0.301-0.151,0.748-0.445,0.854  c-0.544,0.197-0.915,0.911-0.766,1.47c0.082,0.302-0.15,0.748-0.444,0.854c-0.544,0.197-0.915,0.911-0.765,1.47  c0.08,0.301-0.151,0.748-0.445,0.854c-0.543,0.196-0.915,0.911-0.766,1.47c0.082,0.301-0.15,0.748-0.445,0.854  c-0.543,0.197-0.217,0.925-0.217,0.925l4.379,2.278l-6.914,3.957l-1.861,3.483H15.83l9.379,39.079h18.039l9.003-38.812l1.499-2.806  l6.887-3.942c0.133-0.075,0.219-0.194,0.271-0.325l0.012,0.006l8.469-16.27L63.464,6.64z M16.655,33.446h33.913L30.764,70.507  c-0.128,0.237-0.093,0.518,0.065,0.715h-5.106L16.655,33.446z M42.73,71.222H31.813c0.031-0.036,0.073-0.058,0.097-0.101  l19.161-35.854L42.73,71.222z M60.658,25.163l-4.904-2.553c0.516-0.223,0.862-0.905,0.717-1.445  c-0.08-0.301,0.151-0.748,0.444-0.854c0.544-0.197,0.916-0.912,0.765-1.47c-0.08-0.302,0.152-0.748,0.445-0.855  c0.544-0.196,0.916-0.91,0.766-1.47c-0.082-0.301,0.151-0.748,0.444-0.854c0.544-0.197,0.916-0.912,0.765-1.471  c-0.08-0.301,0.152-0.748,0.445-0.854c0.544-0.198,0.916-0.912,0.766-1.47c-0.082-0.302,0.151-0.748,0.443-0.854  c0.545-0.198,0.916-0.912,0.766-1.47c-0.08-0.301,0.152-0.748,0.444-0.854c0.459-0.167,0.792-0.701,0.795-1.2l4.8,2.498  L60.658,25.163z"
     id="path10" /></svg>