<?xml version="1.0" encoding="UTF-8" standalone="no"?>
<!-- Generator: Adobe Illustrator 15.1.0, SVG Export Plug-In . SVG Version: 6.00 Build 0)  -->

<svg
   xmlns:dc="http://purl.org/dc/elements/1.1/"
   xmlns:cc="http://creativecommons.org/ns#"
   xmlns:rdf="http://www.w3.org/1999/02/22-rdf-syntax-ns#"
   xmlns:svg="http://www.w3.org/2000/svg"
   xmlns="http://www.w3.org/2000/svg"
   xmlns:sodipodi="http://sodipodi.sourceforge.net/DTD/sodipodi-0.dtd"
   xmlns:inkscape="http://www.inkscape.org/namespaces/inkscape"
   version="1.1"
   id="Ebene_1"
   sodipodi:docname="offer_block_01.svg"
   inkscape:version="0.91 r13725"
   x="0px"
   y="0px"
   width="87.66px"
   height="73.7px"
   viewBox="0 0 87.66 73.7"
   enable-background="new 0 0 87.66 73.7"
   xml:space="preserve"><metadata
     id="metadata12"><rdf:RDF><cc:Work
         rdf:about=""><dc:format>image/svg+xml</dc:format><dc:type
           rdf:resource="http://purl.org/dc/dcmitype/StillImage" /></cc:Work></rdf:RDF></metadata><defs
     id="defs10" /><sodipodi:namedview
     inkscape:pageshadow="2"
     inkscape:current-layer="g4"
     inkscape:cy="12.652773"
     inkscape:window-height="987"
     borderopacity="1"
     inkscape:window-x="1440"
     id="namedview25"
     inkscape:window-width="1280"
     inkscape:window-maximized="1"
     showgrid="false"
     inkscape:pageopacity="0"
     inkscape:window-y="0"
     guidetolerance="10"
     gridtolerance="10"
     inkscape:zoom="4.5285538"
     inkscape:cx="56.132321"
     pagecolor="#ffffff"
     objecttolerance="10"
     bordercolor="#666666" /><g
     id="g4"><path
       fill="#302A2C"
       d="M58.525,65.56H47.084h-1.047H34.596c-0.606-1.847-3.898-13.033,3.637-17.622   c3.431-2.09,5.233-4.346,5.359-6.701h0.001c0-0.003,0-0.006-0.001-0.009c0.001-0.002,0.001-0.006,0.001-0.009h-0.001   c-0.126-2.356-1.928-4.611-5.359-6.701c-7.535-4.59-4.243-15.776-3.637-17.622h11.441h1.047h11.441   c0.607,1.846,3.899,13.032-3.636,17.622c-3.431,2.09-5.233,4.345-5.358,6.701h-0.002c0,0.003,0,0.007,0,0.009   c0,0.003,0,0.006,0,0.009h0.002c0.125,2.355,1.928,4.611,5.358,6.701C62.425,52.527,59.133,63.713,58.525,65.56 M55.301,47.261   c-3.133-1.907-4.852-3.992-4.977-6.033c0.125-2.041,1.844-4.126,4.977-6.034c8.74-5.324,3.928-18.695,3.879-18.83l-0.096-0.258h-12   h-1.047h-12l-0.095,0.258c-0.05,0.135-4.862,13.506,3.879,18.83c3.132,1.908,4.85,3.993,4.977,6.034   c-0.127,2.041-1.845,4.126-4.977,6.033c-8.741,5.324-3.929,18.696-3.879,18.83l0.095,0.259h12h1.047h12l0.096-0.259   C59.229,65.958,64.041,52.585,55.301,47.261"
       id="path6" /><path
       fill="#00ADEE"
       d="M35.952,63.476c-0.812-3.172-1.775-10.499,3.204-14.159c4.978-3.659,6.13-4.64,7.325-5.901   c1.684,1.25,1.463,1.675,7.311,5.854c5.849,4.177,4.058,11.098,3.276,14.207H35.952z"
       id="path8"
       style="fill:#f0ad4e;fill-opacity:1" /></g></svg>