<?xml version="1.0" encoding="UTF-8" standalone="no"?>
<!-- Generator: Adobe Illustrator 15.1.0, SVG Export Plug-In . SVG Version: 6.00 Build 0)  -->

<svg
   xmlns:dc="http://purl.org/dc/elements/1.1/"
   xmlns:cc="http://creativecommons.org/ns#"
   xmlns:rdf="http://www.w3.org/1999/02/22-rdf-syntax-ns#"
   xmlns:svg="http://www.w3.org/2000/svg"
   xmlns="http://www.w3.org/2000/svg"
   xmlns:sodipodi="http://sodipodi.sourceforge.net/DTD/sodipodi-0.dtd"
   xmlns:inkscape="http://www.inkscape.org/namespaces/inkscape"
   version="1.1"
   id="Ebene_1"
   sodipodi:docname="service_block_02.svg"
   inkscape:version="0.91 r13725"
   x="0px"
   y="0px"
   width="87.66px"
   height="73.7px"
   viewBox="0 0 87.66 73.7"
   enable-background="new 0 0 87.66 73.7"
   xml:space="preserve"><metadata
     id="metadata18"><rdf:RDF><cc:Work
         rdf:about=""><dc:format>image/svg+xml</dc:format><dc:type
           rdf:resource="http://purl.org/dc/dcmitype/StillImage" /></cc:Work></rdf:RDF></metadata><defs
     id="defs16" /><sodipodi:namedview
     inkscape:pageshadow="2"
     inkscape:current-layer="g4"
     inkscape:cy="1.611721"
     inkscape:window-height="987"
     borderopacity="1"
     inkscape:window-x="1440"
     id="namedview25"
     inkscape:window-width="1280"
     inkscape:window-maximized="1"
     showgrid="false"
     inkscape:pageopacity="0"
     inkscape:window-y="0"
     guidetolerance="10"
     gridtolerance="10"
     inkscape:zoom="4.5285538"
     inkscape:cx="15.501249"
     pagecolor="#ffffff"
     objecttolerance="10"
     bordercolor="#666666" /><g
     id="g4"><path
       fill="#00ADEE"
       d="M35.239,69.129c8.489,0,15.371-6.882,15.371-15.371s-6.882-15.371-15.371-15.371   c-8.489,0-15.371,6.882-15.371,15.371S26.75,69.129,35.239,69.129"
       id="path6"
       style="fill:#f0ad4e;fill-opacity:1" /><path
       fill="#231F20"
       d="M34.771,52.522l1.965-7.721L70.55,12.578c0.261-0.247,0.673-0.238,0.921,0.023   c0.075,0.08,0.128,0.174,0.155,0.273c0.062,0.225,0.002,0.475-0.178,0.646L37.904,45.486l-1.958,7.69   c-0.037,0.147-0.129,0.263-0.241,0.349l0.009,0.009"
       id="path8" /><path
       fill="#231F20"
       d="M35.903,52.947c0.231,0.833-2.538,2.329-6.186,3.341c-3.648,1.011-6.792,1.156-7.023,0.322   c-0.231-0.833,2.538-2.329,6.186-3.342C32.527,52.257,35.672,52.113,35.903,52.947"
       id="path10" /><path
       fill="#FFFFFF"
       d="M34.01,53.25c0.156,0.563-1.972,1.645-4.752,2.415c-2.781,0.772-5.162,0.94-5.318,0.378   c-0.156-0.562,1.972-1.645,4.752-2.416C31.473,52.856,33.854,52.687,34.01,53.25"
       id="path12" /><path
       fill="#231F20"
       d="M59.722,4.597c-0.107-0.031-0.215-0.034-0.316-0.014c-0.228,0.046-0.424,0.213-0.494,0.452L45.658,49.435   l0.209,0.134c-0.607,1.666-0.63,3.934-0.646,6.863l-0.003,0.509c-0.021,3.554-4.171,5.362-4.213,5.381c0,0,4.97-1.306,4.994-5.377   l0.003-0.509c0.016-2.759,0.033-4.907,0.537-6.436l0.258,0.165l13.36-44.758C60.261,5.064,60.065,4.701,59.722,4.597z"
       id="path14" /></g></svg>