<?xml version="1.0" encoding="UTF-8" standalone="no"?>
<!-- Generator: Adobe Illustrator 15.1.0, SVG Export Plug-In . SVG Version: 6.00 Build 0)  -->

<svg
   xmlns:dc="http://purl.org/dc/elements/1.1/"
   xmlns:cc="http://creativecommons.org/ns#"
   xmlns:rdf="http://www.w3.org/1999/02/22-rdf-syntax-ns#"
   xmlns:svg="http://www.w3.org/2000/svg"
   xmlns="http://www.w3.org/2000/svg"
   xmlns:sodipodi="http://sodipodi.sourceforge.net/DTD/sodipodi-0.dtd"
   xmlns:inkscape="http://www.inkscape.org/namespaces/inkscape"
   version="1.1"
   id="Ebene_1"
   sodipodi:docname="offer_block_02.svg"
   inkscape:version="0.91 r13725"
   x="0px"
   y="0px"
   width="87.66px"
   height="73.7px"
   viewBox="0 0 87.66 73.7"
   enable-background="new 0 0 87.66 73.7"
   xml:space="preserve"><metadata
     id="metadata12"><rdf:RDF><cc:Work
         rdf:about=""><dc:format>image/svg+xml</dc:format><dc:type
           rdf:resource="http://purl.org/dc/dcmitype/StillImage" /></cc:Work></rdf:RDF></metadata><defs
     id="defs10" /><sodipodi:namedview
     inkscape:pageshadow="2"
     inkscape:current-layer="Ebene_1"
     inkscape:cy="12.211131"
     inkscape:window-height="987"
     borderopacity="1"
     inkscape:window-x="1440"
     id="namedview25"
     inkscape:window-width="1280"
     inkscape:window-maximized="1"
     showgrid="false"
     inkscape:pageopacity="0"
     inkscape:window-y="0"
     guidetolerance="10"
     gridtolerance="10"
     inkscape:zoom="4.5285538"
     inkscape:cx="33.608574"
     pagecolor="#ffffff"
     objecttolerance="10"
     bordercolor="#666666" /><path
     fill="#00ADEE"
     d="M43.831,52.7c8.74,0,15.849-7.11,15.849-15.85S52.57,21,43.831,21c-8.74,0-15.85,7.111-15.85,15.851  S35.09,52.7,43.831,52.7"
     id="path4"
     style="fill:#6852ae;fill-opacity:1" /><path
     fill="#231F20"
     d="M43.831,20.521c-9.003,0-16.329,7.325-16.329,16.329c0,9.003,7.325,16.328,16.329,16.328  s16.328-7.325,16.328-16.328C60.158,27.846,52.834,20.521,43.831,20.521z M44.582,52.184c0.022-0.073,0.046-0.146,0.046-0.228  v-2.118c0-0.44-0.357-0.798-0.797-0.798s-0.797,0.357-0.797,0.798v2.118c0,0.08,0.023,0.153,0.046,0.227  c-7.875-0.384-14.198-6.706-14.582-14.581c0.073,0.022,0.146,0.046,0.226,0.046h2.119c0.44,0,0.797-0.357,0.797-0.798  s-0.357-0.798-0.797-0.798h-2.119c-0.08,0-0.153,0.023-0.226,0.046c0.384-7.876,6.707-14.198,14.582-14.582  c-0.022,0.073-0.046,0.146-0.046,0.227v2.118c0,0.44,0.357,0.798,0.797,0.798s0.797-0.357,0.797-0.798v-2.118  c0-0.081-0.023-0.154-0.046-0.228c7.879,0.384,14.206,6.716,14.582,14.598c-0.093-0.038-0.193-0.061-0.301-0.061h-2.119  c-0.439,0-0.797,0.357-0.797,0.798s0.357,0.798,0.797,0.798h2.119c0.107,0,0.208-0.022,0.301-0.061  C58.788,45.468,52.461,51.8,44.582,52.184z"
     id="path6" /><path
     fill="#231F20"
     d="M54.336,26.61c-0.316-0.308-0.82-0.298-1.127,0.02l-8.581,8.886v-8.6c0-0.44-0.357-0.798-0.797-0.798  s-0.797,0.357-0.797,0.798v8.929c-0.357,0.252-0.592,0.665-0.592,1.135c0,0.768,0.622,1.39,1.389,1.39  c0.683,0,1.248-0.495,1.365-1.146l9.16-9.486C54.662,27.42,54.652,26.916,54.336,26.61z"
     id="path8" /></svg>